<?xml version="1.0" encoding="UTF-8" standalone="no"?>
<!DOCTYPE svg PUBLIC "-//W3C//DTD SVG 1.1//EN"
 "http://www.w3.org/Graphics/SVG/1.1/DTD/svg11.dtd">
<!-- Generated by graphviz version 13.1.0 (20250701.0955)
 -->
<!-- Title: LookAndFeel_V4 Pages: 1 -->
<svg width="697pt" height="1308pt"
 viewBox="0.00 0.00 697.00 1308.00" xmlns="http://www.w3.org/2000/svg" xmlns:xlink="http://www.w3.org/1999/xlink">
<g id="graph0" class="graph" transform="scale(1 1) rotate(0) translate(4 1304)">
<title>LookAndFeel_V4</title>
<!-- Node1 -->
<g id="Node000001" class="node">
<title>Node1</title>
<g id="a_Node000001"><a xlink:title="The latest JUCE look&#45;and&#45;feel style, as introduced in 2017.">
<polygon fill="#999999" stroke="#666666" points="689,-690 598.75,-690 598.75,-670 689,-670 689,-690"/>
<text xml:space="preserve" text-anchor="middle" x="643.88" y="-676.5" font-family="Helvetica,sans-Serif" font-size="10.00">LookAndFeel_V4</text>
</a>
</g>
</g>
<!-- Node2 -->
<g id="Node000002" class="node">
<title>Node2</title>
<g id="a_Node000002"><a xlink:href="classLookAndFeel__V3.html" target="_top" xlink:title="The latest JUCE look&#45;and&#45;feel style, as introduced in 2013.">
<polygon fill="white" stroke="#666666" points="562.75,-690 472.5,-690 472.5,-670 562.75,-670 562.75,-690"/>
<text xml:space="preserve" text-anchor="middle" x="517.62" y="-676.5" font-family="Helvetica,sans-Serif" font-size="10.00">LookAndFeel_V3</text>
</a>
</g>
</g>
<!-- Node2&#45;&gt;Node1 -->
<g id="edge1_Node000001_Node000002" class="edge">
<title>Node2&#45;&gt;Node1</title>
<g id="a_edge1_Node000001_Node000002"><a xlink:title=" ">
<path fill="none" stroke="#63b8ff" d="M574.59,-680C582.52,-680 590.59,-680 598.26,-680"/>
<polygon fill="#63b8ff" stroke="#63b8ff" points="574.64,-676.5 564.64,-680 574.64,-683.5 574.64,-676.5"/>
</a>
</g>
</g>
<!-- Node3 -->
<g id="Node000003" class="node">
<title>Node3</title>
<g id="a_Node000003"><a xlink:href="classLookAndFeel__V2.html" target="_top" xlink:title="This LookAndFeel subclass implements the juce style from around 2008&#45;12.">
<polygon fill="white" stroke="#666666" points="436.5,-690 346.25,-690 346.25,-670 436.5,-670 436.5,-690"/>
<text xml:space="preserve" text-anchor="middle" x="391.38" y="-676.5" font-family="Helvetica,sans-Serif" font-size="10.00">LookAndFeel_V2</text>
</a>
</g>
</g>
<!-- Node3&#45;&gt;Node2 -->
<g id="edge2_Node000002_Node000003" class="edge">
<title>Node3&#45;&gt;Node2</title>
<g id="a_edge2_Node000002_Node000003"><a xlink:title=" ">
<path fill="none" stroke="#63b8ff" d="M448.34,-680C456.27,-680 464.34,-680 472.01,-680"/>
<polygon fill="#63b8ff" stroke="#63b8ff" points="448.39,-676.5 438.39,-680 448.39,-683.5 448.39,-676.5"/>
</a>
</g>
</g>
<!-- Node4 -->
<g id="Node000004" class="node">
<title>Node4</title>
<g id="a_Node000004"><a xlink:href="classLookAndFeel.html" target="_top" xlink:title="LookAndFeel objects define the appearance of all the JUCE widgets, and subclasses can be used to appl...">
<polygon fill="white" stroke="#666666" points="310.25,-690 237.25,-690 237.25,-670 310.25,-670 310.25,-690"/>
<text xml:space="preserve" text-anchor="middle" x="273.75" y="-676.5" font-family="Helvetica,sans-Serif" font-size="10.00">LookAndFeel</text>
</a>
</g>
</g>
<!-- Node4&#45;&gt;Node3 -->
<g id="edge3_Node000003_Node000004" class="edge">
<title>Node4&#45;&gt;Node3</title>
<g id="a_edge3_Node000003_Node000004"><a xlink:title=" ">
<path fill="none" stroke="#63b8ff" d="M322,-680C329.9,-680 338.07,-680 345.89,-680"/>
<polygon fill="#63b8ff" stroke="#63b8ff" points="322.21,-676.5 312.21,-680 322.21,-683.5 322.21,-676.5"/>
</a>
</g>
</g>
<!-- Node5 -->
<g id="Node000005" class="node">
<title>Node5</title>
<g id="a_Node000005"><a xlink:href="structScrollBar_1_1LookAndFeelMethods.html" target="_top" xlink:title="This abstract base class is implemented by LookAndFeel classes to provide scrollbar&#45;drawing functiona...">
<polygon fill="white" stroke="#666666" points="178.75,-1300 22.5,-1300 22.5,-1280 178.75,-1280 178.75,-1300"/>
<text xml:space="preserve" text-anchor="middle" x="100.62" y="-1286.5" font-family="Helvetica,sans-Serif" font-size="10.00">ScrollBar::LookAndFeelMethods</text>
</a>
</g>
</g>
<!-- Node5&#45;&gt;Node4 -->
<g id="edge4_Node000004_Node000005" class="edge">
<title>Node5&#45;&gt;Node4</title>
<g id="a_edge4_Node000004_Node000005"><a xlink:title=" ">
<path fill="none" stroke="#63b8ff" d="M189.27,-1280.61C193.66,-1277.97 197.71,-1274.79 201.25,-1271 242.7,-1226.63 268.3,-765.7 272.22,-690.38"/>
<polygon fill="#63b8ff" stroke="#63b8ff" points="187.95,-1277.36 180.53,-1284.92 191.05,-1283.63 187.95,-1277.36"/>
</a>
</g>
</g>
<!-- Node6 -->
<g id="Node000006" class="node">
<title>Node6</title>
<g id="a_Node000006"><a xlink:href="structButton_1_1LookAndFeelMethods.html" target="_top" xlink:title="This abstract base class is implemented by LookAndFeel classes to provide button&#45;drawing functionalit...">
<polygon fill="white" stroke="#666666" points="173.12,-1262 28.12,-1262 28.12,-1242 173.12,-1242 173.12,-1262"/>
<text xml:space="preserve" text-anchor="middle" x="100.62" y="-1248.5" font-family="Helvetica,sans-Serif" font-size="10.00">Button::LookAndFeelMethods</text>
</a>
</g>
</g>
<!-- Node6&#45;&gt;Node4 -->
<g id="edge5_Node000004_Node000006" class="edge">
<title>Node6&#45;&gt;Node4</title>
<g id="a_edge5_Node000004_Node000006"><a xlink:title=" ">
<path fill="none" stroke="#63b8ff" d="M183.92,-1245.43C190.38,-1242.32 196.3,-1238.26 201.25,-1233 278.74,-1150.73 274.36,-758.47 272.99,-690.16"/>
<polygon fill="#63b8ff" stroke="#63b8ff" points="182.83,-1242.1 174.81,-1249.02 185.4,-1248.61 182.83,-1242.1"/>
</a>
</g>
</g>
<!-- Node7 -->
<g id="Node000007" class="node">
<title>Node7</title>
<g id="a_Node000007"><a xlink:href="structImageButton_1_1LookAndFeelMethods.html" target="_top" xlink:title="This abstract base class is implemented by LookAndFeel classes.">
<polygon fill="white" stroke="#666666" points="167.88,-1224 33.38,-1224 33.38,-1192 167.88,-1192 167.88,-1224"/>
<text xml:space="preserve" text-anchor="start" x="41.38" y="-1210.5" font-family="Helvetica,sans-Serif" font-size="10.00">ImageButton::LookAndFeel</text>
<text xml:space="preserve" text-anchor="middle" x="100.62" y="-1198.5" font-family="Helvetica,sans-Serif" font-size="10.00">Methods</text>
</a>
</g>
</g>
<!-- Node7&#45;&gt;Node4 -->
<g id="edge6_Node000004_Node000007" class="edge">
<title>Node7&#45;&gt;Node4</title>
<g id="a_edge6_Node000004_Node000007"><a xlink:title=" ">
<path fill="none" stroke="#63b8ff" d="M178.82,-1198.78C187.28,-1194.99 195.06,-1189.88 201.25,-1183 269.72,-1106.97 272.81,-755.64 272.79,-690.43"/>
<polygon fill="#63b8ff" stroke="#63b8ff" points="177.76,-1195.44 169.63,-1202.24 180.22,-1201.99 177.76,-1195.44"/>
</a>
</g>
</g>
<!-- Node8 -->
<g id="Node000008" class="node">
<title>Node8</title>
<g id="a_Node000008"><a xlink:href="structTextEditor_1_1LookAndFeelMethods.html" target="_top" xlink:title="This abstract base class is implemented by LookAndFeel classes to provide TextEditor drawing function...">
<polygon fill="white" stroke="#666666" points="181,-1174 20.25,-1174 20.25,-1154 181,-1154 181,-1174"/>
<text xml:space="preserve" text-anchor="middle" x="100.62" y="-1160.5" font-family="Helvetica,sans-Serif" font-size="10.00">TextEditor::LookAndFeelMethods</text>
</a>
</g>
</g>
<!-- Node8&#45;&gt;Node4 -->
<g id="edge7_Node000004_Node000008" class="edge">
<title>Node8&#45;&gt;Node4</title>
<g id="a_edge7_Node000004_Node000008"><a xlink:title=" ">
<path fill="none" stroke="#63b8ff" d="M191.37,-1153.09C194.94,-1150.78 198.26,-1148.1 201.25,-1145 266.75,-1077.11 272.26,-753.13 272.71,-690.5"/>
<polygon fill="#63b8ff" stroke="#63b8ff" points="189.92,-1149.89 182.74,-1157.68 193.21,-1156.07 189.92,-1149.89"/>
</a>
</g>
</g>
<!-- Node9 -->
<g id="Node000009" class="node">
<title>Node9</title>
<g id="a_Node000009"><a xlink:href="structFileBrowserComponent_1_1LookAndFeelMethods.html" target="_top" xlink:title="This abstract base class is implemented by LookAndFeel classes to provide various file&#45;browser layout...">
<polygon fill="white" stroke="#666666" points="159.62,-1136 41.62,-1136 41.62,-1104 159.62,-1104 159.62,-1136"/>
<text xml:space="preserve" text-anchor="start" x="49.62" y="-1122.5" font-family="Helvetica,sans-Serif" font-size="10.00">FileBrowserComponent</text>
<text xml:space="preserve" text-anchor="middle" x="100.62" y="-1110.5" font-family="Helvetica,sans-Serif" font-size="10.00">::LookAndFeelMethods</text>
</a>
</g>
</g>
<!-- Node9&#45;&gt;Node4 -->
<g id="edge8_Node000004_Node000009" class="edge">
<title>Node9&#45;&gt;Node4</title>
<g id="a_edge8_Node000004_Node000009"><a xlink:title=" ">
<path fill="none" stroke="#63b8ff" d="M171.03,-1113.58C182.41,-1109.66 193.12,-1103.77 201.25,-1095 258.3,-1033.49 270.52,-748.74 272.44,-690.44"/>
<polygon fill="#63b8ff" stroke="#63b8ff" points="170.08,-1110.21 161.44,-1116.34 172.01,-1116.94 170.08,-1110.21"/>
</a>
</g>
</g>
<!-- Node10 -->
<g id="Node000010" class="node">
<title>Node10</title>
<g id="a_Node000010"><a xlink:href="structTreeView_1_1LookAndFeelMethods.html" target="_top" xlink:title="This abstract base class is implemented by LookAndFeel classes to provide TreeView drawing functional...">
<polygon fill="white" stroke="#666666" points="179.5,-1086 21.75,-1086 21.75,-1066 179.5,-1066 179.5,-1086"/>
<text xml:space="preserve" text-anchor="middle" x="100.62" y="-1072.5" font-family="Helvetica,sans-Serif" font-size="10.00">TreeView::LookAndFeelMethods</text>
</a>
</g>
</g>
<!-- Node10&#45;&gt;Node4 -->
<g id="edge9_Node000004_Node000010" class="edge">
<title>Node10&#45;&gt;Node4</title>
<g id="a_edge9_Node000004_Node000010"><a xlink:title=" ">
<path fill="none" stroke="#63b8ff" d="M189.84,-1065.82C193.97,-1063.35 197.82,-1060.43 201.25,-1057 255.04,-1003.15 269.77,-745.08 272.31,-690.25"/>
<polygon fill="#63b8ff" stroke="#63b8ff" points="188.52,-1062.57 181.09,-1070.13 191.61,-1068.84 188.52,-1062.57"/>
</a>
</g>
</g>
<!-- Node11 -->
<g id="Node000011" class="node">
<title>Node11</title>
<g id="a_Node000011"><a xlink:href="structBubbleComponent_1_1LookAndFeelMethods.html" target="_top" xlink:title="This abstract base class is implemented by LookAndFeel classes.">
<polygon fill="white" stroke="#666666" points="170.88,-1048 30.38,-1048 30.38,-1016 170.88,-1016 170.88,-1048"/>
<text xml:space="preserve" text-anchor="start" x="38.38" y="-1034.5" font-family="Helvetica,sans-Serif" font-size="10.00">BubbleComponent::LookAnd</text>
<text xml:space="preserve" text-anchor="middle" x="100.62" y="-1022.5" font-family="Helvetica,sans-Serif" font-size="10.00">FeelMethods</text>
</a>
</g>
</g>
<!-- Node11&#45;&gt;Node4 -->
<g id="edge10_Node000004_Node000011" class="edge">
<title>Node11&#45;&gt;Node4</title>
<g id="a_edge10_Node000004_Node000011"><a xlink:title=" ">
<path fill="none" stroke="#63b8ff" d="M181.53,-1020.87C188.85,-1017.34 195.62,-1012.81 201.25,-1007 246.97,-959.86 267.69,-741.1 271.92,-690.48"/>
<polygon fill="#63b8ff" stroke="#63b8ff" points="180.58,-1017.48 172.66,-1024.51 183.24,-1023.96 180.58,-1017.48"/>
</a>
</g>
</g>
<!-- Node12 -->
<g id="Node000012" class="node">
<title>Node12</title>
<g id="a_Node000012"><a xlink:href="structAlertWindow_1_1LookAndFeelMethods.html" target="_top" xlink:title="This abstract base class is implemented by LookAndFeel classes to provide alert&#45;window drawing functi...">
<polygon fill="white" stroke="#666666" points="167.88,-998 33.38,-998 33.38,-966 167.88,-966 167.88,-998"/>
<text xml:space="preserve" text-anchor="start" x="41.38" y="-984.5" font-family="Helvetica,sans-Serif" font-size="10.00">AlertWindow::LookAndFeel</text>
<text xml:space="preserve" text-anchor="middle" x="100.62" y="-972.5" font-family="Helvetica,sans-Serif" font-size="10.00">Methods</text>
</a>
</g>
</g>
<!-- Node12&#45;&gt;Node4 -->
<g id="edge11_Node000004_Node000012" class="edge">
<title>Node12&#45;&gt;Node4</title>
<g id="a_edge11_Node000004_Node000012"><a xlink:title=" ">
<path fill="none" stroke="#63b8ff" d="M178.91,-971.75C187.19,-968.12 194.89,-963.32 201.25,-957 240.63,-917.89 265.75,-735.94 271.49,-690.37"/>
<polygon fill="#63b8ff" stroke="#63b8ff" points="177.74,-968.45 169.6,-975.23 180.19,-975.01 177.74,-968.45"/>
</a>
</g>
</g>
<!-- Node13 -->
<g id="Node000013" class="node">
<title>Node13</title>
<g id="a_Node000013"><a xlink:href="structPopupMenu_1_1LookAndFeelMethods.html" target="_top" xlink:title="This abstract base class is implemented by LookAndFeel classes to provide menu drawing functionality.">
<polygon fill="white" stroke="#666666" points="184.75,-948 16.5,-948 16.5,-928 184.75,-928 184.75,-948"/>
<text xml:space="preserve" text-anchor="middle" x="100.62" y="-934.5" font-family="Helvetica,sans-Serif" font-size="10.00">PopupMenu::LookAndFeelMethods</text>
</a>
</g>
</g>
<!-- Node13&#45;&gt;Node4 -->
<g id="edge12_Node000004_Node000013" class="edge">
<title>Node13&#45;&gt;Node4</title>
<g id="a_edge12_Node000004_Node000013"><a xlink:title=" ">
<path fill="none" stroke="#63b8ff" d="M194.79,-924.07C197.05,-922.53 199.21,-920.84 201.25,-919 271.18,-855.88 273.89,-727.5 273.13,-690.31"/>
<polygon fill="#63b8ff" stroke="#63b8ff" points="193.26,-920.92 186.31,-928.91 196.73,-927 193.26,-920.92"/>
</a>
</g>
</g>
<!-- Node14 -->
<g id="Node000014" class="node">
<title>Node14</title>
<g id="a_Node000014"><a xlink:href="structComboBox_1_1LookAndFeelMethods.html" target="_top" xlink:title="This abstract base class is implemented by LookAndFeel classes to provide ComboBox functionality.">
<polygon fill="white" stroke="#666666" points="183.25,-910 18,-910 18,-890 183.25,-890 183.25,-910"/>
<text xml:space="preserve" text-anchor="middle" x="100.62" y="-896.5" font-family="Helvetica,sans-Serif" font-size="10.00">ComboBox::LookAndFeelMethods</text>
</a>
</g>
</g>
<!-- Node14&#45;&gt;Node4 -->
<g id="edge13_Node000004_Node000014" class="edge">
<title>Node14&#45;&gt;Node4</title>
<g id="a_edge13_Node000004_Node000014"><a xlink:title=" ">
<path fill="none" stroke="#63b8ff" d="M193.27,-886.83C196.07,-885.08 198.74,-883.15 201.25,-881 261.42,-829.41 270.96,-723.62 272.47,-690.29"/>
<polygon fill="#63b8ff" stroke="#63b8ff" points="191.88,-883.6 184.64,-891.34 195.12,-889.81 191.88,-883.6"/>
</a>
</g>
</g>
<!-- Node15 -->
<g id="Node000015" class="node">
<title>Node15</title>
<g id="a_Node000015"><a xlink:href="structLabel_1_1LookAndFeelMethods.html" target="_top" xlink:title="This abstract base class is implemented by LookAndFeel classes to provide label drawing functionality...">
<polygon fill="white" stroke="#666666" points="170.5,-872 30.75,-872 30.75,-852 170.5,-852 170.5,-872"/>
<text xml:space="preserve" text-anchor="middle" x="100.62" y="-858.5" font-family="Helvetica,sans-Serif" font-size="10.00">Label::LookAndFeelMethods</text>
</a>
</g>
</g>
<!-- Node15&#45;&gt;Node4 -->
<g id="edge14_Node000004_Node000015" class="edge">
<title>Node15&#45;&gt;Node4</title>
<g id="a_edge14_Node000004_Node000015"><a xlink:title=" ">
<path fill="none" stroke="#63b8ff" d="M181.47,-854.23C188.59,-851.39 195.33,-847.72 201.25,-843 251.75,-802.75 267.45,-719.58 271.51,-690.39"/>
<polygon fill="#63b8ff" stroke="#63b8ff" points="180.6,-850.83 172.25,-857.34 182.84,-857.46 180.6,-850.83"/>
</a>
</g>
</g>
<!-- Node16 -->
<g id="Node000016" class="node">
<title>Node16</title>
<g id="a_Node000016"><a xlink:href="structSlider_1_1LookAndFeelMethods.html" target="_top" xlink:title="This abstract base class is implemented by LookAndFeel classes to provide slider drawing functionalit...">
<polygon fill="white" stroke="#666666" points="171.25,-834 30,-834 30,-814 171.25,-814 171.25,-834"/>
<text xml:space="preserve" text-anchor="middle" x="100.62" y="-820.5" font-family="Helvetica,sans-Serif" font-size="10.00">Slider::LookAndFeelMethods</text>
</a>
</g>
</g>
<!-- Node16&#45;&gt;Node4 -->
<g id="edge15_Node000004_Node000016" class="edge">
<title>Node16&#45;&gt;Node4</title>
<g id="a_edge15_Node000004_Node000016"><a xlink:title=" ">
<path fill="none" stroke="#63b8ff" d="M182.29,-815.06C189.03,-812.43 195.47,-809.13 201.25,-805 242.36,-775.66 263.11,-714.8 270.04,-690.42"/>
<polygon fill="#63b8ff" stroke="#63b8ff" points="181.31,-811.69 172.94,-818.18 183.53,-818.33 181.31,-811.69"/>
</a>
</g>
</g>
<!-- Node17 -->
<g id="Node000017" class="node">
<title>Node17</title>
<g id="a_Node000017"><a xlink:href="structResizableWindow_1_1LookAndFeelMethods.html" target="_top" xlink:title="This abstract base class is implemented by LookAndFeel classes to provide window drawing functionalit...">
<polygon fill="white" stroke="#666666" points="170.12,-796 31.12,-796 31.12,-764 170.12,-764 170.12,-796"/>
<text xml:space="preserve" text-anchor="start" x="39.12" y="-782.5" font-family="Helvetica,sans-Serif" font-size="10.00">ResizableWindow::LookAnd</text>
<text xml:space="preserve" text-anchor="middle" x="100.62" y="-770.5" font-family="Helvetica,sans-Serif" font-size="10.00">FeelMethods</text>
</a>
</g>
</g>
<!-- Node17&#45;&gt;Node4 -->
<g id="edge16_Node000004_Node000017" class="edge">
<title>Node17&#45;&gt;Node4</title>
<g id="a_edge16_Node000004_Node000017"><a xlink:title=" ">
<path fill="none" stroke="#63b8ff" d="M181.04,-764.5C188.09,-761.82 194.94,-758.68 201.25,-755 230.01,-738.25 254.54,-706.54 265.94,-690.24"/>
<polygon fill="#63b8ff" stroke="#63b8ff" points="180.35,-761.04 172.05,-767.62 182.64,-767.65 180.35,-761.04"/>
</a>
</g>
</g>
<!-- Node18 -->
<g id="Node000018" class="node">
<title>Node18</title>
<g id="a_Node000018"><a xlink:href="structDocumentWindow_1_1LookAndFeelMethods.html" target="_top" xlink:title="This abstract base class is implemented by LookAndFeel classes to provide window drawing functionalit...">
<polygon fill="white" stroke="#666666" points="180.25,-746 21,-746 21,-714 180.25,-714 180.25,-746"/>
<text xml:space="preserve" text-anchor="start" x="29" y="-732.5" font-family="Helvetica,sans-Serif" font-size="10.00">DocumentWindow::LookAndFeel</text>
<text xml:space="preserve" text-anchor="middle" x="100.62" y="-720.5" font-family="Helvetica,sans-Serif" font-size="10.00">Methods</text>
</a>
</g>
</g>
<!-- Node18&#45;&gt;Node4 -->
<g id="edge17_Node000004_Node000018" class="edge">
<title>Node18&#45;&gt;Node4</title>
<g id="a_edge17_Node000004_Node000018"><a xlink:title=" ">
<path fill="none" stroke="#63b8ff" d="M181.82,-710.55C188.41,-708.75 194.96,-706.89 201.25,-705 215.74,-700.66 231.64,-695.17 244.76,-690.45"/>
<polygon fill="#63b8ff" stroke="#63b8ff" points="180.93,-707.16 172.18,-713.13 182.74,-713.93 180.93,-707.16"/>
</a>
</g>
</g>
<!-- Node19 -->
<g id="Node000019" class="node">
<title>Node19</title>
<g id="a_Node000019"><a xlink:href="structTooltipWindow_1_1LookAndFeelMethods.html" target="_top" xlink:title="This abstract base class is implemented by LookAndFeel classes to provide window drawing functionalit...">
<polygon fill="white" stroke="#666666" points="172,-696 29.25,-696 29.25,-664 172,-664 172,-696"/>
<text xml:space="preserve" text-anchor="start" x="37.25" y="-682.5" font-family="Helvetica,sans-Serif" font-size="10.00">TooltipWindow::LookAndFeel</text>
<text xml:space="preserve" text-anchor="middle" x="100.62" y="-670.5" font-family="Helvetica,sans-Serif" font-size="10.00">Methods</text>
</a>
</g>
</g>
<!-- Node19&#45;&gt;Node4 -->
<g id="edge18_Node000004_Node000019" class="edge">
<title>Node19&#45;&gt;Node4</title>
<g id="a_edge18_Node000004_Node000019"><a xlink:title=" ">
<path fill="none" stroke="#63b8ff" d="M183.53,-680C202.31,-680 221.33,-680 236.95,-680"/>
<polygon fill="#63b8ff" stroke="#63b8ff" points="183.73,-676.5 173.73,-680 183.73,-683.5 183.73,-676.5"/>
</a>
</g>
</g>
<!-- Node20 -->
<g id="Node000020" class="node">
<title>Node20</title>
<g id="a_Node000020"><a xlink:href="structTabbedButtonBar_1_1LookAndFeelMethods.html" target="_top" xlink:title="This abstract base class is implemented by LookAndFeel classes to provide window drawing functionalit...">
<polygon fill="white" stroke="#666666" points="168.25,-646 33,-646 33,-614 168.25,-614 168.25,-646"/>
<text xml:space="preserve" text-anchor="start" x="41" y="-632.5" font-family="Helvetica,sans-Serif" font-size="10.00">TabbedButtonBar::LookAnd</text>
<text xml:space="preserve" text-anchor="middle" x="100.62" y="-620.5" font-family="Helvetica,sans-Serif" font-size="10.00">FeelMethods</text>
</a>
</g>
</g>
<!-- Node20&#45;&gt;Node4 -->
<g id="edge19_Node000004_Node000020" class="edge">
<title>Node20&#45;&gt;Node4</title>
<g id="a_edge19_Node000004_Node000020"><a xlink:title=" ">
<path fill="none" stroke="#63b8ff" d="M179.67,-648.86C186.99,-650.85 194.27,-652.91 201.25,-655 215.74,-659.34 231.64,-664.83 244.76,-669.55"/>
<polygon fill="#63b8ff" stroke="#63b8ff" points="180.6,-645.49 170.03,-646.3 178.8,-652.25 180.6,-645.49"/>
</a>
</g>
</g>
<!-- Node21 -->
<g id="Node000021" class="node">
<title>Node21</title>
<g id="a_Node000021"><a xlink:href="structPropertyComponent_1_1LookAndFeelMethods.html" target="_top" xlink:title="This abstract base class is implemented by LookAndFeel classes.">
<polygon fill="white" stroke="#666666" points="155.88,-596 45.38,-596 45.38,-564 155.88,-564 155.88,-596"/>
<text xml:space="preserve" text-anchor="start" x="53.38" y="-582.5" font-family="Helvetica,sans-Serif" font-size="10.00">PropertyComponent::</text>
<text xml:space="preserve" text-anchor="middle" x="100.62" y="-570.5" font-family="Helvetica,sans-Serif" font-size="10.00">LookAndFeelMethods</text>
</a>
</g>
</g>
<!-- Node21&#45;&gt;Node4 -->
<g id="edge20_Node000004_Node000021" class="edge">
<title>Node21&#45;&gt;Node4</title>
<g id="a_edge20_Node000004_Node000021"><a xlink:title=" ">
<path fill="none" stroke="#63b8ff" d="M167.07,-590.81C178.92,-594.3 190.81,-598.92 201.25,-605 230.01,-621.75 254.54,-653.46 265.94,-669.76"/>
<polygon fill="#63b8ff" stroke="#63b8ff" points="168.28,-587.51 157.71,-588.29 166.46,-594.27 168.28,-587.51"/>
</a>
</g>
</g>
<!-- Node22 -->
<g id="Node000022" class="node">
<title>Node22</title>
<g id="a_Node000022"><a xlink:href="structFilenameComponent_1_1LookAndFeelMethods.html" target="_top" xlink:title="This abstract base class is implemented by LookAndFeel classes.">
<polygon fill="white" stroke="#666666" points="156.62,-546 44.63,-546 44.63,-514 156.62,-514 156.62,-546"/>
<text xml:space="preserve" text-anchor="start" x="52.62" y="-532.5" font-family="Helvetica,sans-Serif" font-size="10.00">FilenameComponent::</text>
<text xml:space="preserve" text-anchor="middle" x="100.62" y="-520.5" font-family="Helvetica,sans-Serif" font-size="10.00">LookAndFeelMethods</text>
</a>
</g>
</g>
<!-- Node22&#45;&gt;Node4 -->
<g id="edge21_Node000004_Node000022" class="edge">
<title>Node22&#45;&gt;Node4</title>
<g id="a_edge21_Node000004_Node000022"><a xlink:title=" ">
<path fill="none" stroke="#63b8ff" d="M167.99,-538.71C179.85,-542.4 191.51,-547.62 201.25,-555 241.5,-585.5 262.75,-645.7 269.92,-669.73"/>
<polygon fill="#63b8ff" stroke="#63b8ff" points="169.12,-535.39 158.55,-536.13 167.28,-542.14 169.12,-535.39"/>
</a>
</g>
</g>
<!-- Node23 -->
<g id="Node000023" class="node">
<title>Node23</title>
<g id="a_Node000023"><a xlink:href="structGroupComponent_1_1LookAndFeelMethods.html" target="_top" xlink:title="This abstract base class is implemented by LookAndFeel classes.">
<polygon fill="white" stroke="#666666" points="178.38,-496 22.88,-496 22.88,-464 178.38,-464 178.38,-496"/>
<text xml:space="preserve" text-anchor="start" x="30.88" y="-482.5" font-family="Helvetica,sans-Serif" font-size="10.00">GroupComponent::LookAndFeel</text>
<text xml:space="preserve" text-anchor="middle" x="100.62" y="-470.5" font-family="Helvetica,sans-Serif" font-size="10.00">Methods</text>
</a>
</g>
</g>
<!-- Node23&#45;&gt;Node4 -->
<g id="edge22_Node000004_Node000023" class="edge">
<title>Node23&#45;&gt;Node4</title>
<g id="a_edge22_Node000004_Node000023"><a xlink:title=" ">
<path fill="none" stroke="#63b8ff" d="M188.8,-496.3C193.24,-498.81 197.43,-501.69 201.25,-505 253.57,-550.37 268.22,-639.83 271.75,-669.88"/>
<polygon fill="#63b8ff" stroke="#63b8ff" points="190.63,-493.29 180.11,-492.04 187.55,-499.58 190.63,-493.29"/>
</a>
</g>
</g>
<!-- Node24 -->
<g id="Node000024" class="node">
<title>Node24</title>
<g id="a_Node000024"><a xlink:href="structTableHeaderComponent_1_1LookAndFeelMethods.html" target="_top" xlink:title="This abstract base class is implemented by LookAndFeel classes.">
<polygon fill="white" stroke="#666666" points="161.12,-446 40.12,-446 40.12,-414 161.12,-414 161.12,-446"/>
<text xml:space="preserve" text-anchor="start" x="48.12" y="-432.5" font-family="Helvetica,sans-Serif" font-size="10.00">TableHeaderComponent</text>
<text xml:space="preserve" text-anchor="middle" x="100.62" y="-420.5" font-family="Helvetica,sans-Serif" font-size="10.00">::LookAndFeelMethods</text>
</a>
</g>
</g>
<!-- Node24&#45;&gt;Node4 -->
<g id="edge23_Node000004_Node000024" class="edge">
<title>Node24&#45;&gt;Node4</title>
<g id="a_edge23_Node000004_Node000024"><a xlink:title=" ">
<path fill="none" stroke="#63b8ff" d="M172.35,-438.15C183,-441.95 193.11,-447.35 201.25,-455 265.76,-515.64 272.31,-634.13 272.78,-669.68"/>
<polygon fill="#63b8ff" stroke="#63b8ff" points="173.62,-434.88 163.04,-435.31 171.58,-441.57 173.62,-434.88"/>
</a>
</g>
</g>
<!-- Node25 -->
<g id="Node000025" class="node">
<title>Node25</title>
<g id="a_Node000025"><a xlink:href="structCallOutBox_1_1LookAndFeelMethods.html" target="_top" xlink:title="This abstract base class is implemented by LookAndFeel classes.">
<polygon fill="white" stroke="#666666" points="184,-396 17.25,-396 17.25,-376 184,-376 184,-396"/>
<text xml:space="preserve" text-anchor="middle" x="100.62" y="-382.5" font-family="Helvetica,sans-Serif" font-size="10.00">CallOutBox::LookAndFeelMethods</text>
</a>
</g>
</g>
<!-- Node25&#45;&gt;Node4 -->
<g id="edge24_Node000004_Node000025" class="edge">
<title>Node25&#45;&gt;Node4</title>
<g id="a_edge24_Node000004_Node000025"><a xlink:title=" ">
<path fill="none" stroke="#63b8ff" d="M193.99,-399.21C196.55,-400.95 198.98,-402.87 201.25,-405 241.49,-442.67 265.97,-624.17 271.53,-669.65"/>
<polygon fill="#63b8ff" stroke="#63b8ff" points="195.96,-396.31 185.53,-394.44 192.52,-402.4 195.96,-396.31"/>
</a>
</g>
</g>
<!-- Node26 -->
<g id="Node000026" class="node">
<title>Node26</title>
<g id="a_Node000026"><a xlink:href="structToolbar_1_1LookAndFeelMethods.html" target="_top" xlink:title="This abstract base class is implemented by LookAndFeel classes.">
<polygon fill="white" stroke="#666666" points="174.62,-358 26.62,-358 26.62,-338 174.62,-338 174.62,-358"/>
<text xml:space="preserve" text-anchor="middle" x="100.62" y="-344.5" font-family="Helvetica,sans-Serif" font-size="10.00">Toolbar::LookAndFeelMethods</text>
</a>
</g>
</g>
<!-- Node26&#45;&gt;Node4 -->
<g id="edge25_Node000004_Node000026" class="edge">
<title>Node26&#45;&gt;Node4</title>
<g id="a_edge25_Node000004_Node000026"><a xlink:title=" ">
<path fill="none" stroke="#63b8ff" d="M185.67,-356.17C191.37,-359.01 196.66,-362.57 201.25,-367 246.48,-410.63 267.51,-620.26 271.87,-669.59"/>
<polygon fill="#63b8ff" stroke="#63b8ff" points="187.01,-352.94 176.43,-352.37 184.35,-359.41 187.01,-352.94"/>
</a>
</g>
</g>
<!-- Node27 -->
<g id="Node000027" class="node">
<title>Node27</title>
<g id="a_Node000027"><a xlink:href="structConcertinaPanel_1_1LookAndFeelMethods.html" target="_top" xlink:title="This abstract base class is implemented by LookAndFeel classes.">
<polygon fill="white" stroke="#666666" points="166.75,-320 34.5,-320 34.5,-288 166.75,-288 166.75,-320"/>
<text xml:space="preserve" text-anchor="start" x="42.5" y="-306.5" font-family="Helvetica,sans-Serif" font-size="10.00">ConcertinaPanel::LookAnd</text>
<text xml:space="preserve" text-anchor="middle" x="100.62" y="-294.5" font-family="Helvetica,sans-Serif" font-size="10.00">FeelMethods</text>
</a>
</g>
</g>
<!-- Node27&#45;&gt;Node4 -->
<g id="edge26_Node000004_Node000027" class="edge">
<title>Node27&#45;&gt;Node4</title>
<g id="a_edge26_Node000004_Node000027"><a xlink:title=" ">
<path fill="none" stroke="#63b8ff" d="M177.62,-313.23C186.45,-316.99 194.65,-322.1 201.25,-329 250.13,-380.13 268.6,-617.58 272.11,-669.82"/>
<polygon fill="#63b8ff" stroke="#63b8ff" points="179.02,-310.01 168.43,-309.91 176.65,-316.6 179.02,-310.01"/>
</a>
</g>
</g>
<!-- Node28 -->
<g id="Node000028" class="node">
<title>Node28</title>
<g id="a_Node000028"><a xlink:href="structProgressBar_1_1LookAndFeelMethods.html" target="_top" xlink:title="This abstract base class is implemented by LookAndFeel classes.">
<polygon fill="white" stroke="#666666" points="167.12,-270 34.12,-270 34.12,-238 167.12,-238 167.12,-270"/>
<text xml:space="preserve" text-anchor="start" x="42.12" y="-256.5" font-family="Helvetica,sans-Serif" font-size="10.00">ProgressBar::LookAndFeel</text>
<text xml:space="preserve" text-anchor="middle" x="100.62" y="-244.5" font-family="Helvetica,sans-Serif" font-size="10.00">Methods</text>
</a>
</g>
</g>
<!-- Node28&#45;&gt;Node4 -->
<g id="edge27_Node000004_Node000028" class="edge">
<title>Node28&#45;&gt;Node4</title>
<g id="a_edge27_Node000004_Node000028"><a xlink:title=" ">
<path fill="none" stroke="#63b8ff" d="M178.24,-263.28C186.87,-267.04 194.85,-272.14 201.25,-279 256.48,-338.21 270.11,-612.36 272.37,-669.53"/>
<polygon fill="#63b8ff" stroke="#63b8ff" points="179.45,-259.99 168.86,-259.83 177.04,-266.57 179.45,-259.99"/>
</a>
</g>
</g>
<!-- Node29 -->
<g id="Node000029" class="node">
<title>Node29</title>
<g id="a_Node000029"><a xlink:href="structStretchableLayoutResizerBar_1_1LookAndFeelMethods.html" target="_top" xlink:title="This abstract base class is implemented by LookAndFeel classes.">
<polygon fill="white" stroke="#666666" points="166.38,-220 34.88,-220 34.88,-188 166.38,-188 166.38,-220"/>
<text xml:space="preserve" text-anchor="start" x="42.88" y="-206.5" font-family="Helvetica,sans-Serif" font-size="10.00">StretchableLayoutResizer</text>
<text xml:space="preserve" text-anchor="middle" x="100.62" y="-194.5" font-family="Helvetica,sans-Serif" font-size="10.00">Bar::LookAndFeelMethods</text>
</a>
</g>
</g>
<!-- Node29&#45;&gt;Node4 -->
<g id="edge28_Node000004_Node000029" class="edge">
<title>Node29&#45;&gt;Node4</title>
<g id="a_edge28_Node000004_Node000029"><a xlink:title=" ">
<path fill="none" stroke="#63b8ff" d="M177.55,-212.81C186.48,-216.63 194.72,-221.86 201.25,-229 263.06,-296.55 271.54,-609.41 272.61,-669.87"/>
<polygon fill="#63b8ff" stroke="#63b8ff" points="178.83,-209.55 168.23,-209.46 176.46,-216.13 178.83,-209.55"/>
</a>
</g>
</g>
<!-- Node30 -->
<g id="Node000030" class="node">
<title>Node30</title>
<g id="a_Node000030"><a xlink:href="structExtraLookAndFeelBaseClasses_1_1KeyMappingEditorComponentMethods.html" target="_top" xlink:title="This abstract base class is implemented by LookAndFeel classes.">
<polygon fill="white" stroke="#666666" points="195.25,-170 6,-170 6,-138 195.25,-138 195.25,-170"/>
<text xml:space="preserve" text-anchor="start" x="14" y="-156.5" font-family="Helvetica,sans-Serif" font-size="10.00">ExtraLookAndFeelBaseClasses</text>
<text xml:space="preserve" text-anchor="middle" x="100.62" y="-144.5" font-family="Helvetica,sans-Serif" font-size="10.00">::KeyMappingEditorComponentMethods</text>
</a>
</g>
</g>
<!-- Node30&#45;&gt;Node4 -->
<g id="edge29_Node000004_Node000030" class="edge">
<title>Node30&#45;&gt;Node4</title>
<g id="a_edge29_Node000004_Node000030"><a xlink:title=" ">
<path fill="none" stroke="#63b8ff" d="M199.82,-177.48C200.31,-177.97 200.78,-178.48 201.25,-179 269.47,-254.72 272.76,-604.66 272.78,-669.61"/>
<polygon fill="#63b8ff" stroke="#63b8ff" points="202.34,-175.02 192.45,-171.22 197.81,-180.36 202.34,-175.02"/>
</a>
</g>
</g>
<!-- Node31 -->
<g id="Node000031" class="node">
<title>Node31</title>
<g id="a_Node000031"><a xlink:href="structExtraLookAndFeelBaseClasses_1_1AudioDeviceSelectorComponentMethods.html" target="_top" xlink:title="This abstract base class is implemented by LookAndFeel classes.">
<polygon fill="white" stroke="#666666" points="201.25,-120 0,-120 0,-88 201.25,-88 201.25,-120"/>
<text xml:space="preserve" text-anchor="start" x="8" y="-106.5" font-family="Helvetica,sans-Serif" font-size="10.00">ExtraLookAndFeelBaseClasses</text>
<text xml:space="preserve" text-anchor="middle" x="100.62" y="-94.5" font-family="Helvetica,sans-Serif" font-size="10.00">::AudioDeviceSelectorComponentMethods</text>
</a>
</g>
</g>
<!-- Node31&#45;&gt;Node4 -->
<g id="edge30_Node000004_Node000031" class="edge">
<title>Node31&#45;&gt;Node4</title>
<g id="a_edge30_Node000004_Node000031"><a xlink:title=" ">
<path fill="none" stroke="#63b8ff" d="M199.83,-127.47C200.32,-127.97 200.79,-128.48 201.25,-129 276.1,-213.15 273.89,-602.19 272.92,-669.93"/>
<polygon fill="#63b8ff" stroke="#63b8ff" points="202.37,-125.03 192.5,-121.18 197.81,-130.35 202.37,-125.03"/>
</a>
</g>
</g>
<!-- Node32 -->
<g id="Node000032" class="node">
<title>Node32</title>
<g id="a_Node000032"><a xlink:href="structExtraLookAndFeelBaseClasses_1_1LassoComponentMethods.html" target="_top" xlink:title="This abstract base class is implemented by LookAndFeel classes.">
<polygon fill="white" stroke="#666666" points="178,-70 23.25,-70 23.25,-38 178,-38 178,-70"/>
<text xml:space="preserve" text-anchor="start" x="31.25" y="-56.5" font-family="Helvetica,sans-Serif" font-size="10.00">ExtraLookAndFeelBaseClasses</text>
<text xml:space="preserve" text-anchor="middle" x="100.62" y="-44.5" font-family="Helvetica,sans-Serif" font-size="10.00">::LassoComponentMethods</text>
</a>
</g>
</g>
<!-- Node32&#45;&gt;Node4 -->
<g id="edge31_Node000004_Node000032" class="edge">
<title>Node32&#45;&gt;Node4</title>
<g id="a_edge31_Node000004_Node000032"><a xlink:title=" ">
<path fill="none" stroke="#63b8ff" d="M188.55,-68.24C193.24,-71.23 197.54,-74.79 201.25,-79 242.12,-125.44 268.3,-595.04 272.23,-669.95"/>
<polygon fill="#63b8ff" stroke="#63b8ff" points="190.24,-65.17 179.77,-63.56 186.94,-71.35 190.24,-65.17"/>
</a>
</g>
</g>
<!-- Node33 -->
<g id="Node000033" class="node">
<title>Node33</title>
<g id="a_Node000033"><a xlink:href="structSidePanel_1_1LookAndFeelMethods.html" target="_top" xlink:title="This abstract base class is implemented by LookAndFeel classes to provide SidePanel drawing functiona...">
<polygon fill="white" stroke="#666666" points="181,-20 20.25,-20 20.25,0 181,0 181,-20"/>
<text xml:space="preserve" text-anchor="middle" x="100.62" y="-6.5" font-family="Helvetica,sans-Serif" font-size="10.00">SidePanel::LookAndFeelMethods</text>
</a>
</g>
</g>
<!-- Node33&#45;&gt;Node4 -->
<g id="edge32_Node000004_Node000033" class="edge">
<title>Node33&#45;&gt;Node4</title>
<g id="a_edge32_Node000004_Node000033"><a xlink:title=" ">
<path fill="none" stroke="#63b8ff" d="M191.3,-20.6C194.92,-22.99 198.27,-25.77 201.25,-29 246.77,-78.27 269.13,-589.95 272.34,-669.6"/>
<polygon fill="#63b8ff" stroke="#63b8ff" points="192.98,-17.53 182.51,-15.88 189.66,-23.7 192.98,-17.53"/>
</a>
</g>
</g>
</g>
</svg>
