<?xml version="1.0" encoding="UTF-8" standalone="no"?>
<!DOCTYPE svg PUBLIC "-//W3C//DTD SVG 1.1//EN"
 "http://www.w3.org/Graphics/SVG/1.1/DTD/svg11.dtd">
<!-- Generated by graphviz version 13.1.0 (20250701.0955)
 -->
<!-- Title: ARAPlaybackRegion Pages: 1 -->
<svg width="252pt" height="96pt"
 viewBox="0.00 0.00 252.00 96.00" xmlns="http://www.w3.org/2000/svg" xmlns:xlink="http://www.w3.org/1999/xlink">
<g id="graph0" class="graph" transform="scale(1 1) rotate(0) translate(4 92)">
<title>ARAPlaybackRegion</title>
<!-- Node1 -->
<g id="Node000001" class="node">
<title>Node1</title>
<g id="a_Node000001"><a xlink:title="Base class representing an ARA playback region.">
<polygon fill="#999999" stroke="#666666" points="199.12,-20 90.88,-20 90.88,0 199.12,0 199.12,-20"/>
<text xml:space="preserve" text-anchor="middle" x="145" y="-6.5" font-family="Helvetica,sans-Serif" font-size="10.00">ARAPlaybackRegion</text>
</a>
</g>
</g>
<!-- Node2 -->
<g id="Node000002" class="node">
<title>Node2</title>
<g id="a_Node000002"><a xlink:href="classARAListenableModelClass.html" target="_top" xlink:title=" ">
<polygon fill="white" stroke="#666666" points="160,-88 0,-88 0,-56 160,-56 160,-88"/>
<text xml:space="preserve" text-anchor="start" x="8" y="-74.5" font-family="Helvetica,sans-Serif" font-size="10.00">ARAListenableModelClass</text>
<text xml:space="preserve" text-anchor="middle" x="80" y="-62.5" font-family="Helvetica,sans-Serif" font-size="10.00">&lt; ARAPlaybackRegionListener &gt;</text>
</a>
</g>
</g>
<!-- Node2&#45;&gt;Node1 -->
<g id="edge1_Node000001_Node000002" class="edge">
<title>Node2&#45;&gt;Node1</title>
<g id="a_edge1_Node000001_Node000002"><a xlink:title=" ">
<path fill="none" stroke="#63b8ff" d="M105.09,-47.84C115.44,-38.29 126.85,-27.76 134.81,-20.41"/>
<polygon fill="#63b8ff" stroke="#63b8ff" points="102.83,-45.17 97.85,-54.52 107.57,-50.31 102.83,-45.17"/>
</a>
</g>
</g>
<!-- Node3 -->
<g id="Node000003" class="node">
<title>Node3</title>
<g id="a_Node000003"><a xlink:href="classARAObject.html" target="_top" xlink:title="Common base class for all JUCE ARA model objects to aid with the discovery and traversal of the entir...">
<polygon fill="white" stroke="#666666" points="243.75,-82 178.25,-82 178.25,-62 243.75,-62 243.75,-82"/>
<text xml:space="preserve" text-anchor="middle" x="211" y="-68.5" font-family="Helvetica,sans-Serif" font-size="10.00">ARAObject</text>
</a>
</g>
</g>
<!-- Node3&#45;&gt;Node1 -->
<g id="edge2_Node000001_Node000003" class="edge">
<title>Node3&#45;&gt;Node1</title>
<g id="a_edge2_Node000001_Node000003"><a xlink:title=" ">
<path fill="none" stroke="#63b8ff" d="M192.19,-53.9C180.1,-42.91 164.86,-29.05 155.02,-20.11"/>
<polygon fill="#63b8ff" stroke="#63b8ff" points="189.81,-56.47 199.57,-60.61 194.52,-51.29 189.81,-56.47"/>
</a>
</g>
</g>
</g>
</svg>
