<?xml version="1.0" encoding="UTF-8" standalone="no"?>
<!DOCTYPE svg PUBLIC "-//W3C//DTD SVG 1.1//EN"
 "http://www.w3.org/Graphics/SVG/1.1/DTD/svg11.dtd">
<!-- Generated by graphviz version 13.1.0 (20250701.0955)
 -->
<!-- Title: MidiMessageCollector Pages: 1 -->
<svg width="224pt" height="96pt"
 viewBox="0.00 0.00 224.00 96.00" xmlns="http://www.w3.org/2000/svg" xmlns:xlink="http://www.w3.org/1999/xlink">
<g id="graph0" class="graph" transform="scale(1 1) rotate(0) translate(4 92)">
<title>MidiMessageCollector</title>
<!-- Node1 -->
<g id="Node000001" class="node">
<title>Node1</title>
<g id="a_Node000001"><a xlink:title="Collects incoming realtime MIDI messages and turns them into blocks suitable for processing by a bloc...">
<polygon fill="#999999" stroke="#666666" points="166.62,-20 53.88,-20 53.88,0 166.62,0 166.62,-20"/>
<text xml:space="preserve" text-anchor="middle" x="110.25" y="-6.5" font-family="Helvetica,sans-Serif" font-size="10.00">MidiMessageCollector</text>
</a>
</g>
</g>
<!-- Node2 -->
<g id="Node000002" class="node">
<title>Node2</title>
<g id="a_Node000002"><a xlink:href="classMidiKeyboardState_1_1Listener.html" target="_top" xlink:title="Receives events from a MidiKeyboardState object.">
<polygon fill="white" stroke="#666666" points="104.5,-88 0,-88 0,-56 104.5,-56 104.5,-88"/>
<text xml:space="preserve" text-anchor="start" x="8" y="-74.5" font-family="Helvetica,sans-Serif" font-size="10.00">MidiKeyboardState::</text>
<text xml:space="preserve" text-anchor="middle" x="52.25" y="-62.5" font-family="Helvetica,sans-Serif" font-size="10.00">Listener</text>
</a>
</g>
</g>
<!-- Node2&#45;&gt;Node1 -->
<g id="edge1_Node000001_Node000002" class="edge">
<title>Node2&#45;&gt;Node1</title>
<g id="a_edge1_Node000001_Node000002"><a xlink:title=" ">
<path fill="none" stroke="#63b8ff" d="M74.91,-47.56C84.07,-38.08 94.12,-27.68 101.16,-20.41"/>
<polygon fill="#63b8ff" stroke="#63b8ff" points="72.67,-44.84 68.24,-54.46 77.71,-49.7 72.67,-44.84"/>
</a>
</g>
</g>
<!-- Node3 -->
<g id="Node000003" class="node">
<title>Node3</title>
<g id="a_Node000003"><a xlink:href="classMidiInputCallback.html" target="_top" xlink:title="Receives incoming messages from a physical MIDI input device.">
<polygon fill="white" stroke="#666666" points="216.25,-82 122.25,-82 122.25,-62 216.25,-62 216.25,-82"/>
<text xml:space="preserve" text-anchor="middle" x="169.25" y="-68.5" font-family="Helvetica,sans-Serif" font-size="10.00">MidiInputCallback</text>
</a>
</g>
</g>
<!-- Node3&#45;&gt;Node1 -->
<g id="edge2_Node000001_Node000003" class="edge">
<title>Node3&#45;&gt;Node1</title>
<g id="a_edge2_Node000001_Node000003"><a xlink:title=" ">
<path fill="none" stroke="#63b8ff" d="M152.12,-53.58C141.36,-42.63 127.92,-28.97 119.21,-20.11"/>
<polygon fill="#63b8ff" stroke="#63b8ff" points="149.46,-55.87 158.97,-60.55 154.45,-50.96 149.46,-55.87"/>
</a>
</g>
</g>
</g>
</svg>
