<?xml version="1.0" encoding="UTF-8" standalone="no"?>
<!DOCTYPE svg PUBLIC "-//W3C//DTD SVG 1.1//EN"
 "http://www.w3.org/Graphics/SVG/1.1/DTD/svg11.dtd">
<!-- Generated by graphviz version 13.1.0 (20250701.0955)
 -->
<!-- Title: StandalonePluginHolder Pages: 1 -->
<svg width="286pt" height="84pt"
 viewBox="0.00 0.00 286.00 84.00" xmlns="http://www.w3.org/2000/svg" xmlns:xlink="http://www.w3.org/1999/xlink">
<g id="graph0" class="graph" transform="scale(1 1) rotate(0) translate(4 80)">
<title>StandalonePluginHolder</title>
<!-- Node1 -->
<g id="Node000001" class="node">
<title>Node1</title>
<g id="a_Node000001"><a xlink:title="An object that creates and plays a standalone instance of an AudioProcessor.">
<polygon fill="#999999" stroke="#666666" points="219.25,-20 99,-20 99,0 219.25,0 219.25,-20"/>
<text xml:space="preserve" text-anchor="middle" x="159.12" y="-6.5" font-family="Helvetica,sans-Serif" font-size="10.00">StandalonePluginHolder</text>
</a>
</g>
</g>
<!-- Node2 -->
<g id="Node000002" class="node">
<title>Node2</title>
<g id="a_Node000002"><a xlink:href="classAudioIODeviceCallback.html" target="_top" xlink:title="One of these is passed to an AudioIODevice object to stream the audio data in and out.">
<polygon fill="white" stroke="#666666" points="120.25,-76 0,-76 0,-56 120.25,-56 120.25,-76"/>
<text xml:space="preserve" text-anchor="middle" x="60.12" y="-62.5" font-family="Helvetica,sans-Serif" font-size="10.00">AudioIODeviceCallback</text>
</a>
</g>
</g>
<!-- Node2&#45;&gt;Node1 -->
<g id="edge1_Node000001_Node000002" class="edge">
<title>Node2&#45;&gt;Node1</title>
<g id="a_edge1_Node000001_Node000002"><a xlink:title=" ">
<path fill="none" stroke="#8b1a1a" d="M86.99,-50.35C104.41,-40.84 126.61,-28.74 141.75,-20.48"/>
<polygon fill="#8b1a1a" stroke="#8b1a1a" points="85.8,-47.01 78.7,-54.87 89.15,-53.15 85.8,-47.01"/>
</a>
</g>
</g>
<!-- Node3 -->
<g id="Node000003" class="node">
<title>Node3</title>
<g id="a_Node000003"><a xlink:href="classTimer.html" target="_top" xlink:title="Makes repeated callbacks to a virtual method at a specified time interval.">
<polygon fill="white" stroke="#666666" points="179.5,-76 138.75,-76 138.75,-56 179.5,-56 179.5,-76"/>
<text xml:space="preserve" text-anchor="middle" x="159.12" y="-62.5" font-family="Helvetica,sans-Serif" font-size="10.00">Timer</text>
</a>
</g>
</g>
<!-- Node3&#45;&gt;Node1 -->
<g id="edge2_Node000001_Node000003" class="edge">
<title>Node3&#45;&gt;Node1</title>
<g id="a_edge2_Node000001_Node000003"><a xlink:title=" ">
<path fill="none" stroke="#8b1a1a" d="M159.12,-44.13C159.12,-35.9 159.12,-26.85 159.12,-20.3"/>
<polygon fill="#8b1a1a" stroke="#8b1a1a" points="155.63,-44.08 159.13,-54.08 162.63,-44.08 155.63,-44.08"/>
</a>
</g>
</g>
<!-- Node4 -->
<g id="Node000004" class="node">
<title>Node4</title>
<g id="a_Node000004"><a xlink:href="classValue_1_1Listener.html" target="_top" xlink:title="Receives callbacks when a Value object changes.">
<polygon fill="white" stroke="#666666" points="278.38,-76 197.88,-76 197.88,-56 278.38,-56 278.38,-76"/>
<text xml:space="preserve" text-anchor="middle" x="238.12" y="-62.5" font-family="Helvetica,sans-Serif" font-size="10.00">Value::Listener</text>
</a>
</g>
</g>
<!-- Node4&#45;&gt;Node1 -->
<g id="edge3_Node000001_Node000004" class="edge">
<title>Node4&#45;&gt;Node1</title>
<g id="a_edge3_Node000001_Node000004"><a xlink:title=" ">
<path fill="none" stroke="#8b1a1a" d="M215.11,-49.27C201.47,-39.94 184.62,-28.43 172.99,-20.48"/>
<polygon fill="#8b1a1a" stroke="#8b1a1a" points="212.88,-51.99 223.11,-54.74 216.83,-46.21 212.88,-51.99"/>
</a>
</g>
</g>
</g>
</svg>
