<?xml version="1.0" encoding="UTF-8" standalone="no"?>
<!DOCTYPE svg PUBLIC "-//W3C//DTD SVG 1.1//EN"
 "http://www.w3.org/Graphics/SVG/1.1/DTD/svg11.dtd">
<!-- Generated by graphviz version 13.1.0 (20250701.0955)
 -->
<!-- Title: TooltipClient Pages: 1 -->
<svg width="708pt" height="674pt"
 viewBox="0.00 0.00 708.00 674.00" xmlns="http://www.w3.org/2000/svg" xmlns:xlink="http://www.w3.org/1999/xlink">
<g id="graph0" class="graph" transform="scale(1 1) rotate(0) translate(4 670)">
<title>TooltipClient</title>
<!-- Node1 -->
<g id="Node000001" class="node">
<title>Node1</title>
<g id="a_Node000001"><a xlink:title="Components that want to use pop&#45;up tooltips should implement this interface.">
<polygon fill="#999999" stroke="#666666" points="70,-286 0,-286 0,-266 70,-266 70,-286"/>
<text xml:space="preserve" text-anchor="middle" x="35" y="-272.5" font-family="Helvetica,sans-Serif" font-size="10.00">TooltipClient</text>
</a>
</g>
</g>
<!-- Node2 -->
<g id="Node000002" class="node">
<title>Node2</title>
<g id="a_Node000002"><a xlink:href="classSettableTooltipClient.html" target="_top" xlink:title="An implementation of TooltipClient that stores the tooltip string and a method for changing it.">
<polygon fill="white" stroke="#666666" points="212,-286 106,-286 106,-266 212,-266 212,-286"/>
<text xml:space="preserve" text-anchor="middle" x="159" y="-272.5" font-family="Helvetica,sans-Serif" font-size="10.00">SettableTooltipClient</text>
</a>
</g>
</g>
<!-- Node1&#45;&gt;Node2 -->
<g id="edge1_Node000001_Node000002" class="edge">
<title>Node1&#45;&gt;Node2</title>
<g id="a_edge1_Node000001_Node000002"><a xlink:title=" ">
<path fill="none" stroke="#63b8ff" d="M81.8,-276C89.61,-276 97.76,-276 105.72,-276"/>
<polygon fill="#63b8ff" stroke="#63b8ff" points="81.82,-272.5 71.82,-276 81.82,-279.5 81.82,-272.5"/>
</a>
</g>
</g>
<!-- Node3 -->
<g id="Node000003" class="node">
<title>Node3</title>
<g id="a_Node000003"><a xlink:href="classButton.html" target="_top" xlink:title="A base class for buttons.">
<polygon fill="white" stroke="#666666" points="344.62,-495 300.12,-495 300.12,-475 344.62,-475 344.62,-495"/>
<text xml:space="preserve" text-anchor="middle" x="322.38" y="-481.5" font-family="Helvetica,sans-Serif" font-size="10.00">Button</text>
</a>
</g>
</g>
<!-- Node2&#45;&gt;Node3 -->
<g id="edge2_Node000002_Node000003" class="edge">
<title>Node2&#45;&gt;Node3</title>
<g id="a_edge2_Node000002_Node000003"><a xlink:title=" ">
<path fill="none" stroke="#63b8ff" d="M163.68,-297.18C171.65,-336.6 194.35,-421.25 248,-466 262.55,-478.14 283.95,-482.63 299.89,-484.24"/>
<polygon fill="#63b8ff" stroke="#63b8ff" points="167.16,-296.75 161.86,-287.57 160.28,-298.05 167.16,-296.75"/>
</a>
</g>
</g>
<!-- Node14 -->
<g id="Node000014" class="node">
<title>Node14</title>
<g id="a_Node000014"><a xlink:href="classComboBox.html" target="_top" xlink:title="A component that lets the user choose from a drop&#45;down list of choices.">
<polygon fill="white" stroke="#666666" points="354.75,-457 290,-457 290,-437 354.75,-437 354.75,-457"/>
<text xml:space="preserve" text-anchor="middle" x="322.38" y="-443.5" font-family="Helvetica,sans-Serif" font-size="10.00">ComboBox</text>
</a>
</g>
</g>
<!-- Node2&#45;&gt;Node14 -->
<g id="edge13_Node000002_Node000014" class="edge">
<title>Node2&#45;&gt;Node14</title>
<g id="a_edge13_Node000002_Node000014"><a xlink:title=" ">
<path fill="none" stroke="#63b8ff" d="M166.3,-297.06C177.31,-330.14 203.24,-393.99 248,-428 259.94,-437.07 275.8,-441.84 289.72,-444.32"/>
<polygon fill="#63b8ff" stroke="#63b8ff" points="169.73,-296.29 163.37,-287.82 163.06,-298.41 169.73,-296.29"/>
</a>
</g>
</g>
<!-- Node15 -->
<g id="Node000015" class="node">
<title>Node15</title>
<g id="a_Node000015"><a xlink:href="classFileSearchPathListComponent.html" target="_top" xlink:title="Shows a set of file paths in a list, allowing them to be added, removed or re&#45;ordered.">
<polygon fill="white" stroke="#666666" points="396.75,-419 248,-419 248,-399 396.75,-399 396.75,-419"/>
<text xml:space="preserve" text-anchor="middle" x="322.38" y="-405.5" font-family="Helvetica,sans-Serif" font-size="10.00">FileSearchPathListComponent</text>
</a>
</g>
</g>
<!-- Node2&#45;&gt;Node15 -->
<g id="edge14_Node000002_Node000015" class="edge">
<title>Node2&#45;&gt;Node15</title>
<g id="a_edge14_Node000002_Node000015"><a xlink:title=" ">
<path fill="none" stroke="#63b8ff" d="M170.28,-296.51C184.29,-322.31 211.83,-366.13 248,-390 253.27,-393.48 259.15,-396.32 265.21,-398.64"/>
<polygon fill="#63b8ff" stroke="#63b8ff" points="173.41,-294.94 165.67,-287.7 167.21,-298.19 173.41,-294.94"/>
</a>
</g>
</g>
<!-- Node16 -->
<g id="Node000016" class="node">
<title>Node16</title>
<g id="a_Node000016"><a xlink:href="classFilenameComponent.html" target="_top" xlink:title="Shows a filename as an editable text box, with a &#39;browse&#39; button and a drop&#45;down list for recently se...">
<polygon fill="white" stroke="#666666" points="375.38,-381 269.38,-381 269.38,-361 375.38,-361 375.38,-381"/>
<text xml:space="preserve" text-anchor="middle" x="322.38" y="-367.5" font-family="Helvetica,sans-Serif" font-size="10.00">FilenameComponent</text>
</a>
</g>
</g>
<!-- Node2&#45;&gt;Node16 -->
<g id="edge15_Node000002_Node000016" class="edge">
<title>Node2&#45;&gt;Node16</title>
<g id="a_edge15_Node000002_Node000016"><a xlink:title=" ">
<path fill="none" stroke="#63b8ff" d="M176.54,-294.53C193.01,-311.86 219.83,-337.23 248,-352 254.53,-355.42 261.71,-358.26 268.95,-360.59"/>
<polygon fill="#63b8ff" stroke="#63b8ff" points="179.31,-292.37 169.95,-287.4 174.17,-297.12 179.31,-292.37"/>
</a>
</g>
</g>
<!-- Node17 -->
<g id="Node000017" class="node">
<title>Node17</title>
<g id="a_Node000017"><a xlink:href="classImageComponent.html" target="_top" xlink:title="A component that simply displays an image.">
<polygon fill="white" stroke="#666666" points="369,-343 275.75,-343 275.75,-323 369,-323 369,-343"/>
<text xml:space="preserve" text-anchor="middle" x="322.38" y="-329.5" font-family="Helvetica,sans-Serif" font-size="10.00">ImageComponent</text>
</a>
</g>
</g>
<!-- Node2&#45;&gt;Node17 -->
<g id="edge16_Node000002_Node000017" class="edge">
<title>Node2&#45;&gt;Node17</title>
<g id="a_edge16_Node000002_Node000017"><a xlink:title=" ">
<path fill="none" stroke="#63b8ff" d="M191.89,-291.18C208.39,-298.68 229.02,-307.49 248,-314 257.09,-317.12 266.96,-320 276.43,-322.53"/>
<polygon fill="#63b8ff" stroke="#63b8ff" points="193.61,-288.12 183.07,-287.12 190.68,-294.48 193.61,-288.12"/>
</a>
</g>
</g>
<!-- Node18 -->
<g id="Node000018" class="node">
<title>Node18</title>
<g id="a_Node000018"><a xlink:href="classLabel.html" target="_top" xlink:title="A component that displays a text string, and can optionally become a text editor when clicked.">
<polygon fill="white" stroke="#666666" points="342,-305 302.75,-305 302.75,-285 342,-285 342,-305"/>
<text xml:space="preserve" text-anchor="middle" x="322.38" y="-291.5" font-family="Helvetica,sans-Serif" font-size="10.00">Label</text>
</a>
</g>
</g>
<!-- Node2&#45;&gt;Node18 -->
<g id="edge17_Node000002_Node000018" class="edge">
<title>Node2&#45;&gt;Node18</title>
<g id="a_edge17_Node000002_Node000018"><a xlink:title=" ">
<path fill="none" stroke="#63b8ff" d="M223.49,-283.48C251.84,-286.81 283.16,-290.5 302.56,-292.78"/>
<polygon fill="#63b8ff" stroke="#63b8ff" points="224.24,-280.04 213.9,-282.35 223.42,-286.99 224.24,-280.04"/>
</a>
</g>
</g>
<!-- Node19 -->
<g id="Node000019" class="node">
<title>Node19</title>
<g id="a_Node000019"><a xlink:href="classListBox.html" target="_top" xlink:title="A list of items that can be scrolled vertically.">
<polygon fill="white" stroke="#666666" points="346.88,-267 297.88,-267 297.88,-247 346.88,-247 346.88,-267"/>
<text xml:space="preserve" text-anchor="middle" x="322.38" y="-253.5" font-family="Helvetica,sans-Serif" font-size="10.00">ListBox</text>
</a>
</g>
</g>
<!-- Node2&#45;&gt;Node19 -->
<g id="edge18_Node000002_Node000019" class="edge">
<title>Node2&#45;&gt;Node19</title>
<g id="a_edge18_Node000002_Node000019"><a xlink:title=" ">
<path fill="none" stroke="#63b8ff" d="M223.73,-268.5C249.72,-265.44 278.17,-262.09 297.62,-259.8"/>
<polygon fill="#63b8ff" stroke="#63b8ff" points="223.42,-265.01 213.9,-269.65 224.24,-271.96 223.42,-265.01"/>
</a>
</g>
</g>
<!-- Node22 -->
<g id="Node000022" class="node">
<title>Node22</title>
<g id="a_Node000022"><a xlink:href="classProgressBar.html" target="_top" xlink:title="A progress bar component.">
<polygon fill="white" stroke="#666666" points="357.38,-229 287.38,-229 287.38,-209 357.38,-209 357.38,-229"/>
<text xml:space="preserve" text-anchor="middle" x="322.38" y="-215.5" font-family="Helvetica,sans-Serif" font-size="10.00">ProgressBar</text>
</a>
</g>
</g>
<!-- Node2&#45;&gt;Node22 -->
<g id="edge21_Node000002_Node000022" class="edge">
<title>Node2&#45;&gt;Node22</title>
<g id="a_edge21_Node000002_Node000022"><a xlink:title=" ">
<path fill="none" stroke="#63b8ff" d="M191.89,-260.82C208.39,-253.32 229.02,-244.51 248,-238 260.57,-233.69 274.64,-229.82 287.08,-226.72"/>
<polygon fill="#63b8ff" stroke="#63b8ff" points="190.68,-257.52 183.07,-264.88 193.61,-263.88 190.68,-257.52"/>
</a>
</g>
</g>
<!-- Node23 -->
<g id="Node000023" class="node">
<title>Node23</title>
<g id="a_Node000023"><a xlink:href="classPropertyComponent.html" target="_top" xlink:title="A base class for a component that goes in a PropertyPanel and displays one of an item&#39;s properties.">
<polygon fill="white" stroke="#666666" points="373.88,-191 270.88,-191 270.88,-171 373.88,-171 373.88,-191"/>
<text xml:space="preserve" text-anchor="middle" x="322.38" y="-177.5" font-family="Helvetica,sans-Serif" font-size="10.00">PropertyComponent</text>
</a>
</g>
</g>
<!-- Node2&#45;&gt;Node23 -->
<g id="edge22_Node000002_Node000023" class="edge">
<title>Node2&#45;&gt;Node23</title>
<g id="a_edge22_Node000002_Node000023"><a xlink:title=" ">
<path fill="none" stroke="#63b8ff" d="M176.54,-257.47C193.01,-240.14 219.83,-214.77 248,-200 254.99,-196.33 262.74,-193.34 270.5,-190.91"/>
<polygon fill="#63b8ff" stroke="#63b8ff" points="174.17,-254.88 169.95,-264.6 179.31,-259.63 174.17,-254.88"/>
</a>
</g>
</g>
<!-- Node30 -->
<g id="Node000030" class="node">
<title>Node30</title>
<g id="a_Node000030"><a xlink:href="classSlider.html" target="_top" xlink:title="A slider control for changing a value.">
<polygon fill="white" stroke="#666666" points="342.75,-153 302,-153 302,-133 342.75,-133 342.75,-153"/>
<text xml:space="preserve" text-anchor="middle" x="322.38" y="-139.5" font-family="Helvetica,sans-Serif" font-size="10.00">Slider</text>
</a>
</g>
</g>
<!-- Node2&#45;&gt;Node30 -->
<g id="edge29_Node000002_Node000030" class="edge">
<title>Node2&#45;&gt;Node30</title>
<g id="a_edge29_Node000002_Node000030"><a xlink:title=" ">
<path fill="none" stroke="#63b8ff" d="M170.28,-255.49C184.29,-229.69 211.83,-185.87 248,-162 264.14,-151.34 285.94,-146.66 301.58,-144.61"/>
<polygon fill="#63b8ff" stroke="#63b8ff" points="167.21,-253.81 165.67,-264.3 173.41,-257.06 167.21,-253.81"/>
</a>
</g>
</g>
<!-- Node31 -->
<g id="Node000031" class="node">
<title>Node31</title>
<g id="a_Node000031"><a xlink:href="classTextEditor.html" target="_top" xlink:title="An editable text box.">
<polygon fill="white" stroke="#666666" points="352.5,-115 292.25,-115 292.25,-95 352.5,-95 352.5,-115"/>
<text xml:space="preserve" text-anchor="middle" x="322.38" y="-101.5" font-family="Helvetica,sans-Serif" font-size="10.00">TextEditor</text>
</a>
</g>
</g>
<!-- Node2&#45;&gt;Node31 -->
<g id="edge30_Node000002_Node000031" class="edge">
<title>Node2&#45;&gt;Node31</title>
<g id="a_edge30_Node000002_Node000031"><a xlink:title=" ">
<path fill="none" stroke="#63b8ff" d="M166.3,-254.94C177.31,-221.86 203.24,-158.01 248,-124 260.57,-114.45 277.48,-109.68 291.9,-107.3"/>
<polygon fill="#63b8ff" stroke="#63b8ff" points="163.06,-253.59 163.37,-264.18 169.73,-255.71 163.06,-253.59"/>
</a>
</g>
</g>
<!-- Node32 -->
<g id="Node000032" class="node">
<title>Node32</title>
<g id="a_Node000032"><a xlink:href="classTreeView.html" target="_top" xlink:title="A tree&#45;view component.">
<polygon fill="white" stroke="#666666" points="351,-58 293.75,-58 293.75,-38 351,-38 351,-58"/>
<text xml:space="preserve" text-anchor="middle" x="322.38" y="-44.5" font-family="Helvetica,sans-Serif" font-size="10.00">TreeView</text>
</a>
</g>
</g>
<!-- Node2&#45;&gt;Node32 -->
<g id="edge31_Node000002_Node000032" class="edge">
<title>Node2&#45;&gt;Node32</title>
<g id="a_edge31_Node000002_Node000032"><a xlink:title=" ">
<path fill="none" stroke="#63b8ff" d="M164.95,-254.81C174.8,-216.73 200.15,-136.01 248,-86 260.5,-72.94 278.47,-63.53 293.5,-57.34"/>
<polygon fill="#63b8ff" stroke="#63b8ff" points="161.65,-253.57 162.65,-264.12 168.45,-255.25 161.65,-253.57"/>
</a>
</g>
</g>
<!-- Node4 -->
<g id="Node000004" class="node">
<title>Node4</title>
<g id="a_Node000004"><a xlink:href="classArrowButton.html" target="_top" xlink:title="A button with an arrow in it.">
<polygon fill="white" stroke="#666666" points="545.12,-666 475.12,-666 475.12,-646 545.12,-646 545.12,-666"/>
<text xml:space="preserve" text-anchor="middle" x="510.12" y="-652.5" font-family="Helvetica,sans-Serif" font-size="10.00">ArrowButton</text>
</a>
</g>
</g>
<!-- Node3&#45;&gt;Node4 -->
<g id="edge3_Node000003_Node000004" class="edge">
<title>Node3&#45;&gt;Node4</title>
<g id="a_edge3_Node000003_Node000004"><a xlink:title=" ">
<path fill="none" stroke="#63b8ff" d="M332.41,-505.72C347.95,-538.79 382.91,-603.24 432.75,-637 445.08,-645.35 460.76,-650.04 474.69,-652.66"/>
<polygon fill="#63b8ff" stroke="#63b8ff" points="335.69,-504.46 328.36,-496.8 329.32,-507.36 335.69,-504.46"/>
</a>
</g>
</g>
<!-- Node5 -->
<g id="Node000005" class="node">
<title>Node5</title>
<g id="a_Node000005"><a xlink:href="classDrawableButton.html" target="_top" xlink:title="A button that displays a Drawable.">
<polygon fill="white" stroke="#666666" points="553,-628 467.25,-628 467.25,-608 553,-608 553,-628"/>
<text xml:space="preserve" text-anchor="middle" x="510.12" y="-614.5" font-family="Helvetica,sans-Serif" font-size="10.00">DrawableButton</text>
</a>
</g>
</g>
<!-- Node3&#45;&gt;Node5 -->
<g id="edge4_Node000003_Node000005" class="edge">
<title>Node3&#45;&gt;Node5</title>
<g id="a_edge4_Node000003_Node000005"><a xlink:title=" ">
<path fill="none" stroke="#63b8ff" d="M336.61,-504.49C355.08,-530.16 391.05,-574.85 432.75,-599 443.15,-605.03 455.43,-609.15 467.06,-611.98"/>
<polygon fill="#63b8ff" stroke="#63b8ff" points="339.68,-502.78 331.07,-496.61 333.95,-506.8 339.68,-502.78"/>
</a>
</g>
</g>
<!-- Node6 -->
<g id="Node000006" class="node">
<title>Node6</title>
<g id="a_Node000006"><a xlink:href="classHyperlinkButton.html" target="_top" xlink:title="A button showing an underlined weblink, that will launch the link when it&#39;s clicked.">
<polygon fill="white" stroke="#666666" points="553,-590 467.25,-590 467.25,-570 553,-570 553,-590"/>
<text xml:space="preserve" text-anchor="middle" x="510.12" y="-576.5" font-family="Helvetica,sans-Serif" font-size="10.00">HyperlinkButton</text>
</a>
</g>
</g>
<!-- Node3&#45;&gt;Node6 -->
<g id="edge5_Node000003_Node000006" class="edge">
<title>Node3&#45;&gt;Node6</title>
<g id="a_edge5_Node000003_Node000006"><a xlink:title=" ">
<path fill="none" stroke="#63b8ff" d="M343.94,-502.75C364.94,-520 399.15,-545.77 432.75,-561 443.45,-565.85 455.58,-569.59 466.98,-572.41"/>
<polygon fill="#63b8ff" stroke="#63b8ff" points="346.34,-500.19 336.43,-496.46 341.85,-505.56 346.34,-500.19"/>
</a>
</g>
</g>
<!-- Node7 -->
<g id="Node000007" class="node">
<title>Node7</title>
<g id="a_Node000007"><a xlink:href="classImageButton.html" target="_top" xlink:title="As the title suggests, this is a button containing an image.">
<polygon fill="white" stroke="#666666" points="545.88,-552 474.38,-552 474.38,-532 545.88,-532 545.88,-552"/>
<text xml:space="preserve" text-anchor="middle" x="510.12" y="-538.5" font-family="Helvetica,sans-Serif" font-size="10.00">ImageButton</text>
</a>
</g>
</g>
<!-- Node3&#45;&gt;Node7 -->
<g id="edge6_Node000003_Node000007" class="edge">
<title>Node3&#45;&gt;Node7</title>
<g id="a_edge6_Node000003_Node000007"><a xlink:title=" ">
<path fill="none" stroke="#63b8ff" d="M355.55,-497.04C377.21,-504.93 406.5,-515.19 432.75,-523 446.11,-526.97 460.95,-530.8 473.96,-533.96"/>
<polygon fill="#63b8ff" stroke="#63b8ff" points="356.99,-493.84 346.4,-493.68 354.58,-500.41 356.99,-493.84"/>
</a>
</g>
</g>
<!-- Node8 -->
<g id="Node000008" class="node">
<title>Node8</title>
<g id="a_Node000008"><a xlink:href="classShapeButton.html" target="_top" xlink:title="A button that contains a filled shape.">
<polygon fill="white" stroke="#666666" points="546.25,-514 474,-514 474,-494 546.25,-494 546.25,-514"/>
<text xml:space="preserve" text-anchor="middle" x="510.12" y="-500.5" font-family="Helvetica,sans-Serif" font-size="10.00">ShapeButton</text>
</a>
</g>
</g>
<!-- Node3&#45;&gt;Node8 -->
<g id="edge7_Node000003_Node000008" class="edge">
<title>Node3&#45;&gt;Node8</title>
<g id="a_edge7_Node000003_Node000008"><a xlink:title=" ">
<path fill="none" stroke="#63b8ff" d="M356.33,-488.37C389.29,-491.74 439.81,-496.91 473.64,-500.37"/>
<polygon fill="#63b8ff" stroke="#63b8ff" points="356.86,-484.91 346.55,-487.37 356.14,-491.87 356.86,-484.91"/>
</a>
</g>
</g>
<!-- Node9 -->
<g id="Node000009" class="node">
<title>Node9</title>
<g id="a_Node000009"><a xlink:href="classTabBarButton.html" target="_top" xlink:title="In a TabbedButtonBar, this component is used for each of the buttons.">
<polygon fill="white" stroke="#666666" points="547.75,-476 472.5,-476 472.5,-456 547.75,-456 547.75,-476"/>
<text xml:space="preserve" text-anchor="middle" x="510.12" y="-462.5" font-family="Helvetica,sans-Serif" font-size="10.00">TabBarButton</text>
</a>
</g>
</g>
<!-- Node3&#45;&gt;Node9 -->
<g id="edge8_Node000003_Node000009" class="edge">
<title>Node3&#45;&gt;Node9</title>
<g id="a_edge8_Node000003_Node000009"><a xlink:title=" ">
<path fill="none" stroke="#63b8ff" d="M356.18,-481.64C388.69,-478.32 438.39,-473.24 472.25,-469.77"/>
<polygon fill="#63b8ff" stroke="#63b8ff" points="356.14,-478.13 346.55,-482.63 356.86,-485.09 356.14,-478.13"/>
</a>
</g>
</g>
<!-- Node10 -->
<g id="Node000010" class="node">
<title>Node10</title>
<g id="a_Node000010"><a xlink:href="classTextButton.html" target="_top" xlink:title="A button that uses the standard lozenge&#45;shaped background with a line of text on it.">
<polygon fill="white" stroke="#666666" points="541.75,-438 478.5,-438 478.5,-418 541.75,-418 541.75,-438"/>
<text xml:space="preserve" text-anchor="middle" x="510.12" y="-424.5" font-family="Helvetica,sans-Serif" font-size="10.00">TextButton</text>
</a>
</g>
</g>
<!-- Node3&#45;&gt;Node10 -->
<g id="edge9_Node000003_Node000010" class="edge">
<title>Node3&#45;&gt;Node10</title>
<g id="a_edge9_Node000003_Node000010"><a xlink:title=" ">
<path fill="none" stroke="#63b8ff" d="M356.16,-478.23C369.02,-475.13 383.79,-471.02 396.75,-466 413.62,-459.47 415.85,-453.45 432.75,-447 447.3,-441.44 464.04,-437.07 478.13,-433.92"/>
<polygon fill="#63b8ff" stroke="#63b8ff" points="355.42,-474.81 346.45,-480.45 356.98,-481.63 355.42,-474.81"/>
</a>
</g>
</g>
<!-- Node11 -->
<g id="Node000011" class="node">
<title>Node11</title>
<g id="a_Node000011"><a xlink:href="classToggleButton.html" target="_top" xlink:title="A button that can be toggled on/off.">
<polygon fill="white" stroke="#666666" points="546.62,-400 473.62,-400 473.62,-380 546.62,-380 546.62,-400"/>
<text xml:space="preserve" text-anchor="middle" x="510.12" y="-386.5" font-family="Helvetica,sans-Serif" font-size="10.00">ToggleButton</text>
</a>
</g>
</g>
<!-- Node3&#45;&gt;Node11 -->
<g id="edge10_Node000003_Node000011" class="edge">
<title>Node3&#45;&gt;Node11</title>
<g id="a_edge10_Node000003_Node000011"><a xlink:title=" ">
<path fill="none" stroke="#63b8ff" d="M356.4,-481.82C369.91,-479.23 385.08,-474.52 396.75,-466 420.95,-448.34 408.46,-426.55 432.75,-409 444.49,-400.52 459.6,-395.8 473.28,-393.19"/>
<polygon fill="#63b8ff" stroke="#63b8ff" points="355.92,-478.36 346.58,-483.37 357.01,-485.27 355.92,-478.36"/>
</a>
</g>
</g>
<!-- Node12 -->
<g id="Node000012" class="node">
<title>Node12</title>
<g id="a_Node000012"><a xlink:href="classToolbarItemComponent.html" target="_top" xlink:title="A component that can be used as one of the items in a Toolbar.">
<polygon fill="white" stroke="#666666" points="568.75,-362 451.5,-362 451.5,-342 568.75,-342 568.75,-362"/>
<text xml:space="preserve" text-anchor="middle" x="510.12" y="-348.5" font-family="Helvetica,sans-Serif" font-size="10.00">ToolbarItemComponent</text>
</a>
</g>
</g>
<!-- Node3&#45;&gt;Node12 -->
<g id="edge11_Node000003_Node000012" class="edge">
<title>Node3&#45;&gt;Node12</title>
<g id="a_edge11_Node000003_Node000012"><a xlink:title=" ">
<path fill="none" stroke="#63b8ff" d="M356.3,-483.1C370.22,-480.75 385.73,-475.88 396.75,-466 430.37,-435.86 398.99,-400.98 432.75,-371 438.06,-366.28 444.37,-362.7 451.04,-359.98"/>
<polygon fill="#63b8ff" stroke="#63b8ff" points="356.09,-479.6 346.62,-484.34 356.98,-486.54 356.09,-479.6"/>
</a>
</g>
</g>
<!-- Node13 -->
<g id="Node000013" class="node">
<title>Node13</title>
<g id="a_Node000013"><a xlink:href="classToolbarButton.html" target="_top" xlink:title="A type of button designed to go on a toolbar.">
<polygon fill="white" stroke="#666666" points="699.5,-362 623.5,-362 623.5,-342 699.5,-342 699.5,-362"/>
<text xml:space="preserve" text-anchor="middle" x="661.5" y="-348.5" font-family="Helvetica,sans-Serif" font-size="10.00">ToolbarButton</text>
</a>
</g>
</g>
<!-- Node12&#45;&gt;Node13 -->
<g id="edge12_Node000012_Node000013" class="edge">
<title>Node12&#45;&gt;Node13</title>
<g id="a_edge12_Node000012_Node000013"><a xlink:title=" ">
<path fill="none" stroke="#63b8ff" d="M580.12,-352C594.95,-352 610.08,-352 623.16,-352"/>
<polygon fill="#63b8ff" stroke="#63b8ff" points="580.39,-348.5 570.39,-352 580.39,-355.5 580.39,-348.5"/>
</a>
</g>
</g>
<!-- Node20 -->
<g id="Node000020" class="node">
<title>Node20</title>
<g id="a_Node000020"><a xlink:href="classFileListComponent.html" target="_top" xlink:title="A component that displays the files in a directory as a listbox.">
<polygon fill="white" stroke="#666666" points="559,-324 461.25,-324 461.25,-304 559,-304 559,-324"/>
<text xml:space="preserve" text-anchor="middle" x="510.12" y="-310.5" font-family="Helvetica,sans-Serif" font-size="10.00">FileListComponent</text>
</a>
</g>
</g>
<!-- Node19&#45;&gt;Node20 -->
<g id="edge19_Node000019_Node000020" class="edge">
<title>Node19&#45;&gt;Node20</title>
<g id="a_edge19_Node000019_Node000020"><a xlink:title=" ">
<path fill="none" stroke="#63b8ff" d="M358.13,-264.25C370.52,-267.29 384.44,-271.23 396.75,-276 413.62,-282.53 415.85,-288.55 432.75,-295 441.69,-298.41 451.44,-301.38 460.91,-303.89"/>
<polygon fill="#63b8ff" stroke="#63b8ff" points="359.28,-260.92 348.75,-262.06 357.69,-267.74 359.28,-260.92"/>
</a>
</g>
</g>
<!-- Node21 -->
<g id="Node000021" class="node">
<title>Node21</title>
<g id="a_Node000021"><a xlink:href="classTableListBox.html" target="_top" xlink:title="A table of cells, using a TableHeaderComponent as its header.">
<polygon fill="white" stroke="#666666" points="546.25,-286 474,-286 474,-266 546.25,-266 546.25,-286"/>
<text xml:space="preserve" text-anchor="middle" x="510.12" y="-272.5" font-family="Helvetica,sans-Serif" font-size="10.00">TableListBox</text>
</a>
</g>
</g>
<!-- Node19&#45;&gt;Node21 -->
<g id="edge20_Node000019_Node000021" class="edge">
<title>Node19&#45;&gt;Node21</title>
<g id="a_edge20_Node000019_Node000021"><a xlink:title=" ">
<path fill="none" stroke="#63b8ff" d="M358.63,-260.61C391.58,-263.98 440.51,-268.98 473.55,-272.36"/>
<polygon fill="#63b8ff" stroke="#63b8ff" points="359.09,-257.13 348.78,-259.6 358.38,-264.1 359.09,-257.13"/>
</a>
</g>
</g>
<!-- Node24 -->
<g id="Node000024" class="node">
<title>Node24</title>
<g id="a_Node000024"><a xlink:href="classBooleanPropertyComponent.html" target="_top" xlink:title="A PropertyComponent that contains an on/off toggle button.">
<polygon fill="white" stroke="#666666" points="579.25,-248 441,-248 441,-228 579.25,-228 579.25,-248"/>
<text xml:space="preserve" text-anchor="middle" x="510.12" y="-234.5" font-family="Helvetica,sans-Serif" font-size="10.00">BooleanPropertyComponent</text>
</a>
</g>
</g>
<!-- Node23&#45;&gt;Node24 -->
<g id="edge23_Node000023_Node000024" class="edge">
<title>Node23&#45;&gt;Node24</title>
<g id="a_edge23_Node000023_Node000024"><a xlink:title=" ">
<path fill="none" stroke="#63b8ff" d="M381.31,-194.65C386.58,-196.3 391.8,-198.08 396.75,-200 413.62,-206.53 415.85,-212.55 432.75,-219 441.3,-222.27 450.61,-225.12 459.69,-227.56"/>
<polygon fill="#63b8ff" stroke="#63b8ff" points="382.5,-191.35 371.92,-191.89 380.53,-198.07 382.5,-191.35"/>
</a>
</g>
</g>
<!-- Node25 -->
<g id="Node000025" class="node">
<title>Node25</title>
<g id="a_Node000025"><a xlink:href="classButtonPropertyComponent.html" target="_top" xlink:title="A PropertyComponent that contains a button.">
<polygon fill="white" stroke="#666666" points="575.88,-210 444.38,-210 444.38,-190 575.88,-190 575.88,-210"/>
<text xml:space="preserve" text-anchor="middle" x="510.12" y="-196.5" font-family="Helvetica,sans-Serif" font-size="10.00">ButtonPropertyComponent</text>
</a>
</g>
</g>
<!-- Node23&#45;&gt;Node25 -->
<g id="edge24_Node000023_Node000025" class="edge">
<title>Node23&#45;&gt;Node25</title>
<g id="a_edge24_Node000023_Node000025"><a xlink:title=" ">
<path fill="none" stroke="#63b8ff" d="M385.57,-187.36C404.4,-189.29 425.11,-191.41 444.11,-193.35"/>
<polygon fill="#63b8ff" stroke="#63b8ff" points="385.94,-183.88 375.64,-186.35 385.23,-190.85 385.94,-183.88"/>
</a>
</g>
</g>
<!-- Node26 -->
<g id="Node000026" class="node">
<title>Node26</title>
<g id="a_Node000026"><a xlink:href="classChoicePropertyComponent.html" target="_top" xlink:title="A PropertyComponent that shows its value as a combo box.">
<polygon fill="white" stroke="#666666" points="577,-172 443.25,-172 443.25,-152 577,-152 577,-172"/>
<text xml:space="preserve" text-anchor="middle" x="510.12" y="-158.5" font-family="Helvetica,sans-Serif" font-size="10.00">ChoicePropertyComponent</text>
</a>
</g>
</g>
<!-- Node23&#45;&gt;Node26 -->
<g id="edge25_Node000023_Node000026" class="edge">
<title>Node23&#45;&gt;Node26</title>
<g id="a_edge25_Node000023_Node000026"><a xlink:title=" ">
<path fill="none" stroke="#63b8ff" d="M385.4,-174.66C403.93,-172.76 424.3,-170.68 443.08,-168.76"/>
<polygon fill="#63b8ff" stroke="#63b8ff" points="385.23,-171.15 375.64,-175.65 385.94,-178.12 385.23,-171.15"/>
</a>
</g>
</g>
<!-- Node27 -->
<g id="Node000027" class="node">
<title>Node27</title>
<g id="a_Node000027"><a xlink:href="classMultiChoicePropertyComponent.html" target="_top" xlink:title="A PropertyComponent that shows its value as an expandable list of ToggleButtons.">
<polygon fill="white" stroke="#666666" points="587.5,-134 432.75,-134 432.75,-114 587.5,-114 587.5,-134"/>
<text xml:space="preserve" text-anchor="middle" x="510.12" y="-120.5" font-family="Helvetica,sans-Serif" font-size="10.00">MultiChoicePropertyComponent</text>
</a>
</g>
</g>
<!-- Node23&#45;&gt;Node27 -->
<g id="edge26_Node000023_Node000027" class="edge">
<title>Node23&#45;&gt;Node27</title>
<g id="a_edge26_Node000023_Node000027"><a xlink:title=" ">
<path fill="none" stroke="#63b8ff" d="M381.31,-167.35C386.58,-165.7 391.8,-163.92 396.75,-162 413.62,-155.47 415.85,-149.45 432.75,-143 441.3,-139.73 450.61,-136.88 459.69,-134.44"/>
<polygon fill="#63b8ff" stroke="#63b8ff" points="380.53,-163.93 371.92,-170.11 382.5,-170.65 380.53,-163.93"/>
</a>
</g>
</g>
<!-- Node28 -->
<g id="Node000028" class="node">
<title>Node28</title>
<g id="a_Node000028"><a xlink:href="classSliderPropertyComponent.html" target="_top" xlink:title="A PropertyComponent that shows its value as a slider.">
<polygon fill="white" stroke="#666666" points="574,-96 446.25,-96 446.25,-76 574,-76 574,-96"/>
<text xml:space="preserve" text-anchor="middle" x="510.12" y="-82.5" font-family="Helvetica,sans-Serif" font-size="10.00">SliderPropertyComponent</text>
</a>
</g>
</g>
<!-- Node23&#45;&gt;Node28 -->
<g id="edge27_Node000023_Node000028" class="edge">
<title>Node23&#45;&gt;Node28</title>
<g id="a_edge27_Node000023_Node000028"><a xlink:title=" ">
<path fill="none" stroke="#63b8ff" d="M384.53,-169.11C388.85,-167.1 392.98,-164.75 396.75,-162 420.95,-144.34 408.46,-122.55 432.75,-105 437.51,-101.56 442.83,-98.74 448.38,-96.43"/>
<polygon fill="#63b8ff" stroke="#63b8ff" points="383.6,-165.72 375.59,-172.66 386.18,-172.22 383.6,-165.72"/>
</a>
</g>
</g>
<!-- Node29 -->
<g id="Node000029" class="node">
<title>Node29</title>
<g id="a_Node000029"><a xlink:href="classTextPropertyComponent.html" target="_top" xlink:title="A PropertyComponent that shows its value as editable text.">
<polygon fill="white" stroke="#666666" points="571,-58 449.25,-58 449.25,-38 571,-38 571,-58"/>
<text xml:space="preserve" text-anchor="middle" x="510.12" y="-44.5" font-family="Helvetica,sans-Serif" font-size="10.00">TextPropertyComponent</text>
</a>
</g>
</g>
<!-- Node23&#45;&gt;Node29 -->
<g id="edge28_Node000023_Node000029" class="edge">
<title>Node23&#45;&gt;Node29</title>
<g id="a_edge28_Node000023_Node000029"><a xlink:title=" ">
<path fill="none" stroke="#63b8ff" d="M384.79,-170.13C389.11,-167.89 393.17,-165.21 396.75,-162 430.37,-131.86 398.99,-96.98 432.75,-67 437.55,-62.74 443.16,-59.4 449.13,-56.79"/>
<polygon fill="#63b8ff" stroke="#63b8ff" points="383.55,-166.86 375.72,-174 386.29,-173.3 383.55,-166.86"/>
</a>
</g>
</g>
<!-- Node33 -->
<g id="Node000033" class="node">
<title>Node33</title>
<g id="a_Node000033"><a xlink:href="classFileTreeComponent.html" target="_top" xlink:title="A component that displays the files in a directory as a treeview.">
<polygon fill="white" stroke="#666666" points="560.88,-20 459.38,-20 459.38,0 560.88,0 560.88,-20"/>
<text xml:space="preserve" text-anchor="middle" x="510.12" y="-6.5" font-family="Helvetica,sans-Serif" font-size="10.00">FileTreeComponent</text>
</a>
</g>
</g>
<!-- Node32&#45;&gt;Node33 -->
<g id="edge32_Node000032_Node000033" class="edge">
<title>Node32&#45;&gt;Node33</title>
<g id="a_edge32_Node000032_Node000033"><a xlink:title=" ">
<path fill="none" stroke="#63b8ff" d="M362.19,-40.06C390.32,-34.3 428.61,-26.47 459.05,-20.24"/>
<polygon fill="#63b8ff" stroke="#63b8ff" points="361.76,-36.57 352.67,-42.01 363.17,-43.43 361.76,-36.57"/>
</a>
</g>
</g>
</g>
</svg>
