<?xml version="1.0" encoding="UTF-8" standalone="no"?>
<!DOCTYPE svg PUBLIC "-//W3C//DTD SVG 1.1//EN"
 "http://www.w3.org/Graphics/SVG/1.1/DTD/svg11.dtd">
<!-- Generated by graphviz version 13.1.0 (20250701.0955)
 -->
<!-- Title: ARAMusicalContext Pages: 1 -->
<svg width="248pt" height="96pt"
 viewBox="0.00 0.00 248.00 96.00" xmlns="http://www.w3.org/2000/svg" xmlns:xlink="http://www.w3.org/1999/xlink">
<g id="graph0" class="graph" transform="scale(1 1) rotate(0) translate(4 92)">
<title>ARAMusicalContext</title>
<!-- Node1 -->
<g id="Node000001" class="node">
<title>Node1</title>
<g id="a_Node000001"><a xlink:title="Base class representing an ARA musical context.">
<polygon fill="#999999" stroke="#666666" points="195.12,-20 89.88,-20 89.88,0 195.12,0 195.12,-20"/>
<text xml:space="preserve" text-anchor="middle" x="142.5" y="-6.5" font-family="Helvetica,sans-Serif" font-size="10.00">ARAMusicalContext</text>
</a>
</g>
</g>
<!-- Node2 -->
<g id="Node000002" class="node">
<title>Node2</title>
<g id="a_Node000002"><a xlink:href="classARAListenableModelClass.html" target="_top" xlink:title=" ">
<polygon fill="white" stroke="#666666" points="157,-88 0,-88 0,-56 157,-56 157,-88"/>
<text xml:space="preserve" text-anchor="start" x="8" y="-74.5" font-family="Helvetica,sans-Serif" font-size="10.00">ARAListenableModelClass</text>
<text xml:space="preserve" text-anchor="middle" x="78.5" y="-62.5" font-family="Helvetica,sans-Serif" font-size="10.00">&lt; ARAMusicalContextListener &gt;</text>
</a>
</g>
</g>
<!-- Node2&#45;&gt;Node1 -->
<g id="edge1_Node000001_Node000002" class="edge">
<title>Node2&#45;&gt;Node1</title>
<g id="a_edge1_Node000001_Node000002"><a xlink:title=" ">
<path fill="none" stroke="#63b8ff" d="M103.2,-47.84C113.39,-38.29 124.63,-27.76 132.46,-20.41"/>
<polygon fill="#63b8ff" stroke="#63b8ff" points="100.99,-45.12 96.09,-54.51 105.77,-50.23 100.99,-45.12"/>
</a>
</g>
</g>
<!-- Node3 -->
<g id="Node000003" class="node">
<title>Node3</title>
<g id="a_Node000003"><a xlink:href="classARAObject.html" target="_top" xlink:title="Common base class for all JUCE ARA model objects to aid with the discovery and traversal of the entir...">
<polygon fill="white" stroke="#666666" points="240.25,-82 174.75,-82 174.75,-62 240.25,-62 240.25,-82"/>
<text xml:space="preserve" text-anchor="middle" x="207.5" y="-68.5" font-family="Helvetica,sans-Serif" font-size="10.00">ARAObject</text>
</a>
</g>
</g>
<!-- Node3&#45;&gt;Node1 -->
<g id="edge2_Node000001_Node000003" class="edge">
<title>Node3&#45;&gt;Node1</title>
<g id="a_edge2_Node000001_Node000003"><a xlink:title=" ">
<path fill="none" stroke="#63b8ff" d="M188.98,-53.9C177.06,-42.91 162.06,-29.05 152.37,-20.11"/>
<polygon fill="#63b8ff" stroke="#63b8ff" points="186.51,-56.39 196.23,-60.6 191.26,-51.24 186.51,-56.39"/>
</a>
</g>
</g>
</g>
</svg>
