<?xml version="1.0" encoding="UTF-8" standalone="no"?>
<!DOCTYPE svg PUBLIC "-//W3C//DTD SVG 1.1//EN"
 "http://www.w3.org/Graphics/SVG/1.1/DTD/svg11.dtd">
<!-- Generated by graphviz version 13.1.0 (20250701.0955)
 -->
<!-- Title: ParameterAttachment Pages: 1 -->
<svg width="234pt" height="96pt"
 viewBox="0.00 0.00 234.00 96.00" xmlns="http://www.w3.org/2000/svg" xmlns:xlink="http://www.w3.org/1999/xlink">
<g id="graph0" class="graph" transform="scale(1 1) rotate(0) translate(4 92)">
<title>ParameterAttachment</title>
<!-- Node1 -->
<g id="Node000001" class="node">
<title>Node1</title>
<g id="a_Node000001"><a xlink:title="Used to implement &#39;attachments&#39; or &#39;controllers&#39; that link a plug&#45;in parameter to a UI element.">
<polygon fill="#999999" stroke="#666666" points="181.62,-20 70.38,-20 70.38,0 181.62,0 181.62,-20"/>
<text xml:space="preserve" text-anchor="middle" x="126" y="-6.5" font-family="Helvetica,sans-Serif" font-size="10.00">ParameterAttachment</text>
</a>
</g>
</g>
<!-- Node2 -->
<g id="Node000002" class="node">
<title>Node2</title>
<g id="a_Node000002"><a xlink:href="classAudioProcessorParameter_1_1Listener.html" target="_top" xlink:title="A base class for listeners that want to know about changes to an AudioProcessorParameter.">
<polygon fill="white" stroke="#666666" points="130,-88 0,-88 0,-56 130,-56 130,-88"/>
<text xml:space="preserve" text-anchor="start" x="8" y="-74.5" font-family="Helvetica,sans-Serif" font-size="10.00">AudioProcessorParameter</text>
<text xml:space="preserve" text-anchor="middle" x="65" y="-62.5" font-family="Helvetica,sans-Serif" font-size="10.00">::Listener</text>
</a>
</g>
</g>
<!-- Node2&#45;&gt;Node1 -->
<g id="edge1_Node000001_Node000002" class="edge">
<title>Node2&#45;&gt;Node1</title>
<g id="a_edge1_Node000001_Node000002"><a xlink:title=" ">
<path fill="none" stroke="#8b1a1a" d="M88.83,-47.56C98.47,-38.08 109.04,-27.68 116.44,-20.41"/>
<polygon fill="#8b1a1a" stroke="#8b1a1a" points="86.46,-44.98 81.79,-54.49 91.37,-49.97 86.46,-44.98"/>
</a>
</g>
</g>
<!-- Node3 -->
<g id="Node000003" class="node">
<title>Node3</title>
<g id="a_Node000003"><a xlink:href="classAsyncUpdater.html" target="_top" xlink:title="Has a callback method that is triggered asynchronously.">
<polygon fill="white" stroke="#666666" points="226.12,-82 147.88,-82 147.88,-62 226.12,-62 226.12,-82"/>
<text xml:space="preserve" text-anchor="middle" x="187" y="-68.5" font-family="Helvetica,sans-Serif" font-size="10.00">AsyncUpdater</text>
</a>
</g>
</g>
<!-- Node3&#45;&gt;Node1 -->
<g id="edge2_Node000001_Node000003" class="edge">
<title>Node3&#45;&gt;Node1</title>
<g id="a_edge2_Node000001_Node000003"><a xlink:title=" ">
<path fill="none" stroke="#8b1a1a" d="M169.29,-53.58C158.16,-42.63 144.26,-28.97 135.26,-20.11"/>
<polygon fill="#8b1a1a" stroke="#8b1a1a" points="166.81,-56.05 176.39,-60.56 171.71,-51.06 166.81,-56.05"/>
</a>
</g>
</g>
</g>
</svg>
