<?xml version="1.0" encoding="UTF-8" standalone="no"?>
<!DOCTYPE svg PUBLIC "-//W3C//DTD SVG 1.1//EN"
 "http://www.w3.org/Graphics/SVG/1.1/DTD/svg11.dtd">
<!-- Generated by graphviz version 13.1.0 (20250701.0955)
 -->
<!-- Title: AudioProcessorGraph Pages: 1 -->
<svg width="226pt" height="140pt"
 viewBox="0.00 0.00 226.00 140.00" xmlns="http://www.w3.org/2000/svg" xmlns:xlink="http://www.w3.org/1999/xlink">
<g id="graph0" class="graph" transform="scale(1 1) rotate(0) translate(4 136)">
<title>AudioProcessorGraph</title>
<!-- Node1 -->
<g id="Node000001" class="node">
<title>Node1</title>
<g id="a_Node000001"><a xlink:title="A type of AudioProcessor which plays back a graph of other AudioProcessors.">
<polygon fill="#999999" stroke="#666666" points="166.88,-20 55.62,-20 55.62,0 166.88,0 166.88,-20"/>
<text xml:space="preserve" text-anchor="middle" x="111.25" y="-6.5" font-family="Helvetica,sans-Serif" font-size="10.00">AudioProcessorGraph</text>
</a>
</g>
</g>
<!-- Node2 -->
<g id="Node000002" class="node">
<title>Node2</title>
<g id="a_Node000002"><a xlink:href="classAudioProcessor.html" target="_top" xlink:title="Base class for audio processing classes or plugins.">
<polygon fill="white" stroke="#666666" points="97.75,-76 12.75,-76 12.75,-56 97.75,-56 97.75,-76"/>
<text xml:space="preserve" text-anchor="middle" x="55.25" y="-62.5" font-family="Helvetica,sans-Serif" font-size="10.00">AudioProcessor</text>
</a>
</g>
</g>
<!-- Node2&#45;&gt;Node1 -->
<g id="edge1_Node000001_Node000002" class="edge">
<title>Node2&#45;&gt;Node1</title>
<g id="a_edge1_Node000001_Node000002"><a xlink:title=" ">
<path fill="none" stroke="#63b8ff" d="M73.04,-47.85C82.5,-38.72 93.77,-27.86 101.61,-20.3"/>
<polygon fill="#63b8ff" stroke="#63b8ff" points="70.86,-45.08 66.09,-54.54 75.72,-50.12 70.86,-45.08"/>
</a>
</g>
</g>
<!-- Node3 -->
<g id="Node000003" class="node">
<title>Node3</title>
<g id="a_Node000003"><a xlink:href="structAAXClientExtensions.html" target="_top" xlink:title="An interface to allow an AudioProcessor to implement extended AAX&#45;specific functionality.">
<polygon fill="white" stroke="#666666" points="110.5,-132 0,-132 0,-112 110.5,-112 110.5,-132"/>
<text xml:space="preserve" text-anchor="middle" x="55.25" y="-118.5" font-family="Helvetica,sans-Serif" font-size="10.00">AAXClientExtensions</text>
</a>
</g>
</g>
<!-- Node3&#45;&gt;Node2 -->
<g id="edge2_Node000002_Node000003" class="edge">
<title>Node3&#45;&gt;Node2</title>
<g id="a_edge2_Node000002_Node000003"><a xlink:title=" ">
<path fill="none" stroke="#8b1a1a" d="M55.25,-100.13C55.25,-91.9 55.25,-82.85 55.25,-76.3"/>
<polygon fill="#8b1a1a" stroke="#8b1a1a" points="51.75,-100.08 55.25,-110.08 58.75,-100.08 51.75,-100.08"/>
</a>
</g>
</g>
<!-- Node4 -->
<g id="Node000004" class="node">
<title>Node4</title>
<g id="a_Node000004"><a xlink:href="classChangeBroadcaster.html" target="_top" xlink:title="Holds a list of ChangeListeners, and sends messages to them when instructed.">
<polygon fill="white" stroke="#666666" points="218.38,-76 116.12,-76 116.12,-56 218.38,-56 218.38,-76"/>
<text xml:space="preserve" text-anchor="middle" x="167.25" y="-62.5" font-family="Helvetica,sans-Serif" font-size="10.00">ChangeBroadcaster</text>
</a>
</g>
</g>
<!-- Node4&#45;&gt;Node1 -->
<g id="edge3_Node000001_Node000004" class="edge">
<title>Node4&#45;&gt;Node1</title>
<g id="a_edge3_Node000001_Node000004"><a xlink:title=" ">
<path fill="none" stroke="#63b8ff" d="M149.46,-47.85C140,-38.72 128.73,-27.86 120.89,-20.3"/>
<polygon fill="#63b8ff" stroke="#63b8ff" points="146.78,-50.12 156.41,-54.54 151.64,-45.08 146.78,-50.12"/>
</a>
</g>
</g>
</g>
</svg>
