<?xml version="1.0" encoding="UTF-8" standalone="no"?>
<!DOCTYPE svg PUBLIC "-//W3C//DTD SVG 1.1//EN"
 "http://www.w3.org/Graphics/SVG/1.1/DTD/svg11.dtd">
<!-- Generated by graphviz version 13.1.0 (20250701.0955)
 -->
<!-- Title: TimeSliceClient Pages: 1 -->
<svg width="376pt" height="84pt"
 viewBox="0.00 0.00 376.00 84.00" xmlns="http://www.w3.org/2000/svg" xmlns:xlink="http://www.w3.org/1999/xlink">
<g id="graph0" class="graph" transform="scale(1 1) rotate(0) translate(4 80)">
<title>TimeSliceClient</title>
<!-- Node1 -->
<g id="Node000001" class="node">
<title>Node1</title>
<g id="a_Node000001"><a xlink:title="Used by the TimeSliceThread class.">
<polygon fill="#999999" stroke="#666666" points="225.75,-76 140.75,-76 140.75,-56 225.75,-56 225.75,-76"/>
<text xml:space="preserve" text-anchor="middle" x="183.25" y="-62.5" font-family="Helvetica,sans-Serif" font-size="10.00">TimeSliceClient</text>
</a>
</g>
</g>
<!-- Node2 -->
<g id="Node000002" class="node">
<title>Node2</title>
<g id="a_Node000002"><a xlink:href="classBufferingAudioReader.html" target="_top" xlink:title="An AudioFormatReader that uses a background thread to pre&#45;read data from another reader.">
<polygon fill="white" stroke="#666666" points="110.5,-20 0,-20 0,0 110.5,0 110.5,-20"/>
<text xml:space="preserve" text-anchor="middle" x="55.25" y="-6.5" font-family="Helvetica,sans-Serif" font-size="10.00">BufferingAudioReader</text>
</a>
</g>
</g>
<!-- Node1&#45;&gt;Node2 -->
<g id="edge1_Node000001_Node000002" class="edge">
<title>Node1&#45;&gt;Node2</title>
<g id="a_edge1_Node000001_Node000002"><a xlink:title=" ">
<path fill="none" stroke="#8b1a1a" d="M150.4,-51.14C127.61,-41.52 97.84,-28.97 77.72,-20.48"/>
<polygon fill="#8b1a1a" stroke="#8b1a1a" points="148.99,-54.34 159.56,-55.01 151.71,-47.89 148.99,-54.34"/>
</a>
</g>
</g>
<!-- Node3 -->
<g id="Node000003" class="node">
<title>Node3</title>
<g id="a_Node000003"><a xlink:href="classBufferingAudioSource.html" target="_top" xlink:title="An AudioSource which takes another source as input, and buffers it using a thread.">
<polygon fill="white" stroke="#666666" points="238.12,-20 128.38,-20 128.38,0 238.12,0 238.12,-20"/>
<text xml:space="preserve" text-anchor="middle" x="183.25" y="-6.5" font-family="Helvetica,sans-Serif" font-size="10.00">BufferingAudioSource</text>
</a>
</g>
</g>
<!-- Node1&#45;&gt;Node3 -->
<g id="edge2_Node000001_Node000003" class="edge">
<title>Node1&#45;&gt;Node3</title>
<g id="a_edge2_Node000001_Node000003"><a xlink:title=" ">
<path fill="none" stroke="#8b1a1a" d="M183.25,-44.13C183.25,-35.9 183.25,-26.85 183.25,-20.3"/>
<polygon fill="#8b1a1a" stroke="#8b1a1a" points="179.75,-44.08 183.25,-54.08 186.75,-44.08 179.75,-44.08"/>
</a>
</g>
</g>
<!-- Node4 -->
<g id="Node000004" class="node">
<title>Node4</title>
<g id="a_Node000004"><a xlink:href="classDirectoryContentsList.html" target="_top" xlink:title="A class to asynchronously scan for details about the files in a directory.">
<polygon fill="white" stroke="#666666" points="367.88,-20 256.62,-20 256.62,0 367.88,0 367.88,-20"/>
<text xml:space="preserve" text-anchor="middle" x="312.25" y="-6.5" font-family="Helvetica,sans-Serif" font-size="10.00">DirectoryContentsList</text>
</a>
</g>
</g>
<!-- Node1&#45;&gt;Node4 -->
<g id="edge3_Node000001_Node000004" class="edge">
<title>Node1&#45;&gt;Node4</title>
<g id="a_edge3_Node000001_Node000004"><a xlink:title=" ">
<path fill="none" stroke="#8b1a1a" d="M216.05,-51.27C239.06,-41.64 269.23,-29.01 289.6,-20.48"/>
<polygon fill="#8b1a1a" stroke="#8b1a1a" points="214.99,-47.92 207.12,-55.01 217.69,-54.38 214.99,-47.92"/>
</a>
</g>
</g>
</g>
</svg>
