<?xml version="1.0" encoding="UTF-8" standalone="no"?>
<!DOCTYPE svg PUBLIC "-//W3C//DTD SVG 1.1//EN"
 "http://www.w3.org/Graphics/SVG/1.1/DTD/svg11.dtd">
<!-- Generated by graphviz version 13.1.0 (20250701.0955)
 -->
<!-- Title: MenuBarModel Pages: 1 -->
<svg width="250pt" height="96pt"
 viewBox="0.00 0.00 250.00 96.00" xmlns="http://www.w3.org/2000/svg" xmlns:xlink="http://www.w3.org/1999/xlink">
<g id="graph0" class="graph" transform="scale(1 1) rotate(0) translate(4 92)">
<title>MenuBarModel</title>
<!-- Node1 -->
<g id="Node000001" class="node">
<title>Node1</title>
<g id="a_Node000001"><a xlink:title="A class for controlling MenuBar components.">
<polygon fill="#999999" stroke="#666666" points="144.75,-20 63.5,-20 63.5,0 144.75,0 144.75,-20"/>
<text xml:space="preserve" text-anchor="middle" x="104.12" y="-6.5" font-family="Helvetica,sans-Serif" font-size="10.00">MenuBarModel</text>
</a>
</g>
</g>
<!-- Node2 -->
<g id="Node000002" class="node">
<title>Node2</title>
<g id="a_Node000002"><a xlink:href="classAsyncUpdater.html" target="_top" xlink:title="Has a callback method that is triggered asynchronously.">
<polygon fill="white" stroke="#666666" points="78.25,-82 0,-82 0,-62 78.25,-62 78.25,-82"/>
<text xml:space="preserve" text-anchor="middle" x="39.12" y="-68.5" font-family="Helvetica,sans-Serif" font-size="10.00">AsyncUpdater</text>
</a>
</g>
</g>
<!-- Node2&#45;&gt;Node1 -->
<g id="edge1_Node000001_Node000002" class="edge">
<title>Node2&#45;&gt;Node1</title>
<g id="a_edge1_Node000001_Node000002"><a xlink:title=" ">
<path fill="none" stroke="#8b1a1a" d="M57.65,-53.9C69.56,-42.91 84.57,-29.05 94.25,-20.11"/>
<polygon fill="#8b1a1a" stroke="#8b1a1a" points="55.37,-51.24 50.39,-60.6 60.12,-56.39 55.37,-51.24"/>
</a>
</g>
</g>
<!-- Node3 -->
<g id="Node000003" class="node">
<title>Node3</title>
<g id="a_Node000003"><a xlink:href="classApplicationCommandManagerListener.html" target="_top" xlink:title="A listener that receives callbacks from an ApplicationCommandManager when commands are invoked or the...">
<polygon fill="white" stroke="#666666" points="242.38,-88 95.88,-88 95.88,-56 242.38,-56 242.38,-88"/>
<text xml:space="preserve" text-anchor="start" x="103.88" y="-74.5" font-family="Helvetica,sans-Serif" font-size="10.00">ApplicationCommandManager</text>
<text xml:space="preserve" text-anchor="middle" x="169.12" y="-62.5" font-family="Helvetica,sans-Serif" font-size="10.00">Listener</text>
</a>
</g>
</g>
<!-- Node3&#45;&gt;Node1 -->
<g id="edge2_Node000001_Node000003" class="edge">
<title>Node3&#45;&gt;Node1</title>
<g id="a_edge2_Node000001_Node000003"><a xlink:title=" ">
<path fill="none" stroke="#8b1a1a" d="M144.04,-47.84C133.69,-38.29 122.28,-27.76 114.32,-20.41"/>
<polygon fill="#8b1a1a" stroke="#8b1a1a" points="141.55,-50.31 151.27,-54.52 146.3,-45.17 141.55,-50.31"/>
</a>
</g>
</g>
</g>
</svg>
