<?xml version="1.0" encoding="UTF-8" standalone="no"?>
<!DOCTYPE svg PUBLIC "-//W3C//DTD SVG 1.1//EN"
 "http://www.w3.org/Graphics/SVG/1.1/DTD/svg11.dtd">
<!-- Generated by graphviz version 13.1.0 (20250701.0955)
 -->
<!-- Title: AudioFormatReader Pages: 1 -->
<svg width="320pt" height="218pt"
 viewBox="0.00 0.00 320.00 218.00" xmlns="http://www.w3.org/2000/svg" xmlns:xlink="http://www.w3.org/1999/xlink">
<g id="graph0" class="graph" transform="scale(1 1) rotate(0) translate(4 214)">
<title>AudioFormatReader</title>
<!-- Node1 -->
<g id="Node000001" class="node">
<title>Node1</title>
<g id="a_Node000001"><a xlink:title="Reads samples from an audio file stream.">
<polygon fill="#999999" stroke="#666666" points="103,-115 0,-115 0,-95 103,-95 103,-115"/>
<text xml:space="preserve" text-anchor="middle" x="51.5" y="-101.5" font-family="Helvetica,sans-Serif" font-size="10.00">AudioFormatReader</text>
</a>
</g>
</g>
<!-- Node2 -->
<g id="Node000002" class="node">
<title>Node2</title>
<g id="a_Node000002"><a xlink:href="classARAAudioSourceReader.html" target="_top" xlink:title="Subclass of AudioFormatReader that reads samples from a single ARA audio source.">
<polygon fill="white" stroke="#666666" points="287.38,-210 163.38,-210 163.38,-190 287.38,-190 287.38,-210"/>
<text xml:space="preserve" text-anchor="middle" x="225.38" y="-196.5" font-family="Helvetica,sans-Serif" font-size="10.00">ARAAudioSourceReader</text>
</a>
</g>
</g>
<!-- Node1&#45;&gt;Node2 -->
<g id="edge1_Node000001_Node000002" class="edge">
<title>Node1&#45;&gt;Node2</title>
<g id="a_edge1_Node000001_Node000002"><a xlink:title=" ">
<path fill="none" stroke="#63b8ff" d="M68.58,-123.75C84.64,-141.25 110.92,-166.74 139,-181 146.45,-184.78 154.63,-187.82 162.9,-190.25"/>
<polygon fill="#63b8ff" stroke="#63b8ff" points="71.44,-121.69 62.17,-116.56 66.21,-126.35 71.44,-121.69"/>
</a>
</g>
</g>
<!-- Node3 -->
<g id="Node000003" class="node">
<title>Node3</title>
<g id="a_Node000003"><a xlink:href="classARAPlaybackRegionReader.html" target="_top" xlink:title="Subclass of AudioFormatReader that reads samples from a group of playback regions.">
<polygon fill="white" stroke="#666666" points="295.25,-172 155.5,-172 155.5,-152 295.25,-152 295.25,-172"/>
<text xml:space="preserve" text-anchor="middle" x="225.38" y="-158.5" font-family="Helvetica,sans-Serif" font-size="10.00">ARAPlaybackRegionReader</text>
</a>
</g>
</g>
<!-- Node1&#45;&gt;Node3 -->
<g id="edge2_Node000001_Node000003" class="edge">
<title>Node1&#45;&gt;Node3</title>
<g id="a_edge2_Node000001_Node000003"><a xlink:title=" ">
<path fill="none" stroke="#63b8ff" d="M83.07,-120.17C99.37,-127.82 119.95,-136.76 139,-143 148.81,-146.21 159.44,-149.06 169.75,-151.51"/>
<polygon fill="#63b8ff" stroke="#63b8ff" points="84.93,-117.18 74.39,-116.03 81.91,-123.5 84.93,-117.18"/>
</a>
</g>
</g>
<!-- Node4 -->
<g id="Node000004" class="node">
<title>Node4</title>
<g id="a_Node000004"><a xlink:href="classAudioCDReader.html" target="_top" xlink:title="A type of AudioFormatReader that reads from an audio CD.">
<polygon fill="white" stroke="#666666" points="269,-134 181.75,-134 181.75,-114 269,-114 269,-134"/>
<text xml:space="preserve" text-anchor="middle" x="225.38" y="-120.5" font-family="Helvetica,sans-Serif" font-size="10.00">AudioCDReader</text>
</a>
</g>
</g>
<!-- Node1&#45;&gt;Node4 -->
<g id="edge3_Node000001_Node000004" class="edge">
<title>Node1&#45;&gt;Node4</title>
<g id="a_edge3_Node000001_Node000004"><a xlink:title=" ">
<path fill="none" stroke="#63b8ff" d="M114.49,-111.85C136.66,-114.3 161.14,-117.01 181.36,-119.24"/>
<polygon fill="#63b8ff" stroke="#63b8ff" points="114.97,-108.38 104.64,-110.76 114.2,-115.34 114.97,-108.38"/>
</a>
</g>
</g>
<!-- Node5 -->
<g id="Node000005" class="node">
<title>Node5</title>
<g id="a_Node000005"><a xlink:href="classAudioSubsectionReader.html" target="_top" xlink:title="This class is used to wrap an AudioFormatReader and only read from a subsection of the file.">
<polygon fill="white" stroke="#666666" points="285.88,-96 164.88,-96 164.88,-76 285.88,-76 285.88,-96"/>
<text xml:space="preserve" text-anchor="middle" x="225.38" y="-82.5" font-family="Helvetica,sans-Serif" font-size="10.00">AudioSubsectionReader</text>
</a>
</g>
</g>
<!-- Node1&#45;&gt;Node5 -->
<g id="edge4_Node000001_Node000005" class="edge">
<title>Node1&#45;&gt;Node5</title>
<g id="a_edge4_Node000001_Node000005"><a xlink:title=" ">
<path fill="none" stroke="#63b8ff" d="M114.21,-98.18C130.55,-96.37 148.16,-94.43 164.4,-92.63"/>
<polygon fill="#63b8ff" stroke="#63b8ff" points="114.2,-94.66 104.64,-99.24 114.97,-101.62 114.2,-94.66"/>
</a>
</g>
</g>
<!-- Node6 -->
<g id="Node000006" class="node">
<title>Node6</title>
<g id="a_Node000006"><a xlink:href="classBufferingAudioReader.html" target="_top" xlink:title="An AudioFormatReader that uses a background thread to pre&#45;read data from another reader.">
<polygon fill="white" stroke="#666666" points="280.62,-58 170.12,-58 170.12,-38 280.62,-38 280.62,-58"/>
<text xml:space="preserve" text-anchor="middle" x="225.38" y="-44.5" font-family="Helvetica,sans-Serif" font-size="10.00">BufferingAudioReader</text>
</a>
</g>
</g>
<!-- Node1&#45;&gt;Node6 -->
<g id="edge5_Node000001_Node000006" class="edge">
<title>Node1&#45;&gt;Node6</title>
<g id="a_edge5_Node000001_Node000006"><a xlink:title=" ">
<path fill="none" stroke="#63b8ff" d="M83.07,-89.83C99.37,-82.18 119.95,-73.24 139,-67 148.81,-63.79 159.44,-60.94 169.75,-58.49"/>
<polygon fill="#63b8ff" stroke="#63b8ff" points="81.91,-86.5 74.39,-93.97 84.93,-92.82 81.91,-86.5"/>
</a>
</g>
</g>
<!-- Node7 -->
<g id="Node000007" class="node">
<title>Node7</title>
<g id="a_Node000007"><a xlink:href="classMemoryMappedAudioFormatReader.html" target="_top" xlink:title="A specialised type of AudioFormatReader that uses a MemoryMappedFile to read directly from an audio f...">
<polygon fill="white" stroke="#666666" points="311.75,-20 139,-20 139,0 311.75,0 311.75,-20"/>
<text xml:space="preserve" text-anchor="middle" x="225.38" y="-6.5" font-family="Helvetica,sans-Serif" font-size="10.00">MemoryMappedAudioFormatReader</text>
</a>
</g>
</g>
<!-- Node1&#45;&gt;Node7 -->
<g id="edge6_Node000001_Node000007" class="edge">
<title>Node1&#45;&gt;Node7</title>
<g id="a_edge6_Node000001_Node000007"><a xlink:title=" ">
<path fill="none" stroke="#63b8ff" d="M68.58,-86.25C84.64,-68.75 110.92,-43.26 139,-29 145.77,-25.56 153.15,-22.74 160.65,-20.43"/>
<polygon fill="#63b8ff" stroke="#63b8ff" points="66.21,-83.65 62.17,-93.44 71.44,-88.31 66.21,-83.65"/>
</a>
</g>
</g>
</g>
</svg>
