<?xml version="1.0" encoding="UTF-8" standalone="no"?>
<!DOCTYPE svg PUBLIC "-//W3C//DTD SVG 1.1//EN"
 "http://www.w3.org/Graphics/SVG/1.1/DTD/svg11.dtd">
<!-- Generated by graphviz version 13.1.0 (20250701.0955)
 -->
<!-- Title: MessageManager::MessageBase Pages: 1 -->
<svg width="182pt" height="140pt"
 viewBox="0.00 0.00 182.00 140.00" xmlns="http://www.w3.org/2000/svg" xmlns:xlink="http://www.w3.org/1999/xlink">
<g id="graph0" class="graph" transform="scale(1 1) rotate(0) translate(4 136)">
<title>MessageManager::MessageBase</title>
<!-- Node1 -->
<g id="Node000001" class="node">
<title>Node1</title>
<g id="a_Node000001"><a xlink:title="Internal class used as the base class for all message objects.">
<polygon fill="#999999" stroke="#666666" points="173.75,-76 12.25,-76 12.25,-56 173.75,-56 173.75,-76"/>
<text xml:space="preserve" text-anchor="middle" x="93" y="-62.5" font-family="Helvetica,sans-Serif" font-size="10.00">MessageManager::MessageBase</text>
</a>
</g>
</g>
<!-- Node3 -->
<g id="Node000003" class="node">
<title>Node3</title>
<g id="a_Node000003"><a xlink:href="classCallbackMessage.html" target="_top" xlink:title="A message that invokes a callback method when it gets delivered.">
<polygon fill="white" stroke="#666666" points="94,-20 0,-20 0,0 94,0 94,-20"/>
<text xml:space="preserve" text-anchor="middle" x="47" y="-6.5" font-family="Helvetica,sans-Serif" font-size="10.00">CallbackMessage</text>
</a>
</g>
</g>
<!-- Node1&#45;&gt;Node3 -->
<g id="edge2_Node000001_Node000003" class="edge">
<title>Node1&#45;&gt;Node3</title>
<g id="a_edge2_Node000001_Node000003"><a xlink:title=" ">
<path fill="none" stroke="#63b8ff" d="M77.67,-47C70.05,-38.06 61.16,-27.62 54.92,-20.3"/>
<polygon fill="#63b8ff" stroke="#63b8ff" points="74.86,-49.1 84.01,-54.44 80.19,-44.56 74.86,-49.1"/>
</a>
</g>
</g>
<!-- Node4 -->
<g id="Node000004" class="node">
<title>Node4</title>
<g id="a_Node000004"><a xlink:href="classMessage.html" target="_top" xlink:title="The base class for objects that can be sent to a MessageListener.">
<polygon fill="white" stroke="#666666" points="167.88,-20 112.12,-20 112.12,0 167.88,0 167.88,-20"/>
<text xml:space="preserve" text-anchor="middle" x="140" y="-6.5" font-family="Helvetica,sans-Serif" font-size="10.00">Message</text>
</a>
</g>
</g>
<!-- Node1&#45;&gt;Node4 -->
<g id="edge3_Node000001_Node000004" class="edge">
<title>Node1&#45;&gt;Node4</title>
<g id="a_edge3_Node000001_Node000004"><a xlink:title=" ">
<path fill="none" stroke="#63b8ff" d="M108.66,-47C116.45,-38.06 125.53,-27.62 131.91,-20.3"/>
<polygon fill="#63b8ff" stroke="#63b8ff" points="106.11,-44.61 102.18,-54.45 111.39,-49.21 106.11,-44.61"/>
</a>
</g>
</g>
<!-- Node2 -->
<g id="Node000002" class="node">
<title>Node2</title>
<g id="a_Node000002"><a xlink:href="classReferenceCountedObject.html" target="_top" xlink:title="A base class which provides methods for reference&#45;counting.">
<polygon fill="white" stroke="#666666" points="156.12,-132 29.88,-132 29.88,-112 156.12,-112 156.12,-132"/>
<text xml:space="preserve" text-anchor="middle" x="93" y="-118.5" font-family="Helvetica,sans-Serif" font-size="10.00">ReferenceCountedObject</text>
</a>
</g>
</g>
<!-- Node2&#45;&gt;Node1 -->
<g id="edge1_Node000001_Node000002" class="edge">
<title>Node2&#45;&gt;Node1</title>
<g id="a_edge1_Node000001_Node000002"><a xlink:title=" ">
<path fill="none" stroke="#63b8ff" d="M93,-100.13C93,-91.9 93,-82.85 93,-76.3"/>
<polygon fill="#63b8ff" stroke="#63b8ff" points="89.5,-100.08 93,-110.08 96.5,-100.08 89.5,-100.08"/>
</a>
</g>
</g>
</g>
</svg>
