<?xml version="1.0" encoding="UTF-8" standalone="no"?>
<!DOCTYPE svg PUBLIC "-//W3C//DTD SVG 1.1//EN"
 "http://www.w3.org/Graphics/SVG/1.1/DTD/svg11.dtd">
<!-- Generated by graphviz version 13.1.0 (20250701.0955)
 -->
<!-- Title: ImageFileFormat Pages: 1 -->
<svg width="330pt" height="84pt"
 viewBox="0.00 0.00 330.00 84.00" xmlns="http://www.w3.org/2000/svg" xmlns:xlink="http://www.w3.org/1999/xlink">
<g id="graph0" class="graph" transform="scale(1 1) rotate(0) translate(4 80)">
<title>ImageFileFormat</title>
<!-- Node1 -->
<g id="Node000001" class="node">
<title>Node1</title>
<g id="a_Node000001"><a xlink:title="Base&#45;class for codecs that can read and write image file formats such as PNG, JPEG,...">
<polygon fill="#999999" stroke="#666666" points="202.88,-76 113.38,-76 113.38,-56 202.88,-56 202.88,-76"/>
<text xml:space="preserve" text-anchor="middle" x="158.12" y="-62.5" font-family="Helvetica,sans-Serif" font-size="10.00">ImageFileFormat</text>
</a>
</g>
</g>
<!-- Node2 -->
<g id="Node000002" class="node">
<title>Node2</title>
<g id="a_Node000002"><a xlink:href="classGIFImageFormat.html" target="_top" xlink:title="A subclass of ImageFileFormat for reading GIF files.">
<polygon fill="white" stroke="#666666" points="90.25,-20 0,-20 0,0 90.25,0 90.25,-20"/>
<text xml:space="preserve" text-anchor="middle" x="45.12" y="-6.5" font-family="Helvetica,sans-Serif" font-size="10.00">GIFImageFormat</text>
</a>
</g>
</g>
<!-- Node1&#45;&gt;Node2 -->
<g id="edge1_Node000001_Node000002" class="edge">
<title>Node1&#45;&gt;Node2</title>
<g id="a_edge1_Node000001_Node000002"><a xlink:title=" ">
<path fill="none" stroke="#63b8ff" d="M128.3,-50.75C108.29,-41.18 82.48,-28.85 64.96,-20.48"/>
<polygon fill="#63b8ff" stroke="#63b8ff" points="126.54,-53.79 137.08,-54.94 129.56,-47.47 126.54,-53.79"/>
</a>
</g>
</g>
<!-- Node3 -->
<g id="Node000003" class="node">
<title>Node3</title>
<g id="a_Node000003"><a xlink:href="classJPEGImageFormat.html" target="_top" xlink:title="A subclass of ImageFileFormat for reading and writing JPEG files.">
<polygon fill="white" stroke="#666666" points="208.12,-20 108.12,-20 108.12,0 208.12,0 208.12,-20"/>
<text xml:space="preserve" text-anchor="middle" x="158.12" y="-6.5" font-family="Helvetica,sans-Serif" font-size="10.00">JPEGImageFormat</text>
</a>
</g>
</g>
<!-- Node1&#45;&gt;Node3 -->
<g id="edge2_Node000001_Node000003" class="edge">
<title>Node1&#45;&gt;Node3</title>
<g id="a_edge2_Node000001_Node000003"><a xlink:title=" ">
<path fill="none" stroke="#63b8ff" d="M158.12,-44.13C158.12,-35.9 158.12,-26.85 158.12,-20.3"/>
<polygon fill="#63b8ff" stroke="#63b8ff" points="154.63,-44.08 158.13,-54.08 161.63,-44.08 154.63,-44.08"/>
</a>
</g>
</g>
<!-- Node4 -->
<g id="Node000004" class="node">
<title>Node4</title>
<g id="a_Node000004"><a xlink:href="classPNGImageFormat.html" target="_top" xlink:title="A subclass of ImageFileFormat for reading and writing PNG files.">
<polygon fill="white" stroke="#666666" points="321.88,-20 226.38,-20 226.38,0 321.88,0 321.88,-20"/>
<text xml:space="preserve" text-anchor="middle" x="274.12" y="-6.5" font-family="Helvetica,sans-Serif" font-size="10.00">PNGImageFormat</text>
</a>
</g>
</g>
<!-- Node1&#45;&gt;Node4 -->
<g id="edge3_Node000001_Node000004" class="edge">
<title>Node1&#45;&gt;Node4</title>
<g id="a_edge3_Node000001_Node000004"><a xlink:title=" ">
<path fill="none" stroke="#63b8ff" d="M188.75,-50.75C209.29,-41.18 235.77,-28.85 253.76,-20.48"/>
<polygon fill="#63b8ff" stroke="#63b8ff" points="187.29,-47.56 179.7,-54.96 190.25,-53.91 187.29,-47.56"/>
</a>
</g>
</g>
</g>
</svg>
