<?xml version="1.0" encoding="UTF-8" standalone="no"?>
<!DOCTYPE svg PUBLIC "-//W3C//DTD SVG 1.1//EN"
 "http://www.w3.org/Graphics/SVG/1.1/DTD/svg11.dtd">
<!-- Generated by graphviz version 13.1.0 (20250701.0955)
 -->
<!-- Title: Message Pages: 1 -->
<svg width="170pt" height="140pt"
 viewBox="0.00 0.00 170.00 140.00" xmlns="http://www.w3.org/2000/svg" xmlns:xlink="http://www.w3.org/1999/xlink">
<g id="graph0" class="graph" transform="scale(1 1) rotate(0) translate(4 136)">
<title>Message</title>
<!-- Node1 -->
<g id="Node000001" class="node">
<title>Node1</title>
<g id="a_Node000001"><a xlink:title="The base class for objects that can be sent to a MessageListener.">
<polygon fill="#999999" stroke="#666666" points="108.62,-20 52.88,-20 52.88,0 108.62,0 108.62,-20"/>
<text xml:space="preserve" text-anchor="middle" x="80.75" y="-6.5" font-family="Helvetica,sans-Serif" font-size="10.00">Message</text>
</a>
</g>
</g>
<!-- Node2 -->
<g id="Node000002" class="node">
<title>Node2</title>
<g id="a_Node000002"><a xlink:href="classMessageManager_1_1MessageBase.html" target="_top" xlink:title="Internal class used as the base class for all message objects.">
<polygon fill="white" stroke="#666666" points="161.5,-76 0,-76 0,-56 161.5,-56 161.5,-76"/>
<text xml:space="preserve" text-anchor="middle" x="80.75" y="-62.5" font-family="Helvetica,sans-Serif" font-size="10.00">MessageManager::MessageBase</text>
</a>
</g>
</g>
<!-- Node2&#45;&gt;Node1 -->
<g id="edge1_Node000001_Node000002" class="edge">
<title>Node2&#45;&gt;Node1</title>
<g id="a_edge1_Node000001_Node000002"><a xlink:title=" ">
<path fill="none" stroke="#63b8ff" d="M80.75,-44.13C80.75,-35.9 80.75,-26.85 80.75,-20.3"/>
<polygon fill="#63b8ff" stroke="#63b8ff" points="77.25,-44.08 80.75,-54.08 84.25,-44.08 77.25,-44.08"/>
</a>
</g>
</g>
<!-- Node3 -->
<g id="Node000003" class="node">
<title>Node3</title>
<g id="a_Node000003"><a xlink:href="classReferenceCountedObject.html" target="_top" xlink:title="A base class which provides methods for reference&#45;counting.">
<polygon fill="white" stroke="#666666" points="143.88,-132 17.62,-132 17.62,-112 143.88,-112 143.88,-132"/>
<text xml:space="preserve" text-anchor="middle" x="80.75" y="-118.5" font-family="Helvetica,sans-Serif" font-size="10.00">ReferenceCountedObject</text>
</a>
</g>
</g>
<!-- Node3&#45;&gt;Node2 -->
<g id="edge2_Node000002_Node000003" class="edge">
<title>Node3&#45;&gt;Node2</title>
<g id="a_edge2_Node000002_Node000003"><a xlink:title=" ">
<path fill="none" stroke="#63b8ff" d="M80.75,-100.13C80.75,-91.9 80.75,-82.85 80.75,-76.3"/>
<polygon fill="#63b8ff" stroke="#63b8ff" points="77.25,-100.08 80.75,-110.08 84.25,-100.08 77.25,-100.08"/>
</a>
</g>
</g>
</g>
</svg>
