<?xml version="1.0" encoding="UTF-8" standalone="no"?>
<!DOCTYPE svg PUBLIC "-//W3C//DTD SVG 1.1//EN"
 "http://www.w3.org/Graphics/SVG/1.1/DTD/svg11.dtd">
<!-- Generated by graphviz version 13.1.0 (20250701.0955)
 -->
<!-- Title: Timer Pages: 1 -->
<svg width="239pt" height="902pt"
 viewBox="0.00 0.00 239.00 902.00" xmlns="http://www.w3.org/2000/svg" xmlns:xlink="http://www.w3.org/1999/xlink">
<g id="graph0" class="graph" transform="scale(1 1) rotate(0) translate(4 898)">
<title>Timer</title>
<!-- Node1 -->
<g id="Node000001" class="node">
<title>Node1</title>
<g id="a_Node000001"><a xlink:title="Makes repeated callbacks to a virtual method at a specified time interval.">
<polygon fill="#999999" stroke="#666666" points="40.75,-457 0,-457 0,-437 40.75,-437 40.75,-457"/>
<text xml:space="preserve" text-anchor="middle" x="20.38" y="-443.5" font-family="Helvetica,sans-Serif" font-size="10.00">Timer</text>
</a>
</g>
</g>
<!-- Node2 -->
<g id="Node000002" class="node">
<title>Node2</title>
<g id="a_Node000002"><a xlink:href="classAnimatedAppComponent.html" target="_top" xlink:title="A base class for writing simple one&#45;page graphical apps.">
<polygon fill="white" stroke="#666666" points="216.12,-894 91.38,-894 91.38,-874 216.12,-874 216.12,-894"/>
<text xml:space="preserve" text-anchor="middle" x="153.75" y="-880.5" font-family="Helvetica,sans-Serif" font-size="10.00">AnimatedAppComponent</text>
</a>
</g>
</g>
<!-- Node1&#45;&gt;Node2 -->
<g id="edge1_Node000001_Node000002" class="edge">
<title>Node1&#45;&gt;Node2</title>
<g id="a_edge1_Node000001_Node000002"><a xlink:title=" ">
<path fill="none" stroke="#8b1a1a" d="M21.16,-468.6C20.84,-545.66 23.76,-805.64 76.75,-865 80.74,-869.46 85.6,-872.96 90.91,-875.68"/>
<polygon fill="#8b1a1a" stroke="#8b1a1a" points="24.65,-469.03 21.22,-459.01 17.66,-468.98 24.65,-469.03"/>
</a>
</g>
</g>
<!-- Node3 -->
<g id="Node000003" class="node">
<title>Node3</title>
<g id="a_Node000003"><a xlink:href="classAnimatedPosition.html" target="_top" xlink:title="Models a 1&#45;dimensional position that can be dragged around by the user, and which will then continue ...">
<polygon fill="white" stroke="#666666" points="230.75,-856 76.75,-856 76.75,-836 230.75,-836 230.75,-856"/>
<text xml:space="preserve" text-anchor="middle" x="153.75" y="-842.5" font-family="Helvetica,sans-Serif" font-size="10.00">AnimatedPosition&lt; Behaviour &gt;</text>
</a>
</g>
</g>
<!-- Node1&#45;&gt;Node3 -->
<g id="edge2_Node000001_Node000003" class="edge">
<title>Node1&#45;&gt;Node3</title>
<g id="a_edge2_Node000001_Node000003"><a xlink:title=" ">
<path fill="none" stroke="#8b1a1a" d="M21.48,-468.46C22.26,-540.74 28.55,-773.71 76.75,-827 79.85,-830.43 83.47,-833.28 87.41,-835.65"/>
<polygon fill="#8b1a1a" stroke="#8b1a1a" points="24.98,-468.74 21.4,-458.77 17.98,-468.8 24.98,-468.74"/>
</a>
</g>
</g>
<!-- Node4 -->
<g id="Node000004" class="node">
<title>Node4</title>
<g id="a_Node000004"><a xlink:href="classAudioProcessorValueTreeState.html" target="_top" xlink:title="This class contains a ValueTree that is used to manage an AudioProcessor&#39;s entire state.">
<polygon fill="white" stroke="#666666" points="229.62,-818 77.88,-818 77.88,-798 229.62,-798 229.62,-818"/>
<text xml:space="preserve" text-anchor="middle" x="153.75" y="-804.5" font-family="Helvetica,sans-Serif" font-size="10.00">AudioProcessorValueTreeState</text>
</a>
</g>
</g>
<!-- Node1&#45;&gt;Node4 -->
<g id="edge3_Node000001_Node000004" class="edge">
<title>Node1&#45;&gt;Node4</title>
<g id="a_edge3_Node000001_Node000004"><a xlink:title=" ">
<path fill="none" stroke="#8b1a1a" d="M21.86,-468.47C23.83,-535.9 33.35,-741.78 76.75,-789 79.88,-792.4 83.52,-795.24 87.47,-797.6"/>
<polygon fill="#8b1a1a" stroke="#8b1a1a" points="25.37,-468.65 21.61,-458.75 18.37,-468.84 25.37,-468.65"/>
</a>
</g>
</g>
<!-- Node5 -->
<g id="Node000005" class="node">
<title>Node5</title>
<g id="a_Node000005"><a xlink:href="classAudioVisualiserComponent.html" target="_top" xlink:title="A simple component that can be used to show a scrolling waveform of audio data.">
<polygon fill="white" stroke="#666666" points="220.62,-780 86.88,-780 86.88,-760 220.62,-760 220.62,-780"/>
<text xml:space="preserve" text-anchor="middle" x="153.75" y="-766.5" font-family="Helvetica,sans-Serif" font-size="10.00">AudioVisualiserComponent</text>
</a>
</g>
</g>
<!-- Node1&#45;&gt;Node5 -->
<g id="edge4_Node000001_Node000005" class="edge">
<title>Node1&#45;&gt;Node5</title>
<g id="a_edge4_Node000001_Node000005"><a xlink:title=" ">
<path fill="none" stroke="#8b1a1a" d="M22.34,-468.49C25.59,-530.82 38.14,-709.8 76.75,-751 79.91,-754.37 83.57,-757.19 87.55,-759.53"/>
<polygon fill="#8b1a1a" stroke="#8b1a1a" points="25.86,-468.69 21.87,-458.87 18.86,-469.03 25.86,-468.69"/>
</a>
</g>
</g>
<!-- Node6 -->
<g id="Node000006" class="node">
<title>Node6</title>
<g id="a_Node000006"><a xlink:href="classBubbleMessageComponent.html" target="_top" xlink:title="A speech&#45;bubble component that displays a short message.">
<polygon fill="white" stroke="#666666" points="221.75,-742 85.75,-742 85.75,-722 221.75,-722 221.75,-742"/>
<text xml:space="preserve" text-anchor="middle" x="153.75" y="-728.5" font-family="Helvetica,sans-Serif" font-size="10.00">BubbleMessageComponent</text>
</a>
</g>
</g>
<!-- Node1&#45;&gt;Node6 -->
<g id="edge5_Node000001_Node000006" class="edge">
<title>Node1&#45;&gt;Node6</title>
<g id="a_edge5_Node000001_Node000006"><a xlink:title=" ">
<path fill="none" stroke="#8b1a1a" d="M22.95,-468.37C27.55,-525.14 42.87,-677.74 76.75,-713 80.05,-716.43 83.87,-719.28 88,-721.64"/>
<polygon fill="#8b1a1a" stroke="#8b1a1a" points="26.46,-468.44 22.2,-458.74 19.48,-468.98 26.46,-468.44"/>
</a>
</g>
</g>
<!-- Node7 -->
<g id="Node000007" class="node">
<title>Node7</title>
<g id="a_Node000007"><a xlink:href="classCallOutBox.html" target="_top" xlink:title="A box with a small arrow that can be used as a temporary pop&#45;up window to show extra controls when a ...">
<polygon fill="white" stroke="#666666" points="186.88,-704 120.62,-704 120.62,-684 186.88,-684 186.88,-704"/>
<text xml:space="preserve" text-anchor="middle" x="153.75" y="-690.5" font-family="Helvetica,sans-Serif" font-size="10.00">CallOutBox</text>
</a>
</g>
</g>
<!-- Node1&#45;&gt;Node7 -->
<g id="edge6_Node000001_Node000007" class="edge">
<title>Node1&#45;&gt;Node7</title>
<g id="a_edge6_Node000001_Node000007"><a xlink:title=" ">
<path fill="none" stroke="#8b1a1a" d="M23.78,-468.64C29.9,-519.72 47.64,-645.69 76.75,-675 88.06,-686.39 105.09,-691.31 120.17,-693.32"/>
<polygon fill="#8b1a1a" stroke="#8b1a1a" points="27.28,-468.41 22.65,-458.88 20.33,-469.21 27.28,-468.41"/>
</a>
</g>
</g>
<!-- Node8 -->
<g id="Node000008" class="node">
<title>Node8</title>
<g id="a_Node000008"><a xlink:href="classCaretComponent.html" target="_top" xlink:title=" ">
<polygon fill="white" stroke="#666666" points="198.88,-666 108.62,-666 108.62,-646 198.88,-646 198.88,-666"/>
<text xml:space="preserve" text-anchor="middle" x="153.75" y="-652.5" font-family="Helvetica,sans-Serif" font-size="10.00">CaretComponent</text>
</a>
</g>
</g>
<!-- Node1&#45;&gt;Node8 -->
<g id="edge7_Node000001_Node000008" class="edge">
<title>Node1&#45;&gt;Node8</title>
<g id="a_edge7_Node000001_Node000008"><a xlink:title=" ">
<path fill="none" stroke="#8b1a1a" d="M21.13,-468.8C21.92,-508.23 29.49,-591.53 76.75,-637 85.28,-645.2 96.79,-650.03 108.26,-652.82"/>
<polygon fill="#8b1a1a" stroke="#8b1a1a" points="24.63,-468.93 21.08,-458.95 17.63,-468.96 24.63,-468.93"/>
</a>
</g>
</g>
<!-- Node9 -->
<g id="Node000009" class="node">
<title>Node9</title>
<g id="a_Node000009"><a xlink:href="classComponentAnimator.html" target="_top" xlink:title="This class has been superseded, it is now recommended you use the Animator class in the juce_animatio...">
<polygon fill="white" stroke="#666666" points="206.38,-628 101.12,-628 101.12,-608 206.38,-608 206.38,-628"/>
<text xml:space="preserve" text-anchor="middle" x="153.75" y="-614.5" font-family="Helvetica,sans-Serif" font-size="10.00">ComponentAnimator</text>
</a>
</g>
</g>
<!-- Node1&#45;&gt;Node9 -->
<g id="edge8_Node000001_Node000009" class="edge">
<title>Node1&#45;&gt;Node9</title>
<g id="a_edge8_Node000001_Node000009"><a xlink:title=" ">
<path fill="none" stroke="#8b1a1a" d="M22.97,-468.34C26.6,-501.33 38.45,-564.5 76.75,-599 83.52,-605.1 91.95,-609.31 100.71,-612.2"/>
<polygon fill="#8b1a1a" stroke="#8b1a1a" points="26.49,-468.44 22.08,-458.81 19.52,-469.09 26.49,-468.44"/>
</a>
</g>
</g>
<!-- Node10 -->
<g id="Node000010" class="node">
<title>Node10</title>
<g id="a_Node000010"><a xlink:href="classDesktop.html" target="_top" xlink:title="Describes and controls aspects of the computer&#39;s desktop.">
<polygon fill="white" stroke="#666666" points="180.12,-590 127.38,-590 127.38,-570 180.12,-570 180.12,-590"/>
<text xml:space="preserve" text-anchor="middle" x="153.75" y="-576.5" font-family="Helvetica,sans-Serif" font-size="10.00">Desktop</text>
</a>
</g>
</g>
<!-- Node1&#45;&gt;Node10 -->
<g id="edge9_Node000001_Node000010" class="edge">
<title>Node1&#45;&gt;Node10</title>
<g id="a_edge9_Node000001_Node000010"><a xlink:title=" ">
<path fill="none" stroke="#8b1a1a" d="M25.97,-468.51C32.64,-494.38 47.53,-537.29 76.75,-561 90.9,-572.49 111.06,-577.15 127.06,-578.99"/>
<polygon fill="#8b1a1a" stroke="#8b1a1a" points="29.39,-467.73 23.68,-458.81 22.57,-469.34 29.39,-467.73"/>
</a>
</g>
</g>
<!-- Node11 -->
<g id="Node000011" class="node">
<title>Node11</title>
<g id="a_Node000011"><a xlink:href="classFileBrowserComponent.html" target="_top" xlink:title="A component for browsing and selecting a file or directory to open or save.">
<polygon fill="white" stroke="#666666" points="212.75,-552 94.75,-552 94.75,-532 212.75,-532 212.75,-552"/>
<text xml:space="preserve" text-anchor="middle" x="153.75" y="-538.5" font-family="Helvetica,sans-Serif" font-size="10.00">FileBrowserComponent</text>
</a>
</g>
</g>
<!-- Node1&#45;&gt;Node11 -->
<g id="edge10_Node000001_Node000011" class="edge">
<title>Node1&#45;&gt;Node11</title>
<g id="a_edge10_Node000001_Node000011"><a xlink:title=" ">
<path fill="none" stroke="#8b1a1a" d="M31.22,-467.65C40.56,-485.02 56.21,-509.15 76.75,-523 82.16,-526.65 88.22,-529.6 94.48,-531.98"/>
<polygon fill="#8b1a1a" stroke="#8b1a1a" points="34.35,-466.08 26.7,-458.75 28.11,-469.25 34.35,-466.08"/>
</a>
</g>
</g>
<!-- Node12 -->
<g id="Node000012" class="node">
<title>Node12</title>
<g id="a_Node000012"><a xlink:href="classImagePreviewComponent.html" target="_top" xlink:title="A simple preview component that shows thumbnails of image files.">
<polygon fill="white" stroke="#666666" points="218,-514 89.5,-514 89.5,-494 218,-494 218,-514"/>
<text xml:space="preserve" text-anchor="middle" x="153.75" y="-500.5" font-family="Helvetica,sans-Serif" font-size="10.00">ImagePreviewComponent</text>
</a>
</g>
</g>
<!-- Node1&#45;&gt;Node12 -->
<g id="edge11_Node000001_Node000012" class="edge">
<title>Node1&#45;&gt;Node12</title>
<g id="a_edge11_Node000001_Node000012"><a xlink:title=" ">
<path fill="none" stroke="#8b1a1a" d="M42.79,-464.36C52.65,-471.62 64.79,-479.61 76.75,-485 84.19,-488.35 92.32,-491.18 100.4,-493.54"/>
<polygon fill="#8b1a1a" stroke="#8b1a1a" points="45.06,-461.68 34.99,-458.38 40.8,-467.24 45.06,-461.68"/>
</a>
</g>
</g>
<!-- Node13 -->
<g id="Node000013" class="node">
<title>Node13</title>
<g id="a_Node000013"><a xlink:href="classMPEKeyboardComponent.html" target="_top" xlink:title="A component that displays an MPE&#45;compatible keyboard, whose notes can be clicked on.">
<polygon fill="white" stroke="#666666" points="218.38,-476 89.12,-476 89.12,-456 218.38,-456 218.38,-476"/>
<text xml:space="preserve" text-anchor="middle" x="153.75" y="-462.5" font-family="Helvetica,sans-Serif" font-size="10.00">MPEKeyboardComponent</text>
</a>
</g>
</g>
<!-- Node1&#45;&gt;Node13 -->
<g id="edge12_Node000001_Node000013" class="edge">
<title>Node1&#45;&gt;Node13</title>
<g id="a_edge12_Node000001_Node000013"><a xlink:title=" ">
<path fill="none" stroke="#8b1a1a" d="M52.16,-451.45C63.15,-453.04 75.97,-454.9 88.72,-456.74"/>
<polygon fill="#8b1a1a" stroke="#8b1a1a" points="52.94,-448.03 42.54,-450.06 51.94,-454.96 52.94,-448.03"/>
</a>
</g>
</g>
<!-- Node14 -->
<g id="Node000014" class="node">
<title>Node14</title>
<g id="a_Node000014"><a xlink:href="classMenuBarComponent.html" target="_top" xlink:title="A menu bar component.">
<polygon fill="white" stroke="#666666" points="206.38,-438 101.12,-438 101.12,-418 206.38,-418 206.38,-438"/>
<text xml:space="preserve" text-anchor="middle" x="153.75" y="-424.5" font-family="Helvetica,sans-Serif" font-size="10.00">MenuBarComponent</text>
</a>
</g>
</g>
<!-- Node1&#45;&gt;Node14 -->
<g id="edge13_Node000001_Node000014" class="edge">
<title>Node1&#45;&gt;Node14</title>
<g id="a_edge13_Node000001_Node000014"><a xlink:title=" ">
<path fill="none" stroke="#8b1a1a" d="M52.36,-442.52C66.82,-440.43 84.43,-437.88 100.84,-435.51"/>
<polygon fill="#8b1a1a" stroke="#8b1a1a" points="51.94,-439.04 42.54,-443.94 52.94,-445.97 51.94,-439.04"/>
</a>
</g>
</g>
<!-- Node15 -->
<g id="Node000015" class="node">
<title>Node15</title>
<g id="a_Node000015"><a xlink:href="classMidiKeyboardComponent.html" target="_top" xlink:title="A component that displays a piano keyboard, whose notes can be clicked on.">
<polygon fill="white" stroke="#666666" points="216.5,-400 91,-400 91,-380 216.5,-380 216.5,-400"/>
<text xml:space="preserve" text-anchor="middle" x="153.75" y="-386.5" font-family="Helvetica,sans-Serif" font-size="10.00">MidiKeyboardComponent</text>
</a>
</g>
</g>
<!-- Node1&#45;&gt;Node15 -->
<g id="edge14_Node000001_Node000015" class="edge">
<title>Node1&#45;&gt;Node15</title>
<g id="a_edge14_Node000001_Node000015"><a xlink:title=" ">
<path fill="none" stroke="#8b1a1a" d="M42.79,-429.64C52.65,-422.38 64.79,-414.39 76.75,-409 84.19,-405.65 92.32,-402.82 100.4,-400.46"/>
<polygon fill="#8b1a1a" stroke="#8b1a1a" points="40.8,-426.76 34.99,-435.62 45.06,-432.32 40.8,-426.76"/>
</a>
</g>
</g>
<!-- Node16 -->
<g id="Node000016" class="node">
<title>Node16</title>
<g id="a_Node000016"><a xlink:href="classMouseInactivityDetector.html" target="_top" xlink:title="This object watches for mouse&#45;events happening within a component, and if the mouse remains still for...">
<polygon fill="white" stroke="#666666" points="215,-362 92.5,-362 92.5,-342 215,-342 215,-362"/>
<text xml:space="preserve" text-anchor="middle" x="153.75" y="-348.5" font-family="Helvetica,sans-Serif" font-size="10.00">MouseInactivityDetector</text>
</a>
</g>
</g>
<!-- Node1&#45;&gt;Node16 -->
<g id="edge15_Node000001_Node000016" class="edge">
<title>Node1&#45;&gt;Node16</title>
<g id="a_edge15_Node000001_Node000016"><a xlink:title=" ">
<path fill="none" stroke="#8b1a1a" d="M31.22,-426.35C40.56,-408.98 56.21,-384.85 76.75,-371 81.83,-367.58 87.46,-364.77 93.31,-362.47"/>
<polygon fill="#8b1a1a" stroke="#8b1a1a" points="28.11,-424.75 26.7,-435.25 34.35,-427.92 28.11,-424.75"/>
</a>
</g>
</g>
<!-- Node17 -->
<g id="Node000017" class="node">
<title>Node17</title>
<g id="a_Node000017"><a xlink:href="classProgressBar.html" target="_top" xlink:title="A progress bar component.">
<polygon fill="white" stroke="#666666" points="188.75,-324 118.75,-324 118.75,-304 188.75,-304 188.75,-324"/>
<text xml:space="preserve" text-anchor="middle" x="153.75" y="-310.5" font-family="Helvetica,sans-Serif" font-size="10.00">ProgressBar</text>
</a>
</g>
</g>
<!-- Node1&#45;&gt;Node17 -->
<g id="edge16_Node000001_Node000017" class="edge">
<title>Node1&#45;&gt;Node17</title>
<g id="a_edge16_Node000001_Node000017"><a xlink:title=" ">
<path fill="none" stroke="#8b1a1a" d="M25.97,-425.49C32.64,-399.62 47.53,-356.71 76.75,-333 88.47,-323.49 104.32,-318.65 118.51,-316.22"/>
<polygon fill="#8b1a1a" stroke="#8b1a1a" points="22.57,-424.66 23.68,-435.19 29.39,-426.27 22.57,-424.66"/>
</a>
</g>
</g>
<!-- Node18 -->
<g id="Node000018" class="node">
<title>Node18</title>
<g id="a_Node000018"><a xlink:href="classPropertiesFile.html" target="_top" xlink:title="Wrapper on a file that stores a list of key/value data pairs.">
<polygon fill="white" stroke="#666666" points="191.75,-286 115.75,-286 115.75,-266 191.75,-266 191.75,-286"/>
<text xml:space="preserve" text-anchor="middle" x="153.75" y="-272.5" font-family="Helvetica,sans-Serif" font-size="10.00">PropertiesFile</text>
</a>
</g>
</g>
<!-- Node1&#45;&gt;Node18 -->
<g id="edge17_Node000001_Node000018" class="edge">
<title>Node1&#45;&gt;Node18</title>
<g id="a_edge17_Node000001_Node000018"><a xlink:title=" ">
<path fill="none" stroke="#8b1a1a" d="M22.97,-425.66C26.6,-392.67 38.45,-329.5 76.75,-295 87.26,-285.53 101.77,-280.62 115.3,-278.13"/>
<polygon fill="#8b1a1a" stroke="#8b1a1a" points="19.52,-424.91 22.08,-435.19 26.49,-425.56 19.52,-424.91"/>
</a>
</g>
</g>
<!-- Node19 -->
<g id="Node000019" class="node">
<title>Node19</title>
<g id="a_Node000019"><a xlink:href="classScrollBar.html" target="_top" xlink:title="A scrollbar component.">
<polygon fill="white" stroke="#666666" points="181.62,-248 125.88,-248 125.88,-228 181.62,-228 181.62,-248"/>
<text xml:space="preserve" text-anchor="middle" x="153.75" y="-234.5" font-family="Helvetica,sans-Serif" font-size="10.00">ScrollBar</text>
</a>
</g>
</g>
<!-- Node1&#45;&gt;Node19 -->
<g id="edge18_Node000001_Node000019" class="edge">
<title>Node1&#45;&gt;Node19</title>
<g id="a_edge18_Node000001_Node000019"><a xlink:title=" ">
<path fill="none" stroke="#8b1a1a" d="M21.13,-425.2C21.92,-385.77 29.49,-302.47 76.75,-257 89.69,-244.55 109.49,-239.89 125.64,-238.29"/>
<polygon fill="#8b1a1a" stroke="#8b1a1a" points="17.63,-425.04 21.08,-435.05 24.63,-425.07 17.63,-425.04"/>
</a>
</g>
</g>
<!-- Node20 -->
<g id="Node000020" class="node">
<title>Node20</title>
<g id="a_Node000020"><a xlink:href="classSplashScreen.html" target="_top" xlink:title="A component for showing a splash screen while your app starts up.">
<polygon fill="white" stroke="#666666" points="192.12,-210 115.38,-210 115.38,-190 192.12,-190 192.12,-210"/>
<text xml:space="preserve" text-anchor="middle" x="153.75" y="-196.5" font-family="Helvetica,sans-Serif" font-size="10.00">SplashScreen</text>
</a>
</g>
</g>
<!-- Node1&#45;&gt;Node20 -->
<g id="edge19_Node000001_Node000020" class="edge">
<title>Node1&#45;&gt;Node20</title>
<g id="a_edge19_Node000001_Node000020"><a xlink:title=" ">
<path fill="none" stroke="#8b1a1a" d="M23.78,-425.36C29.9,-374.28 47.64,-248.31 76.75,-219 86.81,-208.87 101.41,-203.85 115.12,-201.46"/>
<polygon fill="#8b1a1a" stroke="#8b1a1a" points="20.33,-424.79 22.65,-435.12 27.28,-425.59 20.33,-424.79"/>
</a>
</g>
</g>
<!-- Node21 -->
<g id="Node000021" class="node">
<title>Node21</title>
<g id="a_Node000021"><a xlink:href="classStandalonePluginHolder.html" target="_top" xlink:title="An object that creates and plays a standalone instance of an AudioProcessor.">
<polygon fill="white" stroke="#666666" points="213.88,-172 93.62,-172 93.62,-152 213.88,-152 213.88,-172"/>
<text xml:space="preserve" text-anchor="middle" x="153.75" y="-158.5" font-family="Helvetica,sans-Serif" font-size="10.00">StandalonePluginHolder</text>
</a>
</g>
</g>
<!-- Node1&#45;&gt;Node21 -->
<g id="edge20_Node000001_Node000021" class="edge">
<title>Node1&#45;&gt;Node21</title>
<g id="a_edge20_Node000001_Node000021"><a xlink:title=" ">
<path fill="none" stroke="#8b1a1a" d="M22.95,-425.63C27.55,-368.86 42.87,-216.26 76.75,-181 81.46,-176.1 87.23,-172.38 93.47,-169.58"/>
<polygon fill="#8b1a1a" stroke="#8b1a1a" points="19.48,-425.02 22.2,-435.26 26.46,-425.56 19.48,-425.02"/>
</a>
</g>
</g>
<!-- Node22 -->
<g id="Node000022" class="node">
<title>Node22</title>
<g id="a_Node000022"><a xlink:href="classThreadWithProgressWindow.html" target="_top" xlink:title="A thread that automatically pops up a modal dialog box with a progress bar and cancel button while it...">
<polygon fill="white" stroke="#666666" points="224,-134 83.5,-134 83.5,-114 224,-114 224,-134"/>
<text xml:space="preserve" text-anchor="middle" x="153.75" y="-120.5" font-family="Helvetica,sans-Serif" font-size="10.00">ThreadWithProgressWindow</text>
</a>
</g>
</g>
<!-- Node1&#45;&gt;Node22 -->
<g id="edge21_Node000001_Node000022" class="edge">
<title>Node1&#45;&gt;Node22</title>
<g id="a_edge21_Node000001_Node000022"><a xlink:title=" ">
<path fill="none" stroke="#8b1a1a" d="M22.34,-425.51C25.59,-363.18 38.14,-184.2 76.75,-143 79.91,-139.63 83.57,-136.81 87.55,-134.47"/>
<polygon fill="#8b1a1a" stroke="#8b1a1a" points="18.86,-424.97 21.87,-435.13 25.86,-425.31 18.86,-424.97"/>
</a>
</g>
</g>
<!-- Node23 -->
<g id="Node000023" class="node">
<title>Node23</title>
<g id="a_Node000023"><a xlink:href="classTimedCallback.html" target="_top" xlink:title="Utility class wrapping a single non&#45;null callback called by a Timer.">
<polygon fill="white" stroke="#666666" points="194.38,-96 113.12,-96 113.12,-76 194.38,-76 194.38,-96"/>
<text xml:space="preserve" text-anchor="middle" x="153.75" y="-82.5" font-family="Helvetica,sans-Serif" font-size="10.00">TimedCallback</text>
</a>
</g>
</g>
<!-- Node1&#45;&gt;Node23 -->
<g id="edge22_Node000001_Node000023" class="edge">
<title>Node1&#45;&gt;Node23</title>
<g id="a_edge22_Node000001_Node000023"><a xlink:title=" ">
<path fill="none" stroke="#8b1a1a" d="M21.86,-425.53C23.83,-358.1 33.35,-152.22 76.75,-105 85.95,-94.99 99.56,-89.9 112.73,-87.41"/>
<polygon fill="#8b1a1a" stroke="#8b1a1a" points="18.37,-425.16 21.61,-435.25 25.37,-425.35 18.37,-425.16"/>
</a>
</g>
</g>
<!-- Node24 -->
<g id="Node000024" class="node">
<title>Node24</title>
<g id="a_Node000024"><a xlink:href="classTooltipWindow.html" target="_top" xlink:title="A window that displays a pop&#45;up tooltip when the mouse hovers over another component.">
<polygon fill="white" stroke="#666666" points="193.62,-58 113.88,-58 113.88,-38 193.62,-38 193.62,-58"/>
<text xml:space="preserve" text-anchor="middle" x="153.75" y="-44.5" font-family="Helvetica,sans-Serif" font-size="10.00">TooltipWindow</text>
</a>
</g>
</g>
<!-- Node1&#45;&gt;Node24 -->
<g id="edge23_Node000001_Node000024" class="edge">
<title>Node1&#45;&gt;Node24</title>
<g id="a_edge23_Node000001_Node000024"><a xlink:title=" ">
<path fill="none" stroke="#8b1a1a" d="M21.48,-425.54C22.26,-353.26 28.55,-120.29 76.75,-67 86.06,-56.71 100.01,-51.61 113.43,-49.19"/>
<polygon fill="#8b1a1a" stroke="#8b1a1a" points="17.98,-425.2 21.4,-435.23 24.98,-425.26 17.98,-425.2"/>
</a>
</g>
</g>
<!-- Node25 -->
<g id="Node000025" class="node">
<title>Node25</title>
<g id="a_Node000025"><a xlink:href="classVideoComponent.html" target="_top" xlink:title="A component that can play a movie.">
<polygon fill="white" stroke="#666666" points="199.25,-20 108.25,-20 108.25,0 199.25,0 199.25,-20"/>
<text xml:space="preserve" text-anchor="middle" x="153.75" y="-6.5" font-family="Helvetica,sans-Serif" font-size="10.00">VideoComponent</text>
</a>
</g>
</g>
<!-- Node1&#45;&gt;Node25 -->
<g id="edge24_Node000001_Node000025" class="edge">
<title>Node1&#45;&gt;Node25</title>
<g id="a_edge24_Node000001_Node000025"><a xlink:title=" ">
<path fill="none" stroke="#8b1a1a" d="M21.16,-425.4C20.84,-348.34 23.76,-88.36 76.75,-29 84.72,-20.07 96.19,-15.04 107.81,-12.27"/>
<polygon fill="#8b1a1a" stroke="#8b1a1a" points="17.66,-425.02 21.22,-434.99 24.65,-424.97 17.66,-425.02"/>
</a>
</g>
</g>
</g>
</svg>
