<?xml version="1.0" encoding="UTF-8" standalone="no"?>
<!DOCTYPE svg PUBLIC "-//W3C//DTD SVG 1.1//EN"
 "http://www.w3.org/Graphics/SVG/1.1/DTD/svg11.dtd">
<!-- Generated by graphviz version 13.1.0 (20250701.0955)
 -->
<!-- Title: MemoryAudioSource Pages: 1 -->
<svg width="133pt" height="140pt"
 viewBox="0.00 0.00 133.00 140.00" xmlns="http://www.w3.org/2000/svg" xmlns:xlink="http://www.w3.org/1999/xlink">
<g id="graph0" class="graph" transform="scale(1 1) rotate(0) translate(4 136)">
<title>MemoryAudioSource</title>
<!-- Node1 -->
<g id="Node000001" class="node">
<title>Node1</title>
<g id="a_Node000001"><a xlink:title="An AudioSource which takes some float audio data as an input.">
<polygon fill="#999999" stroke="#666666" points="115.75,-20 9,-20 9,0 115.75,0 115.75,-20"/>
<text xml:space="preserve" text-anchor="middle" x="62.38" y="-6.5" font-family="Helvetica,sans-Serif" font-size="10.00">MemoryAudioSource</text>
</a>
</g>
</g>
<!-- Node2 -->
<g id="Node000002" class="node">
<title>Node2</title>
<g id="a_Node000002"><a xlink:href="classPositionableAudioSource.html" target="_top" xlink:title="A type of AudioSource which can be repositioned.">
<polygon fill="white" stroke="#666666" points="124.75,-76 0,-76 0,-56 124.75,-56 124.75,-76"/>
<text xml:space="preserve" text-anchor="middle" x="62.38" y="-62.5" font-family="Helvetica,sans-Serif" font-size="10.00">PositionableAudioSource</text>
</a>
</g>
</g>
<!-- Node2&#45;&gt;Node1 -->
<g id="edge1_Node000001_Node000002" class="edge">
<title>Node2&#45;&gt;Node1</title>
<g id="a_edge1_Node000001_Node000002"><a xlink:title=" ">
<path fill="none" stroke="#63b8ff" d="M62.38,-44.13C62.38,-35.9 62.38,-26.85 62.38,-20.3"/>
<polygon fill="#63b8ff" stroke="#63b8ff" points="58.88,-44.08 62.38,-54.08 65.88,-44.08 58.88,-44.08"/>
</a>
</g>
</g>
<!-- Node3 -->
<g id="Node000003" class="node">
<title>Node3</title>
<g id="a_Node000003"><a xlink:href="classAudioSource.html" target="_top" xlink:title="Base class for objects that can produce a continuous stream of audio.">
<polygon fill="white" stroke="#666666" points="98.12,-132 26.62,-132 26.62,-112 98.12,-112 98.12,-132"/>
<text xml:space="preserve" text-anchor="middle" x="62.38" y="-118.5" font-family="Helvetica,sans-Serif" font-size="10.00">AudioSource</text>
</a>
</g>
</g>
<!-- Node3&#45;&gt;Node2 -->
<g id="edge2_Node000002_Node000003" class="edge">
<title>Node3&#45;&gt;Node2</title>
<g id="a_edge2_Node000002_Node000003"><a xlink:title=" ">
<path fill="none" stroke="#63b8ff" d="M62.38,-100.13C62.38,-91.9 62.38,-82.85 62.38,-76.3"/>
<polygon fill="#63b8ff" stroke="#63b8ff" points="58.88,-100.08 62.38,-110.08 65.88,-100.08 58.88,-100.08"/>
</a>
</g>
</g>
</g>
</svg>
