<?xml version="1.0" encoding="UTF-8" standalone="no"?>
<!DOCTYPE svg PUBLIC "-//W3C//DTD SVG 1.1//EN"
 "http://www.w3.org/Graphics/SVG/1.1/DTD/svg11.dtd">
<!-- Generated by graphviz version 13.1.0 (20250701.0955)
 -->
<!-- Title: AudioFormatReaderSource Pages: 1 -->
<svg width="142pt" height="140pt"
 viewBox="0.00 0.00 142.00 140.00" xmlns="http://www.w3.org/2000/svg" xmlns:xlink="http://www.w3.org/1999/xlink">
<g id="graph0" class="graph" transform="scale(1 1) rotate(0) translate(4 136)">
<title>AudioFormatReaderSource</title>
<!-- Node1 -->
<g id="Node000001" class="node">
<title>Node1</title>
<g id="a_Node000001"><a xlink:title="A type of AudioSource that will read from an AudioFormatReader.">
<polygon fill="#999999" stroke="#666666" points="133.75,-20 0,-20 0,0 133.75,0 133.75,-20"/>
<text xml:space="preserve" text-anchor="middle" x="66.88" y="-6.5" font-family="Helvetica,sans-Serif" font-size="10.00">AudioFormatReaderSource</text>
</a>
</g>
</g>
<!-- Node2 -->
<g id="Node000002" class="node">
<title>Node2</title>
<g id="a_Node000002"><a xlink:href="classPositionableAudioSource.html" target="_top" xlink:title="A type of AudioSource which can be repositioned.">
<polygon fill="white" stroke="#666666" points="129.25,-76 4.5,-76 4.5,-56 129.25,-56 129.25,-76"/>
<text xml:space="preserve" text-anchor="middle" x="66.88" y="-62.5" font-family="Helvetica,sans-Serif" font-size="10.00">PositionableAudioSource</text>
</a>
</g>
</g>
<!-- Node2&#45;&gt;Node1 -->
<g id="edge1_Node000001_Node000002" class="edge">
<title>Node2&#45;&gt;Node1</title>
<g id="a_edge1_Node000001_Node000002"><a xlink:title=" ">
<path fill="none" stroke="#63b8ff" d="M66.88,-44.13C66.88,-35.9 66.88,-26.85 66.88,-20.3"/>
<polygon fill="#63b8ff" stroke="#63b8ff" points="63.38,-44.08 66.88,-54.08 70.38,-44.08 63.38,-44.08"/>
</a>
</g>
</g>
<!-- Node3 -->
<g id="Node000003" class="node">
<title>Node3</title>
<g id="a_Node000003"><a xlink:href="classAudioSource.html" target="_top" xlink:title="Base class for objects that can produce a continuous stream of audio.">
<polygon fill="white" stroke="#666666" points="102.62,-132 31.12,-132 31.12,-112 102.62,-112 102.62,-132"/>
<text xml:space="preserve" text-anchor="middle" x="66.88" y="-118.5" font-family="Helvetica,sans-Serif" font-size="10.00">AudioSource</text>
</a>
</g>
</g>
<!-- Node3&#45;&gt;Node2 -->
<g id="edge2_Node000002_Node000003" class="edge">
<title>Node3&#45;&gt;Node2</title>
<g id="a_edge2_Node000002_Node000003"><a xlink:title=" ">
<path fill="none" stroke="#63b8ff" d="M66.88,-100.13C66.88,-91.9 66.88,-82.85 66.88,-76.3"/>
<polygon fill="#63b8ff" stroke="#63b8ff" points="63.38,-100.08 66.88,-110.08 70.38,-100.08 63.38,-100.08"/>
</a>
</g>
</g>
</g>
</svg>
