<?xml version="1.0" encoding="UTF-8" standalone="no"?>
<!DOCTYPE svg PUBLIC "-//W3C//DTD SVG 1.1//EN"
 "http://www.w3.org/Graphics/SVG/1.1/DTD/svg11.dtd">
<!-- Generated by graphviz version 13.1.0 (20250701.0955)
 -->
<!-- Title: KeyPressMappingSet Pages: 1 -->
<svg width="326pt" height="84pt"
 viewBox="0.00 0.00 326.00 84.00" xmlns="http://www.w3.org/2000/svg" xmlns:xlink="http://www.w3.org/1999/xlink">
<g id="graph0" class="graph" transform="scale(1 1) rotate(0) translate(4 80)">
<title>KeyPressMappingSet</title>
<!-- Node1 -->
<g id="Node000001" class="node">
<title>Node1</title>
<g id="a_Node000001"><a xlink:title="Manages and edits a list of keypresses, which it uses to invoke the appropriate command in an Applica...">
<polygon fill="#999999" stroke="#666666" points="192.12,-20 81.62,-20 81.62,0 192.12,0 192.12,-20"/>
<text xml:space="preserve" text-anchor="middle" x="136.88" y="-6.5" font-family="Helvetica,sans-Serif" font-size="10.00">KeyPressMappingSet</text>
</a>
</g>
</g>
<!-- Node2 -->
<g id="Node000002" class="node">
<title>Node2</title>
<g id="a_Node000002"><a xlink:href="classKeyListener.html" target="_top" xlink:title="Receives callbacks when keys are pressed.">
<polygon fill="white" stroke="#666666" points="67.75,-76 0,-76 0,-56 67.75,-56 67.75,-76"/>
<text xml:space="preserve" text-anchor="middle" x="33.88" y="-62.5" font-family="Helvetica,sans-Serif" font-size="10.00">KeyListener</text>
</a>
</g>
</g>
<!-- Node2&#45;&gt;Node1 -->
<g id="edge1_Node000001_Node000002" class="edge">
<title>Node2&#45;&gt;Node1</title>
<g id="a_edge1_Node000001_Node000002"><a xlink:title=" ">
<path fill="none" stroke="#63b8ff" d="M61.82,-50.35C79.95,-40.84 103.04,-28.74 118.79,-20.48"/>
<polygon fill="#63b8ff" stroke="#63b8ff" points="60.39,-47.15 53.16,-54.89 63.64,-53.35 60.39,-47.15"/>
</a>
</g>
</g>
<!-- Node3 -->
<g id="Node000003" class="node">
<title>Node3</title>
<g id="a_Node000003"><a xlink:href="classChangeBroadcaster.html" target="_top" xlink:title="Holds a list of ChangeListeners, and sends messages to them when instructed.">
<polygon fill="white" stroke="#666666" points="188,-76 85.75,-76 85.75,-56 188,-56 188,-76"/>
<text xml:space="preserve" text-anchor="middle" x="136.88" y="-62.5" font-family="Helvetica,sans-Serif" font-size="10.00">ChangeBroadcaster</text>
</a>
</g>
</g>
<!-- Node3&#45;&gt;Node1 -->
<g id="edge2_Node000001_Node000003" class="edge">
<title>Node3&#45;&gt;Node1</title>
<g id="a_edge2_Node000001_Node000003"><a xlink:title=" ">
<path fill="none" stroke="#63b8ff" d="M136.88,-44.13C136.88,-35.9 136.88,-26.85 136.88,-20.3"/>
<polygon fill="#63b8ff" stroke="#63b8ff" points="133.38,-44.08 136.88,-54.08 140.38,-44.08 133.38,-44.08"/>
</a>
</g>
</g>
<!-- Node4 -->
<g id="Node000004" class="node">
<title>Node4</title>
<g id="a_Node000004"><a xlink:href="classFocusChangeListener.html" target="_top" xlink:title="Classes can implement this interface and register themselves with the Desktop class to receive callba...">
<polygon fill="white" stroke="#666666" points="317.5,-76 206.25,-76 206.25,-56 317.5,-56 317.5,-76"/>
<text xml:space="preserve" text-anchor="middle" x="261.88" y="-62.5" font-family="Helvetica,sans-Serif" font-size="10.00">FocusChangeListener</text>
</a>
</g>
</g>
<!-- Node4&#45;&gt;Node1 -->
<g id="edge3_Node000001_Node000004" class="edge">
<title>Node4&#45;&gt;Node1</title>
<g id="a_edge3_Node000001_Node000004"><a xlink:title=" ">
<path fill="none" stroke="#8b1a1a" d="M229.79,-51.14C207.53,-41.52 178.47,-28.97 158.82,-20.48"/>
<polygon fill="#8b1a1a" stroke="#8b1a1a" points="228.14,-54.24 238.71,-54.99 230.92,-47.81 228.14,-54.24"/>
</a>
</g>
</g>
</g>
</svg>
