<?xml version="1.0" encoding="UTF-8" standalone="no"?>
<!DOCTYPE svg PUBLIC "-//W3C//DTD SVG 1.1//EN"
 "http://www.w3.org/Graphics/SVG/1.1/DTD/svg11.dtd">
<!-- Generated by graphviz version 13.1.0 (20250701.0955)
 -->
<!-- Title: MPEKeyboardComponent Pages: 1 -->
<svg width="365pt" height="196pt"
 viewBox="0.00 0.00 365.00 196.00" xmlns="http://www.w3.org/2000/svg" xmlns:xlink="http://www.w3.org/1999/xlink">
<g id="graph0" class="graph" transform="scale(1 1) rotate(0) translate(4 192)">
<title>MPEKeyboardComponent</title>
<!-- Node1 -->
<g id="Node000001" class="node">
<title>Node1</title>
<g id="a_Node000001"><a xlink:title="A component that displays an MPE&#45;compatible keyboard, whose notes can be clicked on.">
<polygon fill="#999999" stroke="#666666" points="300.5,-20 171.25,-20 171.25,0 300.5,0 300.5,-20"/>
<text xml:space="preserve" text-anchor="middle" x="235.88" y="-6.5" font-family="Helvetica,sans-Serif" font-size="10.00">MPEKeyboardComponent</text>
</a>
</g>
</g>
<!-- Node2 -->
<g id="Node000002" class="node">
<title>Node2</title>
<g id="a_Node000002"><a xlink:href="classKeyboardComponentBase.html" target="_top" xlink:title="A base class for drawing a custom MIDI keyboard component.">
<polygon fill="white" stroke="#666666" points="155.88,-76 25.88,-76 25.88,-56 155.88,-56 155.88,-76"/>
<text xml:space="preserve" text-anchor="middle" x="90.88" y="-62.5" font-family="Helvetica,sans-Serif" font-size="10.00">KeyboardComponentBase</text>
</a>
</g>
</g>
<!-- Node2&#45;&gt;Node1 -->
<g id="edge1_Node000001_Node000002" class="edge">
<title>Node2&#45;&gt;Node1</title>
<g id="a_edge1_Node000001_Node000002"><a xlink:title=" ">
<path fill="none" stroke="#63b8ff" d="M126.69,-51.66C152.68,-41.98 187.21,-29.12 210.42,-20.48"/>
<polygon fill="#63b8ff" stroke="#63b8ff" points="125.7,-48.3 117.55,-55.07 128.14,-54.86 125.7,-48.3"/>
</a>
</g>
</g>
<!-- Node3 -->
<g id="Node000003" class="node">
<title>Node3</title>
<g id="a_Node000003"><a xlink:href="classComponent.html" target="_top" xlink:title="The base class for all JUCE user&#45;interface objects.">
<polygon fill="white" stroke="#666666" points="73,-132 6.75,-132 6.75,-112 73,-112 73,-132"/>
<text xml:space="preserve" text-anchor="middle" x="39.88" y="-118.5" font-family="Helvetica,sans-Serif" font-size="10.00">Component</text>
</a>
</g>
</g>
<!-- Node3&#45;&gt;Node2 -->
<g id="edge2_Node000002_Node000003" class="edge">
<title>Node3&#45;&gt;Node2</title>
<g id="a_edge2_Node000002_Node000003"><a xlink:title=" ">
<path fill="none" stroke="#63b8ff" d="M56.61,-103.29C65.11,-94.28 75.1,-83.7 82.09,-76.3"/>
<polygon fill="#63b8ff" stroke="#63b8ff" points="54.12,-100.82 49.8,-110.49 59.21,-105.63 54.12,-100.82"/>
</a>
</g>
</g>
<!-- Node4 -->
<g id="Node000004" class="node">
<title>Node4</title>
<g id="a_Node000004"><a xlink:href="classMouseListener.html" target="_top" xlink:title="A MouseListener can be registered with a component to receive callbacks about mouse events that happe...">
<polygon fill="white" stroke="#666666" points="79.75,-188 0,-188 0,-168 79.75,-168 79.75,-188"/>
<text xml:space="preserve" text-anchor="middle" x="39.88" y="-174.5" font-family="Helvetica,sans-Serif" font-size="10.00">MouseListener</text>
</a>
</g>
</g>
<!-- Node4&#45;&gt;Node3 -->
<g id="edge3_Node000003_Node000004" class="edge">
<title>Node4&#45;&gt;Node3</title>
<g id="a_edge3_Node000003_Node000004"><a xlink:title=" ">
<path fill="none" stroke="#63b8ff" d="M39.88,-156.13C39.88,-147.9 39.88,-138.85 39.88,-132.3"/>
<polygon fill="#63b8ff" stroke="#63b8ff" points="36.38,-156.08 39.88,-166.08 43.38,-156.08 36.38,-156.08"/>
</a>
</g>
</g>
<!-- Node5 -->
<g id="Node000005" class="node">
<title>Node5</title>
<g id="a_Node000005"><a xlink:href="classChangeBroadcaster.html" target="_top" xlink:title="Holds a list of ChangeListeners, and sends messages to them when instructed.">
<polygon fill="white" stroke="#666666" points="193,-132 90.75,-132 90.75,-112 193,-112 193,-132"/>
<text xml:space="preserve" text-anchor="middle" x="141.88" y="-118.5" font-family="Helvetica,sans-Serif" font-size="10.00">ChangeBroadcaster</text>
</a>
</g>
</g>
<!-- Node5&#45;&gt;Node2 -->
<g id="edge4_Node000002_Node000005" class="edge">
<title>Node5&#45;&gt;Node2</title>
<g id="a_edge4_Node000002_Node000005"><a xlink:title=" ">
<path fill="none" stroke="#63b8ff" d="M125.14,-103.29C116.64,-94.28 106.65,-83.7 99.66,-76.3"/>
<polygon fill="#63b8ff" stroke="#63b8ff" points="122.54,-105.63 131.95,-110.49 127.63,-100.82 122.54,-105.63"/>
</a>
</g>
</g>
<!-- Node6 -->
<g id="Node000006" class="node">
<title>Node6</title>
<g id="a_Node000006"><a xlink:href="classMPEInstrument_1_1Listener.html" target="_top" xlink:title="Derive from this class to be informed about any changes in the MPE notes played by this instrument,...">
<polygon fill="white" stroke="#666666" points="298.25,-76 173.5,-76 173.5,-56 298.25,-56 298.25,-76"/>
<text xml:space="preserve" text-anchor="middle" x="235.88" y="-62.5" font-family="Helvetica,sans-Serif" font-size="10.00">MPEInstrument::Listener</text>
</a>
</g>
</g>
<!-- Node6&#45;&gt;Node1 -->
<g id="edge5_Node000001_Node000006" class="edge">
<title>Node6&#45;&gt;Node1</title>
<g id="a_edge5_Node000001_Node000006"><a xlink:title=" ">
<path fill="none" stroke="#8b1a1a" d="M235.88,-44.13C235.88,-35.9 235.88,-26.85 235.88,-20.3"/>
<polygon fill="#8b1a1a" stroke="#8b1a1a" points="232.38,-44.08 235.88,-54.08 239.38,-44.08 232.38,-44.08"/>
</a>
</g>
</g>
<!-- Node7 -->
<g id="Node000007" class="node">
<title>Node7</title>
<g id="a_Node000007"><a xlink:href="classTimer.html" target="_top" xlink:title="Makes repeated callbacks to a virtual method at a specified time interval.">
<polygon fill="white" stroke="#666666" points="357.25,-76 316.5,-76 316.5,-56 357.25,-56 357.25,-76"/>
<text xml:space="preserve" text-anchor="middle" x="336.88" y="-62.5" font-family="Helvetica,sans-Serif" font-size="10.00">Timer</text>
</a>
</g>
</g>
<!-- Node7&#45;&gt;Node1 -->
<g id="edge6_Node000001_Node000007" class="edge">
<title>Node7&#45;&gt;Node1</title>
<g id="a_edge6_Node000001_Node000007"><a xlink:title=" ">
<path fill="none" stroke="#8b1a1a" d="M309.47,-50.35C291.69,-40.84 269.05,-28.74 253.61,-20.48"/>
<polygon fill="#8b1a1a" stroke="#8b1a1a" points="307.48,-53.25 317.95,-54.88 310.78,-47.08 307.48,-53.25"/>
</a>
</g>
</g>
</g>
</svg>
