<?xml version="1.0" encoding="UTF-8" standalone="no"?>
<!DOCTYPE svg PUBLIC "-//W3C//DTD SVG 1.1//EN"
 "http://www.w3.org/Graphics/SVG/1.1/DTD/svg11.dtd">
<!-- Generated by graphviz version 13.1.0 (20250701.0955)
 -->
<!-- Title: ARARenderer Pages: 1 -->
<svg width="246pt" height="84pt"
 viewBox="0.00 0.00 246.00 84.00" xmlns="http://www.w3.org/2000/svg" xmlns:xlink="http://www.w3.org/1999/xlink">
<g id="graph0" class="graph" transform="scale(1 1) rotate(0) translate(4 80)">
<title>ARARenderer</title>
<!-- Node1 -->
<g id="Node000001" class="node">
<title>Node1</title>
<g id="a_Node000001"><a xlink:title="Base class for a renderer fulfilling either the ARAPlaybackRenderer or the ARAEditorRenderer role.">
<polygon fill="#999999" stroke="#666666" points="153.5,-76 76.75,-76 76.75,-56 153.5,-56 153.5,-76"/>
<text xml:space="preserve" text-anchor="middle" x="115.12" y="-62.5" font-family="Helvetica,sans-Serif" font-size="10.00">ARARenderer</text>
</a>
</g>
</g>
<!-- Node2 -->
<g id="Node000002" class="node">
<title>Node2</title>
<g id="a_Node000002"><a xlink:href="classARAEditorRenderer.html" target="_top" xlink:title="Base class for a renderer fulfilling the ARAEditorRenderer role as described in the ARA SDK.">
<polygon fill="white" stroke="#666666" points="102.25,-20 0,-20 0,0 102.25,0 102.25,-20"/>
<text xml:space="preserve" text-anchor="middle" x="51.12" y="-6.5" font-family="Helvetica,sans-Serif" font-size="10.00">ARAEditorRenderer</text>
</a>
</g>
</g>
<!-- Node1&#45;&gt;Node2 -->
<g id="edge1_Node000001_Node000002" class="edge">
<title>Node1&#45;&gt;Node2</title>
<g id="a_edge1_Node000001_Node000002"><a xlink:title=" ">
<path fill="none" stroke="#63b8ff" d="M95.45,-48.4C84.51,-39.17 71.28,-28.01 62.15,-20.3"/>
<polygon fill="#63b8ff" stroke="#63b8ff" points="92.92,-50.84 102.82,-54.62 97.43,-45.49 92.92,-50.84"/>
</a>
</g>
</g>
<!-- Node3 -->
<g id="Node000003" class="node">
<title>Node3</title>
<g id="a_Node000003"><a xlink:href="classARAPlaybackRenderer.html" target="_top" xlink:title="Base class for a renderer fulfilling the ARAPlaybackRenderer role as described in the ARA SDK.">
<polygon fill="white" stroke="#666666" points="237.75,-20 120.5,-20 120.5,0 237.75,0 237.75,-20"/>
<text xml:space="preserve" text-anchor="middle" x="179.12" y="-6.5" font-family="Helvetica,sans-Serif" font-size="10.00">ARAPlaybackRenderer</text>
</a>
</g>
</g>
<!-- Node1&#45;&gt;Node3 -->
<g id="edge2_Node000001_Node000003" class="edge">
<title>Node1&#45;&gt;Node3</title>
<g id="a_edge2_Node000001_Node000003"><a xlink:title=" ">
<path fill="none" stroke="#63b8ff" d="M134.8,-48.4C145.74,-39.17 158.97,-28.01 168.1,-20.3"/>
<polygon fill="#63b8ff" stroke="#63b8ff" points="132.82,-45.49 127.43,-54.62 137.33,-50.84 132.82,-45.49"/>
</a>
</g>
</g>
</g>
</svg>
