<?xml version="1.0" encoding="UTF-8" standalone="no"?>
<!DOCTYPE svg PUBLIC "-//W3C//DTD SVG 1.1//EN"
 "http://www.w3.org/Graphics/SVG/1.1/DTD/svg11.dtd">
<!-- Generated by graphviz version 13.1.0 (20250701.0955)
 -->
<!-- Title: TreeView Pages: 1 -->
<svg width="461pt" height="196pt"
 viewBox="0.00 0.00 461.00 196.00" xmlns="http://www.w3.org/2000/svg" xmlns:xlink="http://www.w3.org/1999/xlink">
<g id="graph0" class="graph" transform="scale(1 1) rotate(0) translate(4 192)">
<title>TreeView</title>
<!-- Node1 -->
<g id="Node000001" class="node">
<title>Node1</title>
<g id="a_Node000001"><a xlink:title="A tree&#45;view component.">
<polygon fill="#999999" stroke="#666666" points="237.5,-76 180.25,-76 180.25,-56 237.5,-56 237.5,-76"/>
<text xml:space="preserve" text-anchor="middle" x="208.88" y="-62.5" font-family="Helvetica,sans-Serif" font-size="10.00">TreeView</text>
</a>
</g>
</g>
<!-- Node8 -->
<g id="Node000008" class="node">
<title>Node8</title>
<g id="a_Node000008"><a xlink:href="classFileTreeComponent.html" target="_top" xlink:title="A component that displays the files in a directory as a treeview.">
<polygon fill="white" stroke="#666666" points="259.62,-20 158.12,-20 158.12,0 259.62,0 259.62,-20"/>
<text xml:space="preserve" text-anchor="middle" x="208.88" y="-6.5" font-family="Helvetica,sans-Serif" font-size="10.00">FileTreeComponent</text>
</a>
</g>
</g>
<!-- Node1&#45;&gt;Node8 -->
<g id="edge7_Node000001_Node000008" class="edge">
<title>Node1&#45;&gt;Node8</title>
<g id="a_edge7_Node000001_Node000008"><a xlink:title=" ">
<path fill="none" stroke="#63b8ff" d="M208.88,-44.13C208.88,-35.9 208.88,-26.85 208.88,-20.3"/>
<polygon fill="#63b8ff" stroke="#63b8ff" points="205.38,-44.08 208.88,-54.08 212.38,-44.08 205.38,-44.08"/>
</a>
</g>
</g>
<!-- Node2 -->
<g id="Node000002" class="node">
<title>Node2</title>
<g id="a_Node000002"><a xlink:href="classComponent.html" target="_top" xlink:title="The base class for all JUCE user&#45;interface objects.">
<polygon fill="white" stroke="#666666" points="73,-132 6.75,-132 6.75,-112 73,-112 73,-132"/>
<text xml:space="preserve" text-anchor="middle" x="39.88" y="-118.5" font-family="Helvetica,sans-Serif" font-size="10.00">Component</text>
</a>
</g>
</g>
<!-- Node2&#45;&gt;Node1 -->
<g id="edge1_Node000001_Node000002" class="edge">
<title>Node2&#45;&gt;Node1</title>
<g id="a_edge1_Node000001_Node000002"><a xlink:title=" ">
<path fill="none" stroke="#63b8ff" d="M80.07,-108.16C110.74,-98.36 152.26,-85.09 179.77,-76.3"/>
<polygon fill="#63b8ff" stroke="#63b8ff" points="79.21,-104.76 70.75,-111.13 81.35,-111.42 79.21,-104.76"/>
</a>
</g>
</g>
<!-- Node3 -->
<g id="Node000003" class="node">
<title>Node3</title>
<g id="a_Node000003"><a xlink:href="classMouseListener.html" target="_top" xlink:title="A MouseListener can be registered with a component to receive callbacks about mouse events that happe...">
<polygon fill="white" stroke="#666666" points="79.75,-188 0,-188 0,-168 79.75,-168 79.75,-188"/>
<text xml:space="preserve" text-anchor="middle" x="39.88" y="-174.5" font-family="Helvetica,sans-Serif" font-size="10.00">MouseListener</text>
</a>
</g>
</g>
<!-- Node3&#45;&gt;Node2 -->
<g id="edge2_Node000002_Node000003" class="edge">
<title>Node3&#45;&gt;Node2</title>
<g id="a_edge2_Node000002_Node000003"><a xlink:title=" ">
<path fill="none" stroke="#63b8ff" d="M39.88,-156.13C39.88,-147.9 39.88,-138.85 39.88,-132.3"/>
<polygon fill="#63b8ff" stroke="#63b8ff" points="36.38,-156.08 39.88,-166.08 43.38,-156.08 36.38,-156.08"/>
</a>
</g>
</g>
<!-- Node4 -->
<g id="Node000004" class="node">
<title>Node4</title>
<g id="a_Node000004"><a xlink:href="classSettableTooltipClient.html" target="_top" xlink:title="An implementation of TooltipClient that stores the tooltip string and a method for changing it.">
<polygon fill="white" stroke="#666666" points="196.88,-132 90.88,-132 90.88,-112 196.88,-112 196.88,-132"/>
<text xml:space="preserve" text-anchor="middle" x="143.88" y="-118.5" font-family="Helvetica,sans-Serif" font-size="10.00">SettableTooltipClient</text>
</a>
</g>
</g>
<!-- Node4&#45;&gt;Node1 -->
<g id="edge3_Node000001_Node000004" class="edge">
<title>Node4&#45;&gt;Node1</title>
<g id="a_edge3_Node000001_Node000004"><a xlink:title=" ">
<path fill="none" stroke="#63b8ff" d="M163.85,-104.4C174.97,-95.17 188.4,-84.01 197.68,-76.3"/>
<polygon fill="#63b8ff" stroke="#63b8ff" points="161.82,-101.54 156.36,-110.63 166.29,-106.93 161.82,-101.54"/>
</a>
</g>
</g>
<!-- Node5 -->
<g id="Node000005" class="node">
<title>Node5</title>
<g id="a_Node000005"><a xlink:href="classTooltipClient.html" target="_top" xlink:title="Components that want to use pop&#45;up tooltips should implement this interface.">
<polygon fill="white" stroke="#666666" points="178.88,-188 108.88,-188 108.88,-168 178.88,-168 178.88,-188"/>
<text xml:space="preserve" text-anchor="middle" x="143.88" y="-174.5" font-family="Helvetica,sans-Serif" font-size="10.00">TooltipClient</text>
</a>
</g>
</g>
<!-- Node5&#45;&gt;Node4 -->
<g id="edge4_Node000004_Node000005" class="edge">
<title>Node5&#45;&gt;Node4</title>
<g id="a_edge4_Node000004_Node000005"><a xlink:title=" ">
<path fill="none" stroke="#63b8ff" d="M143.88,-156.13C143.88,-147.9 143.88,-138.85 143.88,-132.3"/>
<polygon fill="#63b8ff" stroke="#63b8ff" points="140.38,-156.08 143.88,-166.08 147.38,-156.08 140.38,-156.08"/>
</a>
</g>
</g>
<!-- Node6 -->
<g id="Node000006" class="node">
<title>Node6</title>
<g id="a_Node000006"><a xlink:href="classFileDragAndDropTarget.html" target="_top" xlink:title="Components derived from this class can have files dropped onto them by an external application.">
<polygon fill="white" stroke="#666666" points="332.88,-132 214.88,-132 214.88,-112 332.88,-112 332.88,-132"/>
<text xml:space="preserve" text-anchor="middle" x="273.88" y="-118.5" font-family="Helvetica,sans-Serif" font-size="10.00">FileDragAndDropTarget</text>
</a>
</g>
</g>
<!-- Node6&#45;&gt;Node1 -->
<g id="edge5_Node000001_Node000006" class="edge">
<title>Node6&#45;&gt;Node1</title>
<g id="a_edge5_Node000001_Node000006"><a xlink:title=" ">
<path fill="none" stroke="#63b8ff" d="M253.9,-104.4C242.78,-95.17 229.35,-84.01 220.07,-76.3"/>
<polygon fill="#63b8ff" stroke="#63b8ff" points="251.46,-106.93 261.39,-110.63 255.93,-101.54 251.46,-106.93"/>
</a>
</g>
</g>
<!-- Node7 -->
<g id="Node000007" class="node">
<title>Node7</title>
<g id="a_Node000007"><a xlink:href="classDragAndDropTarget.html" target="_top" xlink:title="Components derived from this class can have things dropped onto them by a DragAndDropContainer.">
<polygon fill="white" stroke="#666666" points="453,-132 350.75,-132 350.75,-112 453,-112 453,-132"/>
<text xml:space="preserve" text-anchor="middle" x="401.88" y="-118.5" font-family="Helvetica,sans-Serif" font-size="10.00">DragAndDropTarget</text>
</a>
</g>
</g>
<!-- Node7&#45;&gt;Node1 -->
<g id="edge6_Node000001_Node000007" class="edge">
<title>Node7&#45;&gt;Node1</title>
<g id="a_edge6_Node000001_Node000007"><a xlink:title=" ">
<path fill="none" stroke="#63b8ff" d="M357.33,-108.54C320.52,-98.24 269.34,-83.92 237.7,-75.07"/>
<polygon fill="#63b8ff" stroke="#63b8ff" points="356.23,-111.86 366.8,-111.19 358.11,-105.12 356.23,-111.86"/>
</a>
</g>
</g>
</g>
</svg>
