<?xml version="1.0" encoding="UTF-8" standalone="no"?>
<!DOCTYPE svg PUBLIC "-//W3C//DTD SVG 1.1//EN"
 "http://www.w3.org/Graphics/SVG/1.1/DTD/svg11.dtd">
<!-- Generated by graphviz version 13.1.0 (20250701.0955)
 -->
<!-- Title: MessageListener Pages: 1 -->
<svg width="385pt" height="180pt"
 viewBox="0.00 0.00 385.00 180.00" xmlns="http://www.w3.org/2000/svg" xmlns:xlink="http://www.w3.org/1999/xlink">
<g id="graph0" class="graph" transform="scale(1 1) rotate(0) translate(4 176)">
<title>MessageListener</title>
<!-- Node1 -->
<g id="Node000001" class="node">
<title>Node1</title>
<g id="a_Node000001"><a xlink:title="MessageListener subclasses can post and receive Message objects.">
<polygon fill="#999999" stroke="#666666" points="90.25,-96 0,-96 0,-76 90.25,-76 90.25,-96"/>
<text xml:space="preserve" text-anchor="middle" x="45.12" y="-82.5" font-family="Helvetica,sans-Serif" font-size="10.00">MessageListener</text>
</a>
</g>
</g>
<!-- Node2 -->
<g id="Node000002" class="node">
<title>Node2</title>
<g id="a_Node000002"><a xlink:href="classAudioPluginFormat.html" target="_top" xlink:title="The base class for a type of plugin format, such as VST, AudioUnit, LADSPA, etc.">
<polygon fill="white" stroke="#666666" points="224.75,-96 126.25,-96 126.25,-76 224.75,-76 224.75,-96"/>
<text xml:space="preserve" text-anchor="middle" x="175.5" y="-82.5" font-family="Helvetica,sans-Serif" font-size="10.00">AudioPluginFormat</text>
</a>
</g>
</g>
<!-- Node1&#45;&gt;Node2 -->
<g id="edge1_Node000001_Node000002" class="edge">
<title>Node1&#45;&gt;Node2</title>
<g id="a_edge1_Node000001_Node000002"><a xlink:title=" ">
<path fill="none" stroke="#8b1a1a" d="M102.17,-86C110.14,-86 118.29,-86 126.1,-86"/>
<polygon fill="#8b1a1a" stroke="#8b1a1a" points="102.18,-82.5 92.18,-86 102.18,-89.5 102.18,-82.5"/>
</a>
</g>
</g>
<!-- Node3 -->
<g id="Node000003" class="node">
<title>Node3</title>
<g id="a_Node000003"><a xlink:href="classAudioUnitPluginFormat.html" target="_top" xlink:title="Implements a plugin format manager for AudioUnits.">
<polygon fill="white" stroke="#666666" points="377.25,-172 260.75,-172 260.75,-152 377.25,-152 377.25,-172"/>
<text xml:space="preserve" text-anchor="middle" x="319" y="-158.5" font-family="Helvetica,sans-Serif" font-size="10.00">AudioUnitPluginFormat</text>
</a>
</g>
</g>
<!-- Node2&#45;&gt;Node3 -->
<g id="edge2_Node000002_Node000003" class="edge">
<title>Node2&#45;&gt;Node3</title>
<g id="a_edge2_Node000002_Node000003"><a xlink:title=" ">
<path fill="none" stroke="#63b8ff" d="M198.32,-103.22C214.76,-115.57 238.24,-131.91 260.75,-143 267.23,-146.19 274.38,-149.04 281.36,-151.51"/>
<polygon fill="#63b8ff" stroke="#63b8ff" points="200.79,-100.7 190.72,-97.41 196.53,-106.26 200.79,-100.7"/>
</a>
</g>
</g>
<!-- Node4 -->
<g id="Node000004" class="node">
<title>Node4</title>
<g id="a_Node000004"><a xlink:href="classLADSPAPluginFormat.html" target="_top" xlink:title="Implements a plugin format manager for LADSPA plugins.">
<polygon fill="white" stroke="#666666" points="375.38,-134 262.62,-134 262.62,-114 375.38,-114 375.38,-134"/>
<text xml:space="preserve" text-anchor="middle" x="319" y="-120.5" font-family="Helvetica,sans-Serif" font-size="10.00">LADSPAPluginFormat</text>
</a>
</g>
</g>
<!-- Node2&#45;&gt;Node4 -->
<g id="edge3_Node000002_Node000004" class="edge">
<title>Node2&#45;&gt;Node4</title>
<g id="a_edge3_Node000002_Node000004"><a xlink:title=" ">
<path fill="none" stroke="#63b8ff" d="M226.57,-99.45C243.82,-104.08 262.86,-109.19 279.09,-113.55"/>
<polygon fill="#63b8ff" stroke="#63b8ff" points="227.57,-96.09 217,-96.88 225.75,-102.85 227.57,-96.09"/>
</a>
</g>
</g>
<!-- Node5 -->
<g id="Node000005" class="node">
<title>Node5</title>
<g id="a_Node000005"><a xlink:href="classLV2PluginFormat.html" target="_top" xlink:title="Implements a plugin format for LV2 plugins.">
<polygon fill="white" stroke="#666666" points="364.12,-96 273.88,-96 273.88,-76 364.12,-76 364.12,-96"/>
<text xml:space="preserve" text-anchor="middle" x="319" y="-82.5" font-family="Helvetica,sans-Serif" font-size="10.00">LV2PluginFormat</text>
</a>
</g>
</g>
<!-- Node2&#45;&gt;Node5 -->
<g id="edge4_Node000002_Node000005" class="edge">
<title>Node2&#45;&gt;Node5</title>
<g id="a_edge4_Node000002_Node000005"><a xlink:title=" ">
<path fill="none" stroke="#63b8ff" d="M236.43,-86C248.86,-86 261.74,-86 273.49,-86"/>
<polygon fill="#63b8ff" stroke="#63b8ff" points="236.71,-82.5 226.71,-86 236.71,-89.5 236.71,-82.5"/>
</a>
</g>
</g>
<!-- Node6 -->
<g id="Node000006" class="node">
<title>Node6</title>
<g id="a_Node000006"><a xlink:href="classVST3PluginFormat.html" target="_top" xlink:title="Implements a plugin format for VST3s.">
<polygon fill="white" stroke="#666666" points="368.25,-58 269.75,-58 269.75,-38 368.25,-38 368.25,-58"/>
<text xml:space="preserve" text-anchor="middle" x="319" y="-44.5" font-family="Helvetica,sans-Serif" font-size="10.00">VST3PluginFormat</text>
</a>
</g>
</g>
<!-- Node2&#45;&gt;Node6 -->
<g id="edge5_Node000002_Node000006" class="edge">
<title>Node2&#45;&gt;Node6</title>
<g id="a_edge5_Node000002_Node000006"><a xlink:title=" ">
<path fill="none" stroke="#63b8ff" d="M226.57,-72.55C243.82,-67.92 262.86,-62.81 279.09,-58.45"/>
<polygon fill="#63b8ff" stroke="#63b8ff" points="225.75,-69.15 217,-75.12 227.57,-75.91 225.75,-69.15"/>
</a>
</g>
</g>
<!-- Node7 -->
<g id="Node000007" class="node">
<title>Node7</title>
<g id="a_Node000007"><a xlink:href="classVSTPluginFormat.html" target="_top" xlink:title="Implements a plugin format manager for VSTs.">
<polygon fill="white" stroke="#666666" points="365.62,-20 272.38,-20 272.38,0 365.62,0 365.62,-20"/>
<text xml:space="preserve" text-anchor="middle" x="319" y="-6.5" font-family="Helvetica,sans-Serif" font-size="10.00">VSTPluginFormat</text>
</a>
</g>
</g>
<!-- Node2&#45;&gt;Node7 -->
<g id="edge6_Node000002_Node000007" class="edge">
<title>Node2&#45;&gt;Node7</title>
<g id="a_edge6_Node000002_Node000007"><a xlink:title=" ">
<path fill="none" stroke="#63b8ff" d="M198.32,-68.78C214.76,-56.43 238.24,-40.09 260.75,-29 267.23,-25.81 274.38,-22.96 281.36,-20.49"/>
<polygon fill="#63b8ff" stroke="#63b8ff" points="196.53,-65.74 190.72,-74.59 200.79,-71.3 196.53,-65.74"/>
</a>
</g>
</g>
</g>
</svg>
