<?xml version="1.0" encoding="UTF-8" standalone="no"?>
<!DOCTYPE svg PUBLIC "-//W3C//DTD SVG 1.1//EN"
 "http://www.w3.org/Graphics/SVG/1.1/DTD/svg11.dtd">
<!-- Generated by graphviz version 13.1.0 (20250701.0955)
 -->
<!-- Title: FileFilter Pages: 1 -->
<svg width="236pt" height="84pt"
 viewBox="0.00 0.00 236.00 84.00" xmlns="http://www.w3.org/2000/svg" xmlns:xlink="http://www.w3.org/1999/xlink">
<g id="graph0" class="graph" transform="scale(1 1) rotate(0) translate(4 80)">
<title>FileFilter</title>
<!-- Node1 -->
<g id="Node000001" class="node">
<title>Node1</title>
<g id="a_Node000001"><a xlink:title="Interface for deciding which files are suitable for something.">
<polygon fill="#999999" stroke="#666666" points="146.75,-76 93.25,-76 93.25,-56 146.75,-56 146.75,-76"/>
<text xml:space="preserve" text-anchor="middle" x="120" y="-62.5" font-family="Helvetica,sans-Serif" font-size="10.00">FileFilter</text>
</a>
</g>
</g>
<!-- Node2 -->
<g id="Node000002" class="node">
<title>Node2</title>
<g id="a_Node000002"><a xlink:href="classFileBrowserComponent.html" target="_top" xlink:title="A component for browsing and selecting a file or directory to open or save.">
<polygon fill="white" stroke="#666666" points="118,-20 0,-20 0,0 118,0 118,-20"/>
<text xml:space="preserve" text-anchor="middle" x="59" y="-6.5" font-family="Helvetica,sans-Serif" font-size="10.00">FileBrowserComponent</text>
</a>
</g>
</g>
<!-- Node1&#45;&gt;Node2 -->
<g id="edge1_Node000001_Node000002" class="edge">
<title>Node1&#45;&gt;Node2</title>
<g id="a_edge1_Node000001_Node000002"><a xlink:title=" ">
<path fill="none" stroke="#8b1a1a" d="M100.94,-48.13C90.56,-38.94 78.13,-27.93 69.5,-20.3"/>
<polygon fill="#8b1a1a" stroke="#8b1a1a" points="98.43,-50.58 108.24,-54.59 103.07,-45.34 98.43,-50.58"/>
</a>
</g>
</g>
<!-- Node3 -->
<g id="Node000003" class="node">
<title>Node3</title>
<g id="a_Node000003"><a xlink:href="classWildcardFileFilter.html" target="_top" xlink:title="A type of FileFilter that works by wildcard pattern matching.">
<polygon fill="white" stroke="#666666" points="227.88,-20 136.12,-20 136.12,0 227.88,0 227.88,-20"/>
<text xml:space="preserve" text-anchor="middle" x="182" y="-6.5" font-family="Helvetica,sans-Serif" font-size="10.00">WildcardFileFilter</text>
</a>
</g>
</g>
<!-- Node1&#45;&gt;Node3 -->
<g id="edge2_Node000001_Node000003" class="edge">
<title>Node1&#45;&gt;Node3</title>
<g id="a_edge2_Node000001_Node000003"><a xlink:title=" ">
<path fill="none" stroke="#63b8ff" d="M139.37,-48.13C149.92,-38.94 162.56,-27.93 171.32,-20.3"/>
<polygon fill="#63b8ff" stroke="#63b8ff" points="137.18,-45.39 131.94,-54.6 141.78,-50.67 137.18,-45.39"/>
</a>
</g>
</g>
</g>
</svg>
