<?xml version="1.0" encoding="UTF-8" standalone="no"?>
<!DOCTYPE svg PUBLIC "-//W3C//DTD SVG 1.1//EN"
 "http://www.w3.org/Graphics/SVG/1.1/DTD/svg11.dtd">
<!-- Generated by graphviz version 13.1.0 (20250701.0955)
 -->
<!-- Title: RelativeCoordinatePositionerBase Pages: 1 -->
<svg width="363pt" height="84pt"
 viewBox="0.00 0.00 363.00 84.00" xmlns="http://www.w3.org/2000/svg" xmlns:xlink="http://www.w3.org/1999/xlink">
<g id="graph0" class="graph" transform="scale(1 1) rotate(0) translate(4 80)">
<title>RelativeCoordinatePositionerBase</title>
<!-- Node1 -->
<g id="Node000001" class="node">
<title>Node1</title>
<g id="a_Node000001"><a xlink:title="Base class for Component::Positioners that are based upon relative coordinates.">
<polygon fill="#999999" stroke="#666666" points="266.5,-20 101.25,-20 101.25,0 266.5,0 266.5,-20"/>
<text xml:space="preserve" text-anchor="middle" x="183.88" y="-6.5" font-family="Helvetica,sans-Serif" font-size="10.00">RelativeCoordinatePositionerBase</text>
</a>
</g>
</g>
<!-- Node2 -->
<g id="Node000002" class="node">
<title>Node2</title>
<g id="a_Node000002"><a xlink:href="classComponent_1_1Positioner.html" target="_top" xlink:title="Base class for objects that can be used to automatically position a component according to some kind ...">
<polygon fill="white" stroke="#666666" points="115.75,-76 0,-76 0,-56 115.75,-56 115.75,-76"/>
<text xml:space="preserve" text-anchor="middle" x="57.88" y="-62.5" font-family="Helvetica,sans-Serif" font-size="10.00">Component::Positioner</text>
</a>
</g>
</g>
<!-- Node2&#45;&gt;Node1 -->
<g id="edge1_Node000001_Node000002" class="edge">
<title>Node2&#45;&gt;Node1</title>
<g id="a_edge1_Node000001_Node000002"><a xlink:title=" ">
<path fill="none" stroke="#63b8ff" d="M90.21,-51.14C112.65,-41.52 141.95,-28.97 161.76,-20.48"/>
<polygon fill="#63b8ff" stroke="#63b8ff" points="89.03,-47.84 81.21,-55 91.78,-54.28 89.03,-47.84"/>
</a>
</g>
</g>
<!-- Node3 -->
<g id="Node000003" class="node">
<title>Node3</title>
<g id="a_Node000003"><a xlink:href="classComponentListener.html" target="_top" xlink:title="Gets informed about changes to a component&#39;s hierarchy or position.">
<polygon fill="white" stroke="#666666" points="234.25,-76 133.5,-76 133.5,-56 234.25,-56 234.25,-76"/>
<text xml:space="preserve" text-anchor="middle" x="183.88" y="-62.5" font-family="Helvetica,sans-Serif" font-size="10.00">ComponentListener</text>
</a>
</g>
</g>
<!-- Node3&#45;&gt;Node1 -->
<g id="edge2_Node000001_Node000003" class="edge">
<title>Node3&#45;&gt;Node1</title>
<g id="a_edge2_Node000001_Node000003"><a xlink:title=" ">
<path fill="none" stroke="#63b8ff" d="M183.88,-44.13C183.88,-35.9 183.88,-26.85 183.88,-20.3"/>
<polygon fill="#63b8ff" stroke="#63b8ff" points="180.38,-44.08 183.88,-54.08 187.38,-44.08 180.38,-44.08"/>
</a>
</g>
</g>
<!-- Node4 -->
<g id="Node000004" class="node">
<title>Node4</title>
<g id="a_Node000004"><a xlink:href="classMarkerList_1_1Listener.html" target="_top" xlink:title="A class for receiving events when changes are made to a MarkerList.">
<polygon fill="white" stroke="#666666" points="355,-76 252.75,-76 252.75,-56 355,-56 355,-76"/>
<text xml:space="preserve" text-anchor="middle" x="303.88" y="-62.5" font-family="Helvetica,sans-Serif" font-size="10.00">MarkerList::Listener</text>
</a>
</g>
</g>
<!-- Node4&#45;&gt;Node1 -->
<g id="edge3_Node000001_Node000004" class="edge">
<title>Node4&#45;&gt;Node1</title>
<g id="a_edge3_Node000001_Node000004"><a xlink:title=" ">
<path fill="none" stroke="#63b8ff" d="M272.49,-50.88C251.2,-41.3 223.63,-28.89 204.94,-20.48"/>
<polygon fill="#63b8ff" stroke="#63b8ff" points="271.04,-54.06 281.59,-54.97 273.91,-47.68 271.04,-54.06"/>
</a>
</g>
</g>
</g>
</svg>
