<?xml version="1.0" encoding="UTF-8" standalone="no"?>
<!DOCTYPE svg PUBLIC "-//W3C//DTD SVG 1.1//EN"
 "http://www.w3.org/Graphics/SVG/1.1/DTD/svg11.dtd">
<!-- Generated by graphviz version 13.1.0 (20250701.0955)
 -->
<!-- Title: DrawableRectangle Pages: 1 -->
<svg width="110pt" height="252pt"
 viewBox="0.00 0.00 110.00 252.00" xmlns="http://www.w3.org/2000/svg" xmlns:xlink="http://www.w3.org/1999/xlink">
<g id="graph0" class="graph" transform="scale(1 1) rotate(0) translate(4 248)">
<title>DrawableRectangle</title>
<!-- Node1 -->
<g id="Node000001" class="node">
<title>Node1</title>
<g id="a_Node000001"><a xlink:title="A Drawable object which draws a rectangle.">
<polygon fill="#999999" stroke="#666666" points="101.5,-20 0,-20 0,0 101.5,0 101.5,-20"/>
<text xml:space="preserve" text-anchor="middle" x="50.75" y="-6.5" font-family="Helvetica,sans-Serif" font-size="10.00">DrawableRectangle</text>
</a>
</g>
</g>
<!-- Node2 -->
<g id="Node000002" class="node">
<title>Node2</title>
<g id="a_Node000002"><a xlink:href="classDrawableShape.html" target="_top" xlink:title="A base class implementing common functionality for Drawable classes which consist of some kind of fil...">
<polygon fill="white" stroke="#666666" points="93.25,-76 8.25,-76 8.25,-56 93.25,-56 93.25,-76"/>
<text xml:space="preserve" text-anchor="middle" x="50.75" y="-62.5" font-family="Helvetica,sans-Serif" font-size="10.00">DrawableShape</text>
</a>
</g>
</g>
<!-- Node2&#45;&gt;Node1 -->
<g id="edge1_Node000001_Node000002" class="edge">
<title>Node2&#45;&gt;Node1</title>
<g id="a_edge1_Node000001_Node000002"><a xlink:title=" ">
<path fill="none" stroke="#63b8ff" d="M50.75,-44.13C50.75,-35.9 50.75,-26.85 50.75,-20.3"/>
<polygon fill="#63b8ff" stroke="#63b8ff" points="47.25,-44.08 50.75,-54.08 54.25,-44.08 47.25,-44.08"/>
</a>
</g>
</g>
<!-- Node3 -->
<g id="Node000003" class="node">
<title>Node3</title>
<g id="a_Node000003"><a xlink:href="classDrawable.html" target="_top" xlink:title="The base class for objects which can draw themselves, e.g.">
<polygon fill="white" stroke="#666666" points="79.38,-132 22.13,-132 22.13,-112 79.38,-112 79.38,-132"/>
<text xml:space="preserve" text-anchor="middle" x="50.75" y="-118.5" font-family="Helvetica,sans-Serif" font-size="10.00">Drawable</text>
</a>
</g>
</g>
<!-- Node3&#45;&gt;Node2 -->
<g id="edge2_Node000002_Node000003" class="edge">
<title>Node3&#45;&gt;Node2</title>
<g id="a_edge2_Node000002_Node000003"><a xlink:title=" ">
<path fill="none" stroke="#63b8ff" d="M50.75,-100.13C50.75,-91.9 50.75,-82.85 50.75,-76.3"/>
<polygon fill="#63b8ff" stroke="#63b8ff" points="47.25,-100.08 50.75,-110.08 54.25,-100.08 47.25,-100.08"/>
</a>
</g>
</g>
<!-- Node4 -->
<g id="Node000004" class="node">
<title>Node4</title>
<g id="a_Node000004"><a xlink:href="classComponent.html" target="_top" xlink:title="The base class for all JUCE user&#45;interface objects.">
<polygon fill="white" stroke="#666666" points="83.88,-188 17.62,-188 17.62,-168 83.88,-168 83.88,-188"/>
<text xml:space="preserve" text-anchor="middle" x="50.75" y="-174.5" font-family="Helvetica,sans-Serif" font-size="10.00">Component</text>
</a>
</g>
</g>
<!-- Node4&#45;&gt;Node3 -->
<g id="edge3_Node000003_Node000004" class="edge">
<title>Node4&#45;&gt;Node3</title>
<g id="a_edge3_Node000003_Node000004"><a xlink:title=" ">
<path fill="none" stroke="#63b8ff" d="M50.75,-156.13C50.75,-147.9 50.75,-138.85 50.75,-132.3"/>
<polygon fill="#63b8ff" stroke="#63b8ff" points="47.25,-156.08 50.75,-166.08 54.25,-156.08 47.25,-156.08"/>
</a>
</g>
</g>
<!-- Node5 -->
<g id="Node000005" class="node">
<title>Node5</title>
<g id="a_Node000005"><a xlink:href="classMouseListener.html" target="_top" xlink:title="A MouseListener can be registered with a component to receive callbacks about mouse events that happe...">
<polygon fill="white" stroke="#666666" points="90.62,-244 10.88,-244 10.88,-224 90.62,-224 90.62,-244"/>
<text xml:space="preserve" text-anchor="middle" x="50.75" y="-230.5" font-family="Helvetica,sans-Serif" font-size="10.00">MouseListener</text>
</a>
</g>
</g>
<!-- Node5&#45;&gt;Node4 -->
<g id="edge4_Node000004_Node000005" class="edge">
<title>Node5&#45;&gt;Node4</title>
<g id="a_edge4_Node000004_Node000005"><a xlink:title=" ">
<path fill="none" stroke="#63b8ff" d="M50.75,-212.13C50.75,-203.9 50.75,-194.85 50.75,-188.3"/>
<polygon fill="#63b8ff" stroke="#63b8ff" points="47.25,-212.08 50.75,-222.08 54.25,-212.08 47.25,-212.08"/>
</a>
</g>
</g>
</g>
</svg>
