<?xml version="1.0" encoding="UTF-8" standalone="no"?>
<!DOCTYPE svg PUBLIC "-//W3C//DTD SVG 1.1//EN"
 "http://www.w3.org/Graphics/SVG/1.1/DTD/svg11.dtd">
<!-- Generated by graphviz version 13.1.0 (20250701.0955)
 -->
<!-- Title: AudioProcessorValueTreeState Pages: 1 -->
<svg width="178pt" height="84pt"
 viewBox="0.00 0.00 178.00 84.00" xmlns="http://www.w3.org/2000/svg" xmlns:xlink="http://www.w3.org/1999/xlink">
<g id="graph0" class="graph" transform="scale(1 1) rotate(0) translate(4 80)">
<title>AudioProcessorValueTreeState</title>
<!-- Node1 -->
<g id="Node000001" class="node">
<title>Node1</title>
<g id="a_Node000001"><a xlink:title="This class contains a ValueTree that is used to manage an AudioProcessor&#39;s entire state.">
<polygon fill="#999999" stroke="#666666" points="151.75,-20 0,-20 0,0 151.75,0 151.75,-20"/>
<text xml:space="preserve" text-anchor="middle" x="75.88" y="-6.5" font-family="Helvetica,sans-Serif" font-size="10.00">AudioProcessorValueTreeState</text>
</a>
</g>
</g>
<!-- Node2 -->
<g id="Node000002" class="node">
<title>Node2</title>
<g id="a_Node000002"><a xlink:href="classTimer.html" target="_top" xlink:title="Makes repeated callbacks to a virtual method at a specified time interval.">
<polygon fill="white" stroke="#666666" points="52.25,-76 11.5,-76 11.5,-56 52.25,-56 52.25,-76"/>
<text xml:space="preserve" text-anchor="middle" x="31.88" y="-62.5" font-family="Helvetica,sans-Serif" font-size="10.00">Timer</text>
</a>
</g>
</g>
<!-- Node2&#45;&gt;Node1 -->
<g id="edge1_Node000001_Node000002" class="edge">
<title>Node2&#45;&gt;Node1</title>
<g id="a_edge1_Node000001_Node000002"><a xlink:title=" ">
<path fill="none" stroke="#8b1a1a" d="M46.77,-46.72C54.01,-37.84 62.39,-27.55 68.3,-20.3"/>
<polygon fill="#8b1a1a" stroke="#8b1a1a" points="44.1,-44.46 40.5,-54.42 49.53,-48.88 44.1,-44.46"/>
</a>
</g>
</g>
<!-- Node3 -->
<g id="Node000003" class="node">
<title>Node3</title>
<g id="a_Node000003"><a xlink:href="classValueTree_1_1Listener.html" target="_top" xlink:title="Listener class for events that happen to a ValueTree.">
<polygon fill="white" stroke="#666666" points="169.88,-76 69.88,-76 69.88,-56 169.88,-56 169.88,-76"/>
<text xml:space="preserve" text-anchor="middle" x="119.88" y="-62.5" font-family="Helvetica,sans-Serif" font-size="10.00">ValueTree::Listener</text>
</a>
</g>
</g>
<!-- Node3&#45;&gt;Node1 -->
<g id="edge2_Node000001_Node000003" class="edge">
<title>Node3&#45;&gt;Node1</title>
<g id="a_edge2_Node000001_Node000003"><a xlink:title=" ">
<path fill="none" stroke="#8b1a1a" d="M104.98,-46.72C97.74,-37.84 89.36,-27.55 83.45,-20.3"/>
<polygon fill="#8b1a1a" stroke="#8b1a1a" points="102.22,-48.88 111.25,-54.42 107.65,-44.46 102.22,-48.88"/>
</a>
</g>
</g>
</g>
</svg>
