<?xml version="1.0" encoding="UTF-8" standalone="no"?>
<!DOCTYPE svg PUBLIC "-//W3C//DTD SVG 1.1//EN"
 "http://www.w3.org/Graphics/SVG/1.1/DTD/svg11.dtd">
<!-- Generated by graphviz version 13.1.0 (20250701.0955)
 -->
<!-- Title: DirectoryContentsDisplayComponent Pages: 1 -->
<svg width="226pt" height="96pt"
 viewBox="0.00 0.00 226.00 96.00" xmlns="http://www.w3.org/2000/svg" xmlns:xlink="http://www.w3.org/1999/xlink">
<g id="graph0" class="graph" transform="scale(1 1) rotate(0) translate(4 92)">
<title>DirectoryContentsDisplayComponent</title>
<!-- Node1 -->
<g id="Node000001" class="node">
<title>Node1</title>
<g id="a_Node000001"><a xlink:title="A base class for components that display a list of the files in a directory.">
<polygon fill="#999999" stroke="#666666" points="172.12,-88 43.62,-88 43.62,-56 172.12,-56 172.12,-88"/>
<text xml:space="preserve" text-anchor="start" x="51.62" y="-74.5" font-family="Helvetica,sans-Serif" font-size="10.00">DirectoryContentsDisplay</text>
<text xml:space="preserve" text-anchor="middle" x="107.88" y="-62.5" font-family="Helvetica,sans-Serif" font-size="10.00">Component</text>
</a>
</g>
</g>
<!-- Node2 -->
<g id="Node000002" class="node">
<title>Node2</title>
<g id="a_Node000002"><a xlink:href="classFileListComponent.html" target="_top" xlink:title="A component that displays the files in a directory as a listbox.">
<polygon fill="white" stroke="#666666" points="97.75,-20 0,-20 0,0 97.75,0 97.75,-20"/>
<text xml:space="preserve" text-anchor="middle" x="48.88" y="-6.5" font-family="Helvetica,sans-Serif" font-size="10.00">FileListComponent</text>
</a>
</g>
</g>
<!-- Node1&#45;&gt;Node2 -->
<g id="edge1_Node000001_Node000002" class="edge">
<title>Node1&#45;&gt;Node2</title>
<g id="a_edge1_Node000001_Node000002"><a xlink:title=" ">
<path fill="none" stroke="#63b8ff" d="M84.82,-47.56C75.5,-38.08 65.28,-27.68 58.13,-20.41"/>
<polygon fill="#63b8ff" stroke="#63b8ff" points="82.11,-49.79 91.62,-54.47 87.1,-44.89 82.11,-49.79"/>
</a>
</g>
</g>
<!-- Node3 -->
<g id="Node000003" class="node">
<title>Node3</title>
<g id="a_Node000003"><a xlink:href="classFileTreeComponent.html" target="_top" xlink:title="A component that displays the files in a directory as a treeview.">
<polygon fill="white" stroke="#666666" points="217.62,-20 116.12,-20 116.12,0 217.62,0 217.62,-20"/>
<text xml:space="preserve" text-anchor="middle" x="166.88" y="-6.5" font-family="Helvetica,sans-Serif" font-size="10.00">FileTreeComponent</text>
</a>
</g>
</g>
<!-- Node1&#45;&gt;Node3 -->
<g id="edge2_Node000001_Node000003" class="edge">
<title>Node1&#45;&gt;Node3</title>
<g id="a_edge2_Node000001_Node000003"><a xlink:title=" ">
<path fill="none" stroke="#63b8ff" d="M130.93,-47.56C140.25,-38.08 150.47,-27.68 157.62,-20.41"/>
<polygon fill="#63b8ff" stroke="#63b8ff" points="128.65,-44.89 124.13,-54.47 133.64,-49.79 128.65,-44.89"/>
</a>
</g>
</g>
</g>
</svg>
