<?xml version="1.0" encoding="UTF-8" standalone="no"?>
<!DOCTYPE svg PUBLIC "-//W3C//DTD SVG 1.1//EN"
 "http://www.w3.org/Graphics/SVG/1.1/DTD/svg11.dtd">
<!-- Generated by graphviz version 13.1.0 (20250701.0955)
 -->
<!-- Title: DirectoryContentsList Pages: 1 -->
<svg width="214pt" height="84pt"
 viewBox="0.00 0.00 214.00 84.00" xmlns="http://www.w3.org/2000/svg" xmlns:xlink="http://www.w3.org/1999/xlink">
<g id="graph0" class="graph" transform="scale(1 1) rotate(0) translate(4 80)">
<title>DirectoryContentsList</title>
<!-- Node1 -->
<g id="Node000001" class="node">
<title>Node1</title>
<g id="a_Node000001"><a xlink:title="A class to asynchronously scan for details about the files in a directory.">
<polygon fill="#999999" stroke="#666666" points="162.75,-20 51.5,-20 51.5,0 162.75,0 162.75,-20"/>
<text xml:space="preserve" text-anchor="middle" x="107.12" y="-6.5" font-family="Helvetica,sans-Serif" font-size="10.00">DirectoryContentsList</text>
</a>
</g>
</g>
<!-- Node2 -->
<g id="Node000002" class="node">
<title>Node2</title>
<g id="a_Node000002"><a xlink:href="classChangeBroadcaster.html" target="_top" xlink:title="Holds a list of ChangeListeners, and sends messages to them when instructed.">
<polygon fill="white" stroke="#666666" points="102.25,-76 0,-76 0,-56 102.25,-56 102.25,-76"/>
<text xml:space="preserve" text-anchor="middle" x="51.12" y="-62.5" font-family="Helvetica,sans-Serif" font-size="10.00">ChangeBroadcaster</text>
</a>
</g>
</g>
<!-- Node2&#45;&gt;Node1 -->
<g id="edge1_Node000001_Node000002" class="edge">
<title>Node2&#45;&gt;Node1</title>
<g id="a_edge1_Node000001_Node000002"><a xlink:title=" ">
<path fill="none" stroke="#63b8ff" d="M68.91,-47.85C78.38,-38.72 89.65,-27.86 97.48,-20.3"/>
<polygon fill="#63b8ff" stroke="#63b8ff" points="66.74,-45.08 61.97,-54.54 71.6,-50.12 66.74,-45.08"/>
</a>
</g>
</g>
<!-- Node3 -->
<g id="Node000003" class="node">
<title>Node3</title>
<g id="a_Node000003"><a xlink:href="classTimeSliceClient.html" target="_top" xlink:title="Used by the TimeSliceThread class.">
<polygon fill="white" stroke="#666666" points="205.62,-76 120.62,-76 120.62,-56 205.62,-56 205.62,-76"/>
<text xml:space="preserve" text-anchor="middle" x="163.12" y="-62.5" font-family="Helvetica,sans-Serif" font-size="10.00">TimeSliceClient</text>
</a>
</g>
</g>
<!-- Node3&#45;&gt;Node1 -->
<g id="edge2_Node000001_Node000003" class="edge">
<title>Node3&#45;&gt;Node1</title>
<g id="a_edge2_Node000001_Node000003"><a xlink:title=" ">
<path fill="none" stroke="#8b1a1a" d="M145.34,-47.85C135.87,-38.72 124.6,-27.86 116.77,-20.3"/>
<polygon fill="#8b1a1a" stroke="#8b1a1a" points="142.65,-50.12 152.28,-54.54 147.51,-45.08 142.65,-50.12"/>
</a>
</g>
</g>
</g>
</svg>
