<?xml version="1.0" encoding="UTF-8" standalone="no"?>
<!DOCTYPE svg PUBLIC "-//W3C//DTD SVG 1.1//EN"
 "http://www.w3.org/Graphics/SVG/1.1/DTD/svg11.dtd">
<!-- Generated by graphviz version 13.1.0 (20250701.0955)
 -->
<!-- Title: AudioSource Pages: 1 -->
<svg width="442pt" height="294pt"
 viewBox="0.00 0.00 442.00 294.00" xmlns="http://www.w3.org/2000/svg" xmlns:xlink="http://www.w3.org/1999/xlink">
<g id="graph0" class="graph" transform="scale(1 1) rotate(0) translate(4 290)">
<title>AudioSource</title>
<!-- Node1 -->
<g id="Node000001" class="node">
<title>Node1</title>
<g id="a_Node000001"><a xlink:title="Base class for objects that can produce a continuous stream of audio.">
<polygon fill="#999999" stroke="#666666" points="71.5,-153 0,-153 0,-133 71.5,-133 71.5,-153"/>
<text xml:space="preserve" text-anchor="middle" x="35.75" y="-139.5" font-family="Helvetica,sans-Serif" font-size="10.00">AudioSource</text>
</a>
</g>
</g>
<!-- Node2 -->
<g id="Node000002" class="node">
<title>Node2</title>
<g id="a_Node000002"><a xlink:href="classAudioAppComponent.html" target="_top" xlink:title="A base class for writing audio apps that stream from the audio i/o devices.">
<polygon fill="white" stroke="#666666" points="240.12,-286 131.88,-286 131.88,-266 240.12,-266 240.12,-286"/>
<text xml:space="preserve" text-anchor="middle" x="186" y="-272.5" font-family="Helvetica,sans-Serif" font-size="10.00">AudioAppComponent</text>
</a>
</g>
</g>
<!-- Node1&#45;&gt;Node2 -->
<g id="edge1_Node000001_Node000002" class="edge">
<title>Node1&#45;&gt;Node2</title>
<g id="a_edge1_Node000001_Node000002"><a xlink:title=" ">
<path fill="none" stroke="#63b8ff" d="M44.03,-163.91C54.15,-189.81 74.97,-233.39 107.5,-257 114.68,-262.21 123.11,-266 131.72,-268.76"/>
<polygon fill="#63b8ff" stroke="#63b8ff" points="47.41,-162.97 40.66,-154.81 40.85,-165.4 47.41,-162.97"/>
</a>
</g>
</g>
<!-- Node3 -->
<g id="Node000003" class="node">
<title>Node3</title>
<g id="a_Node000003"><a xlink:href="classChannelRemappingAudioSource.html" target="_top" xlink:title="An AudioSource that takes the audio from another source, and re&#45;maps its input and output channels to...">
<polygon fill="white" stroke="#666666" points="264.5,-248 107.5,-248 107.5,-228 264.5,-228 264.5,-248"/>
<text xml:space="preserve" text-anchor="middle" x="186" y="-234.5" font-family="Helvetica,sans-Serif" font-size="10.00">ChannelRemappingAudioSource</text>
</a>
</g>
</g>
<!-- Node1&#45;&gt;Node3 -->
<g id="edge2_Node000001_Node000003" class="edge">
<title>Node1&#45;&gt;Node3</title>
<g id="a_edge2_Node000001_Node000003"><a xlink:title=" ">
<path fill="none" stroke="#63b8ff" d="M49.93,-162.67C62.64,-180.09 83.46,-204.89 107.5,-219 113.35,-222.44 119.81,-225.25 126.41,-227.56"/>
<polygon fill="#63b8ff" stroke="#63b8ff" points="52.9,-160.81 44.29,-154.64 47.18,-164.83 52.9,-160.81"/>
</a>
</g>
</g>
<!-- Node4 -->
<g id="Node000004" class="node">
<title>Node4</title>
<g id="a_Node000004"><a xlink:href="classIIRFilterAudioSource.html" target="_top" xlink:title="An AudioSource that performs an IIR filter on another source.">
<polygon fill="white" stroke="#666666" points="239.38,-210 132.62,-210 132.62,-190 239.38,-190 239.38,-210"/>
<text xml:space="preserve" text-anchor="middle" x="186" y="-196.5" font-family="Helvetica,sans-Serif" font-size="10.00">IIRFilterAudioSource</text>
</a>
</g>
</g>
<!-- Node1&#45;&gt;Node4 -->
<g id="edge3_Node000001_Node000004" class="edge">
<title>Node1&#45;&gt;Node4</title>
<g id="a_edge3_Node000001_Node000004"><a xlink:title=" ">
<path fill="none" stroke="#63b8ff" d="M63.02,-159.16C76.03,-166.63 92.2,-175.12 107.5,-181 116.04,-184.28 125.32,-187.13 134.4,-189.55"/>
<polygon fill="#63b8ff" stroke="#63b8ff" points="65.03,-156.29 54.64,-154.23 61.48,-162.32 65.03,-156.29"/>
</a>
</g>
</g>
<!-- Node5 -->
<g id="Node000005" class="node">
<title>Node5</title>
<g id="a_Node000005"><a xlink:href="classMixerAudioSource.html" target="_top" xlink:title="An AudioSource that mixes together the output of a set of other AudioSources.">
<polygon fill="white" stroke="#666666" points="233.75,-172 138.25,-172 138.25,-152 233.75,-152 233.75,-172"/>
<text xml:space="preserve" text-anchor="middle" x="186" y="-158.5" font-family="Helvetica,sans-Serif" font-size="10.00">MixerAudioSource</text>
</a>
</g>
</g>
<!-- Node1&#45;&gt;Node5 -->
<g id="edge4_Node000001_Node000005" class="edge">
<title>Node1&#45;&gt;Node5</title>
<g id="a_edge4_Node000001_Node000005"><a xlink:title=" ">
<path fill="none" stroke="#63b8ff" d="M82.95,-148.92C100.39,-151.16 120.24,-153.7 137.78,-155.95"/>
<polygon fill="#63b8ff" stroke="#63b8ff" points="83.75,-145.49 73.38,-147.7 82.86,-152.44 83.75,-145.49"/>
</a>
</g>
</g>
<!-- Node6 -->
<g id="Node000006" class="node">
<title>Node6</title>
<g id="a_Node000006"><a xlink:href="classPositionableAudioSource.html" target="_top" xlink:title="A type of AudioSource which can be repositioned.">
<polygon fill="white" stroke="#666666" points="248.38,-134 123.62,-134 123.62,-114 248.38,-114 248.38,-134"/>
<text xml:space="preserve" text-anchor="middle" x="186" y="-120.5" font-family="Helvetica,sans-Serif" font-size="10.00">PositionableAudioSource</text>
</a>
</g>
</g>
<!-- Node1&#45;&gt;Node6 -->
<g id="edge5_Node000001_Node000006" class="edge">
<title>Node1&#45;&gt;Node6</title>
<g id="a_edge5_Node000001_Node000006"><a xlink:title=" ">
<path fill="none" stroke="#63b8ff" d="M83.12,-137.06C95.8,-135.43 109.75,-133.64 123.14,-131.93"/>
<polygon fill="#63b8ff" stroke="#63b8ff" points="82.86,-133.56 73.38,-138.3 83.75,-140.51 82.86,-133.56"/>
</a>
</g>
</g>
<!-- Node11 -->
<g id="Node000011" class="node">
<title>Node11</title>
<g id="a_Node000011"><a xlink:href="classResamplingAudioSource.html" target="_top" xlink:title="A type of AudioSource that takes an input source and changes its sample rate.">
<polygon fill="white" stroke="#666666" points="247.62,-96 124.38,-96 124.38,-76 247.62,-76 247.62,-96"/>
<text xml:space="preserve" text-anchor="middle" x="186" y="-82.5" font-family="Helvetica,sans-Serif" font-size="10.00">ResamplingAudioSource</text>
</a>
</g>
</g>
<!-- Node1&#45;&gt;Node11 -->
<g id="edge10_Node000001_Node000011" class="edge">
<title>Node1&#45;&gt;Node11</title>
<g id="a_edge10_Node000001_Node000011"><a xlink:title=" ">
<path fill="none" stroke="#63b8ff" d="M63.02,-126.84C76.03,-119.37 92.2,-110.88 107.5,-105 116.04,-101.72 125.32,-98.87 134.4,-96.45"/>
<polygon fill="#63b8ff" stroke="#63b8ff" points="61.48,-123.68 54.64,-131.77 65.03,-129.71 61.48,-123.68"/>
</a>
</g>
</g>
<!-- Node12 -->
<g id="Node000012" class="node">
<title>Node12</title>
<g id="a_Node000012"><a xlink:href="classReverbAudioSource.html" target="_top" xlink:title="An AudioSource that uses the Reverb class to apply a reverb to another AudioSource.">
<polygon fill="white" stroke="#666666" points="237.5,-58 134.5,-58 134.5,-38 237.5,-38 237.5,-58"/>
<text xml:space="preserve" text-anchor="middle" x="186" y="-44.5" font-family="Helvetica,sans-Serif" font-size="10.00">ReverbAudioSource</text>
</a>
</g>
</g>
<!-- Node1&#45;&gt;Node12 -->
<g id="edge11_Node000001_Node000012" class="edge">
<title>Node1&#45;&gt;Node12</title>
<g id="a_edge11_Node000001_Node000012"><a xlink:title=" ">
<path fill="none" stroke="#63b8ff" d="M49.93,-123.33C62.64,-105.91 83.46,-81.11 107.5,-67 115.62,-62.23 124.9,-58.66 134.14,-55.98"/>
<polygon fill="#63b8ff" stroke="#63b8ff" points="47.18,-121.17 44.29,-131.36 52.9,-125.19 47.18,-121.17"/>
</a>
</g>
</g>
<!-- Node13 -->
<g id="Node000013" class="node">
<title>Node13</title>
<g id="a_Node000013"><a xlink:href="classToneGeneratorAudioSource.html" target="_top" xlink:title="A simple AudioSource that generates a sine wave.">
<polygon fill="white" stroke="#666666" points="253.62,-20 118.38,-20 118.38,0 253.62,0 253.62,-20"/>
<text xml:space="preserve" text-anchor="middle" x="186" y="-6.5" font-family="Helvetica,sans-Serif" font-size="10.00">ToneGeneratorAudioSource</text>
</a>
</g>
</g>
<!-- Node1&#45;&gt;Node13 -->
<g id="edge12_Node000001_Node000013" class="edge">
<title>Node1&#45;&gt;Node13</title>
<g id="a_edge12_Node000001_Node000013"><a xlink:title=" ">
<path fill="none" stroke="#63b8ff" d="M44.03,-122.09C54.15,-96.19 74.97,-52.61 107.5,-29 112.21,-25.58 117.46,-22.77 122.94,-20.47"/>
<polygon fill="#63b8ff" stroke="#63b8ff" points="40.85,-120.6 40.66,-131.19 47.41,-123.03 40.85,-120.6"/>
</a>
</g>
</g>
<!-- Node7 -->
<g id="Node000007" class="node">
<title>Node7</title>
<g id="a_Node000007"><a xlink:href="classAudioFormatReaderSource.html" target="_top" xlink:title="A type of AudioSource that will read from an AudioFormatReader.">
<polygon fill="white" stroke="#666666" points="434.25,-191 300.5,-191 300.5,-171 434.25,-171 434.25,-191"/>
<text xml:space="preserve" text-anchor="middle" x="367.38" y="-177.5" font-family="Helvetica,sans-Serif" font-size="10.00">AudioFormatReaderSource</text>
</a>
</g>
</g>
<!-- Node6&#45;&gt;Node7 -->
<g id="edge6_Node000006_Node000007" class="edge">
<title>Node6&#45;&gt;Node7</title>
<g id="a_edge6_Node000006_Node000007"><a xlink:title=" ">
<path fill="none" stroke="#63b8ff" d="M248.26,-137.52C253.81,-139.2 259.29,-141.02 264.5,-143 281.41,-149.42 283.72,-155.24 300.5,-162 308.34,-165.16 316.9,-168.03 325.17,-170.52"/>
<polygon fill="#63b8ff" stroke="#63b8ff" points="249.61,-134.27 239.03,-134.91 247.7,-141 249.61,-134.27"/>
</a>
</g>
</g>
<!-- Node8 -->
<g id="Node000008" class="node">
<title>Node8</title>
<g id="a_Node000008"><a xlink:href="classAudioTransportSource.html" target="_top" xlink:title="An AudioSource that takes a PositionableAudioSource and allows it to be played, stopped,...">
<polygon fill="white" stroke="#666666" points="423.75,-153 311,-153 311,-133 423.75,-133 423.75,-153"/>
<text xml:space="preserve" text-anchor="middle" x="367.38" y="-139.5" font-family="Helvetica,sans-Serif" font-size="10.00">AudioTransportSource</text>
</a>
</g>
</g>
<!-- Node6&#45;&gt;Node8 -->
<g id="edge7_Node000006_Node000008" class="edge">
<title>Node6&#45;&gt;Node8</title>
<g id="a_edge7_Node000006_Node000008"><a xlink:title=" ">
<path fill="none" stroke="#63b8ff" d="M259.72,-131.7C276.67,-133.5 294.46,-135.38 310.55,-137.09"/>
<polygon fill="#63b8ff" stroke="#63b8ff" points="260.55,-128.27 250.24,-130.7 259.81,-135.23 260.55,-128.27"/>
</a>
</g>
</g>
<!-- Node9 -->
<g id="Node000009" class="node">
<title>Node9</title>
<g id="a_Node000009"><a xlink:href="classBufferingAudioSource.html" target="_top" xlink:title="An AudioSource which takes another source as input, and buffers it using a thread.">
<polygon fill="white" stroke="#666666" points="422.25,-115 312.5,-115 312.5,-95 422.25,-95 422.25,-115"/>
<text xml:space="preserve" text-anchor="middle" x="367.38" y="-101.5" font-family="Helvetica,sans-Serif" font-size="10.00">BufferingAudioSource</text>
</a>
</g>
</g>
<!-- Node6&#45;&gt;Node9 -->
<g id="edge8_Node000006_Node000009" class="edge">
<title>Node6&#45;&gt;Node9</title>
<g id="a_edge8_Node000006_Node000009"><a xlink:title=" ">
<path fill="none" stroke="#63b8ff" d="M260,-116.27C277.39,-114.43 295.64,-112.49 312.03,-110.76"/>
<polygon fill="#63b8ff" stroke="#63b8ff" points="259.81,-112.77 250.24,-117.3 260.55,-119.73 259.81,-112.77"/>
</a>
</g>
</g>
<!-- Node10 -->
<g id="Node000010" class="node">
<title>Node10</title>
<g id="a_Node000010"><a xlink:href="classMemoryAudioSource.html" target="_top" xlink:title="An AudioSource which takes some float audio data as an input.">
<polygon fill="white" stroke="#666666" points="420.75,-77 314,-77 314,-57 420.75,-57 420.75,-77"/>
<text xml:space="preserve" text-anchor="middle" x="367.38" y="-63.5" font-family="Helvetica,sans-Serif" font-size="10.00">MemoryAudioSource</text>
</a>
</g>
</g>
<!-- Node6&#45;&gt;Node10 -->
<g id="edge9_Node000006_Node000010" class="edge">
<title>Node6&#45;&gt;Node10</title>
<g id="a_edge9_Node000006_Node000010"><a xlink:title=" ">
<path fill="none" stroke="#63b8ff" d="M248.26,-110.48C253.81,-108.8 259.29,-106.98 264.5,-105 281.41,-98.58 283.72,-92.76 300.5,-86 308.34,-82.84 316.9,-79.97 325.17,-77.48"/>
<polygon fill="#63b8ff" stroke="#63b8ff" points="247.7,-107 239.03,-113.09 249.61,-113.73 247.7,-107"/>
</a>
</g>
</g>
</g>
</svg>
