<?xml version="1.0" encoding="UTF-8" standalone="no"?>
<!DOCTYPE svg PUBLIC "-//W3C//DTD SVG 1.1//EN"
 "http://www.w3.org/Graphics/SVG/1.1/DTD/svg11.dtd">
<!-- Generated by graphviz version 13.1.0 (20250701.0955)
 -->
<!-- Title: ReferenceCountedObject Pages: 1 -->
<svg width="538pt" height="412pt"
 viewBox="0.00 0.00 538.00 412.00" xmlns="http://www.w3.org/2000/svg" xmlns:xlink="http://www.w3.org/1999/xlink">
<g id="graph0" class="graph" transform="scale(1 1) rotate(0) translate(4 408)">
<title>ReferenceCountedObject</title>
<!-- Node1 -->
<g id="Node000001" class="node">
<title>Node1</title>
<g id="a_Node000001"><a xlink:title="A base class which provides methods for reference&#45;counting.">
<polygon fill="#999999" stroke="#666666" points="126.25,-228 0,-228 0,-208 126.25,-208 126.25,-228"/>
<text xml:space="preserve" text-anchor="middle" x="63.12" y="-214.5" font-family="Helvetica,sans-Serif" font-size="10.00">ReferenceCountedObject</text>
</a>
</g>
</g>
<!-- Node2 -->
<g id="Node000002" class="node">
<title>Node2</title>
<g id="a_Node000002"><a xlink:href="structAudioDeviceManager_1_1LevelMeter.html" target="_top" xlink:title="A simple reference&#45;counted struct that holds a level&#45;meter value that can be read using getCurrentLev...">
<polygon fill="white" stroke="#666666" points="297.5,-404 188.5,-404 188.5,-372 297.5,-372 297.5,-404"/>
<text xml:space="preserve" text-anchor="start" x="196.5" y="-390.5" font-family="Helvetica,sans-Serif" font-size="10.00">AudioDeviceManager</text>
<text xml:space="preserve" text-anchor="middle" x="243" y="-378.5" font-family="Helvetica,sans-Serif" font-size="10.00">::LevelMeter</text>
</a>
</g>
</g>
<!-- Node1&#45;&gt;Node2 -->
<g id="edge1_Node000001_Node000002" class="edge">
<title>Node1&#45;&gt;Node2</title>
<g id="a_edge1_Node000001_Node000002"><a xlink:title=" ">
<path fill="none" stroke="#63b8ff" d="M72.7,-238.72C86.77,-270.18 117.71,-329.85 162.25,-363 169.93,-368.72 178.95,-373.15 188.11,-376.58"/>
<polygon fill="#63b8ff" stroke="#63b8ff" points="75.92,-237.34 68.74,-229.54 69.49,-240.11 75.92,-237.34"/>
</a>
</g>
</g>
<!-- Node3 -->
<g id="Node000003" class="node">
<title>Node3</title>
<g id="a_Node000003"><a xlink:href="classAudioProcessorGraph_1_1Node.html" target="_top" xlink:title="Represents one of the nodes, or processors, in an AudioProcessorGraph.">
<polygon fill="white" stroke="#666666" points="298.62,-354 187.38,-354 187.38,-322 298.62,-322 298.62,-354"/>
<text xml:space="preserve" text-anchor="start" x="195.38" y="-340.5" font-family="Helvetica,sans-Serif" font-size="10.00">AudioProcessorGraph</text>
<text xml:space="preserve" text-anchor="middle" x="243" y="-328.5" font-family="Helvetica,sans-Serif" font-size="10.00">::Node</text>
</a>
</g>
</g>
<!-- Node1&#45;&gt;Node3 -->
<g id="edge2_Node000001_Node000003" class="edge">
<title>Node1&#45;&gt;Node3</title>
<g id="a_edge2_Node000001_Node000003"><a xlink:title=" ">
<path fill="none" stroke="#63b8ff" d="M79.28,-237.32C97.02,-258.7 128.32,-292.82 162.25,-313 169.86,-317.52 178.37,-321.31 186.92,-324.46"/>
<polygon fill="#63b8ff" stroke="#63b8ff" points="82.09,-235.22 73.07,-229.66 76.65,-239.63 82.09,-235.22"/>
</a>
</g>
</g>
<!-- Node4 -->
<g id="Node000004" class="node">
<title>Node4</title>
<g id="a_Node000004"><a xlink:href="classDynamicObject.html" target="_top" xlink:title="Represents a dynamically implemented object.">
<polygon fill="white" stroke="#666666" points="284.75,-304 201.25,-304 201.25,-284 284.75,-284 284.75,-304"/>
<text xml:space="preserve" text-anchor="middle" x="243" y="-290.5" font-family="Helvetica,sans-Serif" font-size="10.00">DynamicObject</text>
</a>
</g>
</g>
<!-- Node1&#45;&gt;Node4 -->
<g id="edge3_Node000001_Node000004" class="edge">
<title>Node1&#45;&gt;Node4</title>
<g id="a_edge3_Node000001_Node000004"><a xlink:title=" ">
<path fill="none" stroke="#63b8ff" d="M88.19,-234.67C107.46,-247.34 135.58,-264.34 162.25,-275 174.54,-279.91 188.43,-283.76 201.13,-286.67"/>
<polygon fill="#63b8ff" stroke="#63b8ff" points="90.23,-231.83 79.98,-229.17 86.34,-237.64 90.23,-231.83"/>
</a>
</g>
</g>
<!-- Node5 -->
<g id="Node000005" class="node">
<title>Node5</title>
<g id="a_Node000005"><a xlink:href="classImagePixelData.html" target="_top" xlink:title="This is a base class for holding image data in implementation&#45;specific ways.">
<polygon fill="white" stroke="#666666" points="285.88,-266 200.12,-266 200.12,-246 285.88,-246 285.88,-266"/>
<text xml:space="preserve" text-anchor="middle" x="243" y="-252.5" font-family="Helvetica,sans-Serif" font-size="10.00">ImagePixelData</text>
</a>
</g>
</g>
<!-- Node1&#45;&gt;Node5 -->
<g id="edge4_Node000001_Node000005" class="edge">
<title>Node1&#45;&gt;Node5</title>
<g id="a_edge4_Node000001_Node000005"><a xlink:title=" ">
<path fill="none" stroke="#63b8ff" d="M124.32,-230.86C149.09,-236.15 177.19,-242.16 199.73,-246.97"/>
<polygon fill="#63b8ff" stroke="#63b8ff" points="125.19,-227.47 114.68,-228.8 123.73,-234.31 125.19,-227.47"/>
</a>
</g>
</g>
<!-- Node6 -->
<g id="Node000006" class="node">
<title>Node6</title>
<g id="a_Node000006"><a xlink:href="classMessageManager_1_1MessageBase.html" target="_top" xlink:title="Internal class used as the base class for all message objects.">
<polygon fill="white" stroke="#666666" points="323.75,-228 162.25,-228 162.25,-208 323.75,-208 323.75,-228"/>
<text xml:space="preserve" text-anchor="middle" x="243" y="-214.5" font-family="Helvetica,sans-Serif" font-size="10.00">MessageManager::MessageBase</text>
</a>
</g>
</g>
<!-- Node1&#45;&gt;Node6 -->
<g id="edge5_Node000001_Node000006" class="edge">
<title>Node1&#45;&gt;Node6</title>
<g id="a_edge5_Node000001_Node000006"><a xlink:title=" ">
<path fill="none" stroke="#63b8ff" d="M138,-218C145.88,-218 153.94,-218 161.89,-218"/>
<polygon fill="#63b8ff" stroke="#63b8ff" points="138.1,-214.5 128.1,-218 138.1,-221.5 138.1,-214.5"/>
</a>
</g>
</g>
<!-- Node9 -->
<g id="Node000009" class="node">
<title>Node9</title>
<g id="a_Node000009"><a xlink:href="classSynthesiserSound.html" target="_top" xlink:title="Describes one of the sounds that a Synthesiser can play.">
<polygon fill="white" stroke="#666666" points="290.75,-190 195.25,-190 195.25,-170 290.75,-170 290.75,-190"/>
<text xml:space="preserve" text-anchor="middle" x="243" y="-176.5" font-family="Helvetica,sans-Serif" font-size="10.00">SynthesiserSound</text>
</a>
</g>
</g>
<!-- Node1&#45;&gt;Node9 -->
<g id="edge8_Node000001_Node000009" class="edge">
<title>Node1&#45;&gt;Node9</title>
<g id="a_edge8_Node000001_Node000009"><a xlink:title=" ">
<path fill="none" stroke="#63b8ff" d="M124.26,-205.15C147.31,-200.23 173.26,-194.68 194.92,-190.06"/>
<polygon fill="#63b8ff" stroke="#63b8ff" points="123.73,-201.69 114.68,-207.2 125.19,-208.53 123.73,-201.69"/>
</a>
</g>
</g>
<!-- Node11 -->
<g id="Node000011" class="node">
<title>Node11</title>
<g id="a_Node000011"><a xlink:href="classTypeface.html" target="_top" xlink:title="A typeface represents a size&#45;independent font.">
<polygon fill="white" stroke="#666666" points="270.88,-152 215.12,-152 215.12,-132 270.88,-132 270.88,-152"/>
<text xml:space="preserve" text-anchor="middle" x="243" y="-138.5" font-family="Helvetica,sans-Serif" font-size="10.00">Typeface</text>
</a>
</g>
</g>
<!-- Node1&#45;&gt;Node11 -->
<g id="edge10_Node000001_Node000011" class="edge">
<title>Node1&#45;&gt;Node11</title>
<g id="a_edge10_Node000001_Node000011"><a xlink:title=" ">
<path fill="none" stroke="#63b8ff" d="M88.19,-201.33C107.46,-188.66 135.58,-171.66 162.25,-161 179.17,-154.24 199.11,-149.49 214.81,-146.43"/>
<polygon fill="#63b8ff" stroke="#63b8ff" points="86.34,-198.36 79.98,-206.83 90.23,-204.17 86.34,-198.36"/>
</a>
</g>
</g>
<!-- Node12 -->
<g id="Node000012" class="node">
<title>Node12</title>
<g id="a_Node000012"><a xlink:href="classValue_1_1ValueSource.html" target="_top" xlink:title="Used internally by the Value class as the base class for its shared value objects.">
<polygon fill="white" stroke="#666666" points="293.38,-114 192.62,-114 192.62,-94 293.38,-94 293.38,-114"/>
<text xml:space="preserve" text-anchor="middle" x="243" y="-100.5" font-family="Helvetica,sans-Serif" font-size="10.00">Value::ValueSource</text>
</a>
</g>
</g>
<!-- Node1&#45;&gt;Node12 -->
<g id="edge11_Node000001_Node000012" class="edge">
<title>Node1&#45;&gt;Node12</title>
<g id="a_edge11_Node000001_Node000012"><a xlink:title=" ">
<path fill="none" stroke="#63b8ff" d="M78.75,-198.58C96.21,-176.82 127.45,-142.08 162.25,-123 171.49,-117.94 182.05,-114.21 192.39,-111.48"/>
<polygon fill="#63b8ff" stroke="#63b8ff" points="76.06,-196.34 72.67,-206.38 81.58,-200.65 76.06,-196.34"/>
</a>
</g>
</g>
<!-- Node13 -->
<g id="Node000013" class="node">
<title>Node13</title>
<g id="a_Node000013"><a xlink:href="structjuce_1_1dsp_1_1ProcessorState.html" target="_top" xlink:title="This is a handy base class for the state of a processor (such as parameter values) which is typically...">
<polygon fill="white" stroke="#666666" points="307.62,-76 178.38,-76 178.38,-56 307.62,-56 307.62,-76"/>
<text xml:space="preserve" text-anchor="middle" x="243" y="-62.5" font-family="Helvetica,sans-Serif" font-size="10.00">juce::dsp::ProcessorState</text>
</a>
</g>
</g>
<!-- Node1&#45;&gt;Node13 -->
<g id="edge12_Node000001_Node000013" class="edge">
<title>Node1&#45;&gt;Node13</title>
<g id="a_edge12_Node000001_Node000013"><a xlink:title=" ">
<path fill="none" stroke="#63b8ff" d="M73.52,-197.38C88.13,-167.73 119.15,-113.52 162.25,-85 167.47,-81.54 173.26,-78.72 179.25,-76.4"/>
<polygon fill="#63b8ff" stroke="#63b8ff" points="70.37,-195.86 69.23,-206.4 76.69,-198.87 70.37,-195.86"/>
</a>
</g>
</g>
<!-- Node7 -->
<g id="Node000007" class="node">
<title>Node7</title>
<g id="a_Node000007"><a xlink:href="classCallbackMessage.html" target="_top" xlink:title="A message that invokes a callback method when it gets delivered.">
<polygon fill="white" stroke="#666666" points="491.62,-266 397.62,-266 397.62,-246 491.62,-246 491.62,-266"/>
<text xml:space="preserve" text-anchor="middle" x="444.62" y="-252.5" font-family="Helvetica,sans-Serif" font-size="10.00">CallbackMessage</text>
</a>
</g>
</g>
<!-- Node6&#45;&gt;Node7 -->
<g id="edge6_Node000006_Node000007" class="edge">
<title>Node6&#45;&gt;Node7</title>
<g id="a_edge6_Node000006_Node000007"><a xlink:title=" ">
<path fill="none" stroke="#63b8ff" d="M310.18,-230.6C338.67,-236.02 371.31,-242.23 397.17,-247.16"/>
<polygon fill="#63b8ff" stroke="#63b8ff" points="311.04,-227.2 300.56,-228.77 309.73,-234.08 311.04,-227.2"/>
</a>
</g>
</g>
<!-- Node8 -->
<g id="Node000008" class="node">
<title>Node8</title>
<g id="a_Node000008"><a xlink:href="classMessage.html" target="_top" xlink:title="The base class for objects that can be sent to a MessageListener.">
<polygon fill="white" stroke="#666666" points="472.5,-228 416.75,-228 416.75,-208 472.5,-208 472.5,-228"/>
<text xml:space="preserve" text-anchor="middle" x="444.62" y="-214.5" font-family="Helvetica,sans-Serif" font-size="10.00">Message</text>
</a>
</g>
</g>
<!-- Node6&#45;&gt;Node8 -->
<g id="edge7_Node000006_Node000008" class="edge">
<title>Node6&#45;&gt;Node8</title>
<g id="a_edge7_Node000006_Node000008"><a xlink:title=" ">
<path fill="none" stroke="#63b8ff" d="M335.27,-218C364.74,-218 395.22,-218 416.31,-218"/>
<polygon fill="#63b8ff" stroke="#63b8ff" points="335.56,-214.5 325.56,-218 335.56,-221.5 335.56,-214.5"/>
</a>
</g>
</g>
<!-- Node10 -->
<g id="Node000010" class="node">
<title>Node10</title>
<g id="a_Node000010"><a xlink:href="classSamplerSound.html" target="_top" xlink:title="A subclass of SynthesiserSound that represents a sampled audio clip.">
<polygon fill="white" stroke="#666666" points="484.5,-190 404.75,-190 404.75,-170 484.5,-170 484.5,-190"/>
<text xml:space="preserve" text-anchor="middle" x="444.62" y="-176.5" font-family="Helvetica,sans-Serif" font-size="10.00">SamplerSound</text>
</a>
</g>
</g>
<!-- Node9&#45;&gt;Node10 -->
<g id="edge9_Node000009_Node000010" class="edge">
<title>Node9&#45;&gt;Node10</title>
<g id="a_edge9_Node000009_Node000010"><a xlink:title=" ">
<path fill="none" stroke="#63b8ff" d="M302.32,-180C335.12,-180 375.19,-180 404.27,-180"/>
<polygon fill="#63b8ff" stroke="#63b8ff" points="302.57,-176.5 292.57,-180 302.57,-183.5 302.57,-176.5"/>
</a>
</g>
</g>
<!-- Node14 -->
<g id="Node000014" class="node">
<title>Node14</title>
<g id="a_Node000014"><a xlink:href="structjuce_1_1dsp_1_1FIR_1_1Coefficients.html" target="_top" xlink:title="A set of coefficients for use in an FIRFilter object.">
<polygon fill="white" stroke="#666666" points="512.62,-132 376.62,-132 376.62,-100 512.62,-100 512.62,-132"/>
<text xml:space="preserve" text-anchor="start" x="384.62" y="-118.5" font-family="Helvetica,sans-Serif" font-size="10.00">juce::dsp::FIR::Coefficients</text>
<text xml:space="preserve" text-anchor="middle" x="444.62" y="-106.5" font-family="Helvetica,sans-Serif" font-size="10.00">&lt; NumericType &gt;</text>
</a>
</g>
</g>
<!-- Node13&#45;&gt;Node14 -->
<g id="edge13_Node000013_Node000014" class="edge">
<title>Node13&#45;&gt;Node14</title>
<g id="a_edge13_Node000013_Node000014"><a xlink:title=" ">
<path fill="none" stroke="#63b8ff" d="M299.35,-79.04C307.54,-81.01 315.87,-83.04 323.75,-85 342.32,-89.61 362.46,-94.76 380.85,-99.52"/>
<polygon fill="#63b8ff" stroke="#63b8ff" points="300.34,-75.68 289.8,-76.75 298.71,-82.49 300.34,-75.68"/>
</a>
</g>
</g>
<!-- Node15 -->
<g id="Node000015" class="node">
<title>Node15</title>
<g id="a_Node000015"><a xlink:href="structjuce_1_1dsp_1_1IIR_1_1Coefficients.html" target="_top" xlink:title="A set of coefficients for use in an Filter object.">
<polygon fill="white" stroke="#666666" points="511.12,-82 378.12,-82 378.12,-50 511.12,-50 511.12,-82"/>
<text xml:space="preserve" text-anchor="start" x="386.12" y="-68.5" font-family="Helvetica,sans-Serif" font-size="10.00">juce::dsp::IIR::Coefficients</text>
<text xml:space="preserve" text-anchor="middle" x="444.62" y="-56.5" font-family="Helvetica,sans-Serif" font-size="10.00">&lt; NumericType &gt;</text>
</a>
</g>
</g>
<!-- Node13&#45;&gt;Node15 -->
<g id="edge14_Node000013_Node000015" class="edge">
<title>Node13&#45;&gt;Node15</title>
<g id="a_edge14_Node000013_Node000015"><a xlink:title=" ">
<path fill="none" stroke="#63b8ff" d="M319.46,-66C338.7,-66 359.23,-66 377.94,-66"/>
<polygon fill="#63b8ff" stroke="#63b8ff" points="319.5,-62.5 309.5,-66 319.5,-69.5 319.5,-62.5"/>
</a>
</g>
</g>
<!-- Node16 -->
<g id="Node000016" class="node">
<title>Node16</title>
<g id="a_Node000016"><a xlink:href="structjuce_1_1dsp_1_1StateVariableFilter_1_1Parameters.html" target="_top" xlink:title="Structure used for the state variable filter parameters.">
<polygon fill="white" stroke="#666666" points="529.5,-32 359.75,-32 359.75,0 529.5,0 529.5,-32"/>
<text xml:space="preserve" text-anchor="start" x="367.75" y="-18.5" font-family="Helvetica,sans-Serif" font-size="10.00">juce::dsp::StateVariable</text>
<text xml:space="preserve" text-anchor="middle" x="444.62" y="-6.5" font-family="Helvetica,sans-Serif" font-size="10.00">Filter::Parameters&lt; NumericType &gt;</text>
</a>
</g>
</g>
<!-- Node13&#45;&gt;Node16 -->
<g id="edge15_Node000013_Node000016" class="edge">
<title>Node13&#45;&gt;Node16</title>
<g id="a_edge15_Node000013_Node000016"><a xlink:title=" ">
<path fill="none" stroke="#63b8ff" d="M296.88,-52.76C321.72,-46.53 351.58,-39.05 377.86,-32.47"/>
<polygon fill="#63b8ff" stroke="#63b8ff" points="296.17,-49.33 287.32,-55.15 297.87,-56.12 296.17,-49.33"/>
</a>
</g>
</g>
</g>
</svg>
