<?xml version="1.0" encoding="UTF-8" standalone="no"?>
<!DOCTYPE svg PUBLIC "-//W3C//DTD SVG 1.1//EN"
 "http://www.w3.org/Graphics/SVG/1.1/DTD/svg11.dtd">
<!-- Generated by graphviz version 13.1.0 (20250701.0955)
 -->
<!-- Title: Viewport Pages: 1 -->
<svg width="315pt" height="140pt"
 viewBox="0.00 0.00 315.00 140.00" xmlns="http://www.w3.org/2000/svg" xmlns:xlink="http://www.w3.org/1999/xlink">
<g id="graph0" class="graph" transform="scale(1 1) rotate(0) translate(4 136)">
<title>Viewport</title>
<!-- Node1 -->
<g id="Node000001" class="node">
<title>Node1</title>
<g id="a_Node000001"><a xlink:title="A Viewport is used to contain a larger child component, and allows the child to be automatically scro...">
<polygon fill="#999999" stroke="#666666" points="169,-20 114.75,-20 114.75,0 169,0 169,-20"/>
<text xml:space="preserve" text-anchor="middle" x="141.88" y="-6.5" font-family="Helvetica,sans-Serif" font-size="10.00">Viewport</text>
</a>
</g>
</g>
<!-- Node2 -->
<g id="Node000002" class="node">
<title>Node2</title>
<g id="a_Node000002"><a xlink:href="classComponent.html" target="_top" xlink:title="The base class for all JUCE user&#45;interface objects.">
<polygon fill="white" stroke="#666666" points="73,-76 6.75,-76 6.75,-56 73,-56 73,-76"/>
<text xml:space="preserve" text-anchor="middle" x="39.88" y="-62.5" font-family="Helvetica,sans-Serif" font-size="10.00">Component</text>
</a>
</g>
</g>
<!-- Node2&#45;&gt;Node1 -->
<g id="edge1_Node000001_Node000002" class="edge">
<title>Node2&#45;&gt;Node1</title>
<g id="a_edge1_Node000001_Node000002"><a xlink:title=" ">
<path fill="none" stroke="#63b8ff" d="M67.8,-50.21C85.72,-40.73 108.44,-28.7 123.97,-20.48"/>
<polygon fill="#63b8ff" stroke="#63b8ff" points="66.18,-47.11 58.98,-54.89 69.46,-53.3 66.18,-47.11"/>
</a>
</g>
</g>
<!-- Node3 -->
<g id="Node000003" class="node">
<title>Node3</title>
<g id="a_Node000003"><a xlink:href="classMouseListener.html" target="_top" xlink:title="A MouseListener can be registered with a component to receive callbacks about mouse events that happe...">
<polygon fill="white" stroke="#666666" points="79.75,-132 0,-132 0,-112 79.75,-112 79.75,-132"/>
<text xml:space="preserve" text-anchor="middle" x="39.88" y="-118.5" font-family="Helvetica,sans-Serif" font-size="10.00">MouseListener</text>
</a>
</g>
</g>
<!-- Node3&#45;&gt;Node2 -->
<g id="edge2_Node000002_Node000003" class="edge">
<title>Node3&#45;&gt;Node2</title>
<g id="a_edge2_Node000002_Node000003"><a xlink:title=" ">
<path fill="none" stroke="#63b8ff" d="M39.88,-100.13C39.88,-91.9 39.88,-82.85 39.88,-76.3"/>
<polygon fill="#63b8ff" stroke="#63b8ff" points="36.38,-100.08 39.88,-110.08 43.38,-100.08 36.38,-100.08"/>
</a>
</g>
</g>
<!-- Node4 -->
<g id="Node000004" class="node">
<title>Node4</title>
<g id="a_Node000004"><a xlink:href="classComponentListener.html" target="_top" xlink:title="Gets informed about changes to a component&#39;s hierarchy or position.">
<polygon fill="white" stroke="#666666" points="192.25,-76 91.5,-76 91.5,-56 192.25,-56 192.25,-76"/>
<text xml:space="preserve" text-anchor="middle" x="141.88" y="-62.5" font-family="Helvetica,sans-Serif" font-size="10.00">ComponentListener</text>
</a>
</g>
</g>
<!-- Node4&#45;&gt;Node1 -->
<g id="edge3_Node000001_Node000004" class="edge">
<title>Node4&#45;&gt;Node1</title>
<g id="a_edge3_Node000001_Node000004"><a xlink:title=" ">
<path fill="none" stroke="#8b1a1a" d="M141.88,-44.13C141.88,-35.9 141.88,-26.85 141.88,-20.3"/>
<polygon fill="#8b1a1a" stroke="#8b1a1a" points="138.38,-44.08 141.88,-54.08 145.38,-44.08 138.38,-44.08"/>
</a>
</g>
</g>
<!-- Node5 -->
<g id="Node000005" class="node">
<title>Node5</title>
<g id="a_Node000005"><a xlink:href="classScrollBar_1_1Listener.html" target="_top" xlink:title="A class for receiving events from a ScrollBar.">
<polygon fill="white" stroke="#666666" points="307,-76 210.75,-76 210.75,-56 307,-56 307,-76"/>
<text xml:space="preserve" text-anchor="middle" x="258.88" y="-62.5" font-family="Helvetica,sans-Serif" font-size="10.00">ScrollBar::Listener</text>
</a>
</g>
</g>
<!-- Node5&#45;&gt;Node1 -->
<g id="edge4_Node000001_Node000005" class="edge">
<title>Node5&#45;&gt;Node1</title>
<g id="a_edge4_Node000001_Node000005"><a xlink:title=" ">
<path fill="none" stroke="#8b1a1a" d="M228.28,-50.88C207.52,-41.3 180.64,-28.89 162.41,-20.48"/>
<polygon fill="#8b1a1a" stroke="#8b1a1a" points="226.57,-53.95 237.12,-54.96 229.51,-47.59 226.57,-53.95"/>
</a>
</g>
</g>
</g>
</svg>
