<?xml version="1.0" encoding="UTF-8" standalone="no"?>
<!DOCTYPE svg PUBLIC "-//W3C//DTD SVG 1.1//EN"
 "http://www.w3.org/Graphics/SVG/1.1/DTD/svg11.dtd">
<!-- Generated by graphviz version 13.1.0 (20250701.0955)
 -->
<!-- Title: JUCEApplication Pages: 1 -->
<svg width="276pt" height="84pt"
 viewBox="0.00 0.00 276.00 84.00" xmlns="http://www.w3.org/2000/svg" xmlns:xlink="http://www.w3.org/1999/xlink">
<g id="graph0" class="graph" transform="scale(1 1) rotate(0) translate(4 80)">
<title>JUCEApplication</title>
<!-- Node1 -->
<g id="Node000001" class="node">
<title>Node1</title>
<g id="a_Node000001"><a xlink:title="An instance of this class is used to specify initialisation and shutdown code for the application.">
<polygon fill="#999999" stroke="#666666" points="173.25,-20 82.25,-20 82.25,0 173.25,0 173.25,-20"/>
<text xml:space="preserve" text-anchor="middle" x="127.75" y="-6.5" font-family="Helvetica,sans-Serif" font-size="10.00">JUCEApplication</text>
</a>
</g>
</g>
<!-- Node2 -->
<g id="Node000002" class="node">
<title>Node2</title>
<g id="a_Node000002"><a xlink:href="classJUCEApplicationBase.html" target="_top" xlink:title="Abstract base class for application classes.">
<polygon fill="white" stroke="#666666" points="113.5,-76 0,-76 0,-56 113.5,-56 113.5,-76"/>
<text xml:space="preserve" text-anchor="middle" x="56.75" y="-62.5" font-family="Helvetica,sans-Serif" font-size="10.00">JUCEApplicationBase</text>
</a>
</g>
</g>
<!-- Node2&#45;&gt;Node1 -->
<g id="edge1_Node000001_Node000002" class="edge">
<title>Node2&#45;&gt;Node1</title>
<g id="a_edge1_Node000001_Node000002"><a xlink:title=" ">
<path fill="none" stroke="#63b8ff" d="M78.21,-48.68C90.42,-39.39 105.28,-28.09 115.52,-20.3"/>
<polygon fill="#63b8ff" stroke="#63b8ff" points="76.16,-45.84 70.32,-54.68 80.4,-51.41 76.16,-45.84"/>
</a>
</g>
</g>
<!-- Node3 -->
<g id="Node000003" class="node">
<title>Node3</title>
<g id="a_Node000003"><a xlink:href="classApplicationCommandTarget.html" target="_top" xlink:title="A command target publishes a list of command IDs that it can perform.">
<polygon fill="white" stroke="#666666" points="267.75,-76 131.75,-76 131.75,-56 267.75,-56 267.75,-76"/>
<text xml:space="preserve" text-anchor="middle" x="199.75" y="-62.5" font-family="Helvetica,sans-Serif" font-size="10.00">ApplicationCommandTarget</text>
</a>
</g>
</g>
<!-- Node3&#45;&gt;Node1 -->
<g id="edge2_Node000001_Node000003" class="edge">
<title>Node3&#45;&gt;Node1</title>
<g id="a_edge2_Node000001_Node000003"><a xlink:title=" ">
<path fill="none" stroke="#63b8ff" d="M178.36,-48.95C165.9,-39.61 150.64,-28.16 140.15,-20.3"/>
<polygon fill="#63b8ff" stroke="#63b8ff" points="175.9,-51.49 186,-54.69 180.1,-45.89 175.9,-51.49"/>
</a>
</g>
</g>
</g>
</svg>
