<?xml version="1.0" encoding="UTF-8" standalone="no"?>
<!DOCTYPE svg PUBLIC "-//W3C//DTD SVG 1.1//EN"
 "http://www.w3.org/Graphics/SVG/1.1/DTD/svg11.dtd">
<!-- Generated by graphviz version 13.1.0 (20250701.0955)
 -->
<!-- Title: InputStream Pages: 1 -->
<svg width="270pt" height="256pt"
 viewBox="0.00 0.00 270.00 256.00" xmlns="http://www.w3.org/2000/svg" xmlns:xlink="http://www.w3.org/1999/xlink">
<g id="graph0" class="graph" transform="scale(1 1) rotate(0) translate(4 252)">
<title>InputStream</title>
<!-- Node1 -->
<g id="Node000001" class="node">
<title>Node1</title>
<g id="a_Node000001"><a xlink:title="The base class for streams that read data.">
<polygon fill="#999999" stroke="#666666" points="69.25,-134 0,-134 0,-114 69.25,-114 69.25,-134"/>
<text xml:space="preserve" text-anchor="middle" x="34.62" y="-120.5" font-family="Helvetica,sans-Serif" font-size="10.00">InputStream</text>
</a>
</g>
</g>
<!-- Node2 -->
<g id="Node000002" class="node">
<title>Node2</title>
<g id="a_Node000002"><a xlink:href="classARAInputStream.html" target="_top" xlink:title="Used to read persisted ARA archives &#45; see doRestoreObjectsFromStream() for details.">
<polygon fill="white" stroke="#666666" points="228.5,-248 138.25,-248 138.25,-228 228.5,-228 228.5,-248"/>
<text xml:space="preserve" text-anchor="middle" x="183.38" y="-234.5" font-family="Helvetica,sans-Serif" font-size="10.00">ARAInputStream</text>
</a>
</g>
</g>
<!-- Node1&#45;&gt;Node2 -->
<g id="edge1_Node000001_Node000002" class="edge">
<title>Node1&#45;&gt;Node2</title>
<g id="a_edge1_Node000001_Node000002"><a xlink:title=" ">
<path fill="none" stroke="#63b8ff" d="M45.27,-144.62C56.56,-166.46 77.32,-200.3 105.25,-219 114.99,-225.52 126.77,-229.81 138.15,-232.62"/>
<polygon fill="#63b8ff" stroke="#63b8ff" points="48.48,-143.21 40.91,-135.8 42.2,-146.31 48.48,-143.21"/>
</a>
</g>
</g>
<!-- Node3 -->
<g id="Node000003" class="node">
<title>Node3</title>
<g id="a_Node000003"><a xlink:href="classBufferedInputStream.html" target="_top" xlink:title="Wraps another input stream, and reads from it using an intermediate buffer.">
<polygon fill="white" stroke="#666666" points="236,-210 130.75,-210 130.75,-190 236,-190 236,-210"/>
<text xml:space="preserve" text-anchor="middle" x="183.38" y="-196.5" font-family="Helvetica,sans-Serif" font-size="10.00">BufferedInputStream</text>
</a>
</g>
</g>
<!-- Node1&#45;&gt;Node3 -->
<g id="edge2_Node000001_Node000003" class="edge">
<title>Node1&#45;&gt;Node3</title>
<g id="a_edge2_Node000001_Node000003"><a xlink:title=" ">
<path fill="none" stroke="#63b8ff" d="M53.12,-142.11C66.33,-154.77 85.5,-171.12 105.25,-181 113.14,-184.95 121.91,-188.11 130.62,-190.63"/>
<polygon fill="#63b8ff" stroke="#63b8ff" points="55.64,-139.67 46.07,-135.12 50.71,-144.65 55.64,-139.67"/>
</a>
</g>
</g>
<!-- Node4 -->
<g id="Node000004" class="node">
<title>Node4</title>
<g id="a_Node000004"><a xlink:href="classFileInputStream.html" target="_top" xlink:title="An input stream that reads from a local file.">
<polygon fill="white" stroke="#666666" points="225.88,-172 140.88,-172 140.88,-152 225.88,-152 225.88,-172"/>
<text xml:space="preserve" text-anchor="middle" x="183.38" y="-158.5" font-family="Helvetica,sans-Serif" font-size="10.00">FileInputStream</text>
</a>
</g>
</g>
<!-- Node1&#45;&gt;Node4 -->
<g id="edge3_Node000001_Node000004" class="edge">
<title>Node1&#45;&gt;Node4</title>
<g id="a_edge3_Node000001_Node000004"><a xlink:title=" ">
<path fill="none" stroke="#63b8ff" d="M80.53,-136.43C88.74,-138.65 97.25,-140.92 105.25,-143 116.73,-145.98 129.2,-149.1 140.7,-151.93"/>
<polygon fill="#63b8ff" stroke="#63b8ff" points="81.61,-133.1 71.04,-133.84 79.77,-139.85 81.61,-133.1"/>
</a>
</g>
</g>
<!-- Node5 -->
<g id="Node000005" class="node">
<title>Node5</title>
<g id="a_Node000005"><a xlink:href="classGZIPDecompressorInputStream.html" target="_top" xlink:title="This stream will decompress a source&#45;stream using zlib.">
<polygon fill="white" stroke="#666666" points="261.5,-134 105.25,-134 105.25,-114 261.5,-114 261.5,-134"/>
<text xml:space="preserve" text-anchor="middle" x="183.38" y="-120.5" font-family="Helvetica,sans-Serif" font-size="10.00">GZIPDecompressorInputStream</text>
</a>
</g>
</g>
<!-- Node1&#45;&gt;Node5 -->
<g id="edge4_Node000001_Node000005" class="edge">
<title>Node1&#45;&gt;Node5</title>
<g id="a_edge4_Node000001_Node000005"><a xlink:title=" ">
<path fill="none" stroke="#63b8ff" d="M81.16,-124C88.77,-124 96.84,-124 104.97,-124"/>
<polygon fill="#63b8ff" stroke="#63b8ff" points="81.17,-120.5 71.17,-124 81.17,-127.5 81.17,-120.5"/>
</a>
</g>
</g>
<!-- Node6 -->
<g id="Node000006" class="node">
<title>Node6</title>
<g id="a_Node000006"><a xlink:href="classMemoryInputStream.html" target="_top" xlink:title="Allows a block of data to be accessed as a stream.">
<polygon fill="white" stroke="#666666" points="235.62,-96 131.12,-96 131.12,-76 235.62,-76 235.62,-96"/>
<text xml:space="preserve" text-anchor="middle" x="183.38" y="-82.5" font-family="Helvetica,sans-Serif" font-size="10.00">MemoryInputStream</text>
</a>
</g>
</g>
<!-- Node1&#45;&gt;Node6 -->
<g id="edge5_Node000001_Node000006" class="edge">
<title>Node1&#45;&gt;Node6</title>
<g id="a_edge5_Node000001_Node000006"><a xlink:title=" ">
<path fill="none" stroke="#63b8ff" d="M80.53,-111.57C88.74,-109.35 97.25,-107.08 105.25,-105 116.2,-102.16 128.04,-99.19 139.09,-96.46"/>
<polygon fill="#63b8ff" stroke="#63b8ff" points="79.77,-108.15 71.04,-114.16 81.61,-114.9 79.77,-108.15"/>
</a>
</g>
</g>
<!-- Node7 -->
<g id="Node000007" class="node">
<title>Node7</title>
<g id="a_Node000007"><a xlink:href="classSubregionStream.html" target="_top" xlink:title="Wraps another input stream, and reads from a specific part of it.">
<polygon fill="white" stroke="#666666" points="228.88,-58 137.88,-58 137.88,-38 228.88,-38 228.88,-58"/>
<text xml:space="preserve" text-anchor="middle" x="183.38" y="-44.5" font-family="Helvetica,sans-Serif" font-size="10.00">SubregionStream</text>
</a>
</g>
</g>
<!-- Node1&#45;&gt;Node7 -->
<g id="edge6_Node000001_Node000007" class="edge">
<title>Node1&#45;&gt;Node7</title>
<g id="a_edge6_Node000001_Node000007"><a xlink:title=" ">
<path fill="none" stroke="#63b8ff" d="M53.12,-105.89C66.33,-93.23 85.5,-76.88 105.25,-67 115.24,-62 126.63,-58.27 137.53,-55.49"/>
<polygon fill="#63b8ff" stroke="#63b8ff" points="50.71,-103.35 46.07,-112.88 55.64,-108.33 50.71,-103.35"/>
</a>
</g>
</g>
<!-- Node8 -->
<g id="Node000008" class="node">
<title>Node8</title>
<g id="a_Node000008"><a xlink:href="classWebInputStream.html" target="_top" xlink:title="An InputStream which can be used to read from a given URL.">
<polygon fill="white" stroke="#666666" points="227.75,-20 139,-20 139,0 227.75,0 227.75,-20"/>
<text xml:space="preserve" text-anchor="middle" x="183.38" y="-6.5" font-family="Helvetica,sans-Serif" font-size="10.00">WebInputStream</text>
</a>
</g>
</g>
<!-- Node1&#45;&gt;Node8 -->
<g id="edge7_Node000001_Node000008" class="edge">
<title>Node1&#45;&gt;Node8</title>
<g id="a_edge7_Node000001_Node000008"><a xlink:title=" ">
<path fill="none" stroke="#63b8ff" d="M45.27,-103.38C56.56,-81.54 77.32,-47.7 105.25,-29 115.1,-22.4 127.04,-18.09 138.55,-15.28"/>
<polygon fill="#63b8ff" stroke="#63b8ff" points="42.2,-101.69 40.91,-112.2 48.48,-104.79 42.2,-101.69"/>
</a>
</g>
</g>
</g>
</svg>
