<?xml version="1.0" encoding="UTF-8" standalone="no"?>
<!DOCTYPE svg PUBLIC "-//W3C//DTD SVG 1.1//EN"
 "http://www.w3.org/Graphics/SVG/1.1/DTD/svg11.dtd">
<!-- Generated by graphviz version 13.1.0 (20250701.0955)
 -->
<!-- Title: MidiKeyboardComponent Pages: 1 -->
<svg width="345pt" height="208pt"
 viewBox="0.00 0.00 345.00 208.00" xmlns="http://www.w3.org/2000/svg" xmlns:xlink="http://www.w3.org/1999/xlink">
<g id="graph0" class="graph" transform="scale(1 1) rotate(0) translate(4 204)">
<title>MidiKeyboardComponent</title>
<!-- Node1 -->
<g id="Node000001" class="node">
<title>Node1</title>
<g id="a_Node000001"><a xlink:title="A component that displays a piano keyboard, whose notes can be clicked on.">
<polygon fill="#999999" stroke="#666666" points="288.62,-20 163.12,-20 163.12,0 288.62,0 288.62,-20"/>
<text xml:space="preserve" text-anchor="middle" x="225.88" y="-6.5" font-family="Helvetica,sans-Serif" font-size="10.00">MidiKeyboardComponent</text>
</a>
</g>
</g>
<!-- Node2 -->
<g id="Node000002" class="node">
<title>Node2</title>
<g id="a_Node000002"><a xlink:href="classKeyboardComponentBase.html" target="_top" xlink:title="A base class for drawing a custom MIDI keyboard component.">
<polygon fill="white" stroke="#666666" points="155.88,-82 25.88,-82 25.88,-62 155.88,-62 155.88,-82"/>
<text xml:space="preserve" text-anchor="middle" x="90.88" y="-68.5" font-family="Helvetica,sans-Serif" font-size="10.00">KeyboardComponentBase</text>
</a>
</g>
</g>
<!-- Node2&#45;&gt;Node1 -->
<g id="edge1_Node000001_Node000002" class="edge">
<title>Node2&#45;&gt;Node1</title>
<g id="a_edge1_Node000001_Node000002"><a xlink:title=" ">
<path fill="none" stroke="#63b8ff" d="M122.21,-57.07C147.64,-45.77 182.8,-30.15 204.93,-20.31"/>
<polygon fill="#63b8ff" stroke="#63b8ff" points="121.07,-53.75 113.35,-61.01 123.91,-60.15 121.07,-53.75"/>
</a>
</g>
</g>
<!-- Node3 -->
<g id="Node000003" class="node">
<title>Node3</title>
<g id="a_Node000003"><a xlink:href="classComponent.html" target="_top" xlink:title="The base class for all JUCE user&#45;interface objects.">
<polygon fill="white" stroke="#666666" points="73,-144 6.75,-144 6.75,-124 73,-124 73,-144"/>
<text xml:space="preserve" text-anchor="middle" x="39.88" y="-130.5" font-family="Helvetica,sans-Serif" font-size="10.00">Component</text>
</a>
</g>
</g>
<!-- Node3&#45;&gt;Node2 -->
<g id="edge2_Node000002_Node000003" class="edge">
<title>Node3&#45;&gt;Node2</title>
<g id="a_edge2_Node000002_Node000003"><a xlink:title=" ">
<path fill="none" stroke="#63b8ff" d="M55.24,-114.92C64.44,-104.1 75.75,-90.79 83.13,-82.11"/>
<polygon fill="#63b8ff" stroke="#63b8ff" points="52.63,-112.59 48.82,-122.47 57.97,-117.12 52.63,-112.59"/>
</a>
</g>
</g>
<!-- Node4 -->
<g id="Node000004" class="node">
<title>Node4</title>
<g id="a_Node000004"><a xlink:href="classMouseListener.html" target="_top" xlink:title="A MouseListener can be registered with a component to receive callbacks about mouse events that happe...">
<polygon fill="white" stroke="#666666" points="79.75,-200 0,-200 0,-180 79.75,-180 79.75,-200"/>
<text xml:space="preserve" text-anchor="middle" x="39.88" y="-186.5" font-family="Helvetica,sans-Serif" font-size="10.00">MouseListener</text>
</a>
</g>
</g>
<!-- Node4&#45;&gt;Node3 -->
<g id="edge3_Node000003_Node000004" class="edge">
<title>Node4&#45;&gt;Node3</title>
<g id="a_edge3_Node000003_Node000004"><a xlink:title=" ">
<path fill="none" stroke="#63b8ff" d="M39.88,-168.13C39.88,-159.9 39.88,-150.85 39.88,-144.3"/>
<polygon fill="#63b8ff" stroke="#63b8ff" points="36.38,-168.08 39.88,-178.08 43.38,-168.08 36.38,-168.08"/>
</a>
</g>
</g>
<!-- Node5 -->
<g id="Node000005" class="node">
<title>Node5</title>
<g id="a_Node000005"><a xlink:href="classChangeBroadcaster.html" target="_top" xlink:title="Holds a list of ChangeListeners, and sends messages to them when instructed.">
<polygon fill="white" stroke="#666666" points="193,-144 90.75,-144 90.75,-124 193,-124 193,-144"/>
<text xml:space="preserve" text-anchor="middle" x="141.88" y="-130.5" font-family="Helvetica,sans-Serif" font-size="10.00">ChangeBroadcaster</text>
</a>
</g>
</g>
<!-- Node5&#45;&gt;Node2 -->
<g id="edge4_Node000002_Node000005" class="edge">
<title>Node5&#45;&gt;Node2</title>
<g id="a_edge4_Node000002_Node000005"><a xlink:title=" ">
<path fill="none" stroke="#63b8ff" d="M126.51,-114.92C117.31,-104.1 106,-90.79 98.62,-82.11"/>
<polygon fill="#63b8ff" stroke="#63b8ff" points="123.78,-117.12 132.93,-122.47 129.12,-112.59 123.78,-117.12"/>
</a>
</g>
</g>
<!-- Node6 -->
<g id="Node000006" class="node">
<title>Node6</title>
<g id="a_Node000006"><a xlink:href="classMidiKeyboardState_1_1Listener.html" target="_top" xlink:title="Receives events from a MidiKeyboardState object.">
<polygon fill="white" stroke="#666666" points="278.12,-88 173.62,-88 173.62,-56 278.12,-56 278.12,-88"/>
<text xml:space="preserve" text-anchor="start" x="181.62" y="-74.5" font-family="Helvetica,sans-Serif" font-size="10.00">MidiKeyboardState::</text>
<text xml:space="preserve" text-anchor="middle" x="225.88" y="-62.5" font-family="Helvetica,sans-Serif" font-size="10.00">Listener</text>
</a>
</g>
</g>
<!-- Node6&#45;&gt;Node1 -->
<g id="edge5_Node000001_Node000006" class="edge">
<title>Node6&#45;&gt;Node1</title>
<g id="a_edge5_Node000001_Node000006"><a xlink:title=" ">
<path fill="none" stroke="#8b1a1a" d="M225.88,-44.08C225.88,-35.6 225.88,-26.8 225.88,-20.41"/>
<polygon fill="#8b1a1a" stroke="#8b1a1a" points="222.38,-44.03 225.88,-54.03 229.38,-44.03 222.38,-44.03"/>
</a>
</g>
</g>
<!-- Node7 -->
<g id="Node000007" class="node">
<title>Node7</title>
<g id="a_Node000007"><a xlink:href="classTimer.html" target="_top" xlink:title="Makes repeated callbacks to a virtual method at a specified time interval.">
<polygon fill="white" stroke="#666666" points="337.25,-82 296.5,-82 296.5,-62 337.25,-62 337.25,-82"/>
<text xml:space="preserve" text-anchor="middle" x="316.88" y="-68.5" font-family="Helvetica,sans-Serif" font-size="10.00">Timer</text>
</a>
</g>
</g>
<!-- Node7&#45;&gt;Node1 -->
<g id="edge6_Node000001_Node000007" class="edge">
<title>Node7&#45;&gt;Node1</title>
<g id="a_edge6_Node000001_Node000007"><a xlink:title=" ">
<path fill="none" stroke="#8b1a1a" d="M293.42,-55.54C276.51,-44.39 254.25,-29.71 239.99,-20.31"/>
<polygon fill="#8b1a1a" stroke="#8b1a1a" points="291.12,-58.21 301.39,-60.79 294.97,-52.37 291.12,-58.21"/>
</a>
</g>
</g>
</g>
</svg>
