<?xml version="1.0" encoding="UTF-8" standalone="no"?>
<!DOCTYPE svg PUBLIC "-//W3C//DTD SVG 1.1//EN"
 "http://www.w3.org/Graphics/SVG/1.1/DTD/svg11.dtd">
<!-- Generated by graphviz version 13.1.0 (20250701.0955)
 -->
<!-- Title: Slider Pages: 1 -->
<svg width="205pt" height="140pt"
 viewBox="0.00 0.00 205.00 140.00" xmlns="http://www.w3.org/2000/svg" xmlns:xlink="http://www.w3.org/1999/xlink">
<g id="graph0" class="graph" transform="scale(1 1) rotate(0) translate(4 136)">
<title>Slider</title>
<!-- Node1 -->
<g id="Node000001" class="node">
<title>Node1</title>
<g id="a_Node000001"><a xlink:title="A slider control for changing a value.">
<polygon fill="#999999" stroke="#666666" points="112.25,-20 71.5,-20 71.5,0 112.25,0 112.25,-20"/>
<text xml:space="preserve" text-anchor="middle" x="91.88" y="-6.5" font-family="Helvetica,sans-Serif" font-size="10.00">Slider</text>
</a>
</g>
</g>
<!-- Node2 -->
<g id="Node000002" class="node">
<title>Node2</title>
<g id="a_Node000002"><a xlink:href="classComponent.html" target="_top" xlink:title="The base class for all JUCE user&#45;interface objects.">
<polygon fill="white" stroke="#666666" points="73,-76 6.75,-76 6.75,-56 73,-56 73,-76"/>
<text xml:space="preserve" text-anchor="middle" x="39.88" y="-62.5" font-family="Helvetica,sans-Serif" font-size="10.00">Component</text>
</a>
</g>
</g>
<!-- Node2&#45;&gt;Node1 -->
<g id="edge1_Node000001_Node000002" class="edge">
<title>Node2&#45;&gt;Node1</title>
<g id="a_edge1_Node000001_Node000002"><a xlink:title=" ">
<path fill="none" stroke="#63b8ff" d="M56.66,-47.57C65.39,-38.5 75.72,-27.78 82.92,-20.3"/>
<polygon fill="#63b8ff" stroke="#63b8ff" points="54.4,-44.87 49.98,-54.5 59.44,-49.73 54.4,-44.87"/>
</a>
</g>
</g>
<!-- Node3 -->
<g id="Node000003" class="node">
<title>Node3</title>
<g id="a_Node000003"><a xlink:href="classMouseListener.html" target="_top" xlink:title="A MouseListener can be registered with a component to receive callbacks about mouse events that happe...">
<polygon fill="white" stroke="#666666" points="79.75,-132 0,-132 0,-112 79.75,-112 79.75,-132"/>
<text xml:space="preserve" text-anchor="middle" x="39.88" y="-118.5" font-family="Helvetica,sans-Serif" font-size="10.00">MouseListener</text>
</a>
</g>
</g>
<!-- Node3&#45;&gt;Node2 -->
<g id="edge2_Node000002_Node000003" class="edge">
<title>Node3&#45;&gt;Node2</title>
<g id="a_edge2_Node000002_Node000003"><a xlink:title=" ">
<path fill="none" stroke="#63b8ff" d="M39.88,-100.13C39.88,-91.9 39.88,-82.85 39.88,-76.3"/>
<polygon fill="#63b8ff" stroke="#63b8ff" points="36.38,-100.08 39.88,-110.08 43.38,-100.08 36.38,-100.08"/>
</a>
</g>
</g>
<!-- Node4 -->
<g id="Node000004" class="node">
<title>Node4</title>
<g id="a_Node000004"><a xlink:href="classSettableTooltipClient.html" target="_top" xlink:title="An implementation of TooltipClient that stores the tooltip string and a method for changing it.">
<polygon fill="white" stroke="#666666" points="196.88,-76 90.88,-76 90.88,-56 196.88,-56 196.88,-76"/>
<text xml:space="preserve" text-anchor="middle" x="143.88" y="-62.5" font-family="Helvetica,sans-Serif" font-size="10.00">SettableTooltipClient</text>
</a>
</g>
</g>
<!-- Node4&#45;&gt;Node1 -->
<g id="edge3_Node000001_Node000004" class="edge">
<title>Node4&#45;&gt;Node1</title>
<g id="a_edge3_Node000001_Node000004"><a xlink:title=" ">
<path fill="none" stroke="#63b8ff" d="M127.09,-47.57C118.36,-38.5 108.03,-27.78 100.83,-20.3"/>
<polygon fill="#63b8ff" stroke="#63b8ff" points="124.31,-49.73 133.77,-54.5 129.35,-44.87 124.31,-49.73"/>
</a>
</g>
</g>
<!-- Node5 -->
<g id="Node000005" class="node">
<title>Node5</title>
<g id="a_Node000005"><a xlink:href="classTooltipClient.html" target="_top" xlink:title="Components that want to use pop&#45;up tooltips should implement this interface.">
<polygon fill="white" stroke="#666666" points="178.88,-132 108.88,-132 108.88,-112 178.88,-112 178.88,-132"/>
<text xml:space="preserve" text-anchor="middle" x="143.88" y="-118.5" font-family="Helvetica,sans-Serif" font-size="10.00">TooltipClient</text>
</a>
</g>
</g>
<!-- Node5&#45;&gt;Node4 -->
<g id="edge4_Node000004_Node000005" class="edge">
<title>Node5&#45;&gt;Node4</title>
<g id="a_edge4_Node000004_Node000005"><a xlink:title=" ">
<path fill="none" stroke="#63b8ff" d="M143.88,-100.13C143.88,-91.9 143.88,-82.85 143.88,-76.3"/>
<polygon fill="#63b8ff" stroke="#63b8ff" points="140.38,-100.08 143.88,-110.08 147.38,-100.08 140.38,-100.08"/>
</a>
</g>
</g>
</g>
</svg>
