<?xml version="1.0" encoding="UTF-8" standalone="no"?>
<!DOCTYPE svg PUBLIC "-//W3C//DTD SVG 1.1//EN"
 "http://www.w3.org/Graphics/SVG/1.1/DTD/svg11.dtd">
<!-- Generated by graphviz version 13.1.0 (20250701.0955)
 -->
<!-- Title: DrawableShape Pages: 1 -->
<svg width="206pt" height="252pt"
 viewBox="0.00 0.00 206.00 252.00" xmlns="http://www.w3.org/2000/svg" xmlns:xlink="http://www.w3.org/1999/xlink">
<g id="graph0" class="graph" transform="scale(1 1) rotate(0) translate(4 248)">
<title>DrawableShape</title>
<!-- Node1 -->
<g id="Node000001" class="node">
<title>Node1</title>
<g id="a_Node000001"><a xlink:title="A base class implementing common functionality for Drawable classes which consist of some kind of fil...">
<polygon fill="#999999" stroke="#666666" points="135.25,-76 50.25,-76 50.25,-56 135.25,-56 135.25,-76"/>
<text xml:space="preserve" text-anchor="middle" x="92.75" y="-62.5" font-family="Helvetica,sans-Serif" font-size="10.00">DrawableShape</text>
</a>
</g>
</g>
<!-- Node5 -->
<g id="Node000005" class="node">
<title>Node5</title>
<g id="a_Node000005"><a xlink:href="classDrawablePath.html" target="_top" xlink:title="A drawable object which renders a filled or outlined shape.">
<polygon fill="white" stroke="#666666" points="77.5,-20 0,-20 0,0 77.5,0 77.5,-20"/>
<text xml:space="preserve" text-anchor="middle" x="38.75" y="-6.5" font-family="Helvetica,sans-Serif" font-size="10.00">DrawablePath</text>
</a>
</g>
</g>
<!-- Node1&#45;&gt;Node5 -->
<g id="edge4_Node000001_Node000005" class="edge">
<title>Node1&#45;&gt;Node5</title>
<g id="a_edge4_Node000001_Node000005"><a xlink:title=" ">
<path fill="none" stroke="#63b8ff" d="M75.32,-47.57C66.25,-38.5 55.53,-27.78 48.05,-20.3"/>
<polygon fill="#63b8ff" stroke="#63b8ff" points="72.73,-49.93 82.27,-54.52 77.68,-44.98 72.73,-49.93"/>
</a>
</g>
</g>
<!-- Node6 -->
<g id="Node000006" class="node">
<title>Node6</title>
<g id="a_Node000006"><a xlink:href="classDrawableRectangle.html" target="_top" xlink:title="A Drawable object which draws a rectangle.">
<polygon fill="white" stroke="#666666" points="197.5,-20 96,-20 96,0 197.5,0 197.5,-20"/>
<text xml:space="preserve" text-anchor="middle" x="146.75" y="-6.5" font-family="Helvetica,sans-Serif" font-size="10.00">DrawableRectangle</text>
</a>
</g>
</g>
<!-- Node1&#45;&gt;Node6 -->
<g id="edge5_Node000001_Node000006" class="edge">
<title>Node1&#45;&gt;Node6</title>
<g id="a_edge5_Node000001_Node000006"><a xlink:title=" ">
<path fill="none" stroke="#63b8ff" d="M110.18,-47.57C119.25,-38.5 129.97,-27.78 137.45,-20.3"/>
<polygon fill="#63b8ff" stroke="#63b8ff" points="107.82,-44.98 103.23,-54.52 112.77,-49.93 107.82,-44.98"/>
</a>
</g>
</g>
<!-- Node2 -->
<g id="Node000002" class="node">
<title>Node2</title>
<g id="a_Node000002"><a xlink:href="classDrawable.html" target="_top" xlink:title="The base class for objects which can draw themselves, e.g.">
<polygon fill="white" stroke="#666666" points="121.38,-132 64.12,-132 64.12,-112 121.38,-112 121.38,-132"/>
<text xml:space="preserve" text-anchor="middle" x="92.75" y="-118.5" font-family="Helvetica,sans-Serif" font-size="10.00">Drawable</text>
</a>
</g>
</g>
<!-- Node2&#45;&gt;Node1 -->
<g id="edge1_Node000001_Node000002" class="edge">
<title>Node2&#45;&gt;Node1</title>
<g id="a_edge1_Node000001_Node000002"><a xlink:title=" ">
<path fill="none" stroke="#63b8ff" d="M92.75,-100.13C92.75,-91.9 92.75,-82.85 92.75,-76.3"/>
<polygon fill="#63b8ff" stroke="#63b8ff" points="89.25,-100.08 92.75,-110.08 96.25,-100.08 89.25,-100.08"/>
</a>
</g>
</g>
<!-- Node3 -->
<g id="Node000003" class="node">
<title>Node3</title>
<g id="a_Node000003"><a xlink:href="classComponent.html" target="_top" xlink:title="The base class for all JUCE user&#45;interface objects.">
<polygon fill="white" stroke="#666666" points="125.88,-188 59.62,-188 59.62,-168 125.88,-168 125.88,-188"/>
<text xml:space="preserve" text-anchor="middle" x="92.75" y="-174.5" font-family="Helvetica,sans-Serif" font-size="10.00">Component</text>
</a>
</g>
</g>
<!-- Node3&#45;&gt;Node2 -->
<g id="edge2_Node000002_Node000003" class="edge">
<title>Node3&#45;&gt;Node2</title>
<g id="a_edge2_Node000002_Node000003"><a xlink:title=" ">
<path fill="none" stroke="#63b8ff" d="M92.75,-156.13C92.75,-147.9 92.75,-138.85 92.75,-132.3"/>
<polygon fill="#63b8ff" stroke="#63b8ff" points="89.25,-156.08 92.75,-166.08 96.25,-156.08 89.25,-156.08"/>
</a>
</g>
</g>
<!-- Node4 -->
<g id="Node000004" class="node">
<title>Node4</title>
<g id="a_Node000004"><a xlink:href="classMouseListener.html" target="_top" xlink:title="A MouseListener can be registered with a component to receive callbacks about mouse events that happe...">
<polygon fill="white" stroke="#666666" points="132.62,-244 52.88,-244 52.88,-224 132.62,-224 132.62,-244"/>
<text xml:space="preserve" text-anchor="middle" x="92.75" y="-230.5" font-family="Helvetica,sans-Serif" font-size="10.00">MouseListener</text>
</a>
</g>
</g>
<!-- Node4&#45;&gt;Node3 -->
<g id="edge3_Node000003_Node000004" class="edge">
<title>Node4&#45;&gt;Node3</title>
<g id="a_edge3_Node000003_Node000004"><a xlink:title=" ">
<path fill="none" stroke="#63b8ff" d="M92.75,-212.13C92.75,-203.9 92.75,-194.85 92.75,-188.3"/>
<polygon fill="#63b8ff" stroke="#63b8ff" points="89.25,-212.08 92.75,-222.08 96.25,-212.08 89.25,-212.08"/>
</a>
</g>
</g>
</g>
</svg>
