<?xml version="1.0" encoding="UTF-8" standalone="no"?>
<!DOCTYPE svg PUBLIC "-//W3C//DTD SVG 1.1//EN"
 "http://www.w3.org/Graphics/SVG/1.1/DTD/svg11.dtd">
<!-- Generated by graphviz version 13.1.0 (20250701.0955)
 -->
<!-- Title: Value::Listener Pages: 1 -->
<svg width="434pt" height="84pt"
 viewBox="0.00 0.00 434.00 84.00" xmlns="http://www.w3.org/2000/svg" xmlns:xlink="http://www.w3.org/1999/xlink">
<g id="graph0" class="graph" transform="scale(1 1) rotate(0) translate(4 80)">
<title>Value::Listener</title>
<!-- Node1 -->
<g id="Node000001" class="node">
<title>Node1</title>
<g id="a_Node000001"><a xlink:title="Receives callbacks when a Value object changes.">
<polygon fill="#999999" stroke="#666666" points="191.62,-76 111.12,-76 111.12,-56 191.62,-56 191.62,-76"/>
<text xml:space="preserve" text-anchor="middle" x="151.38" y="-62.5" font-family="Helvetica,sans-Serif" font-size="10.00">Value::Listener</text>
</a>
</g>
</g>
<!-- Node2 -->
<g id="Node000002" class="node">
<title>Node2</title>
<g id="a_Node000002"><a xlink:href="classComboBox.html" target="_top" xlink:title="A component that lets the user choose from a drop&#45;down list of choices.">
<polygon fill="white" stroke="#666666" points="64.75,-20 0,-20 0,0 64.75,0 64.75,-20"/>
<text xml:space="preserve" text-anchor="middle" x="32.38" y="-6.5" font-family="Helvetica,sans-Serif" font-size="10.00">ComboBox</text>
</a>
</g>
</g>
<!-- Node1&#45;&gt;Node2 -->
<g id="edge1_Node000001_Node000002" class="edge">
<title>Node1&#45;&gt;Node2</title>
<g id="a_edge1_Node000001_Node000002"><a xlink:title=" ">
<path fill="none" stroke="#63b8ff" d="M120.25,-50.88C99.14,-41.3 71.8,-28.89 53.26,-20.48"/>
<polygon fill="#63b8ff" stroke="#63b8ff" points="118.72,-54.02 129.27,-54.97 121.61,-47.65 118.72,-54.02"/>
</a>
</g>
</g>
<!-- Node3 -->
<g id="Node000003" class="node">
<title>Node3</title>
<g id="a_Node000003"><a xlink:href="classLabel.html" target="_top" xlink:title="A component that displays a text string, and can optionally become a text editor when clicked.">
<polygon fill="white" stroke="#666666" points="122,-20 82.75,-20 82.75,0 122,0 122,-20"/>
<text xml:space="preserve" text-anchor="middle" x="102.38" y="-6.5" font-family="Helvetica,sans-Serif" font-size="10.00">Label</text>
</a>
</g>
</g>
<!-- Node1&#45;&gt;Node3 -->
<g id="edge2_Node000001_Node000003" class="edge">
<title>Node1&#45;&gt;Node3</title>
<g id="a_edge2_Node000001_Node000003"><a xlink:title=" ">
<path fill="none" stroke="#8b1a1a" d="M135.3,-47.29C127.13,-38.28 117.53,-27.7 110.81,-20.3"/>
<polygon fill="#8b1a1a" stroke="#8b1a1a" points="132.51,-49.42 141.82,-54.47 137.69,-44.72 132.51,-49.42"/>
</a>
</g>
</g>
<!-- Node4 -->
<g id="Node000004" class="node">
<title>Node4</title>
<g id="a_Node000004"><a xlink:href="classStandalonePluginHolder.html" target="_top" xlink:title="An object that creates and plays a standalone instance of an AudioProcessor.">
<polygon fill="white" stroke="#666666" points="260.5,-20 140.25,-20 140.25,0 260.5,0 260.5,-20"/>
<text xml:space="preserve" text-anchor="middle" x="200.38" y="-6.5" font-family="Helvetica,sans-Serif" font-size="10.00">StandalonePluginHolder</text>
</a>
</g>
</g>
<!-- Node1&#45;&gt;Node4 -->
<g id="edge3_Node000001_Node000004" class="edge">
<title>Node1&#45;&gt;Node4</title>
<g id="a_edge3_Node000001_Node000004"><a xlink:title=" ">
<path fill="none" stroke="#8b1a1a" d="M167.45,-47.29C175.62,-38.28 185.22,-27.7 191.94,-20.3"/>
<polygon fill="#8b1a1a" stroke="#8b1a1a" points="165.06,-44.72 160.93,-54.47 170.24,-49.42 165.06,-44.72"/>
</a>
</g>
</g>
<!-- Node5 -->
<g id="Node000005" class="node">
<title>Node5</title>
<g id="a_Node000005"><a xlink:href="classValueTreePropertyWithDefault.html" target="_top" xlink:title="This class acts as a wrapper around a property inside a ValueTree.">
<polygon fill="white" stroke="#666666" points="426.38,-20 278.38,-20 278.38,0 426.38,0 426.38,-20"/>
<text xml:space="preserve" text-anchor="middle" x="352.38" y="-6.5" font-family="Helvetica,sans-Serif" font-size="10.00">ValueTreePropertyWithDefault</text>
</a>
</g>
</g>
<!-- Node1&#45;&gt;Node5 -->
<g id="edge4_Node000001_Node000005" class="edge">
<title>Node1&#45;&gt;Node5</title>
<g id="a_edge4_Node000001_Node000005"><a xlink:title=" ">
<path fill="none" stroke="#8b1a1a" d="M197.21,-52.69C233.61,-42.91 283.77,-29.43 317.09,-20.48"/>
<polygon fill="#8b1a1a" stroke="#8b1a1a" points="196.6,-49.23 187.85,-55.2 198.41,-55.99 196.6,-49.23"/>
</a>
</g>
</g>
</g>
</svg>
