<?xml version="1.0" encoding="UTF-8" standalone="no"?>
<!DOCTYPE svg PUBLIC "-//W3C//DTD SVG 1.1//EN"
 "http://www.w3.org/Graphics/SVG/1.1/DTD/svg11.dtd">
<!-- Generated by graphviz version 13.1.0 (20250701.0955)
 -->
<!-- Title: ARAAudioModification Pages: 1 -->
<svg width="258pt" height="96pt"
 viewBox="0.00 0.00 258.00 96.00" xmlns="http://www.w3.org/2000/svg" xmlns:xlink="http://www.w3.org/1999/xlink">
<g id="graph0" class="graph" transform="scale(1 1) rotate(0) translate(4 92)">
<title>ARAAudioModification</title>
<!-- Node1 -->
<g id="Node000001" class="node">
<title>Node1</title>
<g id="a_Node000001"><a xlink:title="Base class representing an ARA audio modification.">
<polygon fill="#999999" stroke="#666666" points="207.12,-20 92.88,-20 92.88,0 207.12,0 207.12,-20"/>
<text xml:space="preserve" text-anchor="middle" x="150" y="-6.5" font-family="Helvetica,sans-Serif" font-size="10.00">ARAAudioModification</text>
</a>
</g>
</g>
<!-- Node2 -->
<g id="Node000002" class="node">
<title>Node2</title>
<g id="a_Node000002"><a xlink:href="classARAListenableModelClass.html" target="_top" xlink:title=" ">
<polygon fill="white" stroke="#666666" points="166,-88 0,-88 0,-56 166,-56 166,-88"/>
<text xml:space="preserve" text-anchor="start" x="8" y="-74.5" font-family="Helvetica,sans-Serif" font-size="10.00">ARAListenableModelClass</text>
<text xml:space="preserve" text-anchor="middle" x="83" y="-62.5" font-family="Helvetica,sans-Serif" font-size="10.00">&lt; ARAAudioModificationListener &gt;</text>
</a>
</g>
</g>
<!-- Node2&#45;&gt;Node1 -->
<g id="edge1_Node000001_Node000002" class="edge">
<title>Node2&#45;&gt;Node1</title>
<g id="a_edge1_Node000001_Node000002"><a xlink:title=" ">
<path fill="none" stroke="#63b8ff" d="M108.54,-48.13C119.29,-38.5 131.21,-27.83 139.49,-20.41"/>
<polygon fill="#63b8ff" stroke="#63b8ff" points="106.5,-45.26 101.38,-54.54 111.17,-50.47 106.5,-45.26"/>
</a>
</g>
</g>
<!-- Node3 -->
<g id="Node000003" class="node">
<title>Node3</title>
<g id="a_Node000003"><a xlink:href="classARAObject.html" target="_top" xlink:title="Common base class for all JUCE ARA model objects to aid with the discovery and traversal of the entir...">
<polygon fill="white" stroke="#666666" points="249.75,-82 184.25,-82 184.25,-62 249.75,-62 249.75,-82"/>
<text xml:space="preserve" text-anchor="middle" x="217" y="-68.5" font-family="Helvetica,sans-Serif" font-size="10.00">ARAObject</text>
</a>
</g>
</g>
<!-- Node3&#45;&gt;Node1 -->
<g id="edge2_Node000001_Node000003" class="edge">
<title>Node3&#45;&gt;Node1</title>
<g id="a_edge2_Node000001_Node000003"><a xlink:title=" ">
<path fill="none" stroke="#63b8ff" d="M198.27,-54.22C185.93,-43.18 170.26,-29.14 160.18,-20.11"/>
<polygon fill="#63b8ff" stroke="#63b8ff" points="195.62,-56.55 205.4,-60.62 200.29,-51.34 195.62,-56.55"/>
</a>
</g>
</g>
</g>
</svg>
