<?xml version="1.0" encoding="UTF-8" standalone="no"?>
<!DOCTYPE svg PUBLIC "-//W3C//DTD SVG 1.1//EN"
 "http://www.w3.org/Graphics/SVG/1.1/DTD/svg11.dtd">
<!-- Generated by graphviz version 13.1.0 (20250701.0955)
 -->
<!-- Title: FileBrowserComponent Pages: 1 -->
<svg width="331pt" height="140pt"
 viewBox="0.00 0.00 331.00 140.00" xmlns="http://www.w3.org/2000/svg" xmlns:xlink="http://www.w3.org/1999/xlink">
<g id="graph0" class="graph" transform="scale(1 1) rotate(0) translate(4 136)">
<title>FileBrowserComponent</title>
<!-- Node1 -->
<g id="Node000001" class="node">
<title>Node1</title>
<g id="a_Node000001"><a xlink:title="A component for browsing and selecting a file or directory to open or save.">
<polygon fill="#999999" stroke="#666666" points="248.88,-20 130.88,-20 130.88,0 248.88,0 248.88,-20"/>
<text xml:space="preserve" text-anchor="middle" x="189.88" y="-6.5" font-family="Helvetica,sans-Serif" font-size="10.00">FileBrowserComponent</text>
</a>
</g>
</g>
<!-- Node2 -->
<g id="Node000002" class="node">
<title>Node2</title>
<g id="a_Node000002"><a xlink:href="classComponent.html" target="_top" xlink:title="The base class for all JUCE user&#45;interface objects.">
<polygon fill="white" stroke="#666666" points="73,-76 6.75,-76 6.75,-56 73,-56 73,-76"/>
<text xml:space="preserve" text-anchor="middle" x="39.88" y="-62.5" font-family="Helvetica,sans-Serif" font-size="10.00">Component</text>
</a>
</g>
</g>
<!-- Node2&#45;&gt;Node1 -->
<g id="edge1_Node000001_Node000002" class="edge">
<title>Node2&#45;&gt;Node1</title>
<g id="a_edge1_Node000001_Node000002"><a xlink:title=" ">
<path fill="none" stroke="#63b8ff" d="M76.57,-51.79C103.49,-42.1 139.43,-29.16 163.54,-20.48"/>
<polygon fill="#63b8ff" stroke="#63b8ff" points="75.65,-48.4 67.43,-55.08 78.02,-54.99 75.65,-48.4"/>
</a>
</g>
</g>
<!-- Node3 -->
<g id="Node000003" class="node">
<title>Node3</title>
<g id="a_Node000003"><a xlink:href="classMouseListener.html" target="_top" xlink:title="A MouseListener can be registered with a component to receive callbacks about mouse events that happe...">
<polygon fill="white" stroke="#666666" points="79.75,-132 0,-132 0,-112 79.75,-112 79.75,-132"/>
<text xml:space="preserve" text-anchor="middle" x="39.88" y="-118.5" font-family="Helvetica,sans-Serif" font-size="10.00">MouseListener</text>
</a>
</g>
</g>
<!-- Node3&#45;&gt;Node2 -->
<g id="edge2_Node000002_Node000003" class="edge">
<title>Node3&#45;&gt;Node2</title>
<g id="a_edge2_Node000002_Node000003"><a xlink:title=" ">
<path fill="none" stroke="#63b8ff" d="M39.88,-100.13C39.88,-91.9 39.88,-82.85 39.88,-76.3"/>
<polygon fill="#63b8ff" stroke="#63b8ff" points="36.38,-100.08 39.88,-110.08 43.38,-100.08 36.38,-100.08"/>
</a>
</g>
</g>
<!-- Node4 -->
<g id="Node000004" class="node">
<title>Node4</title>
<g id="a_Node000004"><a xlink:href="classFileBrowserListener.html" target="_top" xlink:title="A listener for user selection events in a file browser.">
<polygon fill="white" stroke="#666666" points="193,-76 90.75,-76 90.75,-56 193,-56 193,-76"/>
<text xml:space="preserve" text-anchor="middle" x="141.88" y="-62.5" font-family="Helvetica,sans-Serif" font-size="10.00">FileBrowserListener</text>
</a>
</g>
</g>
<!-- Node4&#45;&gt;Node1 -->
<g id="edge3_Node000001_Node000004" class="edge">
<title>Node4&#45;&gt;Node1</title>
<g id="a_edge3_Node000001_Node000004"><a xlink:title=" ">
<path fill="none" stroke="#8b1a1a" d="M157.87,-47C165.82,-38.06 175.1,-27.62 181.61,-20.3"/>
<polygon fill="#8b1a1a" stroke="#8b1a1a" points="155.27,-44.66 151.24,-54.46 160.5,-49.31 155.27,-44.66"/>
</a>
</g>
</g>
<!-- Node5 -->
<g id="Node000005" class="node">
<title>Node5</title>
<g id="a_Node000005"><a xlink:href="classFileFilter.html" target="_top" xlink:title="Interface for deciding which files are suitable for something.">
<polygon fill="white" stroke="#666666" points="264.62,-76 211.12,-76 211.12,-56 264.62,-56 264.62,-76"/>
<text xml:space="preserve" text-anchor="middle" x="237.88" y="-62.5" font-family="Helvetica,sans-Serif" font-size="10.00">FileFilter</text>
</a>
</g>
</g>
<!-- Node5&#45;&gt;Node1 -->
<g id="edge4_Node000001_Node000005" class="edge">
<title>Node5&#45;&gt;Node1</title>
<g id="a_edge4_Node000001_Node000005"><a xlink:title=" ">
<path fill="none" stroke="#8b1a1a" d="M221.88,-47C213.93,-38.06 204.65,-27.62 198.14,-20.3"/>
<polygon fill="#8b1a1a" stroke="#8b1a1a" points="219.25,-49.31 228.51,-54.46 224.48,-44.66 219.25,-49.31"/>
</a>
</g>
</g>
<!-- Node6 -->
<g id="Node000006" class="node">
<title>Node6</title>
<g id="a_Node000006"><a xlink:href="classTimer.html" target="_top" xlink:title="Makes repeated callbacks to a virtual method at a specified time interval.">
<polygon fill="white" stroke="#666666" points="323.25,-76 282.5,-76 282.5,-56 323.25,-56 323.25,-76"/>
<text xml:space="preserve" text-anchor="middle" x="302.88" y="-62.5" font-family="Helvetica,sans-Serif" font-size="10.00">Timer</text>
</a>
</g>
</g>
<!-- Node6&#45;&gt;Node1 -->
<g id="edge5_Node000001_Node000006" class="edge">
<title>Node6&#45;&gt;Node1</title>
<g id="a_edge5_Node000001_Node000006"><a xlink:title=" ">
<path fill="none" stroke="#8b1a1a" d="M273.05,-50.75C253.04,-41.18 227.23,-28.85 209.71,-20.48"/>
<polygon fill="#8b1a1a" stroke="#8b1a1a" points="271.29,-53.79 281.83,-54.94 274.31,-47.47 271.29,-53.79"/>
</a>
</g>
</g>
</g>
</svg>
