<?xml version="1.0" encoding="UTF-8" standalone="no"?>
<!DOCTYPE svg PUBLIC "-//W3C//DTD SVG 1.1//EN"
 "http://www.w3.org/Graphics/SVG/1.1/DTD/svg11.dtd">
<!-- Generated by graphviz version 13.1.0 (20250701.0955)
 -->
<!-- Title: ARAPlaybackRegionReader Pages: 1 -->
<svg width="244pt" height="96pt"
 viewBox="0.00 0.00 244.00 96.00" xmlns="http://www.w3.org/2000/svg" xmlns:xlink="http://www.w3.org/1999/xlink">
<g id="graph0" class="graph" transform="scale(1 1) rotate(0) translate(4 92)">
<title>ARAPlaybackRegionReader</title>
<!-- Node1 -->
<g id="Node000001" class="node">
<title>Node1</title>
<g id="a_Node000001"><a xlink:title="Subclass of AudioFormatReader that reads samples from a group of playback regions.">
<polygon fill="#999999" stroke="#666666" points="184.38,-20 44.62,-20 44.62,0 184.38,0 184.38,-20"/>
<text xml:space="preserve" text-anchor="middle" x="114.5" y="-6.5" font-family="Helvetica,sans-Serif" font-size="10.00">ARAPlaybackRegionReader</text>
</a>
</g>
</g>
<!-- Node2 -->
<g id="Node000002" class="node">
<title>Node2</title>
<g id="a_Node000002"><a xlink:href="classAudioFormatReader.html" target="_top" xlink:title="Reads samples from an audio file stream.">
<polygon fill="white" stroke="#666666" points="103,-82 0,-82 0,-62 103,-62 103,-82"/>
<text xml:space="preserve" text-anchor="middle" x="51.5" y="-68.5" font-family="Helvetica,sans-Serif" font-size="10.00">AudioFormatReader</text>
</a>
</g>
</g>
<!-- Node2&#45;&gt;Node1 -->
<g id="edge1_Node000001_Node000002" class="edge">
<title>Node2&#45;&gt;Node1</title>
<g id="a_edge1_Node000001_Node000002"><a xlink:title=" ">
<path fill="none" stroke="#63b8ff" d="M69.45,-53.9C81,-42.91 95.54,-29.05 104.93,-20.11"/>
<polygon fill="#63b8ff" stroke="#63b8ff" points="67.27,-51.15 62.44,-60.58 72.09,-56.22 67.27,-51.15"/>
</a>
</g>
</g>
<!-- Node3 -->
<g id="Node000003" class="node">
<title>Node3</title>
<g id="a_Node000003"><a xlink:href="classARAPlaybackRegionListener.html" target="_top" xlink:title="A base class for listeners that want to know about changes to an ARAPlaybackRegion object.">
<polygon fill="white" stroke="#666666" points="235.62,-88 121.38,-88 121.38,-56 235.62,-56 235.62,-88"/>
<text xml:space="preserve" text-anchor="start" x="129.38" y="-74.5" font-family="Helvetica,sans-Serif" font-size="10.00">ARAPlaybackRegion::</text>
<text xml:space="preserve" text-anchor="middle" x="178.5" y="-62.5" font-family="Helvetica,sans-Serif" font-size="10.00">Listener</text>
</a>
</g>
</g>
<!-- Node3&#45;&gt;Node1 -->
<g id="edge2_Node000001_Node000003" class="edge">
<title>Node3&#45;&gt;Node1</title>
<g id="a_edge2_Node000001_Node000003"><a xlink:title=" ">
<path fill="none" stroke="#8b1a1a" d="M153.8,-47.84C143.61,-38.29 132.37,-27.76 124.54,-20.41"/>
<polygon fill="#8b1a1a" stroke="#8b1a1a" points="151.23,-50.23 160.91,-54.51 156.01,-45.12 151.23,-50.23"/>
</a>
</g>
</g>
</g>
</svg>
