<?xml version="1.0" encoding="UTF-8" standalone="no"?>
<!DOCTYPE svg PUBLIC "-//W3C//DTD SVG 1.1//EN"
 "http://www.w3.org/Graphics/SVG/1.1/DTD/svg11.dtd">
<!-- Generated by graphviz version 13.1.0 (20250701.0955)
 -->
<!-- Title: Thread Pages: 1 -->
<svg width="238pt" height="242pt"
 viewBox="0.00 0.00 238.00 242.00" xmlns="http://www.w3.org/2000/svg" xmlns:xlink="http://www.w3.org/1999/xlink">
<g id="graph0" class="graph" transform="scale(1 1) rotate(0) translate(4 238)">
<title>Thread</title>
<!-- Node1 -->
<g id="Node000001" class="node">
<title>Node1</title>
<g id="a_Node000001"><a xlink:title="Encapsulates a thread.">
<polygon fill="#999999" stroke="#666666" points="46,-127 0,-127 0,-107 46,-107 46,-127"/>
<text xml:space="preserve" text-anchor="middle" x="23" y="-113.5" font-family="Helvetica,sans-Serif" font-size="10.00">Thread</text>
</a>
</g>
</g>
<!-- Node2 -->
<g id="Node000002" class="node">
<title>Node2</title>
<g id="a_Node000002"><a xlink:href="classInterprocessConnectionServer.html" target="_top" xlink:title="An object that waits for client sockets to connect to a port on this host, and creates InterprocessCo...">
<polygon fill="white" stroke="#666666" points="230,-234 82,-234 82,-214 230,-214 230,-234"/>
<text xml:space="preserve" text-anchor="middle" x="156" y="-220.5" font-family="Helvetica,sans-Serif" font-size="10.00">InterprocessConnectionServer</text>
</a>
</g>
</g>
<!-- Node1&#45;&gt;Node2 -->
<g id="edge1_Node000001_Node000002" class="edge">
<title>Node1&#45;&gt;Node2</title>
<g id="a_edge1_Node000001_Node000002"><a xlink:title=" ">
<path fill="none" stroke="#8b1a1a" d="M32.38,-137.82C41.58,-158 58.26,-188 82,-205 86.79,-208.43 92.15,-211.24 97.74,-213.55"/>
<polygon fill="#8b1a1a" stroke="#8b1a1a" points="35.71,-136.69 28.54,-128.89 29.28,-139.46 35.71,-136.69"/>
</a>
</g>
</g>
<!-- Node3 -->
<g id="Node000003" class="node">
<title>Node3</title>
<g id="a_Node000003"><a xlink:href="classMidiOutput.html" target="_top" xlink:title="Represents a midi output device.">
<polygon fill="white" stroke="#666666" points="187.62,-196 124.38,-196 124.38,-176 187.62,-176 187.62,-196"/>
<text xml:space="preserve" text-anchor="middle" x="156" y="-182.5" font-family="Helvetica,sans-Serif" font-size="10.00">MidiOutput</text>
</a>
</g>
</g>
<!-- Node1&#45;&gt;Node3 -->
<g id="edge2_Node000001_Node000003" class="edge">
<title>Node1&#45;&gt;Node3</title>
<g id="a_edge2_Node000001_Node000003"><a xlink:title=" ">
<path fill="none" stroke="#8b1a1a" d="M40.95,-135.34C51.75,-146.01 66.58,-158.91 82,-167 94.99,-173.81 110.59,-178.3 124.02,-181.19"/>
<polygon fill="#8b1a1a" stroke="#8b1a1a" points="43.76,-133.2 34.27,-128.48 38.74,-138.09 43.76,-133.2"/>
</a>
</g>
</g>
<!-- Node4 -->
<g id="Node000004" class="node">
<title>Node4</title>
<g id="a_Node000004"><a xlink:href="structNetworkServiceDiscovery_1_1Advertiser.html" target="_top" xlink:title="An object which runs a thread to repeatedly broadcast the existence of a discoverable service.">
<polygon fill="white" stroke="#666666" points="221,-158 91,-158 91,-126 221,-126 221,-158"/>
<text xml:space="preserve" text-anchor="start" x="99" y="-144.5" font-family="Helvetica,sans-Serif" font-size="10.00">NetworkServiceDiscovery</text>
<text xml:space="preserve" text-anchor="middle" x="156" y="-132.5" font-family="Helvetica,sans-Serif" font-size="10.00">::Advertiser</text>
</a>
</g>
</g>
<!-- Node1&#45;&gt;Node4 -->
<g id="edge3_Node000001_Node000004" class="edge">
<title>Node1&#45;&gt;Node4</title>
<g id="a_edge3_Node000001_Node000004"><a xlink:title=" ">
<path fill="none" stroke="#8b1a1a" d="M57.43,-123.38C67.58,-125.32 79.09,-127.51 90.56,-129.7"/>
<polygon fill="#8b1a1a" stroke="#8b1a1a" points="58.19,-119.96 47.71,-121.52 56.88,-126.84 58.19,-119.96"/>
</a>
</g>
</g>
<!-- Node5 -->
<g id="Node000005" class="node">
<title>Node5</title>
<g id="a_Node000005"><a xlink:href="structNetworkServiceDiscovery_1_1AvailableServiceList.html" target="_top" xlink:title="Watches the network for broadcasts from Advertiser objects, and keeps a list of all the currently act...">
<polygon fill="white" stroke="#666666" points="221,-108 91,-108 91,-76 221,-76 221,-108"/>
<text xml:space="preserve" text-anchor="start" x="99" y="-94.5" font-family="Helvetica,sans-Serif" font-size="10.00">NetworkServiceDiscovery</text>
<text xml:space="preserve" text-anchor="middle" x="156" y="-82.5" font-family="Helvetica,sans-Serif" font-size="10.00">::AvailableServiceList</text>
</a>
</g>
</g>
<!-- Node1&#45;&gt;Node5 -->
<g id="edge4_Node000001_Node000005" class="edge">
<title>Node1&#45;&gt;Node5</title>
<g id="a_edge4_Node000001_Node000005"><a xlink:title=" ">
<path fill="none" stroke="#8b1a1a" d="M57.43,-110.62C67.58,-108.68 79.09,-106.49 90.56,-104.3"/>
<polygon fill="#8b1a1a" stroke="#8b1a1a" points="56.88,-107.16 47.71,-112.48 58.19,-114.04 56.88,-107.16"/>
</a>
</g>
</g>
<!-- Node6 -->
<g id="Node000006" class="node">
<title>Node6</title>
<g id="a_Node000006"><a xlink:href="classThreadWithProgressWindow.html" target="_top" xlink:title="A thread that automatically pops up a modal dialog box with a progress bar and cancel button while it...">
<polygon fill="white" stroke="#666666" points="226.25,-58 85.75,-58 85.75,-38 226.25,-38 226.25,-58"/>
<text xml:space="preserve" text-anchor="middle" x="156" y="-44.5" font-family="Helvetica,sans-Serif" font-size="10.00">ThreadWithProgressWindow</text>
</a>
</g>
</g>
<!-- Node1&#45;&gt;Node6 -->
<g id="edge5_Node000001_Node000006" class="edge">
<title>Node1&#45;&gt;Node6</title>
<g id="a_edge5_Node000001_Node000006"><a xlink:title=" ">
<path fill="none" stroke="#63b8ff" d="M40.95,-98.66C51.75,-87.99 66.58,-75.09 82,-67 88.49,-63.59 95.64,-60.77 102.84,-58.43"/>
<polygon fill="#63b8ff" stroke="#63b8ff" points="38.74,-95.91 34.27,-105.52 43.76,-100.8 38.74,-95.91"/>
</a>
</g>
</g>
<!-- Node7 -->
<g id="Node000007" class="node">
<title>Node7</title>
<g id="a_Node000007"><a xlink:href="classTimeSliceThread.html" target="_top" xlink:title="A thread that keeps a list of clients, and calls each one in turn, giving them all a chance to run so...">
<polygon fill="white" stroke="#666666" points="200.75,-20 111.25,-20 111.25,0 200.75,0 200.75,-20"/>
<text xml:space="preserve" text-anchor="middle" x="156" y="-6.5" font-family="Helvetica,sans-Serif" font-size="10.00">TimeSliceThread</text>
</a>
</g>
</g>
<!-- Node1&#45;&gt;Node7 -->
<g id="edge6_Node000001_Node000007" class="edge">
<title>Node1&#45;&gt;Node7</title>
<g id="a_edge6_Node000001_Node000007"><a xlink:title=" ">
<path fill="none" stroke="#63b8ff" d="M32.38,-96.18C41.58,-76 58.26,-46 82,-29 90.52,-22.9 100.84,-18.76 111.01,-15.95"/>
<polygon fill="#63b8ff" stroke="#63b8ff" points="29.28,-94.54 28.54,-105.11 35.71,-97.31 29.28,-94.54"/>
</a>
</g>
</g>
</g>
</svg>
