<?xml version="1.0" encoding="UTF-8" standalone="no"?>
<!DOCTYPE svg PUBLIC "-//W3C//DTD SVG 1.1//EN"
 "http://www.w3.org/Graphics/SVG/1.1/DTD/svg11.dtd">
<!-- Generated by graphviz version 13.1.0 (20250701.0955)
 -->
<!-- Title: AsyncUpdater Pages: 1 -->
<svg width="269pt" height="420pt"
 viewBox="0.00 0.00 269.00 420.00" xmlns="http://www.w3.org/2000/svg" xmlns:xlink="http://www.w3.org/1999/xlink">
<g id="graph0" class="graph" transform="scale(1 1) rotate(0) translate(4 416)">
<title>AsyncUpdater</title>
<!-- Node1 -->
<g id="Node000001" class="node">
<title>Node1</title>
<g id="a_Node000001"><a xlink:title="Has a callback method that is triggered asynchronously.">
<polygon fill="#999999" stroke="#666666" points="78.25,-222 0,-222 0,-202 78.25,-202 78.25,-222"/>
<text xml:space="preserve" text-anchor="middle" x="39.12" y="-208.5" font-family="Helvetica,sans-Serif" font-size="10.00">AsyncUpdater</text>
</a>
</g>
</g>
<!-- Node2 -->
<g id="Node000002" class="node">
<title>Node2</title>
<g id="a_Node000002"><a xlink:href="classApplicationCommandManager.html" target="_top" xlink:title="One of these objects holds a list of all the commands your app can perform, and despatches these comm...">
<polygon fill="white" stroke="#666666" points="260.75,-412 114.25,-412 114.25,-392 260.75,-392 260.75,-412"/>
<text xml:space="preserve" text-anchor="middle" x="187.5" y="-398.5" font-family="Helvetica,sans-Serif" font-size="10.00">ApplicationCommandManager</text>
</a>
</g>
</g>
<!-- Node1&#45;&gt;Node2 -->
<g id="edge1_Node000001_Node000002" class="edge">
<title>Node1&#45;&gt;Node2</title>
<g id="a_edge1_Node000001_Node000002"><a xlink:title=" ">
<path fill="none" stroke="#8b1a1a" d="M43.28,-233.48C49.78,-269.84 68.13,-343.4 114.25,-383 118.28,-386.46 122.88,-389.31 127.75,-391.64"/>
<polygon fill="#8b1a1a" stroke="#8b1a1a" points="46.76,-233.09 41.7,-223.79 39.86,-234.22 46.76,-233.09"/>
</a>
</g>
</g>
<!-- Node3 -->
<g id="Node000003" class="node">
<title>Node3</title>
<g id="a_Node000003"><a xlink:href="classComboBox.html" target="_top" xlink:title="A component that lets the user choose from a drop&#45;down list of choices.">
<polygon fill="white" stroke="#666666" points="219.88,-374 155.12,-374 155.12,-354 219.88,-354 219.88,-374"/>
<text xml:space="preserve" text-anchor="middle" x="187.5" y="-360.5" font-family="Helvetica,sans-Serif" font-size="10.00">ComboBox</text>
</a>
</g>
</g>
<!-- Node1&#45;&gt;Node3 -->
<g id="edge2_Node000001_Node000003" class="edge">
<title>Node1&#45;&gt;Node3</title>
<g id="a_edge2_Node000001_Node000003"><a xlink:title=" ">
<path fill="none" stroke="#8b1a1a" d="M46.01,-232.84C55.45,-262.35 76.8,-315.95 114.25,-345 125.83,-353.98 141.26,-358.74 154.89,-361.25"/>
<polygon fill="#8b1a1a" stroke="#8b1a1a" points="49.46,-232.15 43.22,-223.59 42.76,-234.18 49.46,-232.15"/>
</a>
</g>
</g>
<!-- Node4 -->
<g id="Node000004" class="node">
<title>Node4</title>
<g id="a_Node000004"><a xlink:href="classDesktop.html" target="_top" xlink:title="Describes and controls aspects of the computer&#39;s desktop.">
<polygon fill="white" stroke="#666666" points="213.88,-336 161.12,-336 161.12,-316 213.88,-316 213.88,-336"/>
<text xml:space="preserve" text-anchor="middle" x="187.5" y="-322.5" font-family="Helvetica,sans-Serif" font-size="10.00">Desktop</text>
</a>
</g>
</g>
<!-- Node1&#45;&gt;Node4 -->
<g id="edge3_Node000001_Node000004" class="edge">
<title>Node1&#45;&gt;Node4</title>
<g id="a_edge3_Node000001_Node000004"><a xlink:title=" ">
<path fill="none" stroke="#8b1a1a" d="M50.62,-232.24C62.94,-253.99 85.41,-287.99 114.25,-307 128.11,-316.14 146.17,-320.89 160.77,-323.35"/>
<polygon fill="#8b1a1a" stroke="#8b1a1a" points="53.84,-230.83 45.98,-223.72 47.69,-234.18 53.84,-230.83"/>
</a>
</g>
</g>
<!-- Node5 -->
<g id="Node000005" class="node">
<title>Node5</title>
<g id="a_Node000005"><a xlink:href="classFilenameComponent.html" target="_top" xlink:title="Shows a filename as an editable text box, with a &#39;browse&#39; button and a drop&#45;down list for recently se...">
<polygon fill="white" stroke="#666666" points="240.5,-298 134.5,-298 134.5,-278 240.5,-278 240.5,-298"/>
<text xml:space="preserve" text-anchor="middle" x="187.5" y="-284.5" font-family="Helvetica,sans-Serif" font-size="10.00">FilenameComponent</text>
</a>
</g>
</g>
<!-- Node1&#45;&gt;Node5 -->
<g id="edge4_Node000001_Node000005" class="edge">
<title>Node1&#45;&gt;Node5</title>
<g id="a_edge4_Node000001_Node000005"><a xlink:title=" ">
<path fill="none" stroke="#8b1a1a" d="M59.09,-230.04C73.28,-242.62 93.69,-258.91 114.25,-269 121.12,-272.37 128.66,-275.2 136.2,-277.55"/>
<polygon fill="#8b1a1a" stroke="#8b1a1a" points="61.6,-227.59 51.85,-223.43 56.88,-232.76 61.6,-227.59"/>
</a>
</g>
</g>
<!-- Node6 -->
<g id="Node000006" class="node">
<title>Node6</title>
<g id="a_Node000006"><a xlink:href="classMenuBarModel.html" target="_top" xlink:title="A class for controlling MenuBar components.">
<polygon fill="white" stroke="#666666" points="228.12,-260 146.88,-260 146.88,-240 228.12,-240 228.12,-260"/>
<text xml:space="preserve" text-anchor="middle" x="187.5" y="-246.5" font-family="Helvetica,sans-Serif" font-size="10.00">MenuBarModel</text>
</a>
</g>
</g>
<!-- Node1&#45;&gt;Node6 -->
<g id="edge5_Node000001_Node000006" class="edge">
<title>Node1&#45;&gt;Node6</title>
<g id="a_edge5_Node000001_Node000006"><a xlink:title=" ">
<path fill="none" stroke="#8b1a1a" d="M89.5,-224.82C108.06,-229.64 128.91,-235.05 146.51,-239.62"/>
<polygon fill="#8b1a1a" stroke="#8b1a1a" points="90.61,-221.49 80.05,-222.36 88.85,-228.26 90.61,-221.49"/>
</a>
</g>
</g>
<!-- Node7 -->
<g id="Node000007" class="node">
<title>Node7</title>
<g id="a_Node000007"><a xlink:href="classModalComponentManager.html" target="_top" xlink:title="Manages the system&#39;s stack of modal components.">
<polygon fill="white" stroke="#666666" points="252.5,-222 122.5,-222 122.5,-202 252.5,-202 252.5,-222"/>
<text xml:space="preserve" text-anchor="middle" x="187.5" y="-208.5" font-family="Helvetica,sans-Serif" font-size="10.00">ModalComponentManager</text>
</a>
</g>
</g>
<!-- Node1&#45;&gt;Node7 -->
<g id="edge6_Node000001_Node000007" class="edge">
<title>Node1&#45;&gt;Node7</title>
<g id="a_edge6_Node000001_Node000007"><a xlink:title=" ">
<path fill="none" stroke="#8b1a1a" d="M89.96,-212C100.35,-212 111.44,-212 122.26,-212"/>
<polygon fill="#8b1a1a" stroke="#8b1a1a" points="90.1,-208.5 80.1,-212 90.1,-215.5 90.1,-208.5"/>
</a>
</g>
</g>
<!-- Node8 -->
<g id="Node000008" class="node">
<title>Node8</title>
<g id="a_Node000008"><a xlink:href="structNetworkServiceDiscovery_1_1AvailableServiceList.html" target="_top" xlink:title="Watches the network for broadcasts from Advertiser objects, and keeps a list of all the currently act...">
<polygon fill="white" stroke="#666666" points="252.5,-184 122.5,-184 122.5,-152 252.5,-152 252.5,-184"/>
<text xml:space="preserve" text-anchor="start" x="130.5" y="-170.5" font-family="Helvetica,sans-Serif" font-size="10.00">NetworkServiceDiscovery</text>
<text xml:space="preserve" text-anchor="middle" x="187.5" y="-158.5" font-family="Helvetica,sans-Serif" font-size="10.00">::AvailableServiceList</text>
</a>
</g>
</g>
<!-- Node1&#45;&gt;Node8 -->
<g id="edge7_Node000001_Node000008" class="edge">
<title>Node1&#45;&gt;Node8</title>
<g id="a_edge7_Node000001_Node000008"><a xlink:title=" ">
<path fill="none" stroke="#8b1a1a" d="M85.6,-198.33C100.21,-193.94 116.55,-189.03 131.75,-184.46"/>
<polygon fill="#8b1a1a" stroke="#8b1a1a" points="84.83,-194.91 76.26,-201.14 86.85,-201.61 84.83,-194.91"/>
</a>
</g>
</g>
<!-- Node9 -->
<g id="Node000009" class="node">
<title>Node9</title>
<g id="a_Node000009"><a xlink:href="classParameterAttachment.html" target="_top" xlink:title="Used to implement &#39;attachments&#39; or &#39;controllers&#39; that link a plug&#45;in parameter to a UI element.">
<polygon fill="white" stroke="#666666" points="243.12,-134 131.88,-134 131.88,-114 243.12,-114 243.12,-134"/>
<text xml:space="preserve" text-anchor="middle" x="187.5" y="-120.5" font-family="Helvetica,sans-Serif" font-size="10.00">ParameterAttachment</text>
</a>
</g>
</g>
<!-- Node1&#45;&gt;Node9 -->
<g id="edge8_Node000001_Node000009" class="edge">
<title>Node1&#45;&gt;Node9</title>
<g id="a_edge8_Node000001_Node000009"><a xlink:title=" ">
<path fill="none" stroke="#8b1a1a" d="M55.49,-193.26C69.3,-177.6 90.95,-155.83 114.25,-143 120.5,-139.56 127.4,-136.72 134.38,-134.38"/>
<polygon fill="#8b1a1a" stroke="#8b1a1a" points="53.13,-190.63 49.29,-200.51 58.45,-195.18 53.13,-190.63"/>
</a>
</g>
</g>
<!-- Node10 -->
<g id="Node000010" class="node">
<title>Node10</title>
<g id="a_Node000010"><a xlink:href="classScrollBar.html" target="_top" xlink:title="A scrollbar component.">
<polygon fill="white" stroke="#666666" points="215.38,-96 159.62,-96 159.62,-76 215.38,-76 215.38,-96"/>
<text xml:space="preserve" text-anchor="middle" x="187.5" y="-82.5" font-family="Helvetica,sans-Serif" font-size="10.00">ScrollBar</text>
</a>
</g>
</g>
<!-- Node1&#45;&gt;Node10 -->
<g id="edge9_Node000001_Node000010" class="edge">
<title>Node1&#45;&gt;Node10</title>
<g id="a_edge9_Node000001_Node000010"><a xlink:title=" ">
<path fill="none" stroke="#63b8ff" d="M48.93,-191.38C60.4,-167.02 82.77,-127.05 114.25,-105 127.42,-95.77 144.79,-91.03 159.19,-88.59"/>
<polygon fill="#63b8ff" stroke="#63b8ff" points="45.85,-189.7 44.93,-200.26 52.23,-192.58 45.85,-189.7"/>
</a>
</g>
</g>
<!-- Node11 -->
<g id="Node000011" class="node">
<title>Node11</title>
<g id="a_Node000011"><a xlink:href="classTableHeaderComponent.html" target="_top" xlink:title="A component that displays a strip of column headings for a table, and allows these to be resized,...">
<polygon fill="white" stroke="#666666" points="248,-58 127,-58 127,-38 248,-38 248,-58"/>
<text xml:space="preserve" text-anchor="middle" x="187.5" y="-44.5" font-family="Helvetica,sans-Serif" font-size="10.00">TableHeaderComponent</text>
</a>
</g>
</g>
<!-- Node1&#45;&gt;Node11 -->
<g id="edge10_Node000001_Node000011" class="edge">
<title>Node1&#45;&gt;Node11</title>
<g id="a_edge10_Node000001_Node000011"><a xlink:title=" ">
<path fill="none" stroke="#8b1a1a" d="M45.1,-190.67C53.64,-158.85 74.2,-99.24 114.25,-67 118.49,-63.58 123.29,-60.78 128.34,-58.47"/>
<polygon fill="#8b1a1a" stroke="#8b1a1a" points="41.73,-189.73 42.68,-200.28 48.51,-191.43 41.73,-189.73"/>
</a>
</g>
</g>
<!-- Node12 -->
<g id="Node000012" class="node">
<title>Node12</title>
<g id="a_Node000012"><a xlink:href="classValue_1_1ValueSource.html" target="_top" xlink:title="Used internally by the Value class as the base class for its shared value objects.">
<polygon fill="white" stroke="#666666" points="237.88,-20 137.12,-20 137.12,0 237.88,0 237.88,-20"/>
<text xml:space="preserve" text-anchor="middle" x="187.5" y="-6.5" font-family="Helvetica,sans-Serif" font-size="10.00">Value::ValueSource</text>
</a>
</g>
</g>
<!-- Node1&#45;&gt;Node12 -->
<g id="edge11_Node000001_Node000012" class="edge">
<title>Node1&#45;&gt;Node12</title>
<g id="a_edge11_Node000001_Node000012"><a xlink:title=" ">
<path fill="none" stroke="#8b1a1a" d="M42.57,-190.64C48.12,-152.38 65.23,-72.13 114.25,-29 120.68,-23.35 128.59,-19.34 136.8,-16.52"/>
<polygon fill="#8b1a1a" stroke="#8b1a1a" points="39.12,-190.02 41.3,-200.39 46.07,-190.93 39.12,-190.02"/>
</a>
</g>
</g>
</g>
</svg>
