<?xml version="1.0" encoding="UTF-8" standalone="no"?>
<!DOCTYPE svg PUBLIC "-//W3C//DTD SVG 1.1//EN"
 "http://www.w3.org/Graphics/SVG/1.1/DTD/svg11.dtd">
<!-- Generated by graphviz version 13.1.0 (20250701.0955)
 -->
<!-- Title: FilePreviewComponent Pages: 1 -->
<svg width="137pt" height="196pt"
 viewBox="0.00 0.00 137.00 196.00" xmlns="http://www.w3.org/2000/svg" xmlns:xlink="http://www.w3.org/1999/xlink">
<g id="graph0" class="graph" transform="scale(1 1) rotate(0) translate(4 192)">
<title>FilePreviewComponent</title>
<!-- Node1 -->
<g id="Node000001" class="node">
<title>Node1</title>
<g id="a_Node000001"><a xlink:title="Base class for components that live inside a file chooser dialog box and show previews of the files t...">
<polygon fill="#999999" stroke="#666666" points="122.88,-76 5.62,-76 5.62,-56 122.88,-56 122.88,-76"/>
<text xml:space="preserve" text-anchor="middle" x="64.25" y="-62.5" font-family="Helvetica,sans-Serif" font-size="10.00">FilePreviewComponent</text>
</a>
</g>
</g>
<!-- Node4 -->
<g id="Node000004" class="node">
<title>Node4</title>
<g id="a_Node000004"><a xlink:href="classImagePreviewComponent.html" target="_top" xlink:title="A simple preview component that shows thumbnails of image files.">
<polygon fill="white" stroke="#666666" points="128.5,-20 0,-20 0,0 128.5,0 128.5,-20"/>
<text xml:space="preserve" text-anchor="middle" x="64.25" y="-6.5" font-family="Helvetica,sans-Serif" font-size="10.00">ImagePreviewComponent</text>
</a>
</g>
</g>
<!-- Node1&#45;&gt;Node4 -->
<g id="edge3_Node000001_Node000004" class="edge">
<title>Node1&#45;&gt;Node4</title>
<g id="a_edge3_Node000001_Node000004"><a xlink:title=" ">
<path fill="none" stroke="#63b8ff" d="M64.25,-44.13C64.25,-35.9 64.25,-26.85 64.25,-20.3"/>
<polygon fill="#63b8ff" stroke="#63b8ff" points="60.75,-44.08 64.25,-54.08 67.75,-44.08 60.75,-44.08"/>
</a>
</g>
</g>
<!-- Node2 -->
<g id="Node000002" class="node">
<title>Node2</title>
<g id="a_Node000002"><a xlink:href="classComponent.html" target="_top" xlink:title="The base class for all JUCE user&#45;interface objects.">
<polygon fill="white" stroke="#666666" points="97.38,-132 31.12,-132 31.12,-112 97.38,-112 97.38,-132"/>
<text xml:space="preserve" text-anchor="middle" x="64.25" y="-118.5" font-family="Helvetica,sans-Serif" font-size="10.00">Component</text>
</a>
</g>
</g>
<!-- Node2&#45;&gt;Node1 -->
<g id="edge1_Node000001_Node000002" class="edge">
<title>Node2&#45;&gt;Node1</title>
<g id="a_edge1_Node000001_Node000002"><a xlink:title=" ">
<path fill="none" stroke="#63b8ff" d="M64.25,-100.13C64.25,-91.9 64.25,-82.85 64.25,-76.3"/>
<polygon fill="#63b8ff" stroke="#63b8ff" points="60.75,-100.08 64.25,-110.08 67.75,-100.08 60.75,-100.08"/>
</a>
</g>
</g>
<!-- Node3 -->
<g id="Node000003" class="node">
<title>Node3</title>
<g id="a_Node000003"><a xlink:href="classMouseListener.html" target="_top" xlink:title="A MouseListener can be registered with a component to receive callbacks about mouse events that happe...">
<polygon fill="white" stroke="#666666" points="104.12,-188 24.38,-188 24.38,-168 104.12,-168 104.12,-188"/>
<text xml:space="preserve" text-anchor="middle" x="64.25" y="-174.5" font-family="Helvetica,sans-Serif" font-size="10.00">MouseListener</text>
</a>
</g>
</g>
<!-- Node3&#45;&gt;Node2 -->
<g id="edge2_Node000002_Node000003" class="edge">
<title>Node3&#45;&gt;Node2</title>
<g id="a_edge2_Node000002_Node000003"><a xlink:title=" ">
<path fill="none" stroke="#63b8ff" d="M64.25,-156.13C64.25,-147.9 64.25,-138.85 64.25,-132.3"/>
<polygon fill="#63b8ff" stroke="#63b8ff" points="60.75,-156.08 64.25,-166.08 67.75,-156.08 60.75,-156.08"/>
</a>
</g>
</g>
</g>
</svg>
