<?xml version="1.0" encoding="UTF-8" standalone="no"?>
<!DOCTYPE svg PUBLIC "-//W3C//DTD SVG 1.1//EN"
 "http://www.w3.org/Graphics/SVG/1.1/DTD/svg11.dtd">
<!-- Generated by graphviz version 13.1.0 (20250701.0955)
 -->
<!-- Title: MidiInputCallback Pages: 1 -->
<svg width="252pt" height="84pt"
 viewBox="0.00 0.00 252.00 84.00" xmlns="http://www.w3.org/2000/svg" xmlns:xlink="http://www.w3.org/1999/xlink">
<g id="graph0" class="graph" transform="scale(1 1) rotate(0) translate(4 80)">
<title>MidiInputCallback</title>
<!-- Node1 -->
<g id="Node000001" class="node">
<title>Node1</title>
<g id="a_Node000001"><a xlink:title="Receives incoming messages from a physical MIDI input device.">
<polygon fill="#999999" stroke="#666666" points="168.38,-76 74.38,-76 74.38,-56 168.38,-56 168.38,-76"/>
<text xml:space="preserve" text-anchor="middle" x="121.38" y="-62.5" font-family="Helvetica,sans-Serif" font-size="10.00">MidiInputCallback</text>
</a>
</g>
</g>
<!-- Node2 -->
<g id="Node000002" class="node">
<title>Node2</title>
<g id="a_Node000002"><a xlink:href="classAudioProcessorPlayer.html" target="_top" xlink:title="An AudioIODeviceCallback object which streams audio through an AudioProcessor.">
<polygon fill="white" stroke="#666666" points="112.75,-20 0,-20 0,0 112.75,0 112.75,-20"/>
<text xml:space="preserve" text-anchor="middle" x="56.38" y="-6.5" font-family="Helvetica,sans-Serif" font-size="10.00">AudioProcessorPlayer</text>
</a>
</g>
</g>
<!-- Node1&#45;&gt;Node2 -->
<g id="edge1_Node000001_Node000002" class="edge">
<title>Node1&#45;&gt;Node2</title>
<g id="a_edge1_Node000001_Node000002"><a xlink:title=" ">
<path fill="none" stroke="#63b8ff" d="M101.4,-48.4C90.28,-39.17 76.85,-28.01 67.57,-20.3"/>
<polygon fill="#63b8ff" stroke="#63b8ff" points="98.96,-50.93 108.89,-54.63 103.43,-45.54 98.96,-50.93"/>
</a>
</g>
</g>
<!-- Node3 -->
<g id="Node000003" class="node">
<title>Node3</title>
<g id="a_Node000003"><a xlink:href="classMidiMessageCollector.html" target="_top" xlink:title="Collects incoming realtime MIDI messages and turns them into blocks suitable for processing by a bloc...">
<polygon fill="white" stroke="#666666" points="243.75,-20 131,-20 131,0 243.75,0 243.75,-20"/>
<text xml:space="preserve" text-anchor="middle" x="187.38" y="-6.5" font-family="Helvetica,sans-Serif" font-size="10.00">MidiMessageCollector</text>
</a>
</g>
</g>
<!-- Node1&#45;&gt;Node3 -->
<g id="edge2_Node000001_Node000003" class="edge">
<title>Node1&#45;&gt;Node3</title>
<g id="a_edge2_Node000001_Node000003"><a xlink:title=" ">
<path fill="none" stroke="#63b8ff" d="M141.66,-48.4C152.95,-39.17 166.59,-28.01 176.01,-20.3"/>
<polygon fill="#63b8ff" stroke="#63b8ff" points="139.57,-45.59 134.04,-54.64 144,-51.01 139.57,-45.59"/>
</a>
</g>
</g>
</g>
</svg>
