<?xml version="1.0" encoding="UTF-8" standalone="no"?>
<!DOCTYPE svg PUBLIC "-//W3C//DTD SVG 1.1//EN"
 "http://www.w3.org/Graphics/SVG/1.1/DTD/svg11.dtd">
<!-- Generated by graphviz version 13.1.0 (20250701.0955)
 -->
<!-- Title: FileSearchPathListComponent Pages: 1 -->
<svg width="435pt" height="140pt"
 viewBox="0.00 0.00 435.00 140.00" xmlns="http://www.w3.org/2000/svg" xmlns:xlink="http://www.w3.org/1999/xlink">
<g id="graph0" class="graph" transform="scale(1 1) rotate(0) translate(4 136)">
<title>FileSearchPathListComponent</title>
<!-- Node1 -->
<g id="Node000001" class="node">
<title>Node1</title>
<g id="a_Node000001"><a xlink:title="Shows a set of file paths in a list, allowing them to be added, removed or re&#45;ordered.">
<polygon fill="#999999" stroke="#666666" points="283.25,-20 134.5,-20 134.5,0 283.25,0 283.25,-20"/>
<text xml:space="preserve" text-anchor="middle" x="208.88" y="-6.5" font-family="Helvetica,sans-Serif" font-size="10.00">FileSearchPathListComponent</text>
</a>
</g>
</g>
<!-- Node2 -->
<g id="Node000002" class="node">
<title>Node2</title>
<g id="a_Node000002"><a xlink:href="classComponent.html" target="_top" xlink:title="The base class for all JUCE user&#45;interface objects.">
<polygon fill="white" stroke="#666666" points="73,-76 6.75,-76 6.75,-56 73,-56 73,-76"/>
<text xml:space="preserve" text-anchor="middle" x="39.88" y="-62.5" font-family="Helvetica,sans-Serif" font-size="10.00">Component</text>
</a>
</g>
</g>
<!-- Node2&#45;&gt;Node1 -->
<g id="edge1_Node000001_Node000002" class="edge">
<title>Node2&#45;&gt;Node1</title>
<g id="a_edge1_Node000001_Node000002"><a xlink:title=" ">
<path fill="none" stroke="#63b8ff" d="M80,-52.18C110.47,-42.44 151.67,-29.28 179.21,-20.48"/>
<polygon fill="#63b8ff" stroke="#63b8ff" points="79.21,-48.76 70.75,-55.13 81.35,-55.42 79.21,-48.76"/>
</a>
</g>
</g>
<!-- Node3 -->
<g id="Node000003" class="node">
<title>Node3</title>
<g id="a_Node000003"><a xlink:href="classMouseListener.html" target="_top" xlink:title="A MouseListener can be registered with a component to receive callbacks about mouse events that happe...">
<polygon fill="white" stroke="#666666" points="79.75,-132 0,-132 0,-112 79.75,-112 79.75,-132"/>
<text xml:space="preserve" text-anchor="middle" x="39.88" y="-118.5" font-family="Helvetica,sans-Serif" font-size="10.00">MouseListener</text>
</a>
</g>
</g>
<!-- Node3&#45;&gt;Node2 -->
<g id="edge2_Node000002_Node000003" class="edge">
<title>Node3&#45;&gt;Node2</title>
<g id="a_edge2_Node000002_Node000003"><a xlink:title=" ">
<path fill="none" stroke="#63b8ff" d="M39.88,-100.13C39.88,-91.9 39.88,-82.85 39.88,-76.3"/>
<polygon fill="#63b8ff" stroke="#63b8ff" points="36.38,-100.08 39.88,-110.08 43.38,-100.08 36.38,-100.08"/>
</a>
</g>
</g>
<!-- Node4 -->
<g id="Node000004" class="node">
<title>Node4</title>
<g id="a_Node000004"><a xlink:href="classSettableTooltipClient.html" target="_top" xlink:title="An implementation of TooltipClient that stores the tooltip string and a method for changing it.">
<polygon fill="white" stroke="#666666" points="196.88,-76 90.88,-76 90.88,-56 196.88,-56 196.88,-76"/>
<text xml:space="preserve" text-anchor="middle" x="143.88" y="-62.5" font-family="Helvetica,sans-Serif" font-size="10.00">SettableTooltipClient</text>
</a>
</g>
</g>
<!-- Node4&#45;&gt;Node1 -->
<g id="edge3_Node000001_Node000004" class="edge">
<title>Node4&#45;&gt;Node1</title>
<g id="a_edge3_Node000001_Node000004"><a xlink:title=" ">
<path fill="none" stroke="#63b8ff" d="M163.85,-48.4C174.97,-39.17 188.4,-28.01 197.68,-20.3"/>
<polygon fill="#63b8ff" stroke="#63b8ff" points="161.82,-45.54 156.36,-54.63 166.29,-50.93 161.82,-45.54"/>
</a>
</g>
</g>
<!-- Node5 -->
<g id="Node000005" class="node">
<title>Node5</title>
<g id="a_Node000005"><a xlink:href="classTooltipClient.html" target="_top" xlink:title="Components that want to use pop&#45;up tooltips should implement this interface.">
<polygon fill="white" stroke="#666666" points="178.88,-132 108.88,-132 108.88,-112 178.88,-112 178.88,-132"/>
<text xml:space="preserve" text-anchor="middle" x="143.88" y="-118.5" font-family="Helvetica,sans-Serif" font-size="10.00">TooltipClient</text>
</a>
</g>
</g>
<!-- Node5&#45;&gt;Node4 -->
<g id="edge4_Node000004_Node000005" class="edge">
<title>Node5&#45;&gt;Node4</title>
<g id="a_edge4_Node000004_Node000005"><a xlink:title=" ">
<path fill="none" stroke="#63b8ff" d="M143.88,-100.13C143.88,-91.9 143.88,-82.85 143.88,-76.3"/>
<polygon fill="#63b8ff" stroke="#63b8ff" points="140.38,-100.08 143.88,-110.08 147.38,-100.08 140.38,-100.08"/>
</a>
</g>
</g>
<!-- Node6 -->
<g id="Node000006" class="node">
<title>Node6</title>
<g id="a_Node000006"><a xlink:href="classFileDragAndDropTarget.html" target="_top" xlink:title="Components derived from this class can have files dropped onto them by an external application.">
<polygon fill="white" stroke="#666666" points="332.88,-76 214.88,-76 214.88,-56 332.88,-56 332.88,-76"/>
<text xml:space="preserve" text-anchor="middle" x="273.88" y="-62.5" font-family="Helvetica,sans-Serif" font-size="10.00">FileDragAndDropTarget</text>
</a>
</g>
</g>
<!-- Node6&#45;&gt;Node1 -->
<g id="edge5_Node000001_Node000006" class="edge">
<title>Node6&#45;&gt;Node1</title>
<g id="a_edge5_Node000001_Node000006"><a xlink:title=" ">
<path fill="none" stroke="#63b8ff" d="M253.9,-48.4C242.78,-39.17 229.35,-28.01 220.07,-20.3"/>
<polygon fill="#63b8ff" stroke="#63b8ff" points="251.46,-50.93 261.39,-54.63 255.93,-45.54 251.46,-50.93"/>
</a>
</g>
</g>
<!-- Node7 -->
<g id="Node000007" class="node">
<title>Node7</title>
<g id="a_Node000007"><a xlink:href="classListBoxModel.html" target="_top" xlink:title="A subclass of this is used to drive a ListBox.">
<polygon fill="white" stroke="#666666" points="426.5,-76 351.25,-76 351.25,-56 426.5,-56 426.5,-76"/>
<text xml:space="preserve" text-anchor="middle" x="388.88" y="-62.5" font-family="Helvetica,sans-Serif" font-size="10.00">ListBoxModel</text>
</a>
</g>
</g>
<!-- Node7&#45;&gt;Node1 -->
<g id="edge6_Node000001_Node000007" class="edge">
<title>Node7&#45;&gt;Node1</title>
<g id="a_edge6_Node000001_Node000007"><a xlink:title=" ">
<path fill="none" stroke="#8b1a1a" d="M346.56,-52.31C314.07,-42.56 269.93,-29.32 240.47,-20.48"/>
<polygon fill="#8b1a1a" stroke="#8b1a1a" points="345.49,-55.64 356.07,-55.16 347.5,-48.93 345.49,-55.64"/>
</a>
</g>
</g>
</g>
</svg>
