<?xml version="1.0" encoding="UTF-8" standalone="no"?>
<!DOCTYPE svg PUBLIC "-//W3C//DTD SVG 1.1//EN"
 "http://www.w3.org/Graphics/SVG/1.1/DTD/svg11.dtd">
<!-- Generated by graphviz version 13.1.0 (20250701.0955)
 -->
<!-- Title: KeyboardComponentBase Pages: 1 -->
<svg width="280pt" height="196pt"
 viewBox="0.00 0.00 280.00 196.00" xmlns="http://www.w3.org/2000/svg" xmlns:xlink="http://www.w3.org/1999/xlink">
<g id="graph0" class="graph" transform="scale(1 1) rotate(0) translate(4 192)">
<title>KeyboardComponentBase</title>
<!-- Node1 -->
<g id="Node000001" class="node">
<title>Node1</title>
<g id="a_Node000001"><a xlink:title="A base class for drawing a custom MIDI keyboard component.">
<polygon fill="#999999" stroke="#666666" points="201.62,-76 71.62,-76 71.62,-56 201.62,-56 201.62,-76"/>
<text xml:space="preserve" text-anchor="middle" x="136.62" y="-62.5" font-family="Helvetica,sans-Serif" font-size="10.00">KeyboardComponentBase</text>
</a>
</g>
</g>
<!-- Node5 -->
<g id="Node000005" class="node">
<title>Node5</title>
<g id="a_Node000005"><a xlink:href="classMPEKeyboardComponent.html" target="_top" xlink:title="A component that displays an MPE&#45;compatible keyboard, whose notes can be clicked on.">
<polygon fill="white" stroke="#666666" points="129.25,-20 0,-20 0,0 129.25,0 129.25,-20"/>
<text xml:space="preserve" text-anchor="middle" x="64.62" y="-6.5" font-family="Helvetica,sans-Serif" font-size="10.00">MPEKeyboardComponent</text>
</a>
</g>
</g>
<!-- Node1&#45;&gt;Node5 -->
<g id="edge4_Node000001_Node000005" class="edge">
<title>Node1&#45;&gt;Node5</title>
<g id="a_edge4_Node000001_Node000005"><a xlink:title=" ">
<path fill="none" stroke="#63b8ff" d="M115.23,-48.95C102.78,-39.61 87.51,-28.16 77.02,-20.3"/>
<polygon fill="#63b8ff" stroke="#63b8ff" points="112.77,-51.49 122.87,-54.69 116.97,-45.89 112.77,-51.49"/>
</a>
</g>
</g>
<!-- Node6 -->
<g id="Node000006" class="node">
<title>Node6</title>
<g id="a_Node000006"><a xlink:href="classMidiKeyboardComponent.html" target="_top" xlink:title="A component that displays a piano keyboard, whose notes can be clicked on.">
<polygon fill="white" stroke="#666666" points="272.38,-20 146.88,-20 146.88,0 272.38,0 272.38,-20"/>
<text xml:space="preserve" text-anchor="middle" x="209.62" y="-6.5" font-family="Helvetica,sans-Serif" font-size="10.00">MidiKeyboardComponent</text>
</a>
</g>
</g>
<!-- Node1&#45;&gt;Node6 -->
<g id="edge5_Node000001_Node000006" class="edge">
<title>Node1&#45;&gt;Node6</title>
<g id="a_edge5_Node000001_Node000006"><a xlink:title=" ">
<path fill="none" stroke="#63b8ff" d="M158.32,-48.95C170.94,-39.61 186.42,-28.16 197.06,-20.3"/>
<polygon fill="#63b8ff" stroke="#63b8ff" points="156.52,-45.93 150.56,-54.69 160.68,-51.56 156.52,-45.93"/>
</a>
</g>
</g>
<!-- Node2 -->
<g id="Node000002" class="node">
<title>Node2</title>
<g id="a_Node000002"><a xlink:href="classComponent.html" target="_top" xlink:title="The base class for all JUCE user&#45;interface objects.">
<polygon fill="white" stroke="#666666" points="118.75,-132 52.5,-132 52.5,-112 118.75,-112 118.75,-132"/>
<text xml:space="preserve" text-anchor="middle" x="85.62" y="-118.5" font-family="Helvetica,sans-Serif" font-size="10.00">Component</text>
</a>
</g>
</g>
<!-- Node2&#45;&gt;Node1 -->
<g id="edge1_Node000001_Node000002" class="edge">
<title>Node2&#45;&gt;Node1</title>
<g id="a_edge1_Node000001_Node000002"><a xlink:title=" ">
<path fill="none" stroke="#63b8ff" d="M102.36,-103.29C110.86,-94.28 120.85,-83.7 127.84,-76.3"/>
<polygon fill="#63b8ff" stroke="#63b8ff" points="99.87,-100.82 95.55,-110.49 104.96,-105.63 99.87,-100.82"/>
</a>
</g>
</g>
<!-- Node3 -->
<g id="Node000003" class="node">
<title>Node3</title>
<g id="a_Node000003"><a xlink:href="classMouseListener.html" target="_top" xlink:title="A MouseListener can be registered with a component to receive callbacks about mouse events that happe...">
<polygon fill="white" stroke="#666666" points="125.5,-188 45.75,-188 45.75,-168 125.5,-168 125.5,-188"/>
<text xml:space="preserve" text-anchor="middle" x="85.62" y="-174.5" font-family="Helvetica,sans-Serif" font-size="10.00">MouseListener</text>
</a>
</g>
</g>
<!-- Node3&#45;&gt;Node2 -->
<g id="edge2_Node000002_Node000003" class="edge">
<title>Node3&#45;&gt;Node2</title>
<g id="a_edge2_Node000002_Node000003"><a xlink:title=" ">
<path fill="none" stroke="#63b8ff" d="M85.62,-156.13C85.62,-147.9 85.62,-138.85 85.62,-132.3"/>
<polygon fill="#63b8ff" stroke="#63b8ff" points="82.13,-156.08 85.63,-166.08 89.13,-156.08 82.13,-156.08"/>
</a>
</g>
</g>
<!-- Node4 -->
<g id="Node000004" class="node">
<title>Node4</title>
<g id="a_Node000004"><a xlink:href="classChangeBroadcaster.html" target="_top" xlink:title="Holds a list of ChangeListeners, and sends messages to them when instructed.">
<polygon fill="white" stroke="#666666" points="238.75,-132 136.5,-132 136.5,-112 238.75,-112 238.75,-132"/>
<text xml:space="preserve" text-anchor="middle" x="187.62" y="-118.5" font-family="Helvetica,sans-Serif" font-size="10.00">ChangeBroadcaster</text>
</a>
</g>
</g>
<!-- Node4&#45;&gt;Node1 -->
<g id="edge3_Node000001_Node000004" class="edge">
<title>Node4&#45;&gt;Node1</title>
<g id="a_edge3_Node000001_Node000004"><a xlink:title=" ">
<path fill="none" stroke="#63b8ff" d="M170.89,-103.29C162.39,-94.28 152.4,-83.7 145.41,-76.3"/>
<polygon fill="#63b8ff" stroke="#63b8ff" points="168.29,-105.63 177.7,-110.49 173.38,-100.82 168.29,-105.63"/>
</a>
</g>
</g>
</g>
</svg>
