<?xml version="1.0" encoding="UTF-8" standalone="no"?>
<!DOCTYPE svg PUBLIC "-//W3C//DTD SVG 1.1//EN"
 "http://www.w3.org/Graphics/SVG/1.1/DTD/svg11.dtd">
<!-- Generated by graphviz version 13.1.0 (20250701.0955)
 -->
<!-- Title: PropertiesFile Pages: 1 -->
<svg width="255pt" height="84pt"
 viewBox="0.00 0.00 255.00 84.00" xmlns="http://www.w3.org/2000/svg" xmlns:xlink="http://www.w3.org/1999/xlink">
<g id="graph0" class="graph" transform="scale(1 1) rotate(0) translate(4 80)">
<title>PropertiesFile</title>
<!-- Node1 -->
<g id="Node000001" class="node">
<title>Node1</title>
<g id="a_Node000001"><a xlink:title="Wrapper on a file that stores a list of key/value data pairs.">
<polygon fill="#999999" stroke="#666666" points="174.88,-20 98.88,-20 98.88,0 174.88,0 174.88,-20"/>
<text xml:space="preserve" text-anchor="middle" x="136.88" y="-6.5" font-family="Helvetica,sans-Serif" font-size="10.00">PropertiesFile</text>
</a>
</g>
</g>
<!-- Node2 -->
<g id="Node000002" class="node">
<title>Node2</title>
<g id="a_Node000002"><a xlink:href="classPropertySet.html" target="_top" xlink:title="A set of named property values, which can be strings, integers, floating point, etc.">
<polygon fill="white" stroke="#666666" points="67.75,-76 0,-76 0,-56 67.75,-56 67.75,-76"/>
<text xml:space="preserve" text-anchor="middle" x="33.88" y="-62.5" font-family="Helvetica,sans-Serif" font-size="10.00">PropertySet</text>
</a>
</g>
</g>
<!-- Node2&#45;&gt;Node1 -->
<g id="edge1_Node000001_Node000002" class="edge">
<title>Node2&#45;&gt;Node1</title>
<g id="a_edge1_Node000001_Node000002"><a xlink:title=" ">
<path fill="none" stroke="#63b8ff" d="M61.82,-50.35C79.95,-40.84 103.04,-28.74 118.79,-20.48"/>
<polygon fill="#63b8ff" stroke="#63b8ff" points="60.39,-47.15 53.16,-54.89 63.64,-53.35 60.39,-47.15"/>
</a>
</g>
</g>
<!-- Node3 -->
<g id="Node000003" class="node">
<title>Node3</title>
<g id="a_Node000003"><a xlink:href="classChangeBroadcaster.html" target="_top" xlink:title="Holds a list of ChangeListeners, and sends messages to them when instructed.">
<polygon fill="white" stroke="#666666" points="188,-76 85.75,-76 85.75,-56 188,-56 188,-76"/>
<text xml:space="preserve" text-anchor="middle" x="136.88" y="-62.5" font-family="Helvetica,sans-Serif" font-size="10.00">ChangeBroadcaster</text>
</a>
</g>
</g>
<!-- Node3&#45;&gt;Node1 -->
<g id="edge2_Node000001_Node000003" class="edge">
<title>Node3&#45;&gt;Node1</title>
<g id="a_edge2_Node000001_Node000003"><a xlink:title=" ">
<path fill="none" stroke="#63b8ff" d="M136.88,-44.13C136.88,-35.9 136.88,-26.85 136.88,-20.3"/>
<polygon fill="#63b8ff" stroke="#63b8ff" points="133.38,-44.08 136.88,-54.08 140.38,-44.08 133.38,-44.08"/>
</a>
</g>
</g>
<!-- Node4 -->
<g id="Node000004" class="node">
<title>Node4</title>
<g id="a_Node000004"><a xlink:href="classTimer.html" target="_top" xlink:title="Makes repeated callbacks to a virtual method at a specified time interval.">
<polygon fill="white" stroke="#666666" points="247.25,-76 206.5,-76 206.5,-56 247.25,-56 247.25,-76"/>
<text xml:space="preserve" text-anchor="middle" x="226.88" y="-62.5" font-family="Helvetica,sans-Serif" font-size="10.00">Timer</text>
</a>
</g>
</g>
<!-- Node4&#45;&gt;Node1 -->
<g id="edge3_Node000001_Node000004" class="edge">
<title>Node4&#45;&gt;Node1</title>
<g id="a_edge3_Node000001_Node000004"><a xlink:title=" ">
<path fill="none" stroke="#8b1a1a" d="M201.56,-49.81C185.86,-40.39 166.18,-28.58 152.67,-20.48"/>
<polygon fill="#8b1a1a" stroke="#8b1a1a" points="199.52,-52.67 209.9,-54.82 203.13,-46.67 199.52,-52.67"/>
</a>
</g>
</g>
</g>
</svg>
