<?xml version="1.0" encoding="UTF-8" standalone="no"?>
<!DOCTYPE svg PUBLIC "-//W3C//DTD SVG 1.1//EN"
 "http://www.w3.org/Graphics/SVG/1.1/DTD/svg11.dtd">
<!-- Generated by graphviz version 13.1.0 (20250701.0955)
 -->
<!-- Title: AudioThumbnailBase Pages: 1 -->
<svg width="278pt" height="164pt"
 viewBox="0.00 0.00 278.00 164.00" xmlns="http://www.w3.org/2000/svg" xmlns:xlink="http://www.w3.org/1999/xlink">
<g id="graph0" class="graph" transform="scale(1 1) rotate(0) translate(4 160)">
<title>AudioThumbnailBase</title>
<!-- Node1 -->
<g id="Node000001" class="node">
<title>Node1</title>
<g id="a_Node000001"><a xlink:title="Provides a base for classes that can store and draw scaled views of an audio waveform.">
<polygon fill="#999999" stroke="#666666" points="177.25,-76 69,-76 69,-56 177.25,-56 177.25,-76"/>
<text xml:space="preserve" text-anchor="middle" x="123.12" y="-62.5" font-family="Helvetica,sans-Serif" font-size="10.00">AudioThumbnailBase</text>
</a>
</g>
</g>
<!-- Node4 -->
<g id="Node000004" class="node">
<title>Node4</title>
<g id="a_Node000004"><a xlink:href="classAudioThumbnail.html" target="_top" xlink:title="Makes it easy to quickly draw scaled views of the waveform shape of an audio file.">
<polygon fill="white" stroke="#666666" points="166,-20 80.25,-20 80.25,0 166,0 166,-20"/>
<text xml:space="preserve" text-anchor="middle" x="123.12" y="-6.5" font-family="Helvetica,sans-Serif" font-size="10.00">AudioThumbnail</text>
</a>
</g>
</g>
<!-- Node1&#45;&gt;Node4 -->
<g id="edge3_Node000001_Node000004" class="edge">
<title>Node1&#45;&gt;Node4</title>
<g id="a_edge3_Node000001_Node000004"><a xlink:title=" ">
<path fill="none" stroke="#63b8ff" d="M123.12,-44.13C123.12,-35.9 123.12,-26.85 123.12,-20.3"/>
<polygon fill="#63b8ff" stroke="#63b8ff" points="119.63,-44.08 123.13,-54.08 126.63,-44.08 119.63,-44.08"/>
</a>
</g>
</g>
<!-- Node2 -->
<g id="Node000002" class="node">
<title>Node2</title>
<g id="a_Node000002"><a xlink:href="classChangeBroadcaster.html" target="_top" xlink:title="Holds a list of ChangeListeners, and sends messages to them when instructed.">
<polygon fill="white" stroke="#666666" points="102.25,-144 0,-144 0,-124 102.25,-124 102.25,-144"/>
<text xml:space="preserve" text-anchor="middle" x="51.12" y="-130.5" font-family="Helvetica,sans-Serif" font-size="10.00">ChangeBroadcaster</text>
</a>
</g>
</g>
<!-- Node2&#45;&gt;Node1 -->
<g id="edge1_Node000001_Node000002" class="edge">
<title>Node2&#45;&gt;Node1</title>
<g id="a_edge1_Node000001_Node000002"><a xlink:title=" ">
<path fill="none" stroke="#63b8ff" d="M69.7,-115.97C83.43,-103.39 101.61,-86.72 112.83,-76.44"/>
<polygon fill="#63b8ff" stroke="#63b8ff" points="67.56,-113.18 62.56,-122.52 72.29,-118.34 67.56,-113.18"/>
</a>
</g>
</g>
<!-- Node3 -->
<g id="Node000003" class="node">
<title>Node3</title>
<g id="a_Node000003"><a xlink:href="classAudioFormatWriter_1_1ThreadedWriter_1_1IncomingDataReceiver.html" target="_top" xlink:title="Receiver for incoming data.">
<polygon fill="white" stroke="#666666" points="269.5,-156 120.75,-156 120.75,-112 269.5,-112 269.5,-156"/>
<text xml:space="preserve" text-anchor="start" x="128.75" y="-142.5" font-family="Helvetica,sans-Serif" font-size="10.00">AudioFormatWriter::</text>
<text xml:space="preserve" text-anchor="start" x="128.75" y="-130.5" font-family="Helvetica,sans-Serif" font-size="10.00">ThreadedWriter::IncomingData</text>
<text xml:space="preserve" text-anchor="middle" x="195.12" y="-118.5" font-family="Helvetica,sans-Serif" font-size="10.00">Receiver</text>
</a>
</g>
</g>
<!-- Node3&#45;&gt;Node1 -->
<g id="edge2_Node000001_Node000003" class="edge">
<title>Node3&#45;&gt;Node1</title>
<g id="a_edge2_Node000001_Node000003"><a xlink:title=" ">
<path fill="none" stroke="#63b8ff" d="M163.46,-103.97C152.64,-94.06 141.29,-83.65 133.4,-76.42"/>
<polygon fill="#63b8ff" stroke="#63b8ff" points="161.1,-106.55 170.83,-110.73 165.83,-101.39 161.1,-106.55"/>
</a>
</g>
</g>
</g>
</svg>
