<?xml version="1.0" encoding="UTF-8" standalone="no"?>
<!DOCTYPE svg PUBLIC "-//W3C//DTD SVG 1.1//EN"
 "http://www.w3.org/Graphics/SVG/1.1/DTD/svg11.dtd">
<!-- Generated by graphviz version 13.1.0 (20250701.0955)
 -->
<!-- Title: Desktop Pages: 1 -->
<svg width="267pt" height="84pt"
 viewBox="0.00 0.00 267.00 84.00" xmlns="http://www.w3.org/2000/svg" xmlns:xlink="http://www.w3.org/1999/xlink">
<g id="graph0" class="graph" transform="scale(1 1) rotate(0) translate(4 80)">
<title>Desktop</title>
<!-- Node1 -->
<g id="Node000001" class="node">
<title>Node1</title>
<g id="a_Node000001"><a xlink:title="Describes and controls aspects of the computer&#39;s desktop.">
<polygon fill="#999999" stroke="#666666" points="167.88,-20 115.12,-20 115.12,0 167.88,0 167.88,-20"/>
<text xml:space="preserve" text-anchor="middle" x="141.5" y="-6.5" font-family="Helvetica,sans-Serif" font-size="10.00">Desktop</text>
</a>
</g>
</g>
<!-- Node2 -->
<g id="Node000002" class="node">
<title>Node2</title>
<g id="a_Node000002"><a xlink:href="classDeletedAtShutdown.html" target="_top" xlink:title="Classes derived from this will be automatically deleted when the application exits.">
<polygon fill="white" stroke="#666666" points="103,-76 0,-76 0,-56 103,-56 103,-76"/>
<text xml:space="preserve" text-anchor="middle" x="51.5" y="-62.5" font-family="Helvetica,sans-Serif" font-size="10.00">DeletedAtShutdown</text>
</a>
</g>
</g>
<!-- Node2&#45;&gt;Node1 -->
<g id="edge1_Node000001_Node000002" class="edge">
<title>Node2&#45;&gt;Node1</title>
<g id="a_edge1_Node000001_Node000002"><a xlink:title=" ">
<path fill="none" stroke="#8b1a1a" d="M76.81,-49.81C92.51,-40.39 112.2,-28.58 125.7,-20.48"/>
<polygon fill="#8b1a1a" stroke="#8b1a1a" points="75.25,-46.67 68.47,-54.82 78.85,-52.67 75.25,-46.67"/>
</a>
</g>
</g>
<!-- Node3 -->
<g id="Node000003" class="node">
<title>Node3</title>
<g id="a_Node000003"><a xlink:href="classTimer.html" target="_top" xlink:title="Makes repeated callbacks to a virtual method at a specified time interval.">
<polygon fill="white" stroke="#666666" points="161.88,-76 121.12,-76 121.12,-56 161.88,-56 161.88,-76"/>
<text xml:space="preserve" text-anchor="middle" x="141.5" y="-62.5" font-family="Helvetica,sans-Serif" font-size="10.00">Timer</text>
</a>
</g>
</g>
<!-- Node3&#45;&gt;Node1 -->
<g id="edge2_Node000001_Node000003" class="edge">
<title>Node3&#45;&gt;Node1</title>
<g id="a_edge2_Node000001_Node000003"><a xlink:title=" ">
<path fill="none" stroke="#8b1a1a" d="M141.5,-44.13C141.5,-35.9 141.5,-26.85 141.5,-20.3"/>
<polygon fill="#8b1a1a" stroke="#8b1a1a" points="138,-44.08 141.5,-54.08 145,-44.08 138,-44.08"/>
</a>
</g>
</g>
<!-- Node4 -->
<g id="Node000004" class="node">
<title>Node4</title>
<g id="a_Node000004"><a xlink:href="classAsyncUpdater.html" target="_top" xlink:title="Has a callback method that is triggered asynchronously.">
<polygon fill="white" stroke="#666666" points="258.62,-76 180.38,-76 180.38,-56 258.62,-56 258.62,-76"/>
<text xml:space="preserve" text-anchor="middle" x="219.5" y="-62.5" font-family="Helvetica,sans-Serif" font-size="10.00">AsyncUpdater</text>
</a>
</g>
</g>
<!-- Node4&#45;&gt;Node1 -->
<g id="edge3_Node000001_Node000004" class="edge">
<title>Node4&#45;&gt;Node1</title>
<g id="a_edge3_Node000001_Node000004"><a xlink:title=" ">
<path fill="none" stroke="#8b1a1a" d="M196.78,-49.27C183.31,-39.94 166.67,-28.43 155.19,-20.48"/>
<polygon fill="#8b1a1a" stroke="#8b1a1a" points="194.45,-51.92 204.67,-54.73 198.44,-46.16 194.45,-51.92"/>
</a>
</g>
</g>
</g>
</svg>
