<?xml version="1.0" encoding="UTF-8" standalone="no"?>
<!DOCTYPE svg PUBLIC "-//W3C//DTD SVG 1.1//EN"
 "http://www.w3.org/Graphics/SVG/1.1/DTD/svg11.dtd">
<!-- Generated by graphviz version 13.1.0 (20250701.0955)
 -->
<!-- Title: MouseInactivityDetector Pages: 1 -->
<svg width="148pt" height="84pt"
 viewBox="0.00 0.00 148.00 84.00" xmlns="http://www.w3.org/2000/svg" xmlns:xlink="http://www.w3.org/1999/xlink">
<g id="graph0" class="graph" transform="scale(1 1) rotate(0) translate(4 80)">
<title>MouseInactivityDetector</title>
<!-- Node1 -->
<g id="Node000001" class="node">
<title>Node1</title>
<g id="a_Node000001"><a xlink:title="This object watches for mouse&#45;events happening within a component, and if the mouse remains still for...">
<polygon fill="#999999" stroke="#666666" points="122.5,-20 0,-20 0,0 122.5,0 122.5,-20"/>
<text xml:space="preserve" text-anchor="middle" x="61.25" y="-6.5" font-family="Helvetica,sans-Serif" font-size="10.00">MouseInactivityDetector</text>
</a>
</g>
</g>
<!-- Node2 -->
<g id="Node000002" class="node">
<title>Node2</title>
<g id="a_Node000002"><a xlink:href="classTimer.html" target="_top" xlink:title="Makes repeated callbacks to a virtual method at a specified time interval.">
<polygon fill="white" stroke="#666666" points="42.62,-76 1.88,-76 1.88,-56 42.62,-56 42.62,-76"/>
<text xml:space="preserve" text-anchor="middle" x="22.25" y="-62.5" font-family="Helvetica,sans-Serif" font-size="10.00">Timer</text>
</a>
</g>
</g>
<!-- Node2&#45;&gt;Node1 -->
<g id="edge1_Node000001_Node000002" class="edge">
<title>Node2&#45;&gt;Node1</title>
<g id="a_edge1_Node000001_Node000002"><a xlink:title=" ">
<path fill="none" stroke="#8b1a1a" d="M35.66,-46.44C42.02,-37.62 49.36,-27.47 54.53,-20.3"/>
<polygon fill="#8b1a1a" stroke="#8b1a1a" points="32.95,-44.21 29.93,-54.37 38.62,-48.31 32.95,-44.21"/>
</a>
</g>
</g>
<!-- Node3 -->
<g id="Node000003" class="node">
<title>Node3</title>
<g id="a_Node000003"><a xlink:href="classMouseListener.html" target="_top" xlink:title="A MouseListener can be registered with a component to receive callbacks about mouse events that happe...">
<polygon fill="white" stroke="#666666" points="140.12,-76 60.38,-76 60.38,-56 140.12,-56 140.12,-76"/>
<text xml:space="preserve" text-anchor="middle" x="100.25" y="-62.5" font-family="Helvetica,sans-Serif" font-size="10.00">MouseListener</text>
</a>
</g>
</g>
<!-- Node3&#45;&gt;Node1 -->
<g id="edge2_Node000001_Node000003" class="edge">
<title>Node3&#45;&gt;Node1</title>
<g id="a_edge2_Node000001_Node000003"><a xlink:title=" ">
<path fill="none" stroke="#8b1a1a" d="M86.84,-46.44C80.48,-37.62 73.14,-27.47 67.97,-20.3"/>
<polygon fill="#8b1a1a" stroke="#8b1a1a" points="83.88,-48.31 92.57,-54.37 89.55,-44.21 83.88,-48.31"/>
</a>
</g>
</g>
</g>
</svg>
