<?xml version="1.0" encoding="UTF-8" standalone="no"?>
<!DOCTYPE svg PUBLIC "-//W3C//DTD SVG 1.1//EN"
 "http://www.w3.org/Graphics/SVG/1.1/DTD/svg11.dtd">
<!-- Generated by graphviz version 13.1.0 (20250701.0955)
 -->
<!-- Title: AudioIODeviceCallback Pages: 1 -->
<svg width="466pt" height="84pt"
 viewBox="0.00 0.00 466.00 84.00" xmlns="http://www.w3.org/2000/svg" xmlns:xlink="http://www.w3.org/1999/xlink">
<g id="graph0" class="graph" transform="scale(1 1) rotate(0) translate(4 80)">
<title>AudioIODeviceCallback</title>
<!-- Node1 -->
<g id="Node000001" class="node">
<title>Node1</title>
<g id="a_Node000001"><a xlink:title="One of these is passed to an AudioIODevice object to stream the audio data in and out.">
<polygon fill="#999999" stroke="#666666" points="291.5,-76 171.25,-76 171.25,-56 291.5,-56 291.5,-76"/>
<text xml:space="preserve" text-anchor="middle" x="231.38" y="-62.5" font-family="Helvetica,sans-Serif" font-size="10.00">AudioIODeviceCallback</text>
</a>
</g>
</g>
<!-- Node2 -->
<g id="Node000002" class="node">
<title>Node2</title>
<g id="a_Node000002"><a xlink:href="classAudioProcessorPlayer.html" target="_top" xlink:title="An AudioIODeviceCallback object which streams audio through an AudioProcessor.">
<polygon fill="white" stroke="#666666" points="112.75,-20 0,-20 0,0 112.75,0 112.75,-20"/>
<text xml:space="preserve" text-anchor="middle" x="56.38" y="-6.5" font-family="Helvetica,sans-Serif" font-size="10.00">AudioProcessorPlayer</text>
</a>
</g>
</g>
<!-- Node1&#45;&gt;Node2 -->
<g id="edge1_Node000001_Node000002" class="edge">
<title>Node1&#45;&gt;Node2</title>
<g id="a_edge1_Node000001_Node000002"><a xlink:title=" ">
<path fill="none" stroke="#63b8ff" d="M190.23,-52.31C158.65,-42.56 115.73,-29.32 87.1,-20.48"/>
<polygon fill="#63b8ff" stroke="#63b8ff" points="188.86,-55.54 199.45,-55.15 190.92,-48.85 188.86,-55.54"/>
</a>
</g>
</g>
<!-- Node3 -->
<g id="Node000003" class="node">
<title>Node3</title>
<g id="a_Node000003"><a xlink:href="classAudioSourcePlayer.html" target="_top" xlink:title="Wrapper class to continuously stream audio from an audio source to an AudioIODevice.">
<polygon fill="white" stroke="#666666" points="230,-20 130.75,-20 130.75,0 230,0 230,-20"/>
<text xml:space="preserve" text-anchor="middle" x="180.38" y="-6.5" font-family="Helvetica,sans-Serif" font-size="10.00">AudioSourcePlayer</text>
</a>
</g>
</g>
<!-- Node1&#45;&gt;Node3 -->
<g id="edge2_Node000001_Node000003" class="edge">
<title>Node1&#45;&gt;Node3</title>
<g id="a_edge2_Node000001_Node000003"><a xlink:title=" ">
<path fill="none" stroke="#63b8ff" d="M214.64,-47.29C206.14,-38.28 196.15,-27.7 189.16,-20.3"/>
<polygon fill="#63b8ff" stroke="#63b8ff" points="212.04,-49.63 221.45,-54.49 217.13,-44.82 212.04,-49.63"/>
</a>
</g>
</g>
<!-- Node4 -->
<g id="Node000004" class="node">
<title>Node4</title>
<g id="a_Node000004"><a xlink:href="classSoundPlayer.html" target="_top" xlink:title="A simple sound player that you can add to the AudioDeviceManager to play simple sounds.">
<polygon fill="white" stroke="#666666" points="319.12,-20 247.62,-20 247.62,0 319.12,0 319.12,-20"/>
<text xml:space="preserve" text-anchor="middle" x="283.38" y="-6.5" font-family="Helvetica,sans-Serif" font-size="10.00">SoundPlayer</text>
</a>
</g>
</g>
<!-- Node1&#45;&gt;Node4 -->
<g id="edge3_Node000001_Node000004" class="edge">
<title>Node1&#45;&gt;Node4</title>
<g id="a_edge3_Node000001_Node000004"><a xlink:title=" ">
<path fill="none" stroke="#63b8ff" d="M248.16,-47.57C256.89,-38.5 267.22,-27.78 274.42,-20.3"/>
<polygon fill="#63b8ff" stroke="#63b8ff" points="245.9,-44.87 241.48,-54.5 250.94,-49.73 245.9,-44.87"/>
</a>
</g>
</g>
<!-- Node5 -->
<g id="Node000005" class="node">
<title>Node5</title>
<g id="a_Node000005"><a xlink:href="classStandalonePluginHolder.html" target="_top" xlink:title="An object that creates and plays a standalone instance of an AudioProcessor.">
<polygon fill="white" stroke="#666666" points="457.5,-20 337.25,-20 337.25,0 457.5,0 457.5,-20"/>
<text xml:space="preserve" text-anchor="middle" x="397.38" y="-6.5" font-family="Helvetica,sans-Serif" font-size="10.00">StandalonePluginHolder</text>
</a>
</g>
</g>
<!-- Node1&#45;&gt;Node5 -->
<g id="edge4_Node000001_Node000005" class="edge">
<title>Node1&#45;&gt;Node5</title>
<g id="a_edge4_Node000001_Node000005"><a xlink:title=" ">
<path fill="none" stroke="#8b1a1a" d="M271.19,-52.05C301.07,-42.33 341.31,-29.24 368.23,-20.48"/>
<polygon fill="#8b1a1a" stroke="#8b1a1a" points="270.16,-48.7 261.73,-55.13 272.32,-55.36 270.16,-48.7"/>
</a>
</g>
</g>
</g>
</svg>
