<?xml version="1.0" encoding="UTF-8" standalone="no"?>
<!DOCTYPE svg PUBLIC "-//W3C//DTD SVG 1.1//EN"
 "http://www.w3.org/Graphics/SVG/1.1/DTD/svg11.dtd">
<!-- Generated by graphviz version 13.1.0 (20250701.0955)
 -->
<!-- Title: CodeTokeniser Pages: 1 -->
<svg width="322pt" height="84pt"
 viewBox="0.00 0.00 322.00 84.00" xmlns="http://www.w3.org/2000/svg" xmlns:xlink="http://www.w3.org/1999/xlink">
<g id="graph0" class="graph" transform="scale(1 1) rotate(0) translate(4 80)">
<title>CodeTokeniser</title>
<!-- Node1 -->
<g id="Node000001" class="node">
<title>Node1</title>
<g id="a_Node000001"><a xlink:title="A base class for tokenising code so that the syntax can be displayed in a code editor.">
<polygon fill="#999999" stroke="#666666" points="223.5,-76 142.25,-76 142.25,-56 223.5,-56 223.5,-76"/>
<text xml:space="preserve" text-anchor="middle" x="182.88" y="-62.5" font-family="Helvetica,sans-Serif" font-size="10.00">CodeTokeniser</text>
</a>
</g>
</g>
<!-- Node2 -->
<g id="Node000002" class="node">
<title>Node2</title>
<g id="a_Node000002"><a xlink:href="classCPlusPlusCodeTokeniser.html" target="_top" xlink:title="A simple lexical analyser for syntax colouring of C++ code.">
<polygon fill="white" stroke="#666666" points="127.75,-20 0,-20 0,0 127.75,0 127.75,-20"/>
<text xml:space="preserve" text-anchor="middle" x="63.88" y="-6.5" font-family="Helvetica,sans-Serif" font-size="10.00">CPlusPlusCodeTokeniser</text>
</a>
</g>
</g>
<!-- Node1&#45;&gt;Node2 -->
<g id="edge1_Node000001_Node000002" class="edge">
<title>Node1&#45;&gt;Node2</title>
<g id="a_edge1_Node000001_Node000002"><a xlink:title=" ">
<path fill="none" stroke="#63b8ff" d="M151.75,-50.88C130.64,-41.3 103.3,-28.89 84.76,-20.48"/>
<polygon fill="#63b8ff" stroke="#63b8ff" points="150.22,-54.02 160.77,-54.97 153.11,-47.65 150.22,-54.02"/>
</a>
</g>
</g>
<!-- Node3 -->
<g id="Node000003" class="node">
<title>Node3</title>
<g id="a_Node000003"><a xlink:href="classLuaTokeniser.html" target="_top" xlink:title=" ">
<polygon fill="white" stroke="#666666" points="219.75,-20 146,-20 146,0 219.75,0 219.75,-20"/>
<text xml:space="preserve" text-anchor="middle" x="182.88" y="-6.5" font-family="Helvetica,sans-Serif" font-size="10.00">LuaTokeniser</text>
</a>
</g>
</g>
<!-- Node1&#45;&gt;Node3 -->
<g id="edge2_Node000001_Node000003" class="edge">
<title>Node1&#45;&gt;Node3</title>
<g id="a_edge2_Node000001_Node000003"><a xlink:title=" ">
<path fill="none" stroke="#63b8ff" d="M182.88,-44.13C182.88,-35.9 182.88,-26.85 182.88,-20.3"/>
<polygon fill="#63b8ff" stroke="#63b8ff" points="179.38,-44.08 182.88,-54.08 186.38,-44.08 179.38,-44.08"/>
</a>
</g>
</g>
<!-- Node4 -->
<g id="Node000004" class="node">
<title>Node4</title>
<g id="a_Node000004"><a xlink:href="classXmlTokeniser.html" target="_top" xlink:title=" ">
<polygon fill="white" stroke="#666666" points="313.5,-20 238.25,-20 238.25,0 313.5,0 313.5,-20"/>
<text xml:space="preserve" text-anchor="middle" x="275.88" y="-6.5" font-family="Helvetica,sans-Serif" font-size="10.00">XmlTokeniser</text>
</a>
</g>
</g>
<!-- Node1&#45;&gt;Node4 -->
<g id="edge3_Node000001_Node000004" class="edge">
<title>Node1&#45;&gt;Node4</title>
<g id="a_edge3_Node000001_Node000004"><a xlink:title=" ">
<path fill="none" stroke="#63b8ff" d="M208.57,-50.08C224.87,-40.62 245.46,-28.66 259.55,-20.48"/>
<polygon fill="#63b8ff" stroke="#63b8ff" points="207.27,-46.79 200.38,-54.83 210.79,-52.84 207.27,-46.79"/>
</a>
</g>
</g>
</g>
</svg>
