<?xml version="1.0" encoding="UTF-8" standalone="no"?>
<!DOCTYPE svg PUBLIC "-//W3C//DTD SVG 1.1//EN"
 "http://www.w3.org/Graphics/SVG/1.1/DTD/svg11.dtd">
<!-- Generated by graphviz version 13.1.0 (20250701.0955)
 -->
<!-- Title: MidiKeyboardState::Listener Pages: 1 -->
<svg width="264pt" height="96pt"
 viewBox="0.00 0.00 264.00 96.00" xmlns="http://www.w3.org/2000/svg" xmlns:xlink="http://www.w3.org/1999/xlink">
<g id="graph0" class="graph" transform="scale(1 1) rotate(0) translate(4 92)">
<title>MidiKeyboardState::Listener</title>
<!-- Node1 -->
<g id="Node000001" class="node">
<title>Node1</title>
<g id="a_Node000001"><a xlink:title="Receives events from a MidiKeyboardState object.">
<polygon fill="#999999" stroke="#666666" points="183,-88 78.5,-88 78.5,-56 183,-56 183,-88"/>
<text xml:space="preserve" text-anchor="start" x="86.5" y="-74.5" font-family="Helvetica,sans-Serif" font-size="10.00">MidiKeyboardState::</text>
<text xml:space="preserve" text-anchor="middle" x="130.75" y="-62.5" font-family="Helvetica,sans-Serif" font-size="10.00">Listener</text>
</a>
</g>
</g>
<!-- Node2 -->
<g id="Node000002" class="node">
<title>Node2</title>
<g id="a_Node000002"><a xlink:href="classMidiKeyboardComponent.html" target="_top" xlink:title="A component that displays a piano keyboard, whose notes can be clicked on.">
<polygon fill="white" stroke="#666666" points="125.5,-20 0,-20 0,0 125.5,0 125.5,-20"/>
<text xml:space="preserve" text-anchor="middle" x="62.75" y="-6.5" font-family="Helvetica,sans-Serif" font-size="10.00">MidiKeyboardComponent</text>
</a>
</g>
</g>
<!-- Node1&#45;&gt;Node2 -->
<g id="edge1_Node000001_Node000002" class="edge">
<title>Node1&#45;&gt;Node2</title>
<g id="a_edge1_Node000001_Node000002"><a xlink:title=" ">
<path fill="none" stroke="#8b1a1a" d="M104.83,-48.13C93.92,-38.5 81.82,-27.83 73.41,-20.41"/>
<polygon fill="#8b1a1a" stroke="#8b1a1a" points="102.29,-50.56 112.1,-54.55 106.92,-45.31 102.29,-50.56"/>
</a>
</g>
</g>
<!-- Node3 -->
<g id="Node000003" class="node">
<title>Node3</title>
<g id="a_Node000003"><a xlink:href="classMidiMessageCollector.html" target="_top" xlink:title="Collects incoming realtime MIDI messages and turns them into blocks suitable for processing by a bloc...">
<polygon fill="white" stroke="#666666" points="256.12,-20 143.38,-20 143.38,0 256.12,0 256.12,-20"/>
<text xml:space="preserve" text-anchor="middle" x="199.75" y="-6.5" font-family="Helvetica,sans-Serif" font-size="10.00">MidiMessageCollector</text>
</a>
</g>
</g>
<!-- Node1&#45;&gt;Node3 -->
<g id="edge2_Node000001_Node000003" class="edge">
<title>Node1&#45;&gt;Node3</title>
<g id="a_edge2_Node000001_Node000003"><a xlink:title=" ">
<path fill="none" stroke="#63b8ff" d="M157.05,-48.13C168.12,-38.5 180.4,-27.83 188.93,-20.41"/>
<polygon fill="#63b8ff" stroke="#63b8ff" points="154.91,-45.35 149.66,-54.56 159.5,-50.63 154.91,-45.35"/>
</a>
</g>
</g>
</g>
</svg>
