<?xml version="1.0" encoding="UTF-8" standalone="no"?>
<!DOCTYPE svg PUBLIC "-//W3C//DTD SVG 1.1//EN"
 "http://www.w3.org/Graphics/SVG/1.1/DTD/svg11.dtd">
<!-- Generated by graphviz version 13.1.0 (20250701.0955)
 -->
<!-- Title: AudioPluginInstance Pages: 1 -->
<svg width="136pt" height="208pt"
 viewBox="0.00 0.00 136.00 208.00" xmlns="http://www.w3.org/2000/svg" xmlns:xlink="http://www.w3.org/1999/xlink">
<g id="graph0" class="graph" transform="scale(1 1) rotate(0) translate(4 204)">
<title>AudioPluginInstance</title>
<!-- Node1 -->
<g id="Node000001" class="node">
<title>Node1</title>
<g id="a_Node000001"><a xlink:title="Base class for an active instance of a plugin.">
<polygon fill="#999999" stroke="#666666" points="116.5,-88 11.25,-88 11.25,-68 116.5,-68 116.5,-88"/>
<text xml:space="preserve" text-anchor="middle" x="63.88" y="-74.5" font-family="Helvetica,sans-Serif" font-size="10.00">AudioPluginInstance</text>
</a>
</g>
</g>
<!-- Node4 -->
<g id="Node000004" class="node">
<title>Node4</title>
<g id="a_Node000004"><a xlink:href="classAudioProcessorGraph_1_1AudioGraphIOProcessor.html" target="_top" xlink:title="A special type of AudioProcessor that can live inside an AudioProcessorGraph in order to use the audi...">
<polygon fill="white" stroke="#666666" points="127.75,-32 0,-32 0,0 127.75,0 127.75,-32"/>
<text xml:space="preserve" text-anchor="start" x="8" y="-18.5" font-family="Helvetica,sans-Serif" font-size="10.00">AudioProcessorGraph</text>
<text xml:space="preserve" text-anchor="middle" x="63.88" y="-6.5" font-family="Helvetica,sans-Serif" font-size="10.00">::AudioGraphIOProcessor</text>
</a>
</g>
</g>
<!-- Node1&#45;&gt;Node4 -->
<g id="edge3_Node000001_Node000004" class="edge">
<title>Node1&#45;&gt;Node4</title>
<g id="a_edge3_Node000001_Node000004"><a xlink:title=" ">
<path fill="none" stroke="#63b8ff" d="M63.88,-56.31C63.88,-48.37 63.88,-39.46 63.88,-32.14"/>
<polygon fill="#63b8ff" stroke="#63b8ff" points="60.38,-56.11 63.88,-66.11 67.38,-56.11 60.38,-56.11"/>
</a>
</g>
</g>
<!-- Node2 -->
<g id="Node000002" class="node">
<title>Node2</title>
<g id="a_Node000002"><a xlink:href="classAudioProcessor.html" target="_top" xlink:title="Base class for audio processing classes or plugins.">
<polygon fill="white" stroke="#666666" points="106.38,-144 21.38,-144 21.38,-124 106.38,-124 106.38,-144"/>
<text xml:space="preserve" text-anchor="middle" x="63.88" y="-130.5" font-family="Helvetica,sans-Serif" font-size="10.00">AudioProcessor</text>
</a>
</g>
</g>
<!-- Node2&#45;&gt;Node1 -->
<g id="edge1_Node000001_Node000002" class="edge">
<title>Node2&#45;&gt;Node1</title>
<g id="a_edge1_Node000001_Node000002"><a xlink:title=" ">
<path fill="none" stroke="#63b8ff" d="M63.88,-112.13C63.88,-103.9 63.88,-94.85 63.88,-88.3"/>
<polygon fill="#63b8ff" stroke="#63b8ff" points="60.38,-112.08 63.88,-122.08 67.38,-112.08 60.38,-112.08"/>
</a>
</g>
</g>
<!-- Node3 -->
<g id="Node000003" class="node">
<title>Node3</title>
<g id="a_Node000003"><a xlink:href="structAAXClientExtensions.html" target="_top" xlink:title="An interface to allow an AudioProcessor to implement extended AAX&#45;specific functionality.">
<polygon fill="white" stroke="#666666" points="119.12,-200 8.62,-200 8.62,-180 119.12,-180 119.12,-200"/>
<text xml:space="preserve" text-anchor="middle" x="63.88" y="-186.5" font-family="Helvetica,sans-Serif" font-size="10.00">AAXClientExtensions</text>
</a>
</g>
</g>
<!-- Node3&#45;&gt;Node2 -->
<g id="edge2_Node000002_Node000003" class="edge">
<title>Node3&#45;&gt;Node2</title>
<g id="a_edge2_Node000002_Node000003"><a xlink:title=" ">
<path fill="none" stroke="#8b1a1a" d="M63.88,-168.13C63.88,-159.9 63.88,-150.85 63.88,-144.3"/>
<polygon fill="#8b1a1a" stroke="#8b1a1a" points="60.38,-168.08 63.88,-178.08 67.38,-168.08 60.38,-168.08"/>
</a>
</g>
</g>
</g>
</svg>
