<?xml version="1.0" encoding="UTF-8" standalone="no"?>
<!DOCTYPE svg PUBLIC "-//W3C//DTD SVG 1.1//EN"
 "http://www.w3.org/Graphics/SVG/1.1/DTD/svg11.dtd">
<!-- Generated by graphviz version 13.1.0 (20250701.0955)
 -->
<!-- Title: ConcertinaPanel Pages: 1 -->
<svg width="96pt" height="140pt"
 viewBox="0.00 0.00 96.00 140.00" xmlns="http://www.w3.org/2000/svg" xmlns:xlink="http://www.w3.org/1999/xlink">
<g id="graph0" class="graph" transform="scale(1 1) rotate(0) translate(4 136)">
<title>ConcertinaPanel</title>
<!-- Node1 -->
<g id="Node000001" class="node">
<title>Node1</title>
<g id="a_Node000001"><a xlink:title="A panel which holds a vertical stack of components which can be expanded and contracted.">
<polygon fill="#999999" stroke="#666666" points="88,-20 0,-20 0,0 88,0 88,-20"/>
<text xml:space="preserve" text-anchor="middle" x="44" y="-6.5" font-family="Helvetica,sans-Serif" font-size="10.00">ConcertinaPanel</text>
</a>
</g>
</g>
<!-- Node2 -->
<g id="Node000002" class="node">
<title>Node2</title>
<g id="a_Node000002"><a xlink:href="classComponent.html" target="_top" xlink:title="The base class for all JUCE user&#45;interface objects.">
<polygon fill="white" stroke="#666666" points="77.12,-76 10.88,-76 10.88,-56 77.12,-56 77.12,-76"/>
<text xml:space="preserve" text-anchor="middle" x="44" y="-62.5" font-family="Helvetica,sans-Serif" font-size="10.00">Component</text>
</a>
</g>
</g>
<!-- Node2&#45;&gt;Node1 -->
<g id="edge1_Node000001_Node000002" class="edge">
<title>Node2&#45;&gt;Node1</title>
<g id="a_edge1_Node000001_Node000002"><a xlink:title=" ">
<path fill="none" stroke="#63b8ff" d="M44,-44.13C44,-35.9 44,-26.85 44,-20.3"/>
<polygon fill="#63b8ff" stroke="#63b8ff" points="40.5,-44.08 44,-54.08 47.5,-44.08 40.5,-44.08"/>
</a>
</g>
</g>
<!-- Node3 -->
<g id="Node000003" class="node">
<title>Node3</title>
<g id="a_Node000003"><a xlink:href="classMouseListener.html" target="_top" xlink:title="A MouseListener can be registered with a component to receive callbacks about mouse events that happe...">
<polygon fill="white" stroke="#666666" points="83.88,-132 4.12,-132 4.12,-112 83.88,-112 83.88,-132"/>
<text xml:space="preserve" text-anchor="middle" x="44" y="-118.5" font-family="Helvetica,sans-Serif" font-size="10.00">MouseListener</text>
</a>
</g>
</g>
<!-- Node3&#45;&gt;Node2 -->
<g id="edge2_Node000002_Node000003" class="edge">
<title>Node3&#45;&gt;Node2</title>
<g id="a_edge2_Node000002_Node000003"><a xlink:title=" ">
<path fill="none" stroke="#63b8ff" d="M44,-100.13C44,-91.9 44,-82.85 44,-76.3"/>
<polygon fill="#63b8ff" stroke="#63b8ff" points="40.5,-100.08 44,-110.08 47.5,-100.08 40.5,-100.08"/>
</a>
</g>
</g>
</g>
</svg>
