<?xml version="1.0" encoding="UTF-8" standalone="no"?>
<!DOCTYPE svg PUBLIC "-//W3C//DTD SVG 1.1//EN"
 "http://www.w3.org/Graphics/SVG/1.1/DTD/svg11.dtd">
<!-- Generated by graphviz version 13.1.0 (20250701.0955)
 -->
<!-- Title: RelativePointPath::ElementBase Pages: 1 -->
<svg width="246pt" height="240pt"
 viewBox="0.00 0.00 246.00 240.00" xmlns="http://www.w3.org/2000/svg" xmlns:xlink="http://www.w3.org/1999/xlink">
<g id="graph0" class="graph" transform="scale(1 1) rotate(0) translate(4 236)">
<title>RelativePointPath::ElementBase</title>
<!-- Node1 -->
<g id="Node000001" class="node">
<title>Node1</title>
<g id="a_Node000001"><a xlink:title="Base class for the elements that make up a RelativePointPath.">
<polygon fill="#999999" stroke="#666666" points="100.75,-132 0,-132 0,-100 100.75,-100 100.75,-132"/>
<text xml:space="preserve" text-anchor="start" x="8" y="-118.5" font-family="Helvetica,sans-Serif" font-size="10.00">RelativePointPath::</text>
<text xml:space="preserve" text-anchor="middle" x="50.38" y="-106.5" font-family="Helvetica,sans-Serif" font-size="10.00">ElementBase</text>
</a>
</g>
</g>
<!-- Node2 -->
<g id="Node000002" class="node">
<title>Node2</title>
<g id="a_Node000002"><a xlink:href="classRelativePointPath_1_1CloseSubPath.html" target="_top" xlink:title="Class for the close sub path element.">
<polygon fill="white" stroke="#666666" points="237.5,-232 136.75,-232 136.75,-200 237.5,-200 237.5,-232"/>
<text xml:space="preserve" text-anchor="start" x="144.75" y="-218.5" font-family="Helvetica,sans-Serif" font-size="10.00">RelativePointPath::</text>
<text xml:space="preserve" text-anchor="middle" x="187.12" y="-206.5" font-family="Helvetica,sans-Serif" font-size="10.00">CloseSubPath</text>
</a>
</g>
</g>
<!-- Node1&#45;&gt;Node2 -->
<g id="edge1_Node000001_Node000002" class="edge">
<title>Node1&#45;&gt;Node2</title>
<g id="a_edge1_Node000001_Node000002"><a xlink:title=" ">
<path fill="none" stroke="#63b8ff" d="M75.33,-139.99C91.74,-155.66 114.48,-175.94 136.75,-191 141.21,-194.01 146.08,-196.91 150.96,-199.59"/>
<polygon fill="#63b8ff" stroke="#63b8ff" points="78.06,-137.77 68.44,-133.32 73.19,-142.8 78.06,-137.77"/>
</a>
</g>
</g>
<!-- Node3 -->
<g id="Node000003" class="node">
<title>Node3</title>
<g id="a_Node000003"><a xlink:href="classRelativePointPath_1_1CubicTo.html" target="_top" xlink:title="Class for the cubic to element.">
<polygon fill="white" stroke="#666666" points="237.5,-182 136.75,-182 136.75,-150 237.5,-150 237.5,-182"/>
<text xml:space="preserve" text-anchor="start" x="144.75" y="-168.5" font-family="Helvetica,sans-Serif" font-size="10.00">RelativePointPath::</text>
<text xml:space="preserve" text-anchor="middle" x="187.12" y="-156.5" font-family="Helvetica,sans-Serif" font-size="10.00">CubicTo</text>
</a>
</g>
</g>
<!-- Node1&#45;&gt;Node3 -->
<g id="edge2_Node000001_Node000003" class="edge">
<title>Node1&#45;&gt;Node3</title>
<g id="a_edge2_Node000001_Node000003"><a xlink:title=" ">
<path fill="none" stroke="#63b8ff" d="M106.21,-136.35C118.08,-140.75 130.5,-145.36 141.9,-149.59"/>
<polygon fill="#63b8ff" stroke="#63b8ff" points="107.51,-133.1 96.92,-132.9 105.07,-139.66 107.51,-133.1"/>
</a>
</g>
</g>
<!-- Node4 -->
<g id="Node000004" class="node">
<title>Node4</title>
<g id="a_Node000004"><a xlink:href="classRelativePointPath_1_1LineTo.html" target="_top" xlink:title="Class for the line to element.">
<polygon fill="white" stroke="#666666" points="237.5,-132 136.75,-132 136.75,-100 237.5,-100 237.5,-132"/>
<text xml:space="preserve" text-anchor="start" x="144.75" y="-118.5" font-family="Helvetica,sans-Serif" font-size="10.00">RelativePointPath::</text>
<text xml:space="preserve" text-anchor="middle" x="187.12" y="-106.5" font-family="Helvetica,sans-Serif" font-size="10.00">LineTo</text>
</a>
</g>
</g>
<!-- Node1&#45;&gt;Node4 -->
<g id="edge3_Node000001_Node000004" class="edge">
<title>Node1&#45;&gt;Node4</title>
<g id="a_edge3_Node000001_Node000004"><a xlink:title=" ">
<path fill="none" stroke="#63b8ff" d="M112.44,-116C120.51,-116 128.7,-116 136.54,-116"/>
<polygon fill="#63b8ff" stroke="#63b8ff" points="112.68,-112.5 102.68,-116 112.68,-119.5 112.68,-112.5"/>
</a>
</g>
</g>
<!-- Node5 -->
<g id="Node000005" class="node">
<title>Node5</title>
<g id="a_Node000005"><a xlink:href="classRelativePointPath_1_1QuadraticTo.html" target="_top" xlink:title="Class for the quadratic to element.">
<polygon fill="white" stroke="#666666" points="237.5,-82 136.75,-82 136.75,-50 237.5,-50 237.5,-82"/>
<text xml:space="preserve" text-anchor="start" x="144.75" y="-68.5" font-family="Helvetica,sans-Serif" font-size="10.00">RelativePointPath::</text>
<text xml:space="preserve" text-anchor="middle" x="187.12" y="-56.5" font-family="Helvetica,sans-Serif" font-size="10.00">QuadraticTo</text>
</a>
</g>
</g>
<!-- Node1&#45;&gt;Node5 -->
<g id="edge4_Node000001_Node000005" class="edge">
<title>Node1&#45;&gt;Node5</title>
<g id="a_edge4_Node000001_Node000005"><a xlink:title=" ">
<path fill="none" stroke="#63b8ff" d="M106.21,-95.65C118.08,-91.25 130.5,-86.64 141.9,-82.41"/>
<polygon fill="#63b8ff" stroke="#63b8ff" points="105.07,-92.34 96.92,-99.1 107.51,-98.9 105.07,-92.34"/>
</a>
</g>
</g>
<!-- Node6 -->
<g id="Node000006" class="node">
<title>Node6</title>
<g id="a_Node000006"><a xlink:href="classRelativePointPath_1_1StartSubPath.html" target="_top" xlink:title="Class for the start sub path element.">
<polygon fill="white" stroke="#666666" points="237.5,-32 136.75,-32 136.75,0 237.5,0 237.5,-32"/>
<text xml:space="preserve" text-anchor="start" x="144.75" y="-18.5" font-family="Helvetica,sans-Serif" font-size="10.00">RelativePointPath::</text>
<text xml:space="preserve" text-anchor="middle" x="187.12" y="-6.5" font-family="Helvetica,sans-Serif" font-size="10.00">StartSubPath</text>
</a>
</g>
</g>
<!-- Node1&#45;&gt;Node6 -->
<g id="edge5_Node000001_Node000006" class="edge">
<title>Node1&#45;&gt;Node6</title>
<g id="a_edge5_Node000001_Node000006"><a xlink:title=" ">
<path fill="none" stroke="#63b8ff" d="M75.33,-92.01C91.74,-76.34 114.48,-56.06 136.75,-41 141.21,-37.99 146.08,-35.09 150.96,-32.41"/>
<polygon fill="#63b8ff" stroke="#63b8ff" points="73.19,-89.2 68.44,-98.68 78.06,-94.23 73.19,-89.2"/>
</a>
</g>
</g>
</g>
</svg>
