<?xml version="1.0" encoding="UTF-8" standalone="no"?>
<!DOCTYPE svg PUBLIC "-//W3C//DTD SVG 1.1//EN"
 "http://www.w3.org/Graphics/SVG/1.1/DTD/svg11.dtd">
<!-- Generated by graphviz version 13.1.0 (20250701.0955)
 -->
<!-- Title: FileListComponent Pages: 1 -->
<svg width="399pt" height="208pt"
 viewBox="0.00 0.00 399.00 208.00" xmlns="http://www.w3.org/2000/svg" xmlns:xlink="http://www.w3.org/1999/xlink">
<g id="graph0" class="graph" transform="scale(1 1) rotate(0) translate(4 204)">
<title>FileListComponent</title>
<!-- Node1 -->
<g id="Node000001" class="node">
<title>Node1</title>
<g id="a_Node000001"><a xlink:title="A component that displays the files in a directory as a listbox.">
<polygon fill="#999999" stroke="#666666" points="219.5,-20 121.75,-20 121.75,0 219.5,0 219.5,-20"/>
<text xml:space="preserve" text-anchor="middle" x="170.62" y="-6.5" font-family="Helvetica,sans-Serif" font-size="10.00">FileListComponent</text>
</a>
</g>
</g>
<!-- Node2 -->
<g id="Node000002" class="node">
<title>Node2</title>
<g id="a_Node000002"><a xlink:href="classListBoxModel.html" target="_top" xlink:title="A subclass of this is used to drive a ListBox.">
<polygon fill="white" stroke="#666666" points="75.25,-82 0,-82 0,-62 75.25,-62 75.25,-82"/>
<text xml:space="preserve" text-anchor="middle" x="37.62" y="-68.5" font-family="Helvetica,sans-Serif" font-size="10.00">ListBoxModel</text>
</a>
</g>
</g>
<!-- Node2&#45;&gt;Node1 -->
<g id="edge1_Node000001_Node000002" class="edge">
<title>Node2&#45;&gt;Node1</title>
<g id="a_edge1_Node000001_Node000002"><a xlink:title=" ">
<path fill="none" stroke="#8b1a1a" d="M68.83,-56.92C93.86,-45.63 128.28,-30.1 149.99,-20.31"/>
<polygon fill="#8b1a1a" stroke="#8b1a1a" points="67.46,-53.7 59.79,-61 70.34,-60.08 67.46,-53.7"/>
</a>
</g>
</g>
<!-- Node3 -->
<g id="Node000003" class="node">
<title>Node3</title>
<g id="a_Node000003"><a xlink:href="classListBox.html" target="_top" xlink:title="A list of items that can be scrolled vertically.">
<polygon fill="white" stroke="#666666" points="142.12,-82 93.12,-82 93.12,-62 142.12,-62 142.12,-82"/>
<text xml:space="preserve" text-anchor="middle" x="117.62" y="-68.5" font-family="Helvetica,sans-Serif" font-size="10.00">ListBox</text>
</a>
</g>
</g>
<!-- Node3&#45;&gt;Node1 -->
<g id="edge2_Node000001_Node000003" class="edge">
<title>Node3&#45;&gt;Node1</title>
<g id="a_edge2_Node000001_Node000003"><a xlink:title=" ">
<path fill="none" stroke="#63b8ff" d="M133.3,-53.25C142.92,-42.36 154.83,-28.88 162.58,-20.11"/>
<polygon fill="#63b8ff" stroke="#63b8ff" points="130.91,-50.68 126.91,-60.49 136.15,-55.31 130.91,-50.68"/>
</a>
</g>
</g>
<!-- Node4 -->
<g id="Node000004" class="node">
<title>Node4</title>
<g id="a_Node000004"><a xlink:href="classComponent.html" target="_top" xlink:title="The base class for all JUCE user&#45;interface objects.">
<polygon fill="white" stroke="#666666" points="98.75,-144 32.5,-144 32.5,-124 98.75,-124 98.75,-144"/>
<text xml:space="preserve" text-anchor="middle" x="65.62" y="-130.5" font-family="Helvetica,sans-Serif" font-size="10.00">Component</text>
</a>
</g>
</g>
<!-- Node4&#45;&gt;Node3 -->
<g id="edge3_Node000003_Node000004" class="edge">
<title>Node4&#45;&gt;Node3</title>
<g id="a_edge3_Node000003_Node000004"><a xlink:title=" ">
<path fill="none" stroke="#63b8ff" d="M81.01,-115.25C90.44,-104.36 102.13,-90.88 109.73,-82.11"/>
<polygon fill="#63b8ff" stroke="#63b8ff" points="78.65,-112.63 74.74,-122.48 83.94,-117.22 78.65,-112.63"/>
</a>
</g>
</g>
<!-- Node5 -->
<g id="Node000005" class="node">
<title>Node5</title>
<g id="a_Node000005"><a xlink:href="classMouseListener.html" target="_top" xlink:title="A MouseListener can be registered with a component to receive callbacks about mouse events that happe...">
<polygon fill="white" stroke="#666666" points="105.5,-200 25.75,-200 25.75,-180 105.5,-180 105.5,-200"/>
<text xml:space="preserve" text-anchor="middle" x="65.62" y="-186.5" font-family="Helvetica,sans-Serif" font-size="10.00">MouseListener</text>
</a>
</g>
</g>
<!-- Node5&#45;&gt;Node4 -->
<g id="edge4_Node000004_Node000005" class="edge">
<title>Node5&#45;&gt;Node4</title>
<g id="a_edge4_Node000004_Node000005"><a xlink:title=" ">
<path fill="none" stroke="#63b8ff" d="M65.62,-168.13C65.62,-159.9 65.62,-150.85 65.62,-144.3"/>
<polygon fill="#63b8ff" stroke="#63b8ff" points="62.13,-168.08 65.63,-178.08 69.13,-168.08 62.13,-168.08"/>
</a>
</g>
</g>
<!-- Node6 -->
<g id="Node000006" class="node">
<title>Node6</title>
<g id="a_Node000006"><a xlink:href="classSettableTooltipClient.html" target="_top" xlink:title="An implementation of TooltipClient that stores the tooltip string and a method for changing it.">
<polygon fill="white" stroke="#666666" points="222.62,-144 116.62,-144 116.62,-124 222.62,-124 222.62,-144"/>
<text xml:space="preserve" text-anchor="middle" x="169.62" y="-130.5" font-family="Helvetica,sans-Serif" font-size="10.00">SettableTooltipClient</text>
</a>
</g>
</g>
<!-- Node6&#45;&gt;Node3 -->
<g id="edge5_Node000003_Node000006" class="edge">
<title>Node6&#45;&gt;Node3</title>
<g id="a_edge5_Node000003_Node000006"><a xlink:title=" ">
<path fill="none" stroke="#63b8ff" d="M154.24,-115.25C144.81,-104.36 133.12,-90.88 125.52,-82.11"/>
<polygon fill="#63b8ff" stroke="#63b8ff" points="151.31,-117.22 160.51,-122.48 156.6,-112.63 151.31,-117.22"/>
</a>
</g>
</g>
<!-- Node7 -->
<g id="Node000007" class="node">
<title>Node7</title>
<g id="a_Node000007"><a xlink:href="classTooltipClient.html" target="_top" xlink:title="Components that want to use pop&#45;up tooltips should implement this interface.">
<polygon fill="white" stroke="#666666" points="204.62,-200 134.62,-200 134.62,-180 204.62,-180 204.62,-200"/>
<text xml:space="preserve" text-anchor="middle" x="169.62" y="-186.5" font-family="Helvetica,sans-Serif" font-size="10.00">TooltipClient</text>
</a>
</g>
</g>
<!-- Node7&#45;&gt;Node6 -->
<g id="edge6_Node000006_Node000007" class="edge">
<title>Node7&#45;&gt;Node6</title>
<g id="a_edge6_Node000006_Node000007"><a xlink:title=" ">
<path fill="none" stroke="#63b8ff" d="M169.62,-168.13C169.62,-159.9 169.62,-150.85 169.62,-144.3"/>
<polygon fill="#63b8ff" stroke="#63b8ff" points="166.13,-168.08 169.63,-178.08 173.13,-168.08 166.13,-168.08"/>
</a>
</g>
</g>
<!-- Node8 -->
<g id="Node000008" class="node">
<title>Node8</title>
<g id="a_Node000008"><a xlink:href="classDirectoryContentsDisplayComponent.html" target="_top" xlink:title="A base class for components that display a list of the files in a directory.">
<polygon fill="white" stroke="#666666" points="288.88,-88 160.38,-88 160.38,-56 288.88,-56 288.88,-88"/>
<text xml:space="preserve" text-anchor="start" x="168.38" y="-74.5" font-family="Helvetica,sans-Serif" font-size="10.00">DirectoryContentsDisplay</text>
<text xml:space="preserve" text-anchor="middle" x="224.62" y="-62.5" font-family="Helvetica,sans-Serif" font-size="10.00">Component</text>
</a>
</g>
</g>
<!-- Node8&#45;&gt;Node1 -->
<g id="edge7_Node000001_Node000008" class="edge">
<title>Node8&#45;&gt;Node1</title>
<g id="a_edge7_Node000001_Node000008"><a xlink:title=" ">
<path fill="none" stroke="#63b8ff" d="M203.27,-47.27C194.81,-37.87 185.57,-27.61 179.09,-20.41"/>
<polygon fill="#63b8ff" stroke="#63b8ff" points="200.41,-49.33 209.71,-54.42 205.62,-44.65 200.41,-49.33"/>
</a>
</g>
</g>
<!-- Node9 -->
<g id="Node000009" class="node">
<title>Node9</title>
<g id="a_Node000009"><a xlink:href="classChangeListener.html" target="_top" xlink:title="Receives change event callbacks that are sent out by a ChangeBroadcaster.">
<polygon fill="white" stroke="#666666" points="390.75,-82 306.5,-82 306.5,-62 390.75,-62 390.75,-82"/>
<text xml:space="preserve" text-anchor="middle" x="348.62" y="-68.5" font-family="Helvetica,sans-Serif" font-size="10.00">ChangeListener</text>
</a>
</g>
</g>
<!-- Node9&#45;&gt;Node1 -->
<g id="edge8_Node000001_Node000009" class="edge">
<title>Node9&#45;&gt;Node1</title>
<g id="a_edge8_Node000001_Node000009"><a xlink:title=" ">
<path fill="none" stroke="#8b1a1a" d="M310.01,-57.98C276.42,-46.66 228.53,-30.52 198.54,-20.41"/>
<polygon fill="#8b1a1a" stroke="#8b1a1a" points="308.78,-61.26 319.38,-61.14 311.02,-54.63 308.78,-61.26"/>
</a>
</g>
</g>
</g>
</svg>
