<?xml version="1.0" encoding="UTF-8" standalone="no"?>
<!DOCTYPE svg PUBLIC "-//W3C//DTD SVG 1.1//EN"
 "http://www.w3.org/Graphics/SVG/1.1/DTD/svg11.dtd">
<!-- Generated by graphviz version 13.1.0 (20250701.0955)
 -->
<!-- Title: ApplicationCommandTarget Pages: 1 -->
<svg width="232pt" height="84pt"
 viewBox="0.00 0.00 232.00 84.00" xmlns="http://www.w3.org/2000/svg" xmlns:xlink="http://www.w3.org/1999/xlink">
<g id="graph0" class="graph" transform="scale(1 1) rotate(0) translate(4 80)">
<title>ApplicationCommandTarget</title>
<!-- Node1 -->
<g id="Node000001" class="node">
<title>Node1</title>
<g id="a_Node000001"><a xlink:title="A command target publishes a list of command IDs that it can perform.">
<polygon fill="#999999" stroke="#666666" points="185.5,-76 49.5,-76 49.5,-56 185.5,-56 185.5,-76"/>
<text xml:space="preserve" text-anchor="middle" x="117.5" y="-62.5" font-family="Helvetica,sans-Serif" font-size="10.00">ApplicationCommandTarget</text>
</a>
</g>
</g>
<!-- Node2 -->
<g id="Node000002" class="node">
<title>Node2</title>
<g id="a_Node000002"><a xlink:href="classCodeEditorComponent.html" target="_top" xlink:title="A text editor component designed specifically for source code.">
<polygon fill="white" stroke="#666666" points="115,-20 0,-20 0,0 115,0 115,-20"/>
<text xml:space="preserve" text-anchor="middle" x="57.5" y="-6.5" font-family="Helvetica,sans-Serif" font-size="10.00">CodeEditorComponent</text>
</a>
</g>
</g>
<!-- Node1&#45;&gt;Node2 -->
<g id="edge1_Node000001_Node000002" class="edge">
<title>Node1&#45;&gt;Node2</title>
<g id="a_edge1_Node000001_Node000002"><a xlink:title=" ">
<path fill="none" stroke="#63b8ff" d="M98.75,-48.13C88.55,-38.94 76.31,-27.93 67.83,-20.3"/>
<polygon fill="#63b8ff" stroke="#63b8ff" points="96.15,-50.49 105.92,-54.58 100.83,-45.29 96.15,-50.49"/>
</a>
</g>
</g>
<!-- Node3 -->
<g id="Node000003" class="node">
<title>Node3</title>
<g id="a_Node000003"><a xlink:href="classJUCEApplication.html" target="_top" xlink:title="An instance of this class is used to specify initialisation and shutdown code for the application.">
<polygon fill="white" stroke="#666666" points="224,-20 133,-20 133,0 224,0 224,-20"/>
<text xml:space="preserve" text-anchor="middle" x="178.5" y="-6.5" font-family="Helvetica,sans-Serif" font-size="10.00">JUCEApplication</text>
</a>
</g>
</g>
<!-- Node1&#45;&gt;Node3 -->
<g id="edge2_Node000001_Node000003" class="edge">
<title>Node1&#45;&gt;Node3</title>
<g id="a_edge2_Node000001_Node000003"><a xlink:title=" ">
<path fill="none" stroke="#63b8ff" d="M136.56,-48.13C146.94,-38.94 159.37,-27.93 168,-20.3"/>
<polygon fill="#63b8ff" stroke="#63b8ff" points="134.43,-45.34 129.26,-54.59 139.07,-50.58 134.43,-45.34"/>
</a>
</g>
</g>
</g>
</svg>
