<?xml version="1.0" encoding="UTF-8" standalone="no"?>
<!DOCTYPE svg PUBLIC "-//W3C//DTD SVG 1.1//EN"
 "http://www.w3.org/Graphics/SVG/1.1/DTD/svg11.dtd">
<!-- Generated by graphviz version 13.1.0 (20250701.0955)
 -->
<!-- Title: PositionableAudioSource Pages: 1 -->
<svg width="524pt" height="140pt"
 viewBox="0.00 0.00 524.00 140.00" xmlns="http://www.w3.org/2000/svg" xmlns:xlink="http://www.w3.org/1999/xlink">
<g id="graph0" class="graph" transform="scale(1 1) rotate(0) translate(4 136)">
<title>PositionableAudioSource</title>
<!-- Node1 -->
<g id="Node000001" class="node">
<title>Node1</title>
<g id="a_Node000001"><a xlink:title="A type of AudioSource which can be repositioned.">
<polygon fill="#999999" stroke="#666666" points="334.25,-76 209.5,-76 209.5,-56 334.25,-56 334.25,-76"/>
<text xml:space="preserve" text-anchor="middle" x="271.88" y="-62.5" font-family="Helvetica,sans-Serif" font-size="10.00">PositionableAudioSource</text>
</a>
</g>
</g>
<!-- Node3 -->
<g id="Node000003" class="node">
<title>Node3</title>
<g id="a_Node000003"><a xlink:href="classAudioFormatReaderSource.html" target="_top" xlink:title="A type of AudioSource that will read from an AudioFormatReader.">
<polygon fill="white" stroke="#666666" points="133.75,-20 0,-20 0,0 133.75,0 133.75,-20"/>
<text xml:space="preserve" text-anchor="middle" x="66.88" y="-6.5" font-family="Helvetica,sans-Serif" font-size="10.00">AudioFormatReaderSource</text>
</a>
</g>
</g>
<!-- Node1&#45;&gt;Node3 -->
<g id="edge2_Node000001_Node000003" class="edge">
<title>Node1&#45;&gt;Node3</title>
<g id="a_edge2_Node000001_Node000003"><a xlink:title=" ">
<path fill="none" stroke="#63b8ff" d="M225.13,-52.69C188,-42.91 136.85,-29.43 102.86,-20.48"/>
<polygon fill="#63b8ff" stroke="#63b8ff" points="224.14,-56.05 234.7,-55.21 225.92,-49.28 224.14,-56.05"/>
</a>
</g>
</g>
<!-- Node4 -->
<g id="Node000004" class="node">
<title>Node4</title>
<g id="a_Node000004"><a xlink:href="classAudioTransportSource.html" target="_top" xlink:title="An AudioSource that takes a PositionableAudioSource and allows it to be played, stopped,...">
<polygon fill="white" stroke="#666666" points="264.25,-20 151.5,-20 151.5,0 264.25,0 264.25,-20"/>
<text xml:space="preserve" text-anchor="middle" x="207.88" y="-6.5" font-family="Helvetica,sans-Serif" font-size="10.00">AudioTransportSource</text>
</a>
</g>
</g>
<!-- Node1&#45;&gt;Node4 -->
<g id="edge3_Node000001_Node000004" class="edge">
<title>Node1&#45;&gt;Node4</title>
<g id="a_edge3_Node000001_Node000004"><a xlink:title=" ">
<path fill="none" stroke="#63b8ff" d="M252.2,-48.4C241.26,-39.17 228.03,-28.01 218.9,-20.3"/>
<polygon fill="#63b8ff" stroke="#63b8ff" points="249.67,-50.84 259.57,-54.62 254.18,-45.49 249.67,-50.84"/>
</a>
</g>
</g>
<!-- Node5 -->
<g id="Node000005" class="node">
<title>Node5</title>
<g id="a_Node000005"><a xlink:href="classBufferingAudioSource.html" target="_top" xlink:title="An AudioSource which takes another source as input, and buffers it using a thread.">
<polygon fill="white" stroke="#666666" points="391.75,-20 282,-20 282,0 391.75,0 391.75,-20"/>
<text xml:space="preserve" text-anchor="middle" x="336.88" y="-6.5" font-family="Helvetica,sans-Serif" font-size="10.00">BufferingAudioSource</text>
</a>
</g>
</g>
<!-- Node1&#45;&gt;Node5 -->
<g id="edge4_Node000001_Node000005" class="edge">
<title>Node1&#45;&gt;Node5</title>
<g id="a_edge4_Node000001_Node000005"><a xlink:title=" ">
<path fill="none" stroke="#63b8ff" d="M291.85,-48.4C302.97,-39.17 316.4,-28.01 325.68,-20.3"/>
<polygon fill="#63b8ff" stroke="#63b8ff" points="289.82,-45.54 284.36,-54.63 294.29,-50.93 289.82,-45.54"/>
</a>
</g>
</g>
<!-- Node6 -->
<g id="Node000006" class="node">
<title>Node6</title>
<g id="a_Node000006"><a xlink:href="classMemoryAudioSource.html" target="_top" xlink:title="An AudioSource which takes some float audio data as an input.">
<polygon fill="white" stroke="#666666" points="516.25,-20 409.5,-20 409.5,0 516.25,0 516.25,-20"/>
<text xml:space="preserve" text-anchor="middle" x="462.88" y="-6.5" font-family="Helvetica,sans-Serif" font-size="10.00">MemoryAudioSource</text>
</a>
</g>
</g>
<!-- Node1&#45;&gt;Node6 -->
<g id="edge5_Node000001_Node000006" class="edge">
<title>Node1&#45;&gt;Node6</title>
<g id="a_edge5_Node000001_Node000006"><a xlink:title=" ">
<path fill="none" stroke="#63b8ff" d="M315.88,-52.56C350.43,-42.79 397.82,-29.39 429.35,-20.48"/>
<polygon fill="#63b8ff" stroke="#63b8ff" points="315.27,-49.09 306.6,-55.18 317.18,-55.83 315.27,-49.09"/>
</a>
</g>
</g>
<!-- Node2 -->
<g id="Node000002" class="node">
<title>Node2</title>
<g id="a_Node000002"><a xlink:href="classAudioSource.html" target="_top" xlink:title="Base class for objects that can produce a continuous stream of audio.">
<polygon fill="white" stroke="#666666" points="307.62,-132 236.12,-132 236.12,-112 307.62,-112 307.62,-132"/>
<text xml:space="preserve" text-anchor="middle" x="271.88" y="-118.5" font-family="Helvetica,sans-Serif" font-size="10.00">AudioSource</text>
</a>
</g>
</g>
<!-- Node2&#45;&gt;Node1 -->
<g id="edge1_Node000001_Node000002" class="edge">
<title>Node2&#45;&gt;Node1</title>
<g id="a_edge1_Node000001_Node000002"><a xlink:title=" ">
<path fill="none" stroke="#63b8ff" d="M271.88,-100.13C271.88,-91.9 271.88,-82.85 271.88,-76.3"/>
<polygon fill="#63b8ff" stroke="#63b8ff" points="268.38,-100.08 271.88,-110.08 275.38,-100.08 268.38,-100.08"/>
</a>
</g>
</g>
</g>
</svg>
