<?xml version="1.0" encoding="UTF-8" standalone="no"?>
<!DOCTYPE svg PUBLIC "-//W3C//DTD SVG 1.1//EN"
 "http://www.w3.org/Graphics/SVG/1.1/DTD/svg11.dtd">
<!-- Generated by graphviz version 13.1.0 (20250701.0955)
 -->
<!-- Title: AudioAppComponent Pages: 1 -->
<svg width="171pt" height="140pt"
 viewBox="0.00 0.00 171.00 140.00" xmlns="http://www.w3.org/2000/svg" xmlns:xlink="http://www.w3.org/1999/xlink">
<g id="graph0" class="graph" transform="scale(1 1) rotate(0) translate(4 136)">
<title>AudioAppComponent</title>
<!-- Node1 -->
<g id="Node000001" class="node">
<title>Node1</title>
<g id="a_Node000001"><a xlink:title="A base class for writing audio apps that stream from the audio i/o devices.">
<polygon fill="#999999" stroke="#666666" points="137,-20 28.75,-20 28.75,0 137,0 137,-20"/>
<text xml:space="preserve" text-anchor="middle" x="82.88" y="-6.5" font-family="Helvetica,sans-Serif" font-size="10.00">AudioAppComponent</text>
</a>
</g>
</g>
<!-- Node2 -->
<g id="Node000002" class="node">
<title>Node2</title>
<g id="a_Node000002"><a xlink:href="classComponent.html" target="_top" xlink:title="The base class for all JUCE user&#45;interface objects.">
<polygon fill="white" stroke="#666666" points="73,-76 6.75,-76 6.75,-56 73,-56 73,-76"/>
<text xml:space="preserve" text-anchor="middle" x="39.88" y="-62.5" font-family="Helvetica,sans-Serif" font-size="10.00">Component</text>
</a>
</g>
</g>
<!-- Node2&#45;&gt;Node1 -->
<g id="edge1_Node000001_Node000002" class="edge">
<title>Node2&#45;&gt;Node1</title>
<g id="a_edge1_Node000001_Node000002"><a xlink:title=" ">
<path fill="none" stroke="#63b8ff" d="M54.43,-46.72C61.5,-37.84 69.7,-27.55 75.47,-20.3"/>
<polygon fill="#63b8ff" stroke="#63b8ff" points="51.8,-44.41 48.31,-54.41 57.28,-48.77 51.8,-44.41"/>
</a>
</g>
</g>
<!-- Node3 -->
<g id="Node000003" class="node">
<title>Node3</title>
<g id="a_Node000003"><a xlink:href="classMouseListener.html" target="_top" xlink:title="A MouseListener can be registered with a component to receive callbacks about mouse events that happe...">
<polygon fill="white" stroke="#666666" points="79.75,-132 0,-132 0,-112 79.75,-112 79.75,-132"/>
<text xml:space="preserve" text-anchor="middle" x="39.88" y="-118.5" font-family="Helvetica,sans-Serif" font-size="10.00">MouseListener</text>
</a>
</g>
</g>
<!-- Node3&#45;&gt;Node2 -->
<g id="edge2_Node000002_Node000003" class="edge">
<title>Node3&#45;&gt;Node2</title>
<g id="a_edge2_Node000002_Node000003"><a xlink:title=" ">
<path fill="none" stroke="#63b8ff" d="M39.88,-100.13C39.88,-91.9 39.88,-82.85 39.88,-76.3"/>
<polygon fill="#63b8ff" stroke="#63b8ff" points="36.38,-100.08 39.88,-110.08 43.38,-100.08 36.38,-100.08"/>
</a>
</g>
</g>
<!-- Node4 -->
<g id="Node000004" class="node">
<title>Node4</title>
<g id="a_Node000004"><a xlink:href="classAudioSource.html" target="_top" xlink:title="Base class for objects that can produce a continuous stream of audio.">
<polygon fill="white" stroke="#666666" points="162.62,-76 91.12,-76 91.12,-56 162.62,-56 162.62,-76"/>
<text xml:space="preserve" text-anchor="middle" x="126.88" y="-62.5" font-family="Helvetica,sans-Serif" font-size="10.00">AudioSource</text>
</a>
</g>
</g>
<!-- Node4&#45;&gt;Node1 -->
<g id="edge3_Node000001_Node000004" class="edge">
<title>Node4&#45;&gt;Node1</title>
<g id="a_edge3_Node000001_Node000004"><a xlink:title=" ">
<path fill="none" stroke="#63b8ff" d="M111.98,-46.72C104.74,-37.84 96.36,-27.55 90.45,-20.3"/>
<polygon fill="#63b8ff" stroke="#63b8ff" points="109.22,-48.88 118.25,-54.42 114.65,-44.46 109.22,-48.88"/>
</a>
</g>
</g>
</g>
</svg>
