<?xml version="1.0" encoding="UTF-8" standalone="no"?>
<!DOCTYPE svg PUBLIC "-//W3C//DTD SVG 1.1//EN"
 "http://www.w3.org/Graphics/SVG/1.1/DTD/svg11.dtd">
<!-- Generated by graphviz version 13.1.0 (20250701.0955)
 -->
<!-- Title: AAXClientExtensions Pages: 1 -->
<svg width="254pt" height="208pt"
 viewBox="0.00 0.00 254.00 208.00" xmlns="http://www.w3.org/2000/svg" xmlns:xlink="http://www.w3.org/1999/xlink">
<g id="graph0" class="graph" transform="scale(1 1) rotate(0) translate(4 204)">
<title>AAXClientExtensions</title>
<!-- Node1 -->
<g id="Node000001" class="node">
<title>Node1</title>
<g id="a_Node000001"><a xlink:title="An interface to allow an AudioProcessor to implement extended AAX&#45;specific functionality.">
<polygon fill="#999999" stroke="#666666" points="182.12,-200 71.62,-200 71.62,-180 182.12,-180 182.12,-200"/>
<text xml:space="preserve" text-anchor="middle" x="126.88" y="-186.5" font-family="Helvetica,sans-Serif" font-size="10.00">AAXClientExtensions</text>
</a>
</g>
</g>
<!-- Node2 -->
<g id="Node000002" class="node">
<title>Node2</title>
<g id="a_Node000002"><a xlink:href="classAudioProcessor.html" target="_top" xlink:title="Base class for audio processing classes or plugins.">
<polygon fill="white" stroke="#666666" points="169.38,-144 84.38,-144 84.38,-124 169.38,-124 169.38,-144"/>
<text xml:space="preserve" text-anchor="middle" x="126.88" y="-130.5" font-family="Helvetica,sans-Serif" font-size="10.00">AudioProcessor</text>
</a>
</g>
</g>
<!-- Node1&#45;&gt;Node2 -->
<g id="edge1_Node000001_Node000002" class="edge">
<title>Node1&#45;&gt;Node2</title>
<g id="a_edge1_Node000001_Node000002"><a xlink:title=" ">
<path fill="none" stroke="#8b1a1a" d="M126.88,-168.13C126.88,-159.9 126.88,-150.85 126.88,-144.3"/>
<polygon fill="#8b1a1a" stroke="#8b1a1a" points="123.38,-168.08 126.88,-178.08 130.38,-168.08 123.38,-168.08"/>
</a>
</g>
</g>
<!-- Node3 -->
<g id="Node000003" class="node">
<title>Node3</title>
<g id="a_Node000003"><a xlink:href="classAudioPluginInstance.html" target="_top" xlink:title="Base class for an active instance of a plugin.">
<polygon fill="white" stroke="#666666" points="116.5,-88 11.25,-88 11.25,-68 116.5,-68 116.5,-88"/>
<text xml:space="preserve" text-anchor="middle" x="63.88" y="-74.5" font-family="Helvetica,sans-Serif" font-size="10.00">AudioPluginInstance</text>
</a>
</g>
</g>
<!-- Node2&#45;&gt;Node3 -->
<g id="edge2_Node000002_Node000003" class="edge">
<title>Node2&#45;&gt;Node3</title>
<g id="a_edge2_Node000002_Node000003"><a xlink:title=" ">
<path fill="none" stroke="#63b8ff" d="M107.19,-116.13C96.47,-106.94 83.63,-95.93 74.72,-88.3"/>
<polygon fill="#63b8ff" stroke="#63b8ff" points="104.88,-118.76 114.75,-122.61 109.44,-113.44 104.88,-118.76"/>
</a>
</g>
</g>
<!-- Node5 -->
<g id="Node000005" class="node">
<title>Node5</title>
<g id="a_Node000005"><a xlink:href="classAudioProcessorGraph.html" target="_top" xlink:title="A type of AudioProcessor which plays back a graph of other AudioProcessors.">
<polygon fill="white" stroke="#666666" points="245.5,-88 134.25,-88 134.25,-68 245.5,-68 245.5,-88"/>
<text xml:space="preserve" text-anchor="middle" x="189.88" y="-74.5" font-family="Helvetica,sans-Serif" font-size="10.00">AudioProcessorGraph</text>
</a>
</g>
</g>
<!-- Node2&#45;&gt;Node5 -->
<g id="edge4_Node000002_Node000005" class="edge">
<title>Node2&#45;&gt;Node5</title>
<g id="a_edge4_Node000002_Node000005"><a xlink:title=" ">
<path fill="none" stroke="#63b8ff" d="M146.56,-116.13C157.28,-106.94 170.12,-95.93 179.03,-88.3"/>
<polygon fill="#63b8ff" stroke="#63b8ff" points="144.31,-113.44 139,-122.61 148.87,-118.76 144.31,-113.44"/>
</a>
</g>
</g>
<!-- Node4 -->
<g id="Node000004" class="node">
<title>Node4</title>
<g id="a_Node000004"><a xlink:href="classAudioProcessorGraph_1_1AudioGraphIOProcessor.html" target="_top" xlink:title="A special type of AudioProcessor that can live inside an AudioProcessorGraph in order to use the audi...">
<polygon fill="white" stroke="#666666" points="127.75,-32 0,-32 0,0 127.75,0 127.75,-32"/>
<text xml:space="preserve" text-anchor="start" x="8" y="-18.5" font-family="Helvetica,sans-Serif" font-size="10.00">AudioProcessorGraph</text>
<text xml:space="preserve" text-anchor="middle" x="63.88" y="-6.5" font-family="Helvetica,sans-Serif" font-size="10.00">::AudioGraphIOProcessor</text>
</a>
</g>
</g>
<!-- Node3&#45;&gt;Node4 -->
<g id="edge3_Node000003_Node000004" class="edge">
<title>Node3&#45;&gt;Node4</title>
<g id="a_edge3_Node000003_Node000004"><a xlink:title=" ">
<path fill="none" stroke="#63b8ff" d="M63.88,-56.31C63.88,-48.37 63.88,-39.46 63.88,-32.14"/>
<polygon fill="#63b8ff" stroke="#63b8ff" points="60.38,-56.11 63.88,-66.11 67.38,-56.11 60.38,-56.11"/>
</a>
</g>
</g>
</g>
</svg>
