<?xml version="1.0" encoding="UTF-8" standalone="no"?>
<!DOCTYPE svg PUBLIC "-//W3C//DTD SVG 1.1//EN"
 "http://www.w3.org/Graphics/SVG/1.1/DTD/svg11.dtd">
<!-- Generated by graphviz version 13.1.0 (20250701.0955)
 -->
<!-- Title: ExtraLookAndFeelBaseClasses::AudioDeviceSelectorComponentMethods Pages: 1 -->
<svg width="209pt" height="264pt"
 viewBox="0.00 0.00 209.00 264.00" xmlns="http://www.w3.org/2000/svg" xmlns:xlink="http://www.w3.org/1999/xlink">
<g id="graph0" class="graph" transform="scale(1 1) rotate(0) translate(4 260)">
<title>ExtraLookAndFeelBaseClasses::AudioDeviceSelectorComponentMethods</title>
<!-- Node1 -->
<g id="Node000001" class="node">
<title>Node1</title>
<g id="a_Node000001"><a xlink:title="This abstract base class is implemented by LookAndFeel classes.">
<polygon fill="#999999" stroke="#666666" points="201.25,-256 0,-256 0,-224 201.25,-224 201.25,-256"/>
<text xml:space="preserve" text-anchor="start" x="8" y="-242.5" font-family="Helvetica,sans-Serif" font-size="10.00">ExtraLookAndFeelBaseClasses</text>
<text xml:space="preserve" text-anchor="middle" x="100.62" y="-230.5" font-family="Helvetica,sans-Serif" font-size="10.00">::AudioDeviceSelectorComponentMethods</text>
</a>
</g>
</g>
<!-- Node2 -->
<g id="Node000002" class="node">
<title>Node2</title>
<g id="a_Node000002"><a xlink:href="classLookAndFeel.html" target="_top" xlink:title="LookAndFeel objects define the appearance of all the JUCE widgets, and subclasses can be used to appl...">
<polygon fill="white" stroke="#666666" points="137.12,-188 64.12,-188 64.12,-168 137.12,-168 137.12,-188"/>
<text xml:space="preserve" text-anchor="middle" x="100.62" y="-174.5" font-family="Helvetica,sans-Serif" font-size="10.00">LookAndFeel</text>
</a>
</g>
</g>
<!-- Node1&#45;&gt;Node2 -->
<g id="edge1_Node000001_Node000002" class="edge">
<title>Node1&#45;&gt;Node2</title>
<g id="a_edge1_Node000001_Node000002"><a xlink:title=" ">
<path fill="none" stroke="#63b8ff" d="M100.62,-212.08C100.62,-203.6 100.62,-194.8 100.62,-188.41"/>
<polygon fill="#63b8ff" stroke="#63b8ff" points="97.13,-212.03 100.63,-222.03 104.13,-212.03 97.13,-212.03"/>
</a>
</g>
</g>
<!-- Node3 -->
<g id="Node000003" class="node">
<title>Node3</title>
<g id="a_Node000003"><a xlink:href="classLookAndFeel__V2.html" target="_top" xlink:title="This LookAndFeel subclass implements the juce style from around 2008&#45;12.">
<polygon fill="white" stroke="#666666" points="145.75,-132 55.5,-132 55.5,-112 145.75,-112 145.75,-132"/>
<text xml:space="preserve" text-anchor="middle" x="100.62" y="-118.5" font-family="Helvetica,sans-Serif" font-size="10.00">LookAndFeel_V2</text>
</a>
</g>
</g>
<!-- Node2&#45;&gt;Node3 -->
<g id="edge2_Node000002_Node000003" class="edge">
<title>Node2&#45;&gt;Node3</title>
<g id="a_edge2_Node000002_Node000003"><a xlink:title=" ">
<path fill="none" stroke="#63b8ff" d="M100.62,-156.13C100.62,-147.9 100.62,-138.85 100.62,-132.3"/>
<polygon fill="#63b8ff" stroke="#63b8ff" points="97.13,-156.08 100.63,-166.08 104.13,-156.08 97.13,-156.08"/>
</a>
</g>
</g>
<!-- Node4 -->
<g id="Node000004" class="node">
<title>Node4</title>
<g id="a_Node000004"><a xlink:href="classLookAndFeel__V1.html" target="_top" xlink:title="The original JUCE look&#45;and&#45;feel, as used back from 2002 to about 2007ish.">
<polygon fill="white" stroke="#666666" points="91.75,-76 1.5,-76 1.5,-56 91.75,-56 91.75,-76"/>
<text xml:space="preserve" text-anchor="middle" x="46.62" y="-62.5" font-family="Helvetica,sans-Serif" font-size="10.00">LookAndFeel_V1</text>
</a>
</g>
</g>
<!-- Node3&#45;&gt;Node4 -->
<g id="edge3_Node000003_Node000004" class="edge">
<title>Node3&#45;&gt;Node4</title>
<g id="a_edge3_Node000003_Node000004"><a xlink:title=" ">
<path fill="none" stroke="#63b8ff" d="M83.19,-103.57C74.12,-94.5 63.4,-83.78 55.92,-76.3"/>
<polygon fill="#63b8ff" stroke="#63b8ff" points="80.6,-105.93 90.15,-110.52 85.55,-100.98 80.6,-105.93"/>
</a>
</g>
</g>
<!-- Node5 -->
<g id="Node000005" class="node">
<title>Node5</title>
<g id="a_Node000005"><a xlink:href="classLookAndFeel__V3.html" target="_top" xlink:title="The latest JUCE look&#45;and&#45;feel style, as introduced in 2013.">
<polygon fill="white" stroke="#666666" points="199.75,-76 109.5,-76 109.5,-56 199.75,-56 199.75,-76"/>
<text xml:space="preserve" text-anchor="middle" x="154.62" y="-62.5" font-family="Helvetica,sans-Serif" font-size="10.00">LookAndFeel_V3</text>
</a>
</g>
</g>
<!-- Node3&#45;&gt;Node5 -->
<g id="edge4_Node000003_Node000005" class="edge">
<title>Node3&#45;&gt;Node5</title>
<g id="a_edge4_Node000003_Node000005"><a xlink:title=" ">
<path fill="none" stroke="#63b8ff" d="M118.06,-103.57C127.13,-94.5 137.85,-83.78 145.33,-76.3"/>
<polygon fill="#63b8ff" stroke="#63b8ff" points="115.7,-100.98 111.1,-110.52 120.65,-105.93 115.7,-100.98"/>
</a>
</g>
</g>
<!-- Node6 -->
<g id="Node000006" class="node">
<title>Node6</title>
<g id="a_Node000006"><a xlink:href="classLookAndFeel__V4.html" target="_top" xlink:title="The latest JUCE look&#45;and&#45;feel style, as introduced in 2017.">
<polygon fill="white" stroke="#666666" points="199.75,-20 109.5,-20 109.5,0 199.75,0 199.75,-20"/>
<text xml:space="preserve" text-anchor="middle" x="154.62" y="-6.5" font-family="Helvetica,sans-Serif" font-size="10.00">LookAndFeel_V4</text>
</a>
</g>
</g>
<!-- Node5&#45;&gt;Node6 -->
<g id="edge5_Node000005_Node000006" class="edge">
<title>Node5&#45;&gt;Node6</title>
<g id="a_edge5_Node000005_Node000006"><a xlink:title=" ">
<path fill="none" stroke="#63b8ff" d="M154.62,-44.13C154.62,-35.9 154.62,-26.85 154.62,-20.3"/>
<polygon fill="#63b8ff" stroke="#63b8ff" points="151.13,-44.08 154.63,-54.08 158.13,-44.08 151.13,-44.08"/>
</a>
</g>
</g>
</g>
</svg>
