<?xml version="1.0" encoding="UTF-8" standalone="no"?>
<!DOCTYPE svg PUBLIC "-//W3C//DTD SVG 1.1//EN"
 "http://www.w3.org/Graphics/SVG/1.1/DTD/svg11.dtd">
<!-- Generated by graphviz version 13.1.0 (20250701.0955)
 -->
<!-- Title: AudioPluginInstance::Parameter Pages: 1 -->
<svg width="138pt" height="152pt"
 viewBox="0.00 0.00 138.00 152.00" xmlns="http://www.w3.org/2000/svg" xmlns:xlink="http://www.w3.org/1999/xlink">
<g id="graph0" class="graph" transform="scale(1 1) rotate(0) translate(4 148)">
<title>AudioPluginInstance::Parameter</title>
<!-- Node1 -->
<g id="Node000001" class="node">
<title>Node1</title>
<g id="a_Node000001"><a xlink:title="Structure used to describe plugin parameters.">
<polygon fill="#999999" stroke="#666666" points="117.62,-32 12.38,-32 12.38,0 117.62,0 117.62,-32"/>
<text xml:space="preserve" text-anchor="start" x="20.38" y="-18.5" font-family="Helvetica,sans-Serif" font-size="10.00">AudioPluginInstance</text>
<text xml:space="preserve" text-anchor="middle" x="65" y="-6.5" font-family="Helvetica,sans-Serif" font-size="10.00">::Parameter</text>
</a>
</g>
</g>
<!-- Node2 -->
<g id="Node000002" class="node">
<title>Node2</title>
<g id="a_Node000002"><a xlink:href="structHostedAudioProcessorParameter.html" target="_top" xlink:title="A parameter with functions that are useful for plugin hosts.">
<polygon fill="white" stroke="#666666" points="111.25,-88 18.75,-88 18.75,-68 111.25,-68 111.25,-88"/>
<text xml:space="preserve" text-anchor="middle" x="65" y="-74.5" font-family="Helvetica,sans-Serif" font-size="10.00">HostedParameter</text>
</a>
</g>
</g>
<!-- Node2&#45;&gt;Node1 -->
<g id="edge1_Node000001_Node000002" class="edge">
<title>Node2&#45;&gt;Node1</title>
<g id="a_edge1_Node000001_Node000002"><a xlink:title=" ">
<path fill="none" stroke="#63b8ff" d="M65,-56.31C65,-48.37 65,-39.46 65,-32.14"/>
<polygon fill="#63b8ff" stroke="#63b8ff" points="61.5,-56.11 65,-66.11 68.5,-56.11 61.5,-56.11"/>
</a>
</g>
</g>
<!-- Node3 -->
<g id="Node000003" class="node">
<title>Node3</title>
<g id="a_Node000003"><a xlink:href="classAudioProcessorParameter.html" target="_top" xlink:title="An abstract base class for parameter objects that can be added to an AudioProcessor.">
<polygon fill="white" stroke="#666666" points="130,-144 0,-144 0,-124 130,-124 130,-144"/>
<text xml:space="preserve" text-anchor="middle" x="65" y="-130.5" font-family="Helvetica,sans-Serif" font-size="10.00">AudioProcessorParameter</text>
</a>
</g>
</g>
<!-- Node3&#45;&gt;Node2 -->
<g id="edge2_Node000002_Node000003" class="edge">
<title>Node3&#45;&gt;Node2</title>
<g id="a_edge2_Node000002_Node000003"><a xlink:title=" ">
<path fill="none" stroke="#63b8ff" d="M65,-112.13C65,-103.9 65,-94.85 65,-88.3"/>
<polygon fill="#63b8ff" stroke="#63b8ff" points="61.5,-112.08 65,-122.08 68.5,-112.08 61.5,-112.08"/>
</a>
</g>
</g>
</g>
</svg>
