<?xml version="1.0" encoding="UTF-8" standalone="no"?>
<!DOCTYPE svg PUBLIC "-//W3C//DTD SVG 1.1//EN"
 "http://www.w3.org/Graphics/SVG/1.1/DTD/svg11.dtd">
<!-- Generated by graphviz version 13.1.0 (20250701.0955)
 -->
<!-- Title: juce::midi_ci::Message::DynamicSizePropertyExchange Pages: 1 -->
<svg width="351pt" height="240pt"
 viewBox="0.00 0.00 351.00 240.00" xmlns="http://www.w3.org/2000/svg" xmlns:xlink="http://www.w3.org/1999/xlink">
<g id="graph0" class="graph" transform="scale(1 1) rotate(0) translate(4 236)">
<title>juce::midi_ci::Message::DynamicSizePropertyExchange</title>
<!-- Node1 -->
<g id="Node000001" class="node">
<title>Node1</title>
<g id="a_Node000001"><a xlink:title="A property&#45;exchange message that may form part of a multi&#45;chunk message sequence.">
<polygon fill="#999999" stroke="#666666" points="160.75,-132 0,-132 0,-100 160.75,-100 160.75,-132"/>
<text xml:space="preserve" text-anchor="start" x="8" y="-118.5" font-family="Helvetica,sans-Serif" font-size="10.00">juce::midi_ci::Message</text>
<text xml:space="preserve" text-anchor="middle" x="80.38" y="-106.5" font-family="Helvetica,sans-Serif" font-size="10.00">::DynamicSizePropertyExchange</text>
</a>
</g>
</g>
<!-- Node2 -->
<g id="Node000002" class="node">
<title>Node2</title>
<g id="a_Node000002"><a xlink:href="structjuce_1_1midi__ci_1_1Message_1_1PropertyGetDataResponse.html" target="_top" xlink:title="See the MIDI&#45;CI specification.">
<polygon fill="white" stroke="#666666" points="339.88,-232 200.12,-232 200.12,-200 339.88,-200 339.88,-232"/>
<text xml:space="preserve" text-anchor="start" x="208.12" y="-218.5" font-family="Helvetica,sans-Serif" font-size="10.00">juce::midi_ci::Message</text>
<text xml:space="preserve" text-anchor="middle" x="270" y="-206.5" font-family="Helvetica,sans-Serif" font-size="10.00">::PropertyGetDataResponse</text>
</a>
</g>
</g>
<!-- Node1&#45;&gt;Node2 -->
<g id="edge1_Node000001_Node000002" class="edge">
<title>Node1&#45;&gt;Node2</title>
<g id="a_edge1_Node000001_Node000002"><a xlink:title=" ">
<path fill="none" stroke="#63b8ff" d="M112.04,-138.89C134.62,-154.99 166.51,-176.22 196.75,-191 203.07,-194.09 209.87,-196.97 216.68,-199.6"/>
<polygon fill="#63b8ff" stroke="#63b8ff" points="114.36,-136.24 104.2,-133.23 110.26,-141.92 114.36,-136.24"/>
</a>
</g>
</g>
<!-- Node3 -->
<g id="Node000003" class="node">
<title>Node3</title>
<g id="a_Node000003"><a xlink:href="structjuce_1_1midi__ci_1_1Message_1_1PropertyNotify.html" target="_top" xlink:title="See the MIDI&#45;CI specification.">
<polygon fill="white" stroke="#666666" points="328.25,-182 211.75,-182 211.75,-150 328.25,-150 328.25,-182"/>
<text xml:space="preserve" text-anchor="start" x="219.75" y="-168.5" font-family="Helvetica,sans-Serif" font-size="10.00">juce::midi_ci::Message</text>
<text xml:space="preserve" text-anchor="middle" x="270" y="-156.5" font-family="Helvetica,sans-Serif" font-size="10.00">::PropertyNotify</text>
</a>
</g>
</g>
<!-- Node1&#45;&gt;Node3 -->
<g id="edge2_Node000001_Node000003" class="edge">
<title>Node1&#45;&gt;Node3</title>
<g id="a_edge2_Node000001_Node000003"><a xlink:title=" ">
<path fill="none" stroke="#63b8ff" d="M154.09,-135.38C173.09,-140.44 193.31,-145.83 211.4,-150.65"/>
<polygon fill="#63b8ff" stroke="#63b8ff" points="155.1,-132.02 144.53,-132.83 153.29,-138.79 155.1,-132.02"/>
</a>
</g>
</g>
<!-- Node4 -->
<g id="Node000004" class="node">
<title>Node4</title>
<g id="a_Node000004"><a xlink:href="structjuce_1_1midi__ci_1_1Message_1_1PropertySetData.html" target="_top" xlink:title="See the MIDI&#45;CI specification.">
<polygon fill="white" stroke="#666666" points="328.25,-132 211.75,-132 211.75,-100 328.25,-100 328.25,-132"/>
<text xml:space="preserve" text-anchor="start" x="219.75" y="-118.5" font-family="Helvetica,sans-Serif" font-size="10.00">juce::midi_ci::Message</text>
<text xml:space="preserve" text-anchor="middle" x="270" y="-106.5" font-family="Helvetica,sans-Serif" font-size="10.00">::PropertySetData</text>
</a>
</g>
</g>
<!-- Node1&#45;&gt;Node4 -->
<g id="edge3_Node000001_Node000004" class="edge">
<title>Node1&#45;&gt;Node4</title>
<g id="a_edge3_Node000001_Node000004"><a xlink:title=" ">
<path fill="none" stroke="#63b8ff" d="M172.34,-116C185.64,-116 199.01,-116 211.39,-116"/>
<polygon fill="#63b8ff" stroke="#63b8ff" points="172.73,-112.5 162.73,-116 172.73,-119.5 172.73,-112.5"/>
</a>
</g>
</g>
<!-- Node5 -->
<g id="Node000005" class="node">
<title>Node5</title>
<g id="a_Node000005"><a xlink:href="structjuce_1_1midi__ci_1_1Message_1_1PropertySubscribe.html" target="_top" xlink:title="See the MIDI&#45;CI specification.">
<polygon fill="white" stroke="#666666" points="328.25,-82 211.75,-82 211.75,-50 328.25,-50 328.25,-82"/>
<text xml:space="preserve" text-anchor="start" x="219.75" y="-68.5" font-family="Helvetica,sans-Serif" font-size="10.00">juce::midi_ci::Message</text>
<text xml:space="preserve" text-anchor="middle" x="270" y="-56.5" font-family="Helvetica,sans-Serif" font-size="10.00">::PropertySubscribe</text>
</a>
</g>
</g>
<!-- Node1&#45;&gt;Node5 -->
<g id="edge4_Node000001_Node000005" class="edge">
<title>Node1&#45;&gt;Node5</title>
<g id="a_edge4_Node000001_Node000005"><a xlink:title=" ">
<path fill="none" stroke="#63b8ff" d="M154.09,-96.62C173.09,-91.56 193.31,-86.17 211.4,-81.35"/>
<polygon fill="#63b8ff" stroke="#63b8ff" points="153.29,-93.21 144.53,-99.17 155.1,-99.98 153.29,-93.21"/>
</a>
</g>
</g>
<!-- Node6 -->
<g id="Node000006" class="node">
<title>Node6</title>
<g id="a_Node000006"><a xlink:href="structjuce_1_1midi__ci_1_1Message_1_1PropertySubscribeResponse.html" target="_top" xlink:title="See the MIDI&#45;CI specification.">
<polygon fill="white" stroke="#666666" points="343.25,-32 196.75,-32 196.75,0 343.25,0 343.25,-32"/>
<text xml:space="preserve" text-anchor="start" x="204.75" y="-18.5" font-family="Helvetica,sans-Serif" font-size="10.00">juce::midi_ci::Message</text>
<text xml:space="preserve" text-anchor="middle" x="270" y="-6.5" font-family="Helvetica,sans-Serif" font-size="10.00">::PropertySubscribeResponse</text>
</a>
</g>
</g>
<!-- Node1&#45;&gt;Node6 -->
<g id="edge5_Node000001_Node000006" class="edge">
<title>Node1&#45;&gt;Node6</title>
<g id="a_edge5_Node000001_Node000006"><a xlink:title=" ">
<path fill="none" stroke="#63b8ff" d="M112.04,-93.11C134.62,-77.01 166.51,-55.78 196.75,-41 203.07,-37.91 209.87,-35.03 216.68,-32.4"/>
<polygon fill="#63b8ff" stroke="#63b8ff" points="110.26,-90.08 104.2,-98.77 114.36,-95.76 110.26,-90.08"/>
</a>
</g>
</g>
</g>
</svg>
