<?xml version="1.0" encoding="UTF-8" standalone="no"?>
<!DOCTYPE svg PUBLIC "-//W3C//DTD SVG 1.1//EN"
 "http://www.w3.org/Graphics/SVG/1.1/DTD/svg11.dtd">
<!-- Generated by graphviz version 13.1.0 (20250701.0955)
 -->
<!-- Title: ExtraLookAndFeelBaseClasses::KeyMappingEditorComponentMethods Pages: 1 -->
<svg width="206pt" height="264pt"
 viewBox="0.00 0.00 206.00 264.00" xmlns="http://www.w3.org/2000/svg" xmlns:xlink="http://www.w3.org/1999/xlink">
<g id="graph0" class="graph" transform="scale(1 1) rotate(0) translate(4 260)">
<title>ExtraLookAndFeelBaseClasses::KeyMappingEditorComponentMethods</title>
<!-- Node1 -->
<g id="Node000001" class="node">
<title>Node1</title>
<g id="a_Node000001"><a xlink:title="This abstract base class is implemented by LookAndFeel classes.">
<polygon fill="#999999" stroke="#666666" points="193.75,-256 4.5,-256 4.5,-224 193.75,-224 193.75,-256"/>
<text xml:space="preserve" text-anchor="start" x="12.5" y="-242.5" font-family="Helvetica,sans-Serif" font-size="10.00">ExtraLookAndFeelBaseClasses</text>
<text xml:space="preserve" text-anchor="middle" x="99.12" y="-230.5" font-family="Helvetica,sans-Serif" font-size="10.00">::KeyMappingEditorComponentMethods</text>
</a>
</g>
</g>
<!-- Node2 -->
<g id="Node000002" class="node">
<title>Node2</title>
<g id="a_Node000002"><a xlink:href="classLookAndFeel.html" target="_top" xlink:title="LookAndFeel objects define the appearance of all the JUCE widgets, and subclasses can be used to appl...">
<polygon fill="white" stroke="#666666" points="135.62,-188 62.62,-188 62.62,-168 135.62,-168 135.62,-188"/>
<text xml:space="preserve" text-anchor="middle" x="99.12" y="-174.5" font-family="Helvetica,sans-Serif" font-size="10.00">LookAndFeel</text>
</a>
</g>
</g>
<!-- Node1&#45;&gt;Node2 -->
<g id="edge1_Node000001_Node000002" class="edge">
<title>Node1&#45;&gt;Node2</title>
<g id="a_edge1_Node000001_Node000002"><a xlink:title=" ">
<path fill="none" stroke="#63b8ff" d="M99.12,-212.08C99.12,-203.6 99.12,-194.8 99.12,-188.41"/>
<polygon fill="#63b8ff" stroke="#63b8ff" points="95.63,-212.03 99.13,-222.03 102.63,-212.03 95.63,-212.03"/>
</a>
</g>
</g>
<!-- Node3 -->
<g id="Node000003" class="node">
<title>Node3</title>
<g id="a_Node000003"><a xlink:href="classLookAndFeel__V2.html" target="_top" xlink:title="This LookAndFeel subclass implements the juce style from around 2008&#45;12.">
<polygon fill="white" stroke="#666666" points="144.25,-132 54,-132 54,-112 144.25,-112 144.25,-132"/>
<text xml:space="preserve" text-anchor="middle" x="99.12" y="-118.5" font-family="Helvetica,sans-Serif" font-size="10.00">LookAndFeel_V2</text>
</a>
</g>
</g>
<!-- Node2&#45;&gt;Node3 -->
<g id="edge2_Node000002_Node000003" class="edge">
<title>Node2&#45;&gt;Node3</title>
<g id="a_edge2_Node000002_Node000003"><a xlink:title=" ">
<path fill="none" stroke="#63b8ff" d="M99.12,-156.13C99.12,-147.9 99.12,-138.85 99.12,-132.3"/>
<polygon fill="#63b8ff" stroke="#63b8ff" points="95.63,-156.08 99.13,-166.08 102.63,-156.08 95.63,-156.08"/>
</a>
</g>
</g>
<!-- Node4 -->
<g id="Node000004" class="node">
<title>Node4</title>
<g id="a_Node000004"><a xlink:href="classLookAndFeel__V1.html" target="_top" xlink:title="The original JUCE look&#45;and&#45;feel, as used back from 2002 to about 2007ish.">
<polygon fill="white" stroke="#666666" points="90.25,-76 0,-76 0,-56 90.25,-56 90.25,-76"/>
<text xml:space="preserve" text-anchor="middle" x="45.12" y="-62.5" font-family="Helvetica,sans-Serif" font-size="10.00">LookAndFeel_V1</text>
</a>
</g>
</g>
<!-- Node3&#45;&gt;Node4 -->
<g id="edge3_Node000003_Node000004" class="edge">
<title>Node3&#45;&gt;Node4</title>
<g id="a_edge3_Node000003_Node000004"><a xlink:title=" ">
<path fill="none" stroke="#63b8ff" d="M81.69,-103.57C72.62,-94.5 61.9,-83.78 54.42,-76.3"/>
<polygon fill="#63b8ff" stroke="#63b8ff" points="79.1,-105.93 88.65,-110.52 84.05,-100.98 79.1,-105.93"/>
</a>
</g>
</g>
<!-- Node5 -->
<g id="Node000005" class="node">
<title>Node5</title>
<g id="a_Node000005"><a xlink:href="classLookAndFeel__V3.html" target="_top" xlink:title="The latest JUCE look&#45;and&#45;feel style, as introduced in 2013.">
<polygon fill="white" stroke="#666666" points="198.25,-76 108,-76 108,-56 198.25,-56 198.25,-76"/>
<text xml:space="preserve" text-anchor="middle" x="153.12" y="-62.5" font-family="Helvetica,sans-Serif" font-size="10.00">LookAndFeel_V3</text>
</a>
</g>
</g>
<!-- Node3&#45;&gt;Node5 -->
<g id="edge4_Node000003_Node000005" class="edge">
<title>Node3&#45;&gt;Node5</title>
<g id="a_edge4_Node000003_Node000005"><a xlink:title=" ">
<path fill="none" stroke="#63b8ff" d="M116.56,-103.57C125.63,-94.5 136.35,-83.78 143.83,-76.3"/>
<polygon fill="#63b8ff" stroke="#63b8ff" points="114.2,-100.98 109.6,-110.52 119.15,-105.93 114.2,-100.98"/>
</a>
</g>
</g>
<!-- Node6 -->
<g id="Node000006" class="node">
<title>Node6</title>
<g id="a_Node000006"><a xlink:href="classLookAndFeel__V4.html" target="_top" xlink:title="The latest JUCE look&#45;and&#45;feel style, as introduced in 2017.">
<polygon fill="white" stroke="#666666" points="198.25,-20 108,-20 108,0 198.25,0 198.25,-20"/>
<text xml:space="preserve" text-anchor="middle" x="153.12" y="-6.5" font-family="Helvetica,sans-Serif" font-size="10.00">LookAndFeel_V4</text>
</a>
</g>
</g>
<!-- Node5&#45;&gt;Node6 -->
<g id="edge5_Node000005_Node000006" class="edge">
<title>Node5&#45;&gt;Node6</title>
<g id="a_edge5_Node000005_Node000006"><a xlink:title=" ">
<path fill="none" stroke="#63b8ff" d="M153.12,-44.13C153.12,-35.9 153.12,-26.85 153.12,-20.3"/>
<polygon fill="#63b8ff" stroke="#63b8ff" points="149.63,-44.08 153.13,-54.08 156.63,-44.08 149.63,-44.08"/>
</a>
</g>
</g>
</g>
</svg>
