<?xml version="1.0" encoding="UTF-8" standalone="no"?>
<!DOCTYPE svg PUBLIC "-//W3C//DTD SVG 1.1//EN"
 "http://www.w3.org/Graphics/SVG/1.1/DTD/svg11.dtd">
<!-- Generated by graphviz version 13.1.0 (20250701.0955)
 -->
<!-- Title: ARARegionSequence Pages: 1 -->
<svg width="254pt" height="96pt"
 viewBox="0.00 0.00 254.00 96.00" xmlns="http://www.w3.org/2000/svg" xmlns:xlink="http://www.w3.org/1999/xlink">
<g id="graph0" class="graph" transform="scale(1 1) rotate(0) translate(4 92)">
<title>ARARegionSequence</title>
<!-- Node1 -->
<g id="Node000001" class="node">
<title>Node1</title>
<g id="a_Node000001"><a xlink:title="Base class representing an ARA region sequence.">
<polygon fill="#999999" stroke="#666666" points="203.12,-20 91.88,-20 91.88,0 203.12,0 203.12,-20"/>
<text xml:space="preserve" text-anchor="middle" x="147.5" y="-6.5" font-family="Helvetica,sans-Serif" font-size="10.00">ARARegionSequence</text>
</a>
</g>
</g>
<!-- Node2 -->
<g id="Node000002" class="node">
<title>Node2</title>
<g id="a_Node000002"><a xlink:href="classARAListenableModelClass.html" target="_top" xlink:title=" ">
<polygon fill="white" stroke="#666666" points="163,-88 0,-88 0,-56 163,-56 163,-88"/>
<text xml:space="preserve" text-anchor="start" x="8" y="-74.5" font-family="Helvetica,sans-Serif" font-size="10.00">ARAListenableModelClass</text>
<text xml:space="preserve" text-anchor="middle" x="81.5" y="-62.5" font-family="Helvetica,sans-Serif" font-size="10.00">&lt; ARARegionSequenceListener &gt;</text>
</a>
</g>
</g>
<!-- Node2&#45;&gt;Node1 -->
<g id="edge1_Node000001_Node000002" class="edge">
<title>Node2&#45;&gt;Node1</title>
<g id="a_edge1_Node000001_Node000002"><a xlink:title=" ">
<path fill="none" stroke="#63b8ff" d="M106.97,-47.84C117.48,-38.29 129.07,-27.76 137.15,-20.41"/>
<polygon fill="#63b8ff" stroke="#63b8ff" points="104.66,-45.21 99.62,-54.53 109.37,-50.39 104.66,-45.21"/>
</a>
</g>
</g>
<!-- Node3 -->
<g id="Node000003" class="node">
<title>Node3</title>
<g id="a_Node000003"><a xlink:href="classARAObject.html" target="_top" xlink:title="Common base class for all JUCE ARA model objects to aid with the discovery and traversal of the entir...">
<polygon fill="white" stroke="#666666" points="246.25,-82 180.75,-82 180.75,-62 246.25,-62 246.25,-82"/>
<text xml:space="preserve" text-anchor="middle" x="213.5" y="-68.5" font-family="Helvetica,sans-Serif" font-size="10.00">ARAObject</text>
</a>
</g>
</g>
<!-- Node3&#45;&gt;Node1 -->
<g id="edge2_Node000001_Node000003" class="edge">
<title>Node3&#45;&gt;Node1</title>
<g id="a_edge2_Node000001_Node000003"><a xlink:title=" ">
<path fill="none" stroke="#63b8ff" d="M194.69,-53.9C182.6,-42.91 167.36,-29.05 157.52,-20.11"/>
<polygon fill="#63b8ff" stroke="#63b8ff" points="192.31,-56.47 202.07,-60.61 197.02,-51.29 192.31,-56.47"/>
</a>
</g>
</g>
</g>
</svg>
