<?xml version="1.0" encoding="UTF-8" standalone="no"?>
<!DOCTYPE svg PUBLIC "-//W3C//DTD SVG 1.1//EN"
 "http://www.w3.org/Graphics/SVG/1.1/DTD/svg11.dtd">
<!-- Generated by graphviz version 13.1.0 (20250701.0955)
 -->
<!-- Title: VBlankAttachment Pages: 1 -->
<svg width="286pt" height="84pt"
 viewBox="0.00 0.00 286.00 84.00" xmlns="http://www.w3.org/2000/svg" xmlns:xlink="http://www.w3.org/1999/xlink">
<g id="graph0" class="graph" transform="scale(1 1) rotate(0) translate(4 80)">
<title>VBlankAttachment</title>
<!-- Node1 -->
<g id="Node000001" class="node">
<title>Node1</title>
<g id="a_Node000001"><a xlink:title="Helper class to synchronise Component updates to the vertical blank event of the display that the Com...">
<polygon fill="#999999" stroke="#666666" points="202.12,-20 104.38,-20 104.38,0 202.12,0 202.12,-20"/>
<text xml:space="preserve" text-anchor="middle" x="153.25" y="-6.5" font-family="Helvetica,sans-Serif" font-size="10.00">VBlankAttachment</text>
</a>
</g>
</g>
<!-- Node2 -->
<g id="Node000002" class="node">
<title>Node2</title>
<g id="a_Node000002"><a xlink:href="structComponentPeer_1_1VBlankListener.html" target="_top" xlink:title="Used to receive callbacks on every vertical blank event of the display that the peer currently belong...">
<polygon fill="white" stroke="#666666" points="158.5,-76 0,-76 0,-56 158.5,-56 158.5,-76"/>
<text xml:space="preserve" text-anchor="middle" x="79.25" y="-62.5" font-family="Helvetica,sans-Serif" font-size="10.00">ComponentPeer::VBlankListener</text>
</a>
</g>
</g>
<!-- Node2&#45;&gt;Node1 -->
<g id="edge1_Node000001_Node000002" class="edge">
<title>Node2&#45;&gt;Node1</title>
<g id="a_edge1_Node000001_Node000002"><a xlink:title=" ">
<path fill="none" stroke="#8b1a1a" d="M101.24,-48.95C114.04,-39.61 129.73,-28.16 140.51,-20.3"/>
<polygon fill="#8b1a1a" stroke="#8b1a1a" points="99.38,-45.98 93.36,-54.7 103.5,-51.63 99.38,-45.98"/>
</a>
</g>
</g>
<!-- Node3 -->
<g id="Node000003" class="node">
<title>Node3</title>
<g id="a_Node000003"><a xlink:href="classComponentListener.html" target="_top" xlink:title="Gets informed about changes to a component&#39;s hierarchy or position.">
<polygon fill="white" stroke="#666666" points="277.62,-76 176.88,-76 176.88,-56 277.62,-56 277.62,-76"/>
<text xml:space="preserve" text-anchor="middle" x="227.25" y="-62.5" font-family="Helvetica,sans-Serif" font-size="10.00">ComponentListener</text>
</a>
</g>
</g>
<!-- Node3&#45;&gt;Node1 -->
<g id="edge2_Node000001_Node000003" class="edge">
<title>Node3&#45;&gt;Node1</title>
<g id="a_edge2_Node000001_Node000003"><a xlink:title=" ">
<path fill="none" stroke="#8b1a1a" d="M205.26,-48.95C192.46,-39.61 176.77,-28.16 165.99,-20.3"/>
<polygon fill="#8b1a1a" stroke="#8b1a1a" points="203,-51.63 213.14,-54.7 207.12,-45.98 203,-51.63"/>
</a>
</g>
</g>
</g>
</svg>
