<?xml version="1.0" encoding="UTF-8" standalone="no"?>
<!DOCTYPE svg PUBLIC "-//W3C//DTD SVG 1.1//EN"
 "http://www.w3.org/Graphics/SVG/1.1/DTD/svg11.dtd">
<!-- Generated by graphviz version 13.1.0 (20250701.0955)
 -->
<!-- Title: MenuBarComponent Pages: 1 -->
<svg width="279pt" height="140pt"
 viewBox="0.00 0.00 279.00 140.00" xmlns="http://www.w3.org/2000/svg" xmlns:xlink="http://www.w3.org/1999/xlink">
<g id="graph0" class="graph" transform="scale(1 1) rotate(0) translate(4 136)">
<title>MenuBarComponent</title>
<!-- Node1 -->
<g id="Node000001" class="node">
<title>Node1</title>
<g id="a_Node000001"><a xlink:title="A menu bar component.">
<polygon fill="#999999" stroke="#666666" points="204.5,-20 99.25,-20 99.25,0 204.5,0 204.5,-20"/>
<text xml:space="preserve" text-anchor="middle" x="151.88" y="-6.5" font-family="Helvetica,sans-Serif" font-size="10.00">MenuBarComponent</text>
</a>
</g>
</g>
<!-- Node2 -->
<g id="Node000002" class="node">
<title>Node2</title>
<g id="a_Node000002"><a xlink:href="classComponent.html" target="_top" xlink:title="The base class for all JUCE user&#45;interface objects.">
<polygon fill="white" stroke="#666666" points="73,-76 6.75,-76 6.75,-56 73,-56 73,-76"/>
<text xml:space="preserve" text-anchor="middle" x="39.88" y="-62.5" font-family="Helvetica,sans-Serif" font-size="10.00">Component</text>
</a>
</g>
</g>
<!-- Node2&#45;&gt;Node1 -->
<g id="edge1_Node000001_Node000002" class="edge">
<title>Node2&#45;&gt;Node1</title>
<g id="a_edge1_Node000001_Node000002"><a xlink:title=" ">
<path fill="none" stroke="#63b8ff" d="M69.71,-50.61C89.51,-41.07 114.93,-28.81 132.21,-20.48"/>
<polygon fill="#63b8ff" stroke="#63b8ff" points="68.23,-47.44 60.75,-54.94 71.28,-53.75 68.23,-47.44"/>
</a>
</g>
</g>
<!-- Node3 -->
<g id="Node000003" class="node">
<title>Node3</title>
<g id="a_Node000003"><a xlink:href="classMouseListener.html" target="_top" xlink:title="A MouseListener can be registered with a component to receive callbacks about mouse events that happe...">
<polygon fill="white" stroke="#666666" points="79.75,-132 0,-132 0,-112 79.75,-112 79.75,-132"/>
<text xml:space="preserve" text-anchor="middle" x="39.88" y="-118.5" font-family="Helvetica,sans-Serif" font-size="10.00">MouseListener</text>
</a>
</g>
</g>
<!-- Node3&#45;&gt;Node2 -->
<g id="edge2_Node000002_Node000003" class="edge">
<title>Node3&#45;&gt;Node2</title>
<g id="a_edge2_Node000002_Node000003"><a xlink:title=" ">
<path fill="none" stroke="#63b8ff" d="M39.88,-100.13C39.88,-91.9 39.88,-82.85 39.88,-76.3"/>
<polygon fill="#63b8ff" stroke="#63b8ff" points="36.38,-100.08 39.88,-110.08 43.38,-100.08 36.38,-100.08"/>
</a>
</g>
</g>
<!-- Node4 -->
<g id="Node000004" class="node">
<title>Node4</title>
<g id="a_Node000004"><a xlink:href="classMenuBarModel_1_1Listener.html" target="_top" xlink:title="A class to receive callbacks when a MenuBarModel changes.">
<polygon fill="white" stroke="#666666" points="212.75,-76 91,-76 91,-56 212.75,-56 212.75,-76"/>
<text xml:space="preserve" text-anchor="middle" x="151.88" y="-62.5" font-family="Helvetica,sans-Serif" font-size="10.00">MenuBarModel::Listener</text>
</a>
</g>
</g>
<!-- Node4&#45;&gt;Node1 -->
<g id="edge3_Node000001_Node000004" class="edge">
<title>Node4&#45;&gt;Node1</title>
<g id="a_edge3_Node000001_Node000004"><a xlink:title=" ">
<path fill="none" stroke="#8b1a1a" d="M151.88,-44.13C151.88,-35.9 151.88,-26.85 151.88,-20.3"/>
<polygon fill="#8b1a1a" stroke="#8b1a1a" points="148.38,-44.08 151.88,-54.08 155.38,-44.08 148.38,-44.08"/>
</a>
</g>
</g>
<!-- Node5 -->
<g id="Node000005" class="node">
<title>Node5</title>
<g id="a_Node000005"><a xlink:href="classTimer.html" target="_top" xlink:title="Makes repeated callbacks to a virtual method at a specified time interval.">
<polygon fill="white" stroke="#666666" points="271.25,-76 230.5,-76 230.5,-56 271.25,-56 271.25,-76"/>
<text xml:space="preserve" text-anchor="middle" x="250.88" y="-62.5" font-family="Helvetica,sans-Serif" font-size="10.00">Timer</text>
</a>
</g>
</g>
<!-- Node5&#45;&gt;Node1 -->
<g id="edge4_Node000001_Node000005" class="edge">
<title>Node5&#45;&gt;Node1</title>
<g id="a_edge4_Node000001_Node000005"><a xlink:title=" ">
<path fill="none" stroke="#8b1a1a" d="M224.01,-50.35C206.59,-40.84 184.39,-28.74 169.25,-20.48"/>
<polygon fill="#8b1a1a" stroke="#8b1a1a" points="221.85,-53.15 232.3,-54.87 225.2,-47.01 221.85,-53.15"/>
</a>
</g>
</g>
</g>
</svg>
