<?xml version="1.0" encoding="UTF-8" standalone="no"?>
<!DOCTYPE svg PUBLIC "-//W3C//DTD SVG 1.1//EN"
 "http://www.w3.org/Graphics/SVG/1.1/DTD/svg11.dtd">
<!-- Generated by graphviz version 13.1.0 (20250701.0955)
 -->
<!-- Title: DragAndDropContainer Pages: 1 -->
<svg width="172pt" height="84pt"
 viewBox="0.00 0.00 172.00 84.00" xmlns="http://www.w3.org/2000/svg" xmlns:xlink="http://www.w3.org/1999/xlink">
<g id="graph0" class="graph" transform="scale(1 1) rotate(0) translate(4 80)">
<title>DragAndDropContainer</title>
<!-- Node1 -->
<g id="Node000001" class="node">
<title>Node1</title>
<g id="a_Node000001"><a xlink:title="Enables drag&#45;and&#45;drop behaviour for a component and all its sub&#45;components.">
<polygon fill="#999999" stroke="#666666" points="127.38,-76 10.12,-76 10.12,-56 127.38,-56 127.38,-76"/>
<text xml:space="preserve" text-anchor="middle" x="68.75" y="-62.5" font-family="Helvetica,sans-Serif" font-size="10.00">DragAndDropContainer</text>
</a>
</g>
</g>
<!-- Node2 -->
<g id="Node000002" class="node">
<title>Node2</title>
<g id="a_Node000002"><a xlink:href="classToolbar.html" target="_top" xlink:title="A toolbar component.">
<polygon fill="white" stroke="#666666" points="47.5,-20 0,-20 0,0 47.5,0 47.5,-20"/>
<text xml:space="preserve" text-anchor="middle" x="23.75" y="-6.5" font-family="Helvetica,sans-Serif" font-size="10.00">Toolbar</text>
</a>
</g>
</g>
<!-- Node1&#45;&gt;Node2 -->
<g id="edge1_Node000001_Node000002" class="edge">
<title>Node1&#45;&gt;Node2</title>
<g id="a_edge1_Node000001_Node000002"><a xlink:title=" ">
<path fill="none" stroke="#63b8ff" d="M53.75,-47C46.3,-38.06 37.6,-27.62 31.5,-20.3"/>
<polygon fill="#63b8ff" stroke="#63b8ff" points="50.85,-48.99 59.94,-54.43 56.23,-44.51 50.85,-48.99"/>
</a>
</g>
</g>
<!-- Node3 -->
<g id="Node000003" class="node">
<title>Node3</title>
<g id="a_Node000003"><a xlink:href="classToolbarItemPalette.html" target="_top" xlink:title="A component containing a list of toolbar items, which the user can drag onto a toolbar to add them.">
<polygon fill="white" stroke="#666666" points="163.62,-20 65.88,-20 65.88,0 163.62,0 163.62,-20"/>
<text xml:space="preserve" text-anchor="middle" x="114.75" y="-6.5" font-family="Helvetica,sans-Serif" font-size="10.00">ToolbarItemPalette</text>
</a>
</g>
</g>
<!-- Node1&#45;&gt;Node3 -->
<g id="edge2_Node000001_Node000003" class="edge">
<title>Node1&#45;&gt;Node3</title>
<g id="a_edge2_Node000001_Node000003"><a xlink:title=" ">
<path fill="none" stroke="#63b8ff" d="M84.08,-47C91.7,-38.06 100.59,-27.62 106.83,-20.3"/>
<polygon fill="#63b8ff" stroke="#63b8ff" points="81.56,-44.56 77.74,-54.44 86.89,-49.1 81.56,-44.56"/>
</a>
</g>
</g>
</g>
</svg>
