<?xml version="1.0" encoding="UTF-8" standalone="no"?>
<!DOCTYPE svg PUBLIC "-//W3C//DTD SVG 1.1//EN"
 "http://www.w3.org/Graphics/SVG/1.1/DTD/svg11.dtd">
<!-- Generated by graphviz version 13.1.0 (20250701.0955)
 -->
<!-- Title: ComponentMovementWatcher Pages: 1 -->
<svg width="156pt" height="140pt"
 viewBox="0.00 0.00 156.00 140.00" xmlns="http://www.w3.org/2000/svg" xmlns:xlink="http://www.w3.org/1999/xlink">
<g id="graph0" class="graph" transform="scale(1 1) rotate(0) translate(4 136)">
<title>ComponentMovementWatcher</title>
<!-- Node1 -->
<g id="Node000001" class="node">
<title>Node1</title>
<g id="a_Node000001"><a xlink:title="An object that watches for any movement of a component or any of its parent components.">
<polygon fill="#999999" stroke="#666666" points="148,-76 0,-76 0,-56 148,-56 148,-76"/>
<text xml:space="preserve" text-anchor="middle" x="74" y="-62.5" font-family="Helvetica,sans-Serif" font-size="10.00">ComponentMovementWatcher</text>
</a>
</g>
</g>
<!-- Node3 -->
<g id="Node000003" class="node">
<title>Node3</title>
<g id="a_Node000003"><a xlink:href="classNativeScaleFactorNotifier.html" target="_top" xlink:title="Calls a function every time the native scale factor of a component&#39;s peer changes.">
<polygon fill="white" stroke="#666666" points="138.25,-20 9.75,-20 9.75,0 138.25,0 138.25,-20"/>
<text xml:space="preserve" text-anchor="middle" x="74" y="-6.5" font-family="Helvetica,sans-Serif" font-size="10.00">NativeScaleFactorNotifier</text>
</a>
</g>
</g>
<!-- Node1&#45;&gt;Node3 -->
<g id="edge2_Node000001_Node000003" class="edge">
<title>Node1&#45;&gt;Node3</title>
<g id="a_edge2_Node000001_Node000003"><a xlink:title=" ">
<path fill="none" stroke="#8b1a1a" d="M74,-44.13C74,-35.9 74,-26.85 74,-20.3"/>
<polygon fill="#8b1a1a" stroke="#8b1a1a" points="70.5,-44.08 74,-54.08 77.5,-44.08 70.5,-44.08"/>
</a>
</g>
</g>
<!-- Node2 -->
<g id="Node000002" class="node">
<title>Node2</title>
<g id="a_Node000002"><a xlink:href="classComponentListener.html" target="_top" xlink:title="Gets informed about changes to a component&#39;s hierarchy or position.">
<polygon fill="white" stroke="#666666" points="124.38,-132 23.62,-132 23.62,-112 124.38,-112 124.38,-132"/>
<text xml:space="preserve" text-anchor="middle" x="74" y="-118.5" font-family="Helvetica,sans-Serif" font-size="10.00">ComponentListener</text>
</a>
</g>
</g>
<!-- Node2&#45;&gt;Node1 -->
<g id="edge1_Node000001_Node000002" class="edge">
<title>Node2&#45;&gt;Node1</title>
<g id="a_edge1_Node000001_Node000002"><a xlink:title=" ">
<path fill="none" stroke="#63b8ff" d="M74,-100.13C74,-91.9 74,-82.85 74,-76.3"/>
<polygon fill="#63b8ff" stroke="#63b8ff" points="70.5,-100.08 74,-110.08 77.5,-100.08 70.5,-100.08"/>
</a>
</g>
</g>
</g>
</svg>
