<?xml version="1.0" encoding="UTF-8" standalone="no"?>
<!DOCTYPE svg PUBLIC "-//W3C//DTD SVG 1.1//EN"
 "http://www.w3.org/Graphics/SVG/1.1/DTD/svg11.dtd">
<!-- Generated by graphviz version 13.1.0 (20250701.0955)
 -->
<!-- Title: ResizableWindow Pages: 1 -->
<svg width="387pt" height="308pt"
 viewBox="0.00 0.00 387.00 308.00" xmlns="http://www.w3.org/2000/svg" xmlns:xlink="http://www.w3.org/1999/xlink">
<g id="graph0" class="graph" transform="scale(1 1) rotate(0) translate(4 304)">
<title>ResizableWindow</title>
<!-- Node1 -->
<g id="Node000001" class="node">
<title>Node1</title>
<g id="a_Node000001"><a xlink:title="A base class for top&#45;level windows that can be dragged around and resized.">
<polygon fill="#999999" stroke="#666666" points="276.88,-132 182.12,-132 182.12,-112 276.88,-112 276.88,-132"/>
<text xml:space="preserve" text-anchor="middle" x="229.5" y="-118.5" font-family="Helvetica,sans-Serif" font-size="10.00">ResizableWindow</text>
</a>
</g>
</g>
<!-- Node5 -->
<g id="Node000005" class="node">
<title>Node5</title>
<g id="a_Node000005"><a xlink:href="classDocumentWindow.html" target="_top" xlink:title="A resizable window with a title bar and maximise, minimise and close buttons.">
<polygon fill="white" stroke="#666666" points="216.62,-76 120.38,-76 120.38,-56 216.62,-56 216.62,-76"/>
<text xml:space="preserve" text-anchor="middle" x="168.5" y="-62.5" font-family="Helvetica,sans-Serif" font-size="10.00">DocumentWindow</text>
</a>
</g>
</g>
<!-- Node1&#45;&gt;Node5 -->
<g id="edge4_Node000001_Node000005" class="edge">
<title>Node1&#45;&gt;Node5</title>
<g id="a_edge4_Node000001_Node000005"><a xlink:title=" ">
<path fill="none" stroke="#63b8ff" d="M210.44,-104.13C200.06,-94.94 187.63,-83.93 179,-76.3"/>
<polygon fill="#63b8ff" stroke="#63b8ff" points="207.93,-106.58 217.74,-110.59 212.57,-101.34 207.93,-106.58"/>
</a>
</g>
</g>
<!-- Node9 -->
<g id="Node000009" class="node">
<title>Node9</title>
<g id="a_Node000009"><a xlink:href="classFileChooserDialogBox.html" target="_top" xlink:title="A file open/save dialog box.">
<polygon fill="white" stroke="#666666" points="348.25,-76 234.75,-76 234.75,-56 348.25,-56 348.25,-76"/>
<text xml:space="preserve" text-anchor="middle" x="291.5" y="-62.5" font-family="Helvetica,sans-Serif" font-size="10.00">FileChooserDialogBox</text>
</a>
</g>
</g>
<!-- Node1&#45;&gt;Node9 -->
<g id="edge8_Node000001_Node000009" class="edge">
<title>Node1&#45;&gt;Node9</title>
<g id="a_edge8_Node000001_Node000009"><a xlink:title=" ">
<path fill="none" stroke="#63b8ff" d="M248.87,-104.13C259.42,-94.94 272.06,-83.93 280.82,-76.3"/>
<polygon fill="#63b8ff" stroke="#63b8ff" points="246.68,-101.39 241.44,-110.6 251.28,-106.67 246.68,-101.39"/>
</a>
</g>
</g>
<!-- Node2 -->
<g id="Node000002" class="node">
<title>Node2</title>
<g id="a_Node000002"><a xlink:href="classTopLevelWindow.html" target="_top" xlink:title="A base class for top&#45;level windows.">
<polygon fill="white" stroke="#666666" points="274.62,-188 184.38,-188 184.38,-168 274.62,-168 274.62,-188"/>
<text xml:space="preserve" text-anchor="middle" x="229.5" y="-174.5" font-family="Helvetica,sans-Serif" font-size="10.00">TopLevelWindow</text>
</a>
</g>
</g>
<!-- Node2&#45;&gt;Node1 -->
<g id="edge1_Node000001_Node000002" class="edge">
<title>Node2&#45;&gt;Node1</title>
<g id="a_edge1_Node000001_Node000002"><a xlink:title=" ">
<path fill="none" stroke="#63b8ff" d="M229.5,-156.13C229.5,-147.9 229.5,-138.85 229.5,-132.3"/>
<polygon fill="#63b8ff" stroke="#63b8ff" points="226,-156.08 229.5,-166.08 233,-156.08 226,-156.08"/>
</a>
</g>
</g>
<!-- Node3 -->
<g id="Node000003" class="node">
<title>Node3</title>
<g id="a_Node000003"><a xlink:href="classComponent.html" target="_top" xlink:title="The base class for all JUCE user&#45;interface objects.">
<polygon fill="white" stroke="#666666" points="262.62,-244 196.38,-244 196.38,-224 262.62,-224 262.62,-244"/>
<text xml:space="preserve" text-anchor="middle" x="229.5" y="-230.5" font-family="Helvetica,sans-Serif" font-size="10.00">Component</text>
</a>
</g>
</g>
<!-- Node3&#45;&gt;Node2 -->
<g id="edge2_Node000002_Node000003" class="edge">
<title>Node3&#45;&gt;Node2</title>
<g id="a_edge2_Node000002_Node000003"><a xlink:title=" ">
<path fill="none" stroke="#63b8ff" d="M229.5,-212.13C229.5,-203.9 229.5,-194.85 229.5,-188.3"/>
<polygon fill="#63b8ff" stroke="#63b8ff" points="226,-212.08 229.5,-222.08 233,-212.08 226,-212.08"/>
</a>
</g>
</g>
<!-- Node4 -->
<g id="Node000004" class="node">
<title>Node4</title>
<g id="a_Node000004"><a xlink:href="classMouseListener.html" target="_top" xlink:title="A MouseListener can be registered with a component to receive callbacks about mouse events that happe...">
<polygon fill="white" stroke="#666666" points="269.38,-300 189.62,-300 189.62,-280 269.38,-280 269.38,-300"/>
<text xml:space="preserve" text-anchor="middle" x="229.5" y="-286.5" font-family="Helvetica,sans-Serif" font-size="10.00">MouseListener</text>
</a>
</g>
</g>
<!-- Node4&#45;&gt;Node3 -->
<g id="edge3_Node000003_Node000004" class="edge">
<title>Node4&#45;&gt;Node3</title>
<g id="a_edge3_Node000003_Node000004"><a xlink:title=" ">
<path fill="none" stroke="#63b8ff" d="M229.5,-268.13C229.5,-259.9 229.5,-250.85 229.5,-244.3"/>
<polygon fill="#63b8ff" stroke="#63b8ff" points="226,-268.08 229.5,-278.08 233,-268.08 226,-268.08"/>
</a>
</g>
</g>
<!-- Node6 -->
<g id="Node000006" class="node">
<title>Node6</title>
<g id="a_Node000006"><a xlink:href="classDialogWindow.html" target="_top" xlink:title="A dialog&#45;box style window.">
<polygon fill="white" stroke="#666666" points="79,-20 0,-20 0,0 79,0 79,-20"/>
<text xml:space="preserve" text-anchor="middle" x="39.5" y="-6.5" font-family="Helvetica,sans-Serif" font-size="10.00">DialogWindow</text>
</a>
</g>
</g>
<!-- Node5&#45;&gt;Node6 -->
<g id="edge5_Node000005_Node000006" class="edge">
<title>Node5&#45;&gt;Node6</title>
<g id="a_edge5_Node000005_Node000006"><a xlink:title=" ">
<path fill="none" stroke="#63b8ff" d="M135.7,-51.27C112.69,-41.64 82.52,-29.01 62.15,-20.48"/>
<polygon fill="#63b8ff" stroke="#63b8ff" points="134.06,-54.38 144.63,-55.01 136.76,-47.92 134.06,-54.38"/>
</a>
</g>
</g>
<!-- Node7 -->
<g id="Node000007" class="node">
<title>Node7</title>
<g id="a_Node000007"><a xlink:href="classMultiDocumentPanelWindow.html" target="_top" xlink:title="This is a derivative of DocumentWindow that is used inside a MultiDocumentPanel component.">
<polygon fill="white" stroke="#666666" points="239.5,-20 97.5,-20 97.5,0 239.5,0 239.5,-20"/>
<text xml:space="preserve" text-anchor="middle" x="168.5" y="-6.5" font-family="Helvetica,sans-Serif" font-size="10.00">MultiDocumentPanelWindow</text>
</a>
</g>
</g>
<!-- Node5&#45;&gt;Node7 -->
<g id="edge6_Node000005_Node000007" class="edge">
<title>Node5&#45;&gt;Node7</title>
<g id="a_edge6_Node000005_Node000007"><a xlink:title=" ">
<path fill="none" stroke="#63b8ff" d="M168.5,-44.13C168.5,-35.9 168.5,-26.85 168.5,-20.3"/>
<polygon fill="#63b8ff" stroke="#63b8ff" points="165,-44.08 168.5,-54.08 172,-44.08 165,-44.08"/>
</a>
</g>
</g>
<!-- Node8 -->
<g id="Node000008" class="node">
<title>Node8</title>
<g id="a_Node000008"><a xlink:href="classStandaloneFilterWindow.html" target="_top" xlink:title="A class that can be used to run a simple standalone application containing your filter.">
<polygon fill="white" stroke="#666666" points="379.38,-20 257.62,-20 257.62,0 379.38,0 379.38,-20"/>
<text xml:space="preserve" text-anchor="middle" x="318.5" y="-6.5" font-family="Helvetica,sans-Serif" font-size="10.00">StandaloneFilterWindow</text>
</a>
</g>
</g>
<!-- Node5&#45;&gt;Node8 -->
<g id="edge7_Node000005_Node000008" class="edge">
<title>Node5&#45;&gt;Node8</title>
<g id="a_edge7_Node000005_Node000008"><a xlink:title=" ">
<path fill="none" stroke="#63b8ff" d="M205.19,-51.79C232.12,-42.1 268.05,-29.16 292.17,-20.48"/>
<polygon fill="#63b8ff" stroke="#63b8ff" points="204.28,-48.4 196.05,-55.08 206.65,-54.99 204.28,-48.4"/>
</a>
</g>
</g>
</g>
</svg>
