<?xml version="1.0" encoding="UTF-8" standalone="no"?>
<!DOCTYPE svg PUBLIC "-//W3C//DTD SVG 1.1//EN"
 "http://www.w3.org/Graphics/SVG/1.1/DTD/svg11.dtd">
<!-- Generated by graphviz version 13.1.0 (20250701.0955)
 -->
<!-- Title: MPEInstrument::Listener Pages: 1 -->
<svg width="268pt" height="140pt"
 viewBox="0.00 0.00 268.00 140.00" xmlns="http://www.w3.org/2000/svg" xmlns:xlink="http://www.w3.org/1999/xlink">
<g id="graph0" class="graph" transform="scale(1 1) rotate(0) translate(4 136)">
<title>MPEInstrument::Listener</title>
<!-- Node1 -->
<g id="Node000001" class="node">
<title>Node1</title>
<g id="a_Node000001"><a xlink:title="Derive from this class to be informed about any changes in the MPE notes played by this instrument,...">
<polygon fill="#999999" stroke="#666666" points="196,-132 71.25,-132 71.25,-112 196,-112 196,-132"/>
<text xml:space="preserve" text-anchor="middle" x="133.62" y="-118.5" font-family="Helvetica,sans-Serif" font-size="10.00">MPEInstrument::Listener</text>
</a>
</g>
</g>
<!-- Node2 -->
<g id="Node000002" class="node">
<title>Node2</title>
<g id="a_Node000002"><a xlink:href="classMPEKeyboardComponent.html" target="_top" xlink:title="A component that displays an MPE&#45;compatible keyboard, whose notes can be clicked on.">
<polygon fill="white" stroke="#666666" points="129.25,-76 0,-76 0,-56 129.25,-56 129.25,-76"/>
<text xml:space="preserve" text-anchor="middle" x="64.62" y="-62.5" font-family="Helvetica,sans-Serif" font-size="10.00">MPEKeyboardComponent</text>
</a>
</g>
</g>
<!-- Node1&#45;&gt;Node2 -->
<g id="edge1_Node000001_Node000002" class="edge">
<title>Node1&#45;&gt;Node2</title>
<g id="a_edge1_Node000001_Node000002"><a xlink:title=" ">
<path fill="none" stroke="#8b1a1a" d="M112.77,-104.68C100.9,-95.39 86.46,-84.09 76.51,-76.3"/>
<polygon fill="#8b1a1a" stroke="#8b1a1a" points="110.38,-107.25 120.41,-110.66 114.7,-101.74 110.38,-107.25"/>
</a>
</g>
</g>
<!-- Node3 -->
<g id="Node000003" class="node">
<title>Node3</title>
<g id="a_Node000003"><a xlink:href="structMPESynthesiserBase.html" target="_top" xlink:title="Derive from this class to create a basic audio generator capable of MPE.">
<polygon fill="white" stroke="#666666" points="259.62,-76 147.62,-76 147.62,-56 259.62,-56 259.62,-76"/>
<text xml:space="preserve" text-anchor="middle" x="203.62" y="-62.5" font-family="Helvetica,sans-Serif" font-size="10.00">MPESynthesiserBase</text>
</a>
</g>
</g>
<!-- Node1&#45;&gt;Node3 -->
<g id="edge2_Node000001_Node000003" class="edge">
<title>Node1&#45;&gt;Node3</title>
<g id="a_edge2_Node000001_Node000003"><a xlink:title=" ">
<path fill="none" stroke="#63b8ff" d="M154.78,-104.68C166.82,-95.39 181.48,-84.09 191.57,-76.3"/>
<polygon fill="#63b8ff" stroke="#63b8ff" points="152.8,-101.79 147.02,-110.67 157.07,-107.33 152.8,-101.79"/>
</a>
</g>
</g>
<!-- Node4 -->
<g id="Node000004" class="node">
<title>Node4</title>
<g id="a_Node000004"><a xlink:href="classMPESynthesiser.html" target="_top" xlink:title="Base class for an MPE&#45;compatible musical device that can play sounds.">
<polygon fill="white" stroke="#666666" points="248.38,-20 158.88,-20 158.88,0 248.38,0 248.38,-20"/>
<text xml:space="preserve" text-anchor="middle" x="203.62" y="-6.5" font-family="Helvetica,sans-Serif" font-size="10.00">MPESynthesiser</text>
</a>
</g>
</g>
<!-- Node3&#45;&gt;Node4 -->
<g id="edge3_Node000003_Node000004" class="edge">
<title>Node3&#45;&gt;Node4</title>
<g id="a_edge3_Node000003_Node000004"><a xlink:title=" ">
<path fill="none" stroke="#63b8ff" d="M203.62,-44.13C203.62,-35.9 203.62,-26.85 203.62,-20.3"/>
<polygon fill="#63b8ff" stroke="#63b8ff" points="200.13,-44.08 203.63,-54.08 207.13,-44.08 200.13,-44.08"/>
</a>
</g>
</g>
</g>
</svg>
