<?xml version="1.0" encoding="UTF-8" standalone="no"?>
<!DOCTYPE svg PUBLIC "-//W3C//DTD SVG 1.1//EN"
 "http://www.w3.org/Graphics/SVG/1.1/DTD/svg11.dtd">
<!-- Generated by graphviz version 13.1.0 (20250701.0955)
 -->
<!-- Title: AudioFormatWriter::ThreadedWriter::IncomingDataReceiver Pages: 1 -->
<svg width="157pt" height="164pt"
 viewBox="0.00 0.00 157.00 164.00" xmlns="http://www.w3.org/2000/svg" xmlns:xlink="http://www.w3.org/1999/xlink">
<g id="graph0" class="graph" transform="scale(1 1) rotate(0) translate(4 160)">
<title>AudioFormatWriter::ThreadedWriter::IncomingDataReceiver</title>
<!-- Node1 -->
<g id="Node000001" class="node">
<title>Node1</title>
<g id="a_Node000001"><a xlink:title="Receiver for incoming data.">
<polygon fill="#999999" stroke="#666666" points="148.75,-156 0,-156 0,-112 148.75,-112 148.75,-156"/>
<text xml:space="preserve" text-anchor="start" x="8" y="-142.5" font-family="Helvetica,sans-Serif" font-size="10.00">AudioFormatWriter::</text>
<text xml:space="preserve" text-anchor="start" x="8" y="-130.5" font-family="Helvetica,sans-Serif" font-size="10.00">ThreadedWriter::IncomingData</text>
<text xml:space="preserve" text-anchor="middle" x="74.38" y="-118.5" font-family="Helvetica,sans-Serif" font-size="10.00">Receiver</text>
</a>
</g>
</g>
<!-- Node2 -->
<g id="Node000002" class="node">
<title>Node2</title>
<g id="a_Node000002"><a xlink:href="classAudioThumbnailBase.html" target="_top" xlink:title="Provides a base for classes that can store and draw scaled views of an audio waveform.">
<polygon fill="white" stroke="#666666" points="128.5,-76 20.25,-76 20.25,-56 128.5,-56 128.5,-76"/>
<text xml:space="preserve" text-anchor="middle" x="74.38" y="-62.5" font-family="Helvetica,sans-Serif" font-size="10.00">AudioThumbnailBase</text>
</a>
</g>
</g>
<!-- Node1&#45;&gt;Node2 -->
<g id="edge1_Node000001_Node000002" class="edge">
<title>Node1&#45;&gt;Node2</title>
<g id="a_edge1_Node000001_Node000002"><a xlink:title=" ">
<path fill="none" stroke="#63b8ff" d="M74.38,-100.43C74.38,-91.63 74.38,-82.8 74.38,-76.42"/>
<polygon fill="#63b8ff" stroke="#63b8ff" points="70.88,-100.24 74.38,-110.24 77.88,-100.24 70.88,-100.24"/>
</a>
</g>
</g>
<!-- Node3 -->
<g id="Node000003" class="node">
<title>Node3</title>
<g id="a_Node000003"><a xlink:href="classAudioThumbnail.html" target="_top" xlink:title="Makes it easy to quickly draw scaled views of the waveform shape of an audio file.">
<polygon fill="white" stroke="#666666" points="117.25,-20 31.5,-20 31.5,0 117.25,0 117.25,-20"/>
<text xml:space="preserve" text-anchor="middle" x="74.38" y="-6.5" font-family="Helvetica,sans-Serif" font-size="10.00">AudioThumbnail</text>
</a>
</g>
</g>
<!-- Node2&#45;&gt;Node3 -->
<g id="edge2_Node000002_Node000003" class="edge">
<title>Node2&#45;&gt;Node3</title>
<g id="a_edge2_Node000002_Node000003"><a xlink:title=" ">
<path fill="none" stroke="#63b8ff" d="M74.38,-44.13C74.38,-35.9 74.38,-26.85 74.38,-20.3"/>
<polygon fill="#63b8ff" stroke="#63b8ff" points="70.88,-44.08 74.38,-54.08 77.88,-44.08 70.88,-44.08"/>
</a>
</g>
</g>
</g>
</svg>
