<?xml version="1.0" encoding="UTF-8" standalone="no"?>
<!DOCTYPE svg PUBLIC "-//W3C//DTD SVG 1.1//EN"
 "http://www.w3.org/Graphics/SVG/1.1/DTD/svg11.dtd">
<!-- Generated by graphviz version 13.1.0 (20250701.0955)
 -->
<!-- Title: ImageType Pages: 1 -->
<svg width="340pt" height="84pt"
 viewBox="0.00 0.00 340.00 84.00" xmlns="http://www.w3.org/2000/svg" xmlns:xlink="http://www.w3.org/1999/xlink">
<g id="graph0" class="graph" transform="scale(1 1) rotate(0) translate(4 80)">
<title>ImageType</title>
<!-- Node1 -->
<g id="Node000001" class="node">
<title>Node1</title>
<g id="a_Node000001"><a xlink:title="This base class is for handlers that control a type of image manipulation format, e....">
<polygon fill="#999999" stroke="#666666" points="192.25,-76 128.25,-76 128.25,-56 192.25,-56 192.25,-76"/>
<text xml:space="preserve" text-anchor="middle" x="160.25" y="-62.5" font-family="Helvetica,sans-Serif" font-size="10.00">ImageType</text>
</a>
</g>
</g>
<!-- Node2 -->
<g id="Node000002" class="node">
<title>Node2</title>
<g id="a_Node000002"><a xlink:href="classNativeImageType.html" target="_top" xlink:title="An image storage type which holds the pixels using whatever is the default storage format on the curr...">
<polygon fill="white" stroke="#666666" points="92.5,-20 0,-20 0,0 92.5,0 92.5,-20"/>
<text xml:space="preserve" text-anchor="middle" x="46.25" y="-6.5" font-family="Helvetica,sans-Serif" font-size="10.00">NativeImageType</text>
</a>
</g>
</g>
<!-- Node1&#45;&gt;Node2 -->
<g id="edge1_Node000001_Node000002" class="edge">
<title>Node1&#45;&gt;Node2</title>
<g id="a_edge1_Node000001_Node000002"><a xlink:title=" ">
<path fill="none" stroke="#63b8ff" d="M130.16,-50.75C109.97,-41.18 83.94,-28.85 66.26,-20.48"/>
<polygon fill="#63b8ff" stroke="#63b8ff" points="128.49,-53.83 139.02,-54.95 131.49,-47.5 128.49,-53.83"/>
</a>
</g>
</g>
<!-- Node3 -->
<g id="Node000003" class="node">
<title>Node3</title>
<g id="a_Node000003"><a xlink:href="classOpenGLImageType.html" target="_top" xlink:title="A type of ImagePixelData that stores its image data in an OpenGL framebuffer, allowing a JUCE Image o...">
<polygon fill="white" stroke="#666666" points="210.25,-20 110.25,-20 110.25,0 210.25,0 210.25,-20"/>
<text xml:space="preserve" text-anchor="middle" x="160.25" y="-6.5" font-family="Helvetica,sans-Serif" font-size="10.00">OpenGLImageType</text>
</a>
</g>
</g>
<!-- Node1&#45;&gt;Node3 -->
<g id="edge2_Node000001_Node000003" class="edge">
<title>Node1&#45;&gt;Node3</title>
<g id="a_edge2_Node000001_Node000003"><a xlink:title=" ">
<path fill="none" stroke="#63b8ff" d="M160.25,-44.13C160.25,-35.9 160.25,-26.85 160.25,-20.3"/>
<polygon fill="#63b8ff" stroke="#63b8ff" points="156.75,-44.08 160.25,-54.08 163.75,-44.08 156.75,-44.08"/>
</a>
</g>
</g>
<!-- Node4 -->
<g id="Node000004" class="node">
<title>Node4</title>
<g id="a_Node000004"><a xlink:href="classSoftwareImageType.html" target="_top" xlink:title="An image storage type which holds the pixels in&#45;memory as a simple block of values.">
<polygon fill="white" stroke="#666666" points="331.75,-20 228.75,-20 228.75,0 331.75,0 331.75,-20"/>
<text xml:space="preserve" text-anchor="middle" x="280.25" y="-6.5" font-family="Helvetica,sans-Serif" font-size="10.00">SoftwareImageType</text>
</a>
</g>
</g>
<!-- Node1&#45;&gt;Node4 -->
<g id="edge3_Node000001_Node000004" class="edge">
<title>Node1&#45;&gt;Node4</title>
<g id="a_edge3_Node000001_Node000004"><a xlink:title=" ">
<path fill="none" stroke="#63b8ff" d="M191.63,-50.88C212.92,-41.3 240.49,-28.89 259.18,-20.48"/>
<polygon fill="#63b8ff" stroke="#63b8ff" points="190.22,-47.68 182.53,-54.97 193.09,-54.06 190.22,-47.68"/>
</a>
</g>
</g>
</g>
</svg>
