<?xml version="1.0" encoding="UTF-8" standalone="no"?>
<!DOCTYPE svg PUBLIC "-//W3C//DTD SVG 1.1//EN"
 "http://www.w3.org/Graphics/SVG/1.1/DTD/svg11.dtd">
<!-- Generated by graphviz version 13.1.0 (20250701.0955)
 -->
<!-- Title: MouseListener Pages: 1 -->
<svg width="441pt" height="1750pt"
 viewBox="0.00 0.00 441.00 1750.00" xmlns="http://www.w3.org/2000/svg" xmlns:xlink="http://www.w3.org/1999/xlink">
<g id="graph0" class="graph" transform="scale(1 1) rotate(0) translate(4 1746)">
<title>MouseListener</title>
<!-- Node1 -->
<g id="Node000001" class="node">
<title>Node1</title>
<g id="a_Node000001"><a xlink:title="A MouseListener can be registered with a component to receive callbacks about mouse events that happe...">
<polygon fill="#999999" stroke="#666666" points="79.75,-868 0,-868 0,-848 79.75,-848 79.75,-868"/>
<text xml:space="preserve" text-anchor="middle" x="39.88" y="-854.5" font-family="Helvetica,sans-Serif" font-size="10.00">MouseListener</text>
</a>
</g>
</g>
<!-- Node2 -->
<g id="Node000002" class="node">
<title>Node2</title>
<g id="a_Node000002"><a xlink:href="classComponent.html" target="_top" xlink:title="The base class for all JUCE user&#45;interface objects.">
<polygon fill="#fff0f0" stroke="red" points="210.12,-887 143.88,-887 143.88,-867 210.12,-867 210.12,-887"/>
<text xml:space="preserve" text-anchor="middle" x="177" y="-873.5" font-family="Helvetica,sans-Serif" font-size="10.00">Component</text>
</a>
</g>
</g>
<!-- Node1&#45;&gt;Node2 -->
<g id="edge1_Node000001_Node000002" class="edge">
<title>Node1&#45;&gt;Node2</title>
<g id="a_edge1_Node000001_Node000002"><a xlink:title=" ">
<path fill="none" stroke="#63b8ff" d="M91.14,-865.07C108.61,-867.52 127.73,-870.21 143.39,-872.41"/>
<polygon fill="#63b8ff" stroke="#63b8ff" points="91.85,-861.63 81.46,-863.71 90.87,-868.56 91.85,-861.63"/>
</a>
</g>
</g>
<!-- Node103 -->
<g id="Node000103" class="node">
<title>Node103</title>
<g id="a_Node000103"><a xlink:href="classMouseInactivityDetector.html" target="_top" xlink:title="This object watches for mouse&#45;events happening within a component, and if the mouse remains still for...">
<polygon fill="white" stroke="#666666" points="238.25,-849 115.75,-849 115.75,-829 238.25,-829 238.25,-849"/>
<text xml:space="preserve" text-anchor="middle" x="177" y="-835.5" font-family="Helvetica,sans-Serif" font-size="10.00">MouseInactivityDetector</text>
</a>
</g>
</g>
<!-- Node1&#45;&gt;Node103 -->
<g id="edge48_Node000001_Node000103" class="edge">
<title>Node1&#45;&gt;Node103</title>
<g id="a_edge48_Node000001_Node000103"><a xlink:title=" ">
<path fill="none" stroke="#8b1a1a" d="M91.2,-850.92C99.08,-849.82 107.29,-848.66 115.36,-847.53"/>
<polygon fill="#8b1a1a" stroke="#8b1a1a" points="90.87,-847.44 81.46,-852.29 91.85,-854.37 90.87,-847.44"/>
</a>
</g>
</g>
<!-- Node3 -->
<g id="Node000003" class="node">
<title>Node3</title>
<g id="a_Node000003"><a xlink:href="classActiveXControlComponent.html" target="_top" xlink:title="A Windows&#45;specific class that can create and embed an ActiveX control inside itself.">
<polygon fill="white" stroke="#666666" points="419.62,-1742 287.38,-1742 287.38,-1722 419.62,-1722 419.62,-1742"/>
<text xml:space="preserve" text-anchor="middle" x="353.5" y="-1728.5" font-family="Helvetica,sans-Serif" font-size="10.00">ActiveXControlComponent</text>
</a>
</g>
</g>
<!-- Node2&#45;&gt;Node3 -->
<g id="edge2_Node000002_Node000003" class="edge">
<title>Node2&#45;&gt;Node3</title>
<g id="a_edge2_Node000002_Node000003"><a xlink:title=" ">
<path fill="none" stroke="#63b8ff" d="M179.03,-898.6C185.16,-1023.51 218.55,-1649.95 274.25,-1713 277.86,-1717.09 282.19,-1720.37 286.93,-1723"/>
<polygon fill="#63b8ff" stroke="#63b8ff" points="182.53,-898.6 178.55,-888.78 175.54,-898.94 182.53,-898.6"/>
</a>
</g>
</g>
<!-- Node4 -->
<g id="Node000004" class="node">
<title>Node4</title>
<g id="a_Node000004"><a xlink:href="classAndroidViewComponent.html" target="_top" xlink:title="An Android&#45;specific class that can create and embed a View inside itself.">
<polygon fill="white" stroke="#666666" points="414,-1704 293,-1704 293,-1684 414,-1684 414,-1704"/>
<text xml:space="preserve" text-anchor="middle" x="353.5" y="-1690.5" font-family="Helvetica,sans-Serif" font-size="10.00">AndroidViewComponent</text>
</a>
</g>
</g>
<!-- Node2&#45;&gt;Node4 -->
<g id="edge3_Node000002_Node000004" class="edge">
<title>Node2&#45;&gt;Node4</title>
<g id="a_edge3_Node000002_Node000004"><a xlink:title=" ">
<path fill="none" stroke="#63b8ff" d="M179.16,-898.75C185.85,-1020.58 221.05,-1615.11 274.25,-1675 279.26,-1680.64 285.64,-1684.75 292.59,-1687.72"/>
<polygon fill="#63b8ff" stroke="#63b8ff" points="182.66,-898.67 178.62,-888.87 175.67,-899.05 182.66,-898.67"/>
</a>
</g>
</g>
<!-- Node5 -->
<g id="Node000005" class="node">
<title>Node5</title>
<g id="a_Node000005"><a xlink:href="classAnimatedAppComponent.html" target="_top" xlink:title="A base class for writing simple one&#45;page graphical apps.">
<polygon fill="white" stroke="#666666" points="415.88,-1666 291.12,-1666 291.12,-1646 415.88,-1646 415.88,-1666"/>
<text xml:space="preserve" text-anchor="middle" x="353.5" y="-1652.5" font-family="Helvetica,sans-Serif" font-size="10.00">AnimatedAppComponent</text>
</a>
</g>
</g>
<!-- Node2&#45;&gt;Node5 -->
<g id="edge4_Node000002_Node000005" class="edge">
<title>Node2&#45;&gt;Node5</title>
<g id="a_edge4_Node000002_Node000005"><a xlink:title=" ">
<path fill="none" stroke="#63b8ff" d="M177.57,-898.62C175.8,-1010.63 173.34,-1524.08 274.25,-1637 278.81,-1642.11 284.5,-1645.96 290.71,-1648.84"/>
<polygon fill="#63b8ff" stroke="#63b8ff" points="181.07,-898.83 177.74,-888.77 174.07,-898.7 181.07,-898.83"/>
</a>
</g>
</g>
<!-- Node6 -->
<g id="Node000006" class="node">
<title>Node6</title>
<g id="a_Node000006"><a xlink:href="classAudioAppComponent.html" target="_top" xlink:title="A base class for writing audio apps that stream from the audio i/o devices.">
<polygon fill="white" stroke="#666666" points="407.62,-1628 299.38,-1628 299.38,-1608 407.62,-1608 407.62,-1628"/>
<text xml:space="preserve" text-anchor="middle" x="353.5" y="-1614.5" font-family="Helvetica,sans-Serif" font-size="10.00">AudioAppComponent</text>
</a>
</g>
</g>
<!-- Node2&#45;&gt;Node6 -->
<g id="edge5_Node000002_Node000006" class="edge">
<title>Node2&#45;&gt;Node6</title>
<g id="a_edge5_Node000002_Node000006"><a xlink:title=" ">
<path fill="none" stroke="#63b8ff" d="M177.73,-898.21C176.82,-1006.02 178.15,-1492.17 274.25,-1599 280.79,-1606.28 289.61,-1610.99 298.97,-1614.01"/>
<polygon fill="#63b8ff" stroke="#63b8ff" points="181.23,-898.54 177.83,-888.51 174.23,-898.47 181.23,-898.54"/>
</a>
</g>
</g>
<!-- Node7 -->
<g id="Node000007" class="node">
<title>Node7</title>
<g id="a_Node000007"><a xlink:href="classAudioDeviceSelectorComponent.html" target="_top" xlink:title="A component containing controls to let the user change the audio settings of an AudioDeviceManager ob...">
<polygon fill="white" stroke="#666666" points="432.38,-1590 274.62,-1590 274.62,-1570 432.38,-1570 432.38,-1590"/>
<text xml:space="preserve" text-anchor="middle" x="353.5" y="-1576.5" font-family="Helvetica,sans-Serif" font-size="10.00">AudioDeviceSelectorComponent</text>
</a>
</g>
</g>
<!-- Node2&#45;&gt;Node7 -->
<g id="edge6_Node000002_Node000007" class="edge">
<title>Node2&#45;&gt;Node7</title>
<g id="a_edge6_Node000002_Node000007"><a xlink:title=" ">
<path fill="none" stroke="#63b8ff" d="M177.91,-898.74C177.91,-1004.1 183.23,-1460.55 274.25,-1561 277.35,-1564.42 280.95,-1567.27 284.87,-1569.65"/>
<polygon fill="#63b8ff" stroke="#63b8ff" points="181.41,-898.96 177.93,-888.96 174.41,-898.95 181.41,-898.96"/>
</a>
</g>
</g>
<!-- Node8 -->
<g id="Node000008" class="node">
<title>Node8</title>
<g id="a_Node000008"><a xlink:href="classAudioProcessorEditor.html" target="_top" xlink:title="Base class for the component that acts as the GUI for an AudioProcessor.">
<polygon fill="#fff0f0" stroke="red" points="408.75,-1552 298.25,-1552 298.25,-1532 408.75,-1532 408.75,-1552"/>
<text xml:space="preserve" text-anchor="middle" x="353.5" y="-1538.5" font-family="Helvetica,sans-Serif" font-size="10.00">AudioProcessorEditor</text>
</a>
</g>
</g>
<!-- Node2&#45;&gt;Node8 -->
<g id="edge7_Node000002_Node000008" class="edge">
<title>Node2&#45;&gt;Node8</title>
<g id="a_edge7_Node000002_Node000008"><a xlink:title=" ">
<path fill="none" stroke="#63b8ff" d="M178.11,-898.8C179.05,-1000.67 188.16,-1428.76 274.25,-1523 280.57,-1529.92 288.94,-1534.51 297.85,-1537.53"/>
<polygon fill="#63b8ff" stroke="#63b8ff" points="181.61,-898.83 178.03,-888.86 174.61,-898.88 181.61,-898.83"/>
</a>
</g>
</g>
<!-- Node10 -->
<g id="Node000010" class="node">
<title>Node10</title>
<g id="a_Node000010"><a xlink:href="classAudioVisualiserComponent.html" target="_top" xlink:title="A simple component that can be used to show a scrolling waveform of audio data.">
<polygon fill="white" stroke="#666666" points="420.38,-1514 286.62,-1514 286.62,-1494 420.38,-1494 420.38,-1514"/>
<text xml:space="preserve" text-anchor="middle" x="353.5" y="-1500.5" font-family="Helvetica,sans-Serif" font-size="10.00">AudioVisualiserComponent</text>
</a>
</g>
</g>
<!-- Node2&#45;&gt;Node10 -->
<g id="edge8_Node000002_Node000010" class="edge">
<title>Node2&#45;&gt;Node10</title>
<g id="a_edge8_Node000002_Node000010"><a xlink:title=" ">
<path fill="none" stroke="#63b8ff" d="M178.32,-898.44C180.23,-995.99 192.96,-1396.83 274.25,-1485 277.76,-1488.8 281.88,-1491.9 286.38,-1494.43"/>
<polygon fill="#63b8ff" stroke="#63b8ff" points="181.83,-898.65 178.15,-888.71 174.83,-898.77 181.83,-898.65"/>
</a>
</g>
</g>
<!-- Node11 -->
<g id="Node000011" class="node">
<title>Node11</title>
<g id="a_Node000011"><a xlink:href="classBubbleComponent.html" target="_top" xlink:title="A component for showing a message or other graphics inside a speech&#45;bubble&#45;shaped outline,...">
<polygon fill="#fff0f0" stroke="red" points="401.62,-1476 305.38,-1476 305.38,-1456 401.62,-1456 401.62,-1476"/>
<text xml:space="preserve" text-anchor="middle" x="353.5" y="-1462.5" font-family="Helvetica,sans-Serif" font-size="10.00">BubbleComponent</text>
</a>
</g>
</g>
<!-- Node2&#45;&gt;Node11 -->
<g id="edge9_Node000002_Node000011" class="edge">
<title>Node2&#45;&gt;Node11</title>
<g id="a_edge9_Node000002_Node000011"><a xlink:title=" ">
<path fill="none" stroke="#63b8ff" d="M178.58,-898.88C181.55,-993.34 197.98,-1365.11 274.25,-1447 282.35,-1455.7 293.7,-1460.71 305.24,-1463.53"/>
<polygon fill="#63b8ff" stroke="#63b8ff" points="182.08,-898.85 178.29,-888.96 175.09,-899.06 182.08,-898.85"/>
</a>
</g>
</g>
<!-- Node13 -->
<g id="Node000013" class="node">
<title>Node13</title>
<g id="a_Node000013"><a xlink:href="classBurgerMenuComponent.html" target="_top" xlink:title="A component which lists all menu items and groups them into categories by their respective parent men...">
<polygon fill="white" stroke="#666666" points="412.88,-1438 294.12,-1438 294.12,-1418 412.88,-1418 412.88,-1438"/>
<text xml:space="preserve" text-anchor="middle" x="353.5" y="-1424.5" font-family="Helvetica,sans-Serif" font-size="10.00">BurgerMenuComponent</text>
</a>
</g>
</g>
<!-- Node2&#45;&gt;Node13 -->
<g id="edge10_Node000002_Node000013" class="edge">
<title>Node2&#45;&gt;Node13</title>
<g id="a_edge10_Node000002_Node000013"><a xlink:title=" ">
<path fill="none" stroke="#63b8ff" d="M178.86,-898.55C182.87,-988.55 202.77,-1333.15 274.25,-1409 279.62,-1414.7 286.38,-1418.81 293.68,-1421.76"/>
<polygon fill="#63b8ff" stroke="#63b8ff" points="182.36,-898.54 178.44,-888.7 175.37,-898.84 182.36,-898.54"/>
</a>
</g>
</g>
<!-- Node14 -->
<g id="Node000014" class="node">
<title>Node14</title>
<g id="a_Node000014"><a xlink:href="classButton.html" target="_top" xlink:title="A base class for buttons.">
<polygon fill="#fff0f0" stroke="red" points="375.75,-1400 331.25,-1400 331.25,-1380 375.75,-1380 375.75,-1400"/>
<text xml:space="preserve" text-anchor="middle" x="353.5" y="-1386.5" font-family="Helvetica,sans-Serif" font-size="10.00">Button</text>
</a>
</g>
</g>
<!-- Node2&#45;&gt;Node14 -->
<g id="edge11_Node000002_Node000014" class="edge">
<title>Node2&#45;&gt;Node14</title>
<g id="a_edge11_Node000002_Node000014"><a xlink:title=" ">
<path fill="none" stroke="#63b8ff" d="M179.19,-898.64C184.35,-984.7 207.66,-1301.29 274.25,-1371 288.73,-1386.16 313.11,-1390.08 330.81,-1390.72"/>
<polygon fill="#63b8ff" stroke="#63b8ff" points="182.69,-898.57 178.62,-888.79 175.7,-898.97 182.69,-898.57"/>
</a>
</g>
</g>
<!-- Node25 -->
<g id="Node000025" class="node">
<title>Node25</title>
<g id="a_Node000025"><a xlink:href="classCallOutBox.html" target="_top" xlink:title="A box with a small arrow that can be used as a temporary pop&#45;up window to show extra controls when a ...">
<polygon fill="white" stroke="#666666" points="386.62,-1362 320.38,-1362 320.38,-1342 386.62,-1342 386.62,-1362"/>
<text xml:space="preserve" text-anchor="middle" x="353.5" y="-1348.5" font-family="Helvetica,sans-Serif" font-size="10.00">CallOutBox</text>
</a>
</g>
</g>
<!-- Node2&#45;&gt;Node25 -->
<g id="edge12_Node000002_Node000025" class="edge">
<title>Node2&#45;&gt;Node25</title>
<g id="a_edge12_Node000002_Node000025"><a xlink:title=" ">
<path fill="none" stroke="#63b8ff" d="M179.56,-898.54C185.91,-980.2 212.48,-1269.34 274.25,-1333 286.03,-1345.14 304.15,-1350.05 320,-1351.85"/>
<polygon fill="#63b8ff" stroke="#63b8ff" points="183.07,-898.5 178.83,-888.79 176.09,-899.02 183.07,-898.5"/>
</a>
</g>
</g>
<!-- Node26 -->
<g id="Node000026" class="node">
<title>Node26</title>
<g id="a_Node000026"><a xlink:href="classCaretComponent.html" target="_top" xlink:title=" ">
<polygon fill="white" stroke="#666666" points="398.62,-1324 308.38,-1324 308.38,-1304 398.62,-1304 398.62,-1324"/>
<text xml:space="preserve" text-anchor="middle" x="353.5" y="-1310.5" font-family="Helvetica,sans-Serif" font-size="10.00">CaretComponent</text>
</a>
</g>
</g>
<!-- Node2&#45;&gt;Node26 -->
<g id="edge13_Node000002_Node000026" class="edge">
<title>Node2&#45;&gt;Node26</title>
<g id="a_edge13_Node000002_Node000026"><a xlink:title=" ">
<path fill="none" stroke="#63b8ff" d="M179.97,-898.22C187.55,-975.05 217.23,-1237.3 274.25,-1295 283.19,-1304.05 295.66,-1309.07 308.03,-1311.77"/>
<polygon fill="#63b8ff" stroke="#63b8ff" points="183.5,-898.3 179.06,-888.68 176.53,-898.97 183.5,-898.3"/>
</a>
</g>
</g>
<!-- Node27 -->
<g id="Node000027" class="node">
<title>Node27</title>
<g id="a_Node000027"><a xlink:href="classCodeEditorComponent.html" target="_top" xlink:title="A text editor component designed specifically for source code.">
<polygon fill="white" stroke="#666666" points="411,-1286 296,-1286 296,-1266 411,-1266 411,-1286"/>
<text xml:space="preserve" text-anchor="middle" x="353.5" y="-1272.5" font-family="Helvetica,sans-Serif" font-size="10.00">CodeEditorComponent</text>
</a>
</g>
</g>
<!-- Node2&#45;&gt;Node27 -->
<g id="edge14_Node000002_Node000027" class="edge">
<title>Node2&#45;&gt;Node27</title>
<g id="a_edge14_Node000002_Node000027"><a xlink:title=" ">
<path fill="none" stroke="#63b8ff" d="M180.55,-898.59C189.54,-971.27 222.13,-1205.39 274.25,-1257 280.21,-1262.9 287.68,-1267.08 295.61,-1270.02"/>
<polygon fill="#63b8ff" stroke="#63b8ff" points="184.04,-898.33 179.36,-888.82 177.09,-899.17 184.04,-898.33"/>
</a>
</g>
</g>
<!-- Node28 -->
<g id="Node000028" class="node">
<title>Node28</title>
<g id="a_Node000028"><a xlink:href="classColourSelector.html" target="_top" xlink:title="A component that lets the user choose a colour.">
<polygon fill="white" stroke="#666666" points="393.75,-1248 313.25,-1248 313.25,-1228 393.75,-1228 393.75,-1248"/>
<text xml:space="preserve" text-anchor="middle" x="353.5" y="-1234.5" font-family="Helvetica,sans-Serif" font-size="10.00">ColourSelector</text>
</a>
</g>
</g>
<!-- Node2&#45;&gt;Node28 -->
<g id="edge15_Node000002_Node000028" class="edge">
<title>Node2&#45;&gt;Node28</title>
<g id="a_edge15_Node000002_Node000028"><a xlink:title=" ">
<path fill="none" stroke="#63b8ff" d="M177.15,-898.57C176.04,-958.7 181.6,-1129.64 274.25,-1219 284.51,-1228.9 299.02,-1233.93 312.76,-1236.39"/>
<polygon fill="#63b8ff" stroke="#63b8ff" points="180.65,-898.81 177.43,-888.71 173.65,-898.61 180.65,-898.81"/>
</a>
</g>
</g>
<!-- Node29 -->
<g id="Node000029" class="node">
<title>Node29</title>
<g id="a_Node000029"><a xlink:href="classComboBox.html" target="_top" xlink:title="A component that lets the user choose from a drop&#45;down list of choices.">
<polygon fill="white" stroke="#666666" points="385.88,-1210 321.12,-1210 321.12,-1190 385.88,-1190 385.88,-1210"/>
<text xml:space="preserve" text-anchor="middle" x="353.5" y="-1196.5" font-family="Helvetica,sans-Serif" font-size="10.00">ComboBox</text>
</a>
</g>
</g>
<!-- Node2&#45;&gt;Node29 -->
<g id="edge16_Node000002_Node000029" class="edge">
<title>Node2&#45;&gt;Node29</title>
<g id="a_edge16_Node000002_Node000029"><a xlink:title=" ">
<path fill="none" stroke="#63b8ff" d="M178.04,-898.39C179.37,-953.81 190.92,-1103.18 274.25,-1181 286.72,-1192.64 305.07,-1197.5 320.87,-1199.4"/>
<polygon fill="#63b8ff" stroke="#63b8ff" points="181.55,-898.69 177.91,-888.74 174.55,-898.78 181.55,-898.69"/>
</a>
</g>
</g>
<!-- Node30 -->
<g id="Node000030" class="node">
<title>Node30</title>
<g id="a_Node000030"><a xlink:href="classConcertinaPanel.html" target="_top" xlink:title="A panel which holds a vertical stack of components which can be expanded and contracted.">
<polygon fill="white" stroke="#666666" points="397.5,-1172 309.5,-1172 309.5,-1152 397.5,-1152 397.5,-1172"/>
<text xml:space="preserve" text-anchor="middle" x="353.5" y="-1158.5" font-family="Helvetica,sans-Serif" font-size="10.00">ConcertinaPanel</text>
</a>
</g>
</g>
<!-- Node2&#45;&gt;Node30 -->
<g id="edge17_Node000002_Node000030" class="edge">
<title>Node2&#45;&gt;Node30</title>
<g id="a_edge17_Node000002_Node000030"><a xlink:title=" ">
<path fill="none" stroke="#63b8ff" d="M179.19,-898.73C183.17,-949.54 200.41,-1076.8 274.25,-1143 283.83,-1151.59 296.63,-1156.45 309.09,-1159.17"/>
<polygon fill="#63b8ff" stroke="#63b8ff" points="182.68,-898.54 178.52,-888.8 175.7,-899.01 182.68,-898.54"/>
</a>
</g>
</g>
<!-- Node31 -->
<g id="Node000031" class="node">
<title>Node31</title>
<g id="a_Node000031"><a xlink:href="classDrawable.html" target="_top" xlink:title="The base class for objects which can draw themselves, e.g.">
<polygon fill="#fff0f0" stroke="red" points="382.12,-1134 324.88,-1134 324.88,-1114 382.12,-1114 382.12,-1134"/>
<text xml:space="preserve" text-anchor="middle" x="353.5" y="-1120.5" font-family="Helvetica,sans-Serif" font-size="10.00">Drawable</text>
</a>
</g>
</g>
<!-- Node2&#45;&gt;Node31 -->
<g id="edge18_Node000002_Node000031" class="edge">
<title>Node2&#45;&gt;Node31</title>
<g id="a_edge18_Node000002_Node000031"><a xlink:title=" ">
<path fill="none" stroke="#63b8ff" d="M180.61,-898.37C187.32,-943.71 209.47,-1049.91 274.25,-1105 288.2,-1116.86 308.36,-1121.56 324.73,-1123.32"/>
<polygon fill="#63b8ff" stroke="#63b8ff" points="184.09,-898 179.28,-888.56 177.16,-898.94 184.09,-898"/>
</a>
</g>
</g>
<!-- Node38 -->
<g id="Node000038" class="node">
<title>Node38</title>
<g id="a_Node000038"><a xlink:href="classFileBrowserComponent.html" target="_top" xlink:title="A component for browsing and selecting a file or directory to open or save.">
<polygon fill="white" stroke="#666666" points="412.5,-1096 294.5,-1096 294.5,-1076 412.5,-1076 412.5,-1096"/>
<text xml:space="preserve" text-anchor="middle" x="353.5" y="-1082.5" font-family="Helvetica,sans-Serif" font-size="10.00">FileBrowserComponent</text>
</a>
</g>
</g>
<!-- Node2&#45;&gt;Node38 -->
<g id="edge19_Node000002_Node000038" class="edge">
<title>Node2&#45;&gt;Node38</title>
<g id="a_edge19_Node000002_Node000038"><a xlink:title=" ">
<path fill="none" stroke="#63b8ff" d="M182.58,-898.3C192.23,-937.9 218.55,-1022.86 274.25,-1067 280.17,-1071.69 287.07,-1075.24 294.28,-1077.94"/>
<polygon fill="#63b8ff" stroke="#63b8ff" points="186,-897.58 180.35,-888.62 179.18,-899.15 186,-897.58"/>
</a>
</g>
</g>
<!-- Node39 -->
<g id="Node000039" class="node">
<title>Node39</title>
<g id="a_Node000039"><a xlink:href="classFilePreviewComponent.html" target="_top" xlink:title="Base class for components that live inside a file chooser dialog box and show previews of the files t...">
<polygon fill="#fff0f0" stroke="red" points="412.12,-1058 294.88,-1058 294.88,-1038 412.12,-1038 412.12,-1058"/>
<text xml:space="preserve" text-anchor="middle" x="353.5" y="-1044.5" font-family="Helvetica,sans-Serif" font-size="10.00">FilePreviewComponent</text>
</a>
</g>
</g>
<!-- Node2&#45;&gt;Node39 -->
<g id="edge20_Node000002_Node000039" class="edge">
<title>Node2&#45;&gt;Node39</title>
<g id="a_edge20_Node000002_Node000039"><a xlink:title=" ">
<path fill="none" stroke="#63b8ff" d="M185.4,-898.16C198.14,-931.38 227.46,-995.44 274.25,-1029 280.38,-1033.4 287.41,-1036.79 294.68,-1039.4"/>
<polygon fill="#63b8ff" stroke="#63b8ff" points="188.71,-897.03 181.98,-888.85 182.14,-899.45 188.71,-897.03"/>
</a>
</g>
</g>
<!-- Node41 -->
<g id="Node000041" class="node">
<title>Node41</title>
<g id="a_Node000041"><a xlink:href="classFileSearchPathListComponent.html" target="_top" xlink:title="Shows a set of file paths in a list, allowing them to be added, removed or re&#45;ordered.">
<polygon fill="white" stroke="#666666" points="427.88,-1020 279.12,-1020 279.12,-1000 427.88,-1000 427.88,-1020"/>
<text xml:space="preserve" text-anchor="middle" x="353.5" y="-1006.5" font-family="Helvetica,sans-Serif" font-size="10.00">FileSearchPathListComponent</text>
</a>
</g>
</g>
<!-- Node2&#45;&gt;Node41 -->
<g id="edge21_Node000002_Node000041" class="edge">
<title>Node2&#45;&gt;Node41</title>
<g id="a_edge21_Node000002_Node000041"><a xlink:title=" ">
<path fill="none" stroke="#63b8ff" d="M189.47,-897.24C205.18,-923.08 235.89,-967.28 274.25,-991 279.84,-994.46 286.01,-997.28 292.37,-999.6"/>
<polygon fill="#63b8ff" stroke="#63b8ff" points="192.53,-895.55 184.44,-888.71 186.5,-899.1 192.53,-895.55"/>
</a>
</g>
</g>
<!-- Node42 -->
<g id="Node000042" class="node">
<title>Node42</title>
<g id="a_Node000042"><a xlink:href="classFilenameComponent.html" target="_top" xlink:title="Shows a filename as an editable text box, with a &#39;browse&#39; button and a drop&#45;down list for recently se...">
<polygon fill="white" stroke="#666666" points="406.5,-982 300.5,-982 300.5,-962 406.5,-962 406.5,-982"/>
<text xml:space="preserve" text-anchor="middle" x="353.5" y="-968.5" font-family="Helvetica,sans-Serif" font-size="10.00">FilenameComponent</text>
</a>
</g>
</g>
<!-- Node2&#45;&gt;Node42 -->
<g id="edge22_Node000002_Node000042" class="edge">
<title>Node2&#45;&gt;Node42</title>
<g id="a_edge22_Node000002_Node000042"><a xlink:title=" ">
<path fill="none" stroke="#63b8ff" d="M195.88,-895.09C214.06,-912.45 243.82,-938.18 274.25,-953 282.29,-956.92 291.21,-960.06 300.05,-962.58"/>
<polygon fill="#63b8ff" stroke="#63b8ff" points="198.61,-892.86 189.01,-888.37 193.72,-897.87 198.61,-892.86"/>
</a>
</g>
</g>
<!-- Node43 -->
<g id="Node000043" class="node">
<title>Node43</title>
<g id="a_Node000043"><a xlink:href="classGroupComponent.html" target="_top" xlink:title="A component that draws an outline around itself and has an optional title at the top,...">
<polygon fill="white" stroke="#666666" points="399.75,-944 307.25,-944 307.25,-924 399.75,-924 399.75,-944"/>
<text xml:space="preserve" text-anchor="middle" x="353.5" y="-930.5" font-family="Helvetica,sans-Serif" font-size="10.00">GroupComponent</text>
</a>
</g>
</g>
<!-- Node2&#45;&gt;Node43 -->
<g id="edge23_Node000002_Node000043" class="edge">
<title>Node2&#45;&gt;Node43</title>
<g id="a_edge23_Node000002_Node000043"><a xlink:title=" ">
<path fill="none" stroke="#63b8ff" d="M212.2,-891.83C230.4,-899.39 253.31,-908.36 274.25,-915 284.78,-918.34 296.26,-921.43 307.1,-924.1"/>
<polygon fill="#63b8ff" stroke="#63b8ff" points="213.77,-888.7 203.19,-888.05 211.05,-895.15 213.77,-888.7"/>
</a>
</g>
</g>
<!-- Node44 -->
<g id="Node000044" class="node">
<title>Node44</title>
<g id="a_Node000044"><a xlink:href="classHWNDComponent.html" target="_top" xlink:title="A Windows&#45;specific class that can create and embed a HWND inside itself.">
<polygon fill="white" stroke="#666666" points="402.75,-906 304.25,-906 304.25,-886 402.75,-886 402.75,-906"/>
<text xml:space="preserve" text-anchor="middle" x="353.5" y="-892.5" font-family="Helvetica,sans-Serif" font-size="10.00">HWNDComponent</text>
</a>
</g>
</g>
<!-- Node2&#45;&gt;Node44 -->
<g id="edge24_Node000002_Node000044" class="edge">
<title>Node2&#45;&gt;Node44</title>
<g id="a_edge24_Node000002_Node000044"><a xlink:title=" ">
<path fill="none" stroke="#63b8ff" d="M221.74,-881.76C246.7,-884.48 278.03,-887.89 303.77,-890.69"/>
<polygon fill="#63b8ff" stroke="#63b8ff" points="222.24,-878.3 211.92,-880.69 221.48,-885.26 222.24,-878.3"/>
</a>
</g>
</g>
<!-- Node45 -->
<g id="Node000045" class="node">
<title>Node45</title>
<g id="a_Node000045"><a xlink:href="classImageComponent.html" target="_top" xlink:title="A component that simply displays an image.">
<polygon fill="white" stroke="#666666" points="400.12,-868 306.88,-868 306.88,-848 400.12,-848 400.12,-868"/>
<text xml:space="preserve" text-anchor="middle" x="353.5" y="-854.5" font-family="Helvetica,sans-Serif" font-size="10.00">ImageComponent</text>
</a>
</g>
</g>
<!-- Node2&#45;&gt;Node45 -->
<g id="edge25_Node000002_Node000045" class="edge">
<title>Node2&#45;&gt;Node45</title>
<g id="a_edge25_Node000002_Node000045"><a xlink:title=" ">
<path fill="none" stroke="#63b8ff" d="M221.75,-872.24C247.57,-869.42 280.23,-865.87 306.44,-863.01"/>
<polygon fill="#63b8ff" stroke="#63b8ff" points="221.48,-868.74 211.92,-873.31 222.24,-875.7 221.48,-868.74"/>
</a>
</g>
</g>
<!-- Node46 -->
<g id="Node000046" class="node">
<title>Node46</title>
<g id="a_Node000046"><a xlink:href="classKeyMappingEditorComponent.html" target="_top" xlink:title="A component to allow editing of the keymaps stored by a KeyPressMappingSet object.">
<polygon fill="white" stroke="#666666" points="426.38,-830 280.62,-830 280.62,-810 426.38,-810 426.38,-830"/>
<text xml:space="preserve" text-anchor="middle" x="353.5" y="-816.5" font-family="Helvetica,sans-Serif" font-size="10.00">KeyMappingEditorComponent</text>
</a>
</g>
</g>
<!-- Node2&#45;&gt;Node46 -->
<g id="edge26_Node000002_Node000046" class="edge">
<title>Node2&#45;&gt;Node46</title>
<g id="a_edge26_Node000002_Node000046"><a xlink:title=" ">
<path fill="none" stroke="#63b8ff" d="M221.45,-864.33C227.16,-862.37 232.88,-860.24 238.25,-858 254.94,-851.03 257.33,-845.41 274.25,-839 282.88,-835.73 292.26,-832.89 301.43,-830.46"/>
<polygon fill="#63b8ff" stroke="#63b8ff" points="220.44,-860.98 212.03,-867.43 222.62,-867.63 220.44,-860.98"/>
</a>
</g>
</g>
<!-- Node47 -->
<g id="Node000047" class="node">
<title>Node47</title>
<g id="a_Node000047"><a xlink:href="classKeyboardComponentBase.html" target="_top" xlink:title="A base class for drawing a custom MIDI keyboard component.">
<polygon fill="#fff0f0" stroke="red" points="418.5,-792 288.5,-792 288.5,-772 418.5,-772 418.5,-792"/>
<text xml:space="preserve" text-anchor="middle" x="353.5" y="-778.5" font-family="Helvetica,sans-Serif" font-size="10.00">KeyboardComponentBase</text>
</a>
</g>
</g>
<!-- Node2&#45;&gt;Node47 -->
<g id="edge27_Node000002_Node000047" class="edge">
<title>Node2&#45;&gt;Node47</title>
<g id="a_edge27_Node000002_Node000047"><a xlink:title=" ">
<path fill="none" stroke="#63b8ff" d="M220.84,-867.65C227.04,-865.15 233.07,-861.99 238.25,-858 261.98,-839.71 249.91,-818.48 274.25,-801 279.02,-797.57 284.33,-794.76 289.88,-792.45"/>
<polygon fill="#63b8ff" stroke="#63b8ff" points="220.09,-864.21 211.78,-870.78 222.37,-870.82 220.09,-864.21"/>
</a>
</g>
</g>
<!-- Node50 -->
<g id="Node000050" class="node">
<title>Node50</title>
<g id="a_Node000050"><a xlink:href="classLabel.html" target="_top" xlink:title="A component that displays a text string, and can optionally become a text editor when clicked.">
<polygon fill="white" stroke="#666666" points="373.12,-754 333.88,-754 333.88,-734 373.12,-734 373.12,-754"/>
<text xml:space="preserve" text-anchor="middle" x="353.5" y="-740.5" font-family="Helvetica,sans-Serif" font-size="10.00">Label</text>
</a>
</g>
</g>
<!-- Node2&#45;&gt;Node50 -->
<g id="edge28_Node000002_Node000050" class="edge">
<title>Node2&#45;&gt;Node50</title>
<g id="a_edge28_Node000002_Node000050"><a xlink:title=" ">
<path fill="none" stroke="#63b8ff" d="M221.2,-868.7C227.45,-866.06 233.4,-862.58 238.25,-858 271.07,-826.99 240.41,-792.89 274.25,-763 290.6,-748.56 316.08,-744.67 333.49,-743.82"/>
<polygon fill="#63b8ff" stroke="#63b8ff" points="220.26,-865.32 211.96,-871.9 222.55,-871.93 220.26,-865.32"/>
</a>
</g>
</g>
<!-- Node51 -->
<g id="Node000051" class="node">
<title>Node51</title>
<g id="a_Node000051"><a xlink:href="classLassoComponent.html" target="_top" xlink:title="A component that acts as a rectangular selection region, which you drag with the mouse to select grou...">
<polygon fill="white" stroke="#666666" points="427.12,-716 279.88,-716 279.88,-684 427.12,-684 427.12,-716"/>
<text xml:space="preserve" text-anchor="start" x="287.88" y="-702.5" font-family="Helvetica,sans-Serif" font-size="10.00">LassoComponent&lt; Selectable</text>
<text xml:space="preserve" text-anchor="middle" x="353.5" y="-690.5" font-family="Helvetica,sans-Serif" font-size="10.00">ItemType &gt;</text>
</a>
</g>
</g>
<!-- Node2&#45;&gt;Node51 -->
<g id="edge29_Node000002_Node000051" class="edge">
<title>Node2&#45;&gt;Node51</title>
<g id="a_edge29_Node000002_Node000051"><a xlink:title=" ">
<path fill="none" stroke="#63b8ff" d="M221.2,-869.27C227.55,-866.57 233.53,-862.92 238.25,-858 280.65,-813.82 231.93,-769.26 274.25,-725 277.4,-721.7 280.99,-718.84 284.86,-716.35"/>
<polygon fill="#63b8ff" stroke="#63b8ff" points="220.09,-865.96 211.76,-872.51 222.36,-872.58 220.09,-865.96"/>
</a>
</g>
</g>
<!-- Node52 -->
<g id="Node000052" class="node">
<title>Node52</title>
<g id="a_Node000052"><a xlink:href="classListBox.html" target="_top" xlink:title="A list of items that can be scrolled vertically.">
<polygon fill="#fff0f0" stroke="red" points="378,-666 329,-666 329,-646 378,-646 378,-666"/>
<text xml:space="preserve" text-anchor="middle" x="353.5" y="-652.5" font-family="Helvetica,sans-Serif" font-size="10.00">ListBox</text>
</a>
</g>
</g>
<!-- Node2&#45;&gt;Node52 -->
<g id="edge30_Node000002_Node000052" class="edge">
<title>Node2&#45;&gt;Node52</title>
<g id="a_edge30_Node000002_Node000052"><a xlink:title=" ">
<path fill="none" stroke="#63b8ff" d="M220.84,-869.84C227.4,-867.07 233.55,-863.26 238.25,-858 293.51,-796.22 216.94,-734.89 274.25,-675 288.17,-660.46 311.19,-656.26 328.66,-655.38"/>
<polygon fill="#63b8ff" stroke="#63b8ff" points="220.13,-866.39 211.77,-872.89 222.36,-873.02 220.13,-866.39"/>
</a>
</g>
</g>
<!-- Node55 -->
<g id="Node000055" class="node">
<title>Node55</title>
<g id="a_Node000055"><a xlink:href="classMenuBarComponent.html" target="_top" xlink:title="A menu bar component.">
<polygon fill="white" stroke="#666666" points="406.12,-628 300.88,-628 300.88,-608 406.12,-608 406.12,-628"/>
<text xml:space="preserve" text-anchor="middle" x="353.5" y="-614.5" font-family="Helvetica,sans-Serif" font-size="10.00">MenuBarComponent</text>
</a>
</g>
</g>
<!-- Node2&#45;&gt;Node55 -->
<g id="edge31_Node000002_Node000055" class="edge">
<title>Node2&#45;&gt;Node55</title>
<g id="a_edge31_Node000002_Node000055"><a xlink:title=" ">
<path fill="none" stroke="#63b8ff" d="M220.99,-869.97C227.53,-867.19 233.63,-863.33 238.25,-858 303.37,-782.75 206.63,-710.02 274.25,-637 281.28,-629.41 290.78,-624.62 300.74,-621.65"/>
<polygon fill="#63b8ff" stroke="#63b8ff" points="220.28,-866.51 211.92,-873.03 222.51,-873.15 220.28,-866.51"/>
</a>
</g>
</g>
<!-- Node56 -->
<g id="Node000056" class="node">
<title>Node56</title>
<g id="a_Node000056"><a xlink:href="classMultiDocumentPanel.html" target="_top" xlink:title="A component that contains a set of other components either in floating windows or tabs.">
<polygon fill="white" stroke="#666666" points="406.88,-590 300.12,-590 300.12,-570 406.88,-570 406.88,-590"/>
<text xml:space="preserve" text-anchor="middle" x="353.5" y="-576.5" font-family="Helvetica,sans-Serif" font-size="10.00">MultiDocumentPanel</text>
</a>
</g>
</g>
<!-- Node2&#45;&gt;Node56 -->
<g id="edge32_Node000002_Node000056" class="edge">
<title>Node2&#45;&gt;Node56</title>
<g id="a_edge32_Node000002_Node000056"><a xlink:title=" ">
<path fill="none" stroke="#63b8ff" d="M221.09,-870.06C227.63,-867.27 233.7,-863.39 238.25,-858 313.27,-769.24 196.29,-685.19 274.25,-599 281,-591.54 290.15,-586.77 299.8,-583.77"/>
<polygon fill="#63b8ff" stroke="#63b8ff" points="220.38,-866.6 212.03,-873.12 222.62,-873.23 220.38,-866.6"/>
</a>
</g>
</g>
<!-- Node57 -->
<g id="Node000057" class="node">
<title>Node57</title>
<g id="a_Node000057"><a xlink:href="classNSViewComponent.html" target="_top" xlink:title="A Mac&#45;specific class that can create and embed an NSView inside itself.">
<polygon fill="white" stroke="#666666" points="404.62,-552 302.38,-552 302.38,-532 404.62,-532 404.62,-552"/>
<text xml:space="preserve" text-anchor="middle" x="353.5" y="-538.5" font-family="Helvetica,sans-Serif" font-size="10.00">NSViewComponent</text>
</a>
</g>
</g>
<!-- Node2&#45;&gt;Node57 -->
<g id="edge33_Node000002_Node000057" class="edge">
<title>Node2&#45;&gt;Node57</title>
<g id="a_edge33_Node000002_Node000057"><a xlink:title=" ">
<path fill="none" stroke="#63b8ff" d="M220.97,-870.21C227.58,-867.41 233.7,-863.48 238.25,-858 323.19,-755.7 185.92,-660.38 274.25,-561 281.49,-552.85 291.59,-547.9 302.12,-544.96"/>
<polygon fill="#63b8ff" stroke="#63b8ff" points="220.17,-866.79 211.8,-873.27 222.39,-873.43 220.17,-866.79"/>
</a>
</g>
</g>
<!-- Node58 -->
<g id="Node000058" class="node">
<title>Node58</title>
<g id="a_Node000058"><a xlink:href="classOnlineUnlockForm.html" target="_top" xlink:title="Acts as a GUI which asks the user for their details, and calls the appropriate methods on your Online...">
<polygon fill="white" stroke="#666666" points="402,-514 305,-514 305,-494 402,-494 402,-514"/>
<text xml:space="preserve" text-anchor="middle" x="353.5" y="-500.5" font-family="Helvetica,sans-Serif" font-size="10.00">OnlineUnlockForm</text>
</a>
</g>
</g>
<!-- Node2&#45;&gt;Node58 -->
<g id="edge34_Node000002_Node000058" class="edge">
<title>Node2&#45;&gt;Node58</title>
<g id="a_edge34_Node000002_Node000058"><a xlink:title=" ">
<path fill="none" stroke="#63b8ff" d="M221.04,-870.26C227.63,-867.45 233.74,-863.51 238.25,-858 333.13,-742.15 175.53,-635.6 274.25,-523 282.08,-514.07 293.34,-508.97 304.89,-506.15"/>
<polygon fill="#63b8ff" stroke="#63b8ff" points="220.24,-866.84 211.86,-873.33 222.45,-873.48 220.24,-866.84"/>
</a>
</g>
</g>
<!-- Node59 -->
<g id="Node000059" class="node">
<title>Node59</title>
<g id="a_Node000059"><a xlink:href="classOpenGLAppComponent.html" target="_top" xlink:title="A base class for writing simple one&#45;page graphical apps.">
<polygon fill="white" stroke="#666666" points="413.25,-476 293.75,-476 293.75,-456 413.25,-456 413.25,-476"/>
<text xml:space="preserve" text-anchor="middle" x="353.5" y="-462.5" font-family="Helvetica,sans-Serif" font-size="10.00">OpenGLAppComponent</text>
</a>
</g>
</g>
<!-- Node2&#45;&gt;Node59 -->
<g id="edge35_Node000002_Node000059" class="edge">
<title>Node2&#45;&gt;Node59</title>
<g id="a_edge35_Node000002_Node000059"><a xlink:title=" ">
<path fill="none" stroke="#63b8ff" d="M221.09,-870.3C227.68,-867.49 233.77,-863.54 238.25,-858 290.66,-793.29 219.69,-547.91 274.25,-485 279.47,-478.98 286.25,-474.7 293.62,-471.68"/>
<polygon fill="#63b8ff" stroke="#63b8ff" points="220.29,-866.88 211.91,-873.37 222.51,-873.52 220.29,-866.88"/>
</a>
</g>
</g>
<!-- Node60 -->
<g id="Node000060" class="node">
<title>Node60</title>
<g id="a_Node000060"><a xlink:href="classPluginListComponent.html" target="_top" xlink:title="A component displaying a list of plugins, with options to scan for them, add, remove and sort them.">
<polygon fill="white" stroke="#666666" points="408,-438 299,-438 299,-418 408,-418 408,-438"/>
<text xml:space="preserve" text-anchor="middle" x="353.5" y="-424.5" font-family="Helvetica,sans-Serif" font-size="10.00">PluginListComponent</text>
</a>
</g>
</g>
<!-- Node2&#45;&gt;Node60 -->
<g id="edge36_Node000002_Node000060" class="edge">
<title>Node2&#45;&gt;Node60</title>
<g id="a_edge36_Node000002_Node000060"><a xlink:title=" ">
<path fill="none" stroke="#63b8ff" d="M221.13,-870.33C227.71,-867.52 233.79,-863.56 238.25,-858 295.64,-786.5 214.49,-516.53 274.25,-447 280.63,-439.58 289.37,-434.8 298.7,-431.76"/>
<polygon fill="#63b8ff" stroke="#63b8ff" points="220.33,-866.91 211.95,-873.4 222.55,-873.55 220.33,-866.91"/>
</a>
</g>
</g>
<!-- Node61 -->
<g id="Node000061" class="node">
<title>Node61</title>
<g id="a_Node000061"><a xlink:href="classPopupMenu_1_1CustomComponent.html" target="_top" xlink:title="A user&#45;defined component that can be used as an item in a popup menu.">
<polygon fill="white" stroke="#666666" points="432.75,-400 274.25,-400 274.25,-380 432.75,-380 432.75,-400"/>
<text xml:space="preserve" text-anchor="middle" x="353.5" y="-386.5" font-family="Helvetica,sans-Serif" font-size="10.00">PopupMenu::CustomComponent</text>
</a>
</g>
</g>
<!-- Node2&#45;&gt;Node61 -->
<g id="edge37_Node000002_Node000061" class="edge">
<title>Node2&#45;&gt;Node61</title>
<g id="a_edge37_Node000002_Node000061"><a xlink:title=" ">
<path fill="none" stroke="#63b8ff" d="M221.16,-870.36C227.74,-867.54 233.81,-863.57 238.25,-858 300.62,-779.71 209.28,-485.15 274.25,-409 277.15,-405.6 280.55,-402.75 284.28,-400.37"/>
<polygon fill="#63b8ff" stroke="#63b8ff" points="220.36,-866.94 211.99,-873.43 222.58,-873.58 220.36,-866.94"/>
</a>
</g>
</g>
<!-- Node62 -->
<g id="Node000062" class="node">
<title>Node62</title>
<g id="a_Node000062"><a xlink:href="classPreferencesPanel.html" target="_top" xlink:title="A component with a set of buttons at the top for changing between pages of preferences.">
<polygon fill="white" stroke="#666666" points="400.12,-362 306.88,-362 306.88,-342 400.12,-342 400.12,-362"/>
<text xml:space="preserve" text-anchor="middle" x="353.5" y="-348.5" font-family="Helvetica,sans-Serif" font-size="10.00">PreferencesPanel</text>
</a>
</g>
</g>
<!-- Node2&#45;&gt;Node62 -->
<g id="edge38_Node000002_Node000062" class="edge">
<title>Node2&#45;&gt;Node62</title>
<g id="a_edge38_Node000002_Node000062"><a xlink:title=" ">
<path fill="none" stroke="#63b8ff" d="M221.19,-870.38C227.77,-867.56 233.83,-863.59 238.25,-858 305.6,-772.91 204.08,-453.78 274.25,-371 282.39,-361.4 294.47,-356.21 306.73,-353.5"/>
<polygon fill="#63b8ff" stroke="#63b8ff" points="220.39,-866.96 212.02,-873.45 222.61,-873.6 220.39,-866.96"/>
</a>
</g>
</g>
<!-- Node63 -->
<g id="Node000063" class="node">
<title>Node63</title>
<g id="a_Node000063"><a xlink:href="classProgressBar.html" target="_top" xlink:title="A progress bar component.">
<polygon fill="white" stroke="#666666" points="388.5,-324 318.5,-324 318.5,-304 388.5,-304 388.5,-324"/>
<text xml:space="preserve" text-anchor="middle" x="353.5" y="-310.5" font-family="Helvetica,sans-Serif" font-size="10.00">ProgressBar</text>
</a>
</g>
</g>
<!-- Node2&#45;&gt;Node63 -->
<g id="edge39_Node000002_Node000063" class="edge">
<title>Node2&#45;&gt;Node63</title>
<g id="a_edge39_Node000002_Node000063"><a xlink:title=" ">
<path fill="none" stroke="#63b8ff" d="M221.22,-870.4C227.79,-867.58 233.84,-863.6 238.25,-858 310.58,-766.11 198.87,-422.4 274.25,-333 284.88,-320.39 302.34,-315.37 318.07,-313.62"/>
<polygon fill="#63b8ff" stroke="#63b8ff" points="220.42,-866.98 212.04,-873.47 222.64,-873.62 220.42,-866.98"/>
</a>
</g>
</g>
<!-- Node64 -->
<g id="Node000064" class="node">
<title>Node64</title>
<g id="a_Node000064"><a xlink:href="classPropertyComponent.html" target="_top" xlink:title="A base class for a component that goes in a PropertyPanel and displays one of an item&#39;s properties.">
<polygon fill="#fff0f0" stroke="red" points="405,-286 302,-286 302,-266 405,-266 405,-286"/>
<text xml:space="preserve" text-anchor="middle" x="353.5" y="-272.5" font-family="Helvetica,sans-Serif" font-size="10.00">PropertyComponent</text>
</a>
</g>
</g>
<!-- Node2&#45;&gt;Node64 -->
<g id="edge40_Node000002_Node000064" class="edge">
<title>Node2&#45;&gt;Node64</title>
<g id="a_edge40_Node000002_Node000064"><a xlink:title=" ">
<path fill="none" stroke="#63b8ff" d="M221.04,-870.51C227.69,-867.68 233.81,-863.67 238.25,-858 315.57,-759.31 193.66,-391.03 274.25,-295 281.26,-286.65 291.26,-281.62 301.78,-278.67"/>
<polygon fill="#63b8ff" stroke="#63b8ff" points="220.15,-867.11 211.75,-873.58 222.35,-873.76 220.15,-867.11"/>
</a>
</g>
</g>
<!-- Node71 -->
<g id="Node000071" class="node">
<title>Node71</title>
<g id="a_Node000071"><a xlink:href="classPropertyPanel.html" target="_top" xlink:title="A panel that holds a list of PropertyComponent objects.">
<polygon fill="white" stroke="#666666" points="392.25,-248 314.75,-248 314.75,-228 392.25,-228 392.25,-248"/>
<text xml:space="preserve" text-anchor="middle" x="353.5" y="-234.5" font-family="Helvetica,sans-Serif" font-size="10.00">PropertyPanel</text>
</a>
</g>
</g>
<!-- Node2&#45;&gt;Node71 -->
<g id="edge41_Node000002_Node000071" class="edge">
<title>Node2&#45;&gt;Node71</title>
<g id="a_edge41_Node000002_Node000071"><a xlink:title=" ">
<path fill="none" stroke="#63b8ff" d="M221.06,-870.52C227.71,-867.69 233.82,-863.67 238.25,-858 320.55,-752.51 188.45,-359.66 274.25,-257 284.02,-245.31 299.66,-240.13 314.39,-238.03"/>
<polygon fill="#63b8ff" stroke="#63b8ff" points="220.17,-867.13 211.77,-873.59 222.37,-873.77 220.17,-867.13"/>
</a>
</g>
</g>
<!-- Node72 -->
<g id="Node000072" class="node">
<title>Node72</title>
<g id="a_Node000072"><a xlink:href="classResizableBorderComponent.html" target="_top" xlink:title="A component that resizes its parent component when dragged.">
<polygon fill="white" stroke="#666666" points="422.62,-210 284.38,-210 284.38,-190 422.62,-190 422.62,-210"/>
<text xml:space="preserve" text-anchor="middle" x="353.5" y="-196.5" font-family="Helvetica,sans-Serif" font-size="10.00">ResizableBorderComponent</text>
</a>
</g>
</g>
<!-- Node2&#45;&gt;Node72 -->
<g id="edge42_Node000002_Node000072" class="edge">
<title>Node2&#45;&gt;Node72</title>
<g id="a_edge42_Node000002_Node000072"><a xlink:title=" ">
<path fill="none" stroke="#63b8ff" d="M221.07,-870.53C227.72,-867.7 233.83,-863.68 238.25,-858 325.54,-745.71 183.23,-328.29 274.25,-219 277.11,-215.56 280.48,-212.69 284.19,-210.29"/>
<polygon fill="#63b8ff" stroke="#63b8ff" points="220.19,-867.14 211.79,-873.6 222.38,-873.79 220.19,-867.14"/>
</a>
</g>
</g>
<!-- Node73 -->
<g id="Node000073" class="node">
<title>Node73</title>
<g id="a_Node000073"><a xlink:href="classResizableCornerComponent.html" target="_top" xlink:title="A component that resizes a parent component when dragged.">
<polygon fill="white" stroke="#666666" points="423,-172 284,-172 284,-152 423,-152 423,-172"/>
<text xml:space="preserve" text-anchor="middle" x="353.5" y="-158.5" font-family="Helvetica,sans-Serif" font-size="10.00">ResizableCornerComponent</text>
</a>
</g>
</g>
<!-- Node2&#45;&gt;Node73 -->
<g id="edge43_Node000002_Node000073" class="edge">
<title>Node2&#45;&gt;Node73</title>
<g id="a_edge43_Node000002_Node000073"><a xlink:title=" ">
<path fill="none" stroke="#63b8ff" d="M221.09,-870.54C227.73,-867.71 233.84,-863.69 238.25,-858 330.53,-738.91 178.02,-296.92 274.25,-181 277.11,-177.56 280.47,-174.68 284.18,-172.28"/>
<polygon fill="#63b8ff" stroke="#63b8ff" points="220.2,-867.15 211.81,-873.62 222.4,-873.8 220.2,-867.15"/>
</a>
</g>
</g>
<!-- Node74 -->
<g id="Node000074" class="node">
<title>Node74</title>
<g id="a_Node000074"><a xlink:href="classResizableEdgeComponent.html" target="_top" xlink:title="A component that resizes its parent component when dragged.">
<polygon fill="white" stroke="#666666" points="419.62,-134 287.38,-134 287.38,-114 419.62,-114 419.62,-134"/>
<text xml:space="preserve" text-anchor="middle" x="353.5" y="-120.5" font-family="Helvetica,sans-Serif" font-size="10.00">ResizableEdgeComponent</text>
</a>
</g>
</g>
<!-- Node2&#45;&gt;Node74 -->
<g id="edge44_Node000002_Node000074" class="edge">
<title>Node2&#45;&gt;Node74</title>
<g id="a_edge44_Node000002_Node000074"><a xlink:title=" ">
<path fill="none" stroke="#63b8ff" d="M221.1,-870.56C227.75,-867.72 233.85,-863.7 238.25,-858 335.52,-732.11 172.81,-265.55 274.25,-143 277.82,-138.69 282.18,-135.27 287,-132.55"/>
<polygon fill="#63b8ff" stroke="#63b8ff" points="220.21,-867.16 211.82,-873.63 222.41,-873.81 220.21,-867.16"/>
</a>
</g>
</g>
<!-- Node75 -->
<g id="Node000075" class="node">
<title>Node75</title>
<g id="a_Node000075"><a xlink:href="classScrollBar.html" target="_top" xlink:title="A scrollbar component.">
<polygon fill="white" stroke="#666666" points="381.38,-96 325.62,-96 325.62,-76 381.38,-76 381.38,-96"/>
<text xml:space="preserve" text-anchor="middle" x="353.5" y="-82.5" font-family="Helvetica,sans-Serif" font-size="10.00">ScrollBar</text>
</a>
</g>
</g>
<!-- Node2&#45;&gt;Node75 -->
<g id="edge45_Node000002_Node000075" class="edge">
<title>Node2&#45;&gt;Node75</title>
<g id="a_edge45_Node000002_Node000075"><a xlink:title=" ">
<path fill="none" stroke="#63b8ff" d="M221.11,-870.56C227.76,-867.73 233.86,-863.7 238.25,-858 289.38,-791.65 220.92,-169.59 274.25,-105 286.44,-90.23 308,-85.83 325.4,-84.93"/>
<polygon fill="#63b8ff" stroke="#63b8ff" points="220.23,-867.17 211.83,-873.64 222.42,-873.82 220.23,-867.17"/>
</a>
</g>
</g>
<!-- Node76 -->
<g id="Node000076" class="node">
<title>Node76</title>
<g id="a_Node000076"><a xlink:href="classSidePanel.html" target="_top" xlink:title="A component that is positioned on either the left&#45; or right&#45;hand side of its parent,...">
<polygon fill="white" stroke="#666666" points="383.62,-58 323.38,-58 323.38,-38 383.62,-38 383.62,-58"/>
<text xml:space="preserve" text-anchor="middle" x="353.5" y="-44.5" font-family="Helvetica,sans-Serif" font-size="10.00">SidePanel</text>
</a>
</g>
</g>
<!-- Node2&#45;&gt;Node76 -->
<g id="edge46_Node000002_Node000076" class="edge">
<title>Node2&#45;&gt;Node76</title>
<g id="a_edge46_Node000002_Node000076"><a xlink:title=" ">
<path fill="none" stroke="#63b8ff" d="M221.12,-870.57C227.77,-867.74 233.86,-863.71 238.25,-858 291.87,-788.25 218.31,-134.91 274.25,-67 285.89,-52.86 306.11,-48.22 323.08,-47.06"/>
<polygon fill="#63b8ff" stroke="#63b8ff" points="220.24,-867.18 211.84,-873.64 222.44,-873.83 220.24,-867.18"/>
</a>
</g>
</g>
<!-- Node77 -->
<g id="Node000077" class="node">
<title>Node77</title>
<g id="a_Node000077"><a xlink:href="classSlider.html" target="_top" xlink:title="A slider control for changing a value.">
<polygon fill="white" stroke="#666666" points="373.88,-20 333.12,-20 333.12,0 373.88,0 373.88,-20"/>
<text xml:space="preserve" text-anchor="middle" x="353.5" y="-6.5" font-family="Helvetica,sans-Serif" font-size="10.00">Slider</text>
</a>
</g>
</g>
<!-- Node2&#45;&gt;Node77 -->
<g id="edge47_Node000002_Node000077" class="edge">
<title>Node2&#45;&gt;Node77</title>
<g id="a_edge47_Node000002_Node000077"><a xlink:title=" ">
<path fill="none" stroke="#63b8ff" d="M221.13,-870.58C227.78,-867.74 233.87,-863.71 238.25,-858 294.37,-784.85 215.71,-100.22 274.25,-29 288.19,-12.04 314.46,-8.74 332.7,-8.72"/>
<polygon fill="#63b8ff" stroke="#63b8ff" points="220.25,-867.19 211.85,-873.65 222.45,-873.83 220.25,-867.19"/>
</a>
</g>
</g>
</g>
</svg>
