<?xml version="1.0" encoding="UTF-8" standalone="no"?>
<!DOCTYPE svg PUBLIC "-//W3C//DTD SVG 1.1//EN"
 "http://www.w3.org/Graphics/SVG/1.1/DTD/svg11.dtd">
<!-- Generated by graphviz version 13.1.0 (20250701.0955)
 -->
<!-- Title: BubbleMessageComponent Pages: 1 -->
<svg width="167pt" height="196pt"
 viewBox="0.00 0.00 167.00 196.00" xmlns="http://www.w3.org/2000/svg" xmlns:xlink="http://www.w3.org/1999/xlink">
<g id="graph0" class="graph" transform="scale(1 1) rotate(0) translate(4 192)">
<title>BubbleMessageComponent</title>
<!-- Node1 -->
<g id="Node000001" class="node">
<title>Node1</title>
<g id="a_Node000001"><a xlink:title="A speech&#45;bubble component that displays a short message.">
<polygon fill="#999999" stroke="#666666" points="159.12,-20 23.12,-20 23.12,0 159.12,0 159.12,-20"/>
<text xml:space="preserve" text-anchor="middle" x="91.12" y="-6.5" font-family="Helvetica,sans-Serif" font-size="10.00">BubbleMessageComponent</text>
</a>
</g>
</g>
<!-- Node2 -->
<g id="Node000002" class="node">
<title>Node2</title>
<g id="a_Node000002"><a xlink:href="classBubbleComponent.html" target="_top" xlink:title="A component for showing a message or other graphics inside a speech&#45;bubble&#45;shaped outline,...">
<polygon fill="white" stroke="#666666" points="96.25,-76 0,-76 0,-56 96.25,-56 96.25,-76"/>
<text xml:space="preserve" text-anchor="middle" x="48.12" y="-62.5" font-family="Helvetica,sans-Serif" font-size="10.00">BubbleComponent</text>
</a>
</g>
</g>
<!-- Node2&#45;&gt;Node1 -->
<g id="edge1_Node000001_Node000002" class="edge">
<title>Node2&#45;&gt;Node1</title>
<g id="a_edge1_Node000001_Node000002"><a xlink:title=" ">
<path fill="none" stroke="#63b8ff" d="M62.68,-46.72C69.75,-37.84 77.95,-27.55 83.72,-20.3"/>
<polygon fill="#63b8ff" stroke="#63b8ff" points="60.05,-44.41 56.56,-54.41 65.53,-48.77 60.05,-44.41"/>
</a>
</g>
</g>
<!-- Node3 -->
<g id="Node000003" class="node">
<title>Node3</title>
<g id="a_Node000003"><a xlink:href="classComponent.html" target="_top" xlink:title="The base class for all JUCE user&#45;interface objects.">
<polygon fill="white" stroke="#666666" points="81.25,-132 15,-132 15,-112 81.25,-112 81.25,-132"/>
<text xml:space="preserve" text-anchor="middle" x="48.12" y="-118.5" font-family="Helvetica,sans-Serif" font-size="10.00">Component</text>
</a>
</g>
</g>
<!-- Node3&#45;&gt;Node2 -->
<g id="edge2_Node000002_Node000003" class="edge">
<title>Node3&#45;&gt;Node2</title>
<g id="a_edge2_Node000002_Node000003"><a xlink:title=" ">
<path fill="none" stroke="#63b8ff" d="M48.12,-100.13C48.12,-91.9 48.12,-82.85 48.12,-76.3"/>
<polygon fill="#63b8ff" stroke="#63b8ff" points="44.63,-100.08 48.13,-110.08 51.63,-100.08 44.63,-100.08"/>
</a>
</g>
</g>
<!-- Node4 -->
<g id="Node000004" class="node">
<title>Node4</title>
<g id="a_Node000004"><a xlink:href="classMouseListener.html" target="_top" xlink:title="A MouseListener can be registered with a component to receive callbacks about mouse events that happe...">
<polygon fill="white" stroke="#666666" points="88,-188 8.25,-188 8.25,-168 88,-168 88,-188"/>
<text xml:space="preserve" text-anchor="middle" x="48.12" y="-174.5" font-family="Helvetica,sans-Serif" font-size="10.00">MouseListener</text>
</a>
</g>
</g>
<!-- Node4&#45;&gt;Node3 -->
<g id="edge3_Node000003_Node000004" class="edge">
<title>Node4&#45;&gt;Node3</title>
<g id="a_edge3_Node000003_Node000004"><a xlink:title=" ">
<path fill="none" stroke="#63b8ff" d="M48.12,-156.13C48.12,-147.9 48.12,-138.85 48.12,-132.3"/>
<polygon fill="#63b8ff" stroke="#63b8ff" points="44.63,-156.08 48.13,-166.08 51.63,-156.08 44.63,-156.08"/>
</a>
</g>
</g>
<!-- Node5 -->
<g id="Node000005" class="node">
<title>Node5</title>
<g id="a_Node000005"><a xlink:href="classTimer.html" target="_top" xlink:title="Makes repeated callbacks to a virtual method at a specified time interval.">
<polygon fill="white" stroke="#666666" points="155.5,-76 114.75,-76 114.75,-56 155.5,-56 155.5,-76"/>
<text xml:space="preserve" text-anchor="middle" x="135.12" y="-62.5" font-family="Helvetica,sans-Serif" font-size="10.00">Timer</text>
</a>
</g>
</g>
<!-- Node5&#45;&gt;Node1 -->
<g id="edge4_Node000001_Node000005" class="edge">
<title>Node5&#45;&gt;Node1</title>
<g id="a_edge4_Node000001_Node000005"><a xlink:title=" ">
<path fill="none" stroke="#8b1a1a" d="M120.23,-46.72C112.99,-37.84 104.61,-27.55 98.7,-20.3"/>
<polygon fill="#8b1a1a" stroke="#8b1a1a" points="117.47,-48.88 126.5,-54.42 122.9,-44.46 117.47,-48.88"/>
</a>
</g>
</g>
</g>
</svg>
