<?xml version="1.0" encoding="UTF-8" standalone="no"?>
<!DOCTYPE svg PUBLIC "-//W3C//DTD SVG 1.1//EN"
 "http://www.w3.org/Graphics/SVG/1.1/DTD/svg11.dtd">
<!-- Generated by graphviz version 13.1.0 (20250701.0955)
 -->
<!-- Title: ThreadWithProgressWindow Pages: 1 -->
<svg width="149pt" height="84pt"
 viewBox="0.00 0.00 149.00 84.00" xmlns="http://www.w3.org/2000/svg" xmlns:xlink="http://www.w3.org/1999/xlink">
<g id="graph0" class="graph" transform="scale(1 1) rotate(0) translate(4 80)">
<title>ThreadWithProgressWindow</title>
<!-- Node1 -->
<g id="Node000001" class="node">
<title>Node1</title>
<g id="a_Node000001"><a xlink:title="A thread that automatically pops up a modal dialog box with a progress bar and cancel button while it...">
<polygon fill="#999999" stroke="#666666" points="140.5,-20 0,-20 0,0 140.5,0 140.5,-20"/>
<text xml:space="preserve" text-anchor="middle" x="70.25" y="-6.5" font-family="Helvetica,sans-Serif" font-size="10.00">ThreadWithProgressWindow</text>
</a>
</g>
</g>
<!-- Node2 -->
<g id="Node000002" class="node">
<title>Node2</title>
<g id="a_Node000002"><a xlink:href="classThread.html" target="_top" xlink:title="Encapsulates a thread.">
<polygon fill="white" stroke="#666666" points="63.25,-76 17.25,-76 17.25,-56 63.25,-56 63.25,-76"/>
<text xml:space="preserve" text-anchor="middle" x="40.25" y="-62.5" font-family="Helvetica,sans-Serif" font-size="10.00">Thread</text>
</a>
</g>
</g>
<!-- Node2&#45;&gt;Node1 -->
<g id="edge1_Node000001_Node000002" class="edge">
<title>Node2&#45;&gt;Node1</title>
<g id="a_edge1_Node000001_Node000002"><a xlink:title=" ">
<path fill="none" stroke="#63b8ff" d="M51.04,-45.58C55.82,-36.97 61.23,-27.24 65.08,-20.3"/>
<polygon fill="#63b8ff" stroke="#63b8ff" points="48.01,-43.83 46.21,-54.27 54.13,-47.23 48.01,-43.83"/>
</a>
</g>
</g>
<!-- Node3 -->
<g id="Node000003" class="node">
<title>Node3</title>
<g id="a_Node000003"><a xlink:href="classTimer.html" target="_top" xlink:title="Makes repeated callbacks to a virtual method at a specified time interval.">
<polygon fill="white" stroke="#666666" points="121.62,-76 80.88,-76 80.88,-56 121.62,-56 121.62,-76"/>
<text xml:space="preserve" text-anchor="middle" x="101.25" y="-62.5" font-family="Helvetica,sans-Serif" font-size="10.00">Timer</text>
</a>
</g>
</g>
<!-- Node3&#45;&gt;Node1 -->
<g id="edge2_Node000001_Node000003" class="edge">
<title>Node3&#45;&gt;Node1</title>
<g id="a_edge2_Node000001_Node000003"><a xlink:title=" ">
<path fill="none" stroke="#8b1a1a" d="M90.27,-45.87C85.28,-37.19 79.62,-27.32 75.59,-20.3"/>
<polygon fill="#8b1a1a" stroke="#8b1a1a" points="87.08,-47.35 95.1,-54.28 93.15,-43.87 87.08,-47.35"/>
</a>
</g>
</g>
</g>
</svg>
