<?xml version="1.0" encoding="UTF-8" standalone="no"?>
<!DOCTYPE svg PUBLIC "-//W3C//DTD SVG 1.1//EN"
 "http://www.w3.org/Graphics/SVG/1.1/DTD/svg11.dtd">
<!-- Generated by graphviz version 13.1.0 (20250701.0955)
 -->
<!-- Title: AccessibilityValueInterface Pages: 1 -->
<svg width="330pt" height="128pt"
 viewBox="0.00 0.00 330.00 128.00" xmlns="http://www.w3.org/2000/svg" xmlns:xlink="http://www.w3.org/1999/xlink">
<g id="graph0" class="graph" transform="scale(1 1) rotate(0) translate(4 124)">
<title>AccessibilityValueInterface</title>
<!-- Node1 -->
<g id="Node000001" class="node">
<title>Node1</title>
<g id="a_Node000001"><a xlink:title="An abstract interface representing the value of an accessibility element.">
<polygon fill="#999999" stroke="#666666" points="133.75,-64 0,-64 0,-44 133.75,-44 133.75,-64"/>
<text xml:space="preserve" text-anchor="middle" x="66.88" y="-50.5" font-family="Helvetica,sans-Serif" font-size="10.00">AccessibilityValueInterface</text>
</a>
</g>
</g>
<!-- Node2 -->
<g id="Node000002" class="node">
<title>Node2</title>
<g id="a_Node000002"><a xlink:href="classAccessibilityNumericValueInterface.html" target="_top" xlink:title="A value interface that represents a non&#45;ranged numeric value.">
<polygon fill="white" stroke="#666666" points="312.12,-120 179.88,-120 179.88,-88 312.12,-88 312.12,-120"/>
<text xml:space="preserve" text-anchor="start" x="187.88" y="-106.5" font-family="Helvetica,sans-Serif" font-size="10.00">AccessibilityNumericValue</text>
<text xml:space="preserve" text-anchor="middle" x="246" y="-94.5" font-family="Helvetica,sans-Serif" font-size="10.00">Interface</text>
</a>
</g>
</g>
<!-- Node1&#45;&gt;Node2 -->
<g id="edge1_Node000001_Node000002" class="edge">
<title>Node1&#45;&gt;Node2</title>
<g id="a_edge1_Node000001_Node000002"><a xlink:title=" ">
<path fill="none" stroke="#63b8ff" d="M115.99,-67.58C137.79,-73.74 163.75,-81.06 186.65,-87.53"/>
<polygon fill="#63b8ff" stroke="#63b8ff" points="117.04,-64.24 106.46,-64.89 115.14,-70.98 117.04,-64.24"/>
</a>
</g>
</g>
<!-- Node3 -->
<g id="Node000003" class="node">
<title>Node3</title>
<g id="a_Node000003"><a xlink:href="classAccessibilityRangedNumericValueInterface.html" target="_top" xlink:title="A value interface that represents a ranged numeric value.">
<polygon fill="white" stroke="#666666" points="317,-70 175,-70 175,-38 317,-38 317,-70"/>
<text xml:space="preserve" text-anchor="start" x="183" y="-56.5" font-family="Helvetica,sans-Serif" font-size="10.00">AccessibilityRangedNumeric</text>
<text xml:space="preserve" text-anchor="middle" x="246" y="-44.5" font-family="Helvetica,sans-Serif" font-size="10.00">ValueInterface</text>
</a>
</g>
</g>
<!-- Node1&#45;&gt;Node3 -->
<g id="edge2_Node000001_Node000003" class="edge">
<title>Node1&#45;&gt;Node3</title>
<g id="a_edge2_Node000001_Node000003"><a xlink:title=" ">
<path fill="none" stroke="#63b8ff" d="M145.42,-54C155.17,-54 165.1,-54 174.73,-54"/>
<polygon fill="#63b8ff" stroke="#63b8ff" points="145.6,-50.5 135.6,-54 145.6,-57.5 145.6,-50.5"/>
</a>
</g>
</g>
<!-- Node4 -->
<g id="Node000004" class="node">
<title>Node4</title>
<g id="a_Node000004"><a xlink:href="classAccessibilityTextValueInterface.html" target="_top" xlink:title="A value interface that represents a text value.">
<polygon fill="white" stroke="#666666" points="322.25,-20 169.75,-20 169.75,0 322.25,0 322.25,-20"/>
<text xml:space="preserve" text-anchor="middle" x="246" y="-6.5" font-family="Helvetica,sans-Serif" font-size="10.00">AccessibilityTextValueInterface</text>
</a>
</g>
</g>
<!-- Node1&#45;&gt;Node4 -->
<g id="edge3_Node000001_Node000004" class="edge">
<title>Node1&#45;&gt;Node4</title>
<g id="a_edge3_Node000001_Node000004"><a xlink:title=" ">
<path fill="none" stroke="#63b8ff" d="M120.78,-40.86C147.07,-34.33 178.4,-26.54 203.02,-20.43"/>
<polygon fill="#63b8ff" stroke="#63b8ff" points="120.18,-37.4 111.32,-43.21 121.87,-44.19 120.18,-37.4"/>
</a>
</g>
</g>
</g>
</svg>
