<?xml version="1.0" encoding="UTF-8" standalone="no"?>
<!DOCTYPE svg PUBLIC "-//W3C//DTD SVG 1.1//EN"
 "http://www.w3.org/Graphics/SVG/1.1/DTD/svg11.dtd">
<!-- Generated by graphviz version 13.1.0 (20250701.0955)
 -->
<!-- Title: FileChooserDialogBox Pages: 1 -->
<svg width="224pt" height="252pt"
 viewBox="0.00 0.00 224.00 252.00" xmlns="http://www.w3.org/2000/svg" xmlns:xlink="http://www.w3.org/1999/xlink">
<g id="graph0" class="graph" transform="scale(1 1) rotate(0) translate(4 248)">
<title>FileChooserDialogBox</title>
<!-- Node1 -->
<g id="Node000001" class="node">
<title>Node1</title>
<g id="a_Node000001"><a xlink:title="A file open/save dialog box.">
<polygon fill="#999999" stroke="#666666" points="162.12,-20 48.62,-20 48.62,0 162.12,0 162.12,-20"/>
<text xml:space="preserve" text-anchor="middle" x="105.38" y="-6.5" font-family="Helvetica,sans-Serif" font-size="10.00">FileChooserDialogBox</text>
</a>
</g>
</g>
<!-- Node2 -->
<g id="Node000002" class="node">
<title>Node2</title>
<g id="a_Node000002"><a xlink:href="classResizableWindow.html" target="_top" xlink:title="A base class for top&#45;level windows that can be dragged around and resized.">
<polygon fill="white" stroke="#666666" points="94.75,-76 0,-76 0,-56 94.75,-56 94.75,-76"/>
<text xml:space="preserve" text-anchor="middle" x="47.38" y="-62.5" font-family="Helvetica,sans-Serif" font-size="10.00">ResizableWindow</text>
</a>
</g>
</g>
<!-- Node2&#45;&gt;Node1 -->
<g id="edge1_Node000001_Node000002" class="edge">
<title>Node2&#45;&gt;Node1</title>
<g id="a_edge1_Node000001_Node000002"><a xlink:title=" ">
<path fill="none" stroke="#63b8ff" d="M65.8,-47.85C75.6,-38.72 87.27,-27.86 95.39,-20.3"/>
<polygon fill="#63b8ff" stroke="#63b8ff" points="63.52,-45.19 58.59,-54.56 68.29,-50.31 63.52,-45.19"/>
</a>
</g>
</g>
<!-- Node3 -->
<g id="Node000003" class="node">
<title>Node3</title>
<g id="a_Node000003"><a xlink:href="classTopLevelWindow.html" target="_top" xlink:title="A base class for top&#45;level windows.">
<polygon fill="white" stroke="#666666" points="92.5,-132 2.25,-132 2.25,-112 92.5,-112 92.5,-132"/>
<text xml:space="preserve" text-anchor="middle" x="47.38" y="-118.5" font-family="Helvetica,sans-Serif" font-size="10.00">TopLevelWindow</text>
</a>
</g>
</g>
<!-- Node3&#45;&gt;Node2 -->
<g id="edge2_Node000002_Node000003" class="edge">
<title>Node3&#45;&gt;Node2</title>
<g id="a_edge2_Node000002_Node000003"><a xlink:title=" ">
<path fill="none" stroke="#63b8ff" d="M47.38,-100.13C47.38,-91.9 47.38,-82.85 47.38,-76.3"/>
<polygon fill="#63b8ff" stroke="#63b8ff" points="43.88,-100.08 47.38,-110.08 50.88,-100.08 43.88,-100.08"/>
</a>
</g>
</g>
<!-- Node4 -->
<g id="Node000004" class="node">
<title>Node4</title>
<g id="a_Node000004"><a xlink:href="classComponent.html" target="_top" xlink:title="The base class for all JUCE user&#45;interface objects.">
<polygon fill="white" stroke="#666666" points="80.5,-188 14.25,-188 14.25,-168 80.5,-168 80.5,-188"/>
<text xml:space="preserve" text-anchor="middle" x="47.38" y="-174.5" font-family="Helvetica,sans-Serif" font-size="10.00">Component</text>
</a>
</g>
</g>
<!-- Node4&#45;&gt;Node3 -->
<g id="edge3_Node000003_Node000004" class="edge">
<title>Node4&#45;&gt;Node3</title>
<g id="a_edge3_Node000003_Node000004"><a xlink:title=" ">
<path fill="none" stroke="#63b8ff" d="M47.38,-156.13C47.38,-147.9 47.38,-138.85 47.38,-132.3"/>
<polygon fill="#63b8ff" stroke="#63b8ff" points="43.88,-156.08 47.38,-166.08 50.88,-156.08 43.88,-156.08"/>
</a>
</g>
</g>
<!-- Node5 -->
<g id="Node000005" class="node">
<title>Node5</title>
<g id="a_Node000005"><a xlink:href="classMouseListener.html" target="_top" xlink:title="A MouseListener can be registered with a component to receive callbacks about mouse events that happe...">
<polygon fill="white" stroke="#666666" points="87.25,-244 7.5,-244 7.5,-224 87.25,-224 87.25,-244"/>
<text xml:space="preserve" text-anchor="middle" x="47.38" y="-230.5" font-family="Helvetica,sans-Serif" font-size="10.00">MouseListener</text>
</a>
</g>
</g>
<!-- Node5&#45;&gt;Node4 -->
<g id="edge4_Node000004_Node000005" class="edge">
<title>Node5&#45;&gt;Node4</title>
<g id="a_edge4_Node000004_Node000005"><a xlink:title=" ">
<path fill="none" stroke="#63b8ff" d="M47.38,-212.13C47.38,-203.9 47.38,-194.85 47.38,-188.3"/>
<polygon fill="#63b8ff" stroke="#63b8ff" points="43.88,-212.08 47.38,-222.08 50.88,-212.08 43.88,-212.08"/>
</a>
</g>
</g>
<!-- Node6 -->
<g id="Node000006" class="node">
<title>Node6</title>
<g id="a_Node000006"><a xlink:href="classFileBrowserListener.html" target="_top" xlink:title="A listener for user selection events in a file browser.">
<polygon fill="white" stroke="#666666" points="215.5,-76 113.25,-76 113.25,-56 215.5,-56 215.5,-76"/>
<text xml:space="preserve" text-anchor="middle" x="164.38" y="-62.5" font-family="Helvetica,sans-Serif" font-size="10.00">FileBrowserListener</text>
</a>
</g>
</g>
<!-- Node6&#45;&gt;Node1 -->
<g id="edge5_Node000001_Node000006" class="edge">
<title>Node6&#45;&gt;Node1</title>
<g id="a_edge5_Node000001_Node000006"><a xlink:title=" ">
<path fill="none" stroke="#8b1a1a" d="M145.63,-47.85C135.66,-38.72 123.79,-27.86 115.53,-20.3"/>
<polygon fill="#8b1a1a" stroke="#8b1a1a" points="143.24,-50.4 152.98,-54.57 147.97,-45.24 143.24,-50.4"/>
</a>
</g>
</g>
</g>
</svg>
