<?xml version="1.0" encoding="UTF-8" standalone="no"?>
<!DOCTYPE svg PUBLIC "-//W3C//DTD SVG 1.1//EN"
 "http://www.w3.org/Graphics/SVG/1.1/DTD/svg11.dtd">
<!-- Generated by graphviz version 13.1.0 (20250701.0955)
 -->
<!-- Title: ARAPlaybackRegionListener Pages: 1 -->
<svg width="350pt" height="84pt"
 viewBox="0.00 0.00 350.00 84.00" xmlns="http://www.w3.org/2000/svg" xmlns:xlink="http://www.w3.org/1999/xlink">
<g id="graph0" class="graph" transform="scale(1 1) rotate(0) translate(4 80)">
<title>ARAPlaybackRegionListener</title>
<!-- Node1 -->
<g id="Node000001" class="node">
<title>Node1</title>
<g id="a_Node000001"><a xlink:title="A base class for listeners that want to know about changes to an ARAPlaybackRegion object.">
<polygon fill="#999999" stroke="#666666" points="253.75,-76 111,-76 111,-56 253.75,-56 253.75,-76"/>
<text xml:space="preserve" text-anchor="middle" x="182.38" y="-62.5" font-family="Helvetica,sans-Serif" font-size="10.00">ARAPlaybackRegionListener</text>
</a>
</g>
</g>
<!-- Node2 -->
<g id="Node000002" class="node">
<title>Node2</title>
<g id="a_Node000002"><a xlink:href="classARADocumentControllerSpecialisation.html" target="_top" xlink:title="This class contains the customisation points for the JUCE provided ARA document controller implementa...">
<polygon fill="white" stroke="#666666" points="184.75,-20 0,-20 0,0 184.75,0 184.75,-20"/>
<text xml:space="preserve" text-anchor="middle" x="92.38" y="-6.5" font-family="Helvetica,sans-Serif" font-size="10.00">ARADocumentControllerSpecialisation</text>
</a>
</g>
</g>
<!-- Node1&#45;&gt;Node2 -->
<g id="edge1_Node000001_Node000002" class="edge">
<title>Node1&#45;&gt;Node2</title>
<g id="a_edge1_Node000001_Node000002"><a xlink:title=" ">
<path fill="none" stroke="#63b8ff" d="M157.06,-49.81C141.36,-40.39 121.68,-28.58 108.17,-20.48"/>
<polygon fill="#63b8ff" stroke="#63b8ff" points="155.02,-52.67 165.4,-54.82 158.63,-46.67 155.02,-52.67"/>
</a>
</g>
</g>
<!-- Node3 -->
<g id="Node000003" class="node">
<title>Node3</title>
<g id="a_Node000003"><a xlink:href="classARAPlaybackRegionReader.html" target="_top" xlink:title="Subclass of AudioFormatReader that reads samples from a group of playback regions.">
<polygon fill="white" stroke="#666666" points="342.25,-20 202.5,-20 202.5,0 342.25,0 342.25,-20"/>
<text xml:space="preserve" text-anchor="middle" x="272.38" y="-6.5" font-family="Helvetica,sans-Serif" font-size="10.00">ARAPlaybackRegionReader</text>
</a>
</g>
</g>
<!-- Node1&#45;&gt;Node3 -->
<g id="edge2_Node000001_Node000003" class="edge">
<title>Node1&#45;&gt;Node3</title>
<g id="a_edge2_Node000001_Node000003"><a xlink:title=" ">
<path fill="none" stroke="#8b1a1a" d="M207.69,-49.81C223.39,-40.39 243.07,-28.58 256.58,-20.48"/>
<polygon fill="#8b1a1a" stroke="#8b1a1a" points="206.12,-46.67 199.35,-54.82 209.73,-52.67 206.12,-46.67"/>
</a>
</g>
</g>
</g>
</svg>
