<?xml version="1.0" encoding="UTF-8" standalone="no"?>
<!DOCTYPE svg PUBLIC "-//W3C//DTD SVG 1.1//EN"
 "http://www.w3.org/Graphics/SVG/1.1/DTD/svg11.dtd">
<!-- Generated by graphviz version 13.1.0 (20250701.0955)
 -->
<!-- Title: Button::Listener Pages: 1 -->
<svg width="498pt" height="84pt"
 viewBox="0.00 0.00 498.00 84.00" xmlns="http://www.w3.org/2000/svg" xmlns:xlink="http://www.w3.org/1999/xlink">
<g id="graph0" class="graph" transform="scale(1 1) rotate(0) translate(4 80)">
<title>Button::Listener</title>
<!-- Node1 -->
<g id="Node000001" class="node">
<title>Node1</title>
<g id="a_Node000001"><a xlink:title="Used to receive callbacks when a button is clicked.">
<polygon fill="#999999" stroke="#666666" points="291.38,-76 206.38,-76 206.38,-56 291.38,-56 291.38,-76"/>
<text xml:space="preserve" text-anchor="middle" x="248.88" y="-62.5" font-family="Helvetica,sans-Serif" font-size="10.00">Button::Listener</text>
</a>
</g>
</g>
<!-- Node2 -->
<g id="Node000002" class="node">
<title>Node2</title>
<g id="a_Node000002"><a xlink:href="classButtonParameterAttachment.html" target="_top" xlink:title="An object of this class maintains a connection between a Button and a plug&#45;in parameter.">
<polygon fill="white" stroke="#666666" points="139.75,-20 0,-20 0,0 139.75,0 139.75,-20"/>
<text xml:space="preserve" text-anchor="middle" x="69.88" y="-6.5" font-family="Helvetica,sans-Serif" font-size="10.00">ButtonParameterAttachment</text>
</a>
</g>
</g>
<!-- Node1&#45;&gt;Node2 -->
<g id="edge1_Node000001_Node000002" class="edge">
<title>Node1&#45;&gt;Node2</title>
<g id="a_edge1_Node000001_Node000002"><a xlink:title=" ">
<path fill="none" stroke="#8b1a1a" d="M206.79,-52.31C174.49,-42.56 130.59,-29.32 101.3,-20.48"/>
<polygon fill="#8b1a1a" stroke="#8b1a1a" points="205.66,-55.62 216.25,-55.16 207.68,-48.92 205.66,-55.62"/>
</a>
</g>
</g>
<!-- Node3 -->
<g id="Node000003" class="node">
<title>Node3</title>
<g id="a_Node000003"><a xlink:href="classButtonTracker.html" target="_top" xlink:title="A class that automatically sends analytics events to the Analytics singleton when a button is clicked...">
<polygon fill="white" stroke="#666666" points="235.62,-20 158.12,-20 158.12,0 235.62,0 235.62,-20"/>
<text xml:space="preserve" text-anchor="middle" x="196.88" y="-6.5" font-family="Helvetica,sans-Serif" font-size="10.00">ButtonTracker</text>
</a>
</g>
</g>
<!-- Node1&#45;&gt;Node3 -->
<g id="edge2_Node000001_Node000003" class="edge">
<title>Node1&#45;&gt;Node3</title>
<g id="a_edge2_Node000001_Node000003"><a xlink:title=" ">
<path fill="none" stroke="#8b1a1a" d="M232.09,-47.57C223.36,-38.5 213.03,-27.78 205.83,-20.3"/>
<polygon fill="#8b1a1a" stroke="#8b1a1a" points="229.31,-49.73 238.77,-54.5 234.35,-44.87 229.31,-49.73"/>
</a>
</g>
</g>
<!-- Node4 -->
<g id="Node000004" class="node">
<title>Node4</title>
<g id="a_Node000004"><a xlink:href="classOnlineUnlockForm.html" target="_top" xlink:title="Acts as a GUI which asks the user for their details, and calls the appropriate methods on your Online...">
<polygon fill="white" stroke="#666666" points="350.38,-20 253.38,-20 253.38,0 350.38,0 350.38,-20"/>
<text xml:space="preserve" text-anchor="middle" x="301.88" y="-6.5" font-family="Helvetica,sans-Serif" font-size="10.00">OnlineUnlockForm</text>
</a>
</g>
</g>
<!-- Node1&#45;&gt;Node4 -->
<g id="edge3_Node000001_Node000004" class="edge">
<title>Node1&#45;&gt;Node4</title>
<g id="a_edge3_Node000001_Node000004"><a xlink:title=" ">
<path fill="none" stroke="#8b1a1a" d="M265.99,-47.57C274.89,-38.5 285.41,-27.78 292.75,-20.3"/>
<polygon fill="#8b1a1a" stroke="#8b1a1a" points="263.67,-44.93 259.17,-54.51 268.67,-49.83 263.67,-44.93"/>
</a>
</g>
</g>
<!-- Node5 -->
<g id="Node000005" class="node">
<title>Node5</title>
<g id="a_Node000005"><a xlink:href="classStandaloneFilterWindow.html" target="_top" xlink:title="A class that can be used to run a simple standalone application containing your filter.">
<polygon fill="white" stroke="#666666" points="489.75,-20 368,-20 368,0 489.75,0 489.75,-20"/>
<text xml:space="preserve" text-anchor="middle" x="428.88" y="-6.5" font-family="Helvetica,sans-Serif" font-size="10.00">StandaloneFilterWindow</text>
</a>
</g>
</g>
<!-- Node1&#45;&gt;Node5 -->
<g id="edge4_Node000001_Node000005" class="edge">
<title>Node1&#45;&gt;Node5</title>
<g id="a_edge4_Node000001_Node000005"><a xlink:title=" ">
<path fill="none" stroke="#8b1a1a" d="M291.19,-52.31C323.68,-42.56 367.82,-29.32 397.28,-20.48"/>
<polygon fill="#8b1a1a" stroke="#8b1a1a" points="290.25,-48.93 281.68,-55.16 292.26,-55.64 290.25,-48.93"/>
</a>
</g>
</g>
</g>
</svg>
