<?xml version="1.0" encoding="UTF-8" standalone="no"?>
<!DOCTYPE svg PUBLIC "-//W3C//DTD SVG 1.1//EN"
 "http://www.w3.org/Graphics/SVG/1.1/DTD/svg11.dtd">
<!-- Generated by graphviz version 13.1.0 (20250701.0955)
 -->
<!-- Title: ListBox Pages: 1 -->
<svg width="213pt" height="196pt"
 viewBox="0.00 0.00 213.00 196.00" xmlns="http://www.w3.org/2000/svg" xmlns:xlink="http://www.w3.org/1999/xlink">
<g id="graph0" class="graph" transform="scale(1 1) rotate(0) translate(4 192)">
<title>ListBox</title>
<!-- Node1 -->
<g id="Node000001" class="node">
<title>Node1</title>
<g id="a_Node000001"><a xlink:title="A list of items that can be scrolled vertically.">
<polygon fill="#999999" stroke="#666666" points="124.38,-76 75.38,-76 75.38,-56 124.38,-56 124.38,-76"/>
<text xml:space="preserve" text-anchor="middle" x="99.88" y="-62.5" font-family="Helvetica,sans-Serif" font-size="10.00">ListBox</text>
</a>
</g>
</g>
<!-- Node6 -->
<g id="Node000006" class="node">
<title>Node6</title>
<g id="a_Node000006"><a xlink:href="classFileListComponent.html" target="_top" xlink:title="A component that displays the files in a directory as a listbox.">
<polygon fill="white" stroke="#666666" points="97.75,-20 0,-20 0,0 97.75,0 97.75,-20"/>
<text xml:space="preserve" text-anchor="middle" x="48.88" y="-6.5" font-family="Helvetica,sans-Serif" font-size="10.00">FileListComponent</text>
</a>
</g>
</g>
<!-- Node1&#45;&gt;Node6 -->
<g id="edge5_Node000001_Node000006" class="edge">
<title>Node1&#45;&gt;Node6</title>
<g id="a_edge5_Node000001_Node000006"><a xlink:title=" ">
<path fill="none" stroke="#63b8ff" d="M83.14,-47.29C74.64,-38.28 64.65,-27.7 57.66,-20.3"/>
<polygon fill="#63b8ff" stroke="#63b8ff" points="80.54,-49.63 89.95,-54.49 85.63,-44.82 80.54,-49.63"/>
</a>
</g>
</g>
<!-- Node7 -->
<g id="Node000007" class="node">
<title>Node7</title>
<g id="a_Node000007"><a xlink:href="classTableListBox.html" target="_top" xlink:title="A table of cells, using a TableHeaderComponent as its header.">
<polygon fill="white" stroke="#666666" points="188,-20 115.75,-20 115.75,0 188,0 188,-20"/>
<text xml:space="preserve" text-anchor="middle" x="151.88" y="-6.5" font-family="Helvetica,sans-Serif" font-size="10.00">TableListBox</text>
</a>
</g>
</g>
<!-- Node1&#45;&gt;Node7 -->
<g id="edge6_Node000001_Node000007" class="edge">
<title>Node1&#45;&gt;Node7</title>
<g id="a_edge6_Node000001_Node000007"><a xlink:title=" ">
<path fill="none" stroke="#63b8ff" d="M116.66,-47.57C125.39,-38.5 135.72,-27.78 142.92,-20.3"/>
<polygon fill="#63b8ff" stroke="#63b8ff" points="114.4,-44.87 109.98,-54.5 119.44,-49.73 114.4,-44.87"/>
</a>
</g>
</g>
<!-- Node2 -->
<g id="Node000002" class="node">
<title>Node2</title>
<g id="a_Node000002"><a xlink:href="classComponent.html" target="_top" xlink:title="The base class for all JUCE user&#45;interface objects.">
<polygon fill="white" stroke="#666666" points="81,-132 14.75,-132 14.75,-112 81,-112 81,-132"/>
<text xml:space="preserve" text-anchor="middle" x="47.88" y="-118.5" font-family="Helvetica,sans-Serif" font-size="10.00">Component</text>
</a>
</g>
</g>
<!-- Node2&#45;&gt;Node1 -->
<g id="edge1_Node000001_Node000002" class="edge">
<title>Node2&#45;&gt;Node1</title>
<g id="a_edge1_Node000001_Node000002"><a xlink:title=" ">
<path fill="none" stroke="#63b8ff" d="M64.66,-103.57C73.39,-94.5 83.72,-83.78 90.92,-76.3"/>
<polygon fill="#63b8ff" stroke="#63b8ff" points="62.4,-100.87 57.98,-110.5 67.44,-105.73 62.4,-100.87"/>
</a>
</g>
</g>
<!-- Node3 -->
<g id="Node000003" class="node">
<title>Node3</title>
<g id="a_Node000003"><a xlink:href="classMouseListener.html" target="_top" xlink:title="A MouseListener can be registered with a component to receive callbacks about mouse events that happe...">
<polygon fill="white" stroke="#666666" points="87.75,-188 8,-188 8,-168 87.75,-168 87.75,-188"/>
<text xml:space="preserve" text-anchor="middle" x="47.88" y="-174.5" font-family="Helvetica,sans-Serif" font-size="10.00">MouseListener</text>
</a>
</g>
</g>
<!-- Node3&#45;&gt;Node2 -->
<g id="edge2_Node000002_Node000003" class="edge">
<title>Node3&#45;&gt;Node2</title>
<g id="a_edge2_Node000002_Node000003"><a xlink:title=" ">
<path fill="none" stroke="#63b8ff" d="M47.88,-156.13C47.88,-147.9 47.88,-138.85 47.88,-132.3"/>
<polygon fill="#63b8ff" stroke="#63b8ff" points="44.38,-156.08 47.88,-166.08 51.38,-156.08 44.38,-156.08"/>
</a>
</g>
</g>
<!-- Node4 -->
<g id="Node000004" class="node">
<title>Node4</title>
<g id="a_Node000004"><a xlink:href="classSettableTooltipClient.html" target="_top" xlink:title="An implementation of TooltipClient that stores the tooltip string and a method for changing it.">
<polygon fill="white" stroke="#666666" points="204.88,-132 98.88,-132 98.88,-112 204.88,-112 204.88,-132"/>
<text xml:space="preserve" text-anchor="middle" x="151.88" y="-118.5" font-family="Helvetica,sans-Serif" font-size="10.00">SettableTooltipClient</text>
</a>
</g>
</g>
<!-- Node4&#45;&gt;Node1 -->
<g id="edge3_Node000001_Node000004" class="edge">
<title>Node4&#45;&gt;Node1</title>
<g id="a_edge3_Node000001_Node000004"><a xlink:title=" ">
<path fill="none" stroke="#63b8ff" d="M135.09,-103.57C126.36,-94.5 116.03,-83.78 108.83,-76.3"/>
<polygon fill="#63b8ff" stroke="#63b8ff" points="132.31,-105.73 141.77,-110.5 137.35,-100.87 132.31,-105.73"/>
</a>
</g>
</g>
<!-- Node5 -->
<g id="Node000005" class="node">
<title>Node5</title>
<g id="a_Node000005"><a xlink:href="classTooltipClient.html" target="_top" xlink:title="Components that want to use pop&#45;up tooltips should implement this interface.">
<polygon fill="white" stroke="#666666" points="186.88,-188 116.88,-188 116.88,-168 186.88,-168 186.88,-188"/>
<text xml:space="preserve" text-anchor="middle" x="151.88" y="-174.5" font-family="Helvetica,sans-Serif" font-size="10.00">TooltipClient</text>
</a>
</g>
</g>
<!-- Node5&#45;&gt;Node4 -->
<g id="edge4_Node000004_Node000005" class="edge">
<title>Node5&#45;&gt;Node4</title>
<g id="a_edge4_Node000004_Node000005"><a xlink:title=" ">
<path fill="none" stroke="#63b8ff" d="M151.88,-156.13C151.88,-147.9 151.88,-138.85 151.88,-132.3"/>
<polygon fill="#63b8ff" stroke="#63b8ff" points="148.38,-156.08 151.88,-166.08 155.38,-156.08 148.38,-156.08"/>
</a>
</g>
</g>
</g>
</svg>
