<?xml version="1.0" encoding="UTF-8" standalone="no"?>
<!DOCTYPE svg PUBLIC "-//W3C//DTD SVG 1.1//EN"
 "http://www.w3.org/Graphics/SVG/1.1/DTD/svg11.dtd">
<!-- Generated by graphviz version 13.1.0 (20250701.0955)
 -->
<!-- Title: ComponentListener Pages: 1 -->
<svg width="475pt" height="332pt"
 viewBox="0.00 0.00 475.00 332.00" xmlns="http://www.w3.org/2000/svg" xmlns:xlink="http://www.w3.org/1999/xlink">
<g id="graph0" class="graph" transform="scale(1 1) rotate(0) translate(4 328)">
<title>ComponentListener</title>
<!-- Node1 -->
<g id="Node000001" class="node">
<title>Node1</title>
<g id="a_Node000001"><a xlink:title="Gets informed about changes to a component&#39;s hierarchy or position.">
<polygon fill="#999999" stroke="#666666" points="100.75,-172 0,-172 0,-152 100.75,-152 100.75,-172"/>
<text xml:space="preserve" text-anchor="middle" x="50.38" y="-158.5" font-family="Helvetica,sans-Serif" font-size="10.00">ComponentListener</text>
</a>
</g>
</g>
<!-- Node2 -->
<g id="Node000002" class="node">
<title>Node2</title>
<g id="a_Node000002"><a xlink:href="classComponentMovementWatcher.html" target="_top" xlink:title="An object that watches for any movement of a component or any of its parent components.">
<polygon fill="white" stroke="#666666" points="293.38,-324 145.38,-324 145.38,-304 293.38,-304 293.38,-324"/>
<text xml:space="preserve" text-anchor="middle" x="219.38" y="-310.5" font-family="Helvetica,sans-Serif" font-size="10.00">ComponentMovementWatcher</text>
</a>
</g>
</g>
<!-- Node1&#45;&gt;Node2 -->
<g id="edge1_Node000001_Node000002" class="edge">
<title>Node1&#45;&gt;Node2</title>
<g id="a_edge1_Node000001_Node000002"><a xlink:title=" ">
<path fill="none" stroke="#63b8ff" d="M58.79,-182.63C70.55,-212.29 96.37,-266.51 136.75,-295 141.62,-298.44 147.03,-301.26 152.67,-303.58"/>
<polygon fill="#63b8ff" stroke="#63b8ff" points="62.21,-181.76 55.39,-173.65 55.66,-184.25 62.21,-181.76"/>
</a>
</g>
</g>
<!-- Node4 -->
<g id="Node000004" class="node">
<title>Node4</title>
<g id="a_Node000004"><a xlink:href="classDropShadower.html" target="_top" xlink:title="Adds a drop&#45;shadow to a component.">
<polygon fill="white" stroke="#666666" points="259.62,-286 179.12,-286 179.12,-266 259.62,-266 259.62,-286"/>
<text xml:space="preserve" text-anchor="middle" x="219.38" y="-272.5" font-family="Helvetica,sans-Serif" font-size="10.00">DropShadower</text>
</a>
</g>
</g>
<!-- Node1&#45;&gt;Node4 -->
<g id="edge3_Node000001_Node000004" class="edge">
<title>Node1&#45;&gt;Node4</title>
<g id="a_edge3_Node000001_Node000004"><a xlink:title=" ">
<path fill="none" stroke="#8b1a1a" d="M63.9,-182.08C78.61,-203.95 105.09,-238.29 136.75,-257 149.4,-264.48 164.78,-269.01 178.75,-271.76"/>
<polygon fill="#8b1a1a" stroke="#8b1a1a" points="66.86,-180.21 58.47,-173.74 60.99,-184.03 66.86,-180.21"/>
</a>
</g>
</g>
<!-- Node5 -->
<g id="Node000005" class="node">
<title>Node5</title>
<g id="a_Node000005"><a xlink:href="classFocusOutline.html" target="_top" xlink:title="Adds a focus outline to a component.">
<polygon fill="white" stroke="#666666" points="256.25,-248 182.5,-248 182.5,-228 256.25,-228 256.25,-248"/>
<text xml:space="preserve" text-anchor="middle" x="219.38" y="-234.5" font-family="Helvetica,sans-Serif" font-size="10.00">FocusOutline</text>
</a>
</g>
</g>
<!-- Node1&#45;&gt;Node5 -->
<g id="edge4_Node000001_Node000005" class="edge">
<title>Node1&#45;&gt;Node5</title>
<g id="a_edge4_Node000001_Node000005"><a xlink:title=" ">
<path fill="none" stroke="#8b1a1a" d="M72.65,-179.39C89.2,-192.09 113.24,-208.82 136.75,-219 151.04,-225.19 167.64,-229.52 182.13,-232.47"/>
<polygon fill="#8b1a1a" stroke="#8b1a1a" points="75.05,-176.82 65.02,-173.38 70.72,-182.32 75.05,-176.82"/>
</a>
</g>
</g>
<!-- Node6 -->
<g id="Node000006" class="node">
<title>Node6</title>
<g id="a_Node000006"><a xlink:href="classLabel.html" target="_top" xlink:title="A component that displays a text string, and can optionally become a text editor when clicked.">
<polygon fill="white" stroke="#666666" points="239,-210 199.75,-210 199.75,-190 239,-190 239,-210"/>
<text xml:space="preserve" text-anchor="middle" x="219.38" y="-196.5" font-family="Helvetica,sans-Serif" font-size="10.00">Label</text>
</a>
</g>
</g>
<!-- Node1&#45;&gt;Node6 -->
<g id="edge5_Node000001_Node000006" class="edge">
<title>Node1&#45;&gt;Node6</title>
<g id="a_edge5_Node000001_Node000006"><a xlink:title=" ">
<path fill="none" stroke="#8b1a1a" d="M108.39,-174.97C140.07,-182.18 177.43,-190.68 199.44,-195.69"/>
<polygon fill="#8b1a1a" stroke="#8b1a1a" points="109.45,-171.63 98.93,-172.82 107.9,-178.45 109.45,-171.63"/>
</a>
</g>
</g>
<!-- Node7 -->
<g id="Node000007" class="node">
<title>Node7</title>
<g id="a_Node000007"><a xlink:href="classMultiDocumentPanel.html" target="_top" xlink:title="A component that contains a set of other components either in floating windows or tabs.">
<polygon fill="white" stroke="#666666" points="272.75,-172 166,-172 166,-152 272.75,-152 272.75,-172"/>
<text xml:space="preserve" text-anchor="middle" x="219.38" y="-158.5" font-family="Helvetica,sans-Serif" font-size="10.00">MultiDocumentPanel</text>
</a>
</g>
</g>
<!-- Node1&#45;&gt;Node7 -->
<g id="edge6_Node000001_Node000007" class="edge">
<title>Node1&#45;&gt;Node7</title>
<g id="a_edge6_Node000001_Node000007"><a xlink:title=" ">
<path fill="none" stroke="#8b1a1a" d="M112.29,-162C129.81,-162 148.75,-162 165.72,-162"/>
<polygon fill="#8b1a1a" stroke="#8b1a1a" points="112.54,-158.5 102.54,-162 112.54,-165.5 112.54,-158.5"/>
</a>
</g>
</g>
<!-- Node8 -->
<g id="Node000008" class="node">
<title>Node8</title>
<g id="a_Node000008"><a xlink:href="classRelativeCoordinatePositionerBase.html" target="_top" xlink:title="Base class for Component::Positioners that are based upon relative coordinates.">
<polygon fill="white" stroke="#666666" points="302,-134 136.75,-134 136.75,-114 302,-114 302,-134"/>
<text xml:space="preserve" text-anchor="middle" x="219.38" y="-120.5" font-family="Helvetica,sans-Serif" font-size="10.00">RelativeCoordinatePositionerBase</text>
</a>
</g>
</g>
<!-- Node1&#45;&gt;Node8 -->
<g id="edge7_Node000001_Node000008" class="edge">
<title>Node1&#45;&gt;Node8</title>
<g id="a_edge7_Node000001_Node000008"><a xlink:title=" ">
<path fill="none" stroke="#63b8ff" d="M108.44,-149.02C129.32,-144.26 152.66,-138.95 172.45,-134.45"/>
<polygon fill="#63b8ff" stroke="#63b8ff" points="107.9,-145.55 98.93,-151.18 109.45,-152.37 107.9,-145.55"/>
</a>
</g>
</g>
<!-- Node9 -->
<g id="Node000009" class="node">
<title>Node9</title>
<g id="a_Node000009"><a xlink:href="classSidePanel.html" target="_top" xlink:title="A component that is positioned on either the left&#45; or right&#45;hand side of its parent,...">
<polygon fill="white" stroke="#666666" points="249.5,-96 189.25,-96 189.25,-76 249.5,-76 249.5,-96"/>
<text xml:space="preserve" text-anchor="middle" x="219.38" y="-82.5" font-family="Helvetica,sans-Serif" font-size="10.00">SidePanel</text>
</a>
</g>
</g>
<!-- Node1&#45;&gt;Node9 -->
<g id="edge8_Node000001_Node000009" class="edge">
<title>Node1&#45;&gt;Node9</title>
<g id="a_edge8_Node000001_Node000009"><a xlink:title=" ">
<path fill="none" stroke="#8b1a1a" d="M72.65,-144.61C89.2,-131.91 113.24,-115.18 136.75,-105 153.31,-97.83 172.97,-93.15 188.86,-90.23"/>
<polygon fill="#8b1a1a" stroke="#8b1a1a" points="70.72,-141.68 65.02,-150.62 75.05,-147.18 70.72,-141.68"/>
</a>
</g>
</g>
<!-- Node10 -->
<g id="Node000010" class="node">
<title>Node10</title>
<g id="a_Node000010"><a xlink:href="classVBlankAttachment.html" target="_top" xlink:title="Helper class to synchronise Component updates to the vertical blank event of the display that the Com...">
<polygon fill="white" stroke="#666666" points="268.25,-58 170.5,-58 170.5,-38 268.25,-38 268.25,-58"/>
<text xml:space="preserve" text-anchor="middle" x="219.38" y="-44.5" font-family="Helvetica,sans-Serif" font-size="10.00">VBlankAttachment</text>
</a>
</g>
</g>
<!-- Node1&#45;&gt;Node10 -->
<g id="edge9_Node000001_Node000010" class="edge">
<title>Node1&#45;&gt;Node10</title>
<g id="a_edge9_Node000001_Node000010"><a xlink:title=" ">
<path fill="none" stroke="#8b1a1a" d="M63.9,-141.92C78.61,-120.05 105.09,-85.71 136.75,-67 146.9,-61 158.79,-56.9 170.32,-54.09"/>
<polygon fill="#8b1a1a" stroke="#8b1a1a" points="60.99,-139.97 58.47,-150.26 66.86,-143.79 60.99,-139.97"/>
</a>
</g>
</g>
<!-- Node11 -->
<g id="Node000011" class="node">
<title>Node11</title>
<g id="a_Node000011"><a xlink:href="classViewport.html" target="_top" xlink:title="A Viewport is used to contain a larger child component, and allows the child to be automatically scro...">
<polygon fill="white" stroke="#666666" points="246.5,-20 192.25,-20 192.25,0 246.5,0 246.5,-20"/>
<text xml:space="preserve" text-anchor="middle" x="219.38" y="-6.5" font-family="Helvetica,sans-Serif" font-size="10.00">Viewport</text>
</a>
</g>
</g>
<!-- Node1&#45;&gt;Node11 -->
<g id="edge10_Node000001_Node000011" class="edge">
<title>Node1&#45;&gt;Node11</title>
<g id="a_edge10_Node000001_Node000011"><a xlink:title=" ">
<path fill="none" stroke="#8b1a1a" d="M58.79,-141.37C70.55,-111.71 96.37,-57.49 136.75,-29 152.92,-17.59 174.95,-12.94 192.04,-11.09"/>
<polygon fill="#8b1a1a" stroke="#8b1a1a" points="55.66,-139.75 55.39,-150.35 62.21,-142.24 55.66,-139.75"/>
</a>
</g>
</g>
<!-- Node3 -->
<g id="Node000003" class="node">
<title>Node3</title>
<g id="a_Node000003"><a xlink:href="classNativeScaleFactorNotifier.html" target="_top" xlink:title="Calls a function every time the native scale factor of a component&#39;s peer changes.">
<polygon fill="white" stroke="#666666" points="466.5,-324 338,-324 338,-304 466.5,-304 466.5,-324"/>
<text xml:space="preserve" text-anchor="middle" x="402.25" y="-310.5" font-family="Helvetica,sans-Serif" font-size="10.00">NativeScaleFactorNotifier</text>
</a>
</g>
</g>
<!-- Node2&#45;&gt;Node3 -->
<g id="edge2_Node000002_Node000003" class="edge">
<title>Node2&#45;&gt;Node3</title>
<g id="a_edge2_Node000002_Node000003"><a xlink:title=" ">
<path fill="none" stroke="#8b1a1a" d="M305.06,-314C316.05,-314 327.15,-314 337.71,-314"/>
<polygon fill="#8b1a1a" stroke="#8b1a1a" points="305.2,-310.5 295.2,-314 305.2,-317.5 305.2,-310.5"/>
</a>
</g>
</g>
</g>
</svg>
