<?xml version="1.0" encoding="UTF-8" standalone="no"?>
<!DOCTYPE svg PUBLIC "-//W3C//DTD SVG 1.1//EN"
 "http://www.w3.org/Graphics/SVG/1.1/DTD/svg11.dtd">
<!-- Generated by graphviz version 13.1.0 (20250701.0955)
 -->
<!-- Title: juce::midi_ci::ResponderDelegate Pages: 1 -->
<svg width="286pt" height="96pt"
 viewBox="0.00 0.00 286.00 96.00" xmlns="http://www.w3.org/2000/svg" xmlns:xlink="http://www.w3.org/1999/xlink">
<g id="graph0" class="graph" transform="scale(1 1) rotate(0) translate(4 92)">
<title>juce::midi_ci::ResponderDelegate</title>
<!-- Node1 -->
<g id="Node000001" class="node">
<title>Node1</title>
<g id="a_Node000001"><a xlink:title="An interface for types that implement responses for certain message types.">
<polygon fill="#999999" stroke="#666666" points="198.75,-88 74.75,-88 74.75,-56 198.75,-56 198.75,-88"/>
<text xml:space="preserve" text-anchor="start" x="82.75" y="-74.5" font-family="Helvetica,sans-Serif" font-size="10.00">juce::midi_ci::Responder</text>
<text xml:space="preserve" text-anchor="middle" x="136.75" y="-62.5" font-family="Helvetica,sans-Serif" font-size="10.00">Delegate</text>
</a>
</g>
</g>
<!-- Node2 -->
<g id="Node000002" class="node">
<title>Node2</title>
<g id="a_Node000002"><a xlink:href="classjuce_1_1midi__ci_1_1ProfileHost.html" target="_top" xlink:title="Acting as a ResponderListener, instances of this class can formulate appropriate replies to profile t...">
<polygon fill="white" stroke="#666666" points="125.5,-20 0,-20 0,0 125.5,0 125.5,-20"/>
<text xml:space="preserve" text-anchor="middle" x="62.75" y="-6.5" font-family="Helvetica,sans-Serif" font-size="10.00">juce::midi_ci::ProfileHost</text>
</a>
</g>
</g>
<!-- Node1&#45;&gt;Node2 -->
<g id="edge1_Node000001_Node000002" class="edge">
<title>Node1&#45;&gt;Node2</title>
<g id="a_edge1_Node000001_Node000002"><a xlink:title=" ">
<path fill="none" stroke="#63b8ff" d="M108.9,-48.42C96.93,-38.71 83.6,-27.9 74.35,-20.41"/>
<polygon fill="#63b8ff" stroke="#63b8ff" points="106.55,-51.02 116.52,-54.6 110.95,-45.58 106.55,-51.02"/>
</a>
</g>
</g>
<!-- Node3 -->
<g id="Node000003" class="node">
<title>Node3</title>
<g id="a_Node000003"><a xlink:href="classjuce_1_1midi__ci_1_1PropertyHost.html" target="_top" xlink:title="Acting as a ResponderListener, instances of this class can formulate appropriate replies to property ...">
<polygon fill="white" stroke="#666666" points="278,-20 143.5,-20 143.5,0 278,0 278,-20"/>
<text xml:space="preserve" text-anchor="middle" x="210.75" y="-6.5" font-family="Helvetica,sans-Serif" font-size="10.00">juce::midi_ci::PropertyHost</text>
</a>
</g>
</g>
<!-- Node1&#45;&gt;Node3 -->
<g id="edge2_Node000001_Node000003" class="edge">
<title>Node1&#45;&gt;Node3</title>
<g id="a_edge2_Node000001_Node000003"><a xlink:title=" ">
<path fill="none" stroke="#63b8ff" d="M164.6,-48.42C176.57,-38.71 189.9,-27.9 199.15,-20.41"/>
<polygon fill="#63b8ff" stroke="#63b8ff" points="162.55,-45.58 156.98,-54.6 166.95,-51.02 162.55,-45.58"/>
</a>
</g>
</g>
</g>
</svg>
