<?xml version="1.0" encoding="UTF-8" standalone="no"?>
<!DOCTYPE svg PUBLIC "-//W3C//DTD SVG 1.1//EN"
 "http://www.w3.org/Graphics/SVG/1.1/DTD/svg11.dtd">
<!-- Generated by graphviz version 13.1.0 (20250701.0955)
 -->
<!-- Title: Value::ValueSource Pages: 1 -->
<svg width="230pt" height="84pt"
 viewBox="0.00 0.00 230.00 84.00" xmlns="http://www.w3.org/2000/svg" xmlns:xlink="http://www.w3.org/1999/xlink">
<g id="graph0" class="graph" transform="scale(1 1) rotate(0) translate(4 80)">
<title>Value::ValueSource</title>
<!-- Node1 -->
<g id="Node000001" class="node">
<title>Node1</title>
<g id="a_Node000001"><a xlink:title="Used internally by the Value class as the base class for its shared value objects.">
<polygon fill="#999999" stroke="#666666" points="173.5,-20 72.75,-20 72.75,0 173.5,0 173.5,-20"/>
<text xml:space="preserve" text-anchor="middle" x="123.12" y="-6.5" font-family="Helvetica,sans-Serif" font-size="10.00">Value::ValueSource</text>
</a>
</g>
</g>
<!-- Node2 -->
<g id="Node000002" class="node">
<title>Node2</title>
<g id="a_Node000002"><a xlink:href="classReferenceCountedObject.html" target="_top" xlink:title="A base class which provides methods for reference&#45;counting.">
<polygon fill="white" stroke="#666666" points="126.25,-76 0,-76 0,-56 126.25,-56 126.25,-76"/>
<text xml:space="preserve" text-anchor="middle" x="63.12" y="-62.5" font-family="Helvetica,sans-Serif" font-size="10.00">ReferenceCountedObject</text>
</a>
</g>
</g>
<!-- Node2&#45;&gt;Node1 -->
<g id="edge1_Node000001_Node000002" class="edge">
<title>Node2&#45;&gt;Node1</title>
<g id="a_edge1_Node000001_Node000002"><a xlink:title=" ">
<path fill="none" stroke="#63b8ff" d="M81.87,-48.13C92.08,-38.94 104.31,-27.93 112.79,-20.3"/>
<polygon fill="#63b8ff" stroke="#63b8ff" points="79.79,-45.29 74.7,-54.58 84.48,-50.49 79.79,-45.29"/>
</a>
</g>
</g>
<!-- Node3 -->
<g id="Node000003" class="node">
<title>Node3</title>
<g id="a_Node000003"><a xlink:href="classAsyncUpdater.html" target="_top" xlink:title="Has a callback method that is triggered asynchronously.">
<polygon fill="white" stroke="#666666" points="222.25,-76 144,-76 144,-56 222.25,-56 222.25,-76"/>
<text xml:space="preserve" text-anchor="middle" x="183.12" y="-62.5" font-family="Helvetica,sans-Serif" font-size="10.00">AsyncUpdater</text>
</a>
</g>
</g>
<!-- Node3&#45;&gt;Node1 -->
<g id="edge2_Node000001_Node000003" class="edge">
<title>Node3&#45;&gt;Node1</title>
<g id="a_edge2_Node000001_Node000003"><a xlink:title=" ">
<path fill="none" stroke="#8b1a1a" d="M164.38,-48.13C154.17,-38.94 141.94,-27.93 133.46,-20.3"/>
<polygon fill="#8b1a1a" stroke="#8b1a1a" points="161.77,-50.49 171.55,-54.58 166.46,-45.29 161.77,-50.49"/>
</a>
</g>
</g>
</g>
</svg>
