<?xml version="1.0" encoding="UTF-8" standalone="no"?>
<!DOCTYPE svg PUBLIC "-//W3C//DTD SVG 1.1//EN"
 "http://www.w3.org/Graphics/SVG/1.1/DTD/svg11.dtd">
<!-- Generated by graphviz version 13.1.0 (20250701.0955)
 -->
<!-- Title: ChangeListener Pages: 1 -->
<svg width="487pt" height="84pt"
 viewBox="0.00 0.00 487.00 84.00" xmlns="http://www.w3.org/2000/svg" xmlns:xlink="http://www.w3.org/1999/xlink">
<g id="graph0" class="graph" transform="scale(1 1) rotate(0) translate(4 80)">
<title>ChangeListener</title>
<!-- Node1 -->
<g id="Node000001" class="node">
<title>Node1</title>
<g id="a_Node000001"><a xlink:title="Receives change event callbacks that are sent out by a ChangeBroadcaster.">
<polygon fill="#999999" stroke="#666666" points="327,-76 242.75,-76 242.75,-56 327,-56 327,-76"/>
<text xml:space="preserve" text-anchor="middle" x="284.88" y="-62.5" font-family="Helvetica,sans-Serif" font-size="10.00">ChangeListener</text>
</a>
</g>
</g>
<!-- Node2 -->
<g id="Node000002" class="node">
<title>Node2</title>
<g id="a_Node000002"><a xlink:href="classAudioDeviceSelectorComponent.html" target="_top" xlink:title="A component containing controls to let the user change the audio settings of an AudioDeviceManager ob...">
<polygon fill="white" stroke="#666666" points="157.75,-20 0,-20 0,0 157.75,0 157.75,-20"/>
<text xml:space="preserve" text-anchor="middle" x="78.88" y="-6.5" font-family="Helvetica,sans-Serif" font-size="10.00">AudioDeviceSelectorComponent</text>
</a>
</g>
</g>
<!-- Node1&#45;&gt;Node2 -->
<g id="edge1_Node000001_Node000002" class="edge">
<title>Node1&#45;&gt;Node2</title>
<g id="a_edge1_Node000001_Node000002"><a xlink:title=" ">
<path fill="none" stroke="#8b1a1a" d="M237.9,-52.69C200.59,-42.91 149.19,-29.43 115.04,-20.48"/>
<polygon fill="#8b1a1a" stroke="#8b1a1a" points="236.97,-56.06 247.53,-55.21 238.74,-49.29 236.97,-56.06"/>
</a>
</g>
</g>
<!-- Node3 -->
<g id="Node000003" class="node">
<title>Node3</title>
<g id="a_Node000003"><a xlink:href="classFileListComponent.html" target="_top" xlink:title="A component that displays the files in a directory as a listbox.">
<polygon fill="white" stroke="#666666" points="273.75,-20 176,-20 176,0 273.75,0 273.75,-20"/>
<text xml:space="preserve" text-anchor="middle" x="224.88" y="-6.5" font-family="Helvetica,sans-Serif" font-size="10.00">FileListComponent</text>
</a>
</g>
</g>
<!-- Node1&#45;&gt;Node3 -->
<g id="edge2_Node000001_Node000003" class="edge">
<title>Node1&#45;&gt;Node3</title>
<g id="a_edge2_Node000001_Node000003"><a xlink:title=" ">
<path fill="none" stroke="#8b1a1a" d="M266.13,-48.13C255.92,-38.94 243.69,-27.93 235.21,-20.3"/>
<polygon fill="#8b1a1a" stroke="#8b1a1a" points="263.52,-50.49 273.3,-54.58 268.21,-45.29 263.52,-50.49"/>
</a>
</g>
</g>
<!-- Node4 -->
<g id="Node000004" class="node">
<title>Node4</title>
<g id="a_Node000004"><a xlink:href="classPluginListComponent.html" target="_top" xlink:title="A component displaying a list of plugins, with options to scan for them, add, remove and sort them.">
<polygon fill="white" stroke="#666666" points="400.38,-20 291.38,-20 291.38,0 400.38,0 400.38,-20"/>
<text xml:space="preserve" text-anchor="middle" x="345.88" y="-6.5" font-family="Helvetica,sans-Serif" font-size="10.00">PluginListComponent</text>
</a>
</g>
</g>
<!-- Node1&#45;&gt;Node4 -->
<g id="edge3_Node000001_Node000004" class="edge">
<title>Node1&#45;&gt;Node4</title>
<g id="a_edge3_Node000001_Node000004"><a xlink:title=" ">
<path fill="none" stroke="#8b1a1a" d="M303.94,-48.13C314.31,-38.94 326.75,-27.93 335.37,-20.3"/>
<polygon fill="#8b1a1a" stroke="#8b1a1a" points="301.8,-45.34 296.63,-54.59 306.44,-50.58 301.8,-45.34"/>
</a>
</g>
</g>
<!-- Node5 -->
<g id="Node000005" class="node">
<title>Node5</title>
<g id="a_Node000005"><a xlink:href="classSidePanel.html" target="_top" xlink:title="A component that is positioned on either the left&#45; or right&#45;hand side of its parent,...">
<polygon fill="white" stroke="#666666" points="479,-20 418.75,-20 418.75,0 479,0 479,-20"/>
<text xml:space="preserve" text-anchor="middle" x="448.88" y="-6.5" font-family="Helvetica,sans-Serif" font-size="10.00">SidePanel</text>
</a>
</g>
</g>
<!-- Node1&#45;&gt;Node5 -->
<g id="edge4_Node000001_Node000005" class="edge">
<title>Node1&#45;&gt;Node5</title>
<g id="a_edge4_Node000001_Node000005"><a xlink:title=" ">
<path fill="none" stroke="#8b1a1a" d="M324.21,-52.05C353.73,-42.33 393.48,-29.24 420.09,-20.48"/>
<polygon fill="#8b1a1a" stroke="#8b1a1a" points="323.28,-48.67 314.88,-55.12 325.47,-55.32 323.28,-48.67"/>
</a>
</g>
</g>
</g>
</svg>
