<?xml version="1.0" encoding="UTF-8" standalone="no"?>
<!DOCTYPE svg PUBLIC "-//W3C//DTD SVG 1.1//EN"
 "http://www.w3.org/Graphics/SVG/1.1/DTD/svg11.dtd">
<!-- Generated by graphviz version 13.1.0 (20250701.0955)
 -->
<!-- Title: DeletedAtShutdown Pages: 1 -->
<svg width="277pt" height="256pt"
 viewBox="0.00 0.00 277.00 256.00" xmlns="http://www.w3.org/2000/svg" xmlns:xlink="http://www.w3.org/1999/xlink">
<g id="graph0" class="graph" transform="scale(1 1) rotate(0) translate(4 252)">
<title>DeletedAtShutdown</title>
<!-- Node1 -->
<g id="Node000001" class="node">
<title>Node1</title>
<g id="a_Node000001"><a xlink:title="Classes derived from this will be automatically deleted when the application exits.">
<polygon fill="#999999" stroke="#666666" points="103,-134 0,-134 0,-114 103,-114 103,-134"/>
<text xml:space="preserve" text-anchor="middle" x="51.5" y="-120.5" font-family="Helvetica,sans-Serif" font-size="10.00">DeletedAtShutdown</text>
</a>
</g>
</g>
<!-- Node2 -->
<g id="Node000002" class="node">
<title>Node2</title>
<g id="a_Node000002"><a xlink:href="classAnalytics.html" target="_top" xlink:title="A singleton class to manage analytics data.">
<polygon fill="white" stroke="#666666" points="232.25,-248 175.75,-248 175.75,-228 232.25,-228 232.25,-248"/>
<text xml:space="preserve" text-anchor="middle" x="204" y="-234.5" font-family="Helvetica,sans-Serif" font-size="10.00">Analytics</text>
</a>
</g>
</g>
<!-- Node1&#45;&gt;Node2 -->
<g id="edge1_Node000001_Node000002" class="edge">
<title>Node1&#45;&gt;Node2</title>
<g id="a_edge1_Node000001_Node000002"><a xlink:title=" ">
<path fill="none" stroke="#63b8ff" d="M65.47,-143.73C80.62,-165.28 107.66,-199.34 139,-219 150,-225.9 163.62,-230.4 175.47,-233.28"/>
<polygon fill="#63b8ff" stroke="#63b8ff" points="68.39,-141.81 59.87,-135.52 62.61,-145.75 68.39,-141.81"/>
</a>
</g>
</g>
<!-- Node3 -->
<g id="Node000003" class="node">
<title>Node3</title>
<g id="a_Node000003"><a xlink:href="classChildProcessManager.html" target="_top" xlink:title="Manages a set of ChildProcesses and periodically checks their return value.">
<polygon fill="white" stroke="#666666" points="260,-210 148,-210 148,-190 260,-190 260,-210"/>
<text xml:space="preserve" text-anchor="middle" x="204" y="-196.5" font-family="Helvetica,sans-Serif" font-size="10.00">ChildProcessManager</text>
</a>
</g>
</g>
<!-- Node1&#45;&gt;Node3 -->
<g id="edge2_Node000001_Node000003" class="edge">
<title>Node1&#45;&gt;Node3</title>
<g id="a_edge2_Node000001_Node000003"><a xlink:title=" ">
<path fill="none" stroke="#8b1a1a" d="M74.57,-141.18C91.44,-153.65 115.69,-170.15 139,-181 146.04,-184.28 153.78,-187.14 161.37,-189.58"/>
<polygon fill="#8b1a1a" stroke="#8b1a1a" points="76.86,-138.52 66.76,-135.3 72.64,-144.11 76.86,-138.52"/>
</a>
</g>
</g>
<!-- Node4 -->
<g id="Node000004" class="node">
<title>Node4</title>
<g id="a_Node000004"><a xlink:href="classDesktop.html" target="_top" xlink:title="Describes and controls aspects of the computer&#39;s desktop.">
<polygon fill="white" stroke="#666666" points="230.38,-172 177.62,-172 177.62,-152 230.38,-152 230.38,-172"/>
<text xml:space="preserve" text-anchor="middle" x="204" y="-158.5" font-family="Helvetica,sans-Serif" font-size="10.00">Desktop</text>
</a>
</g>
</g>
<!-- Node1&#45;&gt;Node4 -->
<g id="edge3_Node000001_Node000004" class="edge">
<title>Node1&#45;&gt;Node4</title>
<g id="a_edge3_Node000001_Node000004"><a xlink:title=" ">
<path fill="none" stroke="#8b1a1a" d="M104.96,-137.25C129.41,-143.42 157.4,-150.49 177.2,-155.49"/>
<polygon fill="#8b1a1a" stroke="#8b1a1a" points="106.04,-133.91 95.49,-134.85 104.33,-140.7 106.04,-133.91"/>
</a>
</g>
</g>
<!-- Node5 -->
<g id="Node000005" class="node">
<title>Node5</title>
<g id="a_Node000005"><a xlink:href="classInAppPurchases.html" target="_top" xlink:title="Provides in&#45;app purchase functionality.">
<polygon fill="white" stroke="#666666" points="248,-134 160,-134 160,-114 248,-114 248,-134"/>
<text xml:space="preserve" text-anchor="middle" x="204" y="-120.5" font-family="Helvetica,sans-Serif" font-size="10.00">InAppPurchases</text>
</a>
</g>
</g>
<!-- Node1&#45;&gt;Node5 -->
<g id="edge4_Node000001_Node000005" class="edge">
<title>Node1&#45;&gt;Node5</title>
<g id="a_edge4_Node000001_Node000005"><a xlink:title=" ">
<path fill="none" stroke="#8b1a1a" d="M114.8,-124C129.87,-124 145.65,-124 159.63,-124"/>
<polygon fill="#8b1a1a" stroke="#8b1a1a" points="114.97,-120.5 104.97,-124 114.97,-127.5 114.97,-120.5"/>
</a>
</g>
</g>
<!-- Node6 -->
<g id="Node000006" class="node">
<title>Node6</title>
<g id="a_Node000006"><a xlink:href="classModalComponentManager.html" target="_top" xlink:title="Manages the system&#39;s stack of modal components.">
<polygon fill="white" stroke="#666666" points="269,-96 139,-96 139,-76 269,-76 269,-96"/>
<text xml:space="preserve" text-anchor="middle" x="204" y="-82.5" font-family="Helvetica,sans-Serif" font-size="10.00">ModalComponentManager</text>
</a>
</g>
</g>
<!-- Node1&#45;&gt;Node6 -->
<g id="edge5_Node000001_Node000006" class="edge">
<title>Node1&#45;&gt;Node6</title>
<g id="a_edge5_Node000001_Node000006"><a xlink:title=" ">
<path fill="none" stroke="#8b1a1a" d="M104.97,-110.75C123.52,-106.07 144.11,-100.87 161.61,-96.45"/>
<polygon fill="#8b1a1a" stroke="#8b1a1a" points="104.33,-107.3 95.49,-113.15 106.04,-114.09 104.33,-107.3"/>
</a>
</g>
</g>
<!-- Node7 -->
<g id="Node000007" class="node">
<title>Node7</title>
<g id="a_Node000007"><a xlink:href="classPushNotifications.html" target="_top" xlink:title="Singleton class responsible for push notifications functionality.">
<polygon fill="white" stroke="#666666" points="250.62,-58 157.38,-58 157.38,-38 250.62,-38 250.62,-58"/>
<text xml:space="preserve" text-anchor="middle" x="204" y="-44.5" font-family="Helvetica,sans-Serif" font-size="10.00">PushNotifications</text>
</a>
</g>
</g>
<!-- Node1&#45;&gt;Node7 -->
<g id="edge6_Node000001_Node000007" class="edge">
<title>Node1&#45;&gt;Node7</title>
<g id="a_edge6_Node000001_Node000007"><a xlink:title=" ">
<path fill="none" stroke="#8b1a1a" d="M74.57,-106.82C91.44,-94.35 115.69,-77.85 139,-67 146.04,-63.72 153.78,-60.86 161.37,-58.42"/>
<polygon fill="#8b1a1a" stroke="#8b1a1a" points="72.64,-103.89 66.76,-112.7 76.86,-109.48 72.64,-103.89"/>
</a>
</g>
</g>
<!-- Node8 -->
<g id="Node000008" class="node">
<title>Node8</title>
<g id="a_Node000008"><a xlink:href="classSplashScreen.html" target="_top" xlink:title="A component for showing a splash screen while your app starts up.">
<polygon fill="white" stroke="#666666" points="242.38,-20 165.62,-20 165.62,0 242.38,0 242.38,-20"/>
<text xml:space="preserve" text-anchor="middle" x="204" y="-6.5" font-family="Helvetica,sans-Serif" font-size="10.00">SplashScreen</text>
</a>
</g>
</g>
<!-- Node1&#45;&gt;Node8 -->
<g id="edge7_Node000001_Node000008" class="edge">
<title>Node1&#45;&gt;Node8</title>
<g id="a_edge7_Node000001_Node000008"><a xlink:title=" ">
<path fill="none" stroke="#8b1a1a" d="M65.47,-104.27C80.62,-82.72 107.66,-48.66 139,-29 146.95,-24.01 156.28,-20.28 165.32,-17.5"/>
<polygon fill="#8b1a1a" stroke="#8b1a1a" points="62.61,-102.25 59.87,-112.48 68.39,-106.19 62.61,-102.25"/>
</a>
</g>
</g>
</g>
</svg>
