<?xml version="1.0" encoding="UTF-8" standalone="no"?>
<!DOCTYPE svg PUBLIC "-//W3C//DTD SVG 1.1//EN"
 "http://www.w3.org/Graphics/SVG/1.1/DTD/svg11.dtd">
<!-- Generated by graphviz version 13.1.0 (20250701.0955)
 -->
<!-- Title: DragAndDropTarget Pages: 1 -->
<svg width="153pt" height="140pt"
 viewBox="0.00 0.00 153.00 140.00" xmlns="http://www.w3.org/2000/svg" xmlns:xlink="http://www.w3.org/1999/xlink">
<g id="graph0" class="graph" transform="scale(1 1) rotate(0) translate(4 136)">
<title>DragAndDropTarget</title>
<!-- Node1 -->
<g id="Node000001" class="node">
<title>Node1</title>
<g id="a_Node000001"><a xlink:title="Components derived from this class can have things dropped onto them by a DragAndDropContainer.">
<polygon fill="#999999" stroke="#666666" points="109.88,-132 7.62,-132 7.62,-112 109.88,-112 109.88,-132"/>
<text xml:space="preserve" text-anchor="middle" x="58.75" y="-118.5" font-family="Helvetica,sans-Serif" font-size="10.00">DragAndDropTarget</text>
</a>
</g>
</g>
<!-- Node2 -->
<g id="Node000002" class="node">
<title>Node2</title>
<g id="a_Node000002"><a xlink:href="classToolbar.html" target="_top" xlink:title="A toolbar component.">
<polygon fill="white" stroke="#666666" points="47.5,-76 0,-76 0,-56 47.5,-56 47.5,-76"/>
<text xml:space="preserve" text-anchor="middle" x="23.75" y="-62.5" font-family="Helvetica,sans-Serif" font-size="10.00">Toolbar</text>
</a>
</g>
</g>
<!-- Node1&#45;&gt;Node2 -->
<g id="edge1_Node000001_Node000002" class="edge">
<title>Node1&#45;&gt;Node2</title>
<g id="a_edge1_Node000001_Node000002"><a xlink:title=" ">
<path fill="none" stroke="#63b8ff" d="M46.53,-102.15C40.86,-93.4 34.37,-83.39 29.78,-76.3"/>
<polygon fill="#63b8ff" stroke="#63b8ff" points="43.45,-103.84 51.83,-110.32 49.33,-100.03 43.45,-103.84"/>
</a>
</g>
</g>
<!-- Node3 -->
<g id="Node000003" class="node">
<title>Node3</title>
<g id="a_Node000003"><a xlink:href="classTreeView.html" target="_top" xlink:title="A tree&#45;view component.">
<polygon fill="white" stroke="#666666" points="122.38,-76 65.12,-76 65.12,-56 122.38,-56 122.38,-76"/>
<text xml:space="preserve" text-anchor="middle" x="93.75" y="-62.5" font-family="Helvetica,sans-Serif" font-size="10.00">TreeView</text>
</a>
</g>
</g>
<!-- Node1&#45;&gt;Node3 -->
<g id="edge2_Node000001_Node000003" class="edge">
<title>Node1&#45;&gt;Node3</title>
<g id="a_edge2_Node000001_Node000003"><a xlink:title=" ">
<path fill="none" stroke="#63b8ff" d="M70.97,-102.15C76.64,-93.4 83.13,-83.39 87.72,-76.3"/>
<polygon fill="#63b8ff" stroke="#63b8ff" points="68.17,-100.03 65.67,-110.32 74.05,-103.84 68.17,-100.03"/>
</a>
</g>
</g>
<!-- Node4 -->
<g id="Node000004" class="node">
<title>Node4</title>
<g id="a_Node000004"><a xlink:href="classFileTreeComponent.html" target="_top" xlink:title="A component that displays the files in a directory as a treeview.">
<polygon fill="white" stroke="#666666" points="144.5,-20 43,-20 43,0 144.5,0 144.5,-20"/>
<text xml:space="preserve" text-anchor="middle" x="93.75" y="-6.5" font-family="Helvetica,sans-Serif" font-size="10.00">FileTreeComponent</text>
</a>
</g>
</g>
<!-- Node3&#45;&gt;Node4 -->
<g id="edge3_Node000003_Node000004" class="edge">
<title>Node3&#45;&gt;Node4</title>
<g id="a_edge3_Node000003_Node000004"><a xlink:title=" ">
<path fill="none" stroke="#63b8ff" d="M93.75,-44.13C93.75,-35.9 93.75,-26.85 93.75,-20.3"/>
<polygon fill="#63b8ff" stroke="#63b8ff" points="90.25,-44.08 93.75,-54.08 97.25,-44.08 90.25,-44.08"/>
</a>
</g>
</g>
</g>
</svg>
