<?xml version="1.0" encoding="UTF-8" standalone="no"?>
<!DOCTYPE svg PUBLIC "-//W3C//DTD SVG 1.1//EN"
 "http://www.w3.org/Graphics/SVG/1.1/DTD/svg11.dtd">
<!-- Generated by graphviz version 13.1.0 (20250701.0955)
 -->
<!-- Title: MenuBarModel::Listener Pages: 1 -->
<svg width="250pt" height="84pt"
 viewBox="0.00 0.00 250.00 84.00" xmlns="http://www.w3.org/2000/svg" xmlns:xlink="http://www.w3.org/1999/xlink">
<g id="graph0" class="graph" transform="scale(1 1) rotate(0) translate(4 80)">
<title>MenuBarModel::Listener</title>
<!-- Node1 -->
<g id="Node000001" class="node">
<title>Node1</title>
<g id="a_Node000001"><a xlink:title="A class to receive callbacks when a MenuBarModel changes.">
<polygon fill="#999999" stroke="#666666" points="185.25,-76 63.5,-76 63.5,-56 185.25,-56 185.25,-76"/>
<text xml:space="preserve" text-anchor="middle" x="124.38" y="-62.5" font-family="Helvetica,sans-Serif" font-size="10.00">MenuBarModel::Listener</text>
</a>
</g>
</g>
<!-- Node2 -->
<g id="Node000002" class="node">
<title>Node2</title>
<g id="a_Node000002"><a xlink:href="classBurgerMenuComponent.html" target="_top" xlink:title="A component which lists all menu items and groups them into categories by their respective parent men...">
<polygon fill="white" stroke="#666666" points="118.75,-20 0,-20 0,0 118.75,0 118.75,-20"/>
<text xml:space="preserve" text-anchor="middle" x="59.38" y="-6.5" font-family="Helvetica,sans-Serif" font-size="10.00">BurgerMenuComponent</text>
</a>
</g>
</g>
<!-- Node1&#45;&gt;Node2 -->
<g id="edge1_Node000001_Node000002" class="edge">
<title>Node1&#45;&gt;Node2</title>
<g id="a_edge1_Node000001_Node000002"><a xlink:title=" ">
<path fill="none" stroke="#8b1a1a" d="M104.4,-48.4C93.28,-39.17 79.85,-28.01 70.57,-20.3"/>
<polygon fill="#8b1a1a" stroke="#8b1a1a" points="101.96,-50.93 111.89,-54.63 106.43,-45.54 101.96,-50.93"/>
</a>
</g>
</g>
<!-- Node3 -->
<g id="Node000003" class="node">
<title>Node3</title>
<g id="a_Node000003"><a xlink:href="classMenuBarComponent.html" target="_top" xlink:title="A menu bar component.">
<polygon fill="white" stroke="#666666" points="242,-20 136.75,-20 136.75,0 242,0 242,-20"/>
<text xml:space="preserve" text-anchor="middle" x="189.38" y="-6.5" font-family="Helvetica,sans-Serif" font-size="10.00">MenuBarComponent</text>
</a>
</g>
</g>
<!-- Node1&#45;&gt;Node3 -->
<g id="edge2_Node000001_Node000003" class="edge">
<title>Node1&#45;&gt;Node3</title>
<g id="a_edge2_Node000001_Node000003"><a xlink:title=" ">
<path fill="none" stroke="#8b1a1a" d="M144.35,-48.4C155.47,-39.17 168.9,-28.01 178.18,-20.3"/>
<polygon fill="#8b1a1a" stroke="#8b1a1a" points="142.32,-45.54 136.86,-54.63 146.79,-50.93 142.32,-45.54"/>
</a>
</g>
</g>
</g>
</svg>
