<?xml version="1.0" encoding="UTF-8" standalone="no"?>
<!DOCTYPE svg PUBLIC "-//W3C//DTD SVG 1.1//EN"
 "http://www.w3.org/Graphics/SVG/1.1/DTD/svg11.dtd">
<!-- Generated by graphviz version 13.1.0 (20250701.0955)
 -->
<!-- Title: AudioUnitPluginFormat Pages: 1 -->
<svg width="125pt" height="140pt"
 viewBox="0.00 0.00 125.00 140.00" xmlns="http://www.w3.org/2000/svg" xmlns:xlink="http://www.w3.org/1999/xlink">
<g id="graph0" class="graph" transform="scale(1 1) rotate(0) translate(4 136)">
<title>AudioUnitPluginFormat</title>
<!-- Node1 -->
<g id="Node000001" class="node">
<title>Node1</title>
<g id="a_Node000001"><a xlink:title="Implements a plugin format manager for AudioUnits.">
<polygon fill="#999999" stroke="#666666" points="116.5,-20 0,-20 0,0 116.5,0 116.5,-20"/>
<text xml:space="preserve" text-anchor="middle" x="58.25" y="-6.5" font-family="Helvetica,sans-Serif" font-size="10.00">AudioUnitPluginFormat</text>
</a>
</g>
</g>
<!-- Node2 -->
<g id="Node000002" class="node">
<title>Node2</title>
<g id="a_Node000002"><a xlink:href="classAudioPluginFormat.html" target="_top" xlink:title="The base class for a type of plugin format, such as VST, AudioUnit, LADSPA, etc.">
<polygon fill="white" stroke="#666666" points="107.5,-76 9,-76 9,-56 107.5,-56 107.5,-76"/>
<text xml:space="preserve" text-anchor="middle" x="58.25" y="-62.5" font-family="Helvetica,sans-Serif" font-size="10.00">AudioPluginFormat</text>
</a>
</g>
</g>
<!-- Node2&#45;&gt;Node1 -->
<g id="edge1_Node000001_Node000002" class="edge">
<title>Node2&#45;&gt;Node1</title>
<g id="a_edge1_Node000001_Node000002"><a xlink:title=" ">
<path fill="none" stroke="#63b8ff" d="M58.25,-44.13C58.25,-35.9 58.25,-26.85 58.25,-20.3"/>
<polygon fill="#63b8ff" stroke="#63b8ff" points="54.75,-44.08 58.25,-54.08 61.75,-44.08 54.75,-44.08"/>
</a>
</g>
</g>
<!-- Node3 -->
<g id="Node000003" class="node">
<title>Node3</title>
<g id="a_Node000003"><a xlink:href="classMessageListener.html" target="_top" xlink:title="MessageListener subclasses can post and receive Message objects.">
<polygon fill="white" stroke="#666666" points="103.38,-132 13.12,-132 13.12,-112 103.38,-112 103.38,-132"/>
<text xml:space="preserve" text-anchor="middle" x="58.25" y="-118.5" font-family="Helvetica,sans-Serif" font-size="10.00">MessageListener</text>
</a>
</g>
</g>
<!-- Node3&#45;&gt;Node2 -->
<g id="edge2_Node000002_Node000003" class="edge">
<title>Node3&#45;&gt;Node2</title>
<g id="a_edge2_Node000002_Node000003"><a xlink:title=" ">
<path fill="none" stroke="#8b1a1a" d="M58.25,-100.13C58.25,-91.9 58.25,-82.85 58.25,-76.3"/>
<polygon fill="#8b1a1a" stroke="#8b1a1a" points="54.75,-100.08 58.25,-110.08 61.75,-100.08 54.75,-100.08"/>
</a>
</g>
</g>
</g>
</svg>
