<?xml version="1.0" encoding="UTF-8" standalone="no"?>
<!DOCTYPE svg PUBLIC "-//W3C//DTD SVG 1.1//EN"
 "http://www.w3.org/Graphics/SVG/1.1/DTD/svg11.dtd">
<!-- Generated by graphviz version 13.1.0 (20250701.0955)
 -->
<!-- Title: Label Pages: 1 -->
<svg width="305pt" height="180pt"
 viewBox="0.00 0.00 305.00 180.00" xmlns="http://www.w3.org/2000/svg" xmlns:xlink="http://www.w3.org/1999/xlink">
<g id="graph0" class="graph" transform="scale(1 1) rotate(0) translate(4 176)">
<title>Label</title>
<!-- Node1 -->
<g id="Node000001" class="node">
<title>Node1</title>
<g id="a_Node000001"><a xlink:title="A component that displays a text string, and can optionally become a text editor when clicked.">
<polygon fill="#999999" stroke="#666666" points="297,-96 257.75,-96 257.75,-76 297,-76 297,-96"/>
<text xml:space="preserve" text-anchor="middle" x="277.38" y="-82.5" font-family="Helvetica,sans-Serif" font-size="10.00">Label</text>
</a>
</g>
</g>
<!-- Node2 -->
<g id="Node000002" class="node">
<title>Node2</title>
<g id="a_Node000002"><a xlink:href="classComponent.html" target="_top" xlink:title="The base class for all JUCE user&#45;interface objects.">
<polygon fill="white" stroke="#666666" points="201.88,-172 135.62,-172 135.62,-152 201.88,-152 201.88,-172"/>
<text xml:space="preserve" text-anchor="middle" x="168.75" y="-158.5" font-family="Helvetica,sans-Serif" font-size="10.00">Component</text>
</a>
</g>
</g>
<!-- Node2&#45;&gt;Node1 -->
<g id="edge1_Node000001_Node000002" class="edge">
<title>Node2&#45;&gt;Node1</title>
<g id="a_edge1_Node000001_Node000002"><a xlink:title=" ">
<path fill="none" stroke="#63b8ff" d="M212.58,-148.19C215.77,-146.61 218.87,-144.88 221.75,-143 241.49,-130.11 259.36,-108.81 268.97,-96.22"/>
<polygon fill="#63b8ff" stroke="#63b8ff" points="211.34,-144.91 203.58,-152.13 214.15,-151.33 211.34,-144.91"/>
</a>
</g>
</g>
<!-- Node3 -->
<g id="Node000003" class="node">
<title>Node3</title>
<g id="a_Node000003"><a xlink:href="classMouseListener.html" target="_top" xlink:title="A MouseListener can be registered with a component to receive callbacks about mouse events that happe...">
<polygon fill="white" stroke="#666666" points="79.75,-172 0,-172 0,-152 79.75,-152 79.75,-172"/>
<text xml:space="preserve" text-anchor="middle" x="39.88" y="-158.5" font-family="Helvetica,sans-Serif" font-size="10.00">MouseListener</text>
</a>
</g>
</g>
<!-- Node3&#45;&gt;Node2 -->
<g id="edge2_Node000002_Node000003" class="edge">
<title>Node3&#45;&gt;Node2</title>
<g id="a_edge2_Node000002_Node000003"><a xlink:title=" ">
<path fill="none" stroke="#63b8ff" d="M91.12,-162C106.02,-162 121.94,-162 135.38,-162"/>
<polygon fill="#63b8ff" stroke="#63b8ff" points="91.49,-158.5 81.49,-162 91.49,-165.5 91.49,-158.5"/>
</a>
</g>
</g>
<!-- Node4 -->
<g id="Node000004" class="node">
<title>Node4</title>
<g id="a_Node000004"><a xlink:href="classSettableTooltipClient.html" target="_top" xlink:title="An implementation of TooltipClient that stores the tooltip string and a method for changing it.">
<polygon fill="white" stroke="#666666" points="221.75,-134 115.75,-134 115.75,-114 221.75,-114 221.75,-134"/>
<text xml:space="preserve" text-anchor="middle" x="168.75" y="-120.5" font-family="Helvetica,sans-Serif" font-size="10.00">SettableTooltipClient</text>
</a>
</g>
</g>
<!-- Node4&#45;&gt;Node1 -->
<g id="edge3_Node000001_Node000004" class="edge">
<title>Node4&#45;&gt;Node1</title>
<g id="a_edge3_Node000001_Node000004"><a xlink:title=" ">
<path fill="none" stroke="#63b8ff" d="M209.61,-109.8C226,-103.95 244.2,-97.47 257.46,-92.74"/>
<polygon fill="#63b8ff" stroke="#63b8ff" points="208.84,-106.35 200.59,-113.01 211.19,-112.95 208.84,-106.35"/>
</a>
</g>
</g>
<!-- Node5 -->
<g id="Node000005" class="node">
<title>Node5</title>
<g id="a_Node000005"><a xlink:href="classTooltipClient.html" target="_top" xlink:title="Components that want to use pop&#45;up tooltips should implement this interface.">
<polygon fill="white" stroke="#666666" points="74.88,-134 4.88,-134 4.88,-114 74.88,-114 74.88,-134"/>
<text xml:space="preserve" text-anchor="middle" x="39.88" y="-120.5" font-family="Helvetica,sans-Serif" font-size="10.00">TooltipClient</text>
</a>
</g>
</g>
<!-- Node5&#45;&gt;Node4 -->
<g id="edge4_Node000004_Node000005" class="edge">
<title>Node5&#45;&gt;Node4</title>
<g id="a_edge4_Node000004_Node000005"><a xlink:title=" ">
<path fill="none" stroke="#63b8ff" d="M86.62,-124C95.91,-124 105.75,-124 115.26,-124"/>
<polygon fill="#63b8ff" stroke="#63b8ff" points="86.72,-120.5 76.72,-124 86.72,-127.5 86.72,-120.5"/>
</a>
</g>
</g>
<!-- Node6 -->
<g id="Node000006" class="node">
<title>Node6</title>
<g id="a_Node000006"><a xlink:href="classTextEditor_1_1Listener.html" target="_top" xlink:title="Receives callbacks from a TextEditor component when it changes.">
<polygon fill="white" stroke="#666666" points="219.12,-96 118.38,-96 118.38,-76 219.12,-76 219.12,-96"/>
<text xml:space="preserve" text-anchor="middle" x="168.75" y="-82.5" font-family="Helvetica,sans-Serif" font-size="10.00">TextEditor::Listener</text>
</a>
</g>
</g>
<!-- Node6&#45;&gt;Node1 -->
<g id="edge5_Node000001_Node000006" class="edge">
<title>Node6&#45;&gt;Node1</title>
<g id="a_edge5_Node000001_Node000006"><a xlink:title=" ">
<path fill="none" stroke="darkgreen" d="M230.7,-86C240.32,-86 249.61,-86 257.27,-86"/>
<polygon fill="darkgreen" stroke="darkgreen" points="230.83,-82.5 220.83,-86 230.83,-89.5 230.83,-82.5"/>
</a>
</g>
</g>
<!-- Node7 -->
<g id="Node000007" class="node">
<title>Node7</title>
<g id="a_Node000007"><a xlink:href="classComponentListener.html" target="_top" xlink:title="Gets informed about changes to a component&#39;s hierarchy or position.">
<polygon fill="white" stroke="#666666" points="219.12,-58 118.38,-58 118.38,-38 219.12,-38 219.12,-58"/>
<text xml:space="preserve" text-anchor="middle" x="168.75" y="-44.5" font-family="Helvetica,sans-Serif" font-size="10.00">ComponentListener</text>
</a>
</g>
</g>
<!-- Node7&#45;&gt;Node1 -->
<g id="edge6_Node000001_Node000007" class="edge">
<title>Node7&#45;&gt;Node1</title>
<g id="a_edge6_Node000001_Node000007"><a xlink:title=" ">
<path fill="none" stroke="#8b1a1a" d="M209.61,-62.2C226,-68.05 244.2,-74.53 257.46,-79.26"/>
<polygon fill="#8b1a1a" stroke="#8b1a1a" points="211.19,-59.05 200.59,-58.99 208.84,-65.65 211.19,-59.05"/>
</a>
</g>
</g>
<!-- Node8 -->
<g id="Node000008" class="node">
<title>Node8</title>
<g id="a_Node000008"><a xlink:href="classValue_1_1Listener.html" target="_top" xlink:title="Receives callbacks when a Value object changes.">
<polygon fill="white" stroke="#666666" points="209,-20 128.5,-20 128.5,0 209,0 209,-20"/>
<text xml:space="preserve" text-anchor="middle" x="168.75" y="-6.5" font-family="Helvetica,sans-Serif" font-size="10.00">Value::Listener</text>
</a>
</g>
</g>
<!-- Node8&#45;&gt;Node1 -->
<g id="edge7_Node000001_Node000008" class="edge">
<title>Node8&#45;&gt;Node1</title>
<g id="a_edge7_Node000001_Node000008"><a xlink:title=" ">
<path fill="none" stroke="#8b1a1a" d="M215.55,-25.34C217.69,-26.49 219.77,-27.71 221.75,-29 241.49,-41.89 259.36,-63.19 268.97,-75.78"/>
<polygon fill="#8b1a1a" stroke="#8b1a1a" points="217.11,-22.21 206.58,-21.11 214.13,-28.54 217.11,-22.21"/>
</a>
</g>
</g>
</g>
</svg>
