<?xml version="1.0" encoding="UTF-8" standalone="no"?>
<!DOCTYPE svg PUBLIC "-//W3C//DTD SVG 1.1//EN"
 "http://www.w3.org/Graphics/SVG/1.1/DTD/svg11.dtd">
<!-- Generated by graphviz version 13.1.0 (20250701.0955)
 -->
<!-- Title: TableListBox Pages: 1 -->
<svg width="356pt" height="208pt"
 viewBox="0.00 0.00 356.00 208.00" xmlns="http://www.w3.org/2000/svg" xmlns:xlink="http://www.w3.org/1999/xlink">
<g id="graph0" class="graph" transform="scale(1 1) rotate(0) translate(4 204)">
<title>TableListBox</title>
<!-- Node1 -->
<g id="Node000001" class="node">
<title>Node1</title>
<g id="a_Node000001"><a xlink:title="A table of cells, using a TableHeaderComponent as its header.">
<polygon fill="#999999" stroke="#666666" points="208,-20 135.75,-20 135.75,0 208,0 208,-20"/>
<text xml:space="preserve" text-anchor="middle" x="171.88" y="-6.5" font-family="Helvetica,sans-Serif" font-size="10.00">TableListBox</text>
</a>
</g>
</g>
<!-- Node2 -->
<g id="Node000002" class="node">
<title>Node2</title>
<g id="a_Node000002"><a xlink:href="classListBox.html" target="_top" xlink:title="A list of items that can be scrolled vertically.">
<polygon fill="white" stroke="#666666" points="116.38,-82 67.38,-82 67.38,-62 116.38,-62 116.38,-82"/>
<text xml:space="preserve" text-anchor="middle" x="91.88" y="-68.5" font-family="Helvetica,sans-Serif" font-size="10.00">ListBox</text>
</a>
</g>
</g>
<!-- Node2&#45;&gt;Node1 -->
<g id="edge1_Node000001_Node000002" class="edge">
<title>Node2&#45;&gt;Node1</title>
<g id="a_edge1_Node000001_Node000002"><a xlink:title=" ">
<path fill="none" stroke="#63b8ff" d="M113.33,-54.91C128.09,-43.84 147.17,-29.53 159.46,-20.31"/>
<polygon fill="#63b8ff" stroke="#63b8ff" points="111.49,-51.92 105.59,-60.72 115.69,-57.52 111.49,-51.92"/>
</a>
</g>
</g>
<!-- Node3 -->
<g id="Node000003" class="node">
<title>Node3</title>
<g id="a_Node000003"><a xlink:href="classComponent.html" target="_top" xlink:title="The base class for all JUCE user&#45;interface objects.">
<polygon fill="white" stroke="#666666" points="73,-144 6.75,-144 6.75,-124 73,-124 73,-144"/>
<text xml:space="preserve" text-anchor="middle" x="39.88" y="-130.5" font-family="Helvetica,sans-Serif" font-size="10.00">Component</text>
</a>
</g>
</g>
<!-- Node3&#45;&gt;Node2 -->
<g id="edge2_Node000002_Node000003" class="edge">
<title>Node3&#45;&gt;Node2</title>
<g id="a_edge2_Node000002_Node000003"><a xlink:title=" ">
<path fill="none" stroke="#63b8ff" d="M55.26,-115.25C64.69,-104.36 76.38,-90.88 83.98,-82.11"/>
<polygon fill="#63b8ff" stroke="#63b8ff" points="52.9,-112.63 48.99,-122.48 58.19,-117.22 52.9,-112.63"/>
</a>
</g>
</g>
<!-- Node4 -->
<g id="Node000004" class="node">
<title>Node4</title>
<g id="a_Node000004"><a xlink:href="classMouseListener.html" target="_top" xlink:title="A MouseListener can be registered with a component to receive callbacks about mouse events that happe...">
<polygon fill="white" stroke="#666666" points="79.75,-200 0,-200 0,-180 79.75,-180 79.75,-200"/>
<text xml:space="preserve" text-anchor="middle" x="39.88" y="-186.5" font-family="Helvetica,sans-Serif" font-size="10.00">MouseListener</text>
</a>
</g>
</g>
<!-- Node4&#45;&gt;Node3 -->
<g id="edge3_Node000003_Node000004" class="edge">
<title>Node4&#45;&gt;Node3</title>
<g id="a_edge3_Node000003_Node000004"><a xlink:title=" ">
<path fill="none" stroke="#63b8ff" d="M39.88,-168.13C39.88,-159.9 39.88,-150.85 39.88,-144.3"/>
<polygon fill="#63b8ff" stroke="#63b8ff" points="36.38,-168.08 39.88,-178.08 43.38,-168.08 36.38,-168.08"/>
</a>
</g>
</g>
<!-- Node5 -->
<g id="Node000005" class="node">
<title>Node5</title>
<g id="a_Node000005"><a xlink:href="classSettableTooltipClient.html" target="_top" xlink:title="An implementation of TooltipClient that stores the tooltip string and a method for changing it.">
<polygon fill="white" stroke="#666666" points="196.88,-144 90.88,-144 90.88,-124 196.88,-124 196.88,-144"/>
<text xml:space="preserve" text-anchor="middle" x="143.88" y="-130.5" font-family="Helvetica,sans-Serif" font-size="10.00">SettableTooltipClient</text>
</a>
</g>
</g>
<!-- Node5&#45;&gt;Node2 -->
<g id="edge4_Node000002_Node000005" class="edge">
<title>Node5&#45;&gt;Node2</title>
<g id="a_edge4_Node000002_Node000005"><a xlink:title=" ">
<path fill="none" stroke="#63b8ff" d="M128.49,-115.25C119.06,-104.36 107.37,-90.88 99.77,-82.11"/>
<polygon fill="#63b8ff" stroke="#63b8ff" points="125.56,-117.22 134.76,-122.48 130.85,-112.63 125.56,-117.22"/>
</a>
</g>
</g>
<!-- Node6 -->
<g id="Node000006" class="node">
<title>Node6</title>
<g id="a_Node000006"><a xlink:href="classTooltipClient.html" target="_top" xlink:title="Components that want to use pop&#45;up tooltips should implement this interface.">
<polygon fill="white" stroke="#666666" points="178.88,-200 108.88,-200 108.88,-180 178.88,-180 178.88,-200"/>
<text xml:space="preserve" text-anchor="middle" x="143.88" y="-186.5" font-family="Helvetica,sans-Serif" font-size="10.00">TooltipClient</text>
</a>
</g>
</g>
<!-- Node6&#45;&gt;Node5 -->
<g id="edge5_Node000005_Node000006" class="edge">
<title>Node6&#45;&gt;Node5</title>
<g id="a_edge5_Node000005_Node000006"><a xlink:title=" ">
<path fill="none" stroke="#63b8ff" d="M143.88,-168.13C143.88,-159.9 143.88,-150.85 143.88,-144.3"/>
<polygon fill="#63b8ff" stroke="#63b8ff" points="140.38,-168.08 143.88,-178.08 147.38,-168.08 140.38,-168.08"/>
</a>
</g>
</g>
<!-- Node7 -->
<g id="Node000007" class="node">
<title>Node7</title>
<g id="a_Node000007"><a xlink:href="classListBoxModel.html" target="_top" xlink:title="A subclass of this is used to drive a ListBox.">
<polygon fill="white" stroke="#666666" points="209.5,-82 134.25,-82 134.25,-62 209.5,-62 209.5,-82"/>
<text xml:space="preserve" text-anchor="middle" x="171.88" y="-68.5" font-family="Helvetica,sans-Serif" font-size="10.00">ListBoxModel</text>
</a>
</g>
</g>
<!-- Node7&#45;&gt;Node1 -->
<g id="edge6_Node000001_Node000007" class="edge">
<title>Node7&#45;&gt;Node1</title>
<g id="a_edge6_Node000001_Node000007"><a xlink:title=" ">
<path fill="none" stroke="#8b1a1a" d="M171.88,-50.25C171.88,-39.97 171.88,-28.09 171.88,-20.11"/>
<polygon fill="#8b1a1a" stroke="#8b1a1a" points="168.38,-50.11 171.88,-60.11 175.38,-50.11 168.38,-50.11"/>
</a>
</g>
</g>
<!-- Node8 -->
<g id="Node000008" class="node">
<title>Node8</title>
<g id="a_Node000008"><a xlink:href="classTableHeaderComponent_1_1Listener.html" target="_top" xlink:title="Receives events from a TableHeaderComponent when columns are resized, moved, etc.">
<polygon fill="white" stroke="#666666" points="348.38,-88 227.38,-88 227.38,-56 348.38,-56 348.38,-88"/>
<text xml:space="preserve" text-anchor="start" x="235.38" y="-74.5" font-family="Helvetica,sans-Serif" font-size="10.00">TableHeaderComponent</text>
<text xml:space="preserve" text-anchor="middle" x="287.88" y="-62.5" font-family="Helvetica,sans-Serif" font-size="10.00">::Listener</text>
</a>
</g>
</g>
<!-- Node8&#45;&gt;Node1 -->
<g id="edge7_Node000001_Node000008" class="edge">
<title>Node8&#45;&gt;Node1</title>
<g id="a_edge7_Node000001_Node000008"><a xlink:title=" ">
<path fill="none" stroke="#8b1a1a" d="M248.04,-50.4C228.35,-40.21 205.55,-28.42 190.06,-20.41"/>
<polygon fill="#8b1a1a" stroke="#8b1a1a" points="246.17,-53.37 256.66,-54.85 249.38,-47.15 246.17,-53.37"/>
</a>
</g>
</g>
</g>
</svg>
