<?xml version="1.0" encoding="UTF-8" standalone="no"?>
<!DOCTYPE svg PUBLIC "-//W3C//DTD SVG 1.1//EN"
 "http://www.w3.org/Graphics/SVG/1.1/DTD/svg11.dtd">
<!-- Generated by graphviz version 13.1.0 (20250701.0955)
 -->
<!-- Title: TextInputTarget Pages: 1 -->
<svg width="202pt" height="84pt"
 viewBox="0.00 0.00 202.00 84.00" xmlns="http://www.w3.org/2000/svg" xmlns:xlink="http://www.w3.org/1999/xlink">
<g id="graph0" class="graph" transform="scale(1 1) rotate(0) translate(4 80)">
<title>TextInputTarget</title>
<!-- Node1 -->
<g id="Node000001" class="node">
<title>Node1</title>
<g id="a_Node000001"><a xlink:title="An abstract base class which can be implemented by components that function as text editors.">
<polygon fill="#999999" stroke="#666666" points="152.25,-76 68.75,-76 68.75,-56 152.25,-56 152.25,-76"/>
<text xml:space="preserve" text-anchor="middle" x="110.5" y="-62.5" font-family="Helvetica,sans-Serif" font-size="10.00">TextInputTarget</text>
</a>
</g>
</g>
<!-- Node2 -->
<g id="Node000002" class="node">
<title>Node2</title>
<g id="a_Node000002"><a xlink:href="classCodeEditorComponent.html" target="_top" xlink:title="A text editor component designed specifically for source code.">
<polygon fill="white" stroke="#666666" points="115,-20 0,-20 0,0 115,0 115,-20"/>
<text xml:space="preserve" text-anchor="middle" x="57.5" y="-6.5" font-family="Helvetica,sans-Serif" font-size="10.00">CodeEditorComponent</text>
</a>
</g>
</g>
<!-- Node1&#45;&gt;Node2 -->
<g id="edge1_Node000001_Node000002" class="edge">
<title>Node1&#45;&gt;Node2</title>
<g id="a_edge1_Node000001_Node000002"><a xlink:title=" ">
<path fill="none" stroke="#63b8ff" d="M93.39,-47.57C84.49,-38.5 73.97,-27.78 66.63,-20.3"/>
<polygon fill="#63b8ff" stroke="#63b8ff" points="90.71,-49.83 100.21,-54.51 95.7,-44.93 90.71,-49.83"/>
</a>
</g>
</g>
<!-- Node3 -->
<g id="Node000003" class="node">
<title>Node3</title>
<g id="a_Node000003"><a xlink:href="classTextEditor.html" target="_top" xlink:title="An editable text box.">
<polygon fill="white" stroke="#666666" points="193.62,-20 133.38,-20 133.38,0 193.62,0 193.62,-20"/>
<text xml:space="preserve" text-anchor="middle" x="163.5" y="-6.5" font-family="Helvetica,sans-Serif" font-size="10.00">TextEditor</text>
</a>
</g>
</g>
<!-- Node1&#45;&gt;Node3 -->
<g id="edge2_Node000001_Node000003" class="edge">
<title>Node1&#45;&gt;Node3</title>
<g id="a_edge2_Node000001_Node000003"><a xlink:title=" ">
<path fill="none" stroke="#63b8ff" d="M127.61,-47.57C136.51,-38.5 147.03,-27.78 154.37,-20.3"/>
<polygon fill="#63b8ff" stroke="#63b8ff" points="125.3,-44.93 120.79,-54.51 130.29,-49.83 125.3,-44.93"/>
</a>
</g>
</g>
</g>
</svg>
