<?xml version="1.0" encoding="UTF-8" standalone="no"?>
<!DOCTYPE svg PUBLIC "-//W3C//DTD SVG 1.1//EN"
 "http://www.w3.org/Graphics/SVG/1.1/DTD/svg11.dtd">
<!-- Generated by graphviz version 13.1.0 (20250701.0955)
 -->
<!-- Title: TextEditor Pages: 1 -->
<svg width="300pt" height="140pt"
 viewBox="0.00 0.00 300.00 140.00" xmlns="http://www.w3.org/2000/svg" xmlns:xlink="http://www.w3.org/1999/xlink">
<g id="graph0" class="graph" transform="scale(1 1) rotate(0) translate(4 136)">
<title>TextEditor</title>
<!-- Node1 -->
<g id="Node000001" class="node">
<title>Node1</title>
<g id="a_Node000001"><a xlink:title="An editable text box.">
<polygon fill="#999999" stroke="#666666" points="164.88,-20 104.62,-20 104.62,0 164.88,0 164.88,-20"/>
<text xml:space="preserve" text-anchor="middle" x="134.75" y="-6.5" font-family="Helvetica,sans-Serif" font-size="10.00">TextEditor</text>
</a>
</g>
</g>
<!-- Node2 -->
<g id="Node000002" class="node">
<title>Node2</title>
<g id="a_Node000002"><a xlink:href="classTextInputTarget.html" target="_top" xlink:title="An abstract base class which can be implemented by components that function as text editors.">
<polygon fill="white" stroke="#666666" points="83.5,-76 0,-76 0,-56 83.5,-56 83.5,-76"/>
<text xml:space="preserve" text-anchor="middle" x="41.75" y="-62.5" font-family="Helvetica,sans-Serif" font-size="10.00">TextInputTarget</text>
</a>
</g>
</g>
<!-- Node2&#45;&gt;Node1 -->
<g id="edge1_Node000001_Node000002" class="edge">
<title>Node2&#45;&gt;Node1</title>
<g id="a_edge1_Node000001_Node000002"><a xlink:title=" ">
<path fill="none" stroke="#63b8ff" d="M67.45,-50.08C83.74,-40.62 104.34,-28.66 118.42,-20.48"/>
<polygon fill="#63b8ff" stroke="#63b8ff" points="66.15,-46.79 59.26,-54.83 69.66,-52.84 66.15,-46.79"/>
</a>
</g>
</g>
<!-- Node3 -->
<g id="Node000003" class="node">
<title>Node3</title>
<g id="a_Node000003"><a xlink:href="classComponent.html" target="_top" xlink:title="The base class for all JUCE user&#45;interface objects.">
<polygon fill="white" stroke="#666666" points="167.88,-76 101.62,-76 101.62,-56 167.88,-56 167.88,-76"/>
<text xml:space="preserve" text-anchor="middle" x="134.75" y="-62.5" font-family="Helvetica,sans-Serif" font-size="10.00">Component</text>
</a>
</g>
</g>
<!-- Node3&#45;&gt;Node1 -->
<g id="edge2_Node000001_Node000003" class="edge">
<title>Node3&#45;&gt;Node1</title>
<g id="a_edge2_Node000001_Node000003"><a xlink:title=" ">
<path fill="none" stroke="#63b8ff" d="M134.75,-44.13C134.75,-35.9 134.75,-26.85 134.75,-20.3"/>
<polygon fill="#63b8ff" stroke="#63b8ff" points="131.25,-44.08 134.75,-54.08 138.25,-44.08 131.25,-44.08"/>
</a>
</g>
</g>
<!-- Node4 -->
<g id="Node000004" class="node">
<title>Node4</title>
<g id="a_Node000004"><a xlink:href="classMouseListener.html" target="_top" xlink:title="A MouseListener can be registered with a component to receive callbacks about mouse events that happe...">
<polygon fill="white" stroke="#666666" points="174.62,-132 94.88,-132 94.88,-112 174.62,-112 174.62,-132"/>
<text xml:space="preserve" text-anchor="middle" x="134.75" y="-118.5" font-family="Helvetica,sans-Serif" font-size="10.00">MouseListener</text>
</a>
</g>
</g>
<!-- Node4&#45;&gt;Node3 -->
<g id="edge3_Node000003_Node000004" class="edge">
<title>Node4&#45;&gt;Node3</title>
<g id="a_edge3_Node000003_Node000004"><a xlink:title=" ">
<path fill="none" stroke="#63b8ff" d="M134.75,-100.13C134.75,-91.9 134.75,-82.85 134.75,-76.3"/>
<polygon fill="#63b8ff" stroke="#63b8ff" points="131.25,-100.08 134.75,-110.08 138.25,-100.08 131.25,-100.08"/>
</a>
</g>
</g>
<!-- Node5 -->
<g id="Node000005" class="node">
<title>Node5</title>
<g id="a_Node000005"><a xlink:href="classSettableTooltipClient.html" target="_top" xlink:title="An implementation of TooltipClient that stores the tooltip string and a method for changing it.">
<polygon fill="white" stroke="#666666" points="291.75,-76 185.75,-76 185.75,-56 291.75,-56 291.75,-76"/>
<text xml:space="preserve" text-anchor="middle" x="238.75" y="-62.5" font-family="Helvetica,sans-Serif" font-size="10.00">SettableTooltipClient</text>
</a>
</g>
</g>
<!-- Node5&#45;&gt;Node1 -->
<g id="edge4_Node000001_Node000005" class="edge">
<title>Node5&#45;&gt;Node1</title>
<g id="a_edge4_Node000001_Node000005"><a xlink:title=" ">
<path fill="none" stroke="#63b8ff" d="M210.53,-50.35C192.23,-40.84 168.91,-28.74 153.01,-20.48"/>
<polygon fill="#63b8ff" stroke="#63b8ff" points="208.8,-53.39 219.29,-54.9 212.03,-47.18 208.8,-53.39"/>
</a>
</g>
</g>
<!-- Node6 -->
<g id="Node000006" class="node">
<title>Node6</title>
<g id="a_Node000006"><a xlink:href="classTooltipClient.html" target="_top" xlink:title="Components that want to use pop&#45;up tooltips should implement this interface.">
<polygon fill="white" stroke="#666666" points="273.75,-132 203.75,-132 203.75,-112 273.75,-112 273.75,-132"/>
<text xml:space="preserve" text-anchor="middle" x="238.75" y="-118.5" font-family="Helvetica,sans-Serif" font-size="10.00">TooltipClient</text>
</a>
</g>
</g>
<!-- Node6&#45;&gt;Node5 -->
<g id="edge5_Node000005_Node000006" class="edge">
<title>Node6&#45;&gt;Node5</title>
<g id="a_edge5_Node000005_Node000006"><a xlink:title=" ">
<path fill="none" stroke="#63b8ff" d="M238.75,-100.13C238.75,-91.9 238.75,-82.85 238.75,-76.3"/>
<polygon fill="#63b8ff" stroke="#63b8ff" points="235.25,-100.08 238.75,-110.08 242.25,-100.08 235.25,-100.08"/>
</a>
</g>
</g>
</g>
</svg>
