<?xml version="1.0" encoding="UTF-8" standalone="no"?>
<!DOCTYPE svg PUBLIC "-//W3C//DTD SVG 1.1//EN"
 "http://www.w3.org/Graphics/SVG/1.1/DTD/svg11.dtd">
<!-- Generated by graphviz version 13.1.0 (20250701.0955)
 -->
<!-- Title: AudioDeviceSelectorComponent Pages: 1 -->
<svg width="183pt" height="140pt"
 viewBox="0.00 0.00 183.00 140.00" xmlns="http://www.w3.org/2000/svg" xmlns:xlink="http://www.w3.org/1999/xlink">
<g id="graph0" class="graph" transform="scale(1 1) rotate(0) translate(4 136)">
<title>AudioDeviceSelectorComponent</title>
<!-- Node1 -->
<g id="Node000001" class="node">
<title>Node1</title>
<g id="a_Node000001"><a xlink:title="A component containing controls to let the user change the audio settings of an AudioDeviceManager ob...">
<polygon fill="#999999" stroke="#666666" points="164.75,-20 7,-20 7,0 164.75,0 164.75,-20"/>
<text xml:space="preserve" text-anchor="middle" x="85.88" y="-6.5" font-family="Helvetica,sans-Serif" font-size="10.00">AudioDeviceSelectorComponent</text>
</a>
</g>
</g>
<!-- Node2 -->
<g id="Node000002" class="node">
<title>Node2</title>
<g id="a_Node000002"><a xlink:href="classComponent.html" target="_top" xlink:title="The base class for all JUCE user&#45;interface objects.">
<polygon fill="white" stroke="#666666" points="73,-76 6.75,-76 6.75,-56 73,-56 73,-76"/>
<text xml:space="preserve" text-anchor="middle" x="39.88" y="-62.5" font-family="Helvetica,sans-Serif" font-size="10.00">Component</text>
</a>
</g>
</g>
<!-- Node2&#45;&gt;Node1 -->
<g id="edge1_Node000001_Node000002" class="edge">
<title>Node2&#45;&gt;Node1</title>
<g id="a_edge1_Node000001_Node000002"><a xlink:title=" ">
<path fill="none" stroke="#63b8ff" d="M55.21,-47C62.83,-38.06 71.71,-27.62 77.95,-20.3"/>
<polygon fill="#63b8ff" stroke="#63b8ff" points="52.69,-44.56 48.87,-54.44 58.02,-49.1 52.69,-44.56"/>
</a>
</g>
</g>
<!-- Node3 -->
<g id="Node000003" class="node">
<title>Node3</title>
<g id="a_Node000003"><a xlink:href="classMouseListener.html" target="_top" xlink:title="A MouseListener can be registered with a component to receive callbacks about mouse events that happe...">
<polygon fill="white" stroke="#666666" points="79.75,-132 0,-132 0,-112 79.75,-112 79.75,-132"/>
<text xml:space="preserve" text-anchor="middle" x="39.88" y="-118.5" font-family="Helvetica,sans-Serif" font-size="10.00">MouseListener</text>
</a>
</g>
</g>
<!-- Node3&#45;&gt;Node2 -->
<g id="edge2_Node000002_Node000003" class="edge">
<title>Node3&#45;&gt;Node2</title>
<g id="a_edge2_Node000002_Node000003"><a xlink:title=" ">
<path fill="none" stroke="#63b8ff" d="M39.88,-100.13C39.88,-91.9 39.88,-82.85 39.88,-76.3"/>
<polygon fill="#63b8ff" stroke="#63b8ff" points="36.38,-100.08 39.88,-110.08 43.38,-100.08 36.38,-100.08"/>
</a>
</g>
</g>
<!-- Node4 -->
<g id="Node000004" class="node">
<title>Node4</title>
<g id="a_Node000004"><a xlink:href="classChangeListener.html" target="_top" xlink:title="Receives change event callbacks that are sent out by a ChangeBroadcaster.">
<polygon fill="white" stroke="#666666" points="175,-76 90.75,-76 90.75,-56 175,-56 175,-76"/>
<text xml:space="preserve" text-anchor="middle" x="132.88" y="-62.5" font-family="Helvetica,sans-Serif" font-size="10.00">ChangeListener</text>
</a>
</g>
</g>
<!-- Node4&#45;&gt;Node1 -->
<g id="edge3_Node000001_Node000004" class="edge">
<title>Node4&#45;&gt;Node1</title>
<g id="a_edge3_Node000001_Node000004"><a xlink:title=" ">
<path fill="none" stroke="#8b1a1a" d="M117.21,-47C109.43,-38.06 100.34,-27.62 93.97,-20.3"/>
<polygon fill="#8b1a1a" stroke="#8b1a1a" points="114.49,-49.21 123.69,-54.45 119.77,-44.61 114.49,-49.21"/>
</a>
</g>
</g>
</g>
</svg>
