<?xml version="1.0" encoding="UTF-8" standalone="no"?>
<!DOCTYPE svg PUBLIC "-//W3C//DTD SVG 1.1//EN"
 "http://www.w3.org/Graphics/SVG/1.1/DTD/svg11.dtd">
<!-- Generated by graphviz version 13.1.0 (20250701.0955)
 -->
<!-- Title: ARADocumentControllerSpecialisation Pages: 1 -->
<svg width="362pt" height="266pt"
 viewBox="0.00 0.00 362.00 266.00" xmlns="http://www.w3.org/2000/svg" xmlns:xlink="http://www.w3.org/1999/xlink">
<g id="graph0" class="graph" transform="scale(1 1) rotate(0) translate(4 262)">
<title>ARADocumentControllerSpecialisation</title>
<!-- Node1 -->
<g id="Node000001" class="node">
<title>Node1</title>
<g id="a_Node000001"><a xlink:title="This class contains the customisation points for the JUCE provided ARA document controller implementa...">
<polygon fill="#999999" stroke="#666666" points="353.75,-142 169,-142 169,-122 353.75,-122 353.75,-142"/>
<text xml:space="preserve" text-anchor="middle" x="261.38" y="-128.5" font-family="Helvetica,sans-Serif" font-size="10.00">ARADocumentControllerSpecialisation</text>
</a>
</g>
</g>
<!-- Node2 -->
<g id="Node000002" class="node">
<title>Node2</title>
<g id="a_Node000002"><a xlink:href="classARADocumentListener.html" target="_top" xlink:title="A base class for listeners that want to know about changes to an ARADocument object.">
<polygon fill="white" stroke="#666666" points="127.75,-258 5.25,-258 5.25,-238 127.75,-238 127.75,-258"/>
<text xml:space="preserve" text-anchor="middle" x="66.5" y="-244.5" font-family="Helvetica,sans-Serif" font-size="10.00">ARADocument::Listener</text>
</a>
</g>
</g>
<!-- Node2&#45;&gt;Node1 -->
<g id="edge1_Node000001_Node000002" class="edge">
<title>Node2&#45;&gt;Node1</title>
<g id="a_edge1_Node000001_Node000002"><a xlink:title=" ">
<path fill="none" stroke="#63b8ff" d="M122.25,-233.8C125.95,-232.33 129.56,-230.73 133,-229 180.91,-204.87 228.98,-161.99 249.73,-142.35"/>
<polygon fill="#63b8ff" stroke="#63b8ff" points="121.33,-230.41 113.12,-237.09 123.71,-236.99 121.33,-230.41"/>
</a>
</g>
</g>
<!-- Node3 -->
<g id="Node000003" class="node">
<title>Node3</title>
<g id="a_Node000003"><a xlink:href="classARAMusicalContextListener.html" target="_top" xlink:title="A base class for listeners that want to know about changes to an ARAMusicalContext object.">
<polygon fill="white" stroke="#666666" points="122.12,-220 10.88,-220 10.88,-188 122.12,-188 122.12,-220"/>
<text xml:space="preserve" text-anchor="start" x="18.88" y="-206.5" font-family="Helvetica,sans-Serif" font-size="10.00">ARAMusicalContext::</text>
<text xml:space="preserve" text-anchor="middle" x="66.5" y="-194.5" font-family="Helvetica,sans-Serif" font-size="10.00">Listener</text>
</a>
</g>
</g>
<!-- Node3&#45;&gt;Node1 -->
<g id="edge2_Node000001_Node000003" class="edge">
<title>Node3&#45;&gt;Node1</title>
<g id="a_edge2_Node000001_Node000003"><a xlink:title=" ">
<path fill="none" stroke="#63b8ff" d="M121.61,-183.8C157.59,-170.37 203.39,-153.27 232.3,-142.48"/>
<polygon fill="#63b8ff" stroke="#63b8ff" points="120.83,-180.36 112.68,-187.13 123.28,-186.91 120.83,-180.36"/>
</a>
</g>
</g>
<!-- Node4 -->
<g id="Node000004" class="node">
<title>Node4</title>
<g id="a_Node000004"><a xlink:href="classARARegionSequenceListener.html" target="_top" xlink:title="A base class for listeners that want to know about changes to an ARARegionSequence object.">
<polygon fill="white" stroke="#666666" points="125.12,-170 7.88,-170 7.88,-138 125.12,-138 125.12,-170"/>
<text xml:space="preserve" text-anchor="start" x="15.88" y="-156.5" font-family="Helvetica,sans-Serif" font-size="10.00">ARARegionSequence::</text>
<text xml:space="preserve" text-anchor="middle" x="66.5" y="-144.5" font-family="Helvetica,sans-Serif" font-size="10.00">Listener</text>
</a>
</g>
</g>
<!-- Node4&#45;&gt;Node1 -->
<g id="edge3_Node000001_Node000004" class="edge">
<title>Node4&#45;&gt;Node1</title>
<g id="a_edge3_Node000001_Node000004"><a xlink:title=" ">
<path fill="none" stroke="#63b8ff" d="M136.48,-146.13C146.91,-144.94 157.81,-143.7 168.64,-142.46"/>
<polygon fill="#63b8ff" stroke="#63b8ff" points="136.41,-142.62 126.87,-147.23 137.2,-149.57 136.41,-142.62"/>
</a>
</g>
</g>
<!-- Node5 -->
<g id="Node000005" class="node">
<title>Node5</title>
<g id="a_Node000005"><a xlink:href="classARAAudioSourceListener.html" target="_top" xlink:title="A base class for listeners that want to know about changes to an ARAAudioSource object.">
<polygon fill="white" stroke="#666666" points="133,-120 0,-120 0,-100 133,-100 133,-120"/>
<text xml:space="preserve" text-anchor="middle" x="66.5" y="-106.5" font-family="Helvetica,sans-Serif" font-size="10.00">ARAAudioSource::Listener</text>
</a>
</g>
</g>
<!-- Node5&#45;&gt;Node1 -->
<g id="edge4_Node000001_Node000005" class="edge">
<title>Node5&#45;&gt;Node1</title>
<g id="a_edge4_Node000001_Node000005"><a xlink:title=" ">
<path fill="none" stroke="#63b8ff" d="M144.69,-118.8C152.54,-119.7 160.57,-120.62 168.55,-121.53"/>
<polygon fill="#63b8ff" stroke="#63b8ff" points="145.17,-115.34 134.84,-117.68 144.38,-122.29 145.17,-115.34"/>
</a>
</g>
</g>
<!-- Node6 -->
<g id="Node000006" class="node">
<title>Node6</title>
<g id="a_Node000006"><a xlink:href="classARAAudioModificationListener.html" target="_top" xlink:title="A base class for listeners that want to know about changes to an ARAAudioModification object.">
<polygon fill="white" stroke="#666666" points="123.62,-82 9.37,-82 9.37,-50 123.62,-50 123.62,-82"/>
<text xml:space="preserve" text-anchor="start" x="17.38" y="-68.5" font-family="Helvetica,sans-Serif" font-size="10.00">ARAAudioModification</text>
<text xml:space="preserve" text-anchor="middle" x="66.5" y="-56.5" font-family="Helvetica,sans-Serif" font-size="10.00">::Listener</text>
</a>
</g>
</g>
<!-- Node6&#45;&gt;Node1 -->
<g id="edge5_Node000001_Node000006" class="edge">
<title>Node6&#45;&gt;Node1</title>
<g id="a_edge5_Node000001_Node000006"><a xlink:title=" ">
<path fill="none" stroke="#63b8ff" d="M126.48,-86.18C160.66,-97.88 202.27,-112.12 229.94,-121.59"/>
<polygon fill="#63b8ff" stroke="#63b8ff" points="127.7,-82.9 117.1,-82.97 125.43,-89.52 127.7,-82.9"/>
</a>
</g>
</g>
<!-- Node7 -->
<g id="Node000007" class="node">
<title>Node7</title>
<g id="a_Node000007"><a xlink:href="classARAPlaybackRegionListener.html" target="_top" xlink:title="A base class for listeners that want to know about changes to an ARAPlaybackRegion object.">
<polygon fill="white" stroke="#666666" points="123.62,-32 9.37,-32 9.37,0 123.62,0 123.62,-32"/>
<text xml:space="preserve" text-anchor="start" x="17.38" y="-18.5" font-family="Helvetica,sans-Serif" font-size="10.00">ARAPlaybackRegion::</text>
<text xml:space="preserve" text-anchor="middle" x="66.5" y="-6.5" font-family="Helvetica,sans-Serif" font-size="10.00">Listener</text>
</a>
</g>
</g>
<!-- Node7&#45;&gt;Node1 -->
<g id="edge6_Node000001_Node000007" class="edge">
<title>Node7&#45;&gt;Node1</title>
<g id="a_edge6_Node000001_Node000007"><a xlink:title=" ">
<path fill="none" stroke="#63b8ff" d="M125.31,-37.11C127.94,-38.37 130.51,-39.67 133,-41 178.26,-65.29 226.12,-103.31 248.07,-121.55"/>
<polygon fill="#63b8ff" stroke="#63b8ff" points="126.95,-34.01 116.4,-33.1 124.08,-40.39 126.95,-34.01"/>
</a>
</g>
</g>
</g>
</svg>
