<?xml version="1.0" encoding="UTF-8" standalone="no"?>
<!DOCTYPE svg PUBLIC "-//W3C//DTD SVG 1.1//EN"
 "http://www.w3.org/Graphics/SVG/1.1/DTD/svg11.dtd">
<!-- Generated by graphviz version 13.1.0 (20250701.0955)
 -->
<!-- Title: DocumentWindow Pages: 1 -->
<svg width="387pt" height="308pt"
 viewBox="0.00 0.00 387.00 308.00" xmlns="http://www.w3.org/2000/svg" xmlns:xlink="http://www.w3.org/1999/xlink">
<g id="graph0" class="graph" transform="scale(1 1) rotate(0) translate(4 304)">
<title>DocumentWindow</title>
<!-- Node1 -->
<g id="Node000001" class="node">
<title>Node1</title>
<g id="a_Node000001"><a xlink:title="A resizable window with a title bar and maximise, minimise and close buttons.">
<polygon fill="#999999" stroke="#666666" points="216.62,-76 120.38,-76 120.38,-56 216.62,-56 216.62,-76"/>
<text xml:space="preserve" text-anchor="middle" x="168.5" y="-62.5" font-family="Helvetica,sans-Serif" font-size="10.00">DocumentWindow</text>
</a>
</g>
</g>
<!-- Node6 -->
<g id="Node000006" class="node">
<title>Node6</title>
<g id="a_Node000006"><a xlink:href="classDialogWindow.html" target="_top" xlink:title="A dialog&#45;box style window.">
<polygon fill="white" stroke="#666666" points="79,-20 0,-20 0,0 79,0 79,-20"/>
<text xml:space="preserve" text-anchor="middle" x="39.5" y="-6.5" font-family="Helvetica,sans-Serif" font-size="10.00">DialogWindow</text>
</a>
</g>
</g>
<!-- Node1&#45;&gt;Node6 -->
<g id="edge5_Node000001_Node000006" class="edge">
<title>Node1&#45;&gt;Node6</title>
<g id="a_edge5_Node000001_Node000006"><a xlink:title=" ">
<path fill="none" stroke="#63b8ff" d="M135.7,-51.27C112.69,-41.64 82.52,-29.01 62.15,-20.48"/>
<polygon fill="#63b8ff" stroke="#63b8ff" points="134.06,-54.38 144.63,-55.01 136.76,-47.92 134.06,-54.38"/>
</a>
</g>
</g>
<!-- Node7 -->
<g id="Node000007" class="node">
<title>Node7</title>
<g id="a_Node000007"><a xlink:href="classMultiDocumentPanelWindow.html" target="_top" xlink:title="This is a derivative of DocumentWindow that is used inside a MultiDocumentPanel component.">
<polygon fill="white" stroke="#666666" points="239.5,-20 97.5,-20 97.5,0 239.5,0 239.5,-20"/>
<text xml:space="preserve" text-anchor="middle" x="168.5" y="-6.5" font-family="Helvetica,sans-Serif" font-size="10.00">MultiDocumentPanelWindow</text>
</a>
</g>
</g>
<!-- Node1&#45;&gt;Node7 -->
<g id="edge6_Node000001_Node000007" class="edge">
<title>Node1&#45;&gt;Node7</title>
<g id="a_edge6_Node000001_Node000007"><a xlink:title=" ">
<path fill="none" stroke="#63b8ff" d="M168.5,-44.13C168.5,-35.9 168.5,-26.85 168.5,-20.3"/>
<polygon fill="#63b8ff" stroke="#63b8ff" points="165,-44.08 168.5,-54.08 172,-44.08 165,-44.08"/>
</a>
</g>
</g>
<!-- Node8 -->
<g id="Node000008" class="node">
<title>Node8</title>
<g id="a_Node000008"><a xlink:href="classStandaloneFilterWindow.html" target="_top" xlink:title="A class that can be used to run a simple standalone application containing your filter.">
<polygon fill="white" stroke="#666666" points="379.38,-20 257.62,-20 257.62,0 379.38,0 379.38,-20"/>
<text xml:space="preserve" text-anchor="middle" x="318.5" y="-6.5" font-family="Helvetica,sans-Serif" font-size="10.00">StandaloneFilterWindow</text>
</a>
</g>
</g>
<!-- Node1&#45;&gt;Node8 -->
<g id="edge7_Node000001_Node000008" class="edge">
<title>Node1&#45;&gt;Node8</title>
<g id="a_edge7_Node000001_Node000008"><a xlink:title=" ">
<path fill="none" stroke="#63b8ff" d="M205.19,-51.79C232.12,-42.1 268.05,-29.16 292.17,-20.48"/>
<polygon fill="#63b8ff" stroke="#63b8ff" points="204.28,-48.4 196.05,-55.08 206.65,-54.99 204.28,-48.4"/>
</a>
</g>
</g>
<!-- Node2 -->
<g id="Node000002" class="node">
<title>Node2</title>
<g id="a_Node000002"><a xlink:href="classResizableWindow.html" target="_top" xlink:title="A base class for top&#45;level windows that can be dragged around and resized.">
<polygon fill="white" stroke="#666666" points="215.88,-132 121.12,-132 121.12,-112 215.88,-112 215.88,-132"/>
<text xml:space="preserve" text-anchor="middle" x="168.5" y="-118.5" font-family="Helvetica,sans-Serif" font-size="10.00">ResizableWindow</text>
</a>
</g>
</g>
<!-- Node2&#45;&gt;Node1 -->
<g id="edge1_Node000001_Node000002" class="edge">
<title>Node2&#45;&gt;Node1</title>
<g id="a_edge1_Node000001_Node000002"><a xlink:title=" ">
<path fill="none" stroke="#63b8ff" d="M168.5,-100.13C168.5,-91.9 168.5,-82.85 168.5,-76.3"/>
<polygon fill="#63b8ff" stroke="#63b8ff" points="165,-100.08 168.5,-110.08 172,-100.08 165,-100.08"/>
</a>
</g>
</g>
<!-- Node3 -->
<g id="Node000003" class="node">
<title>Node3</title>
<g id="a_Node000003"><a xlink:href="classTopLevelWindow.html" target="_top" xlink:title="A base class for top&#45;level windows.">
<polygon fill="white" stroke="#666666" points="213.62,-188 123.38,-188 123.38,-168 213.62,-168 213.62,-188"/>
<text xml:space="preserve" text-anchor="middle" x="168.5" y="-174.5" font-family="Helvetica,sans-Serif" font-size="10.00">TopLevelWindow</text>
</a>
</g>
</g>
<!-- Node3&#45;&gt;Node2 -->
<g id="edge2_Node000002_Node000003" class="edge">
<title>Node3&#45;&gt;Node2</title>
<g id="a_edge2_Node000002_Node000003"><a xlink:title=" ">
<path fill="none" stroke="#63b8ff" d="M168.5,-156.13C168.5,-147.9 168.5,-138.85 168.5,-132.3"/>
<polygon fill="#63b8ff" stroke="#63b8ff" points="165,-156.08 168.5,-166.08 172,-156.08 165,-156.08"/>
</a>
</g>
</g>
<!-- Node4 -->
<g id="Node000004" class="node">
<title>Node4</title>
<g id="a_Node000004"><a xlink:href="classComponent.html" target="_top" xlink:title="The base class for all JUCE user&#45;interface objects.">
<polygon fill="white" stroke="#666666" points="201.62,-244 135.38,-244 135.38,-224 201.62,-224 201.62,-244"/>
<text xml:space="preserve" text-anchor="middle" x="168.5" y="-230.5" font-family="Helvetica,sans-Serif" font-size="10.00">Component</text>
</a>
</g>
</g>
<!-- Node4&#45;&gt;Node3 -->
<g id="edge3_Node000003_Node000004" class="edge">
<title>Node4&#45;&gt;Node3</title>
<g id="a_edge3_Node000003_Node000004"><a xlink:title=" ">
<path fill="none" stroke="#63b8ff" d="M168.5,-212.13C168.5,-203.9 168.5,-194.85 168.5,-188.3"/>
<polygon fill="#63b8ff" stroke="#63b8ff" points="165,-212.08 168.5,-222.08 172,-212.08 165,-212.08"/>
</a>
</g>
</g>
<!-- Node5 -->
<g id="Node000005" class="node">
<title>Node5</title>
<g id="a_Node000005"><a xlink:href="classMouseListener.html" target="_top" xlink:title="A MouseListener can be registered with a component to receive callbacks about mouse events that happe...">
<polygon fill="white" stroke="#666666" points="208.38,-300 128.62,-300 128.62,-280 208.38,-280 208.38,-300"/>
<text xml:space="preserve" text-anchor="middle" x="168.5" y="-286.5" font-family="Helvetica,sans-Serif" font-size="10.00">MouseListener</text>
</a>
</g>
</g>
<!-- Node5&#45;&gt;Node4 -->
<g id="edge4_Node000004_Node000005" class="edge">
<title>Node5&#45;&gt;Node4</title>
<g id="a_edge4_Node000004_Node000005"><a xlink:title=" ">
<path fill="none" stroke="#63b8ff" d="M168.5,-268.13C168.5,-259.9 168.5,-250.85 168.5,-244.3"/>
<polygon fill="#63b8ff" stroke="#63b8ff" points="165,-268.08 168.5,-278.08 172,-268.08 165,-268.08"/>
</a>
</g>
</g>
</g>
</svg>
