<?xml version="1.0" encoding="UTF-8" standalone="no"?>
<!DOCTYPE svg PUBLIC "-//W3C//DTD SVG 1.1//EN"
 "http://www.w3.org/Graphics/SVG/1.1/DTD/svg11.dtd">
<!-- Generated by graphviz version 13.1.0 (20250701.0955)
 -->
<!-- Title: ImageEffectFilter Pages: 1 -->
<svg width="188pt" height="84pt"
 viewBox="0.00 0.00 188.00 84.00" xmlns="http://www.w3.org/2000/svg" xmlns:xlink="http://www.w3.org/1999/xlink">
<g id="graph0" class="graph" transform="scale(1 1) rotate(0) translate(4 80)">
<title>ImageEffectFilter</title>
<!-- Node1 -->
<g id="Node000001" class="node">
<title>Node1</title>
<g id="a_Node000001"><a xlink:title="A graphical effect filter that can be applied to components.">
<polygon fill="#999999" stroke="#666666" points="143,-76 52.75,-76 52.75,-56 143,-56 143,-76"/>
<text xml:space="preserve" text-anchor="middle" x="97.88" y="-62.5" font-family="Helvetica,sans-Serif" font-size="10.00">ImageEffectFilter</text>
</a>
</g>
</g>
<!-- Node2 -->
<g id="Node000002" class="node">
<title>Node2</title>
<g id="a_Node000002"><a xlink:href="classDropShadowEffect.html" target="_top" xlink:title="An effect filter that adds a drop&#45;shadow behind the image&#39;s content.">
<polygon fill="white" stroke="#666666" points="97.75,-20 0,-20 0,0 97.75,0 97.75,-20"/>
<text xml:space="preserve" text-anchor="middle" x="48.88" y="-6.5" font-family="Helvetica,sans-Serif" font-size="10.00">DropShadowEffect</text>
</a>
</g>
</g>
<!-- Node1&#45;&gt;Node2 -->
<g id="edge1_Node000001_Node000002" class="edge">
<title>Node1&#45;&gt;Node2</title>
<g id="a_edge1_Node000001_Node000002"><a xlink:title=" ">
<path fill="none" stroke="#63b8ff" d="M81.8,-47.29C73.63,-38.28 64.03,-27.7 57.31,-20.3"/>
<polygon fill="#63b8ff" stroke="#63b8ff" points="79.01,-49.42 88.32,-54.47 84.19,-44.72 79.01,-49.42"/>
</a>
</g>
</g>
<!-- Node3 -->
<g id="Node000003" class="node">
<title>Node3</title>
<g id="a_Node000003"><a xlink:href="classGlowEffect.html" target="_top" xlink:title="A component effect that adds a coloured blur around the component&#39;s contents.">
<polygon fill="white" stroke="#666666" points="179.88,-20 115.88,-20 115.88,0 179.88,0 179.88,-20"/>
<text xml:space="preserve" text-anchor="middle" x="147.88" y="-6.5" font-family="Helvetica,sans-Serif" font-size="10.00">GlowEffect</text>
</a>
</g>
</g>
<!-- Node1&#45;&gt;Node3 -->
<g id="edge2_Node000001_Node000003" class="edge">
<title>Node1&#45;&gt;Node3</title>
<g id="a_edge2_Node000001_Node000003"><a xlink:title=" ">
<path fill="none" stroke="#63b8ff" d="M114.28,-47.29C122.62,-38.28 132.41,-27.7 139.27,-20.3"/>
<polygon fill="#63b8ff" stroke="#63b8ff" points="111.84,-44.77 107.61,-54.48 116.97,-49.52 111.84,-44.77"/>
</a>
</g>
</g>
</g>
</svg>
