<?xml version="1.0" encoding="UTF-8" standalone="no"?>
<!DOCTYPE svg PUBLIC "-//W3C//DTD SVG 1.1//EN"
 "http://www.w3.org/Graphics/SVG/1.1/DTD/svg11.dtd">
<!-- Generated by graphviz version 13.1.0 (20250701.0955)
 -->
<!-- Title: ARAAudioSourceListener Pages: 1 -->
<svg width="334pt" height="84pt"
 viewBox="0.00 0.00 334.00 84.00" xmlns="http://www.w3.org/2000/svg" xmlns:xlink="http://www.w3.org/1999/xlink">
<g id="graph0" class="graph" transform="scale(1 1) rotate(0) translate(4 80)">
<title>ARAAudioSourceListener</title>
<!-- Node1 -->
<g id="Node000001" class="node">
<title>Node1</title>
<g id="a_Node000001"><a xlink:title="A base class for listeners that want to know about changes to an ARAAudioSource object.">
<polygon fill="#999999" stroke="#666666" points="211.5,-76 84.5,-76 84.5,-56 211.5,-56 211.5,-76"/>
<text xml:space="preserve" text-anchor="middle" x="148" y="-62.5" font-family="Helvetica,sans-Serif" font-size="10.00">ARAAudioSourceListener</text>
</a>
</g>
</g>
<!-- Node2 -->
<g id="Node000002" class="node">
<title>Node2</title>
<g id="a_Node000002"><a xlink:href="classARAAudioSourceReader.html" target="_top" xlink:title="Subclass of AudioFormatReader that reads samples from a single ARA audio source.">
<polygon fill="white" stroke="#666666" points="124,-20 0,-20 0,0 124,0 124,-20"/>
<text xml:space="preserve" text-anchor="middle" x="62" y="-6.5" font-family="Helvetica,sans-Serif" font-size="10.00">ARAAudioSourceReader</text>
</a>
</g>
</g>
<!-- Node1&#45;&gt;Node2 -->
<g id="edge1_Node000001_Node000002" class="edge">
<title>Node1&#45;&gt;Node2</title>
<g id="a_edge1_Node000001_Node000002"><a xlink:title=" ">
<path fill="none" stroke="#8b1a1a" d="M123.38,-49.54C108.45,-40.17 89.88,-28.51 77.1,-20.48"/>
<polygon fill="#8b1a1a" stroke="#8b1a1a" points="121.41,-52.44 131.74,-54.79 125.13,-46.51 121.41,-52.44"/>
</a>
</g>
</g>
<!-- Node3 -->
<g id="Node000003" class="node">
<title>Node3</title>
<g id="a_Node000003"><a xlink:href="classARADocumentControllerSpecialisation.html" target="_top" xlink:title="This class contains the customisation points for the JUCE provided ARA document controller implementa...">
<polygon fill="white" stroke="#666666" points="326.38,-20 141.62,-20 141.62,0 326.38,0 326.38,-20"/>
<text xml:space="preserve" text-anchor="middle" x="234" y="-6.5" font-family="Helvetica,sans-Serif" font-size="10.00">ARADocumentControllerSpecialisation</text>
</a>
</g>
</g>
<!-- Node1&#45;&gt;Node3 -->
<g id="edge2_Node000001_Node000003" class="edge">
<title>Node1&#45;&gt;Node3</title>
<g id="a_edge2_Node000001_Node000003"><a xlink:title=" ">
<path fill="none" stroke="#63b8ff" d="M172.62,-49.54C187.55,-40.17 206.12,-28.51 218.9,-20.48"/>
<polygon fill="#63b8ff" stroke="#63b8ff" points="170.87,-46.51 164.26,-54.79 174.59,-52.44 170.87,-46.51"/>
</a>
</g>
</g>
</g>
</svg>
