<?xml version="1.0" encoding="UTF-8" standalone="no"?>
<!DOCTYPE svg PUBLIC "-//W3C//DTD SVG 1.1//EN"
 "http://www.w3.org/Graphics/SVG/1.1/DTD/svg11.dtd">
<!-- Generated by graphviz version 13.1.0 (20250701.0955)
 -->
<!-- Title: NativeScaleFactorNotifier Pages: 1 -->
<svg width="320pt" height="152pt"
 viewBox="0.00 0.00 320.00 152.00" xmlns="http://www.w3.org/2000/svg" xmlns:xlink="http://www.w3.org/1999/xlink">
<g id="graph0" class="graph" transform="scale(1 1) rotate(0) translate(4 148)">
<title>NativeScaleFactorNotifier</title>
<!-- Node1 -->
<g id="Node000001" class="node">
<title>Node1</title>
<g id="a_Node000001"><a xlink:title="Calls a function every time the native scale factor of a component&#39;s peer changes.">
<polygon fill="#999999" stroke="#666666" points="220.25,-20 91.75,-20 91.75,0 220.25,0 220.25,-20"/>
<text xml:space="preserve" text-anchor="middle" x="156" y="-6.5" font-family="Helvetica,sans-Serif" font-size="10.00">NativeScaleFactorNotifier</text>
</a>
</g>
</g>
<!-- Node2 -->
<g id="Node000002" class="node">
<title>Node2</title>
<g id="a_Node000002"><a xlink:href="classComponentMovementWatcher.html" target="_top" xlink:title="An object that watches for any movement of a component or any of its parent components.">
<polygon fill="white" stroke="#666666" points="148,-82 0,-82 0,-62 148,-62 148,-82"/>
<text xml:space="preserve" text-anchor="middle" x="74" y="-68.5" font-family="Helvetica,sans-Serif" font-size="10.00">ComponentMovementWatcher</text>
</a>
</g>
</g>
<!-- Node2&#45;&gt;Node1 -->
<g id="edge1_Node000001_Node000002" class="edge">
<title>Node2&#45;&gt;Node1</title>
<g id="a_edge1_Node000001_Node000002"><a xlink:title=" ">
<path fill="none" stroke="#8b1a1a" d="M95.99,-54.91C111.12,-43.84 130.67,-29.53 143.28,-20.31"/>
<polygon fill="#8b1a1a" stroke="#8b1a1a" points="94.04,-52 88.03,-60.73 98.17,-57.65 94.04,-52"/>
</a>
</g>
</g>
<!-- Node3 -->
<g id="Node000003" class="node">
<title>Node3</title>
<g id="a_Node000003"><a xlink:href="classComponentListener.html" target="_top" xlink:title="Gets informed about changes to a component&#39;s hierarchy or position.">
<polygon fill="white" stroke="#666666" points="124.38,-144 23.62,-144 23.62,-124 124.38,-124 124.38,-144"/>
<text xml:space="preserve" text-anchor="middle" x="74" y="-130.5" font-family="Helvetica,sans-Serif" font-size="10.00">ComponentListener</text>
</a>
</g>
</g>
<!-- Node3&#45;&gt;Node2 -->
<g id="edge2_Node000002_Node000003" class="edge">
<title>Node3&#45;&gt;Node2</title>
<g id="a_edge2_Node000002_Node000003"><a xlink:title=" ">
<path fill="none" stroke="#63b8ff" d="M74,-112.25C74,-101.97 74,-90.09 74,-82.11"/>
<polygon fill="#63b8ff" stroke="#63b8ff" points="70.5,-112.11 74,-122.11 77.5,-112.11 70.5,-112.11"/>
</a>
</g>
</g>
<!-- Node4 -->
<g id="Node000004" class="node">
<title>Node4</title>
<g id="a_Node000004"><a xlink:href="structComponentPeer_1_1ScaleFactorListener.html" target="_top" xlink:title="Used to receive callbacks when the OS scale factor of this ComponentPeer changes.">
<polygon fill="white" stroke="#666666" points="311.5,-88 166.5,-88 166.5,-56 311.5,-56 311.5,-88"/>
<text xml:space="preserve" text-anchor="start" x="174.5" y="-74.5" font-family="Helvetica,sans-Serif" font-size="10.00">ComponentPeer::ScaleFactor</text>
<text xml:space="preserve" text-anchor="middle" x="239" y="-62.5" font-family="Helvetica,sans-Serif" font-size="10.00">Listener</text>
</a>
</g>
</g>
<!-- Node4&#45;&gt;Node1 -->
<g id="edge3_Node000001_Node000004" class="edge">
<title>Node4&#45;&gt;Node1</title>
<g id="a_edge3_Node000001_Node000004"><a xlink:title=" ">
<path fill="none" stroke="#8b1a1a" d="M208.55,-48.99C194.92,-39.14 179.59,-28.05 169.01,-20.41"/>
<polygon fill="#8b1a1a" stroke="#8b1a1a" points="206.24,-51.64 216.4,-54.66 210.35,-45.97 206.24,-51.64"/>
</a>
</g>
</g>
</g>
</svg>
