<?xml version="1.0" encoding="UTF-8" standalone="no"?>
<!DOCTYPE svg PUBLIC "-//W3C//DTD SVG 1.1//EN"
 "http://www.w3.org/Graphics/SVG/1.1/DTD/svg11.dtd">
<!-- Generated by graphviz version 13.1.0 (20250701.0955)
 -->
<!-- Title: InputSource Pages: 1 -->
<svg width="364pt" height="84pt"
 viewBox="0.00 0.00 364.00 84.00" xmlns="http://www.w3.org/2000/svg" xmlns:xlink="http://www.w3.org/1999/xlink">
<g id="graph0" class="graph" transform="scale(1 1) rotate(0) translate(4 80)">
<title>InputSource</title>
<!-- Node1 -->
<g id="Node000001" class="node">
<title>Node1</title>
<g id="a_Node000001"><a xlink:title="A lightweight object that can create a stream to read some kind of resource.">
<polygon fill="#999999" stroke="#666666" points="240.5,-76 172,-76 172,-56 240.5,-56 240.5,-76"/>
<text xml:space="preserve" text-anchor="middle" x="206.25" y="-62.5" font-family="Helvetica,sans-Serif" font-size="10.00">InputSource</text>
</a>
</g>
</g>
<!-- Node2 -->
<g id="Node000002" class="node">
<title>Node2</title>
<g id="a_Node000002"><a xlink:href="classAndroidDocumentInputSource.html" target="_top" xlink:title="An InputSource backed by an AndroidDocument.">
<polygon fill="white" stroke="#666666" points="146.5,-20 0,-20 0,0 146.5,0 146.5,-20"/>
<text xml:space="preserve" text-anchor="middle" x="73.25" y="-6.5" font-family="Helvetica,sans-Serif" font-size="10.00">AndroidDocumentInputSource</text>
</a>
</g>
</g>
<!-- Node1&#45;&gt;Node2 -->
<g id="edge1_Node000001_Node000002" class="edge">
<title>Node1&#45;&gt;Node2</title>
<g id="a_edge1_Node000001_Node000002"><a xlink:title=" ">
<path fill="none" stroke="#63b8ff" d="M172.44,-51.27C148.71,-41.64 117.6,-29.01 96.6,-20.48"/>
<polygon fill="#63b8ff" stroke="#63b8ff" points="171.1,-54.51 181.68,-55.02 173.73,-48.02 171.1,-54.51"/>
</a>
</g>
</g>
<!-- Node3 -->
<g id="Node000003" class="node">
<title>Node3</title>
<g id="a_Node000003"><a xlink:href="classFileInputSource.html" target="_top" xlink:title="A type of InputSource that represents a normal file.">
<polygon fill="white" stroke="#666666" points="248.38,-20 164.12,-20 164.12,0 248.38,0 248.38,-20"/>
<text xml:space="preserve" text-anchor="middle" x="206.25" y="-6.5" font-family="Helvetica,sans-Serif" font-size="10.00">FileInputSource</text>
</a>
</g>
</g>
<!-- Node1&#45;&gt;Node3 -->
<g id="edge2_Node000001_Node000003" class="edge">
<title>Node1&#45;&gt;Node3</title>
<g id="a_edge2_Node000001_Node000003"><a xlink:title=" ">
<path fill="none" stroke="#63b8ff" d="M206.25,-44.13C206.25,-35.9 206.25,-26.85 206.25,-20.3"/>
<polygon fill="#63b8ff" stroke="#63b8ff" points="202.75,-44.08 206.25,-54.08 209.75,-44.08 202.75,-44.08"/>
</a>
</g>
</g>
<!-- Node4 -->
<g id="Node000004" class="node">
<title>Node4</title>
<g id="a_Node000004"><a xlink:href="classURLInputSource.html" target="_top" xlink:title="A type of InputSource that represents a URL.">
<polygon fill="white" stroke="#666666" points="355.62,-20 266.88,-20 266.88,0 355.62,0 355.62,-20"/>
<text xml:space="preserve" text-anchor="middle" x="311.25" y="-6.5" font-family="Helvetica,sans-Serif" font-size="10.00">URLInputSource</text>
</a>
</g>
</g>
<!-- Node1&#45;&gt;Node4 -->
<g id="edge3_Node000001_Node000004" class="edge">
<title>Node1&#45;&gt;Node4</title>
<g id="a_edge3_Node000001_Node000004"><a xlink:title=" ">
<path fill="none" stroke="#63b8ff" d="M234.74,-50.35C253.22,-40.84 276.76,-28.74 292.82,-20.48"/>
<polygon fill="#63b8ff" stroke="#63b8ff" points="233.18,-47.22 225.89,-54.9 236.38,-53.44 233.18,-47.22"/>
</a>
</g>
</g>
</g>
</svg>
