<?xml version="1.0" encoding="UTF-8" standalone="no"?>
<!DOCTYPE svg PUBLIC "-//W3C//DTD SVG 1.1//EN"
 "http://www.w3.org/Graphics/SVG/1.1/DTD/svg11.dtd">
<!-- Generated by graphviz version 13.1.0 (20250701.0955)
 -->
<!-- Title: FocusChangeListener Pages: 1 -->
<svg width="389pt" height="84pt"
 viewBox="0.00 0.00 389.00 84.00" xmlns="http://www.w3.org/2000/svg" xmlns:xlink="http://www.w3.org/1999/xlink">
<g id="graph0" class="graph" transform="scale(1 1) rotate(0) translate(4 80)">
<title>FocusChangeListener</title>
<!-- Node1 -->
<g id="Node000001" class="node">
<title>Node1</title>
<g id="a_Node000001"><a xlink:title="Classes can implement this interface and register themselves with the Desktop class to receive callba...">
<polygon fill="#999999" stroke="#666666" points="263.88,-76 152.62,-76 152.62,-56 263.88,-56 263.88,-76"/>
<text xml:space="preserve" text-anchor="middle" x="208.25" y="-62.5" font-family="Helvetica,sans-Serif" font-size="10.00">FocusChangeListener</text>
</a>
</g>
</g>
<!-- Node2 -->
<g id="Node000002" class="node">
<title>Node2</title>
<g id="a_Node000002"><a xlink:href="classApplicationCommandManager.html" target="_top" xlink:title="One of these objects holds a list of all the commands your app can perform, and despatches these comm...">
<polygon fill="white" stroke="#666666" points="146.5,-20 0,-20 0,0 146.5,0 146.5,-20"/>
<text xml:space="preserve" text-anchor="middle" x="73.25" y="-6.5" font-family="Helvetica,sans-Serif" font-size="10.00">ApplicationCommandManager</text>
</a>
</g>
</g>
<!-- Node1&#45;&gt;Node2 -->
<g id="edge1_Node000001_Node000002" class="edge">
<title>Node1&#45;&gt;Node2</title>
<g id="a_edge1_Node000001_Node000002"><a xlink:title=" ">
<path fill="none" stroke="#8b1a1a" d="M174.25,-51.4C150.13,-41.75 118.36,-29.05 96.95,-20.48"/>
<polygon fill="#8b1a1a" stroke="#8b1a1a" points="172.74,-54.57 183.33,-55.03 175.34,-48.07 172.74,-54.57"/>
</a>
</g>
</g>
<!-- Node3 -->
<g id="Node000003" class="node">
<title>Node3</title>
<g id="a_Node000003"><a xlink:href="classComponentPeer.html" target="_top" xlink:title="The Component class uses a ComponentPeer internally to create and manage a real operating&#45;system wind...">
<polygon fill="white" stroke="#666666" points="251.5,-20 165,-20 165,0 251.5,0 251.5,-20"/>
<text xml:space="preserve" text-anchor="middle" x="208.25" y="-6.5" font-family="Helvetica,sans-Serif" font-size="10.00">ComponentPeer</text>
</a>
</g>
</g>
<!-- Node1&#45;&gt;Node3 -->
<g id="edge2_Node000001_Node000003" class="edge">
<title>Node1&#45;&gt;Node3</title>
<g id="a_edge2_Node000001_Node000003"><a xlink:title=" ">
<path fill="none" stroke="#8b1a1a" d="M208.25,-44.13C208.25,-35.9 208.25,-26.85 208.25,-20.3"/>
<polygon fill="#8b1a1a" stroke="#8b1a1a" points="204.75,-44.08 208.25,-54.08 211.75,-44.08 204.75,-44.08"/>
</a>
</g>
</g>
<!-- Node4 -->
<g id="Node000004" class="node">
<title>Node4</title>
<g id="a_Node000004"><a xlink:href="classKeyPressMappingSet.html" target="_top" xlink:title="Manages and edits a list of keypresses, which it uses to invoke the appropriate command in an Applica...">
<polygon fill="white" stroke="#666666" points="380.5,-20 270,-20 270,0 380.5,0 380.5,-20"/>
<text xml:space="preserve" text-anchor="middle" x="325.25" y="-6.5" font-family="Helvetica,sans-Serif" font-size="10.00">KeyPressMappingSet</text>
</a>
</g>
</g>
<!-- Node1&#45;&gt;Node4 -->
<g id="edge3_Node000001_Node000004" class="edge">
<title>Node1&#45;&gt;Node4</title>
<g id="a_edge3_Node000001_Node000004"><a xlink:title=" ">
<path fill="none" stroke="#8b1a1a" d="M238.85,-50.88C259.61,-41.3 286.49,-28.89 304.71,-20.48"/>
<polygon fill="#8b1a1a" stroke="#8b1a1a" points="237.62,-47.59 230,-54.96 240.55,-53.95 237.62,-47.59"/>
</a>
</g>
</g>
</g>
</svg>
