<?xml version="1.0" encoding="UTF-8" standalone="no"?>
<!DOCTYPE svg PUBLIC "-//W3C//DTD SVG 1.1//EN"
 "http://www.w3.org/Graphics/SVG/1.1/DTD/svg11.dtd">
<!-- Generated by graphviz version 13.1.0 (20250701.0955)
 -->
<!-- Title: AudioProcessorValueTreeState::Parameter Pages: 1 -->
<svg width="170pt" height="320pt"
 viewBox="0.00 0.00 170.00 320.00" xmlns="http://www.w3.org/2000/svg" xmlns:xlink="http://www.w3.org/1999/xlink">
<g id="graph0" class="graph" transform="scale(1 1) rotate(0) translate(4 316)">
<title>AudioProcessorValueTreeState::Parameter</title>
<!-- Node1 -->
<g id="Node000001" class="node">
<title>Node1</title>
<g id="a_Node000001"><a xlink:title="A parameter class that maintains backwards compatibility with deprecated AudioProcessorValueTreeState...">
<polygon fill="#999999" stroke="#666666" points="156.62,-32 4.88,-32 4.88,0 156.62,0 156.62,-32"/>
<text xml:space="preserve" text-anchor="start" x="12.88" y="-18.5" font-family="Helvetica,sans-Serif" font-size="10.00">AudioProcessorValueTreeState</text>
<text xml:space="preserve" text-anchor="middle" x="80.75" y="-6.5" font-family="Helvetica,sans-Serif" font-size="10.00">::Parameter</text>
</a>
</g>
</g>
<!-- Node2 -->
<g id="Node000002" class="node">
<title>Node2</title>
<g id="a_Node000002"><a xlink:href="classAudioParameterFloat.html" target="_top" xlink:title="A subclass of AudioProcessorParameter that provides an easy way to create a parameter which maps onto...">
<polygon fill="white" stroke="#666666" points="134.5,-88 27,-88 27,-68 134.5,-68 134.5,-88"/>
<text xml:space="preserve" text-anchor="middle" x="80.75" y="-74.5" font-family="Helvetica,sans-Serif" font-size="10.00">AudioParameterFloat</text>
</a>
</g>
</g>
<!-- Node2&#45;&gt;Node1 -->
<g id="edge1_Node000001_Node000002" class="edge">
<title>Node2&#45;&gt;Node1</title>
<g id="a_edge1_Node000001_Node000002"><a xlink:title=" ">
<path fill="none" stroke="#63b8ff" d="M80.75,-56.31C80.75,-48.37 80.75,-39.46 80.75,-32.14"/>
<polygon fill="#63b8ff" stroke="#63b8ff" points="77.25,-56.11 80.75,-66.11 84.25,-56.11 77.25,-56.11"/>
</a>
</g>
</g>
<!-- Node3 -->
<g id="Node000003" class="node">
<title>Node3</title>
<g id="a_Node000003"><a xlink:href="classRangedAudioParameter.html" target="_top" xlink:title="This abstract base class is used by some AudioProcessorParameter helper classes.">
<polygon fill="white" stroke="#666666" points="140.5,-144 21,-144 21,-124 140.5,-124 140.5,-144"/>
<text xml:space="preserve" text-anchor="middle" x="80.75" y="-130.5" font-family="Helvetica,sans-Serif" font-size="10.00">RangedAudioParameter</text>
</a>
</g>
</g>
<!-- Node3&#45;&gt;Node2 -->
<g id="edge2_Node000002_Node000003" class="edge">
<title>Node3&#45;&gt;Node2</title>
<g id="a_edge2_Node000002_Node000003"><a xlink:title=" ">
<path fill="none" stroke="#63b8ff" d="M80.75,-112.13C80.75,-103.9 80.75,-94.85 80.75,-88.3"/>
<polygon fill="#63b8ff" stroke="#63b8ff" points="77.25,-112.08 80.75,-122.08 84.25,-112.08 77.25,-112.08"/>
</a>
</g>
</g>
<!-- Node4 -->
<g id="Node000004" class="node">
<title>Node4</title>
<g id="a_Node000004"><a xlink:href="classAudioProcessorParameterWithID.html" target="_top" xlink:title="This abstract base class is used by some AudioProcessorParameter helper classes.">
<polygon fill="white" stroke="#666666" points="161.12,-200 0.38,-200 0.38,-180 161.12,-180 161.12,-200"/>
<text xml:space="preserve" text-anchor="middle" x="80.75" y="-186.5" font-family="Helvetica,sans-Serif" font-size="10.00">AudioProcessorParameterWithID</text>
</a>
</g>
</g>
<!-- Node4&#45;&gt;Node3 -->
<g id="edge3_Node000003_Node000004" class="edge">
<title>Node4&#45;&gt;Node3</title>
<g id="a_edge3_Node000003_Node000004"><a xlink:title=" ">
<path fill="none" stroke="#63b8ff" d="M80.75,-168.13C80.75,-159.9 80.75,-150.85 80.75,-144.3"/>
<polygon fill="#63b8ff" stroke="#63b8ff" points="77.25,-168.08 80.75,-178.08 84.25,-168.08 77.25,-168.08"/>
</a>
</g>
</g>
<!-- Node5 -->
<g id="Node000005" class="node">
<title>Node5</title>
<g id="a_Node000005"><a xlink:href="structHostedAudioProcessorParameter.html" target="_top" xlink:title="A parameter with functions that are useful for plugin hosts.">
<polygon fill="white" stroke="#666666" points="161.5,-256 0,-256 0,-236 161.5,-236 161.5,-256"/>
<text xml:space="preserve" text-anchor="middle" x="80.75" y="-242.5" font-family="Helvetica,sans-Serif" font-size="10.00">HostedAudioProcessorParameter</text>
</a>
</g>
</g>
<!-- Node5&#45;&gt;Node4 -->
<g id="edge4_Node000004_Node000005" class="edge">
<title>Node5&#45;&gt;Node4</title>
<g id="a_edge4_Node000004_Node000005"><a xlink:title=" ">
<path fill="none" stroke="#63b8ff" d="M80.75,-224.13C80.75,-215.9 80.75,-206.85 80.75,-200.3"/>
<polygon fill="#63b8ff" stroke="#63b8ff" points="77.25,-224.08 80.75,-234.08 84.25,-224.08 77.25,-224.08"/>
</a>
</g>
</g>
<!-- Node6 -->
<g id="Node000006" class="node">
<title>Node6</title>
<g id="a_Node000006"><a xlink:href="classAudioProcessorParameter.html" target="_top" xlink:title="An abstract base class for parameter objects that can be added to an AudioProcessor.">
<polygon fill="white" stroke="#666666" points="145.75,-312 15.75,-312 15.75,-292 145.75,-292 145.75,-312"/>
<text xml:space="preserve" text-anchor="middle" x="80.75" y="-298.5" font-family="Helvetica,sans-Serif" font-size="10.00">AudioProcessorParameter</text>
</a>
</g>
</g>
<!-- Node6&#45;&gt;Node5 -->
<g id="edge5_Node000005_Node000006" class="edge">
<title>Node6&#45;&gt;Node5</title>
<g id="a_edge5_Node000005_Node000006"><a xlink:title=" ">
<path fill="none" stroke="#63b8ff" d="M80.75,-280.13C80.75,-271.9 80.75,-262.85 80.75,-256.3"/>
<polygon fill="#63b8ff" stroke="#63b8ff" points="77.25,-280.08 80.75,-290.08 84.25,-280.08 77.25,-280.08"/>
</a>
</g>
</g>
</g>
</svg>
