<?xml version="1.0" encoding="UTF-8" standalone="no"?>
<!DOCTYPE svg PUBLIC "-//W3C//DTD SVG 1.1//EN"
 "http://www.w3.org/Graphics/SVG/1.1/DTD/svg11.dtd">
<!-- Generated by graphviz version 13.1.0 (20250701.0955)
 -->
<!-- Title: ToolbarButton Pages: 1 -->
<svg width="205pt" height="252pt"
 viewBox="0.00 0.00 205.00 252.00" xmlns="http://www.w3.org/2000/svg" xmlns:xlink="http://www.w3.org/1999/xlink">
<g id="graph0" class="graph" transform="scale(1 1) rotate(0) translate(4 248)">
<title>ToolbarButton</title>
<!-- Node1 -->
<g id="Node000001" class="node">
<title>Node1</title>
<g id="a_Node000001"><a xlink:title="A type of button designed to go on a toolbar.">
<polygon fill="#999999" stroke="#666666" points="129.88,-20 53.88,-20 53.88,0 129.88,0 129.88,-20"/>
<text xml:space="preserve" text-anchor="middle" x="91.88" y="-6.5" font-family="Helvetica,sans-Serif" font-size="10.00">ToolbarButton</text>
</a>
</g>
</g>
<!-- Node2 -->
<g id="Node000002" class="node">
<title>Node2</title>
<g id="a_Node000002"><a xlink:href="classToolbarItemComponent.html" target="_top" xlink:title="A component that can be used as one of the items in a Toolbar.">
<polygon fill="white" stroke="#666666" points="150.5,-76 33.25,-76 33.25,-56 150.5,-56 150.5,-76"/>
<text xml:space="preserve" text-anchor="middle" x="91.88" y="-62.5" font-family="Helvetica,sans-Serif" font-size="10.00">ToolbarItemComponent</text>
</a>
</g>
</g>
<!-- Node2&#45;&gt;Node1 -->
<g id="edge1_Node000001_Node000002" class="edge">
<title>Node2&#45;&gt;Node1</title>
<g id="a_edge1_Node000001_Node000002"><a xlink:title=" ">
<path fill="none" stroke="#63b8ff" d="M91.88,-44.13C91.88,-35.9 91.88,-26.85 91.88,-20.3"/>
<polygon fill="#63b8ff" stroke="#63b8ff" points="88.38,-44.08 91.88,-54.08 95.38,-44.08 88.38,-44.08"/>
</a>
</g>
</g>
<!-- Node3 -->
<g id="Node000003" class="node">
<title>Node3</title>
<g id="a_Node000003"><a xlink:href="classButton.html" target="_top" xlink:title="A base class for buttons.">
<polygon fill="white" stroke="#666666" points="114.12,-132 69.62,-132 69.62,-112 114.12,-112 114.12,-132"/>
<text xml:space="preserve" text-anchor="middle" x="91.88" y="-118.5" font-family="Helvetica,sans-Serif" font-size="10.00">Button</text>
</a>
</g>
</g>
<!-- Node3&#45;&gt;Node2 -->
<g id="edge2_Node000002_Node000003" class="edge">
<title>Node3&#45;&gt;Node2</title>
<g id="a_edge2_Node000002_Node000003"><a xlink:title=" ">
<path fill="none" stroke="#63b8ff" d="M91.88,-100.13C91.88,-91.9 91.88,-82.85 91.88,-76.3"/>
<polygon fill="#63b8ff" stroke="#63b8ff" points="88.38,-100.08 91.88,-110.08 95.38,-100.08 88.38,-100.08"/>
</a>
</g>
</g>
<!-- Node4 -->
<g id="Node000004" class="node">
<title>Node4</title>
<g id="a_Node000004"><a xlink:href="classComponent.html" target="_top" xlink:title="The base class for all JUCE user&#45;interface objects.">
<polygon fill="white" stroke="#666666" points="73,-188 6.75,-188 6.75,-168 73,-168 73,-188"/>
<text xml:space="preserve" text-anchor="middle" x="39.88" y="-174.5" font-family="Helvetica,sans-Serif" font-size="10.00">Component</text>
</a>
</g>
</g>
<!-- Node4&#45;&gt;Node3 -->
<g id="edge3_Node000003_Node000004" class="edge">
<title>Node4&#45;&gt;Node3</title>
<g id="a_edge3_Node000003_Node000004"><a xlink:title=" ">
<path fill="none" stroke="#63b8ff" d="M56.66,-159.57C65.39,-150.5 75.72,-139.78 82.92,-132.3"/>
<polygon fill="#63b8ff" stroke="#63b8ff" points="54.4,-156.87 49.98,-166.5 59.44,-161.73 54.4,-156.87"/>
</a>
</g>
</g>
<!-- Node5 -->
<g id="Node000005" class="node">
<title>Node5</title>
<g id="a_Node000005"><a xlink:href="classMouseListener.html" target="_top" xlink:title="A MouseListener can be registered with a component to receive callbacks about mouse events that happe...">
<polygon fill="white" stroke="#666666" points="79.75,-244 0,-244 0,-224 79.75,-224 79.75,-244"/>
<text xml:space="preserve" text-anchor="middle" x="39.88" y="-230.5" font-family="Helvetica,sans-Serif" font-size="10.00">MouseListener</text>
</a>
</g>
</g>
<!-- Node5&#45;&gt;Node4 -->
<g id="edge4_Node000004_Node000005" class="edge">
<title>Node5&#45;&gt;Node4</title>
<g id="a_edge4_Node000004_Node000005"><a xlink:title=" ">
<path fill="none" stroke="#63b8ff" d="M39.88,-212.13C39.88,-203.9 39.88,-194.85 39.88,-188.3"/>
<polygon fill="#63b8ff" stroke="#63b8ff" points="36.38,-212.08 39.88,-222.08 43.38,-212.08 36.38,-212.08"/>
</a>
</g>
</g>
<!-- Node6 -->
<g id="Node000006" class="node">
<title>Node6</title>
<g id="a_Node000006"><a xlink:href="classSettableTooltipClient.html" target="_top" xlink:title="An implementation of TooltipClient that stores the tooltip string and a method for changing it.">
<polygon fill="white" stroke="#666666" points="196.88,-188 90.88,-188 90.88,-168 196.88,-168 196.88,-188"/>
<text xml:space="preserve" text-anchor="middle" x="143.88" y="-174.5" font-family="Helvetica,sans-Serif" font-size="10.00">SettableTooltipClient</text>
</a>
</g>
</g>
<!-- Node6&#45;&gt;Node3 -->
<g id="edge5_Node000003_Node000006" class="edge">
<title>Node6&#45;&gt;Node3</title>
<g id="a_edge5_Node000003_Node000006"><a xlink:title=" ">
<path fill="none" stroke="#63b8ff" d="M127.09,-159.57C118.36,-150.5 108.03,-139.78 100.83,-132.3"/>
<polygon fill="#63b8ff" stroke="#63b8ff" points="124.31,-161.73 133.77,-166.5 129.35,-156.87 124.31,-161.73"/>
</a>
</g>
</g>
<!-- Node7 -->
<g id="Node000007" class="node">
<title>Node7</title>
<g id="a_Node000007"><a xlink:href="classTooltipClient.html" target="_top" xlink:title="Components that want to use pop&#45;up tooltips should implement this interface.">
<polygon fill="white" stroke="#666666" points="178.88,-244 108.88,-244 108.88,-224 178.88,-224 178.88,-244"/>
<text xml:space="preserve" text-anchor="middle" x="143.88" y="-230.5" font-family="Helvetica,sans-Serif" font-size="10.00">TooltipClient</text>
</a>
</g>
</g>
<!-- Node7&#45;&gt;Node6 -->
<g id="edge6_Node000006_Node000007" class="edge">
<title>Node7&#45;&gt;Node6</title>
<g id="a_edge6_Node000006_Node000007"><a xlink:title=" ">
<path fill="none" stroke="#63b8ff" d="M143.88,-212.13C143.88,-203.9 143.88,-194.85 143.88,-188.3"/>
<polygon fill="#63b8ff" stroke="#63b8ff" points="140.38,-212.08 143.88,-222.08 147.38,-212.08 140.38,-212.08"/>
</a>
</g>
</g>
</g>
</svg>
