<?xml version="1.0" encoding="UTF-8" standalone="no"?>
<!DOCTYPE svg PUBLIC "-//W3C//DTD SVG 1.1//EN"
 "http://www.w3.org/Graphics/SVG/1.1/DTD/svg11.dtd">
<!-- Generated by graphviz version 13.1.0 (20250701.0955)
 -->
<!-- Title: FileDragAndDropTarget Pages: 1 -->
<svg width="505pt" height="140pt"
 viewBox="0.00 0.00 505.00 140.00" xmlns="http://www.w3.org/2000/svg" xmlns:xlink="http://www.w3.org/1999/xlink">
<g id="graph0" class="graph" transform="scale(1 1) rotate(0) translate(4 136)">
<title>FileDragAndDropTarget</title>
<!-- Node1 -->
<g id="Node000001" class="node">
<title>Node1</title>
<g id="a_Node000001"><a xlink:title="Components derived from this class can have files dropped onto them by an external application.">
<polygon fill="#999999" stroke="#666666" points="341.38,-132 223.38,-132 223.38,-112 341.38,-112 341.38,-132"/>
<text xml:space="preserve" text-anchor="middle" x="282.38" y="-118.5" font-family="Helvetica,sans-Serif" font-size="10.00">FileDragAndDropTarget</text>
</a>
</g>
</g>
<!-- Node2 -->
<g id="Node000002" class="node">
<title>Node2</title>
<g id="a_Node000002"><a xlink:href="classFileSearchPathListComponent.html" target="_top" xlink:title="Shows a set of file paths in a list, allowing them to be added, removed or re&#45;ordered.">
<polygon fill="white" stroke="#666666" points="148.75,-76 0,-76 0,-56 148.75,-56 148.75,-76"/>
<text xml:space="preserve" text-anchor="middle" x="74.38" y="-62.5" font-family="Helvetica,sans-Serif" font-size="10.00">FileSearchPathListComponent</text>
</a>
</g>
</g>
<!-- Node1&#45;&gt;Node2 -->
<g id="edge1_Node000001_Node000002" class="edge">
<title>Node1&#45;&gt;Node2</title>
<g id="a_edge1_Node000001_Node000002"><a xlink:title=" ">
<path fill="none" stroke="#63b8ff" d="M235.43,-108.81C197.72,-99.02 145.52,-85.47 110.89,-76.48"/>
<polygon fill="#63b8ff" stroke="#63b8ff" points="234.12,-112.09 244.68,-111.21 235.88,-105.31 234.12,-112.09"/>
</a>
</g>
</g>
<!-- Node3 -->
<g id="Node000003" class="node">
<title>Node3</title>
<g id="a_Node000003"><a xlink:href="classFilenameComponent.html" target="_top" xlink:title="Shows a filename as an editable text box, with a &#39;browse&#39; button and a drop&#45;down list for recently se...">
<polygon fill="white" stroke="#666666" points="272.38,-76 166.38,-76 166.38,-56 272.38,-56 272.38,-76"/>
<text xml:space="preserve" text-anchor="middle" x="219.38" y="-62.5" font-family="Helvetica,sans-Serif" font-size="10.00">FilenameComponent</text>
</a>
</g>
</g>
<!-- Node1&#45;&gt;Node3 -->
<g id="edge2_Node000001_Node000003" class="edge">
<title>Node1&#45;&gt;Node3</title>
<g id="a_edge2_Node000001_Node000003"><a xlink:title=" ">
<path fill="none" stroke="#63b8ff" d="M262.69,-104.13C251.97,-94.94 239.13,-83.93 230.22,-76.3"/>
<polygon fill="#63b8ff" stroke="#63b8ff" points="260.38,-106.76 270.25,-110.61 264.94,-101.44 260.38,-106.76"/>
</a>
</g>
</g>
<!-- Node4 -->
<g id="Node000004" class="node">
<title>Node4</title>
<g id="a_Node000004"><a xlink:href="classPluginListComponent.html" target="_top" xlink:title="A component displaying a list of plugins, with options to scan for them, add, remove and sort them.">
<polygon fill="white" stroke="#666666" points="399.88,-76 290.88,-76 290.88,-56 399.88,-56 399.88,-76"/>
<text xml:space="preserve" text-anchor="middle" x="345.38" y="-62.5" font-family="Helvetica,sans-Serif" font-size="10.00">PluginListComponent</text>
</a>
</g>
</g>
<!-- Node1&#45;&gt;Node4 -->
<g id="edge3_Node000001_Node000004" class="edge">
<title>Node1&#45;&gt;Node4</title>
<g id="a_edge3_Node000001_Node000004"><a xlink:title=" ">
<path fill="none" stroke="#63b8ff" d="M302.06,-104.13C312.78,-94.94 325.62,-83.93 334.53,-76.3"/>
<polygon fill="#63b8ff" stroke="#63b8ff" points="299.81,-101.44 294.5,-110.61 304.37,-106.76 299.81,-101.44"/>
</a>
</g>
</g>
<!-- Node5 -->
<g id="Node000005" class="node">
<title>Node5</title>
<g id="a_Node000005"><a xlink:href="classTreeView.html" target="_top" xlink:title="A tree&#45;view component.">
<polygon fill="white" stroke="#666666" points="475,-76 417.75,-76 417.75,-56 475,-56 475,-76"/>
<text xml:space="preserve" text-anchor="middle" x="446.38" y="-62.5" font-family="Helvetica,sans-Serif" font-size="10.00">TreeView</text>
</a>
</g>
</g>
<!-- Node1&#45;&gt;Node5 -->
<g id="edge4_Node000001_Node000005" class="edge">
<title>Node1&#45;&gt;Node5</title>
<g id="a_edge4_Node000001_Node000005"><a xlink:title=" ">
<path fill="none" stroke="#63b8ff" d="M321.71,-108.05C351.23,-98.33 390.98,-85.24 417.59,-76.48"/>
<polygon fill="#63b8ff" stroke="#63b8ff" points="320.78,-104.67 312.38,-111.12 322.97,-111.32 320.78,-104.67"/>
</a>
</g>
</g>
<!-- Node6 -->
<g id="Node000006" class="node">
<title>Node6</title>
<g id="a_Node000006"><a xlink:href="classFileTreeComponent.html" target="_top" xlink:title="A component that displays the files in a directory as a treeview.">
<polygon fill="white" stroke="#666666" points="497.12,-20 395.62,-20 395.62,0 497.12,0 497.12,-20"/>
<text xml:space="preserve" text-anchor="middle" x="446.38" y="-6.5" font-family="Helvetica,sans-Serif" font-size="10.00">FileTreeComponent</text>
</a>
</g>
</g>
<!-- Node5&#45;&gt;Node6 -->
<g id="edge5_Node000005_Node000006" class="edge">
<title>Node5&#45;&gt;Node6</title>
<g id="a_edge5_Node000005_Node000006"><a xlink:title=" ">
<path fill="none" stroke="#63b8ff" d="M446.38,-44.13C446.38,-35.9 446.38,-26.85 446.38,-20.3"/>
<polygon fill="#63b8ff" stroke="#63b8ff" points="442.88,-44.08 446.38,-54.08 449.88,-44.08 442.88,-44.08"/>
</a>
</g>
</g>
</g>
</svg>
