<?xml version="1.0" encoding="UTF-8" standalone="no"?>
<!DOCTYPE svg PUBLIC "-//W3C//DTD SVG 1.1//EN"
 "http://www.w3.org/Graphics/SVG/1.1/DTD/svg11.dtd">
<!-- Generated by graphviz version 13.1.0 (20250701.0955)
 -->
<!-- Title: PopupMenu::CustomComponent Pages: 1 -->
<svg width="265pt" height="152pt"
 viewBox="0.00 0.00 265.00 152.00" xmlns="http://www.w3.org/2000/svg" xmlns:xlink="http://www.w3.org/1999/xlink">
<g id="graph0" class="graph" transform="scale(1 1) rotate(0) translate(4 148)">
<title>PopupMenu::CustomComponent</title>
<!-- Node1 -->
<g id="Node000001" class="node">
<title>Node1</title>
<g id="a_Node000001"><a xlink:title="A user&#45;defined component that can be used as an item in a popup menu.">
<polygon fill="#999999" stroke="#666666" points="186.12,-20 27.62,-20 27.62,0 186.12,0 186.12,-20"/>
<text xml:space="preserve" text-anchor="middle" x="106.88" y="-6.5" font-family="Helvetica,sans-Serif" font-size="10.00">PopupMenu::CustomComponent</text>
</a>
</g>
</g>
<!-- Node2 -->
<g id="Node000002" class="node">
<title>Node2</title>
<g id="a_Node000002"><a xlink:href="classComponent.html" target="_top" xlink:title="The base class for all JUCE user&#45;interface objects.">
<polygon fill="white" stroke="#666666" points="73,-82 6.75,-82 6.75,-62 73,-62 73,-82"/>
<text xml:space="preserve" text-anchor="middle" x="39.88" y="-68.5" font-family="Helvetica,sans-Serif" font-size="10.00">Component</text>
</a>
</g>
</g>
<!-- Node2&#45;&gt;Node1 -->
<g id="edge1_Node000001_Node000002" class="edge">
<title>Node2&#45;&gt;Node1</title>
<g id="a_edge1_Node000001_Node000002"><a xlink:title=" ">
<path fill="none" stroke="#63b8ff" d="M58.61,-54.22C70.94,-43.18 86.62,-29.14 96.7,-20.11"/>
<polygon fill="#63b8ff" stroke="#63b8ff" points="56.59,-51.34 51.47,-60.62 61.26,-56.55 56.59,-51.34"/>
</a>
</g>
</g>
<!-- Node3 -->
<g id="Node000003" class="node">
<title>Node3</title>
<g id="a_Node000003"><a xlink:href="classMouseListener.html" target="_top" xlink:title="A MouseListener can be registered with a component to receive callbacks about mouse events that happe...">
<polygon fill="white" stroke="#666666" points="79.75,-144 0,-144 0,-124 79.75,-124 79.75,-144"/>
<text xml:space="preserve" text-anchor="middle" x="39.88" y="-130.5" font-family="Helvetica,sans-Serif" font-size="10.00">MouseListener</text>
</a>
</g>
</g>
<!-- Node3&#45;&gt;Node2 -->
<g id="edge2_Node000002_Node000003" class="edge">
<title>Node3&#45;&gt;Node2</title>
<g id="a_edge2_Node000002_Node000003"><a xlink:title=" ">
<path fill="none" stroke="#63b8ff" d="M39.88,-112.25C39.88,-101.97 39.88,-90.09 39.88,-82.11"/>
<polygon fill="#63b8ff" stroke="#63b8ff" points="36.38,-112.11 39.88,-122.11 43.38,-112.11 36.38,-112.11"/>
</a>
</g>
</g>
<!-- Node4 -->
<g id="Node000004" class="node">
<title>Node4</title>
<g id="a_Node000004"><a xlink:href="classSingleThreadedReferenceCountedObject.html" target="_top" xlink:title="Adds reference&#45;counting to an object.">
<polygon fill="white" stroke="#666666" points="256.5,-88 91.25,-88 91.25,-56 256.5,-56 256.5,-88"/>
<text xml:space="preserve" text-anchor="start" x="99.25" y="-74.5" font-family="Helvetica,sans-Serif" font-size="10.00">SingleThreadedReferenceCounted</text>
<text xml:space="preserve" text-anchor="middle" x="173.88" y="-62.5" font-family="Helvetica,sans-Serif" font-size="10.00">Object</text>
</a>
</g>
</g>
<!-- Node4&#45;&gt;Node1 -->
<g id="edge3_Node000001_Node000004" class="edge">
<title>Node4&#45;&gt;Node1</title>
<g id="a_edge3_Node000001_Node000004"><a xlink:title=" ">
<path fill="none" stroke="#63b8ff" d="M148.34,-48.13C137.58,-38.5 125.67,-27.83 117.38,-20.41"/>
<polygon fill="#63b8ff" stroke="#63b8ff" points="145.71,-50.47 155.49,-54.54 150.38,-45.26 145.71,-50.47"/>
</a>
</g>
</g>
</g>
</svg>
