<?xml version="1.0" encoding="UTF-8" standalone="no"?>
<!DOCTYPE svg PUBLIC "-//W3C//DTD SVG 1.1//EN"
 "http://www.w3.org/Graphics/SVG/1.1/DTD/svg11.dtd">
<!-- Generated by graphviz version 13.1.0 (20250701.0955)
 -->
<!-- Title: StandaloneFilterWindow Pages: 1 -->
<svg width="208pt" height="308pt"
 viewBox="0.00 0.00 208.00 308.00" xmlns="http://www.w3.org/2000/svg" xmlns:xlink="http://www.w3.org/1999/xlink">
<g id="graph0" class="graph" transform="scale(1 1) rotate(0) translate(4 304)">
<title>StandaloneFilterWindow</title>
<!-- Node1 -->
<g id="Node000001" class="node">
<title>Node1</title>
<g id="a_Node000001"><a xlink:title="A class that can be used to run a simple standalone application containing your filter.">
<polygon fill="#999999" stroke="#666666" points="163,-20 41.25,-20 41.25,0 163,0 163,-20"/>
<text xml:space="preserve" text-anchor="middle" x="102.12" y="-6.5" font-family="Helvetica,sans-Serif" font-size="10.00">StandaloneFilterWindow</text>
</a>
</g>
</g>
<!-- Node2 -->
<g id="Node000002" class="node">
<title>Node2</title>
<g id="a_Node000002"><a xlink:href="classDocumentWindow.html" target="_top" xlink:title="A resizable window with a title bar and maximise, minimise and close buttons.">
<polygon fill="white" stroke="#666666" points="96.25,-76 0,-76 0,-56 96.25,-56 96.25,-76"/>
<text xml:space="preserve" text-anchor="middle" x="48.12" y="-62.5" font-family="Helvetica,sans-Serif" font-size="10.00">DocumentWindow</text>
</a>
</g>
</g>
<!-- Node2&#45;&gt;Node1 -->
<g id="edge1_Node000001_Node000002" class="edge">
<title>Node2&#45;&gt;Node1</title>
<g id="a_edge1_Node000001_Node000002"><a xlink:title=" ">
<path fill="none" stroke="#63b8ff" d="M65.56,-47.57C74.63,-38.5 85.35,-27.78 92.83,-20.3"/>
<polygon fill="#63b8ff" stroke="#63b8ff" points="63.2,-44.98 58.6,-54.52 68.15,-49.93 63.2,-44.98"/>
</a>
</g>
</g>
<!-- Node3 -->
<g id="Node000003" class="node">
<title>Node3</title>
<g id="a_Node000003"><a xlink:href="classResizableWindow.html" target="_top" xlink:title="A base class for top&#45;level windows that can be dragged around and resized.">
<polygon fill="white" stroke="#666666" points="95.5,-132 0.75,-132 0.75,-112 95.5,-112 95.5,-132"/>
<text xml:space="preserve" text-anchor="middle" x="48.12" y="-118.5" font-family="Helvetica,sans-Serif" font-size="10.00">ResizableWindow</text>
</a>
</g>
</g>
<!-- Node3&#45;&gt;Node2 -->
<g id="edge2_Node000002_Node000003" class="edge">
<title>Node3&#45;&gt;Node2</title>
<g id="a_edge2_Node000002_Node000003"><a xlink:title=" ">
<path fill="none" stroke="#63b8ff" d="M48.12,-100.13C48.12,-91.9 48.12,-82.85 48.12,-76.3"/>
<polygon fill="#63b8ff" stroke="#63b8ff" points="44.63,-100.08 48.13,-110.08 51.63,-100.08 44.63,-100.08"/>
</a>
</g>
</g>
<!-- Node4 -->
<g id="Node000004" class="node">
<title>Node4</title>
<g id="a_Node000004"><a xlink:href="classTopLevelWindow.html" target="_top" xlink:title="A base class for top&#45;level windows.">
<polygon fill="white" stroke="#666666" points="93.25,-188 3,-188 3,-168 93.25,-168 93.25,-188"/>
<text xml:space="preserve" text-anchor="middle" x="48.12" y="-174.5" font-family="Helvetica,sans-Serif" font-size="10.00">TopLevelWindow</text>
</a>
</g>
</g>
<!-- Node4&#45;&gt;Node3 -->
<g id="edge3_Node000003_Node000004" class="edge">
<title>Node4&#45;&gt;Node3</title>
<g id="a_edge3_Node000003_Node000004"><a xlink:title=" ">
<path fill="none" stroke="#63b8ff" d="M48.12,-156.13C48.12,-147.9 48.12,-138.85 48.12,-132.3"/>
<polygon fill="#63b8ff" stroke="#63b8ff" points="44.63,-156.08 48.13,-166.08 51.63,-156.08 44.63,-156.08"/>
</a>
</g>
</g>
<!-- Node5 -->
<g id="Node000005" class="node">
<title>Node5</title>
<g id="a_Node000005"><a xlink:href="classComponent.html" target="_top" xlink:title="The base class for all JUCE user&#45;interface objects.">
<polygon fill="white" stroke="#666666" points="81.25,-244 15,-244 15,-224 81.25,-224 81.25,-244"/>
<text xml:space="preserve" text-anchor="middle" x="48.12" y="-230.5" font-family="Helvetica,sans-Serif" font-size="10.00">Component</text>
</a>
</g>
</g>
<!-- Node5&#45;&gt;Node4 -->
<g id="edge4_Node000004_Node000005" class="edge">
<title>Node5&#45;&gt;Node4</title>
<g id="a_edge4_Node000004_Node000005"><a xlink:title=" ">
<path fill="none" stroke="#63b8ff" d="M48.12,-212.13C48.12,-203.9 48.12,-194.85 48.12,-188.3"/>
<polygon fill="#63b8ff" stroke="#63b8ff" points="44.63,-212.08 48.13,-222.08 51.63,-212.08 44.63,-212.08"/>
</a>
</g>
</g>
<!-- Node6 -->
<g id="Node000006" class="node">
<title>Node6</title>
<g id="a_Node000006"><a xlink:href="classMouseListener.html" target="_top" xlink:title="A MouseListener can be registered with a component to receive callbacks about mouse events that happe...">
<polygon fill="white" stroke="#666666" points="88,-300 8.25,-300 8.25,-280 88,-280 88,-300"/>
<text xml:space="preserve" text-anchor="middle" x="48.12" y="-286.5" font-family="Helvetica,sans-Serif" font-size="10.00">MouseListener</text>
</a>
</g>
</g>
<!-- Node6&#45;&gt;Node5 -->
<g id="edge5_Node000005_Node000006" class="edge">
<title>Node6&#45;&gt;Node5</title>
<g id="a_edge5_Node000005_Node000006"><a xlink:title=" ">
<path fill="none" stroke="#63b8ff" d="M48.12,-268.13C48.12,-259.9 48.12,-250.85 48.12,-244.3"/>
<polygon fill="#63b8ff" stroke="#63b8ff" points="44.63,-268.08 48.13,-278.08 51.63,-268.08 44.63,-268.08"/>
</a>
</g>
</g>
<!-- Node7 -->
<g id="Node000007" class="node">
<title>Node7</title>
<g id="a_Node000007"><a xlink:href="classButton_1_1Listener.html" target="_top" xlink:title="Used to receive callbacks when a button is clicked.">
<polygon fill="white" stroke="#666666" points="199.62,-76 114.62,-76 114.62,-56 199.62,-56 199.62,-76"/>
<text xml:space="preserve" text-anchor="middle" x="157.12" y="-62.5" font-family="Helvetica,sans-Serif" font-size="10.00">Button::Listener</text>
</a>
</g>
</g>
<!-- Node7&#45;&gt;Node1 -->
<g id="edge6_Node000001_Node000007" class="edge">
<title>Node7&#45;&gt;Node1</title>
<g id="a_edge6_Node000001_Node000007"><a xlink:title=" ">
<path fill="none" stroke="#8b1a1a" d="M139.37,-47.57C130.13,-38.5 119.21,-27.78 111.6,-20.3"/>
<polygon fill="#8b1a1a" stroke="#8b1a1a" points="136.88,-50.03 146.46,-54.53 141.78,-45.03 136.88,-50.03"/>
</a>
</g>
</g>
</g>
</svg>
