<?xml version="1.0" encoding="UTF-8" standalone="no"?>
<!DOCTYPE svg PUBLIC "-//W3C//DTD SVG 1.1//EN"
 "http://www.w3.org/Graphics/SVG/1.1/DTD/svg11.dtd">
<!-- Generated by graphviz version 13.1.0 (20250701.0955)
 -->
<!-- Title: BufferingAudioReader Pages: 1 -->
<svg width="214pt" height="84pt"
 viewBox="0.00 0.00 214.00 84.00" xmlns="http://www.w3.org/2000/svg" xmlns:xlink="http://www.w3.org/1999/xlink">
<g id="graph0" class="graph" transform="scale(1 1) rotate(0) translate(4 80)">
<title>BufferingAudioReader</title>
<!-- Node1 -->
<g id="Node000001" class="node">
<title>Node1</title>
<g id="a_Node000001"><a xlink:title="An AudioFormatReader that uses a background thread to pre&#45;read data from another reader.">
<polygon fill="#999999" stroke="#666666" points="162.75,-20 52.25,-20 52.25,0 162.75,0 162.75,-20"/>
<text xml:space="preserve" text-anchor="middle" x="107.5" y="-6.5" font-family="Helvetica,sans-Serif" font-size="10.00">BufferingAudioReader</text>
</a>
</g>
</g>
<!-- Node2 -->
<g id="Node000002" class="node">
<title>Node2</title>
<g id="a_Node000002"><a xlink:href="classAudioFormatReader.html" target="_top" xlink:title="Reads samples from an audio file stream.">
<polygon fill="white" stroke="#666666" points="103,-76 0,-76 0,-56 103,-56 103,-76"/>
<text xml:space="preserve" text-anchor="middle" x="51.5" y="-62.5" font-family="Helvetica,sans-Serif" font-size="10.00">AudioFormatReader</text>
</a>
</g>
</g>
<!-- Node2&#45;&gt;Node1 -->
<g id="edge1_Node000001_Node000002" class="edge">
<title>Node2&#45;&gt;Node1</title>
<g id="a_edge1_Node000001_Node000002"><a xlink:title=" ">
<path fill="none" stroke="#63b8ff" d="M69.29,-47.85C78.75,-38.72 90.02,-27.86 97.86,-20.3"/>
<polygon fill="#63b8ff" stroke="#63b8ff" points="67.11,-45.08 62.34,-54.54 71.97,-50.12 67.11,-45.08"/>
</a>
</g>
</g>
<!-- Node3 -->
<g id="Node000003" class="node">
<title>Node3</title>
<g id="a_Node000003"><a xlink:href="classTimeSliceClient.html" target="_top" xlink:title="Used by the TimeSliceThread class.">
<polygon fill="white" stroke="#666666" points="206,-76 121,-76 121,-56 206,-56 206,-76"/>
<text xml:space="preserve" text-anchor="middle" x="163.5" y="-62.5" font-family="Helvetica,sans-Serif" font-size="10.00">TimeSliceClient</text>
</a>
</g>
</g>
<!-- Node3&#45;&gt;Node1 -->
<g id="edge2_Node000001_Node000003" class="edge">
<title>Node3&#45;&gt;Node1</title>
<g id="a_edge2_Node000001_Node000003"><a xlink:title=" ">
<path fill="none" stroke="#8b1a1a" d="M145.71,-47.85C136.25,-38.72 124.98,-27.86 117.14,-20.3"/>
<polygon fill="#8b1a1a" stroke="#8b1a1a" points="143.03,-50.12 152.66,-54.54 147.89,-45.08 143.03,-50.12"/>
</a>
</g>
</g>
</g>
</svg>
