<?xml version="1.0" encoding="UTF-8" standalone="no"?>
<!DOCTYPE svg PUBLIC "-//W3C//DTD SVG 1.1//EN"
 "http://www.w3.org/Graphics/SVG/1.1/DTD/svg11.dtd">
<!-- Generated by graphviz version 13.1.0 (20250701.0955)
 -->
<!-- Title: ChangeBroadcaster Pages: 1 -->
<svg width="455pt" height="610pt"
 viewBox="0.00 0.00 455.00 610.00" xmlns="http://www.w3.org/2000/svg" xmlns:xlink="http://www.w3.org/1999/xlink">
<g id="graph0" class="graph" transform="scale(1 1) rotate(0) translate(4 606)">
<title>ChangeBroadcaster</title>
<!-- Node1 -->
<g id="Node000001" class="node">
<title>Node1</title>
<g id="a_Node000001"><a xlink:title="Holds a list of ChangeListeners, and sends messages to them when instructed.">
<polygon fill="#999999" stroke="#666666" points="102.25,-317 0,-317 0,-297 102.25,-297 102.25,-317"/>
<text xml:space="preserve" text-anchor="middle" x="51.12" y="-303.5" font-family="Helvetica,sans-Serif" font-size="10.00">ChangeBroadcaster</text>
</a>
</g>
</g>
<!-- Node2 -->
<g id="Node000002" class="node">
<title>Node2</title>
<g id="a_Node000002"><a xlink:href="classAudioCDBurner.html" target="_top" xlink:title=" ">
<polygon fill="white" stroke="#666666" points="252.12,-602 167.88,-602 167.88,-582 252.12,-582 252.12,-602"/>
<text xml:space="preserve" text-anchor="middle" x="210" y="-588.5" font-family="Helvetica,sans-Serif" font-size="10.00">AudioCDBurner</text>
</a>
</g>
</g>
<!-- Node1&#45;&gt;Node2 -->
<g id="edge1_Node000001_Node000002" class="edge">
<title>Node1&#45;&gt;Node2</title>
<g id="a_edge1_Node000001_Node000002"><a xlink:title=" ">
<path fill="none" stroke="#63b8ff" d="M52.53,-328.9C54.71,-379.56 67.37,-505.63 138.25,-573 146.27,-580.62 157.01,-585.26 167.7,-588.06"/>
<polygon fill="#63b8ff" stroke="#63b8ff" points="56.04,-328.87 52.22,-318.99 49.04,-329.09 56.04,-328.87"/>
</a>
</g>
</g>
<!-- Node3 -->
<g id="Node000003" class="node">
<title>Node3</title>
<g id="a_Node000003"><a xlink:href="classAudioDeviceManager.html" target="_top" xlink:title="Manages the state of some audio and midi i/o devices.">
<polygon fill="white" stroke="#666666" points="264.5,-564 155.5,-564 155.5,-544 264.5,-544 264.5,-564"/>
<text xml:space="preserve" text-anchor="middle" x="210" y="-550.5" font-family="Helvetica,sans-Serif" font-size="10.00">AudioDeviceManager</text>
</a>
</g>
</g>
<!-- Node1&#45;&gt;Node3 -->
<g id="edge2_Node000001_Node000003" class="edge">
<title>Node1&#45;&gt;Node3</title>
<g id="a_edge2_Node000001_Node000003"><a xlink:title=" ">
<path fill="none" stroke="#63b8ff" d="M53.89,-328.82C58.77,-374.17 76.46,-479.04 138.25,-535 143.15,-539.44 148.98,-542.86 155.16,-545.49"/>
<polygon fill="#63b8ff" stroke="#63b8ff" points="57.39,-328.6 52.96,-318.97 50.42,-329.26 57.39,-328.6"/>
</a>
</g>
</g>
<!-- Node4 -->
<g id="Node000004" class="node">
<title>Node4</title>
<g id="a_Node000004"><a xlink:href="classAudioProcessorGraph.html" target="_top" xlink:title="A type of AudioProcessor which plays back a graph of other AudioProcessors.">
<polygon fill="white" stroke="#666666" points="265.62,-526 154.38,-526 154.38,-506 265.62,-506 265.62,-526"/>
<text xml:space="preserve" text-anchor="middle" x="210" y="-512.5" font-family="Helvetica,sans-Serif" font-size="10.00">AudioProcessorGraph</text>
</a>
</g>
</g>
<!-- Node1&#45;&gt;Node4 -->
<g id="edge3_Node000001_Node000004" class="edge">
<title>Node1&#45;&gt;Node4</title>
<g id="a_edge3_Node000001_Node000004"><a xlink:title=" ">
<path fill="none" stroke="#63b8ff" d="M55.67,-328.38C63.35,-367.82 85.3,-452.05 138.25,-497 142.9,-500.95 148.3,-504.09 154,-506.58"/>
<polygon fill="#63b8ff" stroke="#63b8ff" points="59.11,-327.76 53.89,-318.55 52.22,-329.01 59.11,-327.76"/>
</a>
</g>
</g>
<!-- Node5 -->
<g id="Node000005" class="node">
<title>Node5</title>
<g id="a_Node000005"><a xlink:href="classAudioThumbnailBase.html" target="_top" xlink:title="Provides a base for classes that can store and draw scaled views of an audio waveform.">
<polygon fill="white" stroke="#666666" points="264.12,-488 155.88,-488 155.88,-468 264.12,-468 264.12,-488"/>
<text xml:space="preserve" text-anchor="middle" x="210" y="-474.5" font-family="Helvetica,sans-Serif" font-size="10.00">AudioThumbnailBase</text>
</a>
</g>
</g>
<!-- Node1&#45;&gt;Node5 -->
<g id="edge4_Node000001_Node000005" class="edge">
<title>Node1&#45;&gt;Node5</title>
<g id="a_edge4_Node000001_Node000005"><a xlink:title=" ">
<path fill="none" stroke="#63b8ff" d="M58.2,-328.01C68.84,-361.01 94.04,-424.77 138.25,-459 143.38,-462.97 149.27,-466.11 155.42,-468.6"/>
<polygon fill="#63b8ff" stroke="#63b8ff" points="61.65,-327.33 55.37,-318.8 54.96,-329.38 61.65,-327.33"/>
</a>
</g>
</g>
<!-- Node7 -->
<g id="Node000007" class="node">
<title>Node7</title>
<g id="a_Node000007"><a xlink:href="classAudioTransportSource.html" target="_top" xlink:title="An AudioSource that takes a PositionableAudioSource and allows it to be played, stopped,...">
<polygon fill="white" stroke="#666666" points="266.38,-450 153.62,-450 153.62,-430 266.38,-430 266.38,-450"/>
<text xml:space="preserve" text-anchor="middle" x="210" y="-436.5" font-family="Helvetica,sans-Serif" font-size="10.00">AudioTransportSource</text>
</a>
</g>
</g>
<!-- Node1&#45;&gt;Node7 -->
<g id="edge6_Node000001_Node000007" class="edge">
<title>Node1&#45;&gt;Node7</title>
<g id="a_edge6_Node000001_Node000007"><a xlink:title=" ">
<path fill="none" stroke="#63b8ff" d="M62.11,-327.46C75.74,-353.21 102.59,-396.97 138.25,-421 143.31,-424.41 148.96,-427.21 154.8,-429.51"/>
<polygon fill="#63b8ff" stroke="#63b8ff" points="65.29,-326 57.63,-318.68 59.06,-329.18 65.29,-326"/>
</a>
</g>
</g>
<!-- Node8 -->
<g id="Node000008" class="node">
<title>Node8</title>
<g id="a_Node000008"><a xlink:href="classColourSelector.html" target="_top" xlink:title="A component that lets the user choose a colour.">
<polygon fill="white" stroke="#666666" points="250.25,-412 169.75,-412 169.75,-392 250.25,-392 250.25,-412"/>
<text xml:space="preserve" text-anchor="middle" x="210" y="-398.5" font-family="Helvetica,sans-Serif" font-size="10.00">ColourSelector</text>
</a>
</g>
</g>
<!-- Node1&#45;&gt;Node8 -->
<g id="edge7_Node000001_Node000008" class="edge">
<title>Node1&#45;&gt;Node8</title>
<g id="a_edge7_Node000001_Node000008"><a xlink:title=" ">
<path fill="none" stroke="#63b8ff" d="M68.26,-325.48C84.34,-342.79 110.57,-368.14 138.25,-383 147.89,-388.17 159.03,-392.02 169.59,-394.84"/>
<polygon fill="#63b8ff" stroke="#63b8ff" points="71.15,-323.46 61.84,-318.39 65.96,-328.15 71.15,-323.46"/>
</a>
</g>
</g>
<!-- Node9 -->
<g id="Node000009" class="node">
<title>Node9</title>
<g id="a_Node000009"><a xlink:href="classComponentAnimator.html" target="_top" xlink:title="This class has been superseded, it is now recommended you use the Animator class in the juce_animatio...">
<polygon fill="white" stroke="#666666" points="262.62,-374 157.38,-374 157.38,-354 262.62,-354 262.62,-374"/>
<text xml:space="preserve" text-anchor="middle" x="210" y="-360.5" font-family="Helvetica,sans-Serif" font-size="10.00">ComponentAnimator</text>
</a>
</g>
</g>
<!-- Node1&#45;&gt;Node9 -->
<g id="edge8_Node000001_Node000009" class="edge">
<title>Node1&#45;&gt;Node9</title>
<g id="a_edge8_Node000001_Node000009"><a xlink:title=" ">
<path fill="none" stroke="#63b8ff" d="M83.32,-322.15C99.48,-329.64 119.66,-338.45 138.25,-345 147.13,-348.13 156.78,-351.04 166.03,-353.59"/>
<polygon fill="#63b8ff" stroke="#63b8ff" points="85.26,-319.19 74.72,-318.1 82.28,-325.52 85.26,-319.19"/>
</a>
</g>
</g>
<!-- Node10 -->
<g id="Node000010" class="node">
<title>Node10</title>
<g id="a_Node000010"><a xlink:href="classDirectoryContentsList.html" target="_top" xlink:title="A class to asynchronously scan for details about the files in a directory.">
<polygon fill="white" stroke="#666666" points="265.62,-336 154.38,-336 154.38,-316 265.62,-316 265.62,-336"/>
<text xml:space="preserve" text-anchor="middle" x="210" y="-322.5" font-family="Helvetica,sans-Serif" font-size="10.00">DirectoryContentsList</text>
</a>
</g>
</g>
<!-- Node1&#45;&gt;Node10 -->
<g id="edge9_Node000001_Node000010" class="edge">
<title>Node1&#45;&gt;Node10</title>
<g id="a_edge9_Node000001_Node000010"><a xlink:title=" ">
<path fill="none" stroke="#63b8ff" d="M114.01,-314.5C127.21,-316.09 141.06,-317.77 153.98,-319.34"/>
<polygon fill="#63b8ff" stroke="#63b8ff" points="114.48,-311.03 104.13,-313.3 113.63,-317.98 114.48,-311.03"/>
</a>
</g>
</g>
<!-- Node11 -->
<g id="Node000011" class="node">
<title>Node11</title>
<g id="a_Node000011"><a xlink:href="classFileBasedDocument.html" target="_top" xlink:title="A class to take care of the logic involved with the loading/saving of some kind of document.">
<polygon fill="white" stroke="#666666" points="262.25,-298 157.75,-298 157.75,-278 262.25,-278 262.25,-298"/>
<text xml:space="preserve" text-anchor="middle" x="210" y="-284.5" font-family="Helvetica,sans-Serif" font-size="10.00">FileBasedDocument</text>
</a>
</g>
</g>
<!-- Node1&#45;&gt;Node11 -->
<g id="edge10_Node000001_Node000011" class="edge">
<title>Node1&#45;&gt;Node11</title>
<g id="a_edge10_Node000001_Node000011"><a xlink:title=" ">
<path fill="none" stroke="#63b8ff" d="M113.98,-299.51C128.4,-297.76 143.6,-295.92 157.52,-294.24"/>
<polygon fill="#63b8ff" stroke="#63b8ff" points="113.63,-296.02 104.13,-300.7 114.48,-302.97 113.63,-296.02"/>
</a>
</g>
</g>
<!-- Node12 -->
<g id="Node000012" class="node">
<title>Node12</title>
<g id="a_Node000012"><a xlink:href="classKeyPressMappingSet.html" target="_top" xlink:title="Manages and edits a list of keypresses, which it uses to invoke the appropriate command in an Applica...">
<polygon fill="white" stroke="#666666" points="265.25,-260 154.75,-260 154.75,-240 265.25,-240 265.25,-260"/>
<text xml:space="preserve" text-anchor="middle" x="210" y="-246.5" font-family="Helvetica,sans-Serif" font-size="10.00">KeyPressMappingSet</text>
</a>
</g>
</g>
<!-- Node1&#45;&gt;Node12 -->
<g id="edge11_Node000001_Node000012" class="edge">
<title>Node1&#45;&gt;Node12</title>
<g id="a_edge11_Node000001_Node000012"><a xlink:title=" ">
<path fill="none" stroke="#63b8ff" d="M83.32,-291.85C99.48,-284.36 119.66,-275.55 138.25,-269 147.13,-265.87 156.78,-262.96 166.03,-260.41"/>
<polygon fill="#63b8ff" stroke="#63b8ff" points="82.28,-288.48 74.72,-295.9 85.26,-294.81 82.28,-288.48"/>
</a>
</g>
</g>
<!-- Node13 -->
<g id="Node000013" class="node">
<title>Node13</title>
<g id="a_Node000013"><a xlink:href="classKeyboardComponentBase.html" target="_top" xlink:title="A base class for drawing a custom MIDI keyboard component.">
<polygon fill="white" stroke="#666666" points="275,-222 145,-222 145,-202 275,-202 275,-222"/>
<text xml:space="preserve" text-anchor="middle" x="210" y="-208.5" font-family="Helvetica,sans-Serif" font-size="10.00">KeyboardComponentBase</text>
</a>
</g>
</g>
<!-- Node1&#45;&gt;Node13 -->
<g id="edge12_Node000001_Node000013" class="edge">
<title>Node1&#45;&gt;Node13</title>
<g id="a_edge12_Node000001_Node000013"><a xlink:title=" ">
<path fill="none" stroke="#63b8ff" d="M68.26,-288.52C84.34,-271.21 110.57,-245.86 138.25,-231 144.64,-227.57 151.69,-224.73 158.79,-222.38"/>
<polygon fill="#63b8ff" stroke="#63b8ff" points="65.96,-285.85 61.84,-295.61 71.15,-290.54 65.96,-285.85"/>
</a>
</g>
</g>
<!-- Node16 -->
<g id="Node000016" class="node">
<title>Node16</title>
<g id="a_Node000016"><a xlink:href="classKnownPluginList.html" target="_top" xlink:title="Manages a list of plugin types.">
<polygon fill="white" stroke="#666666" points="254.38,-184 165.62,-184 165.62,-164 254.38,-164 254.38,-184"/>
<text xml:space="preserve" text-anchor="middle" x="210" y="-170.5" font-family="Helvetica,sans-Serif" font-size="10.00">KnownPluginList</text>
</a>
</g>
</g>
<!-- Node1&#45;&gt;Node16 -->
<g id="edge15_Node000001_Node000016" class="edge">
<title>Node1&#45;&gt;Node16</title>
<g id="a_edge15_Node000001_Node000016"><a xlink:title=" ">
<path fill="none" stroke="#63b8ff" d="M62.11,-286.54C75.74,-260.79 102.59,-217.03 138.25,-193 146.27,-187.6 155.76,-183.73 165.14,-180.96"/>
<polygon fill="#63b8ff" stroke="#63b8ff" points="59.06,-284.82 57.63,-295.32 65.29,-288 59.06,-284.82"/>
</a>
</g>
</g>
<!-- Node17 -->
<g id="Node000017" class="node">
<title>Node17</title>
<g id="a_Node000017"><a xlink:href="classPropertiesFile.html" target="_top" xlink:title="Wrapper on a file that stores a list of key/value data pairs.">
<polygon fill="white" stroke="#666666" points="248,-146 172,-146 172,-126 248,-126 248,-146"/>
<text xml:space="preserve" text-anchor="middle" x="210" y="-132.5" font-family="Helvetica,sans-Serif" font-size="10.00">PropertiesFile</text>
</a>
</g>
</g>
<!-- Node1&#45;&gt;Node17 -->
<g id="edge16_Node000001_Node000017" class="edge">
<title>Node1&#45;&gt;Node17</title>
<g id="a_edge16_Node000001_Node000017"><a xlink:title=" ">
<path fill="none" stroke="#63b8ff" d="M58.2,-285.99C68.84,-252.99 94.04,-189.23 138.25,-155 147.8,-147.6 160.01,-143.08 171.58,-140.32"/>
<polygon fill="#63b8ff" stroke="#63b8ff" points="54.96,-284.62 55.37,-295.2 61.65,-286.67 54.96,-284.62"/>
</a>
</g>
</g>
<!-- Node18 -->
<g id="Node000018" class="node">
<title>Node18</title>
<g id="a_Node000018"><a xlink:href="classSelectedItemSet.html" target="_top" xlink:title="Manages a list of selectable items.">
<polygon fill="white" stroke="#666666" points="281.75,-108 138.25,-108 138.25,-76 281.75,-76 281.75,-108"/>
<text xml:space="preserve" text-anchor="start" x="146.25" y="-94.5" font-family="Helvetica,sans-Serif" font-size="10.00">SelectedItemSet&lt; Selectable</text>
<text xml:space="preserve" text-anchor="middle" x="210" y="-82.5" font-family="Helvetica,sans-Serif" font-size="10.00">ItemType &gt;</text>
</a>
</g>
</g>
<!-- Node1&#45;&gt;Node18 -->
<g id="edge17_Node000001_Node000018" class="edge">
<title>Node1&#45;&gt;Node18</title>
<g id="a_edge17_Node000001_Node000018"><a xlink:title=" ">
<path fill="none" stroke="#63b8ff" d="M56.12,-285.45C64.45,-246.41 87.31,-163.74 138.25,-117 141.8,-113.74 145.8,-110.9 150.05,-108.43"/>
<polygon fill="#63b8ff" stroke="#63b8ff" points="52.7,-284.71 54.17,-295.21 59.56,-286.09 52.7,-284.71"/>
</a>
</g>
</g>
<!-- Node19 -->
<g id="Node000019" class="node">
<title>Node19</title>
<g id="a_Node000019"><a xlink:href="classTabbedButtonBar.html" target="_top" xlink:title="A vertical or horizontal bar containing tabs that you can select.">
<polygon fill="white" stroke="#666666" points="255.5,-58 164.5,-58 164.5,-38 255.5,-38 255.5,-58"/>
<text xml:space="preserve" text-anchor="middle" x="210" y="-44.5" font-family="Helvetica,sans-Serif" font-size="10.00">TabbedButtonBar</text>
</a>
</g>
</g>
<!-- Node1&#45;&gt;Node19 -->
<g id="edge18_Node000001_Node000019" class="edge">
<title>Node1&#45;&gt;Node19</title>
<g id="a_edge18_Node000001_Node000019"><a xlink:title=" ">
<path fill="none" stroke="#63b8ff" d="M53.41,-285.32C57.39,-238.35 73.53,-126.61 138.25,-67 145.45,-60.37 154.72,-56 164.17,-53.15"/>
<polygon fill="#63b8ff" stroke="#63b8ff" points="49.94,-284.78 52.7,-295.01 56.92,-285.29 49.94,-284.78"/>
</a>
</g>
</g>
<!-- Node20 -->
<g id="Node000020" class="node">
<title>Node20</title>
<g id="a_Node000020"><a xlink:href="classUndoManager.html" target="_top" xlink:title="Manages a list of undo/redo commands.">
<polygon fill="white" stroke="#666666" points="248.38,-20 171.62,-20 171.62,0 248.38,0 248.38,-20"/>
<text xml:space="preserve" text-anchor="middle" x="210" y="-6.5" font-family="Helvetica,sans-Serif" font-size="10.00">UndoManager</text>
</a>
</g>
</g>
<!-- Node1&#45;&gt;Node20 -->
<g id="edge19_Node000001_Node000020" class="edge">
<title>Node1&#45;&gt;Node20</title>
<g id="a_edge19_Node000001_Node000020"><a xlink:title=" ">
<path fill="none" stroke="#63b8ff" d="M52.17,-285.19C53.52,-233.01 64.42,-100.07 138.25,-29 147.14,-20.44 159.45,-15.64 171.31,-12.98"/>
<polygon fill="#63b8ff" stroke="#63b8ff" points="48.67,-285.06 52.03,-295.11 55.67,-285.17 48.67,-285.06"/>
</a>
</g>
</g>
<!-- Node6 -->
<g id="Node000006" class="node">
<title>Node6</title>
<g id="a_Node000006"><a xlink:href="classAudioThumbnail.html" target="_top" xlink:title="Makes it easy to quickly draw scaled views of the waveform shape of an audio file.">
<polygon fill="white" stroke="#666666" points="425.25,-488 339.5,-488 339.5,-468 425.25,-468 425.25,-488"/>
<text xml:space="preserve" text-anchor="middle" x="382.38" y="-474.5" font-family="Helvetica,sans-Serif" font-size="10.00">AudioThumbnail</text>
</a>
</g>
</g>
<!-- Node5&#45;&gt;Node6 -->
<g id="edge5_Node000005_Node000006" class="edge">
<title>Node5&#45;&gt;Node6</title>
<g id="a_edge5_Node000005_Node000006"><a xlink:title=" ">
<path fill="none" stroke="#63b8ff" d="M275.7,-478C296.97,-478 320.05,-478 339.2,-478"/>
<polygon fill="#63b8ff" stroke="#63b8ff" points="275.95,-474.5 265.95,-478 275.95,-481.5 275.95,-474.5"/>
</a>
</g>
</g>
<!-- Node14 -->
<g id="Node000014" class="node">
<title>Node14</title>
<g id="a_Node000014"><a xlink:href="classMPEKeyboardComponent.html" target="_top" xlink:title="A component that displays an MPE&#45;compatible keyboard, whose notes can be clicked on.">
<polygon fill="white" stroke="#666666" points="447,-241 317.75,-241 317.75,-221 447,-221 447,-241"/>
<text xml:space="preserve" text-anchor="middle" x="382.38" y="-227.5" font-family="Helvetica,sans-Serif" font-size="10.00">MPEKeyboardComponent</text>
</a>
</g>
</g>
<!-- Node13&#45;&gt;Node14 -->
<g id="edge13_Node000013_Node000014" class="edge">
<title>Node13&#45;&gt;Node14</title>
<g id="a_edge13_Node000013_Node000014"><a xlink:title=" ">
<path fill="none" stroke="#63b8ff" d="M286.84,-220.46C297.06,-221.6 307.45,-222.76 317.44,-223.87"/>
<polygon fill="#63b8ff" stroke="#63b8ff" points="287.24,-216.98 276.92,-219.35 286.47,-223.94 287.24,-216.98"/>
</a>
</g>
</g>
<!-- Node15 -->
<g id="Node000015" class="node">
<title>Node15</title>
<g id="a_Node000015"><a xlink:href="classMidiKeyboardComponent.html" target="_top" xlink:title="A component that displays a piano keyboard, whose notes can be clicked on.">
<polygon fill="white" stroke="#666666" points="445.12,-203 319.62,-203 319.62,-183 445.12,-183 445.12,-203"/>
<text xml:space="preserve" text-anchor="middle" x="382.38" y="-189.5" font-family="Helvetica,sans-Serif" font-size="10.00">MidiKeyboardComponent</text>
</a>
</g>
</g>
<!-- Node13&#45;&gt;Node15 -->
<g id="edge14_Node000013_Node000015" class="edge">
<title>Node13&#45;&gt;Node15</title>
<g id="a_edge14_Node000013_Node000015"><a xlink:title=" ">
<path fill="none" stroke="#63b8ff" d="M286.63,-203.57C297.49,-202.35 308.56,-201.12 319.13,-199.94"/>
<polygon fill="#63b8ff" stroke="#63b8ff" points="286.47,-200.06 276.92,-204.65 287.24,-207.02 286.47,-200.06"/>
</a>
</g>
</g>
</g>
</svg>
