<?xml version="1.0" encoding="UTF-8" standalone="no"?>
<!DOCTYPE svg PUBLIC "-//W3C//DTD SVG 1.1//EN"
 "http://www.w3.org/Graphics/SVG/1.1/DTD/svg11.dtd">
<!-- Generated by graphviz version 13.1.0 (20250701.0955)
 -->
<!-- Title: AudioFormat Pages: 1 -->
<svg width="254pt" height="294pt"
 viewBox="0.00 0.00 254.00 294.00" xmlns="http://www.w3.org/2000/svg" xmlns:xlink="http://www.w3.org/1999/xlink">
<g id="graph0" class="graph" transform="scale(1 1) rotate(0) translate(4 290)">
<title>AudioFormat</title>
<!-- Node1 -->
<g id="Node000001" class="node">
<title>Node1</title>
<g id="a_Node000001"><a xlink:title="Subclasses of AudioFormat are used to read and write different audio file formats.">
<polygon fill="#999999" stroke="#666666" points="71.5,-153 0,-153 0,-133 71.5,-133 71.5,-153"/>
<text xml:space="preserve" text-anchor="middle" x="35.75" y="-139.5" font-family="Helvetica,sans-Serif" font-size="10.00">AudioFormat</text>
</a>
</g>
</g>
<!-- Node2 -->
<g id="Node000002" class="node">
<title>Node2</title>
<g id="a_Node000002"><a xlink:href="classAiffAudioFormat.html" target="_top" xlink:title="Reads and Writes AIFF format audio files.">
<polygon fill="white" stroke="#666666" points="219.5,-286 133.75,-286 133.75,-266 219.5,-266 219.5,-286"/>
<text xml:space="preserve" text-anchor="middle" x="176.62" y="-272.5" font-family="Helvetica,sans-Serif" font-size="10.00">AiffAudioFormat</text>
</a>
</g>
</g>
<!-- Node1&#45;&gt;Node2 -->
<g id="edge1_Node000001_Node000002" class="edge">
<title>Node1&#45;&gt;Node2</title>
<g id="a_edge1_Node000001_Node000002"><a xlink:title=" ">
<path fill="none" stroke="#63b8ff" d="M44.15,-163.75C54.39,-189.47 75.35,-232.88 107.5,-257 115.06,-262.67 124.24,-266.65 133.37,-269.44"/>
<polygon fill="#63b8ff" stroke="#63b8ff" points="47.55,-162.83 40.73,-154.72 41,-165.31 47.55,-162.83"/>
</a>
</g>
</g>
<!-- Node3 -->
<g id="Node000003" class="node">
<title>Node3</title>
<g id="a_Node000003"><a xlink:href="classCoreAudioFormat.html" target="_top" xlink:title="OSX and iOS only &#45; This uses the AudioToolbox framework to read any audio format that the system has ...">
<polygon fill="white" stroke="#666666" points="222.88,-248 130.38,-248 130.38,-228 222.88,-228 222.88,-248"/>
<text xml:space="preserve" text-anchor="middle" x="176.62" y="-234.5" font-family="Helvetica,sans-Serif" font-size="10.00">CoreAudioFormat</text>
</a>
</g>
</g>
<!-- Node1&#45;&gt;Node3 -->
<g id="edge2_Node000001_Node000003" class="edge">
<title>Node1&#45;&gt;Node3</title>
<g id="a_edge2_Node000001_Node000003"><a xlink:title=" ">
<path fill="none" stroke="#63b8ff" d="M50.04,-162.49C62.82,-179.79 83.68,-204.51 107.5,-219 114.42,-223.21 122.3,-226.52 130.19,-229.1"/>
<polygon fill="#63b8ff" stroke="#63b8ff" points="53.02,-160.64 44.36,-154.53 47.32,-164.7 53.02,-160.64"/>
</a>
</g>
</g>
<!-- Node4 -->
<g id="Node000004" class="node">
<title>Node4</title>
<g id="a_Node000004"><a xlink:href="classFlacAudioFormat.html" target="_top" xlink:title="Reads and writes the lossless&#45;compression FLAC audio format.">
<polygon fill="white" stroke="#666666" points="221.75,-210 131.5,-210 131.5,-190 221.75,-190 221.75,-210"/>
<text xml:space="preserve" text-anchor="middle" x="176.62" y="-196.5" font-family="Helvetica,sans-Serif" font-size="10.00">FlacAudioFormat</text>
</a>
</g>
</g>
<!-- Node1&#45;&gt;Node4 -->
<g id="edge3_Node000001_Node000004" class="edge">
<title>Node1&#45;&gt;Node4</title>
<g id="a_edge3_Node000001_Node000004"><a xlink:title=" ">
<path fill="none" stroke="#63b8ff" d="M63.36,-159.1C76.35,-166.48 92.39,-174.92 107.5,-181 115.47,-184.21 124.18,-187.08 132.62,-189.56"/>
<polygon fill="#63b8ff" stroke="#63b8ff" points="65.39,-156.23 54.99,-154.23 61.87,-162.28 65.39,-156.23"/>
</a>
</g>
</g>
<!-- Node5 -->
<g id="Node000005" class="node">
<title>Node5</title>
<g id="a_Node000005"><a xlink:href="classLAMEEncoderAudioFormat.html" target="_top" xlink:title="An AudioFormat class which can use an installed version of the LAME mp3 encoder to encode a file.">
<polygon fill="white" stroke="#666666" points="243.88,-172 109.38,-172 109.38,-152 243.88,-152 243.88,-172"/>
<text xml:space="preserve" text-anchor="middle" x="176.62" y="-158.5" font-family="Helvetica,sans-Serif" font-size="10.00">LAMEEncoderAudioFormat</text>
</a>
</g>
</g>
<!-- Node1&#45;&gt;Node5 -->
<g id="edge4_Node000001_Node000005" class="edge">
<title>Node1&#45;&gt;Node5</title>
<g id="a_edge4_Node000001_Node000005"><a xlink:title=" ">
<path fill="none" stroke="#63b8ff" d="M83.13,-149.34C91.42,-150.48 100.2,-151.68 108.93,-152.87"/>
<polygon fill="#63b8ff" stroke="#63b8ff" points="83.68,-145.89 73.29,-148 82.73,-152.82 83.68,-145.89"/>
</a>
</g>
</g>
<!-- Node6 -->
<g id="Node000006" class="node">
<title>Node6</title>
<g id="a_Node000006"><a xlink:href="classMP3AudioFormat.html" target="_top" xlink:title="Software&#45;based MP3 decoding format (doesn&#39;t currently provide an encoder).">
<polygon fill="white" stroke="#666666" points="222.5,-134 130.75,-134 130.75,-114 222.5,-114 222.5,-134"/>
<text xml:space="preserve" text-anchor="middle" x="176.62" y="-120.5" font-family="Helvetica,sans-Serif" font-size="10.00">MP3AudioFormat</text>
</a>
</g>
</g>
<!-- Node1&#45;&gt;Node6 -->
<g id="edge5_Node000001_Node000006" class="edge">
<title>Node1&#45;&gt;Node6</title>
<g id="a_edge5_Node000001_Node000006"><a xlink:title=" ">
<path fill="none" stroke="#63b8ff" d="M83.06,-136.66C98.28,-134.58 115.19,-132.27 130.34,-130.2"/>
<polygon fill="#63b8ff" stroke="#63b8ff" points="82.73,-133.18 73.29,-138 83.68,-140.11 82.73,-133.18"/>
</a>
</g>
</g>
<!-- Node7 -->
<g id="Node000007" class="node">
<title>Node7</title>
<g id="a_Node000007"><a xlink:href="classOggVorbisAudioFormat.html" target="_top" xlink:title="Reads and writes the Ogg&#45;Vorbis audio format.">
<polygon fill="white" stroke="#666666" points="234.88,-96 118.38,-96 118.38,-76 234.88,-76 234.88,-96"/>
<text xml:space="preserve" text-anchor="middle" x="176.62" y="-82.5" font-family="Helvetica,sans-Serif" font-size="10.00">OggVorbisAudioFormat</text>
</a>
</g>
</g>
<!-- Node1&#45;&gt;Node7 -->
<g id="edge6_Node000001_Node000007" class="edge">
<title>Node1&#45;&gt;Node7</title>
<g id="a_edge6_Node000001_Node000007"><a xlink:title=" ">
<path fill="none" stroke="#63b8ff" d="M63.36,-126.9C76.35,-119.52 92.39,-111.08 107.5,-105 115.47,-101.79 124.18,-98.92 132.62,-96.44"/>
<polygon fill="#63b8ff" stroke="#63b8ff" points="61.87,-123.72 54.99,-131.77 65.39,-129.77 61.87,-123.72"/>
</a>
</g>
</g>
<!-- Node8 -->
<g id="Node000008" class="node">
<title>Node8</title>
<g id="a_Node000008"><a xlink:href="classWavAudioFormat.html" target="_top" xlink:title="Reads and Writes WAV format audio files.">
<polygon fill="white" stroke="#666666" points="222.12,-58 131.12,-58 131.12,-38 222.12,-38 222.12,-58"/>
<text xml:space="preserve" text-anchor="middle" x="176.62" y="-44.5" font-family="Helvetica,sans-Serif" font-size="10.00">WavAudioFormat</text>
</a>
</g>
</g>
<!-- Node1&#45;&gt;Node8 -->
<g id="edge7_Node000001_Node000008" class="edge">
<title>Node1&#45;&gt;Node8</title>
<g id="a_edge7_Node000001_Node000008"><a xlink:title=" ">
<path fill="none" stroke="#63b8ff" d="M50.04,-123.51C62.82,-106.21 83.68,-81.49 107.5,-67 114.63,-62.66 122.78,-59.29 130.91,-56.67"/>
<polygon fill="#63b8ff" stroke="#63b8ff" points="47.32,-121.3 44.36,-131.47 53.02,-125.36 47.32,-121.3"/>
</a>
</g>
</g>
<!-- Node9 -->
<g id="Node000009" class="node">
<title>Node9</title>
<g id="a_Node000009"><a xlink:href="classWindowsMediaAudioFormat.html" target="_top" xlink:title="Audio format which uses the Windows Media codecs (Windows only).">
<polygon fill="white" stroke="#666666" points="245.75,-20 107.5,-20 107.5,0 245.75,0 245.75,-20"/>
<text xml:space="preserve" text-anchor="middle" x="176.62" y="-6.5" font-family="Helvetica,sans-Serif" font-size="10.00">WindowsMediaAudioFormat</text>
</a>
</g>
</g>
<!-- Node1&#45;&gt;Node9 -->
<g id="edge8_Node000001_Node000009" class="edge">
<title>Node1&#45;&gt;Node9</title>
<g id="a_edge8_Node000001_Node000009"><a xlink:title=" ">
<path fill="none" stroke="#63b8ff" d="M44.15,-122.25C54.39,-96.53 75.35,-53.12 107.5,-29 112.12,-25.54 117.33,-22.7 122.78,-20.39"/>
<polygon fill="#63b8ff" stroke="#63b8ff" points="41,-120.69 40.73,-131.28 47.55,-123.17 41,-120.69"/>
</a>
</g>
</g>
</g>
</svg>
