<?xml version="1.0" encoding="UTF-8" standalone="no"?>
<!DOCTYPE svg PUBLIC "-//W3C//DTD SVG 1.1//EN"
 "http://www.w3.org/Graphics/SVG/1.1/DTD/svg11.dtd">
<!-- Generated by graphviz version 13.1.0 (20250701.0955)
 -->
<!-- Title: ComponentTraverser Pages: 1 -->
<svg width="236pt" height="84pt"
 viewBox="0.00 0.00 236.00 84.00" xmlns="http://www.w3.org/2000/svg" xmlns:xlink="http://www.w3.org/1999/xlink">
<g id="graph0" class="graph" transform="scale(1 1) rotate(0) translate(4 80)">
<title>ComponentTraverser</title>
<!-- Node1 -->
<g id="Node000001" class="node">
<title>Node1</title>
<g id="a_Node000001"><a xlink:title="Base class for traversing components.">
<polygon fill="#999999" stroke="#666666" points="156.88,-76 49.38,-76 49.38,-56 156.88,-56 156.88,-76"/>
<text xml:space="preserve" text-anchor="middle" x="103.12" y="-62.5" font-family="Helvetica,sans-Serif" font-size="10.00">ComponentTraverser</text>
</a>
</g>
</g>
<!-- Node2 -->
<g id="Node000002" class="node">
<title>Node2</title>
<g id="a_Node000002"><a xlink:href="classFocusTraverser.html" target="_top" xlink:title="Controls the order in which focus moves between components.">
<polygon fill="white" stroke="#666666" points="84.25,-20 0,-20 0,0 84.25,0 84.25,-20"/>
<text xml:space="preserve" text-anchor="middle" x="42.12" y="-6.5" font-family="Helvetica,sans-Serif" font-size="10.00">FocusTraverser</text>
</a>
</g>
</g>
<!-- Node1&#45;&gt;Node2 -->
<g id="edge1_Node000001_Node000002" class="edge">
<title>Node1&#45;&gt;Node2</title>
<g id="a_edge1_Node000001_Node000002"><a xlink:title=" ">
<path fill="none" stroke="#63b8ff" d="M84.06,-48.13C73.69,-38.94 61.25,-27.93 52.63,-20.3"/>
<polygon fill="#63b8ff" stroke="#63b8ff" points="81.56,-50.58 91.37,-54.59 86.2,-45.34 81.56,-50.58"/>
</a>
</g>
</g>
<!-- Node3 -->
<g id="Node000003" class="node">
<title>Node3</title>
<g id="a_Node000003"><a xlink:href="classKeyboardFocusTraverser.html" target="_top" xlink:title="Controls the order in which keyboard focus moves between components.">
<polygon fill="white" stroke="#666666" points="227.88,-20 102.38,-20 102.38,0 227.88,0 227.88,-20"/>
<text xml:space="preserve" text-anchor="middle" x="165.12" y="-6.5" font-family="Helvetica,sans-Serif" font-size="10.00">KeyboardFocusTraverser</text>
</a>
</g>
</g>
<!-- Node1&#45;&gt;Node3 -->
<g id="edge2_Node000001_Node000003" class="edge">
<title>Node1&#45;&gt;Node3</title>
<g id="a_edge2_Node000001_Node000003"><a xlink:title=" ">
<path fill="none" stroke="#63b8ff" d="M122.5,-48.13C133.04,-38.94 145.68,-27.93 154.45,-20.3"/>
<polygon fill="#63b8ff" stroke="#63b8ff" points="120.31,-45.39 115.07,-54.6 124.91,-50.67 120.31,-45.39"/>
</a>
</g>
</g>
</g>
</svg>
