<?xml version="1.0" encoding="UTF-8" standalone="no"?>
<!DOCTYPE svg PUBLIC "-//W3C//DTD SVG 1.1//EN"
 "http://www.w3.org/Graphics/SVG/1.1/DTD/svg11.dtd">
<!-- Generated by graphviz version 13.1.0 (20250701.0955)
 -->
<!-- Title: ARAObject Pages: 1 -->
<svg width="224pt" height="218pt"
 viewBox="0.00 0.00 224.00 218.00" xmlns="http://www.w3.org/2000/svg" xmlns:xlink="http://www.w3.org/1999/xlink">
<g id="graph0" class="graph" transform="scale(1 1) rotate(0) translate(4 214)">
<title>ARAObject</title>
<!-- Node1 -->
<g id="Node000001" class="node">
<title>Node1</title>
<g id="a_Node000001"><a xlink:title="Common base class for all JUCE ARA model objects to aid with the discovery and traversal of the entir...">
<polygon fill="#999999" stroke="#666666" points="65.5,-115 0,-115 0,-95 65.5,-95 65.5,-115"/>
<text xml:space="preserve" text-anchor="middle" x="32.75" y="-101.5" font-family="Helvetica,sans-Serif" font-size="10.00">ARAObject</text>
</a>
</g>
</g>
<!-- Node2 -->
<g id="Node000002" class="node">
<title>Node2</title>
<g id="a_Node000002"><a xlink:href="classARAAudioModification.html" target="_top" xlink:title="Base class representing an ARA audio modification.">
<polygon fill="white" stroke="#666666" points="215.75,-210 101.5,-210 101.5,-190 215.75,-190 215.75,-210"/>
<text xml:space="preserve" text-anchor="middle" x="158.62" y="-196.5" font-family="Helvetica,sans-Serif" font-size="10.00">ARAAudioModification</text>
</a>
</g>
</g>
<!-- Node1&#45;&gt;Node2 -->
<g id="edge1_Node000001_Node000002" class="edge">
<title>Node1&#45;&gt;Node2</title>
<g id="a_edge1_Node000001_Node000002"><a xlink:title=" ">
<path fill="none" stroke="#63b8ff" d="M46.68,-124.49C58.94,-141.59 78.83,-166 101.5,-181 106.56,-184.35 112.27,-187.16 118.06,-189.51"/>
<polygon fill="#63b8ff" stroke="#63b8ff" points="49.81,-122.86 41.24,-116.64 44.06,-126.85 49.81,-122.86"/>
</a>
</g>
</g>
<!-- Node3 -->
<g id="Node000003" class="node">
<title>Node3</title>
<g id="a_Node000003"><a xlink:href="classARAAudioSource.html" target="_top" xlink:title="Base class representing an ARA audio source.">
<polygon fill="white" stroke="#666666" points="204.88,-172 112.38,-172 112.38,-152 204.88,-152 204.88,-172"/>
<text xml:space="preserve" text-anchor="middle" x="158.62" y="-158.5" font-family="Helvetica,sans-Serif" font-size="10.00">ARAAudioSource</text>
</a>
</g>
</g>
<!-- Node1&#45;&gt;Node3 -->
<g id="edge2_Node000001_Node000003" class="edge">
<title>Node1&#45;&gt;Node3</title>
<g id="a_edge2_Node000001_Node000003"><a xlink:title=" ">
<path fill="none" stroke="#63b8ff" d="M59.92,-121.17C72.26,-128.41 87.35,-136.7 101.5,-143 108.45,-146.1 116.08,-148.99 123.4,-151.54"/>
<polygon fill="#63b8ff" stroke="#63b8ff" points="61.97,-118.32 51.59,-116.19 58.38,-124.33 61.97,-118.32"/>
</a>
</g>
</g>
<!-- Node4 -->
<g id="Node000004" class="node">
<title>Node4</title>
<g id="a_Node000004"><a xlink:href="classARADocument.html" target="_top" xlink:title="Base class representing an ARA document.">
<polygon fill="white" stroke="#666666" points="199.62,-134 117.62,-134 117.62,-114 199.62,-114 199.62,-134"/>
<text xml:space="preserve" text-anchor="middle" x="158.62" y="-120.5" font-family="Helvetica,sans-Serif" font-size="10.00">ARADocument</text>
</a>
</g>
</g>
<!-- Node1&#45;&gt;Node4 -->
<g id="edge3_Node000001_Node000004" class="edge">
<title>Node1&#45;&gt;Node4</title>
<g id="a_edge3_Node000001_Node000004"><a xlink:title=" ">
<path fill="none" stroke="#63b8ff" d="M77.04,-111.64C90.06,-113.64 104.3,-115.82 117.13,-117.79"/>
<polygon fill="#63b8ff" stroke="#63b8ff" points="77.88,-108.23 67.47,-110.17 76.82,-115.15 77.88,-108.23"/>
</a>
</g>
</g>
<!-- Node5 -->
<g id="Node000005" class="node">
<title>Node5</title>
<g id="a_Node000005"><a xlink:href="classARAMusicalContext.html" target="_top" xlink:title="Base class representing an ARA musical context.">
<polygon fill="white" stroke="#666666" points="211.25,-96 106,-96 106,-76 211.25,-76 211.25,-96"/>
<text xml:space="preserve" text-anchor="middle" x="158.62" y="-82.5" font-family="Helvetica,sans-Serif" font-size="10.00">ARAMusicalContext</text>
</a>
</g>
</g>
<!-- Node1&#45;&gt;Node5 -->
<g id="edge4_Node000001_Node000005" class="edge">
<title>Node1&#45;&gt;Node5</title>
<g id="a_edge4_Node000001_Node000005"><a xlink:title=" ">
<path fill="none" stroke="#63b8ff" d="M77.29,-98.32C86.53,-96.9 96.37,-95.39 105.89,-93.94"/>
<polygon fill="#63b8ff" stroke="#63b8ff" points="76.82,-94.85 67.47,-99.83 77.88,-101.77 76.82,-94.85"/>
</a>
</g>
</g>
<!-- Node6 -->
<g id="Node000006" class="node">
<title>Node6</title>
<g id="a_Node000006"><a xlink:href="classARAPlaybackRegion.html" target="_top" xlink:title="Base class representing an ARA playback region.">
<polygon fill="white" stroke="#666666" points="212.75,-58 104.5,-58 104.5,-38 212.75,-38 212.75,-58"/>
<text xml:space="preserve" text-anchor="middle" x="158.62" y="-44.5" font-family="Helvetica,sans-Serif" font-size="10.00">ARAPlaybackRegion</text>
</a>
</g>
</g>
<!-- Node1&#45;&gt;Node6 -->
<g id="edge5_Node000001_Node000006" class="edge">
<title>Node1&#45;&gt;Node6</title>
<g id="a_edge5_Node000001_Node000006"><a xlink:title=" ">
<path fill="none" stroke="#63b8ff" d="M59.92,-88.83C72.26,-81.59 87.35,-73.3 101.5,-67 108.45,-63.9 116.08,-61.01 123.4,-58.46"/>
<polygon fill="#63b8ff" stroke="#63b8ff" points="58.38,-85.67 51.59,-93.81 61.97,-91.68 58.38,-85.67"/>
</a>
</g>
</g>
<!-- Node7 -->
<g id="Node000007" class="node">
<title>Node7</title>
<g id="a_Node000007"><a xlink:href="classARARegionSequence.html" target="_top" xlink:title="Base class representing an ARA region sequence.">
<polygon fill="white" stroke="#666666" points="214.25,-20 103,-20 103,0 214.25,0 214.25,-20"/>
<text xml:space="preserve" text-anchor="middle" x="158.62" y="-6.5" font-family="Helvetica,sans-Serif" font-size="10.00">ARARegionSequence</text>
</a>
</g>
</g>
<!-- Node1&#45;&gt;Node7 -->
<g id="edge6_Node000001_Node000007" class="edge">
<title>Node1&#45;&gt;Node7</title>
<g id="a_edge6_Node000001_Node000007"><a xlink:title=" ">
<path fill="none" stroke="#63b8ff" d="M46.68,-85.51C58.94,-68.41 78.83,-44 101.5,-29 106.56,-25.65 112.27,-22.84 118.06,-20.49"/>
<polygon fill="#63b8ff" stroke="#63b8ff" points="44.06,-83.15 41.24,-93.36 49.81,-87.14 44.06,-83.15"/>
</a>
</g>
</g>
</g>
</svg>
