<?xml version="1.0" encoding="UTF-8" standalone="no"?>
<!DOCTYPE svg PUBLIC "-//W3C//DTD SVG 1.1//EN"
 "http://www.w3.org/Graphics/SVG/1.1/DTD/svg11.dtd">
<!-- Generated by graphviz version 13.1.0 (20250701.0955)
 -->
<!-- Title: ARAAudioSource Pages: 1 -->
<svg width="236pt" height="96pt"
 viewBox="0.00 0.00 236.00 96.00" xmlns="http://www.w3.org/2000/svg" xmlns:xlink="http://www.w3.org/1999/xlink">
<g id="graph0" class="graph" transform="scale(1 1) rotate(0) translate(4 92)">
<title>ARAAudioSource</title>
<!-- Node1 -->
<g id="Node000001" class="node">
<title>Node1</title>
<g id="a_Node000001"><a xlink:title="Base class representing an ARA audio source.">
<polygon fill="#999999" stroke="#666666" points="179.38,-20 86.88,-20 86.88,0 179.38,0 179.38,-20"/>
<text xml:space="preserve" text-anchor="middle" x="133.12" y="-6.5" font-family="Helvetica,sans-Serif" font-size="10.00">ARAAudioSource</text>
</a>
</g>
</g>
<!-- Node2 -->
<g id="Node000002" class="node">
<title>Node2</title>
<g id="a_Node000002"><a xlink:href="classARAListenableModelClass.html" target="_top" xlink:title=" ">
<polygon fill="white" stroke="#666666" points="144.25,-88 0,-88 0,-56 144.25,-56 144.25,-88"/>
<text xml:space="preserve" text-anchor="start" x="8" y="-74.5" font-family="Helvetica,sans-Serif" font-size="10.00">ARAListenableModelClass</text>
<text xml:space="preserve" text-anchor="middle" x="72.12" y="-62.5" font-family="Helvetica,sans-Serif" font-size="10.00">&lt; ARAAudioSourceListener &gt;</text>
</a>
</g>
</g>
<!-- Node2&#45;&gt;Node1 -->
<g id="edge1_Node000001_Node000002" class="edge">
<title>Node2&#45;&gt;Node1</title>
<g id="a_edge1_Node000001_Node000002"><a xlink:title=" ">
<path fill="none" stroke="#63b8ff" d="M95.96,-47.56C105.59,-38.08 116.16,-27.68 123.56,-20.41"/>
<polygon fill="#63b8ff" stroke="#63b8ff" points="93.59,-44.98 88.91,-54.49 98.5,-49.97 93.59,-44.98"/>
</a>
</g>
</g>
<!-- Node3 -->
<g id="Node000003" class="node">
<title>Node3</title>
<g id="a_Node000003"><a xlink:href="classARAObject.html" target="_top" xlink:title="Common base class for all JUCE ARA model objects to aid with the discovery and traversal of the entir...">
<polygon fill="white" stroke="#666666" points="227.88,-82 162.38,-82 162.38,-62 227.88,-62 227.88,-82"/>
<text xml:space="preserve" text-anchor="middle" x="195.12" y="-68.5" font-family="Helvetica,sans-Serif" font-size="10.00">ARAObject</text>
</a>
</g>
</g>
<!-- Node3&#45;&gt;Node1 -->
<g id="edge2_Node000001_Node000003" class="edge">
<title>Node3&#45;&gt;Node1</title>
<g id="a_edge2_Node000001_Node000003"><a xlink:title=" ">
<path fill="none" stroke="#63b8ff" d="M177.46,-53.9C166.09,-42.91 151.78,-29.05 142.54,-20.11"/>
<polygon fill="#63b8ff" stroke="#63b8ff" points="174.73,-56.13 184.35,-60.57 179.6,-51.1 174.73,-56.13"/>
</a>
</g>
</g>
</g>
</svg>
