<?xml version="1.0" encoding="UTF-8" standalone="no"?>
<!DOCTYPE svg PUBLIC "-//W3C//DTD SVG 1.1//EN"
 "http://www.w3.org/Graphics/SVG/1.1/DTD/svg11.dtd">
<!-- Generated by graphviz version 13.1.0 (20250701.0955)
 -->
<!-- Title: FileTreeComponent Pages: 1 -->
<svg width="461pt" height="208pt"
 viewBox="0.00 0.00 461.00 208.00" xmlns="http://www.w3.org/2000/svg" xmlns:xlink="http://www.w3.org/1999/xlink">
<g id="graph0" class="graph" transform="scale(1 1) rotate(0) translate(4 204)">
<title>FileTreeComponent</title>
<!-- Node1 -->
<g id="Node000001" class="node">
<title>Node1</title>
<g id="a_Node000001"><a xlink:title="A component that displays the files in a directory as a treeview.">
<polygon fill="#999999" stroke="#666666" points="314.62,-20 213.12,-20 213.12,0 314.62,0 314.62,-20"/>
<text xml:space="preserve" text-anchor="middle" x="263.88" y="-6.5" font-family="Helvetica,sans-Serif" font-size="10.00">FileTreeComponent</text>
</a>
</g>
</g>
<!-- Node2 -->
<g id="Node000002" class="node">
<title>Node2</title>
<g id="a_Node000002"><a xlink:href="classTreeView.html" target="_top" xlink:title="A tree&#45;view component.">
<polygon fill="white" stroke="#666666" points="237.5,-82 180.25,-82 180.25,-62 237.5,-62 237.5,-82"/>
<text xml:space="preserve" text-anchor="middle" x="208.88" y="-68.5" font-family="Helvetica,sans-Serif" font-size="10.00">TreeView</text>
</a>
</g>
</g>
<!-- Node2&#45;&gt;Node1 -->
<g id="edge1_Node000001_Node000002" class="edge">
<title>Node2&#45;&gt;Node1</title>
<g id="a_edge1_Node000001_Node000002"><a xlink:title=" ">
<path fill="none" stroke="#63b8ff" d="M225.14,-53.25C235.12,-42.36 247.49,-28.88 255.52,-20.11"/>
<polygon fill="#63b8ff" stroke="#63b8ff" points="222.67,-50.77 218.49,-60.51 227.83,-55.5 222.67,-50.77"/>
</a>
</g>
</g>
<!-- Node3 -->
<g id="Node000003" class="node">
<title>Node3</title>
<g id="a_Node000003"><a xlink:href="classComponent.html" target="_top" xlink:title="The base class for all JUCE user&#45;interface objects.">
<polygon fill="white" stroke="#666666" points="73,-144 6.75,-144 6.75,-124 73,-124 73,-144"/>
<text xml:space="preserve" text-anchor="middle" x="39.88" y="-130.5" font-family="Helvetica,sans-Serif" font-size="10.00">Component</text>
</a>
</g>
</g>
<!-- Node3&#45;&gt;Node2 -->
<g id="edge2_Node000002_Node000003" class="edge">
<title>Node3&#45;&gt;Node2</title>
<g id="a_edge2_Node000002_Node000003"><a xlink:title=" ">
<path fill="none" stroke="#63b8ff" d="M76.95,-119.84C108.83,-108.52 154.02,-92.47 182.38,-82.41"/>
<polygon fill="#63b8ff" stroke="#63b8ff" points="75.96,-116.47 67.71,-123.12 78.3,-123.07 75.96,-116.47"/>
</a>
</g>
</g>
<!-- Node4 -->
<g id="Node000004" class="node">
<title>Node4</title>
<g id="a_Node000004"><a xlink:href="classMouseListener.html" target="_top" xlink:title="A MouseListener can be registered with a component to receive callbacks about mouse events that happe...">
<polygon fill="white" stroke="#666666" points="79.75,-200 0,-200 0,-180 79.75,-180 79.75,-200"/>
<text xml:space="preserve" text-anchor="middle" x="39.88" y="-186.5" font-family="Helvetica,sans-Serif" font-size="10.00">MouseListener</text>
</a>
</g>
</g>
<!-- Node4&#45;&gt;Node3 -->
<g id="edge3_Node000003_Node000004" class="edge">
<title>Node4&#45;&gt;Node3</title>
<g id="a_edge3_Node000003_Node000004"><a xlink:title=" ">
<path fill="none" stroke="#63b8ff" d="M39.88,-168.13C39.88,-159.9 39.88,-150.85 39.88,-144.3"/>
<polygon fill="#63b8ff" stroke="#63b8ff" points="36.38,-168.08 39.88,-178.08 43.38,-168.08 36.38,-168.08"/>
</a>
</g>
</g>
<!-- Node5 -->
<g id="Node000005" class="node">
<title>Node5</title>
<g id="a_Node000005"><a xlink:href="classSettableTooltipClient.html" target="_top" xlink:title="An implementation of TooltipClient that stores the tooltip string and a method for changing it.">
<polygon fill="white" stroke="#666666" points="196.88,-144 90.88,-144 90.88,-124 196.88,-124 196.88,-144"/>
<text xml:space="preserve" text-anchor="middle" x="143.88" y="-130.5" font-family="Helvetica,sans-Serif" font-size="10.00">SettableTooltipClient</text>
</a>
</g>
</g>
<!-- Node5&#45;&gt;Node2 -->
<g id="edge4_Node000002_Node000005" class="edge">
<title>Node5&#45;&gt;Node2</title>
<g id="a_edge4_Node000002_Node000005"><a xlink:title=" ">
<path fill="none" stroke="#63b8ff" d="M162.4,-115.9C174.31,-104.91 189.32,-91.05 199,-82.11"/>
<polygon fill="#63b8ff" stroke="#63b8ff" points="160.12,-113.24 155.14,-122.6 164.87,-118.39 160.12,-113.24"/>
</a>
</g>
</g>
<!-- Node6 -->
<g id="Node000006" class="node">
<title>Node6</title>
<g id="a_Node000006"><a xlink:href="classTooltipClient.html" target="_top" xlink:title="Components that want to use pop&#45;up tooltips should implement this interface.">
<polygon fill="white" stroke="#666666" points="178.88,-200 108.88,-200 108.88,-180 178.88,-180 178.88,-200"/>
<text xml:space="preserve" text-anchor="middle" x="143.88" y="-186.5" font-family="Helvetica,sans-Serif" font-size="10.00">TooltipClient</text>
</a>
</g>
</g>
<!-- Node6&#45;&gt;Node5 -->
<g id="edge5_Node000005_Node000006" class="edge">
<title>Node6&#45;&gt;Node5</title>
<g id="a_edge5_Node000005_Node000006"><a xlink:title=" ">
<path fill="none" stroke="#63b8ff" d="M143.88,-168.13C143.88,-159.9 143.88,-150.85 143.88,-144.3"/>
<polygon fill="#63b8ff" stroke="#63b8ff" points="140.38,-168.08 143.88,-178.08 147.38,-168.08 140.38,-168.08"/>
</a>
</g>
</g>
<!-- Node7 -->
<g id="Node000007" class="node">
<title>Node7</title>
<g id="a_Node000007"><a xlink:href="classFileDragAndDropTarget.html" target="_top" xlink:title="Components derived from this class can have files dropped onto them by an external application.">
<polygon fill="white" stroke="#666666" points="332.88,-144 214.88,-144 214.88,-124 332.88,-124 332.88,-144"/>
<text xml:space="preserve" text-anchor="middle" x="273.88" y="-130.5" font-family="Helvetica,sans-Serif" font-size="10.00">FileDragAndDropTarget</text>
</a>
</g>
</g>
<!-- Node7&#45;&gt;Node2 -->
<g id="edge6_Node000002_Node000007" class="edge">
<title>Node7&#45;&gt;Node2</title>
<g id="a_edge6_Node000002_Node000007"><a xlink:title=" ">
<path fill="none" stroke="#63b8ff" d="M255.35,-115.9C243.44,-104.91 228.43,-91.05 218.75,-82.11"/>
<polygon fill="#63b8ff" stroke="#63b8ff" points="252.88,-118.39 262.61,-122.6 257.63,-113.24 252.88,-118.39"/>
</a>
</g>
</g>
<!-- Node8 -->
<g id="Node000008" class="node">
<title>Node8</title>
<g id="a_Node000008"><a xlink:href="classDragAndDropTarget.html" target="_top" xlink:title="Components derived from this class can have things dropped onto them by a DragAndDropContainer.">
<polygon fill="white" stroke="#666666" points="453,-144 350.75,-144 350.75,-124 453,-124 453,-144"/>
<text xml:space="preserve" text-anchor="middle" x="401.88" y="-130.5" font-family="Helvetica,sans-Serif" font-size="10.00">DragAndDropTarget</text>
</a>
</g>
</g>
<!-- Node8&#45;&gt;Node2 -->
<g id="edge7_Node000002_Node000008" class="edge">
<title>Node8&#45;&gt;Node2</title>
<g id="a_edge7_Node000002_Node000008"><a xlink:title=" ">
<path fill="none" stroke="#63b8ff" d="M354.97,-120.61C324.05,-112.14 282.77,-100.27 246.88,-88 241.91,-86.3 236.64,-84.33 231.65,-82.39"/>
<polygon fill="#63b8ff" stroke="#63b8ff" points="353.84,-123.93 364.41,-123.18 355.68,-117.18 353.84,-123.93"/>
</a>
</g>
</g>
<!-- Node9 -->
<g id="Node000009" class="node">
<title>Node9</title>
<g id="a_Node000009"><a xlink:href="classDirectoryContentsDisplayComponent.html" target="_top" xlink:title="A base class for components that display a list of the files in a directory.">
<polygon fill="white" stroke="#666666" points="384.12,-88 255.62,-88 255.62,-56 384.12,-56 384.12,-88"/>
<text xml:space="preserve" text-anchor="start" x="263.62" y="-74.5" font-family="Helvetica,sans-Serif" font-size="10.00">DirectoryContentsDisplay</text>
<text xml:space="preserve" text-anchor="middle" x="319.88" y="-62.5" font-family="Helvetica,sans-Serif" font-size="10.00">Component</text>
</a>
</g>
</g>
<!-- Node9&#45;&gt;Node1 -->
<g id="edge8_Node000001_Node000009" class="edge">
<title>Node9&#45;&gt;Node1</title>
<g id="a_edge8_Node000001_Node000009"><a xlink:title=" ">
<path fill="none" stroke="#63b8ff" d="M297.73,-47.27C288.95,-37.87 279.38,-27.61 272.66,-20.41"/>
<polygon fill="#63b8ff" stroke="#63b8ff" points="295.04,-49.52 304.42,-54.44 300.16,-44.74 295.04,-49.52"/>
</a>
</g>
</g>
</g>
</svg>
