<?xml version="1.0" encoding="UTF-8" standalone="no"?>
<!DOCTYPE svg PUBLIC "-//W3C//DTD SVG 1.1//EN"
 "http://www.w3.org/Graphics/SVG/1.1/DTD/svg11.dtd">
<!-- Generated by graphviz version 13.1.0 (20250701.0955)
 -->
<!-- Title: ImagePreviewComponent Pages: 1 -->
<svg width="184pt" height="196pt"
 viewBox="0.00 0.00 184.00 196.00" xmlns="http://www.w3.org/2000/svg" xmlns:xlink="http://www.w3.org/1999/xlink">
<g id="graph0" class="graph" transform="scale(1 1) rotate(0) translate(4 192)">
<title>ImagePreviewComponent</title>
<!-- Node1 -->
<g id="Node000001" class="node">
<title>Node1</title>
<g id="a_Node000001"><a xlink:title="A simple preview component that shows thumbnails of image files.">
<polygon fill="#999999" stroke="#666666" points="170.88,-20 42.38,-20 42.38,0 170.88,0 170.88,-20"/>
<text xml:space="preserve" text-anchor="middle" x="106.62" y="-6.5" font-family="Helvetica,sans-Serif" font-size="10.00">ImagePreviewComponent</text>
</a>
</g>
</g>
<!-- Node2 -->
<g id="Node000002" class="node">
<title>Node2</title>
<g id="a_Node000002"><a xlink:href="classFilePreviewComponent.html" target="_top" xlink:title="Base class for components that live inside a file chooser dialog box and show previews of the files t...">
<polygon fill="white" stroke="#666666" points="117.25,-76 0,-76 0,-56 117.25,-56 117.25,-76"/>
<text xml:space="preserve" text-anchor="middle" x="58.62" y="-62.5" font-family="Helvetica,sans-Serif" font-size="10.00">FilePreviewComponent</text>
</a>
</g>
</g>
<!-- Node2&#45;&gt;Node1 -->
<g id="edge1_Node000001_Node000002" class="edge">
<title>Node2&#45;&gt;Node1</title>
<g id="a_edge1_Node000001_Node000002"><a xlink:title=" ">
<path fill="none" stroke="#63b8ff" d="M74.62,-47C82.57,-38.06 91.85,-27.62 98.36,-20.3"/>
<polygon fill="#63b8ff" stroke="#63b8ff" points="72.02,-44.66 67.99,-54.46 77.25,-49.31 72.02,-44.66"/>
</a>
</g>
</g>
<!-- Node3 -->
<g id="Node000003" class="node">
<title>Node3</title>
<g id="a_Node000003"><a xlink:href="classComponent.html" target="_top" xlink:title="The base class for all JUCE user&#45;interface objects.">
<polygon fill="white" stroke="#666666" points="91.75,-132 25.5,-132 25.5,-112 91.75,-112 91.75,-132"/>
<text xml:space="preserve" text-anchor="middle" x="58.62" y="-118.5" font-family="Helvetica,sans-Serif" font-size="10.00">Component</text>
</a>
</g>
</g>
<!-- Node3&#45;&gt;Node2 -->
<g id="edge2_Node000002_Node000003" class="edge">
<title>Node3&#45;&gt;Node2</title>
<g id="a_edge2_Node000002_Node000003"><a xlink:title=" ">
<path fill="none" stroke="#63b8ff" d="M58.62,-100.13C58.62,-91.9 58.62,-82.85 58.62,-76.3"/>
<polygon fill="#63b8ff" stroke="#63b8ff" points="55.13,-100.08 58.63,-110.08 62.13,-100.08 55.13,-100.08"/>
</a>
</g>
</g>
<!-- Node4 -->
<g id="Node000004" class="node">
<title>Node4</title>
<g id="a_Node000004"><a xlink:href="classMouseListener.html" target="_top" xlink:title="A MouseListener can be registered with a component to receive callbacks about mouse events that happe...">
<polygon fill="white" stroke="#666666" points="98.5,-188 18.75,-188 18.75,-168 98.5,-168 98.5,-188"/>
<text xml:space="preserve" text-anchor="middle" x="58.62" y="-174.5" font-family="Helvetica,sans-Serif" font-size="10.00">MouseListener</text>
</a>
</g>
</g>
<!-- Node4&#45;&gt;Node3 -->
<g id="edge3_Node000003_Node000004" class="edge">
<title>Node4&#45;&gt;Node3</title>
<g id="a_edge3_Node000003_Node000004"><a xlink:title=" ">
<path fill="none" stroke="#63b8ff" d="M58.62,-156.13C58.62,-147.9 58.62,-138.85 58.62,-132.3"/>
<polygon fill="#63b8ff" stroke="#63b8ff" points="55.13,-156.08 58.63,-166.08 62.13,-156.08 55.13,-156.08"/>
</a>
</g>
</g>
<!-- Node5 -->
<g id="Node000005" class="node">
<title>Node5</title>
<g id="a_Node000005"><a xlink:href="classTimer.html" target="_top" xlink:title="Makes repeated callbacks to a virtual method at a specified time interval.">
<polygon fill="white" stroke="#666666" points="176,-76 135.25,-76 135.25,-56 176,-56 176,-76"/>
<text xml:space="preserve" text-anchor="middle" x="155.62" y="-62.5" font-family="Helvetica,sans-Serif" font-size="10.00">Timer</text>
</a>
</g>
</g>
<!-- Node5&#45;&gt;Node1 -->
<g id="edge4_Node000001_Node000005" class="edge">
<title>Node5&#45;&gt;Node1</title>
<g id="a_edge4_Node000001_Node000005"><a xlink:title=" ">
<path fill="none" stroke="#8b1a1a" d="M139.55,-47.29C131.38,-38.28 121.78,-27.7 115.06,-20.3"/>
<polygon fill="#8b1a1a" stroke="#8b1a1a" points="136.76,-49.42 146.07,-54.47 141.94,-44.72 136.76,-49.42"/>
</a>
</g>
</g>
</g>
</svg>
