<?xml version="1.0" encoding="UTF-8" standalone="no"?>
<!DOCTYPE svg PUBLIC "-//W3C//DTD SVG 1.1//EN"
 "http://www.w3.org/Graphics/SVG/1.1/DTD/svg11.dtd">
<!-- Generated by graphviz version 13.1.0 (20250701.0955)
 -->
<!-- Title: SingleThreadedReferenceCountedObject Pages: 1 -->
<svg width="332pt" height="96pt"
 viewBox="0.00 0.00 332.00 96.00" xmlns="http://www.w3.org/2000/svg" xmlns:xlink="http://www.w3.org/1999/xlink">
<g id="graph0" class="graph" transform="scale(1 1) rotate(0) translate(4 92)">
<title>SingleThreadedReferenceCountedObject</title>
<!-- Node1 -->
<g id="Node000001" class="node">
<title>Node1</title>
<g id="a_Node000001"><a xlink:title="Adds reference&#45;counting to an object.">
<polygon fill="#999999" stroke="#666666" points="240.88,-88 75.62,-88 75.62,-56 240.88,-56 240.88,-88"/>
<text xml:space="preserve" text-anchor="start" x="83.62" y="-74.5" font-family="Helvetica,sans-Serif" font-size="10.00">SingleThreadedReferenceCounted</text>
<text xml:space="preserve" text-anchor="middle" x="158.25" y="-62.5" font-family="Helvetica,sans-Serif" font-size="10.00">Object</text>
</a>
</g>
</g>
<!-- Node2 -->
<g id="Node000002" class="node">
<title>Node2</title>
<g id="a_Node000002"><a xlink:href="classPopupMenu_1_1CustomCallback.html" target="_top" xlink:title="A user&#45;defined callback that can be used for specific items in a popup menu.">
<polygon fill="white" stroke="#666666" points="146.5,-20 0,-20 0,0 146.5,0 146.5,-20"/>
<text xml:space="preserve" text-anchor="middle" x="73.25" y="-6.5" font-family="Helvetica,sans-Serif" font-size="10.00">PopupMenu::CustomCallback</text>
</a>
</g>
</g>
<!-- Node1&#45;&gt;Node2 -->
<g id="edge1_Node000001_Node000002" class="edge">
<title>Node1&#45;&gt;Node2</title>
<g id="a_edge1_Node000001_Node000002"><a xlink:title=" ">
<path fill="none" stroke="#63b8ff" d="M127.06,-48.99C113.11,-39.14 97.4,-28.05 86.58,-20.41"/>
<polygon fill="#63b8ff" stroke="#63b8ff" points="124.94,-51.77 135.12,-54.68 128.97,-46.05 124.94,-51.77"/>
</a>
</g>
</g>
<!-- Node3 -->
<g id="Node000003" class="node">
<title>Node3</title>
<g id="a_Node000003"><a xlink:href="classPopupMenu_1_1CustomComponent.html" target="_top" xlink:title="A user&#45;defined component that can be used as an item in a popup menu.">
<polygon fill="white" stroke="#666666" points="323.5,-20 165,-20 165,0 323.5,0 323.5,-20"/>
<text xml:space="preserve" text-anchor="middle" x="244.25" y="-6.5" font-family="Helvetica,sans-Serif" font-size="10.00">PopupMenu::CustomComponent</text>
</a>
</g>
</g>
<!-- Node1&#45;&gt;Node3 -->
<g id="edge2_Node000001_Node000003" class="edge">
<title>Node1&#45;&gt;Node3</title>
<g id="a_edge2_Node000001_Node000003"><a xlink:title=" ">
<path fill="none" stroke="#63b8ff" d="M189.8,-48.99C203.92,-39.14 219.81,-28.05 230.77,-20.41"/>
<polygon fill="#63b8ff" stroke="#63b8ff" points="187.84,-46.09 181.64,-54.68 191.84,-51.83 187.84,-46.09"/>
</a>
</g>
</g>
</g>
</svg>
