<?xml version="1.0" encoding="UTF-8" standalone="no"?>
<!DOCTYPE svg PUBLIC "-//W3C//DTD SVG 1.1//EN"
 "http://www.w3.org/Graphics/SVG/1.1/DTD/svg11.dtd">
<!-- Generated by graphviz version 13.1.0 (20250701.0955)
 -->
<!-- Title: AudioProcessorParameterWithID Pages: 1 -->
<svg width="488pt" height="320pt"
 viewBox="0.00 0.00 488.00 320.00" xmlns="http://www.w3.org/2000/svg" xmlns:xlink="http://www.w3.org/1999/xlink">
<g id="graph0" class="graph" transform="scale(1 1) rotate(0) translate(4 316)">
<title>AudioProcessorParameterWithID</title>
<!-- Node1 -->
<g id="Node000001" class="node">
<title>Node1</title>
<g id="a_Node000001"><a xlink:title="This abstract base class is used by some AudioProcessorParameter helper classes.">
<polygon fill="#999999" stroke="#666666" points="327,-200 166.25,-200 166.25,-180 327,-180 327,-200"/>
<text xml:space="preserve" text-anchor="middle" x="246.62" y="-186.5" font-family="Helvetica,sans-Serif" font-size="10.00">AudioProcessorParameterWithID</text>
</a>
</g>
</g>
<!-- Node4 -->
<g id="Node000004" class="node">
<title>Node4</title>
<g id="a_Node000004"><a xlink:href="classRangedAudioParameter.html" target="_top" xlink:title="This abstract base class is used by some AudioProcessorParameter helper classes.">
<polygon fill="white" stroke="#666666" points="306.38,-144 186.88,-144 186.88,-124 306.38,-124 306.38,-144"/>
<text xml:space="preserve" text-anchor="middle" x="246.62" y="-130.5" font-family="Helvetica,sans-Serif" font-size="10.00">RangedAudioParameter</text>
</a>
</g>
</g>
<!-- Node1&#45;&gt;Node4 -->
<g id="edge3_Node000001_Node000004" class="edge">
<title>Node1&#45;&gt;Node4</title>
<g id="a_edge3_Node000001_Node000004"><a xlink:title=" ">
<path fill="none" stroke="#63b8ff" d="M246.62,-168.13C246.62,-159.9 246.62,-150.85 246.62,-144.3"/>
<polygon fill="#63b8ff" stroke="#63b8ff" points="243.13,-168.08 246.63,-178.08 250.13,-168.08 243.13,-168.08"/>
</a>
</g>
</g>
<!-- Node2 -->
<g id="Node000002" class="node">
<title>Node2</title>
<g id="a_Node000002"><a xlink:href="structHostedAudioProcessorParameter.html" target="_top" xlink:title="A parameter with functions that are useful for plugin hosts.">
<polygon fill="white" stroke="#666666" points="327.38,-256 165.88,-256 165.88,-236 327.38,-236 327.38,-256"/>
<text xml:space="preserve" text-anchor="middle" x="246.62" y="-242.5" font-family="Helvetica,sans-Serif" font-size="10.00">HostedAudioProcessorParameter</text>
</a>
</g>
</g>
<!-- Node2&#45;&gt;Node1 -->
<g id="edge1_Node000001_Node000002" class="edge">
<title>Node2&#45;&gt;Node1</title>
<g id="a_edge1_Node000001_Node000002"><a xlink:title=" ">
<path fill="none" stroke="#63b8ff" d="M246.62,-224.13C246.62,-215.9 246.62,-206.85 246.62,-200.3"/>
<polygon fill="#63b8ff" stroke="#63b8ff" points="243.13,-224.08 246.63,-234.08 250.13,-224.08 243.13,-224.08"/>
</a>
</g>
</g>
<!-- Node3 -->
<g id="Node000003" class="node">
<title>Node3</title>
<g id="a_Node000003"><a xlink:href="classAudioProcessorParameter.html" target="_top" xlink:title="An abstract base class for parameter objects that can be added to an AudioProcessor.">
<polygon fill="white" stroke="#666666" points="311.62,-312 181.62,-312 181.62,-292 311.62,-292 311.62,-312"/>
<text xml:space="preserve" text-anchor="middle" x="246.62" y="-298.5" font-family="Helvetica,sans-Serif" font-size="10.00">AudioProcessorParameter</text>
</a>
</g>
</g>
<!-- Node3&#45;&gt;Node2 -->
<g id="edge2_Node000002_Node000003" class="edge">
<title>Node3&#45;&gt;Node2</title>
<g id="a_edge2_Node000002_Node000003"><a xlink:title=" ">
<path fill="none" stroke="#63b8ff" d="M246.62,-280.13C246.62,-271.9 246.62,-262.85 246.62,-256.3"/>
<polygon fill="#63b8ff" stroke="#63b8ff" points="243.13,-280.08 246.63,-290.08 250.13,-280.08 243.13,-280.08"/>
</a>
</g>
</g>
<!-- Node5 -->
<g id="Node000005" class="node">
<title>Node5</title>
<g id="a_Node000005"><a xlink:href="classAudioParameterBool.html" target="_top" xlink:title="Provides a class of AudioProcessorParameter that can be used as a boolean value.">
<polygon fill="white" stroke="#666666" points="105.25,-88 0,-88 0,-68 105.25,-68 105.25,-88"/>
<text xml:space="preserve" text-anchor="middle" x="52.62" y="-74.5" font-family="Helvetica,sans-Serif" font-size="10.00">AudioParameterBool</text>
</a>
</g>
</g>
<!-- Node4&#45;&gt;Node5 -->
<g id="edge4_Node000004_Node000005" class="edge">
<title>Node4&#45;&gt;Node5</title>
<g id="a_edge4_Node000004_Node000005"><a xlink:title=" ">
<path fill="none" stroke="#63b8ff" d="M201.93,-120.56C166.84,-110.79 118.7,-97.39 86.68,-88.48"/>
<polygon fill="#63b8ff" stroke="#63b8ff" points="200.8,-123.88 211.37,-123.19 202.68,-117.13 200.8,-123.88"/>
</a>
</g>
</g>
<!-- Node6 -->
<g id="Node000006" class="node">
<title>Node6</title>
<g id="a_Node000006"><a xlink:href="classAudioParameterChoice.html" target="_top" xlink:title="Provides a class of AudioProcessorParameter that can be used to select an indexed,...">
<polygon fill="white" stroke="#666666" points="239.88,-88 123.38,-88 123.38,-68 239.88,-68 239.88,-88"/>
<text xml:space="preserve" text-anchor="middle" x="181.62" y="-74.5" font-family="Helvetica,sans-Serif" font-size="10.00">AudioParameterChoice</text>
</a>
</g>
</g>
<!-- Node4&#45;&gt;Node6 -->
<g id="edge5_Node000004_Node000006" class="edge">
<title>Node4&#45;&gt;Node6</title>
<g id="a_edge5_Node000004_Node000006"><a xlink:title=" ">
<path fill="none" stroke="#63b8ff" d="M226.65,-116.4C215.53,-107.17 202.1,-96.01 192.82,-88.3"/>
<polygon fill="#63b8ff" stroke="#63b8ff" points="224.21,-118.93 234.14,-122.63 228.68,-113.54 224.21,-118.93"/>
</a>
</g>
</g>
<!-- Node7 -->
<g id="Node000007" class="node">
<title>Node7</title>
<g id="a_Node000007"><a xlink:href="classAudioParameterFloat.html" target="_top" xlink:title="A subclass of AudioProcessorParameter that provides an easy way to create a parameter which maps onto...">
<polygon fill="white" stroke="#666666" points="365.38,-88 257.88,-88 257.88,-68 365.38,-68 365.38,-88"/>
<text xml:space="preserve" text-anchor="middle" x="311.62" y="-74.5" font-family="Helvetica,sans-Serif" font-size="10.00">AudioParameterFloat</text>
</a>
</g>
</g>
<!-- Node4&#45;&gt;Node7 -->
<g id="edge6_Node000004_Node000007" class="edge">
<title>Node4&#45;&gt;Node7</title>
<g id="a_edge6_Node000004_Node000007"><a xlink:title=" ">
<path fill="none" stroke="#63b8ff" d="M266.6,-116.4C277.72,-107.17 291.15,-96.01 300.43,-88.3"/>
<polygon fill="#63b8ff" stroke="#63b8ff" points="264.57,-113.54 259.11,-122.63 269.04,-118.93 264.57,-113.54"/>
</a>
</g>
</g>
<!-- Node9 -->
<g id="Node000009" class="node">
<title>Node9</title>
<g id="a_Node000009"><a xlink:href="classAudioParameterInt.html" target="_top" xlink:title="Provides a class of AudioProcessorParameter that can be used as an integer value with a given range.">
<polygon fill="white" stroke="#666666" points="480.12,-88 383.12,-88 383.12,-68 480.12,-68 480.12,-88"/>
<text xml:space="preserve" text-anchor="middle" x="431.62" y="-74.5" font-family="Helvetica,sans-Serif" font-size="10.00">AudioParameterInt</text>
</a>
</g>
</g>
<!-- Node4&#45;&gt;Node9 -->
<g id="edge8_Node000004_Node000009" class="edge">
<title>Node4&#45;&gt;Node9</title>
<g id="a_edge8_Node000004_Node000009"><a xlink:title=" ">
<path fill="none" stroke="#63b8ff" d="M289.68,-120.43C323.11,-110.67 368.74,-97.35 399.15,-88.48"/>
<polygon fill="#63b8ff" stroke="#63b8ff" points="288.92,-117.01 280.3,-123.17 290.88,-123.73 288.92,-117.01"/>
</a>
</g>
</g>
<!-- Node8 -->
<g id="Node000008" class="node">
<title>Node8</title>
<g id="a_Node000008"><a xlink:href="classAudioProcessorValueTreeState_1_1Parameter.html" target="_top" xlink:title="A parameter class that maintains backwards compatibility with deprecated AudioProcessorValueTreeState...">
<polygon fill="white" stroke="#666666" points="387.5,-32 235.75,-32 235.75,0 387.5,0 387.5,-32"/>
<text xml:space="preserve" text-anchor="start" x="243.75" y="-18.5" font-family="Helvetica,sans-Serif" font-size="10.00">AudioProcessorValueTreeState</text>
<text xml:space="preserve" text-anchor="middle" x="311.62" y="-6.5" font-family="Helvetica,sans-Serif" font-size="10.00">::Parameter</text>
</a>
</g>
</g>
<!-- Node7&#45;&gt;Node8 -->
<g id="edge7_Node000007_Node000008" class="edge">
<title>Node7&#45;&gt;Node8</title>
<g id="a_edge7_Node000007_Node000008"><a xlink:title=" ">
<path fill="none" stroke="#63b8ff" d="M311.62,-56.31C311.62,-48.37 311.62,-39.46 311.62,-32.14"/>
<polygon fill="#63b8ff" stroke="#63b8ff" points="308.13,-56.11 311.63,-66.11 315.13,-56.11 308.13,-56.11"/>
</a>
</g>
</g>
</g>
</svg>
