<?xml version="1.0" encoding="UTF-8" standalone="no"?>
<!DOCTYPE svg PUBLIC "-//W3C//DTD SVG 1.1//EN"
 "http://www.w3.org/Graphics/SVG/1.1/DTD/svg11.dtd">
<!-- Generated by graphviz version 13.1.0 (20250701.0955)
 -->
<!-- Title: Drawable Pages: 1 -->
<svg width="412pt" height="252pt"
 viewBox="0.00 0.00 412.00 252.00" xmlns="http://www.w3.org/2000/svg" xmlns:xlink="http://www.w3.org/1999/xlink">
<g id="graph0" class="graph" transform="scale(1 1) rotate(0) translate(4 248)">
<title>Drawable</title>
<!-- Node1 -->
<g id="Node000001" class="node">
<title>Node1</title>
<g id="a_Node000001"><a xlink:title="The base class for objects which can draw themselves, e.g.">
<polygon fill="#999999" stroke="#666666" points="243.88,-132 186.62,-132 186.62,-112 243.88,-112 243.88,-132"/>
<text xml:space="preserve" text-anchor="middle" x="215.25" y="-118.5" font-family="Helvetica,sans-Serif" font-size="10.00">Drawable</text>
</a>
</g>
</g>
<!-- Node4 -->
<g id="Node000004" class="node">
<title>Node4</title>
<g id="a_Node000004"><a xlink:href="classDrawableComposite.html" target="_top" xlink:title="A drawable object which acts as a container for a set of other Drawables.">
<polygon fill="white" stroke="#666666" points="104.5,-76 0,-76 0,-56 104.5,-56 104.5,-76"/>
<text xml:space="preserve" text-anchor="middle" x="52.25" y="-62.5" font-family="Helvetica,sans-Serif" font-size="10.00">DrawableComposite</text>
</a>
</g>
</g>
<!-- Node1&#45;&gt;Node4 -->
<g id="edge3_Node000001_Node000004" class="edge">
<title>Node1&#45;&gt;Node4</title>
<g id="a_edge3_Node000001_Node000004"><a xlink:title=" ">
<path fill="none" stroke="#63b8ff" d="M176.16,-108.05C146.81,-98.33 107.3,-85.24 80.86,-76.48"/>
<polygon fill="#63b8ff" stroke="#63b8ff" points="174.83,-111.3 185.42,-111.12 177.03,-104.65 174.83,-111.3"/>
</a>
</g>
</g>
<!-- Node5 -->
<g id="Node000005" class="node">
<title>Node5</title>
<g id="a_Node000005"><a xlink:href="classDrawableImage.html" target="_top" xlink:title="A drawable object which is a bitmap image.">
<polygon fill="white" stroke="#666666" points="206.38,-76 122.12,-76 122.12,-56 206.38,-56 206.38,-76"/>
<text xml:space="preserve" text-anchor="middle" x="164.25" y="-62.5" font-family="Helvetica,sans-Serif" font-size="10.00">DrawableImage</text>
</a>
</g>
</g>
<!-- Node1&#45;&gt;Node5 -->
<g id="edge4_Node000001_Node000005" class="edge">
<title>Node1&#45;&gt;Node5</title>
<g id="a_edge4_Node000001_Node000005"><a xlink:title=" ">
<path fill="none" stroke="#63b8ff" d="M198.52,-103.29C190.01,-94.28 180.02,-83.7 173.03,-76.3"/>
<polygon fill="#63b8ff" stroke="#63b8ff" points="195.92,-105.63 205.33,-110.49 201.01,-100.82 195.92,-105.63"/>
</a>
</g>
</g>
<!-- Node6 -->
<g id="Node000006" class="node">
<title>Node6</title>
<g id="a_Node000006"><a xlink:href="classDrawableShape.html" target="_top" xlink:title="A base class implementing common functionality for Drawable classes which consist of some kind of fil...">
<polygon fill="white" stroke="#666666" points="309.75,-76 224.75,-76 224.75,-56 309.75,-56 309.75,-76"/>
<text xml:space="preserve" text-anchor="middle" x="267.25" y="-62.5" font-family="Helvetica,sans-Serif" font-size="10.00">DrawableShape</text>
</a>
</g>
</g>
<!-- Node1&#45;&gt;Node6 -->
<g id="edge5_Node000001_Node000006" class="edge">
<title>Node1&#45;&gt;Node6</title>
<g id="a_edge5_Node000001_Node000006"><a xlink:title=" ">
<path fill="none" stroke="#63b8ff" d="M232.04,-103.57C240.77,-94.5 251.09,-83.78 258.3,-76.3"/>
<polygon fill="#63b8ff" stroke="#63b8ff" points="229.77,-100.87 225.36,-110.5 234.82,-105.73 229.77,-100.87"/>
</a>
</g>
</g>
<!-- Node9 -->
<g id="Node000009" class="node">
<title>Node9</title>
<g id="a_Node000009"><a xlink:href="classDrawableText.html" target="_top" xlink:title="A drawable object which renders a line of text.">
<polygon fill="white" stroke="#666666" points="404.25,-76 328.25,-76 328.25,-56 404.25,-56 404.25,-76"/>
<text xml:space="preserve" text-anchor="middle" x="366.25" y="-62.5" font-family="Helvetica,sans-Serif" font-size="10.00">DrawableText</text>
</a>
</g>
</g>
<!-- Node1&#45;&gt;Node9 -->
<g id="edge8_Node000001_Node000009" class="edge">
<title>Node1&#45;&gt;Node9</title>
<g id="a_edge8_Node000001_Node000009"><a xlink:title=" ">
<path fill="none" stroke="#63b8ff" d="M252.19,-107.79C279.29,-98.1 315.46,-85.16 339.74,-76.48"/>
<polygon fill="#63b8ff" stroke="#63b8ff" points="251.21,-104.42 242.98,-111.08 253.57,-111.01 251.21,-104.42"/>
</a>
</g>
</g>
<!-- Node2 -->
<g id="Node000002" class="node">
<title>Node2</title>
<g id="a_Node000002"><a xlink:href="classComponent.html" target="_top" xlink:title="The base class for all JUCE user&#45;interface objects.">
<polygon fill="white" stroke="#666666" points="248.38,-188 182.12,-188 182.12,-168 248.38,-168 248.38,-188"/>
<text xml:space="preserve" text-anchor="middle" x="215.25" y="-174.5" font-family="Helvetica,sans-Serif" font-size="10.00">Component</text>
</a>
</g>
</g>
<!-- Node2&#45;&gt;Node1 -->
<g id="edge1_Node000001_Node000002" class="edge">
<title>Node2&#45;&gt;Node1</title>
<g id="a_edge1_Node000001_Node000002"><a xlink:title=" ">
<path fill="none" stroke="#63b8ff" d="M215.25,-156.13C215.25,-147.9 215.25,-138.85 215.25,-132.3"/>
<polygon fill="#63b8ff" stroke="#63b8ff" points="211.75,-156.08 215.25,-166.08 218.75,-156.08 211.75,-156.08"/>
</a>
</g>
</g>
<!-- Node3 -->
<g id="Node000003" class="node">
<title>Node3</title>
<g id="a_Node000003"><a xlink:href="classMouseListener.html" target="_top" xlink:title="A MouseListener can be registered with a component to receive callbacks about mouse events that happe...">
<polygon fill="white" stroke="#666666" points="255.12,-244 175.38,-244 175.38,-224 255.12,-224 255.12,-244"/>
<text xml:space="preserve" text-anchor="middle" x="215.25" y="-230.5" font-family="Helvetica,sans-Serif" font-size="10.00">MouseListener</text>
</a>
</g>
</g>
<!-- Node3&#45;&gt;Node2 -->
<g id="edge2_Node000002_Node000003" class="edge">
<title>Node3&#45;&gt;Node2</title>
<g id="a_edge2_Node000002_Node000003"><a xlink:title=" ">
<path fill="none" stroke="#63b8ff" d="M215.25,-212.13C215.25,-203.9 215.25,-194.85 215.25,-188.3"/>
<polygon fill="#63b8ff" stroke="#63b8ff" points="211.75,-212.08 215.25,-222.08 218.75,-212.08 211.75,-212.08"/>
</a>
</g>
</g>
<!-- Node7 -->
<g id="Node000007" class="node">
<title>Node7</title>
<g id="a_Node000007"><a xlink:href="classDrawablePath.html" target="_top" xlink:title="A drawable object which renders a filled or outlined shape.">
<polygon fill="white" stroke="#666666" points="252,-20 174.5,-20 174.5,0 252,0 252,-20"/>
<text xml:space="preserve" text-anchor="middle" x="213.25" y="-6.5" font-family="Helvetica,sans-Serif" font-size="10.00">DrawablePath</text>
</a>
</g>
</g>
<!-- Node6&#45;&gt;Node7 -->
<g id="edge6_Node000006_Node000007" class="edge">
<title>Node6&#45;&gt;Node7</title>
<g id="a_edge6_Node000006_Node000007"><a xlink:title=" ">
<path fill="none" stroke="#63b8ff" d="M249.82,-47.57C240.75,-38.5 230.03,-27.78 222.55,-20.3"/>
<polygon fill="#63b8ff" stroke="#63b8ff" points="247.23,-49.93 256.77,-54.52 252.18,-44.98 247.23,-49.93"/>
</a>
</g>
</g>
<!-- Node8 -->
<g id="Node000008" class="node">
<title>Node8</title>
<g id="a_Node000008"><a xlink:href="classDrawableRectangle.html" target="_top" xlink:title="A Drawable object which draws a rectangle.">
<polygon fill="white" stroke="#666666" points="372,-20 270.5,-20 270.5,0 372,0 372,-20"/>
<text xml:space="preserve" text-anchor="middle" x="321.25" y="-6.5" font-family="Helvetica,sans-Serif" font-size="10.00">DrawableRectangle</text>
</a>
</g>
</g>
<!-- Node6&#45;&gt;Node8 -->
<g id="edge7_Node000006_Node000008" class="edge">
<title>Node6&#45;&gt;Node8</title>
<g id="a_edge7_Node000006_Node000008"><a xlink:title=" ">
<path fill="none" stroke="#63b8ff" d="M284.68,-47.57C293.75,-38.5 304.47,-27.78 311.95,-20.3"/>
<polygon fill="#63b8ff" stroke="#63b8ff" points="282.32,-44.98 277.73,-54.52 287.27,-49.93 282.32,-44.98"/>
</a>
</g>
</g>
</g>
</svg>
