<?xml version="1.0" encoding="UTF-8" standalone="no"?>
<!DOCTYPE svg PUBLIC "-//W3C//DTD SVG 1.1//EN"
 "http://www.w3.org/Graphics/SVG/1.1/DTD/svg11.dtd">
<!-- Generated by graphviz version 13.1.0 (20250701.0955)
 -->
<!-- Title: MultiDocumentPanelWindow Pages: 1 -->
<svg width="150pt" height="308pt"
 viewBox="0.00 0.00 150.00 308.00" xmlns="http://www.w3.org/2000/svg" xmlns:xlink="http://www.w3.org/1999/xlink">
<g id="graph0" class="graph" transform="scale(1 1) rotate(0) translate(4 304)">
<title>MultiDocumentPanelWindow</title>
<!-- Node1 -->
<g id="Node000001" class="node">
<title>Node1</title>
<g id="a_Node000001"><a xlink:title="This is a derivative of DocumentWindow that is used inside a MultiDocumentPanel component.">
<polygon fill="#999999" stroke="#666666" points="142,-20 0,-20 0,0 142,0 142,-20"/>
<text xml:space="preserve" text-anchor="middle" x="71" y="-6.5" font-family="Helvetica,sans-Serif" font-size="10.00">MultiDocumentPanelWindow</text>
</a>
</g>
</g>
<!-- Node2 -->
<g id="Node000002" class="node">
<title>Node2</title>
<g id="a_Node000002"><a xlink:href="classDocumentWindow.html" target="_top" xlink:title="A resizable window with a title bar and maximise, minimise and close buttons.">
<polygon fill="white" stroke="#666666" points="119.12,-76 22.88,-76 22.88,-56 119.12,-56 119.12,-76"/>
<text xml:space="preserve" text-anchor="middle" x="71" y="-62.5" font-family="Helvetica,sans-Serif" font-size="10.00">DocumentWindow</text>
</a>
</g>
</g>
<!-- Node2&#45;&gt;Node1 -->
<g id="edge1_Node000001_Node000002" class="edge">
<title>Node2&#45;&gt;Node1</title>
<g id="a_edge1_Node000001_Node000002"><a xlink:title=" ">
<path fill="none" stroke="#63b8ff" d="M71,-44.13C71,-35.9 71,-26.85 71,-20.3"/>
<polygon fill="#63b8ff" stroke="#63b8ff" points="67.5,-44.08 71,-54.08 74.5,-44.08 67.5,-44.08"/>
</a>
</g>
</g>
<!-- Node3 -->
<g id="Node000003" class="node">
<title>Node3</title>
<g id="a_Node000003"><a xlink:href="classResizableWindow.html" target="_top" xlink:title="A base class for top&#45;level windows that can be dragged around and resized.">
<polygon fill="white" stroke="#666666" points="118.38,-132 23.62,-132 23.62,-112 118.38,-112 118.38,-132"/>
<text xml:space="preserve" text-anchor="middle" x="71" y="-118.5" font-family="Helvetica,sans-Serif" font-size="10.00">ResizableWindow</text>
</a>
</g>
</g>
<!-- Node3&#45;&gt;Node2 -->
<g id="edge2_Node000002_Node000003" class="edge">
<title>Node3&#45;&gt;Node2</title>
<g id="a_edge2_Node000002_Node000003"><a xlink:title=" ">
<path fill="none" stroke="#63b8ff" d="M71,-100.13C71,-91.9 71,-82.85 71,-76.3"/>
<polygon fill="#63b8ff" stroke="#63b8ff" points="67.5,-100.08 71,-110.08 74.5,-100.08 67.5,-100.08"/>
</a>
</g>
</g>
<!-- Node4 -->
<g id="Node000004" class="node">
<title>Node4</title>
<g id="a_Node000004"><a xlink:href="classTopLevelWindow.html" target="_top" xlink:title="A base class for top&#45;level windows.">
<polygon fill="white" stroke="#666666" points="116.12,-188 25.88,-188 25.88,-168 116.12,-168 116.12,-188"/>
<text xml:space="preserve" text-anchor="middle" x="71" y="-174.5" font-family="Helvetica,sans-Serif" font-size="10.00">TopLevelWindow</text>
</a>
</g>
</g>
<!-- Node4&#45;&gt;Node3 -->
<g id="edge3_Node000003_Node000004" class="edge">
<title>Node4&#45;&gt;Node3</title>
<g id="a_edge3_Node000003_Node000004"><a xlink:title=" ">
<path fill="none" stroke="#63b8ff" d="M71,-156.13C71,-147.9 71,-138.85 71,-132.3"/>
<polygon fill="#63b8ff" stroke="#63b8ff" points="67.5,-156.08 71,-166.08 74.5,-156.08 67.5,-156.08"/>
</a>
</g>
</g>
<!-- Node5 -->
<g id="Node000005" class="node">
<title>Node5</title>
<g id="a_Node000005"><a xlink:href="classComponent.html" target="_top" xlink:title="The base class for all JUCE user&#45;interface objects.">
<polygon fill="white" stroke="#666666" points="104.12,-244 37.88,-244 37.88,-224 104.12,-224 104.12,-244"/>
<text xml:space="preserve" text-anchor="middle" x="71" y="-230.5" font-family="Helvetica,sans-Serif" font-size="10.00">Component</text>
</a>
</g>
</g>
<!-- Node5&#45;&gt;Node4 -->
<g id="edge4_Node000004_Node000005" class="edge">
<title>Node5&#45;&gt;Node4</title>
<g id="a_edge4_Node000004_Node000005"><a xlink:title=" ">
<path fill="none" stroke="#63b8ff" d="M71,-212.13C71,-203.9 71,-194.85 71,-188.3"/>
<polygon fill="#63b8ff" stroke="#63b8ff" points="67.5,-212.08 71,-222.08 74.5,-212.08 67.5,-212.08"/>
</a>
</g>
</g>
<!-- Node6 -->
<g id="Node000006" class="node">
<title>Node6</title>
<g id="a_Node000006"><a xlink:href="classMouseListener.html" target="_top" xlink:title="A MouseListener can be registered with a component to receive callbacks about mouse events that happe...">
<polygon fill="white" stroke="#666666" points="110.88,-300 31.12,-300 31.12,-280 110.88,-280 110.88,-300"/>
<text xml:space="preserve" text-anchor="middle" x="71" y="-286.5" font-family="Helvetica,sans-Serif" font-size="10.00">MouseListener</text>
</a>
</g>
</g>
<!-- Node6&#45;&gt;Node5 -->
<g id="edge5_Node000005_Node000006" class="edge">
<title>Node6&#45;&gt;Node5</title>
<g id="a_edge5_Node000005_Node000006"><a xlink:title=" ">
<path fill="none" stroke="#63b8ff" d="M71,-268.13C71,-259.9 71,-250.85 71,-244.3"/>
<polygon fill="#63b8ff" stroke="#63b8ff" points="67.5,-268.08 71,-278.08 74.5,-268.08 67.5,-268.08"/>
</a>
</g>
</g>
</g>
</svg>
