<?xml version="1.0" encoding="UTF-8" standalone="no"?>
<!DOCTYPE svg PUBLIC "-//W3C//DTD SVG 1.1//EN"
 "http://www.w3.org/Graphics/SVG/1.1/DTD/svg11.dtd">
<!-- Generated by graphviz version 13.1.0 (20250701.0955)
 -->
<!-- Title: ApplicationCommandManager Pages: 1 -->
<svg width="216pt" height="84pt"
 viewBox="0.00 0.00 216.00 84.00" xmlns="http://www.w3.org/2000/svg" xmlns:xlink="http://www.w3.org/1999/xlink">
<g id="graph0" class="graph" transform="scale(1 1) rotate(0) translate(4 80)">
<title>ApplicationCommandManager</title>
<!-- Node1 -->
<g id="Node000001" class="node">
<title>Node1</title>
<g id="a_Node000001"><a xlink:title="One of these objects holds a list of all the commands your app can perform, and despatches these comm...">
<polygon fill="#999999" stroke="#666666" points="168.38,-20 21.88,-20 21.88,0 168.38,0 168.38,-20"/>
<text xml:space="preserve" text-anchor="middle" x="95.12" y="-6.5" font-family="Helvetica,sans-Serif" font-size="10.00">ApplicationCommandManager</text>
</a>
</g>
</g>
<!-- Node2 -->
<g id="Node000002" class="node">
<title>Node2</title>
<g id="a_Node000002"><a xlink:href="classAsyncUpdater.html" target="_top" xlink:title="Has a callback method that is triggered asynchronously.">
<polygon fill="white" stroke="#666666" points="78.25,-76 0,-76 0,-56 78.25,-56 78.25,-76"/>
<text xml:space="preserve" text-anchor="middle" x="39.12" y="-62.5" font-family="Helvetica,sans-Serif" font-size="10.00">AsyncUpdater</text>
</a>
</g>
</g>
<!-- Node2&#45;&gt;Node1 -->
<g id="edge1_Node000001_Node000002" class="edge">
<title>Node2&#45;&gt;Node1</title>
<g id="a_edge1_Node000001_Node000002"><a xlink:title=" ">
<path fill="none" stroke="#8b1a1a" d="M56.91,-47.85C66.38,-38.72 77.65,-27.86 85.48,-20.3"/>
<polygon fill="#8b1a1a" stroke="#8b1a1a" points="54.74,-45.08 49.97,-54.54 59.6,-50.12 54.74,-45.08"/>
</a>
</g>
</g>
<!-- Node3 -->
<g id="Node000003" class="node">
<title>Node3</title>
<g id="a_Node000003"><a xlink:href="classFocusChangeListener.html" target="_top" xlink:title="Classes can implement this interface and register themselves with the Desktop class to receive callba...">
<polygon fill="white" stroke="#666666" points="207.75,-76 96.5,-76 96.5,-56 207.75,-56 207.75,-76"/>
<text xml:space="preserve" text-anchor="middle" x="152.12" y="-62.5" font-family="Helvetica,sans-Serif" font-size="10.00">FocusChangeListener</text>
</a>
</g>
</g>
<!-- Node3&#45;&gt;Node1 -->
<g id="edge2_Node000001_Node000003" class="edge">
<title>Node3&#45;&gt;Node1</title>
<g id="a_edge2_Node000001_Node000003"><a xlink:title=" ">
<path fill="none" stroke="#8b1a1a" d="M134.02,-47.85C124.39,-38.72 112.92,-27.86 104.94,-20.3"/>
<polygon fill="#8b1a1a" stroke="#8b1a1a" points="131.43,-50.22 141.1,-54.55 136.25,-45.13 131.43,-50.22"/>
</a>
</g>
</g>
</g>
</svg>
