<?xml version="1.0" encoding="UTF-8" standalone="no"?>
<!DOCTYPE svg PUBLIC "-//W3C//DTD SVG 1.1//EN"
 "http://www.w3.org/Graphics/SVG/1.1/DTD/svg11.dtd">
<!-- Generated by graphviz version 13.1.0 (20250701.0955)
 -->
<!-- Title: AudioParameterChoice Pages: 1 -->
<svg width="170pt" height="252pt"
 viewBox="0.00 0.00 170.00 252.00" xmlns="http://www.w3.org/2000/svg" xmlns:xlink="http://www.w3.org/1999/xlink">
<g id="graph0" class="graph" transform="scale(1 1) rotate(0) translate(4 248)">
<title>AudioParameterChoice</title>
<!-- Node1 -->
<g id="Node000001" class="node">
<title>Node1</title>
<g id="a_Node000001"><a xlink:title="Provides a class of AudioProcessorParameter that can be used to select an indexed,...">
<polygon fill="#999999" stroke="#666666" points="139,-20 22.5,-20 22.5,0 139,0 139,-20"/>
<text xml:space="preserve" text-anchor="middle" x="80.75" y="-6.5" font-family="Helvetica,sans-Serif" font-size="10.00">AudioParameterChoice</text>
</a>
</g>
</g>
<!-- Node2 -->
<g id="Node000002" class="node">
<title>Node2</title>
<g id="a_Node000002"><a xlink:href="classRangedAudioParameter.html" target="_top" xlink:title="This abstract base class is used by some AudioProcessorParameter helper classes.">
<polygon fill="white" stroke="#666666" points="140.5,-76 21,-76 21,-56 140.5,-56 140.5,-76"/>
<text xml:space="preserve" text-anchor="middle" x="80.75" y="-62.5" font-family="Helvetica,sans-Serif" font-size="10.00">RangedAudioParameter</text>
</a>
</g>
</g>
<!-- Node2&#45;&gt;Node1 -->
<g id="edge1_Node000001_Node000002" class="edge">
<title>Node2&#45;&gt;Node1</title>
<g id="a_edge1_Node000001_Node000002"><a xlink:title=" ">
<path fill="none" stroke="#63b8ff" d="M80.75,-44.13C80.75,-35.9 80.75,-26.85 80.75,-20.3"/>
<polygon fill="#63b8ff" stroke="#63b8ff" points="77.25,-44.08 80.75,-54.08 84.25,-44.08 77.25,-44.08"/>
</a>
</g>
</g>
<!-- Node3 -->
<g id="Node000003" class="node">
<title>Node3</title>
<g id="a_Node000003"><a xlink:href="classAudioProcessorParameterWithID.html" target="_top" xlink:title="This abstract base class is used by some AudioProcessorParameter helper classes.">
<polygon fill="white" stroke="#666666" points="161.12,-132 0.38,-132 0.38,-112 161.12,-112 161.12,-132"/>
<text xml:space="preserve" text-anchor="middle" x="80.75" y="-118.5" font-family="Helvetica,sans-Serif" font-size="10.00">AudioProcessorParameterWithID</text>
</a>
</g>
</g>
<!-- Node3&#45;&gt;Node2 -->
<g id="edge2_Node000002_Node000003" class="edge">
<title>Node3&#45;&gt;Node2</title>
<g id="a_edge2_Node000002_Node000003"><a xlink:title=" ">
<path fill="none" stroke="#63b8ff" d="M80.75,-100.13C80.75,-91.9 80.75,-82.85 80.75,-76.3"/>
<polygon fill="#63b8ff" stroke="#63b8ff" points="77.25,-100.08 80.75,-110.08 84.25,-100.08 77.25,-100.08"/>
</a>
</g>
</g>
<!-- Node4 -->
<g id="Node000004" class="node">
<title>Node4</title>
<g id="a_Node000004"><a xlink:href="structHostedAudioProcessorParameter.html" target="_top" xlink:title="A parameter with functions that are useful for plugin hosts.">
<polygon fill="white" stroke="#666666" points="161.5,-188 0,-188 0,-168 161.5,-168 161.5,-188"/>
<text xml:space="preserve" text-anchor="middle" x="80.75" y="-174.5" font-family="Helvetica,sans-Serif" font-size="10.00">HostedAudioProcessorParameter</text>
</a>
</g>
</g>
<!-- Node4&#45;&gt;Node3 -->
<g id="edge3_Node000003_Node000004" class="edge">
<title>Node4&#45;&gt;Node3</title>
<g id="a_edge3_Node000003_Node000004"><a xlink:title=" ">
<path fill="none" stroke="#63b8ff" d="M80.75,-156.13C80.75,-147.9 80.75,-138.85 80.75,-132.3"/>
<polygon fill="#63b8ff" stroke="#63b8ff" points="77.25,-156.08 80.75,-166.08 84.25,-156.08 77.25,-156.08"/>
</a>
</g>
</g>
<!-- Node5 -->
<g id="Node000005" class="node">
<title>Node5</title>
<g id="a_Node000005"><a xlink:href="classAudioProcessorParameter.html" target="_top" xlink:title="An abstract base class for parameter objects that can be added to an AudioProcessor.">
<polygon fill="white" stroke="#666666" points="145.75,-244 15.75,-244 15.75,-224 145.75,-224 145.75,-244"/>
<text xml:space="preserve" text-anchor="middle" x="80.75" y="-230.5" font-family="Helvetica,sans-Serif" font-size="10.00">AudioProcessorParameter</text>
</a>
</g>
</g>
<!-- Node5&#45;&gt;Node4 -->
<g id="edge4_Node000004_Node000005" class="edge">
<title>Node5&#45;&gt;Node4</title>
<g id="a_edge4_Node000004_Node000005"><a xlink:title=" ">
<path fill="none" stroke="#63b8ff" d="M80.75,-212.13C80.75,-203.9 80.75,-194.85 80.75,-188.3"/>
<polygon fill="#63b8ff" stroke="#63b8ff" points="77.25,-212.08 80.75,-222.08 84.25,-212.08 77.25,-212.08"/>
</a>
</g>
</g>
</g>
</svg>
