<?xml version="1.0" encoding="UTF-8" standalone="no"?>
<!DOCTYPE svg PUBLIC "-//W3C//DTD SVG 1.1//EN"
 "http://www.w3.org/Graphics/SVG/1.1/DTD/svg11.dtd">
<!-- Generated by graphviz version 13.1.0 (20250701.0955)
 -->
<!-- Title: Button Pages: 1 -->
<svg width="576pt" height="332pt"
 viewBox="0.00 0.00 576.00 332.00" xmlns="http://www.w3.org/2000/svg" xmlns:xlink="http://www.w3.org/1999/xlink">
<g id="graph0" class="graph" transform="scale(1 1) rotate(0) translate(4 328)">
<title>Button</title>
<!-- Node1 -->
<g id="Node000001" class="node">
<title>Node1</title>
<g id="a_Node000001"><a xlink:title="A base class for buttons.">
<polygon fill="#999999" stroke="#666666" points="302.25,-172 257.75,-172 257.75,-152 302.25,-152 302.25,-172"/>
<text xml:space="preserve" text-anchor="middle" x="280" y="-158.5" font-family="Helvetica,sans-Serif" font-size="10.00">Button</text>
</a>
</g>
</g>
<!-- Node6 -->
<g id="Node000006" class="node">
<title>Node6</title>
<g id="a_Node000006"><a xlink:href="classArrowButton.html" target="_top" xlink:title="A button with an arrow in it.">
<polygon fill="white" stroke="#666666" points="431.88,-324 361.88,-324 361.88,-304 431.88,-304 431.88,-324"/>
<text xml:space="preserve" text-anchor="middle" x="396.88" y="-310.5" font-family="Helvetica,sans-Serif" font-size="10.00">ArrowButton</text>
</a>
</g>
</g>
<!-- Node1&#45;&gt;Node6 -->
<g id="edge5_Node000001_Node000006" class="edge">
<title>Node1&#45;&gt;Node6</title>
<g id="a_edge5_Node000001_Node000006"><a xlink:title=" ">
<path fill="none" stroke="#63b8ff" d="M284.55,-183.29C290.52,-212.51 305.32,-264.85 338.25,-295 344.78,-300.98 353.22,-305.08 361.63,-307.89"/>
<polygon fill="#63b8ff" stroke="#63b8ff" points="288.06,-182.99 282.78,-173.8 281.18,-184.27 288.06,-182.99"/>
</a>
</g>
</g>
<!-- Node7 -->
<g id="Node000007" class="node">
<title>Node7</title>
<g id="a_Node000007"><a xlink:href="classDrawableButton.html" target="_top" xlink:title="A button that displays a Drawable.">
<polygon fill="white" stroke="#666666" points="439.75,-286 354,-286 354,-266 439.75,-266 439.75,-286"/>
<text xml:space="preserve" text-anchor="middle" x="396.88" y="-272.5" font-family="Helvetica,sans-Serif" font-size="10.00">DrawableButton</text>
</a>
</g>
</g>
<!-- Node1&#45;&gt;Node7 -->
<g id="edge6_Node000001_Node000007" class="edge">
<title>Node1&#45;&gt;Node7</title>
<g id="a_edge6_Node000001_Node000007"><a xlink:title=" ">
<path fill="none" stroke="#63b8ff" d="M288.49,-182.81C297.25,-204.33 313.74,-237.44 338.25,-257 342.86,-260.68 348.21,-263.66 353.76,-266.07"/>
<polygon fill="#63b8ff" stroke="#63b8ff" points="291.81,-181.71 284.96,-173.63 285.28,-184.22 291.81,-181.71"/>
</a>
</g>
</g>
<!-- Node8 -->
<g id="Node000008" class="node">
<title>Node8</title>
<g id="a_Node000008"><a xlink:href="classHyperlinkButton.html" target="_top" xlink:title="A button showing an underlined weblink, that will launch the link when it&#39;s clicked.">
<polygon fill="white" stroke="#666666" points="439.75,-248 354,-248 354,-228 439.75,-228 439.75,-248"/>
<text xml:space="preserve" text-anchor="middle" x="396.88" y="-234.5" font-family="Helvetica,sans-Serif" font-size="10.00">HyperlinkButton</text>
</a>
</g>
</g>
<!-- Node1&#45;&gt;Node8 -->
<g id="edge7_Node000001_Node000008" class="edge">
<title>Node1&#45;&gt;Node8</title>
<g id="a_edge7_Node000001_Node000008"><a xlink:title=" ">
<path fill="none" stroke="#63b8ff" d="M295.98,-180.96C306.62,-193.31 321.87,-208.94 338.25,-219 343.73,-222.36 349.86,-225.2 356.04,-227.58"/>
<polygon fill="#63b8ff" stroke="#63b8ff" points="298.85,-178.94 289.77,-173.47 293.46,-183.4 298.85,-178.94"/>
</a>
</g>
</g>
<!-- Node9 -->
<g id="Node000009" class="node">
<title>Node9</title>
<g id="a_Node000009"><a xlink:href="classImageButton.html" target="_top" xlink:title="As the title suggests, this is a button containing an image.">
<polygon fill="white" stroke="#666666" points="432.62,-210 361.12,-210 361.12,-190 432.62,-190 432.62,-210"/>
<text xml:space="preserve" text-anchor="middle" x="396.88" y="-196.5" font-family="Helvetica,sans-Serif" font-size="10.00">ImageButton</text>
</a>
</g>
</g>
<!-- Node1&#45;&gt;Node9 -->
<g id="edge8_Node000001_Node000009" class="edge">
<title>Node1&#45;&gt;Node9</title>
<g id="a_edge8_Node000001_Node000009"><a xlink:title=" ">
<path fill="none" stroke="#63b8ff" d="M313.63,-172.84C321.68,-175.51 330.28,-178.36 338.25,-181 346.65,-183.78 355.74,-186.78 364.17,-189.56"/>
<polygon fill="#63b8ff" stroke="#63b8ff" points="314.77,-169.53 304.18,-169.7 312.57,-176.18 314.77,-169.53"/>
</a>
</g>
</g>
<!-- Node10 -->
<g id="Node000010" class="node">
<title>Node10</title>
<g id="a_Node000010"><a xlink:href="classShapeButton.html" target="_top" xlink:title="A button that contains a filled shape.">
<polygon fill="white" stroke="#666666" points="433,-172 360.75,-172 360.75,-152 433,-152 433,-172"/>
<text xml:space="preserve" text-anchor="middle" x="396.88" y="-158.5" font-family="Helvetica,sans-Serif" font-size="10.00">ShapeButton</text>
</a>
</g>
</g>
<!-- Node1&#45;&gt;Node10 -->
<g id="edge9_Node000001_Node000010" class="edge">
<title>Node1&#45;&gt;Node10</title>
<g id="a_edge9_Node000001_Node000010"><a xlink:title=" ">
<path fill="none" stroke="#63b8ff" d="M314.08,-162C328.57,-162 345.61,-162 360.37,-162"/>
<polygon fill="#63b8ff" stroke="#63b8ff" points="314.12,-158.5 304.12,-162 314.12,-165.5 314.12,-158.5"/>
</a>
</g>
</g>
<!-- Node11 -->
<g id="Node000011" class="node">
<title>Node11</title>
<g id="a_Node000011"><a xlink:href="classTabBarButton.html" target="_top" xlink:title="In a TabbedButtonBar, this component is used for each of the buttons.">
<polygon fill="white" stroke="#666666" points="434.5,-134 359.25,-134 359.25,-114 434.5,-114 434.5,-134"/>
<text xml:space="preserve" text-anchor="middle" x="396.88" y="-120.5" font-family="Helvetica,sans-Serif" font-size="10.00">TabBarButton</text>
</a>
</g>
</g>
<!-- Node1&#45;&gt;Node11 -->
<g id="edge10_Node000001_Node000011" class="edge">
<title>Node1&#45;&gt;Node11</title>
<g id="a_edge10_Node000001_Node000011"><a xlink:title=" ">
<path fill="none" stroke="#63b8ff" d="M313.63,-151.16C321.68,-148.49 330.28,-145.64 338.25,-143 346.65,-140.22 355.74,-137.22 364.17,-134.44"/>
<polygon fill="#63b8ff" stroke="#63b8ff" points="312.57,-147.82 304.18,-154.3 314.77,-154.47 312.57,-147.82"/>
</a>
</g>
</g>
<!-- Node12 -->
<g id="Node000012" class="node">
<title>Node12</title>
<g id="a_Node000012"><a xlink:href="classTextButton.html" target="_top" xlink:title="A button that uses the standard lozenge&#45;shaped background with a line of text on it.">
<polygon fill="white" stroke="#666666" points="428.5,-96 365.25,-96 365.25,-76 428.5,-76 428.5,-96"/>
<text xml:space="preserve" text-anchor="middle" x="396.88" y="-82.5" font-family="Helvetica,sans-Serif" font-size="10.00">TextButton</text>
</a>
</g>
</g>
<!-- Node1&#45;&gt;Node12 -->
<g id="edge11_Node000001_Node000012" class="edge">
<title>Node1&#45;&gt;Node12</title>
<g id="a_edge11_Node000001_Node000012"><a xlink:title=" ">
<path fill="none" stroke="#63b8ff" d="M295.98,-143.04C306.62,-130.69 321.87,-115.06 338.25,-105 346.33,-100.04 355.85,-96.22 364.8,-93.35"/>
<polygon fill="#63b8ff" stroke="#63b8ff" points="293.46,-140.6 289.77,-150.53 298.85,-145.06 293.46,-140.6"/>
</a>
</g>
</g>
<!-- Node13 -->
<g id="Node000013" class="node">
<title>Node13</title>
<g id="a_Node000013"><a xlink:href="classToggleButton.html" target="_top" xlink:title="A button that can be toggled on/off.">
<polygon fill="white" stroke="#666666" points="433.38,-58 360.38,-58 360.38,-38 433.38,-38 433.38,-58"/>
<text xml:space="preserve" text-anchor="middle" x="396.88" y="-44.5" font-family="Helvetica,sans-Serif" font-size="10.00">ToggleButton</text>
</a>
</g>
</g>
<!-- Node1&#45;&gt;Node13 -->
<g id="edge12_Node000001_Node000013" class="edge">
<title>Node1&#45;&gt;Node13</title>
<g id="a_edge12_Node000001_Node000013"><a xlink:title=" ">
<path fill="none" stroke="#63b8ff" d="M288.49,-141.19C297.25,-119.67 313.74,-86.56 338.25,-67 344.59,-61.94 352.33,-58.21 360.05,-55.46"/>
<polygon fill="#63b8ff" stroke="#63b8ff" points="285.28,-139.78 284.96,-150.37 291.81,-142.29 285.28,-139.78"/>
</a>
</g>
</g>
<!-- Node14 -->
<g id="Node000014" class="node">
<title>Node14</title>
<g id="a_Node000014"><a xlink:href="classToolbarItemComponent.html" target="_top" xlink:title="A component that can be used as one of the items in a Toolbar.">
<polygon fill="white" stroke="#666666" points="455.5,-20 338.25,-20 338.25,0 455.5,0 455.5,-20"/>
<text xml:space="preserve" text-anchor="middle" x="396.88" y="-6.5" font-family="Helvetica,sans-Serif" font-size="10.00">ToolbarItemComponent</text>
</a>
</g>
</g>
<!-- Node1&#45;&gt;Node14 -->
<g id="edge13_Node000001_Node000014" class="edge">
<title>Node1&#45;&gt;Node14</title>
<g id="a_edge13_Node000001_Node000014"><a xlink:title=" ">
<path fill="none" stroke="#63b8ff" d="M284.55,-140.71C290.52,-111.49 305.32,-59.15 338.25,-29 341.98,-25.59 346.34,-22.78 350.95,-20.48"/>
<polygon fill="#63b8ff" stroke="#63b8ff" points="281.18,-139.73 282.78,-150.2 288.06,-141.01 281.18,-139.73"/>
</a>
</g>
</g>
<!-- Node2 -->
<g id="Node000002" class="node">
<title>Node2</title>
<g id="a_Node000002"><a xlink:href="classComponent.html" target="_top" xlink:title="The base class for all JUCE user&#45;interface objects.">
<polygon fill="white" stroke="#666666" points="201.88,-191 135.62,-191 135.62,-171 201.88,-171 201.88,-191"/>
<text xml:space="preserve" text-anchor="middle" x="168.75" y="-177.5" font-family="Helvetica,sans-Serif" font-size="10.00">Component</text>
</a>
</g>
</g>
<!-- Node2&#45;&gt;Node1 -->
<g id="edge1_Node000001_Node000002" class="edge">
<title>Node2&#45;&gt;Node1</title>
<g id="a_edge1_Node000001_Node000002"><a xlink:title=" ">
<path fill="none" stroke="#63b8ff" d="M213.51,-173.39C228.65,-170.76 244.96,-167.92 257.52,-165.74"/>
<polygon fill="#63b8ff" stroke="#63b8ff" points="212.98,-169.93 203.72,-175.09 214.18,-176.83 212.98,-169.93"/>
</a>
</g>
</g>
<!-- Node3 -->
<g id="Node000003" class="node">
<title>Node3</title>
<g id="a_Node000003"><a xlink:href="classMouseListener.html" target="_top" xlink:title="A MouseListener can be registered with a component to receive callbacks about mouse events that happe...">
<polygon fill="white" stroke="#666666" points="79.75,-191 0,-191 0,-171 79.75,-171 79.75,-191"/>
<text xml:space="preserve" text-anchor="middle" x="39.88" y="-177.5" font-family="Helvetica,sans-Serif" font-size="10.00">MouseListener</text>
</a>
</g>
</g>
<!-- Node3&#45;&gt;Node2 -->
<g id="edge2_Node000002_Node000003" class="edge">
<title>Node3&#45;&gt;Node2</title>
<g id="a_edge2_Node000002_Node000003"><a xlink:title=" ">
<path fill="none" stroke="#63b8ff" d="M91.12,-181C106.02,-181 121.94,-181 135.38,-181"/>
<polygon fill="#63b8ff" stroke="#63b8ff" points="91.49,-177.5 81.49,-181 91.49,-184.5 91.49,-177.5"/>
</a>
</g>
</g>
<!-- Node4 -->
<g id="Node000004" class="node">
<title>Node4</title>
<g id="a_Node000004"><a xlink:href="classSettableTooltipClient.html" target="_top" xlink:title="An implementation of TooltipClient that stores the tooltip string and a method for changing it.">
<polygon fill="white" stroke="#666666" points="221.75,-153 115.75,-153 115.75,-133 221.75,-133 221.75,-153"/>
<text xml:space="preserve" text-anchor="middle" x="168.75" y="-139.5" font-family="Helvetica,sans-Serif" font-size="10.00">SettableTooltipClient</text>
</a>
</g>
</g>
<!-- Node4&#45;&gt;Node1 -->
<g id="edge3_Node000001_Node000004" class="edge">
<title>Node4&#45;&gt;Node1</title>
<g id="a_edge3_Node000001_Node000004"><a xlink:title=" ">
<path fill="none" stroke="#63b8ff" d="M233.23,-154.04C241.91,-155.55 250.29,-157.01 257.45,-158.25"/>
<polygon fill="#63b8ff" stroke="#63b8ff" points="234.08,-150.64 223.63,-152.37 232.88,-157.53 234.08,-150.64"/>
</a>
</g>
</g>
<!-- Node5 -->
<g id="Node000005" class="node">
<title>Node5</title>
<g id="a_Node000005"><a xlink:href="classTooltipClient.html" target="_top" xlink:title="Components that want to use pop&#45;up tooltips should implement this interface.">
<polygon fill="white" stroke="#666666" points="74.88,-153 4.88,-153 4.88,-133 74.88,-133 74.88,-153"/>
<text xml:space="preserve" text-anchor="middle" x="39.88" y="-139.5" font-family="Helvetica,sans-Serif" font-size="10.00">TooltipClient</text>
</a>
</g>
</g>
<!-- Node5&#45;&gt;Node4 -->
<g id="edge4_Node000004_Node000005" class="edge">
<title>Node5&#45;&gt;Node4</title>
<g id="a_edge4_Node000004_Node000005"><a xlink:title=" ">
<path fill="none" stroke="#63b8ff" d="M86.62,-143C95.91,-143 105.75,-143 115.26,-143"/>
<polygon fill="#63b8ff" stroke="#63b8ff" points="86.72,-139.5 76.72,-143 86.72,-146.5 86.72,-139.5"/>
</a>
</g>
</g>
<!-- Node15 -->
<g id="Node000015" class="node">
<title>Node15</title>
<g id="a_Node000015"><a xlink:href="classToolbarButton.html" target="_top" xlink:title="A type of button designed to go on a toolbar.">
<polygon fill="white" stroke="#666666" points="567.5,-20 491.5,-20 491.5,0 567.5,0 567.5,-20"/>
<text xml:space="preserve" text-anchor="middle" x="529.5" y="-6.5" font-family="Helvetica,sans-Serif" font-size="10.00">ToolbarButton</text>
</a>
</g>
</g>
<!-- Node14&#45;&gt;Node15 -->
<g id="edge14_Node000014_Node000015" class="edge">
<title>Node14&#45;&gt;Node15</title>
<g id="a_edge14_Node000014_Node000015"><a xlink:title=" ">
<path fill="none" stroke="#63b8ff" d="M467.22,-10C475.5,-10 483.69,-10 491.25,-10"/>
<polygon fill="#63b8ff" stroke="#63b8ff" points="467.44,-6.5 457.44,-10 467.44,-13.5 467.44,-6.5"/>
</a>
</g>
</g>
</g>
</svg>
