<?xml version="1.0" encoding="UTF-8" standalone="no"?>
<!DOCTYPE svg PUBLIC "-//W3C//DTD SVG 1.1//EN"
 "http://www.w3.org/Graphics/SVG/1.1/DTD/svg11.dtd">
<!-- Generated by graphviz version 13.1.0 (20250701.0955)
 -->
<!-- Title: PropertyComponent Pages: 1 -->
<svg width="560pt" height="218pt"
 viewBox="0.00 0.00 560.00 218.00" xmlns="http://www.w3.org/2000/svg" xmlns:xlink="http://www.w3.org/1999/xlink">
<g id="graph0" class="graph" transform="scale(1 1) rotate(0) translate(4 214)">
<title>PropertyComponent</title>
<!-- Node1 -->
<g id="Node000001" class="node">
<title>Node1</title>
<g id="a_Node000001"><a xlink:title="A base class for a component that goes in a PropertyPanel and displays one of an item&#39;s properties.">
<polygon fill="#999999" stroke="#666666" points="360.75,-115 257.75,-115 257.75,-95 360.75,-95 360.75,-115"/>
<text xml:space="preserve" text-anchor="middle" x="309.25" y="-101.5" font-family="Helvetica,sans-Serif" font-size="10.00">PropertyComponent</text>
</a>
</g>
</g>
<!-- Node6 -->
<g id="Node000006" class="node">
<title>Node6</title>
<g id="a_Node000006"><a xlink:href="classBooleanPropertyComponent.html" target="_top" xlink:title="A PropertyComponent that contains an on/off toggle button.">
<polygon fill="white" stroke="#666666" points="543.25,-210 405,-210 405,-190 543.25,-190 543.25,-210"/>
<text xml:space="preserve" text-anchor="middle" x="474.12" y="-196.5" font-family="Helvetica,sans-Serif" font-size="10.00">BooleanPropertyComponent</text>
</a>
</g>
</g>
<!-- Node1&#45;&gt;Node6 -->
<g id="edge5_Node000001_Node000006" class="edge">
<title>Node1&#45;&gt;Node6</title>
<g id="a_edge5_Node000001_Node000006"><a xlink:title=" ">
<path fill="none" stroke="#63b8ff" d="M326.41,-123.6C342.53,-140.98 368.85,-166.39 396.75,-181 403.29,-184.42 410.46,-187.25 417.72,-189.57"/>
<polygon fill="#63b8ff" stroke="#63b8ff" points="329.27,-121.54 319.97,-116.46 324.07,-126.23 329.27,-121.54"/>
</a>
</g>
</g>
<!-- Node7 -->
<g id="Node000007" class="node">
<title>Node7</title>
<g id="a_Node000007"><a xlink:href="classButtonPropertyComponent.html" target="_top" xlink:title="A PropertyComponent that contains a button.">
<polygon fill="white" stroke="#666666" points="539.88,-172 408.38,-172 408.38,-152 539.88,-152 539.88,-172"/>
<text xml:space="preserve" text-anchor="middle" x="474.12" y="-158.5" font-family="Helvetica,sans-Serif" font-size="10.00">ButtonPropertyComponent</text>
</a>
</g>
</g>
<!-- Node1&#45;&gt;Node7 -->
<g id="edge6_Node000001_Node000007" class="edge">
<title>Node1&#45;&gt;Node7</title>
<g id="a_edge6_Node000001_Node000007"><a xlink:title=" ">
<path fill="none" stroke="#63b8ff" d="M341.21,-120.13C357.48,-127.69 377.9,-136.57 396.75,-143 406.06,-146.18 416.18,-149.07 425.91,-151.59"/>
<polygon fill="#63b8ff" stroke="#63b8ff" points="343.08,-117.15 332.55,-116.04 340.1,-123.48 343.08,-117.15"/>
</a>
</g>
</g>
<!-- Node8 -->
<g id="Node000008" class="node">
<title>Node8</title>
<g id="a_Node000008"><a xlink:href="classChoicePropertyComponent.html" target="_top" xlink:title="A PropertyComponent that shows its value as a combo box.">
<polygon fill="white" stroke="#666666" points="541,-134 407.25,-134 407.25,-114 541,-114 541,-134"/>
<text xml:space="preserve" text-anchor="middle" x="474.12" y="-120.5" font-family="Helvetica,sans-Serif" font-size="10.00">ChoicePropertyComponent</text>
</a>
</g>
</g>
<!-- Node1&#45;&gt;Node8 -->
<g id="edge7_Node000001_Node000008" class="edge">
<title>Node1&#45;&gt;Node8</title>
<g id="a_edge7_Node000001_Node000008"><a xlink:title=" ">
<path fill="none" stroke="#63b8ff" d="M372.07,-112.21C383.47,-113.54 395.41,-114.93 406.93,-116.28"/>
<polygon fill="#63b8ff" stroke="#63b8ff" points="372.73,-108.77 362.4,-111.08 371.92,-115.72 372.73,-108.77"/>
</a>
</g>
</g>
<!-- Node9 -->
<g id="Node000009" class="node">
<title>Node9</title>
<g id="a_Node000009"><a xlink:href="classMultiChoicePropertyComponent.html" target="_top" xlink:title="A PropertyComponent that shows its value as an expandable list of ToggleButtons.">
<polygon fill="white" stroke="#666666" points="551.5,-96 396.75,-96 396.75,-76 551.5,-76 551.5,-96"/>
<text xml:space="preserve" text-anchor="middle" x="474.12" y="-82.5" font-family="Helvetica,sans-Serif" font-size="10.00">MultiChoicePropertyComponent</text>
</a>
</g>
</g>
<!-- Node1&#45;&gt;Node9 -->
<g id="edge8_Node000001_Node000009" class="edge">
<title>Node1&#45;&gt;Node9</title>
<g id="a_edge8_Node000001_Node000009"><a xlink:title=" ">
<path fill="none" stroke="#63b8ff" d="M372.28,-97.76C380.2,-96.84 388.38,-95.89 396.5,-94.94"/>
<polygon fill="#63b8ff" stroke="#63b8ff" points="371.92,-94.28 362.4,-98.92 372.73,-101.23 371.92,-94.28"/>
</a>
</g>
</g>
<!-- Node10 -->
<g id="Node000010" class="node">
<title>Node10</title>
<g id="a_Node000010"><a xlink:href="classSliderPropertyComponent.html" target="_top" xlink:title="A PropertyComponent that shows its value as a slider.">
<polygon fill="white" stroke="#666666" points="538,-58 410.25,-58 410.25,-38 538,-38 538,-58"/>
<text xml:space="preserve" text-anchor="middle" x="474.12" y="-44.5" font-family="Helvetica,sans-Serif" font-size="10.00">SliderPropertyComponent</text>
</a>
</g>
</g>
<!-- Node1&#45;&gt;Node10 -->
<g id="edge9_Node000001_Node000010" class="edge">
<title>Node1&#45;&gt;Node10</title>
<g id="a_edge9_Node000001_Node000010"><a xlink:title=" ">
<path fill="none" stroke="#63b8ff" d="M341.21,-89.87C357.48,-82.31 377.9,-73.43 396.75,-67 406.06,-63.82 416.18,-60.93 425.91,-58.41"/>
<polygon fill="#63b8ff" stroke="#63b8ff" points="340.1,-86.52 332.55,-93.96 343.08,-92.85 340.1,-86.52"/>
</a>
</g>
</g>
<!-- Node11 -->
<g id="Node000011" class="node">
<title>Node11</title>
<g id="a_Node000011"><a xlink:href="classTextPropertyComponent.html" target="_top" xlink:title="A PropertyComponent that shows its value as editable text.">
<polygon fill="white" stroke="#666666" points="535,-20 413.25,-20 413.25,0 535,0 535,-20"/>
<text xml:space="preserve" text-anchor="middle" x="474.12" y="-6.5" font-family="Helvetica,sans-Serif" font-size="10.00">TextPropertyComponent</text>
</a>
</g>
</g>
<!-- Node1&#45;&gt;Node11 -->
<g id="edge10_Node000001_Node000011" class="edge">
<title>Node1&#45;&gt;Node11</title>
<g id="a_edge10_Node000001_Node000011"><a xlink:title=" ">
<path fill="none" stroke="#63b8ff" d="M326.41,-86.4C342.53,-69.02 368.85,-43.61 396.75,-29 403.29,-25.58 410.46,-22.75 417.72,-20.43"/>
<polygon fill="#63b8ff" stroke="#63b8ff" points="324.07,-83.77 319.97,-93.54 329.27,-88.46 324.07,-83.77"/>
</a>
</g>
</g>
<!-- Node2 -->
<g id="Node000002" class="node">
<title>Node2</title>
<g id="a_Node000002"><a xlink:href="classComponent.html" target="_top" xlink:title="The base class for all JUCE user&#45;interface objects.">
<polygon fill="white" stroke="#666666" points="201.88,-134 135.62,-134 135.62,-114 201.88,-114 201.88,-134"/>
<text xml:space="preserve" text-anchor="middle" x="168.75" y="-120.5" font-family="Helvetica,sans-Serif" font-size="10.00">Component</text>
</a>
</g>
</g>
<!-- Node2&#45;&gt;Node1 -->
<g id="edge1_Node000001_Node000002" class="edge">
<title>Node2&#45;&gt;Node1</title>
<g id="a_edge1_Node000001_Node000002"><a xlink:title=" ">
<path fill="none" stroke="#63b8ff" d="M213.47,-118C227.39,-116.09 242.9,-113.96 257.28,-111.99"/>
<polygon fill="#63b8ff" stroke="#63b8ff" points="213.15,-114.51 203.72,-119.34 214.1,-121.45 213.15,-114.51"/>
</a>
</g>
</g>
<!-- Node3 -->
<g id="Node000003" class="node">
<title>Node3</title>
<g id="a_Node000003"><a xlink:href="classMouseListener.html" target="_top" xlink:title="A MouseListener can be registered with a component to receive callbacks about mouse events that happe...">
<polygon fill="white" stroke="#666666" points="79.75,-134 0,-134 0,-114 79.75,-114 79.75,-134"/>
<text xml:space="preserve" text-anchor="middle" x="39.88" y="-120.5" font-family="Helvetica,sans-Serif" font-size="10.00">MouseListener</text>
</a>
</g>
</g>
<!-- Node3&#45;&gt;Node2 -->
<g id="edge2_Node000002_Node000003" class="edge">
<title>Node3&#45;&gt;Node2</title>
<g id="a_edge2_Node000002_Node000003"><a xlink:title=" ">
<path fill="none" stroke="#63b8ff" d="M91.12,-124C106.02,-124 121.94,-124 135.38,-124"/>
<polygon fill="#63b8ff" stroke="#63b8ff" points="91.49,-120.5 81.49,-124 91.49,-127.5 91.49,-120.5"/>
</a>
</g>
</g>
<!-- Node4 -->
<g id="Node000004" class="node">
<title>Node4</title>
<g id="a_Node000004"><a xlink:href="classSettableTooltipClient.html" target="_top" xlink:title="An implementation of TooltipClient that stores the tooltip string and a method for changing it.">
<polygon fill="white" stroke="#666666" points="221.75,-96 115.75,-96 115.75,-76 221.75,-76 221.75,-96"/>
<text xml:space="preserve" text-anchor="middle" x="168.75" y="-82.5" font-family="Helvetica,sans-Serif" font-size="10.00">SettableTooltipClient</text>
</a>
</g>
</g>
<!-- Node4&#45;&gt;Node1 -->
<g id="edge3_Node000001_Node000004" class="edge">
<title>Node4&#45;&gt;Node1</title>
<g id="a_edge3_Node000001_Node000004"><a xlink:title=" ">
<path fill="none" stroke="#63b8ff" d="M233.46,-94.74C241.57,-95.85 249.78,-96.98 257.65,-98.06"/>
<polygon fill="#63b8ff" stroke="#63b8ff" points="233.99,-91.28 223.61,-93.39 233.04,-98.22 233.99,-91.28"/>
</a>
</g>
</g>
<!-- Node5 -->
<g id="Node000005" class="node">
<title>Node5</title>
<g id="a_Node000005"><a xlink:href="classTooltipClient.html" target="_top" xlink:title="Components that want to use pop&#45;up tooltips should implement this interface.">
<polygon fill="white" stroke="#666666" points="74.88,-96 4.88,-96 4.88,-76 74.88,-76 74.88,-96"/>
<text xml:space="preserve" text-anchor="middle" x="39.88" y="-82.5" font-family="Helvetica,sans-Serif" font-size="10.00">TooltipClient</text>
</a>
</g>
</g>
<!-- Node5&#45;&gt;Node4 -->
<g id="edge4_Node000004_Node000005" class="edge">
<title>Node5&#45;&gt;Node4</title>
<g id="a_edge4_Node000004_Node000005"><a xlink:title=" ">
<path fill="none" stroke="#63b8ff" d="M86.62,-86C95.91,-86 105.75,-86 115.26,-86"/>
<polygon fill="#63b8ff" stroke="#63b8ff" points="86.72,-82.5 76.72,-86 86.72,-89.5 86.72,-82.5"/>
</a>
</g>
</g>
</g>
</svg>
