<?xml version="1.0" encoding="UTF-8" standalone="no"?>
<!DOCTYPE svg PUBLIC "-//W3C//DTD SVG 1.1//EN"
 "http://www.w3.org/Graphics/SVG/1.1/DTD/svg11.dtd">
<!-- Generated by graphviz version 13.1.0 (20250701.0955)
 -->
<!-- Title: ValueTree::Listener Pages: 1 -->
<svg width="296pt" height="142pt"
 viewBox="0.00 0.00 296.00 142.00" xmlns="http://www.w3.org/2000/svg" xmlns:xlink="http://www.w3.org/1999/xlink">
<g id="graph0" class="graph" transform="scale(1 1) rotate(0) translate(4 138)">
<title>ValueTree::Listener</title>
<!-- Node1 -->
<g id="Node000001" class="node">
<title>Node1</title>
<g id="a_Node000001"><a xlink:title="Listener class for events that happen to a ValueTree.">
<polygon fill="#999999" stroke="#666666" points="100,-77 0,-77 0,-57 100,-57 100,-77"/>
<text xml:space="preserve" text-anchor="middle" x="50" y="-63.5" font-family="Helvetica,sans-Serif" font-size="10.00">ValueTree::Listener</text>
</a>
</g>
</g>
<!-- Node2 -->
<g id="Node000002" class="node">
<title>Node2</title>
<g id="a_Node000002"><a xlink:href="classAudioProcessorValueTreeState.html" target="_top" xlink:title="This class contains a ValueTree that is used to manage an AudioProcessor&#39;s entire state.">
<polygon fill="white" stroke="#666666" points="287.75,-134 136,-134 136,-114 287.75,-114 287.75,-134"/>
<text xml:space="preserve" text-anchor="middle" x="211.88" y="-120.5" font-family="Helvetica,sans-Serif" font-size="10.00">AudioProcessorValueTreeState</text>
</a>
</g>
</g>
<!-- Node1&#45;&gt;Node2 -->
<g id="edge1_Node000001_Node000002" class="edge">
<title>Node1&#45;&gt;Node2</title>
<g id="a_edge1_Node000001_Node000002"><a xlink:title=" ">
<path fill="none" stroke="#8b1a1a" d="M81.87,-82.34C97.77,-89.85 117.64,-98.62 136,-105 145.12,-108.17 155.03,-111.06 164.57,-113.58"/>
<polygon fill="#8b1a1a" stroke="#8b1a1a" points="83.45,-79.22 72.92,-78.05 80.42,-85.53 83.45,-79.22"/>
</a>
</g>
</g>
<!-- Node3 -->
<g id="Node000003" class="node">
<title>Node3</title>
<g id="a_Node000003"><a xlink:href="classCachedValue.html" target="_top" xlink:title="This class acts as a typed wrapper around a property inside a ValueTree.">
<polygon fill="white" stroke="#666666" points="267.88,-96 155.88,-96 155.88,-76 267.88,-76 267.88,-96"/>
<text xml:space="preserve" text-anchor="middle" x="211.88" y="-82.5" font-family="Helvetica,sans-Serif" font-size="10.00">CachedValue&lt; Type &gt;</text>
</a>
</g>
</g>
<!-- Node1&#45;&gt;Node3 -->
<g id="edge2_Node000001_Node000003" class="edge">
<title>Node1&#45;&gt;Node3</title>
<g id="a_edge2_Node000001_Node000003"><a xlink:title=" ">
<path fill="none" stroke="#8b1a1a" d="M111.63,-74.21C126.08,-75.92 141.43,-77.75 155.63,-79.43"/>
<polygon fill="#8b1a1a" stroke="#8b1a1a" points="112.12,-70.74 101.78,-73.03 111.29,-77.69 112.12,-70.74"/>
</a>
</g>
</g>
<!-- Node4 -->
<g id="Node000004" class="node">
<title>Node4</title>
<g id="a_Node000004"><a xlink:href="classComponentBuilder.html" target="_top" xlink:title="Loads and maintains a tree of Components from a ValueTree that represents them.">
<polygon fill="white" stroke="#666666" points="260,-58 163.75,-58 163.75,-38 260,-38 260,-58"/>
<text xml:space="preserve" text-anchor="middle" x="211.88" y="-44.5" font-family="Helvetica,sans-Serif" font-size="10.00">ComponentBuilder</text>
</a>
</g>
</g>
<!-- Node1&#45;&gt;Node4 -->
<g id="edge3_Node000001_Node000004" class="edge">
<title>Node1&#45;&gt;Node4</title>
<g id="a_edge3_Node000001_Node000004"><a xlink:title=" ">
<path fill="none" stroke="#8b1a1a" d="M111.36,-59.83C128.58,-57.78 147.08,-55.58 163.41,-53.64"/>
<polygon fill="#8b1a1a" stroke="#8b1a1a" points="111.29,-56.31 101.78,-60.97 112.12,-63.26 111.29,-56.31"/>
</a>
</g>
</g>
<!-- Node5 -->
<g id="Node000005" class="node">
<title>Node5</title>
<g id="a_Node000005"><a xlink:href="classValueTreeSynchroniser.html" target="_top" xlink:title="This class can be used to watch for all changes to the state of a ValueTree, and to convert them to a...">
<polygon fill="white" stroke="#666666" points="270.12,-20 153.62,-20 153.62,0 270.12,0 270.12,-20"/>
<text xml:space="preserve" text-anchor="middle" x="211.88" y="-6.5" font-family="Helvetica,sans-Serif" font-size="10.00">ValueTreeSynchroniser</text>
</a>
</g>
</g>
<!-- Node1&#45;&gt;Node5 -->
<g id="edge4_Node000001_Node000005" class="edge">
<title>Node1&#45;&gt;Node5</title>
<g id="a_edge4_Node000001_Node000005"><a xlink:title=" ">
<path fill="none" stroke="#8b1a1a" d="M81.87,-51.66C97.77,-44.15 117.64,-35.38 136,-29 145.12,-25.83 155.03,-22.94 164.57,-20.42"/>
<polygon fill="#8b1a1a" stroke="#8b1a1a" points="80.42,-48.47 72.92,-55.95 83.45,-54.78 80.42,-48.47"/>
</a>
</g>
</g>
</g>
</svg>
