<?xml version="1.0" encoding="UTF-8" standalone="no"?>
<!DOCTYPE svg PUBLIC "-//W3C//DTD SVG 1.1//EN"
 "http://www.w3.org/Graphics/SVG/1.1/DTD/svg11.dtd">
<!-- Generated by graphviz version 13.1.0 (20250701.0955)
 -->
<!-- Title: ARAAudioSourceReader Pages: 1 -->
<svg width="262pt" height="84pt"
 viewBox="0.00 0.00 262.00 84.00" xmlns="http://www.w3.org/2000/svg" xmlns:xlink="http://www.w3.org/1999/xlink">
<g id="graph0" class="graph" transform="scale(1 1) rotate(0) translate(4 80)">
<title>ARAAudioSourceReader</title>
<!-- Node1 -->
<g id="Node000001" class="node">
<title>Node1</title>
<g id="a_Node000001"><a xlink:title="Subclass of AudioFormatReader that reads samples from a single ARA audio source.">
<polygon fill="#999999" stroke="#666666" points="181.5,-20 57.5,-20 57.5,0 181.5,0 181.5,-20"/>
<text xml:space="preserve" text-anchor="middle" x="119.5" y="-6.5" font-family="Helvetica,sans-Serif" font-size="10.00">ARAAudioSourceReader</text>
</a>
</g>
</g>
<!-- Node2 -->
<g id="Node000002" class="node">
<title>Node2</title>
<g id="a_Node000002"><a xlink:href="classAudioFormatReader.html" target="_top" xlink:title="Reads samples from an audio file stream.">
<polygon fill="white" stroke="#666666" points="103,-76 0,-76 0,-56 103,-56 103,-76"/>
<text xml:space="preserve" text-anchor="middle" x="51.5" y="-62.5" font-family="Helvetica,sans-Serif" font-size="10.00">AudioFormatReader</text>
</a>
</g>
</g>
<!-- Node2&#45;&gt;Node1 -->
<g id="edge1_Node000001_Node000002" class="edge">
<title>Node2&#45;&gt;Node1</title>
<g id="a_edge1_Node000001_Node000002"><a xlink:title=" ">
<path fill="none" stroke="#63b8ff" d="M72.05,-48.68C83.75,-39.39 97.98,-28.09 107.79,-20.3"/>
<polygon fill="#63b8ff" stroke="#63b8ff" points="70.18,-45.69 64.53,-54.65 74.54,-51.17 70.18,-45.69"/>
</a>
</g>
</g>
<!-- Node3 -->
<g id="Node000003" class="node">
<title>Node3</title>
<g id="a_Node000003"><a xlink:href="classARAAudioSourceListener.html" target="_top" xlink:title="A base class for listeners that want to know about changes to an ARAAudioSource object.">
<polygon fill="white" stroke="#666666" points="254,-76 121,-76 121,-56 254,-56 254,-76"/>
<text xml:space="preserve" text-anchor="middle" x="187.5" y="-62.5" font-family="Helvetica,sans-Serif" font-size="10.00">ARAAudioSource::Listener</text>
</a>
</g>
</g>
<!-- Node3&#45;&gt;Node1 -->
<g id="edge2_Node000001_Node000003" class="edge">
<title>Node3&#45;&gt;Node1</title>
<g id="a_edge2_Node000001_Node000003"><a xlink:title=" ">
<path fill="none" stroke="#8b1a1a" d="M166.95,-48.68C155.25,-39.39 141.02,-28.09 131.21,-20.3"/>
<polygon fill="#8b1a1a" stroke="#8b1a1a" points="164.46,-51.17 174.47,-54.65 168.82,-45.69 164.46,-51.17"/>
</a>
</g>
</g>
</g>
</svg>
