<?xml version="1.0" encoding="UTF-8" standalone="no"?>
<!DOCTYPE svg PUBLIC "-//W3C//DTD SVG 1.1//EN"
 "http://www.w3.org/Graphics/SVG/1.1/DTD/svg11.dtd">
<!-- Generated by graphviz version 13.1.0 (20250701.0955)
 -->
<!-- Title: ListBoxModel Pages: 1 -->
<svg width="500pt" height="84pt"
 viewBox="0.00 0.00 500.00 84.00" xmlns="http://www.w3.org/2000/svg" xmlns:xlink="http://www.w3.org/1999/xlink">
<g id="graph0" class="graph" transform="scale(1 1) rotate(0) translate(4 80)">
<title>ListBoxModel</title>
<!-- Node1 -->
<g id="Node000001" class="node">
<title>Node1</title>
<g id="a_Node000001"><a xlink:title="A subclass of this is used to drive a ListBox.">
<polygon fill="#999999" stroke="#666666" points="293,-76 217.75,-76 217.75,-56 293,-56 293,-76"/>
<text xml:space="preserve" text-anchor="middle" x="255.38" y="-62.5" font-family="Helvetica,sans-Serif" font-size="10.00">ListBoxModel</text>
</a>
</g>
</g>
<!-- Node2 -->
<g id="Node000002" class="node">
<title>Node2</title>
<g id="a_Node000002"><a xlink:href="classBurgerMenuComponent.html" target="_top" xlink:title="A component which lists all menu items and groups them into categories by their respective parent men...">
<polygon fill="white" stroke="#666666" points="118.75,-20 0,-20 0,0 118.75,0 118.75,-20"/>
<text xml:space="preserve" text-anchor="middle" x="59.38" y="-6.5" font-family="Helvetica,sans-Serif" font-size="10.00">BurgerMenuComponent</text>
</a>
</g>
</g>
<!-- Node1&#45;&gt;Node2 -->
<g id="edge1_Node000001_Node000002" class="edge">
<title>Node1&#45;&gt;Node2</title>
<g id="a_edge1_Node000001_Node000002"><a xlink:title=" ">
<path fill="none" stroke="#8b1a1a" d="M210.22,-52.56C174.76,-42.79 126.14,-29.39 93.78,-20.48"/>
<polygon fill="#8b1a1a" stroke="#8b1a1a" points="209.2,-55.91 219.78,-55.19 211.06,-49.16 209.2,-55.91"/>
</a>
</g>
</g>
<!-- Node3 -->
<g id="Node000003" class="node">
<title>Node3</title>
<g id="a_Node000003"><a xlink:href="classFileListComponent.html" target="_top" xlink:title="A component that displays the files in a directory as a listbox.">
<polygon fill="white" stroke="#666666" points="234.25,-20 136.5,-20 136.5,0 234.25,0 234.25,-20"/>
<text xml:space="preserve" text-anchor="middle" x="185.38" y="-6.5" font-family="Helvetica,sans-Serif" font-size="10.00">FileListComponent</text>
</a>
</g>
</g>
<!-- Node1&#45;&gt;Node3 -->
<g id="edge2_Node000001_Node000003" class="edge">
<title>Node1&#45;&gt;Node3</title>
<g id="a_edge2_Node000001_Node000003"><a xlink:title=" ">
<path fill="none" stroke="#8b1a1a" d="M234.22,-48.68C222.18,-39.39 207.52,-28.09 197.43,-20.3"/>
<polygon fill="#8b1a1a" stroke="#8b1a1a" points="231.93,-51.33 241.98,-54.67 236.2,-45.79 231.93,-51.33"/>
</a>
</g>
</g>
<!-- Node4 -->
<g id="Node000004" class="node">
<title>Node4</title>
<g id="a_Node000004"><a xlink:href="classFileSearchPathListComponent.html" target="_top" xlink:title="Shows a set of file paths in a list, allowing them to be added, removed or re&#45;ordered.">
<polygon fill="white" stroke="#666666" points="400.75,-20 252,-20 252,0 400.75,0 400.75,-20"/>
<text xml:space="preserve" text-anchor="middle" x="326.38" y="-6.5" font-family="Helvetica,sans-Serif" font-size="10.00">FileSearchPathListComponent</text>
</a>
</g>
</g>
<!-- Node1&#45;&gt;Node4 -->
<g id="edge3_Node000001_Node000004" class="edge">
<title>Node1&#45;&gt;Node4</title>
<g id="a_edge3_Node000001_Node000004"><a xlink:title=" ">
<path fill="none" stroke="#8b1a1a" d="M276.83,-48.68C289.05,-39.39 303.91,-28.09 314.15,-20.3"/>
<polygon fill="#8b1a1a" stroke="#8b1a1a" points="274.79,-45.84 268.95,-54.68 279.03,-51.41 274.79,-45.84"/>
</a>
</g>
</g>
<!-- Node5 -->
<g id="Node000005" class="node">
<title>Node5</title>
<g id="a_Node000005"><a xlink:href="classTableListBox.html" target="_top" xlink:title="A table of cells, using a TableHeaderComponent as its header.">
<polygon fill="white" stroke="#666666" points="491.5,-20 419.25,-20 419.25,0 491.5,0 491.5,-20"/>
<text xml:space="preserve" text-anchor="middle" x="455.38" y="-6.5" font-family="Helvetica,sans-Serif" font-size="10.00">TableListBox</text>
</a>
</g>
</g>
<!-- Node1&#45;&gt;Node5 -->
<g id="edge4_Node000001_Node000005" class="edge">
<title>Node1&#45;&gt;Node5</title>
<g id="a_edge4_Node000001_Node000005"><a xlink:title=" ">
<path fill="none" stroke="#8b1a1a" d="M300.98,-52.69C337.2,-42.91 387.11,-29.43 420.27,-20.48"/>
<polygon fill="#8b1a1a" stroke="#8b1a1a" points="300.42,-49.21 291.67,-55.2 302.24,-55.97 300.42,-49.21"/>
</a>
</g>
</g>
</g>
</svg>
