<?xml version="1.0" encoding="UTF-8" standalone="no"?>
<!DOCTYPE svg PUBLIC "-//W3C//DTD SVG 1.1//EN"
 "http://www.w3.org/Graphics/SVG/1.1/DTD/svg11.dtd">
<!-- Generated by graphviz version 13.1.0 (20250701.0955)
 -->
<!-- Title: WebComboBoxRelay Pages: 1 -->
<svg width="296pt" height="96pt"
 viewBox="0.00 0.00 296.00 96.00" xmlns="http://www.w3.org/2000/svg" xmlns:xlink="http://www.w3.org/1999/xlink">
<g id="graph0" class="graph" transform="scale(1 1) rotate(0) translate(4 92)">
<title>WebComboBoxRelay</title>
<!-- Node1 -->
<g id="Node000001" class="node">
<title>Node1</title>
<g id="a_Node000001"><a xlink:title="Helper class that relays audio parameter information to an object inside a WebBrowserComponent.">
<polygon fill="#999999" stroke="#666666" points="203,-20 93.25,-20 93.25,0 203,0 203,-20"/>
<text xml:space="preserve" text-anchor="middle" x="148.12" y="-6.5" font-family="Helvetica,sans-Serif" font-size="10.00">WebComboBoxRelay</text>
</a>
</g>
</g>
<!-- Node2 -->
<g id="Node000002" class="node">
<title>Node2</title>
<g id="a_Node000002"><a xlink:href="classOptionsBuilder.html" target="_top" xlink:title=" ">
<polygon fill="white" stroke="#666666" points="144.25,-88 0,-88 0,-56 144.25,-56 144.25,-88"/>
<text xml:space="preserve" text-anchor="start" x="8" y="-74.5" font-family="Helvetica,sans-Serif" font-size="10.00">OptionsBuilder&lt; WebBrowser</text>
<text xml:space="preserve" text-anchor="middle" x="72.12" y="-62.5" font-family="Helvetica,sans-Serif" font-size="10.00">Component::Options &gt;</text>
</a>
</g>
</g>
<!-- Node2&#45;&gt;Node1 -->
<g id="edge1_Node000001_Node000002" class="edge">
<title>Node2&#45;&gt;Node1</title>
<g id="a_edge1_Node000001_Node000002"><a xlink:title=" ">
<path fill="none" stroke="#63b8ff" d="M100.73,-48.42C113.02,-38.71 126.71,-27.9 136.21,-20.41"/>
<polygon fill="#63b8ff" stroke="#63b8ff" points="98.56,-45.67 92.88,-54.61 102.9,-51.16 98.56,-45.67"/>
</a>
</g>
</g>
<!-- Node3 -->
<g id="Node000003" class="node">
<title>Node3</title>
<g id="a_Node000003"><a xlink:href="classWebViewLifetimeListener.html" target="_top" xlink:title="Type for a listener registered with WebBrowserComponent::Options::withWebViewLifetimeListener.">
<polygon fill="white" stroke="#666666" points="288.25,-82 162,-82 162,-62 288.25,-62 288.25,-82"/>
<text xml:space="preserve" text-anchor="middle" x="225.12" y="-68.5" font-family="Helvetica,sans-Serif" font-size="10.00">WebViewLifetimeListener</text>
</a>
</g>
</g>
<!-- Node3&#45;&gt;Node1 -->
<g id="edge2_Node000001_Node000003" class="edge">
<title>Node3&#45;&gt;Node1</title>
<g id="a_edge2_Node000001_Node000003"><a xlink:title=" ">
<path fill="none" stroke="#8b1a1a" d="M204.07,-54.59C189.92,-43.57 171.79,-29.44 160.07,-20.31"/>
<polygon fill="#8b1a1a" stroke="#8b1a1a" points="201.86,-57.31 211.9,-60.69 206.16,-51.79 201.86,-57.31"/>
</a>
</g>
</g>
</g>
</svg>
