<?xml version="1.0" encoding="UTF-8" standalone="no"?>
<!DOCTYPE svg PUBLIC "-//W3C//DTD SVG 1.1//EN"
 "http://www.w3.org/Graphics/SVG/1.1/DTD/svg11.dtd">
<!-- Generated by graphviz version 13.1.0 (20250701.0955)
 -->
<!-- Title: WebViewLifetimeListener Pages: 1 -->
<svg width="358pt" height="84pt"
 viewBox="0.00 0.00 358.00 84.00" xmlns="http://www.w3.org/2000/svg" xmlns:xlink="http://www.w3.org/1999/xlink">
<g id="graph0" class="graph" transform="scale(1 1) rotate(0) translate(4 80)">
<title>WebViewLifetimeListener</title>
<!-- Node1 -->
<g id="Node000001" class="node">
<title>Node1</title>
<g id="a_Node000001"><a xlink:title="Type for a listener registered with WebBrowserComponent::Options::withWebViewLifetimeListener.">
<polygon fill="#999999" stroke="#666666" points="234,-76 107.75,-76 107.75,-56 234,-56 234,-76"/>
<text xml:space="preserve" text-anchor="middle" x="170.88" y="-62.5" font-family="Helvetica,sans-Serif" font-size="10.00">WebViewLifetimeListener</text>
</a>
</g>
</g>
<!-- Node2 -->
<g id="Node000002" class="node">
<title>Node2</title>
<g id="a_Node000002"><a xlink:href="classWebComboBoxRelay.html" target="_top" xlink:title="Helper class that relays audio parameter information to an object inside a WebBrowserComponent.">
<polygon fill="white" stroke="#666666" points="109.75,-20 0,-20 0,0 109.75,0 109.75,-20"/>
<text xml:space="preserve" text-anchor="middle" x="54.88" y="-6.5" font-family="Helvetica,sans-Serif" font-size="10.00">WebComboBoxRelay</text>
</a>
</g>
</g>
<!-- Node1&#45;&gt;Node2 -->
<g id="edge1_Node000001_Node000002" class="edge">
<title>Node1&#45;&gt;Node2</title>
<g id="a_edge1_Node000001_Node000002"><a xlink:title=" ">
<path fill="none" stroke="#8b1a1a" d="M140.25,-50.75C119.71,-41.18 93.23,-28.85 75.24,-20.48"/>
<polygon fill="#8b1a1a" stroke="#8b1a1a" points="138.75,-53.91 149.3,-54.96 141.71,-47.56 138.75,-53.91"/>
</a>
</g>
</g>
<!-- Node3 -->
<g id="Node000003" class="node">
<title>Node3</title>
<g id="a_Node000003"><a xlink:href="classWebSliderRelay.html" target="_top" xlink:title="Helper class that relays audio parameter information to an object inside a WebBrowserComponent.">
<polygon fill="white" stroke="#666666" points="213.75,-20 128,-20 128,0 213.75,0 213.75,-20"/>
<text xml:space="preserve" text-anchor="middle" x="170.88" y="-6.5" font-family="Helvetica,sans-Serif" font-size="10.00">WebSliderRelay</text>
</a>
</g>
</g>
<!-- Node1&#45;&gt;Node3 -->
<g id="edge2_Node000001_Node000003" class="edge">
<title>Node1&#45;&gt;Node3</title>
<g id="a_edge2_Node000001_Node000003"><a xlink:title=" ">
<path fill="none" stroke="#8b1a1a" d="M170.88,-44.13C170.88,-35.9 170.88,-26.85 170.88,-20.3"/>
<polygon fill="#8b1a1a" stroke="#8b1a1a" points="167.38,-44.08 170.88,-54.08 174.38,-44.08 167.38,-44.08"/>
</a>
</g>
</g>
<!-- Node4 -->
<g id="Node000004" class="node">
<title>Node4</title>
<g id="a_Node000004"><a xlink:href="classWebToggleButtonRelay.html" target="_top" xlink:title="Helper class that relays audio parameter information to an object inside a WebBrowserComponent.">
<polygon fill="white" stroke="#666666" points="349.88,-20 231.88,-20 231.88,0 349.88,0 349.88,-20"/>
<text xml:space="preserve" text-anchor="middle" x="290.88" y="-6.5" font-family="Helvetica,sans-Serif" font-size="10.00">WebToggleButtonRelay</text>
</a>
</g>
</g>
<!-- Node1&#45;&gt;Node4 -->
<g id="edge3_Node000001_Node000004" class="edge">
<title>Node1&#45;&gt;Node4</title>
<g id="a_edge3_Node000001_Node000004"><a xlink:title=" ">
<path fill="none" stroke="#8b1a1a" d="M202.26,-50.88C223.55,-41.3 251.12,-28.89 269.81,-20.48"/>
<polygon fill="#8b1a1a" stroke="#8b1a1a" points="200.84,-47.68 193.16,-54.97 203.71,-54.06 200.84,-47.68"/>
</a>
</g>
</g>
</g>
</svg>
