<?xml version="1.0" encoding="UTF-8" standalone="no"?>
<!DOCTYPE svg PUBLIC "-//W3C//DTD SVG 1.1//EN"
 "http://www.w3.org/Graphics/SVG/1.1/DTD/svg11.dtd">
<!-- Generated by graphviz version 13.1.0 (20250701.0955)
 -->
<!-- Title: OutputStream Pages: 1 -->
<svg width="518pt" height="84pt"
 viewBox="0.00 0.00 518.00 84.00" xmlns="http://www.w3.org/2000/svg" xmlns:xlink="http://www.w3.org/1999/xlink">
<g id="graph0" class="graph" transform="scale(1 1) rotate(0) translate(4 80)">
<title>OutputStream</title>
<!-- Node1 -->
<g id="Node000001" class="node">
<title>Node1</title>
<g id="a_Node000001"><a xlink:title="The base class for streams that write data to some kind of destination.">
<polygon fill="#999999" stroke="#666666" points="270.25,-76 193.5,-76 193.5,-56 270.25,-56 270.25,-76"/>
<text xml:space="preserve" text-anchor="middle" x="231.88" y="-62.5" font-family="Helvetica,sans-Serif" font-size="10.00">OutputStream</text>
</a>
</g>
</g>
<!-- Node2 -->
<g id="Node000002" class="node">
<title>Node2</title>
<g id="a_Node000002"><a xlink:href="classARAOutputStream.html" target="_top" xlink:title="Used to write persistent ARA archives &#45; see doStoreObjectsToStream() for details.">
<polygon fill="white" stroke="#666666" points="97.75,-20 0,-20 0,0 97.75,0 97.75,-20"/>
<text xml:space="preserve" text-anchor="middle" x="48.88" y="-6.5" font-family="Helvetica,sans-Serif" font-size="10.00">ARAOutputStream</text>
</a>
</g>
</g>
<!-- Node1&#45;&gt;Node2 -->
<g id="edge1_Node000001_Node000002" class="edge">
<title>Node1&#45;&gt;Node2</title>
<g id="a_edge1_Node000001_Node000002"><a xlink:title=" ">
<path fill="none" stroke="#63b8ff" d="M189.29,-52.43C156.22,-42.67 111.08,-29.35 81,-20.48"/>
<polygon fill="#63b8ff" stroke="#63b8ff" points="187.97,-55.69 198.55,-55.17 189.95,-48.98 187.97,-55.69"/>
</a>
</g>
</g>
<!-- Node3 -->
<g id="Node000003" class="node">
<title>Node3</title>
<g id="a_Node000003"><a xlink:href="classFileOutputStream.html" target="_top" xlink:title="An output stream that writes into a local file.">
<polygon fill="white" stroke="#666666" points="208.12,-20 115.62,-20 115.62,0 208.12,0 208.12,-20"/>
<text xml:space="preserve" text-anchor="middle" x="161.88" y="-6.5" font-family="Helvetica,sans-Serif" font-size="10.00">FileOutputStream</text>
</a>
</g>
</g>
<!-- Node1&#45;&gt;Node3 -->
<g id="edge2_Node000001_Node000003" class="edge">
<title>Node1&#45;&gt;Node3</title>
<g id="a_edge2_Node000001_Node000003"><a xlink:title=" ">
<path fill="none" stroke="#63b8ff" d="M210.72,-48.68C198.68,-39.39 184.02,-28.09 173.93,-20.3"/>
<polygon fill="#63b8ff" stroke="#63b8ff" points="208.43,-51.33 218.48,-54.67 212.7,-45.79 208.43,-51.33"/>
</a>
</g>
</g>
<!-- Node4 -->
<g id="Node000004" class="node">
<title>Node4</title>
<g id="a_Node000004"><a xlink:href="classGZIPCompressorOutputStream.html" target="_top" xlink:title="A stream which uses zlib to compress the data written into it.">
<polygon fill="white" stroke="#666666" points="379.5,-20 226.25,-20 226.25,0 379.5,0 379.5,-20"/>
<text xml:space="preserve" text-anchor="middle" x="302.88" y="-6.5" font-family="Helvetica,sans-Serif" font-size="10.00">GZIPCompressorOutputStream</text>
</a>
</g>
</g>
<!-- Node1&#45;&gt;Node4 -->
<g id="edge3_Node000001_Node000004" class="edge">
<title>Node1&#45;&gt;Node4</title>
<g id="a_edge3_Node000001_Node000004"><a xlink:title=" ">
<path fill="none" stroke="#63b8ff" d="M253.33,-48.68C265.55,-39.39 280.41,-28.09 290.65,-20.3"/>
<polygon fill="#63b8ff" stroke="#63b8ff" points="251.29,-45.84 245.45,-54.68 255.53,-51.41 251.29,-45.84"/>
</a>
</g>
</g>
<!-- Node5 -->
<g id="Node000005" class="node">
<title>Node5</title>
<g id="a_Node000005"><a xlink:href="classMemoryOutputStream.html" target="_top" xlink:title="Writes data to an internal memory buffer, which grows as required.">
<polygon fill="white" stroke="#666666" points="509.88,-20 397.88,-20 397.88,0 509.88,0 509.88,-20"/>
<text xml:space="preserve" text-anchor="middle" x="453.88" y="-6.5" font-family="Helvetica,sans-Serif" font-size="10.00">MemoryOutputStream</text>
</a>
</g>
</g>
<!-- Node1&#45;&gt;Node5 -->
<g id="edge4_Node000001_Node000005" class="edge">
<title>Node1&#45;&gt;Node5</title>
<g id="a_edge4_Node000001_Node000005"><a xlink:title=" ">
<path fill="none" stroke="#63b8ff" d="M281.72,-52.88C321.99,-43.08 377.86,-29.49 414.9,-20.48"/>
<polygon fill="#63b8ff" stroke="#63b8ff" points="280.9,-49.47 272.02,-55.24 282.56,-56.27 280.9,-49.47"/>
</a>
</g>
</g>
</g>
</svg>
