<?xml version="1.0" encoding="UTF-8" standalone="no"?>
<!DOCTYPE svg PUBLIC "-//W3C//DTD SVG 1.1//EN"
 "http://www.w3.org/Graphics/SVG/1.1/DTD/svg11.dtd">
<!-- Generated by graphviz version 13.1.0 (20250701.0955)
 -->
<!-- Title: NetworkServiceDiscovery::AvailableServiceList Pages: 1 -->
<svg width="152pt" height="96pt"
 viewBox="0.00 0.00 152.00 96.00" xmlns="http://www.w3.org/2000/svg" xmlns:xlink="http://www.w3.org/1999/xlink">
<g id="graph0" class="graph" transform="scale(1 1) rotate(0) translate(4 92)">
<title>NetworkServiceDiscovery::AvailableServiceList</title>
<!-- Node1 -->
<g id="Node000001" class="node">
<title>Node1</title>
<g id="a_Node000001"><a xlink:title="Watches the network for broadcasts from Advertiser objects, and keeps a list of all the currently act...">
<polygon fill="#999999" stroke="#666666" points="130,-32 0,-32 0,0 130,0 130,-32"/>
<text xml:space="preserve" text-anchor="start" x="8" y="-18.5" font-family="Helvetica,sans-Serif" font-size="10.00">NetworkServiceDiscovery</text>
<text xml:space="preserve" text-anchor="middle" x="65" y="-6.5" font-family="Helvetica,sans-Serif" font-size="10.00">::AvailableServiceList</text>
</a>
</g>
</g>
<!-- Node2 -->
<g id="Node000002" class="node">
<title>Node2</title>
<g id="a_Node000002"><a xlink:href="classThread.html" target="_top" xlink:title="Encapsulates a thread.">
<polygon fill="white" stroke="#666666" points="48,-88 2,-88 2,-68 48,-68 48,-88"/>
<text xml:space="preserve" text-anchor="middle" x="25" y="-74.5" font-family="Helvetica,sans-Serif" font-size="10.00">Thread</text>
</a>
</g>
</g>
<!-- Node2&#45;&gt;Node1 -->
<g id="edge1_Node000001_Node000002" class="edge">
<title>Node2&#45;&gt;Node1</title>
<g id="a_edge1_Node000001_Node000002"><a xlink:title=" ">
<path fill="none" stroke="#8b1a1a" d="M37.48,-58.27C43.09,-49.87 49.62,-40.08 54.91,-32.14"/>
<polygon fill="#8b1a1a" stroke="#8b1a1a" points="34.72,-56.1 32.09,-66.37 40.55,-59.99 34.72,-56.1"/>
</a>
</g>
</g>
<!-- Node3 -->
<g id="Node000003" class="node">
<title>Node3</title>
<g id="a_Node000003"><a xlink:href="classAsyncUpdater.html" target="_top" xlink:title="Has a callback method that is triggered asynchronously.">
<polygon fill="white" stroke="#666666" points="144.12,-88 65.88,-88 65.88,-68 144.12,-68 144.12,-88"/>
<text xml:space="preserve" text-anchor="middle" x="105" y="-74.5" font-family="Helvetica,sans-Serif" font-size="10.00">AsyncUpdater</text>
</a>
</g>
</g>
<!-- Node3&#45;&gt;Node1 -->
<g id="edge2_Node000001_Node000003" class="edge">
<title>Node3&#45;&gt;Node1</title>
<g id="a_edge2_Node000001_Node000003"><a xlink:title=" ">
<path fill="none" stroke="#8b1a1a" d="M92.52,-58.27C86.91,-49.87 80.38,-40.08 75.09,-32.14"/>
<polygon fill="#8b1a1a" stroke="#8b1a1a" points="89.45,-59.99 97.91,-66.37 95.28,-56.1 89.45,-59.99"/>
</a>
</g>
</g>
</g>
</svg>
