<?xml version="1.0" encoding="UTF-8" standalone="no"?>
<!DOCTYPE svg PUBLIC "-//W3C//DTD SVG 1.1//EN"
 "http://www.w3.org/Graphics/SVG/1.1/DTD/svg11.dtd">
<!-- Generated by graphviz version 13.1.0 (20250701.0955)
 -->
<!-- Title: OSCException Pages: 1 -->
<svg width="206pt" height="84pt"
 viewBox="0.00 0.00 206.00 84.00" xmlns="http://www.w3.org/2000/svg" xmlns:xlink="http://www.w3.org/1999/xlink">
<g id="graph0" class="graph" transform="scale(1 1) rotate(0) translate(4 80)">
<title>OSCException</title>
<!-- Node1 -->
<g id="Node000001" class="node">
<title>Node1</title>
<g id="a_Node000001"><a xlink:title="Base class for exceptions that can be thrown by methods in the OSC module.">
<polygon fill="#999999" stroke="#666666" points="139.38,-76 58.12,-76 58.12,-56 139.38,-56 139.38,-76"/>
<text xml:space="preserve" text-anchor="middle" x="98.75" y="-62.5" font-family="Helvetica,sans-Serif" font-size="10.00">OSCException</text>
</a>
</g>
</g>
<!-- Node2 -->
<g id="Node000002" class="node">
<title>Node2</title>
<g id="a_Node000002"><a xlink:href="structOSCFormatError.html" target="_top" xlink:title="Exception type thrown when the OSC module fails to parse something because of a data format not compa...">
<polygon fill="white" stroke="#666666" points="89.5,-20 0,-20 0,0 89.5,0 89.5,-20"/>
<text xml:space="preserve" text-anchor="middle" x="44.75" y="-6.5" font-family="Helvetica,sans-Serif" font-size="10.00">OSCFormatError</text>
</a>
</g>
</g>
<!-- Node1&#45;&gt;Node2 -->
<g id="edge1_Node000001_Node000002" class="edge">
<title>Node1&#45;&gt;Node2</title>
<g id="a_edge1_Node000001_Node000002"><a xlink:title=" ">
<path fill="none" stroke="#63b8ff" d="M81.32,-47.57C72.25,-38.5 61.53,-27.78 54.05,-20.3"/>
<polygon fill="#63b8ff" stroke="#63b8ff" points="78.73,-49.93 88.27,-54.52 83.68,-44.98 78.73,-49.93"/>
</a>
</g>
</g>
<!-- Node3 -->
<g id="Node000003" class="node">
<title>Node3</title>
<g id="a_Node000003"><a xlink:href="structOSCInternalError.html" target="_top" xlink:title="Exception type thrown in cases of unexpected errors in the OSC module.">
<polygon fill="white" stroke="#666666" points="198.25,-20 107.25,-20 107.25,0 198.25,0 198.25,-20"/>
<text xml:space="preserve" text-anchor="middle" x="152.75" y="-6.5" font-family="Helvetica,sans-Serif" font-size="10.00">OSCInternalError</text>
</a>
</g>
</g>
<!-- Node1&#45;&gt;Node3 -->
<g id="edge2_Node000001_Node000003" class="edge">
<title>Node1&#45;&gt;Node3</title>
<g id="a_edge2_Node000001_Node000003"><a xlink:title=" ">
<path fill="none" stroke="#63b8ff" d="M116.18,-47.57C125.25,-38.5 135.97,-27.78 143.45,-20.3"/>
<polygon fill="#63b8ff" stroke="#63b8ff" points="113.82,-44.98 109.23,-54.52 118.77,-49.93 113.82,-44.98"/>
</a>
</g>
</g>
</g>
</svg>
