<?xml version="1.0" encoding="UTF-8" standalone="no"?>
<!DOCTYPE svg PUBLIC "-//W3C//DTD SVG 1.1//EN"
 "http://www.w3.org/Graphics/SVG/1.1/DTD/svg11.dtd">
<!-- Generated by graphviz version 13.1.0 (20250701.0955)
 -->
<!-- Title: juce::dsp::FIR::Coefficients&lt; NumericType &gt; Pages: 1 -->
<svg width="144pt" height="152pt"
 viewBox="0.00 0.00 144.00 152.00" xmlns="http://www.w3.org/2000/svg" xmlns:xlink="http://www.w3.org/1999/xlink">
<g id="graph0" class="graph" transform="scale(1 1) rotate(0) translate(4 148)">
<title>juce::dsp::FIR::Coefficients&lt; NumericType &gt;</title>
<!-- Node1 -->
<g id="Node000001" class="node">
<title>Node1</title>
<g id="a_Node000001"><a xlink:title="A set of coefficients for use in an FIRFilter object.">
<polygon fill="#999999" stroke="#666666" points="136,-32 0,-32 0,0 136,0 136,-32"/>
<text xml:space="preserve" text-anchor="start" x="8" y="-18.5" font-family="Helvetica,sans-Serif" font-size="10.00">juce::dsp::FIR::Coefficients</text>
<text xml:space="preserve" text-anchor="middle" x="68" y="-6.5" font-family="Helvetica,sans-Serif" font-size="10.00">&lt; NumericType &gt;</text>
</a>
</g>
</g>
<!-- Node2 -->
<g id="Node000002" class="node">
<title>Node2</title>
<g id="a_Node000002"><a xlink:href="structjuce_1_1dsp_1_1ProcessorState.html" target="_top" xlink:title="This is a handy base class for the state of a processor (such as parameter values) which is typically...">
<polygon fill="white" stroke="#666666" points="132.62,-88 3.38,-88 3.38,-68 132.62,-68 132.62,-88"/>
<text xml:space="preserve" text-anchor="middle" x="68" y="-74.5" font-family="Helvetica,sans-Serif" font-size="10.00">juce::dsp::ProcessorState</text>
</a>
</g>
</g>
<!-- Node2&#45;&gt;Node1 -->
<g id="edge1_Node000001_Node000002" class="edge">
<title>Node2&#45;&gt;Node1</title>
<g id="a_edge1_Node000001_Node000002"><a xlink:title=" ">
<path fill="none" stroke="#63b8ff" d="M68,-56.31C68,-48.37 68,-39.46 68,-32.14"/>
<polygon fill="#63b8ff" stroke="#63b8ff" points="64.5,-56.11 68,-66.11 71.5,-56.11 64.5,-56.11"/>
</a>
</g>
</g>
<!-- Node3 -->
<g id="Node000003" class="node">
<title>Node3</title>
<g id="a_Node000003"><a xlink:href="classReferenceCountedObject.html" target="_top" xlink:title="A base class which provides methods for reference&#45;counting.">
<polygon fill="white" stroke="#666666" points="131.12,-144 4.88,-144 4.88,-124 131.12,-124 131.12,-144"/>
<text xml:space="preserve" text-anchor="middle" x="68" y="-130.5" font-family="Helvetica,sans-Serif" font-size="10.00">ReferenceCountedObject</text>
</a>
</g>
</g>
<!-- Node3&#45;&gt;Node2 -->
<g id="edge2_Node000002_Node000003" class="edge">
<title>Node3&#45;&gt;Node2</title>
<g id="a_edge2_Node000002_Node000003"><a xlink:title=" ">
<path fill="none" stroke="#63b8ff" d="M68,-112.13C68,-103.9 68,-94.85 68,-88.3"/>
<polygon fill="#63b8ff" stroke="#63b8ff" points="64.5,-112.08 68,-122.08 71.5,-112.08 64.5,-112.08"/>
</a>
</g>
</g>
</g>
</svg>
