<?xml version="1.0" encoding="UTF-8" standalone="no"?>
<!DOCTYPE svg PUBLIC "-//W3C//DTD SVG 1.1//EN"
 "http://www.w3.org/Graphics/SVG/1.1/DTD/svg11.dtd">
<!-- Generated by graphviz version 13.1.0 (20250701.0955)
 -->
<!-- Title: juce::dsp::ProcessorState Pages: 1 -->
<svg width="505pt" height="140pt"
 viewBox="0.00 0.00 505.00 140.00" xmlns="http://www.w3.org/2000/svg" xmlns:xlink="http://www.w3.org/1999/xlink">
<g id="graph0" class="graph" transform="scale(1 1) rotate(0) translate(4 136)">
<title>juce::dsp::ProcessorState</title>
<!-- Node1 -->
<g id="Node000001" class="node">
<title>Node1</title>
<g id="a_Node000001"><a xlink:title="This is a handy base class for the state of a processor (such as parameter values) which is typically...">
<polygon fill="#999999" stroke="#666666" points="291.5,-76 162.25,-76 162.25,-56 291.5,-56 291.5,-76"/>
<text xml:space="preserve" text-anchor="middle" x="226.88" y="-62.5" font-family="Helvetica,sans-Serif" font-size="10.00">juce::dsp::ProcessorState</text>
</a>
</g>
</g>
<!-- Node3 -->
<g id="Node000003" class="node">
<title>Node3</title>
<g id="a_Node000003"><a xlink:href="structjuce_1_1dsp_1_1FIR_1_1Coefficients.html" target="_top" xlink:title="A set of coefficients for use in an FIRFilter object.">
<polygon fill="white" stroke="#666666" points="480.38,-132 344.38,-132 344.38,-100 480.38,-100 480.38,-132"/>
<text xml:space="preserve" text-anchor="start" x="352.38" y="-118.5" font-family="Helvetica,sans-Serif" font-size="10.00">juce::dsp::FIR::Coefficients</text>
<text xml:space="preserve" text-anchor="middle" x="412.38" y="-106.5" font-family="Helvetica,sans-Serif" font-size="10.00">&lt; NumericType &gt;</text>
</a>
</g>
</g>
<!-- Node1&#45;&gt;Node3 -->
<g id="edge2_Node000001_Node000003" class="edge">
<title>Node1&#45;&gt;Node3</title>
<g id="a_edge2_Node000001_Node000003"><a xlink:title=" ">
<path fill="none" stroke="#63b8ff" d="M277.41,-79.5C300.06,-85.67 327.09,-93.03 350.93,-99.53"/>
<polygon fill="#63b8ff" stroke="#63b8ff" points="278.37,-76.13 267.8,-76.88 276.53,-82.89 278.37,-76.13"/>
</a>
</g>
</g>
<!-- Node4 -->
<g id="Node000004" class="node">
<title>Node4</title>
<g id="a_Node000004"><a xlink:href="structjuce_1_1dsp_1_1IIR_1_1Coefficients.html" target="_top" xlink:title="A set of coefficients for use in an Filter object.">
<polygon fill="white" stroke="#666666" points="478.88,-82 345.88,-82 345.88,-50 478.88,-50 478.88,-82"/>
<text xml:space="preserve" text-anchor="start" x="353.88" y="-68.5" font-family="Helvetica,sans-Serif" font-size="10.00">juce::dsp::IIR::Coefficients</text>
<text xml:space="preserve" text-anchor="middle" x="412.38" y="-56.5" font-family="Helvetica,sans-Serif" font-size="10.00">&lt; NumericType &gt;</text>
</a>
</g>
</g>
<!-- Node1&#45;&gt;Node4 -->
<g id="edge3_Node000001_Node000004" class="edge">
<title>Node1&#45;&gt;Node4</title>
<g id="a_edge3_Node000001_Node000004"><a xlink:title=" ">
<path fill="none" stroke="#63b8ff" d="M302.96,-66C317.06,-66 331.71,-66 345.5,-66"/>
<polygon fill="#63b8ff" stroke="#63b8ff" points="303.31,-62.5 293.31,-66 303.31,-69.5 303.31,-62.5"/>
</a>
</g>
</g>
<!-- Node5 -->
<g id="Node000005" class="node">
<title>Node5</title>
<g id="a_Node000005"><a xlink:href="structjuce_1_1dsp_1_1StateVariableFilter_1_1Parameters.html" target="_top" xlink:title="Structure used for the state variable filter parameters.">
<polygon fill="white" stroke="#666666" points="497.25,-32 327.5,-32 327.5,0 497.25,0 497.25,-32"/>
<text xml:space="preserve" text-anchor="start" x="335.5" y="-18.5" font-family="Helvetica,sans-Serif" font-size="10.00">juce::dsp::StateVariable</text>
<text xml:space="preserve" text-anchor="middle" x="412.38" y="-6.5" font-family="Helvetica,sans-Serif" font-size="10.00">Filter::Parameters&lt; NumericType &gt;</text>
</a>
</g>
</g>
<!-- Node1&#45;&gt;Node5 -->
<g id="edge4_Node000001_Node000005" class="edge">
<title>Node1&#45;&gt;Node5</title>
<g id="a_edge4_Node000001_Node000005"><a xlink:title=" ">
<path fill="none" stroke="#63b8ff" d="M277.41,-52.5C300.06,-46.33 327.09,-38.97 350.93,-32.47"/>
<polygon fill="#63b8ff" stroke="#63b8ff" points="276.53,-49.11 267.8,-55.12 278.37,-55.87 276.53,-49.11"/>
</a>
</g>
</g>
<!-- Node2 -->
<g id="Node000002" class="node">
<title>Node2</title>
<g id="a_Node000002"><a xlink:href="classReferenceCountedObject.html" target="_top" xlink:title="A base class which provides methods for reference&#45;counting.">
<polygon fill="white" stroke="#666666" points="126.25,-76 0,-76 0,-56 126.25,-56 126.25,-76"/>
<text xml:space="preserve" text-anchor="middle" x="63.12" y="-62.5" font-family="Helvetica,sans-Serif" font-size="10.00">ReferenceCountedObject</text>
</a>
</g>
</g>
<!-- Node2&#45;&gt;Node1 -->
<g id="edge1_Node000001_Node000002" class="edge">
<title>Node2&#45;&gt;Node1</title>
<g id="a_edge1_Node000001_Node000002"><a xlink:title=" ">
<path fill="none" stroke="#63b8ff" d="M138.17,-66C146.1,-66 154.11,-66 161.9,-66"/>
<polygon fill="#63b8ff" stroke="#63b8ff" points="138.18,-62.5 128.18,-66 138.18,-69.5 138.18,-62.5"/>
</a>
</g>
</g>
</g>
</svg>
